<svg height="24" viewBox="0 0 24 24" width="24" xmlns="http://www.w3.org/2000/svg"><path d="m4.93 4.93c-1.81 1.81-2.93 4.31-2.93 7.07s1.12 5.26 2.93 7.07l1.41-1.41c-1.45-1.44-2.34-3.44-2.34-5.66 0-2.21.89-4.22 2.34-5.66zm14.14 0-1.41 1.41c1.45 1.44 2.34 3.45 2.34 5.66 0 2.22-.89 4.22-2.34 5.66l1.41 1.41c1.81-1.81 2.93-4.31 2.93-7.07s-1.12-5.26-2.93-7.07m-11.31 2.83c-1.09 1.09-1.76 2.59-1.76 4.24s.67 3.15 1.76 4.24l1.41-1.41c-.72-.72-1.17-1.72-1.17-2.83s.45-2.11 1.17-2.83zm8.48 0-1.41 1.41c.72.72 1.17 1.72 1.17 2.83s-.45 2.11-1.17 2.83l1.41 1.41c1.09-1.09 1.76-2.59 1.76-4.24s-.67-3.15-1.76-4.24m-4.24 2.24a2 2 0 0 0 -2 2 2 2 0 0 0 2 2 2 2 0 0 0 2-2 2 2 0 0 0 -2-2z"/></svg>