<svg height="24" viewBox="0 0 24 24" width="24" xmlns="http://www.w3.org/2000/svg"><path d="m14.83 13.83c.72-.72 1.17-1.72 1.17-2.83s-.45-2.11-1.17-2.83l1.41-1.41c1.09 1.09 1.76 2.59 1.76 4.24s-.67 3.15-1.76 4.24zm-.83-2.83a2 2 0 0 0 -2-2c-.6 0-1.13.27-1.5.68l2.82 2.82c.41-.37.68-.9.68-1.5m3.66 5.66 1.41 1.41c1.81-1.81 2.93-4.31 2.93-7.07s-1.12-5.26-2.93-7.07l-1.41 1.41c1.45 1.44 2.34 3.45 2.34 5.66 0 2.22-.89 4.22-2.34 5.66m4.34 4.52v-1.18h-1.18zm-1.73.82.73.73-1.27 1.27-2-2h-2.73a1 1 0 0 1 -1 1h-4a1 1 0 0 1 -1-1h-7v-2h7a1 1 0 0 1 1-1h1v-3.73l-2.66-2.66c.2.46.48.89.83 1.22l-1.41 1.41c-1.09-1.09-1.76-2.59-1.76-4.24 0-.23 0-.46.04-.69l-1.67-1.67c-.23.75-.37 1.54-.37 2.36 0 2.22.89 4.22 2.34 5.66l-1.41 1.41c-1.81-1.81-2.93-4.31-2.93-7.07 0-1.39.29-2.72.81-3.92l-1.81-1.81 1.28-1.27 1.42 1.42 1.45 1.45 1.48 1.48 1.54 1.55 2.11 2.1.72.71 7.27 7.29h.01l2 2zm-4.54-2-2.73-2.73v1.73h1a1 1 0 0 1 1 1z"/></svg>