<svg height="24" viewBox="0 0 24 24" width="24" xmlns="http://www.w3.org/2000/svg"><path d="m11 14c1 0 2.05.16 3.2.44-.81.87-1.2 1.89-1.2 3.06 0 .89.25 1.73.78 2.5h-10.78v-2c0-1.19.91-2.15 2.74-2.88 1.83-.74 3.59-1.12 5.26-1.12m0-2c-1.08 0-2-.39-2.82-1.17-.8-.78-1.18-1.72-1.18-2.83 0-1.08.38-2 1.18-2.82.82-.8 1.74-1.18 2.82-1.18 1.11 0 2.05.38 2.83 1.18.78.82 1.17 1.74 1.17 2.82 0 1.11-.39 2.05-1.17 2.83s-1.72 1.17-2.83 1.17m7.5-2h1.5 2v2h-2v5.5a2.5 2.5 0 0 1 -2.5 2.5 2.5 2.5 0 0 1 -2.5-2.5 2.5 2.5 0 0 1 2.5-2.5c.36 0 .69.07 1 .21z"/></svg>