<svg height="24" viewBox="0 0 24 24" width="24" xmlns="http://www.w3.org/2000/svg"><path d="m12.7 9.5-5.2-5.2c.46-.19.96-.3 1.5-.3 2.2 0 4 1.79 4 4 0 .53-.11 1.04-.3 1.5m4.05 2.13c2.02-2.02 2.02-5.07 0-7.27l-1.68 1.69c.84 1.18.84 2.71 0 3.89zm3.31 3.37c3.9-3.89 3.94-9.95 0-14l-1.63 1.63c2.77 3.02 2.77 7.56 0 10.74zm-17.67-13.27-1.28 1.27 4.02 4c-.08.34-.13.66-.13 1 0 2.21 1.79 4 4 4 .33 0 .66-.06.97-.14l3.03 3.01c-.07 1.19-.46 3.45-2.2 5.96l-.8-4.83.93-1.88c-.62-.07-1.27-.12-1.93-.12-.68 0-1.33.05-1.95.12l.95 1.88-.82 4.83c-1.91-2.76-2.18-5.23-2.18-6.29-2.4.7-4.006 1.96-4.006 3.46v4h16.006v-3.12l3.84 3.85 1.27-1.27z"/></svg>