<svg height="24" viewBox="0 0 24 24" width="24" xmlns="http://www.w3.org/2000/svg"><path d="m10 4a4 4 0 0 0 -4 4 4 4 0 0 0 4 4 4 4 0 0 0 4-4 4 4 0 0 0 -4-4m0 2a2 2 0 0 1 2 2 2 2 0 0 1 -2 2 2 2 0 0 1 -2-2 2 2 0 0 1 2-2m0 7c-2.67 0-8 1.33-8 4v3h9.5a6.5 6.5 0 0 1 -.47-1.9h-7.13v-1.1c0-.64 3.13-2.1 6.1-2.1.5 0 1 .05 1.5.13a6.5 6.5 0 0 1 1.05-1.74c-.94-.19-1.84-.29-2.55-.29m7.5 0c-2.5 0-4.5 2-4.5 4.5s2 4.5 4.5 4.5 4.5-2 4.5-4.5-2-4.5-4.5-4.5m0 1.5c1.66 0 3 1.34 3 3 0 .56-.15 1.08-.42 1.5l-4.08-4.08c.42-.27.94-.42 1.5-.42m-2.58 1.5 4.08 4.08c-.42.27-.94.42-1.5.42-1.66 0-3-1.34-3-3 0-.56.15-1.08.42-1.5z"/></svg>