<svg height="24" viewBox="0 0 24 24" width="24" xmlns="http://www.w3.org/2000/svg"><path d="m10 13c-.35.59-.64 1.24-.81 1.93-2.69.23-5.29 1.49-5.29 2.07v1.1h5.3c.17.68.45 1.32.8 1.9h-8v-3c0-2.66 5.33-4 8-4m0-9a4 4 0 0 1 4 4c0 .91-.31 1.75-.82 2.43-.86.32-1.63.83-2.27 1.47l-.91.1a4 4 0 0 1 -4-4 4 4 0 0 1 4-4m0 1.9a2.1 2.1 0 0 0 -2.1 2.1 2.1 2.1 0 0 0 2.1 2.1 2.1 2.1 0 0 0 2.1-2.1 2.1 2.1 0 0 0 -2.1-2.1m5.5 6.1c2.5 0 4.5 2 4.5 4.5 0 .88-.25 1.71-.69 2.4l3.08 3.1-1.39 1.39-3.12-3.07c-.69.43-1.51.68-2.38.68-2.5 0-4.5-2-4.5-4.5s2-4.5 4.5-4.5m0 2a2.5 2.5 0 0 0 -2.5 2.5 2.5 2.5 0 0 0 2.5 2.5 2.5 2.5 0 0 0 2.5-2.5 2.5 2.5 0 0 0 -2.5-2.5z"/></svg>