<svg height="24" viewBox="0 0 24 24" width="24" xmlns="http://www.w3.org/2000/svg"><path d="m10.63 14.1c1.6-3.52 5.75-5.07 9.27-3.47s5.07 5.75 3.47 9.27c-1.13 2.5-3.62 4.1-6.37 4.1-2.7 0-5.17-1.56-6.33-4h-9.67v-2c.06-1.14.84-2.07 2.34-2.82s3.38-1.14 5.66-1.18c.57 0 1.11.05 1.63.1zm-1.63-10.1c1.12.03 2.06.42 2.81 1.17s1.12 1.69 1.12 2.83-.37 2.08-1.12 2.83-1.69 1.12-2.81 1.12-2.06-.37-2.81-1.12-1.12-1.69-1.12-2.83.37-2.08 1.12-2.83 1.69-1.14 2.81-1.17m8 18a5 5 0 0 0 5-5 5 5 0 0 0 -5-5 5 5 0 0 0 -5 5 5 5 0 0 0 5 5m-1-8h1.5v2.82l2.44 1.41-.75 1.3-3.19-1.84z"/></svg>