<svg height="24" viewBox="0 0 24 24" width="24" xmlns="http://www.w3.org/2000/svg"><path d="m15.5 12c2.5 0 4.5 2 4.5 4.5 0 .88-.25 1.71-.69 2.4l3.08 3.1-1.39 1.39-3.12-3.07c-.69.43-1.51.68-2.38.68-2.5 0-4.5-2-4.5-4.5s2-4.5 4.5-4.5m0 2a2.5 2.5 0 0 0 -2.5 2.5 2.5 2.5 0 0 0 2.5 2.5 2.5 2.5 0 0 0 2.5-2.5 2.5 2.5 0 0 0 -2.5-2.5m-5.5-10a4 4 0 0 1 4 4c0 .91-.31 1.75-.82 2.43-.86.32-1.63.83-2.27 1.47l-.91.1a4 4 0 0 1 -4-4 4 4 0 0 1 4-4m-8 16v-2c0-2.12 3.31-3.86 7.5-4-.32.78-.5 1.62-.5 2.5 0 1.29.38 2.5 1 3.5z"/></svg>