<svg height="24" viewBox="0 0 24 24" width="24" xmlns="http://www.w3.org/2000/svg"><path d="m12 2a3 3 0 0 1 3 3 3 3 0 0 1 -3 3 3 3 0 0 1 -3-3 3 3 0 0 1 3-3m0 7c1.63 0 3.12.35 4.5 1.05 1.34.71 2 1.56 2 2.56v5.77c0 1.12-.86 2.06-2.61 2.81v-2.19c0-.95-.86-1.62-2.58-2.03-.56-.13-1-.19-1.31-.19-.87 0-1.7.17-2.46.52-.77.34-1.23.78-1.38 1.31 1.34.53 2.62.8 3.84.8l1-.1v2.63l-1 .06c-1.37 0-2.67-.28-3.89-.81-1.75-.75-2.61-1.69-2.61-2.81v-5.77c0-1 .66-1.85 2-2.56 1.38-.7 2.88-1.05 4.5-1.05m0 2a2 2 0 0 0 -2 2 2 2 0 0 0 2 2 2 2 0 0 0 2-2 2 2 0 0 0 -2-2z"/></svg>