<svg height="24" viewBox="0 0 24 24" width="24" xmlns="http://www.w3.org/2000/svg"><path d="m12 17c-1.1 0-2-.9-2-2s.9-2 2-2 2 .9 2 2-.9 2-2 2m0-7c2.34 0 7 1.16 7 3.5v5.13c0 .87-.69 1.61-1.66 2.16v-7.41c0-.56-2.74-1.84-5.34-1.84s-5.34 1.28-5.34 1.84v5.37c0 .25.65.71 1.62 1.1.72-.85 2.65-1.29 3.72-1.29 1.33 0 4 .66 4 2v.83c-1.37.49-2.93.74-4 .74s-2.62-.25-4-.74c-1.63-.58-3-1.5-3-2.76v-5.13c0-2.34 4.66-3.5 7-3.5m0-6.25c-.97 0-1.75.78-1.75 1.75s.78 1.75 1.75 1.75 1.75-.78 1.75-1.75-.78-1.75-1.75-1.75m0 5.25c-1.93 0-3.5-1.57-3.5-3.5s1.57-3.5 3.5-3.5 3.5 1.57 3.5 3.5-1.57 3.5-3.5 3.5z"/></svg>