<svg height="24" viewBox="0 0 24 24" width="24" xmlns="http://www.w3.org/2000/svg"><path d="m16 14h1.5v2.82l2.44 1.41-.75 1.3-3.19-1.84zm1-2a5 5 0 0 0 -5 5 5 5 0 0 0 5 5 5 5 0 0 0 5-5 5 5 0 0 0 -5-5m0-2a7 7 0 0 1 7 7 7 7 0 0 1 -7 7c-2.79 0-5.2-1.64-6.33-4h-9.67v-3c0-2.66 5.33-4 8-4 .6 0 1.34.07 2.12.2 1.24-1.92 3.41-3.2 5.88-3.2m-7 7c0-.7.1-1.38.29-2-.42-.07-.86-.1-1.29-.1-2.97 0-6.1 1.46-6.1 2.1v1.1h7.19c-.06-.36-.09-.73-.09-1.1m-1-13a4 4 0 0 1 4 4 4 4 0 0 1 -4 4 4 4 0 0 1 -4-4 4 4 0 0 1 4-4m0 1.9a2.1 2.1 0 0 0 -2.1 2.1 2.1 2.1 0 0 0 2.1 2.1 2.1 2.1 0 0 0 2.1-2.1 2.1 2.1 0 0 0 -2.1-2.1z"/></svg>