<svg height="24" viewBox="0 0 24 24" width="24" xmlns="http://www.w3.org/2000/svg"><path d="m24 17v2h-3v-2c0-1.55-.7-2.94-1.82-3.94 4.82.49 4.82 3.94 4.82 3.94m-6-12c1.66 0 3 1.34 3 3s-1.34 3-3 3c-.31 0-.62-.05-.9-.14.57-.81.9-1.79.9-2.86 0-1.06-.33-2.05-.9-2.86.28-.09.59-.14.9-.14m-5 0c1.66 0 3 1.34 3 3s-1.34 3-3 3-3-1.34-3-3 1.34-3 3-3m6 12v2h-12v-2c0-2.21 2.69-4 6-4s6 1.79 6 4m-6-10c-.55 0-1 .45-1 1s.45 1 1 1 1-.45 1-1-.45-1-1-1m0 8c-2.21 0-4 .9-4 2h8c0-1.1-1.79-2-4-2m-12.536-1.88 2.126-2.12-2.126-2.12 1.416-1.42 2.12 2.13 2.12-2.13 1.42 1.42-2.13 2.12 2.13 2.12-1.42 1.42-2.12-2.13-2.12 2.13z"/></svg>