<svg height="24" viewBox="0 0 24 24" width="24" xmlns="http://www.w3.org/2000/svg"><path d="m12 5a3.5 3.5 0 0 0 -3.5 3.5 3.5 3.5 0 0 0 3.5 3.5 3.5 3.5 0 0 0 3.5-3.5 3.5 3.5 0 0 0 -3.5-3.5m0 2a1.5 1.5 0 0 1 1.5 1.5 1.5 1.5 0 0 1 -1.5 1.5 1.5 1.5 0 0 1 -1.5-1.5 1.5 1.5 0 0 1 1.5-1.5m-6.5 1a2.5 2.5 0 0 0 -2.5 2.5c0 .94.53 1.75 1.29 2.18.36.2.77.32 1.21.32s.85-.12 1.21-.32c.37-.21.68-.51.91-.87-.73-.95-1.12-2.11-1.12-3.31 0-.09 0-.19 0-.28-.3-.14-.64-.22-1-.22m13 0c-.36 0-.7.08-1 .22v.28c0 1.2-.39 2.36-1.12 3.31.12.19.25.34.4.49.16.15.32.28.51.38.36.2.77.32 1.21.32s.85-.12 1.21-.32c.76-.43 1.29-1.24 1.29-2.18a2.5 2.5 0 0 0 -2.5-2.5m-6.5 6c-2.34 0-7 1.17-7 3.5v1.5h14v-1.5c0-2.33-4.66-3.5-7-3.5m-7.29.55c-1.93.23-4.71 1.21-4.71 2.95v1.5h3v-1.93c0-1.01.69-1.85 1.71-2.52m14.58 0c1.02.67 1.71 1.51 1.71 2.52v1.93h3v-1.5c0-1.74-2.78-2.72-4.71-2.95m-7.29 1.45c1.53 0 3.24.5 4.23 1h-8.46c.99-.5 2.7-1 4.23-1z"/></svg>