<svg height="24" viewBox="0 0 24 24" width="24" xmlns="http://www.w3.org/2000/svg"><path d="m5 15-.6-.5c-2-1.9-3.4-3.1-3.4-4.6 0-1.2 1-2.2 2.2-2.2.7 0 1.4.3 1.8.8.4-.5 1.1-.8 1.8-.8 1.2 0 2.2.9 2.2 2.2 0 1.5-1.4 2.7-3.4 4.6zm10-11a4 4 0 0 0 -4 4 4 4 0 0 0 4 4 4 4 0 0 0 4-4 4 4 0 0 0 -4-4m0 6.1a2.1 2.1 0 0 1 -2.1-2.1 2.1 2.1 0 0 1 2.1-2.1c1.16 0 2.1.94 2.1 2.1s-.94 2.1-2.1 2.1m0 2.9c-2.67 0-8 1.33-8 4v3h16v-3c0-2.67-5.33-4-8-4m6.1 5.1h-12.2v-1.1c0-.64 3.1-2.1 6.1-2.1 2.97 0 6.1 1.46 6.1 2.1z"/></svg>