<svg height="24" viewBox="0 0 24 24" width="24" xmlns="http://www.w3.org/2000/svg"><path d="m12 2a10 10 0 0 0 -10 10 10 10 0 0 0 10 10 10 10 0 0 0 10-10 10 10 0 0 0 -10-10m-4.93 16.28c.43-.9 3.05-1.78 4.93-1.78s4.5.88 4.93 1.78c-1.36 1.08-3.07 1.72-4.93 1.72s-3.57-.64-4.93-1.72m11.29-1.45c-1.43-1.74-4.9-2.33-6.36-2.33s-4.93.59-6.36 2.33c-1.02-1.33-1.64-3.01-1.64-4.83 0-4.41 3.59-8 8-8s8 3.59 8 8c0 1.82-.62 3.5-1.64 4.83m-6.36-10.83c-1.94 0-3.5 1.56-3.5 3.5s1.56 3.5 3.5 3.5 3.5-1.56 3.5-3.5-1.56-3.5-3.5-3.5m0 5a1.5 1.5 0 0 1 -1.5-1.5 1.5 1.5 0 0 1 1.5-1.5 1.5 1.5 0 0 1 1.5 1.5 1.5 1.5 0 0 1 -1.5 1.5z"/></svg>