<svg height="24" viewBox="0 0 24 24" width="24" xmlns="http://www.w3.org/2000/svg"><path d="m9.22 6-1.72-1.7c.46-.19.97-.3 1.5-.3 2.21 0 4 1.79 4 4 0 .53-.11 1.04-.3 1.5l-1.7-1.72c-.13-.92-.86-1.65-1.78-1.78m10.84 9c3.9-3.89 3.94-9.95 0-14l-1.63 1.63c2.77 3.02 2.77 7.56 0 10.74zm-3.31-3.37c2.02-2.02 2.02-5.07 0-7.27l-1.68 1.69c.84 1.18.84 2.71 0 3.89zm-14.36-9.9-1.28 1.27 4.03 4.03c-.08.31-.14.63-.14.97 0 2.21 1.79 4 4 4 .34 0 .66-.06.97-.14l2.89 2.89-.13.25-.23.5c.8.24 1.47.55 1.94.83l.66.67v3.1h-4.22l-.88-5.07.94-1.88c-.62-.07-1.27-.12-1.94-.12s-1.32.05-1.94.12l.94 1.88-.88 5.07h-4.22v-3.1c0-.38 1.1-1.04 2.6-1.5l-.23-.5-.62-1.24c-1.96.66-3.65 1.74-3.65 3.24v5h16v-3.11l3.84 3.84 1.27-1.27z"/></svg>