<svg height="24" viewBox="0 0 24 24" width="24" xmlns="http://www.w3.org/2000/svg"><path d="m16.75 4.36c2.02 2.2 2.02 5.25 0 7.27l-1.68-1.69c.84-1.18.84-2.71 0-3.89zm3.31-3.36c3.94 4.05 3.9 10.11 0 14l-1.63-1.63c2.77-3.18 2.77-7.72 0-10.74zm-11.06 3c2.2 0 4 1.79 4 4s-1.8 4-4 4-4-1.79-4-4 1.79-4 4-4m4 10.54c0 1.06-.29 3.53-2.2 6.29l-.8-4.83.93-1.88c-.62-.07-1.27-.12-1.93-.12s-1.33.05-1.95.12l.95 1.88-.82 4.83c-1.91-2.76-2.18-5.23-2.18-6.29-2.4.7-4.006 1.96-4.006 3.46v4h16.006v-4c0-1.5-1.61-2.76-4-3.46z"/></svg>