<svg height="24" viewBox="0 0 24 24" width="24" xmlns="http://www.w3.org/2000/svg"><path d="m12 2c-5.53 0-10 4.5-10 10a10 10 0 0 0 10 10 10 10 0 0 0 10-10 10 10 0 0 0 -10-10m3.6 6.34c1.07 0 1.93.86 1.93 1.93s-.86 1.93-1.93 1.93a1.93 1.93 0 0 1 -1.93-1.93c-.01-1.07.86-1.93 1.93-1.93m-6-1.58c1.3 0 2.36 1.06 2.36 2.36s-1.06 2.38-2.36 2.38-2.36-1.08-2.36-2.38c0-1.31 1.05-2.36 2.36-2.36m0 9.13v3.75c-2.4-.75-4.3-2.6-5.14-4.96 1.04-1.12 3.67-1.68 5.14-1.68.53 0 1.2.07 1.9.21-1.64.87-1.9 2.02-1.9 2.68m2.4 4.11c-.28 0-.54 0-.8-.04v-4.07c0-1.42 2.94-2.13 4.4-2.13 1.07 0 2.9.39 3.84 1.15-1.17 2.97-4.06 5.09-7.44 5.09z"/></svg>