<svg height="24" viewBox="0 0 24 24" width="24" xmlns="http://www.w3.org/2000/svg"><path d="m20.5 14.5v1.5h-1.5v-1.5zm-2-5h-1.5v-.5a3 3 0 0 1 3-3 3 3 0 0 1 3 3c0 .97-.5 1.88-1.29 2.41l-.3.19c-.57.4-.91 1.01-.91 1.7v.2h-1.5v-.2c0-1.19.6-2.3 1.59-2.95l.29-.19c.39-.26.62-.69.62-1.16a1.5 1.5 0 0 0 -1.5-1.5 1.5 1.5 0 0 0 -1.5 1.5zm-9.5 3.5c2.67 0 8 1.34 8 4v3h-16v-3c0-2.66 5.33-4 8-4m0-9a4 4 0 0 1 4 4 4 4 0 0 1 -4 4 4 4 0 0 1 -4-4 4 4 0 0 1 4-4m0 10.9c-2.97 0-6.1 1.46-6.1 2.1v1.1h12.2v-1.1c0-.64-3.13-2.1-6.1-2.1m0-9a2.1 2.1 0 0 0 -2.1 2.1 2.1 2.1 0 0 0 2.1 2.1 2.1 2.1 0 0 0 2.1-2.1 2.1 2.1 0 0 0 -2.1-2.1z"/></svg>