<svg height="24" viewBox="0 0 24 24" width="24" xmlns="http://www.w3.org/2000/svg"><path d="m5.83 10c-.41-1.17-1.52-2-2.83-2a3 3 0 0 0 -3 3 3 3 0 0 0 3 3c1.31 0 2.42-.83 2.83-2h2.17v2h2v-2h1v-2zm-2.83 2a1 1 0 0 1 -1-1 1 1 0 0 1 1-1 1 1 0 0 1 1 1 1 1 0 0 1 -1 1m13-8a4 4 0 0 0 -4 4 4 4 0 0 0 4 4 4 4 0 0 0 4-4 4 4 0 0 0 -4-4m0 6.1a2.1 2.1 0 0 1 -2.1-2.1 2.1 2.1 0 0 1 2.1-2.1c1.16 0 2.1.94 2.1 2.1s-.94 2.1-2.1 2.1m0 2.9c-2.67 0-8 1.33-8 4v3h16v-3c0-2.67-5.33-4-8-4m6.1 5.1h-12.2v-1.1c0-.64 3.1-2.1 6.1-2.1 2.97 0 6.1 1.46 6.1 2.1z"/></svg>