<svg height="24" viewBox="0 0 24 24" width="24" xmlns="http://www.w3.org/2000/svg"><path d="m12 5.5a3.5 3.5 0 0 1 3.5 3.5 3.5 3.5 0 0 1 -3.5 3.5 3.5 3.5 0 0 1 -3.5-3.5 3.5 3.5 0 0 1 3.5-3.5m-7 2.5c.56 0 1.08.15 1.53.42-.15 1.43.27 2.85 1.13 3.96-.5.96-1.5 1.62-2.66 1.62a3 3 0 0 1 -3-3 3 3 0 0 1 3-3m14 0a3 3 0 0 1 3 3 3 3 0 0 1 -3 3c-1.16 0-2.16-.66-2.66-1.62.86-1.11 1.28-2.53 1.13-3.96.45-.27.97-.42 1.53-.42m-13.5 10.25c0-2.07 2.91-3.75 6.5-3.75s6.5 1.68 6.5 3.75v1.75h-13zm-5.5 1.75v-1.5c0-1.39 1.89-2.56 4.45-2.9-.59.68-.95 1.62-.95 2.65v1.75zm24 0h-3.5v-1.75c0-1.03-.36-1.97-.95-2.65 2.56.34 4.45 1.51 4.45 2.9z"/></svg>