<svg height="24" viewBox="0 0 24 24" width="24" xmlns="http://www.w3.org/2000/svg"><path d="m12 12a1.5 1.5 0 0 1 1.5 1.5 1.5 1.5 0 0 1 -1.5 1.5 1.5 1.5 0 0 1 -1.5-1.5 1.5 1.5 0 0 1 1.5-1.5m0-10a10 10 0 0 1 10 10 10 10 0 0 1 -10 10 10 10 0 0 1 -10-10 10 10 0 0 1 10-10m0 14c.72 0 1.4.15 2.04.5.64.3.96.7.96 1.17v1.74c1.34-.6 2-1.33 2-2.21v-4.4c0-.8-.5-1.45-1.55-2-1.05-.54-2.2-.8-3.45-.8s-2.4.26-3.45.8c-1.05.55-1.55 1.2-1.55 2v4.4c0 .8.53 1.49 1.63 2.02 1.09.53 2.21.78 3.37.78l1-.08v-2.01l-1 .09c-1 0-2-.2-2.95-.61.12-.39.48-.7 1.08-.98.59-.28 1.21-.41 1.87-.41m0-12a2.5 2.5 0 0 0 -2.5 2.5 2.5 2.5 0 0 0 2.5 2.5 2.5 2.5 0 0 0 2.5-2.5 2.5 2.5 0 0 0 -2.5-2.5z"/></svg>