<svg height="24" viewBox="0 0 24 24" width="24" xmlns="http://www.w3.org/2000/svg"><path d="m22 17v-.5c0-1.38-1.12-2.5-2.5-2.5s-2.5 1.12-2.5 2.5v.5c-.55 0-1 .45-1 1v4c0 .55.45 1 1 1h5c.55 0 1-.45 1-1v-4c0-.55-.45-1-1-1m-1 0h-3v-.5c0-.83.67-1.5 1.5-1.5s1.5.67 1.5 1.5zm-7 3h-10v-3c0-2.67 5.33-4 8-4 1.08 0 2.6.22 4 .66-.39.49-.67 1.08-.84 1.72-.97-.28-2.07-.48-3.16-.48-2.97 0-6.1 1.46-6.1 2.1v1.1h8.1zm-2-8c2.21 0 4-1.79 4-4s-1.79-4-4-4-4 1.79-4 4 1.79 4 4 4m0-6c1.11 0 2 .9 2 2s-.89 2-2 2-2-.89-2-2 .9-2 2-2z"/></svg>