<svg height="24" viewBox="0 0 24 24" width="24" xmlns="http://www.w3.org/2000/svg"><path d="m16.5 15.5c1.72 0 3.75.8 4 1.28v.72h-8v-.72c.25-.48 2.28-1.28 4-1.28m0-1.5c-1.83 0-5.5.92-5.5 2.75v2.25h11v-2.25c0-1.83-3.67-2.75-5.5-2.75m-7.5-1c-2.33 0-7 1.17-7 3.5v2.5h7v-1.5h-5.5v-1c0-.63 2.79-2.16 6.32-2a5.12 5.12 0 0 1 1.55-1.25 12.28 12.28 0 0 0 -2.37-.25m0-6.5a1.5 1.5 0 1 1 -1.5 1.5 1.5 1.5 0 0 1 1.5-1.5m0-1.5a3 3 0 1 0 3 3 3 3 0 0 0 -3-3m7.5 3.5a1 1 0 1 1 -1 1 1 1 0 0 1 1-1m0-1.5a2.5 2.5 0 1 0 2.5 2.5 2.5 2.5 0 0 0 -2.5-2.5z"/></svg>