<svg height="24" viewBox="0 0 24 24" width="24" xmlns="http://www.w3.org/2000/svg"><path d="m19 18.31v1.69a2 2 0 0 1 -2 2h-10a2 2 0 0 1 -2-2v-3.7c-.46-.18-1.05-.3-2-.3a1 1 0 0 1 -1-1 1 1 0 0 1 1-1c.82 0 1.47.08 2 .21v-1.91c-.46-.18-1.05-.3-2-.3a1 1 0 0 1 -1-1 1 1 0 0 1 1-1c.82 0 1.47.08 2 .21v-1.91c-.46-.18-1.05-.3-2-.3a1 1 0 0 1 -1-1 1 1 0 0 1 1-1c.82 0 1.47.08 2 .21v-2.21a2 2 0 0 1 2-2h10a2 2 0 0 1 2 2v2.16c1.78.31 2.54.97 2.71 1.13.39.39.39 1.03 0 1.42s-.91.38-1.42 0-1.04-.71-3.29-.71c-1.26 0-2.09.41-3.05.9-1.04.51-2.21 1.1-3.95 1.1-.36 0-.69 0-1-.04v-2.01c.3.05.63.05 1 .05 1.26 0 2.09-.41 3.05-.89 1.04-.52 2.22-1.11 3.95-1.11v-2h-10v16h10v-2c1.5 0 1.97.29 2 .31m-2-8.31c-1.73 0-2.91.59-3.95 1.11-.96.48-1.79.89-3.05.89-.37 0-.7 0-1-.05v2.01c.31.04.64.04 1 .04 1.74 0 2.91-.59 3.95-1.1.96-.48 1.79-.9 3.05-.9 2.25 0 3.29.71 3.29.71.51.39 1.03.39 1.42 0s.39-1.02 0-1.42c-.21-.21-1.46-1.29-4.71-1.29m0 4c-1.73 0-2.91.59-3.95 1.11-.96.48-1.79.89-3.05.89-.37 0-.7 0-1-.05v2.01c.31.04.64.04 1 .04 1.74 0 2.91-.59 3.95-1.1.96-.48 1.79-.9 3.05-.9 2.25 0 3.29.71 3.29.71.51.39 1.03.39 1.42 0s.39-1.02 0-1.42c-.21-.21-1.46-1.29-4.71-1.29z"/></svg>