<svg height="24" viewBox="0 0 24 24" width="24" xmlns="http://www.w3.org/2000/svg"><path d="m11 23c-1.1 0-2-.9-2-2v-2h6v2c0 1.1-.9 2-2 2zm1-20c.28 0 .55 0 .81.05.61 1.17 1.19 3.21 1.19 5.95 0 2.1-1 7-1 7h-2s-1-4.9-1-7c0-2.74.58-4.78 1.19-5.95.26-.05.53-.05.81-.05m0-2c-.71 0-1.39.09-2.05.26-1.17 1.57-1.95 4.45-1.95 7.74 0 2.28.38 4.37 1 7 0 1.1.9 2 2 2h2c1.1 0 2-.9 2-2 .62-2.63 1-4.72 1-7 0-3.29-.78-6.17-1.95-7.74-.66-.17-1.34-.26-2.05-.26m-8 7c0 3.18 1.85 7.92 4.54 9.21-.54-1-.93-2.54-1.2-4.21-.79-1.47-1.34-3.38-1.34-5 0-1.34.44-2.33 1.47-3.2.26-1.13.62-2.15 1.07-3.01-2.69 1.29-4.54 3.03-4.54 6.21m11.46-6.21c.45.86.81 1.88 1.07 3.01 1.03.87 1.47 1.86 1.47 3.2 0 1.62-.55 3.53-1.34 5-.27 1.67-.66 3.21-1.2 4.21 2.69-1.29 4.54-6.03 4.54-9.21s-1.85-4.92-4.54-6.21z"/></svg>