<svg height="24" viewBox="0 0 24 24" width="24" xmlns="http://www.w3.org/2000/svg"><path d="m8 3.28-1.4-1.42-.86.71 1.42 1.43m9.31 14.39c-1.21 1-2.77 1.61-4.47 1.61a7 7 0 0 1 -7-7c0-1.7.61-3.26 1.61-4.47m-3.69-6.24-1.27 1.28 1.35 1.33-1.13.93 1.42 1.42 1.11-.94.8.8c-1.37 1.58-2.2 3.64-2.2 5.89a9 9 0 0 0 9 9c2.25 0 4.31-.83 5.89-2.2l2.2 2.2 1.27-1.27-17.47-17.46zm19.08 3.43-4.6-3.86-1.29 1.53 4.6 3.86zm-10 .28a7 7 0 0 1 7 7c0 .84-.16 1.65-.43 2.4l1.52 1.52c.58-1.19.91-2.51.91-3.92a9 9 0 0 0 -9-9c-1.41 0-2.73.33-3.92.91l1.52 1.52c.75-.27 1.56-.43 2.4-.43z"/></svg>