<svg height="24" viewBox="0 0 24 24" width="24" xmlns="http://www.w3.org/2000/svg"><path d="m9.29 3.25-4.13 3.47-1.16-1.38 4.14-3.47zm12.71 2.1-1.16 1.38-4.14-3.48 1.16-1.38zm-9-1.35a8 8 0 0 1 8 8 8 8 0 0 1 -8 8 8 8 0 0 1 -8-8 8 8 0 0 1 8-8m0 2a6 6 0 0 0 -6 6 6 6 0 0 0 6 6 6 6 0 0 0 6-6 6 6 0 0 0 -6-6m-1 1.5h1.5v4.53l3.22 1.47-.62 1.36-4.1-1.86zm-11 6.5c0-2.5 1.13-4.7 2.91-6.17-.58 1.27-.91 2.67-.91 4.17l.06 1.13-.06.87c0 2.28 1.27 4.26 3.14 5.28 1.3 1.22 2.93 2.11 4.75 2.5-.61.14-1.24.22-1.89.22a8 8 0 0 1 -8-8z"/></svg>