<svg height="24" viewBox="0 0 24 24" width="24" xmlns="http://www.w3.org/2000/svg"><path d="m19 13v2.8l1 1v-1.8h3v-2zm-16.62-11.27-1.27 1.27 1.89 1.88-1 .83 1.29 1.53 1.12-.94.8.8c-3.26 3.75-2.86 9.44.9 12.7 1.63 1.42 3.72 2.2 5.89 2.2.33 0 .67 0 1-.06v-2c-.33.06-.67.06-1 .06a7 7 0 0 1 -7-7c0-1.64.57-3.23 1.63-4.5l4.78 4.8-3.91 2.32.75 1.23 4.19-2.52 3.94 3.94c-1.24.61-1.74 2.11-1.13 3.35s2.11 1.74 3.35 1.13c.49-.25.9-.64 1.13-1.13l1.11 1.11 1.27-1.27zm9.62 4.27c3.1 0 5.83 2.03 6.71 5h2.07c-.93-4.1-4.58-7-8.78-7-1.35 0-2.69.3-3.9.9l1.52 1.52c.76-.28 1.57-.42 2.38-.42m-.5 2.3 1.5 1.5v-1.8h-1.5zm-3.62-4.91-1.28-1.53-.84.7 1.42 1.44zm9.52-1.53-1.29 1.53 4.6 3.86 1.29-1.53z"/></svg>