<svg height="24" viewBox="0 0 24 24" width="24" xmlns="http://www.w3.org/2000/svg"><path d="m18.6 6.62c-1.44 0-2.8.56-3.77 1.53l-7.03 6.24c-.64.64-1.49.99-2.4.99-1.87 0-3.4-1.51-3.4-3.38s1.53-3.38 3.4-3.38c.91 0 1.76.35 2.44 1.03l1.13 1 1.53-1.34-1.28-1.11c-1.02-1.02-2.38-1.58-3.82-1.58-2.98 0-5.4 2.42-5.4 5.38s2.42 5.38 5.4 5.38c1.44 0 2.8-.56 3.77-1.53l7.03-6.24c.64-.64 1.49-.99 2.4-.99 1.87 0 3.4 1.51 3.4 3.38s-1.53 3.38-3.4 3.38c-.9 0-1.76-.35-2.44-1.03l-1.16-1.01-1.5 1.34 1.28 1.12c1.02 1.01 2.37 1.57 3.82 1.57 2.98 0 5.4-2.41 5.4-5.37 0-3-2.42-5.38-5.4-5.38z"/></svg>