<svg height="24" viewBox="0 0 24 24" width="24" xmlns="http://www.w3.org/2000/svg"><path d="m19.75 5.33a1.25 1.25 0 0 0 -1.25 1.25v4.59h-.83v-7.09a1.25 1.25 0 0 0 -2.5 0v7.09h-.84v-7.92a1.25 1.25 0 1 0 -2.5 0v7.92h-.83v-5.84a1.25 1.25 0 0 0 -2.5 0v9.93l-3.59-2a1 1 0 0 0 -.5-.14 1 1 0 0 0 -.66.25l-1.08 1 6.54 6.63a3.29 3.29 0 0 0 2.37 1h6.09a3.33 3.33 0 0 0 3.33-3.33v-12.09a1.25 1.25 0 0 0 -1.25-1.25m-8.75 9.67a1 1 0 1 1 1-1 1 1 0 0 1 -1 1m2 3a1 1 0 1 1 1-1 1 1 0 0 1 -1 1m5-2a1 1 0 1 1 1-1 1 1 0 0 1 -1 1m-1 3a1 1 0 1 1 1-1 1 1 0 0 1 -1 1m-2-4a1 1 0 1 1 1-1 1 1 0 0 1 -1 1z"/></svg>