<svg height="24" viewBox="0 0 24 24" width="24" xmlns="http://www.w3.org/2000/svg"><path d="m4.4 16.5c0-.9.3-1.8.8-2.6s1.5-1.7 3-2.7c-.9-1.1-1.4-1.9-1.7-2.5-.4-.7-.5-1.3-.5-2 0-1.5.4-2.6 1.3-3.5s2.1-1.2 3.6-1.2c1.3 0 2.4.4 3.3 1.2s1.3 1.8 1.3 2.9c0 .8-.2 1.5-.6 2.2s-1.1 1.4-2.1 2.1l-1.4 1.1 4.3 5.2c.6-1.2.9-2.4.9-3.9h2.2c0 2.3-.5 4.2-1.6 5.7l2.8 3.3h-3l-1.3-1.5c-.7.6-1.4 1-2.3 1.3s-1.8.5-2.7.5c-1.9 0-3.4-.5-4.6-1.5-1.1-1.1-1.7-2.4-1.7-4.1m6.3 3.5c1.3 0 2.5-.5 3.6-1.5l-4.7-5.7-.4.3c-1.5 1.1-2.2 2.2-2.2 3.4 0 1.1.3 1.9 1 2.5s1.5 1 2.7 1m-2.2-13.3c0 .9.5 1.9 1.6 3.2l1.6-1.1c.6-.4 1-.8 1.2-1.2s.3-.9.3-1.4c0-.6-.2-1.1-.7-1.5-.4-.4-1-.6-1.7-.6s-1.3.2-1.7.7-.6 1.1-.6 1.9z"/></svg>