<svg height="24" viewBox="0 0 24 24" width="24" xmlns="http://www.w3.org/2000/svg"><path d="m11 2h2v2h.5a1.5 1.5 0 0 1 1.5 1.5v3.5l-.44.44 1.64 2.84c1.11-1.09 1.8-2.6 1.8-4.28h2c0 2.42-1.07 4.59-2.77 6.06l3.14 5.44.13 2.22-1.87-1.22-3.07-5.33c-1.06.53-2.28.83-3.56.83s-2.5-.3-3.56-.83l-3.07 5.33-1.87 1.22.13-2.22 5.81-10.06-.44-.44v-3.5a1.5 1.5 0 0 1 1.5-1.5h.5zm-1.56 11.43c.78.37 1.65.57 2.56.57s1.78-.2 2.56-.57l-1.46-2.53h-.01c-.62.6-1.56.6-2.18 0h-.01zm2.56-7.43a1 1 0 0 0 -1 1 1 1 0 0 0 1 1 1 1 0 0 0 1-1 1 1 0 0 0 -1-1z"/></svg>