<svg height="24" viewBox="0 0 24 24" width="24" xmlns="http://www.w3.org/2000/svg"><path d="m16.61 15.15c-.46 0-.84-.37-.84-.83s.38-.82.84-.82c.46 0 .84.36.84.82s-.38.83-.84.83m-9.2 0c-.46 0-.84-.37-.84-.83s.38-.82.84-.82c.46 0 .83.36.83.82s-.37.83-.83.83m9.5-5.01 1.67-2.88c.09-.17.03-.38-.13-.47-.17-.1-.38-.04-.45.13l-1.71 2.91c-1.34-.61-2.79-.93-4.29-.92-1.53 0-3 .33-4.27.91l-1.69-2.91c-.09-.17-.3-.23-.47-.13-.17.09-.22.3-.13.47l1.66 2.88c-2.85 1.56-4.81 4.45-5.1 7.87h20c-.28-3.41-2.23-6.3-5.09-7.86z"/></svg>