<svg height="24" viewBox="0 0 24 24" width="24" xmlns="http://www.w3.org/2000/svg"><path d="m12 7.5c.69 0 1.27.23 1.76.7s.74 1.07.74 1.8c0 1.05-.5 1.81-1.5 2.28v8.72h-2v-8.72c-1-.47-1.5-1.23-1.5-2.28 0-.73.26-1.33.74-1.8s1.07-.7 1.76-.7m4.69-2.2c1.25 1.25 1.92 2.81 2.01 4.7 0 1.8-.67 3.38-2.01 4.72l-1.19-1.22c1-.91 1.5-2.08 1.5-3.5 0-1.33-.5-2.5-1.5-3.5zm-10.6-1.22c-1.59 1.59-2.39 3.56-2.39 5.92s.8 4.3 2.39 5.89l-1.17 1.22c-1.92-2.03-2.92-4.41-2.92-7.11s1-5.06 2.92-7.09zm12.99-1.17c1.92 2.03 2.92 4.39 2.92 7.09 0 2.8-1 5.17-2.92 7.11l-1.17-1.22c1.59-1.59 2.39-3.56 2.39-5.89s-.8-4.33-2.39-5.92zm-11.77 2.39 1.19 1.2c-1 .92-1.5 2.08-1.5 3.5 0 1.33.5 2.5 1.5 3.5l-1.19 1.22c-1.34-1.34-2.01-2.92-2.01-4.72s.67-3.36 2.01-4.7z"/></svg>