<svg height="24" viewBox="0 0 24 24" width="24" xmlns="http://www.w3.org/2000/svg"><path d="m12 2a10 10 0 0 1 10 10 10 10 0 0 1 -10 10 10 10 0 0 1 -10-10 10 10 0 0 1 10-10m0 2a8 8 0 0 0 -8 8c0 2.09.8 4 2.11 5.41l3.77-7.53 7.53-3.77c-1.41-1.31-3.32-2.11-5.41-2.11m0 16a8 8 0 0 0 8-8c0-2.09-.8-4-2.11-5.41l-3.77 7.53-7.53 3.77c1.41 1.31 3.32 2.11 5.41 2.11m0-8-.77-.77-1.53 3.07 3.07-1.53zm0 5.5h1v1.5h-1zm3.88-1.61.71-.71 1.06 1.06-.71.71zm1.62-3.89v-1h1.5v1zm-5.5-5.5h-1v-1.5h1zm-3.88 1.61-.71.71-1.06-1.06.71-.71zm-1.62 3.89v1h-1.5v-1z"/></svg>