<svg height="24" viewBox="0 0 24 24" width="24" xmlns="http://www.w3.org/2000/svg"><path d="m8 11c-.55 0-1-.45-1-1v-2c0-.55.45-1 1-1s1 .45 1 1v2c0 .55-.45 1-1 1m9-1v-2c0-.55-.45-1-1-1s-1 .45-1 1v2c0 .55.45 1 1 1s1-.45 1-1m5-5v15c0 1.1-.9 2-2 2h-16c-1.1 0-2-.9-2-2v-15c0-1.1.9-2 2-2h16c1.1 0 2 .9 2 2m-18 15h9.06c-.1-.65-.17-1.36-.23-2.06-.27.02-.53.06-.83.06-3.76 0-5.69-2.27-5.77-2.37-.35-.42-.29-1.05.13-1.41.42-.35 1.05-.29 1.41.13.06.08 1.46 1.65 4.23 1.65.27 0 .5-.03.74-.05-.03-1.2-.01-2.21 0-2.69h-1.81c-.65 0-1.18-.56-1.18-1.26.02-.25.32-4.18 1.25-7h-7zm16 0v-15h-7.4c-.86 2.19-1.23 5.73-1.33 6.76h1.81c.64 0 1.17.56 1.17 1.24 0 .04-.04 1.15-.01 2.6 1.3-.49 1.98-1.25 1.99-1.26.35-.42.98-.49 1.4-.14.43.35.49.98.14 1.41-.06.07-1.22 1.44-3.45 2.07.06.82.14 1.61.26 2.32z"/></svg>