<svg height="24" viewBox="0 0 24 24" width="24" xmlns="http://www.w3.org/2000/svg"><path d="m19 3h-14c-1.1 0-2 .9-2 2v14c0 1.1.9 2 2 2h14c1.1 0 2-.9 2-2v-14c0-1.1-.9-2-2-2m-9.7 5.2c1.3 0 2.1.5 2.8.8.6.3 1.3.7 2.4.7 1 0 2-.7 2.5-1.2l.8 1.3c-.7.8-2 1.6-3.4 1.6-1.3 0-2.1-.5-2.7-.8s-1.4-.7-2.5-.7c-1 0-2 .7-2.5 1.2l-.7-1.3c.7-.8 2-1.6 3.3-1.6m5.3 7.6c-1.3 0-2.1-.5-2.8-.8-.6-.3-1.4-.7-2.5-.7-1 0-2 .7-2.5 1.2l-.8-1.4c.7-.8 2-1.6 3.3-1.6s2.1.5 2.8.8c.6.3 1.3.7 2.5.7 1 0 2-.7 2.5-1.2l.8 1.3c-.6.9-1.9 1.7-3.3 1.7z"/></svg>