<svg height="24" viewBox="0 0 24 24" width="24" xmlns="http://www.w3.org/2000/svg"><path d="m12 2c-.89 2.18-1.43 3.61-2.42 5.73.61.64 1.35 1.39 2.56 2.24-1.3-.54-2.19-1.07-2.85-1.63-1.29 2.66-3.26 6.41-7.29 13.66 3.17-1.83 5.63-2.96 7.92-3.39-.1-.42-.16-.88-.15-1.36v-.1c.05-2.03 1.11-3.59 2.36-3.48 1.25.1 2.22 1.83 2.17 3.87-.01.38-.05.75-.12 1.09 2.26.44 4.69 1.56 7.82 3.37-.62-1.14-1.17-2.16-1.69-3.13-.81-.64-1.7-1.48-3.46-2.37 1.21.3 2.08.66 2.76 1.07-5.35-9.95-5.78-11.27-7.61-15.57z"/></svg>