<svg height="24" viewBox="0 0 24 24" width="24" xmlns="http://www.w3.org/2000/svg"><path d="m18.36 2.64c1.64 0 3 1.36 3 3 0 1.65-1.36 3-3 3-1.65 0-3-1.35-3-3 0-.3.05-.58.14-.84-1.07-.51-2.25-.8-3.5-.8a8 8 0 0 0 -8 8l.04.84-1.99.21-.05-1.05a10 10 0 0 1 10-10c1.69 0 3.28.42 4.67 1.16.49-.33 1.07-.52 1.69-.52m0 2a1 1 0 0 0 -1 1 1 1 0 0 0 1 1c.56 0 1-.45 1-1 0-.56-.44-1-1-1m-12.72 10.72c1.65 0 3 1.35 3 3 0 .3-.05.58-.14.84 1.07.51 2.25.8 3.5.8a8 8 0 0 0 8-8l-.04-.84 1.99-.21.05 1.05a10 10 0 0 1 -10 10c-1.69 0-3.28-.42-4.67-1.16-.49.33-1.07.52-1.69.52-1.64 0-3-1.36-3-3 0-1.65 1.36-3 3-3m0 2c-.56 0-1 .45-1 1 0 .56.44 1 1 1a1 1 0 0 0 1-1 1 1 0 0 0 -1-1m6.36-9.36a4 4 0 0 1 4 4 4 4 0 0 1 -4 4 4 4 0 0 1 -4-4 4 4 0 0 1 4-4z"/></svg>