<svg height="24" viewBox="0 0 24 24" width="24" xmlns="http://www.w3.org/2000/svg"><path d="m13 2v8h8a8 8 0 0 0 -8-8m6.32 13.89c1.05-1.35 1.68-3.05 1.68-4.89h-14.56l-.94-2h-3.5v2h2.22s1.89 4.07 2.12 4.42c-1.1.58-1.84 1.75-1.84 3.08a3.5 3.5 0 0 0 3.5 3.5c1.76 0 3.22-1.3 3.46-3h2.08c.24 1.7 1.7 3 3.46 3a3.5 3.5 0 0 0 3.5-3.5c0-1.04-.46-1.97-1.18-2.61m-11.32 4.11a1.5 1.5 0 0 1 -1.5-1.5 1.5 1.5 0 0 1 1.5-1.5 1.5 1.5 0 0 1 1.5 1.5 1.5 1.5 0 0 1 -1.5 1.5m9 0a1.5 1.5 0 0 1 -1.5-1.5 1.5 1.5 0 0 1 1.5-1.5 1.5 1.5 0 0 1 1.5 1.5 1.5 1.5 0 0 1 -1.5 1.5z"/></svg>