<svg height="24" viewBox="0 0 24 24" width="24" xmlns="http://www.w3.org/2000/svg"><path d="m1 12c0-1.81 1.2-3.34 2.86-3.83 1.43-3.06 4.54-5.17 8.14-5.17s6.71 2.11 8.15 5.17c1.65.49 2.85 2.02 2.85 3.83s-1.2 3.34-2.85 3.83c-1.44 3.06-4.55 5.17-8.15 5.17s-6.71-2.11-8.14-5.17c-1.66-.49-2.86-2.02-2.86-3.83m13.5-2.75a1.25 1.25 0 0 0 -1.25 1.25 1.25 1.25 0 0 0 1.25 1.25 1.25 1.25 0 0 0 1.25-1.25 1.25 1.25 0 0 0 -1.25-1.25m-5 0a1.25 1.25 0 0 0 -1.25 1.25 1.25 1.25 0 0 0 1.25 1.25 1.25 1.25 0 0 0 1.25-1.25 1.25 1.25 0 0 0 -1.25-1.25m-2 4.75c.76 1.77 2.5 3 4.5 3s3.74-1.23 4.5-3zm-4.5-2c0 .82.5 1.53 1.21 1.84-.14-.59-.21-1.21-.21-1.84s.07-1.25.21-1.84c-.71.31-1.21 1.02-1.21 1.84m18 0c0-.82-.5-1.53-1.21-1.84.14.59.21 1.21.21 1.84s-.07 1.25-.21 1.84c.71-.31 1.21-1.02 1.21-1.84z"/></svg>