<svg height="24" viewBox="0 0 24 24" width="24" xmlns="http://www.w3.org/2000/svg"><path d="m17 20a2 2 0 0 1 -2 2 2 2 0 0 1 -2-2 2 2 0 0 1 2-2 2 2 0 0 1 2 2m-10 0a2 2 0 0 1 -2 2 2 2 0 0 1 -2-2 2 2 0 0 1 2-2 2 2 0 0 1 2 2m10.61-17c-.66 0-1.17.2-1.61.5-.68.41-1.12 1.09-1.53 1.57l-8.76 10.28c-.55.65-.09 1.65.76 1.65h7.53c1.11 0 2-.9 2-2v-8.62c.58-.68.93-1.38 1.61-1.38.77 0 1.39.66 1.39 1.5v.5h2v-.5c0-1.94-1.5-3.5-3.39-3.5m-8.75.09c-1.82.07-3.63.67-5.18 1.81l4.76 4.76 3.88-4.56c.27-.32.59-.72.98-1.1-1.16-.55-2.4-.85-3.65-.91-.26-.01-.53-.01-.79 0z"/></svg>