<svg height="24" viewBox="0 0 24 24" width="24" xmlns="http://www.w3.org/2000/svg"><path d="m9 2h-2v2.1c-.71.15-1.27.44-1.68.81l-2.62-2.62-1.41 1.42 2.95 2.94c-.24.74-.24 1.35-.24 1.35h-2v2h2.04c.06.63.17 1.36.36 2.15l-2.72.9.63 1.9 2.69-.9c.24.51.5 1.03.82 1.53l-2.38 1.59 1.11 1.66 2.52-1.68c.56.56 1.22 1.06 1.99 1.49l-.96 1.91 1.79.9 1-2-.16-.09c.95.32 2.03.54 3.27.61v2.03h2v-2.07c.76-.09 1.81-.29 2.77-.74l1.52 1.52 1.41-1.42-1.33-1.34c.38-.51.63-1.15.63-1.95 0-.5-.05-.92-.12-1.32l1.57-.78-.9-1.8-1.37.69c-.55-.83-1.27-1.29-1.89-1.51l.66-1.96-1.9-.64-.76 2.28c-1.33-.13-2.12-.64-2.59-1.19l1.75-.87-.9-1.8-1.55.79c-.03-.3-.14-1.17-.72-2.02l1.55-2.32-1.66-1.11-1.41 2.12c-.48-.23-1.06-.41-1.76-.5m6 13.94c-2.94 0-5.19-.82-6.69-2.44-2.63-2.84-2.31-7.36-2.31-7.39v-.06-.08c0-.93.39-2.03 2-2.03 2.63 0 2.97 1.43 3 2 0 2 1.6 5 6 5 .33 0 2 .15 2 3 0 1.89-3.97 2-4 2m-6.5-10a1.5 1.5 0 0 0 -1.5 1.5 1.5 1.5 0 0 0 1.5 1.5 1.5 1.5 0 0 0 1.5-1.5 1.5 1.5 0 0 0 -1.5-1.5m2.5 4a1 1 0 0 0 -1 1 1 1 0 0 0 1 1 1 1 0 0 0 1-1 1 1 0 0 0 -1-1m4.5 2a1.5 1.5 0 0 0 -1.5 1.5 1.5 1.5 0 0 0 1.5 1.5 1.5 1.5 0 0 0 1.5-1.5 1.5 1.5 0 0 0 -1.5-1.5z"/></svg>