<svg height="24" viewBox="0 0 24 24" width="24" xmlns="http://www.w3.org/2000/svg"><path d="m5 22c-1.32 0-1.85-2.36-1.96-3.3a5.56 5.56 0 0 1 .32-2.7 2.5 2.5 0 0 1 1.87-1.62c1.17-.2 2 .5 3.06.74a1.21 1.21 0 0 0 1.56-1.37c-.44-1.72-3.57-1.75-4.85-1.75 0-1.86 2.04-2.1 3.5-1.96a10.8 10.8 0 0 1 2.54.56c.5.17 1.08.6 1.63.56.83-.07 1-.93.64-1.56-.87-1.48-3.34-1.6-4.81-1.6 0-2 1.73-2.38 3.39-2.08a11.58 11.58 0 0 1 2.49.79c.51.22 1.12.64 1.68.45 1.44-.44-.06-1.98-.7-2.35a6.6 6.6 0 0 0 -1.42-.58c-.54-.16-1.2-.1-.71-.73a5.13 5.13 0 0 1 2.73-1.24c1.89-.44 4.5-.52 4.96 1.86a5.3 5.3 0 0 1 -.85 3.58 38.96 38.96 0 0 1 -6.85 8.63 36.6 36.6 0 0 1 -4.6 3.99c-1 .72-2.32 1.68-3.62 1.68z"/></svg>