<svg height="24" viewBox="0 0 24 24" width="24" xmlns="http://www.w3.org/2000/svg"><path d="m6 18v-5h5v5zm1-4v3h3v-3zm6-6.5h5v2h-5zm-8 13.5a2 2 0 0 1 -2-2v-14a2 2 0 0 1 2-2h14a2 2 0 0 1 2 2v6.17c-.5-.11-1-.17-1.5-.17h-.5v-6h-14v14h8.17c.17.72.46 1.39.83 2zm6-15v5h-5v-5zm-1 4v-3h-3v3zm9 2v1.5a4 4 0 0 1 4 4c0 .82-.25 1.58-.67 2.21l-1.09-1.09c.17-.34.26-.72.26-1.12a2.5 2.5 0 0 0 -2.5-2.5v1.5l-2.25-2.25zm0 11v-1.5a4 4 0 0 1 -4-4c0-.82.25-1.58.67-2.21l1.09 1.09c-.17.34-.26.72-.26 1.12a2.5 2.5 0 0 0 2.5 2.5v-1.5l2.25 2.25z"/></svg>