<svg height="24" viewBox="0 0 24 24" width="24" xmlns="http://www.w3.org/2000/svg"><path d="m17.73 12 3.98-3.96c.39-.39.39-1.04 0-1.41l-4.34-4.34c-.37-.39-1.02-.39-1.41 0l-3.96 3.98-4-3.98c-.2-.19-.45-.29-.71-.29-.25 0-.51.1-.7.29l-4.34 4.34c-.39.37-.39 1.02 0 1.41l3.98 3.96-3.98 4c-.39.39-.39 1 0 1.41l4.34 4.34c.41.39 1.02.39 1.41 0l4-3.98 3.96 3.98c.2.2.45.29.71.29s.51-.1.71-.29l4.34-4.34c.39-.41.39-1.02 0-1.41zm-5.73-3a1 1 0 0 1 1 1 1 1 0 0 1 -1 1 1 1 0 0 1 -1-1 1 1 0 0 1 1-1m-4.71 1.96-3.63-3.62 3.63-3.63 3.62 3.62zm2.71 2.04a1 1 0 0 1 -1-1 1 1 0 0 1 1-1 1 1 0 0 1 1 1 1 1 0 0 1 -1 1m2 2a1 1 0 0 1 -1-1 1 1 0 0 1 1-1 1 1 0 0 1 1 1 1 1 0 0 1 -1 1m2-4a1 1 0 0 1 1 1 1 1 0 0 1 -1 1 1 1 0 0 1 -1-1 1 1 0 0 1 1-1m2.66 9.34-3.63-3.62 3.63-3.63 3.62 3.62z"/></svg>