<svg height="24" viewBox="0 0 24 24" width="24" xmlns="http://www.w3.org/2000/svg"><path d="m7.33 18.33c-.83-1.16-.83-2.5-.83-3.83 1.67 1 3.33 2 4.17 3.17l.33.56v-2.28c-1.5-.9-2.92-1.82-3.67-2.87-.83-1.16-.83-2.5-.83-3.83 1.67 1 3.33 2 4.17 3.17l.33.58v-2.3c-1.5-.9-2.92-1.82-3.67-2.87-.83-1.16-.83-2.5-.83-3.83 1.67 1 3.33 2 4.17 3.17.1.14.19.29.27.45-.17-.62-.28-1.2-.29-1.8-.01-1.51.65-3.06 1.31-4.61.69 1.48 1.38 2.97 1.39 4.48.01.63-.1 1.27-.28 1.9.08-.14.16-.28.26-.42.84-1.17 2.5-2.17 4.17-3.17 0 1.33 0 2.67-.83 3.83-.75 1.05-2.17 1.97-3.67 2.87v2.3l.33-.58c.84-1.17 2.5-2.17 4.17-3.17 0 1.33 0 2.67-.83 3.83-.75 1.05-2.17 1.97-3.67 2.87v2.28l.33-.56c.84-1.17 2.5-2.17 4.17-3.17 0 1.33 0 2.67-.83 3.83-.75 1.05-2.17 1.97-3.67 2.87v1.8h-2v-1.8c-1.5-.9-2.92-1.82-3.67-2.87z"/></svg>