<svg height="24" viewBox="0 0 24 24" width="24" xmlns="http://www.w3.org/2000/svg"><path d="m12 2c-2.5 0-4.75.9-6.5 2.4.5.41.91.87 1.3 1.36l1.09-.63 1 1.74-1 .57c.56 1.09.93 2.29 1.06 3.56h1.05v1 1h-1.05c-.13 1.27-.5 2.47-1.06 3.56l1 .57-1 1.74-1.09-.63c-.39.49-.8.95-1.3 1.36 1.75 1.5 4 2.4 6.5 2.4s4.75-.9 6.5-2.4c-.5-.41-.91-.87-1.31-1.36l-1.08.63-1-1.74 1-.58c-.56-1.08-.93-2.28-1.06-3.55h-1.05v-2h1.05c.13-1.27.5-2.47 1.06-3.55l-1-.58 1-1.74 1.08.63c.4-.49.81-.95 1.31-1.36-1.75-1.5-4-2.4-6.5-2.4m-7.88 3.85c-1.33 1.7-2.12 3.83-2.12 6.15s.79 4.45 2.12 6.15c.34-.28.64-.6.93-.93l-.62-.35 1-1.74.73.43c.39-.79.66-1.65.77-2.56h-.93v-1-1h.93c-.11-.91-.38-1.77-.77-2.56l-.73.43-1-1.74.62-.35c-.29-.33-.59-.65-.93-.93m15.76 0c-.34.28-.64.6-.93.93l.62.35-1 1.74-.73-.43c-.39.79-.66 1.65-.77 2.56h.93v2h-.93c.11.91.38 1.77.77 2.56l.73-.43 1 1.74-.62.35c.29.33.59.65.93.93 1.33-1.7 2.12-3.83 2.12-6.15s-.79-4.45-2.12-6.15z"/></svg>