<svg height="24" viewBox="0 0 24 24" width="24" xmlns="http://www.w3.org/2000/svg"><path d="m2.34 14.63c.6-.22 1.22-.33 1.88-.33 1.34 0 2.51.42 3.51 1.26l-3.14 3.14c-1.06-1.2-1.81-2.57-2.25-4.07m13.22-4.83c1.97 1.47 4.1 1.83 6.38 1.08.03.21.06.59.06 1.12 0 1.03-.25 2.18-.72 3.45-.47 1.26-1.05 2.28-1.73 3.05l-6.33-6.31zm-6.79 6.84c1.06 1.53 1.28 3.2.65 5.02-1.42-.41-2.69-1.05-3.75-1.93zm3.42-3.42 6.31 6.33c-2.17 1.9-4.72 2.7-7.62 2.39.21-.66.32-1.38.32-2.16 0-.62-.14-1.35-.42-2.18s-.61-1.51-.98-2.04zm-3.38 1.28c-.93-.83-2.01-1.35-3.23-1.59-1.22-.23-2.39-.16-3.52.22-.03-.22-.06-.6-.06-1.13 0-1.03.25-2.18.72-3.45.47-1.26 1.05-2.28 1.73-3.05l6.66 6.69zm6.75-6.77c-1.34-1.65-1.65-3.45-.93-5.39.62.16 1.33.46 2.13.92.79.45 1.44.9 1.94 1.33zm6.1 1.65c-.6.21-1.22.32-1.88.32-1.09 0-2.14-.32-3.14-.98l3.09-3.05c.88 1.1 1.52 2.33 1.93 3.71m-9.47 1.73-6.69-6.66c2.17-1.9 4.72-2.7 7.63-2.39-.22.66-.33 1.38-.33 2.16 0 .72.16 1.53.49 2.44.33.9.71 1.62 1.21 2.15z"/></svg>