<svg height="24" viewBox="0 0 24 24" width="24" xmlns="http://www.w3.org/2000/svg"><path d="m5 2v2h-1.67a1.33 1.33 0 0 0 -1.33 1.33v15.33c0 .74.6 1.34 1.33 1.34h9.34c.73 0 1.33-.6 1.33-1.34v-15.33c0-.74-.6-1.33-1.33-1.33h-1.67v-2zm3 4a4 4 0 0 1 4 4c0 .88-.36 1.68-.93 2.25l-.9.92c-.54.54-.92 1.01-1.08 1.83h-2.04c.11-.9.51-1.72 1.12-2.33l1.24-1.26c.37-.36.59-.86.59-1.41 0-1.11-.9-2-2-2a2 2 0 0 0 -2 2h-2a4 4 0 0 1 4-4m11 2v3.79l-2.29-2.29-.71.71 2.79 2.79-2.79 2.79.71.71 2.29-2.29v3.79h.5l2.85-2.86-2.14-2.14 2.14-2.15-2.85-2.85zm1 1.91.94.94-.94.94zm0 4.3.94.93-.94.94zm-13 2.79h2v2h-2z"/></svg>