<svg height="24" viewBox="0 0 24 24" width="24" xmlns="http://www.w3.org/2000/svg"><path d="m23 14.5c0-1.56-1.03-2.87-2.45-3.32.28-.5.45-1.07.45-1.68 0-1.56-1.03-2.87-2.45-3.32.28-.5.45-1.07.45-1.68 0-1.93-1.57-3.5-3.5-3.5h-7c-1.93 0-3.5 1.57-3.5 3.5 0 .61.17 1.18.45 1.68-1.41.45-2.45 1.76-2.45 3.32 0 .61.17 1.18.45 1.68-1.41.45-2.45 1.76-2.45 3.32 0 1.26.67 2.34 1.67 2.96-.42.57-.67 1.28-.67 2.04 0 1.93 1.57 3.5 3.5 3.5h13c1.93 0 3.5-1.57 3.5-3.5 0-.76-.25-1.47-.67-2.04 1-.62 1.67-1.7 1.67-2.96m-14.5-11.5h7c.83 0 1.5.67 1.5 1.5s-.67 1.5-1.5 1.5h-7c-.83 0-1.5-.67-1.5-1.5s.67-1.5 1.5-1.5m-2 5h11c.83 0 1.5.67 1.5 1.5s-.67 1.5-1.5 1.5h-11c-.83 0-1.5-.67-1.5-1.5s.67-1.5 1.5-1.5m-2.5 11.5c0-.83.67-1.5 1.5-1.5h3.5v3h-3.5c-.83 0-1.5-.67-1.5-1.5m14.5 1.5h-3.5v-3h3.5c.83 0 1.5.67 1.5 1.5s-.67 1.5-1.5 1.5m1-5h-4.68c-.42-1.16-1.52-2-2.82-2s-2.4.84-2.82 2h-4.68c-.83 0-1.5-.67-1.5-1.5s.67-1.5 1.5-1.5h15c.83 0 1.5.67 1.5 1.5s-.67 1.5-1.5 1.5z"/></svg>