<svg height="24" viewBox="0 0 24 24" width="24" xmlns="http://www.w3.org/2000/svg"><path d="m1.1 3 3.6 3.5c-1 .7-1.7 1.7-1.7 3 0 .6.2 1.2.5 1.7-1.5.4-2.5 1.7-2.5 3.3 0 1.3.7 2.3 1.7 3-.5.5-.7 1.2-.7 2 0 1.9 1.6 3.5 3.5 3.5h13c.8 0 1.5-.3 2.1-.7l.7.7 1.3-1.3-20.2-20zm8.1 8h-2.7c-.8 0-1.5-.7-1.5-1.5 0-.7.5-1.3 1.2-1.5zm-.2 10h-3.5c-.8 0-1.5-.7-1.5-1.5s.7-1.5 1.5-1.5h3.5zm.2-5h-4.7c-.8 0-1.5-.7-1.5-1.5s.7-1.5 1.5-1.5h6.7l1 1h-.2c-1.3 0-2.4.8-2.8 2m9.3 5h-3.5v-3h1.2l2.9 2.9c-.2.1-.4.1-.6.1m-11.4-17.1-1.4-1.4c.6-.9 1.6-1.5 2.8-1.5h7c1.9 0 3.5 1.6 3.5 3.5 0 .6-.2 1.2-.5 1.7 1.5.4 2.5 1.7 2.5 3.3 0 .6-.2 1.2-.5 1.7 1.4.5 2.5 1.8 2.5 3.3 0 1.3-.7 2.3-1.7 3 .3.4.5.8.6 1.2l-2.7-2.7h.3c.8 0 1.5-.7 1.5-1.5s-.7-1.5-1.5-1.5h-3.3l-2-2h3.3c.8 0 1.5-.7 1.5-1.5s-.7-1.5-1.5-1.5h-6.3l-2-2h6.3c.8 0 1.5-.7 1.5-1.5s-.7-1.5-1.5-1.5h-7c-.6 0-1.2.4-1.4.9z"/></svg>