<svg height="24" viewBox="0 0 24 24" width="24" xmlns="http://www.w3.org/2000/svg"><path d="m20.12 14.46-2.12 2.13-2.12-2.13-1.42 1.42 2.13 2.12-2.13 2.12 1.42 1.42 2.12-2.13 2.12 2.13 1.42-1.42-2.13-2.12 2.13-2.12m-9.54-13.88c-1.1 0-2 .9-2 2v.29c-2.88.85-5 3.53-5 6.71v6l-2 2v1h9.35c-.23-.64-.35-1.32-.35-2h-5v-7a5 5 0 0 1 5-5 5 5 0 0 1 5 5v1.09c.33-.05.66-.09 1-.09s.67.03 1 .09v-1.09c0-3.18-2.12-5.86-5-6.71 0-.1 0-.19 0-.29 0-1.1-.89-2-2-2m-2 19c0 1.11.9 2 2 2 .66 0 1.28-.33 1.65-.87-.32-.34-.6-.72-.84-1.13z"/></svg>