<svg height="24" viewBox="0 0 24 24" width="24" xmlns="http://www.w3.org/2000/svg"><path d="m17.5 13a4.5 4.5 0 0 0 -4.5 4.5 4.5 4.5 0 0 0 4.5 4.5 4.5 4.5 0 0 0 4.5-4.5 4.5 4.5 0 0 0 -4.5-4.5m0 1.5a3 3 0 0 1 3 3 3 3 0 0 1 -.42 1.5l-4.08-4.08a3 3 0 0 1 1.5-.42m-2.58 1.5 4.08 4.08a3 3 0 0 1 -1.5.42 3 3 0 0 1 -3-3 3 3 0 0 1 .42-1.5m-2.92-14c-1.1 0-2 .9-2 2v.29c-2.88.85-5 3.53-5 6.71v6l-2 2v1h8.5a6.5 6.5 0 0 1 -.47-2h-4.03v-7a5 5 0 0 1 5-5 5 5 0 0 1 5 5 6.5 6.5 0 0 1 .5 0 6.5 6.5 0 0 1 1.5.18v-.18c0-3.18-2.12-5.86-5-6.71 0-.1 0-.19 0-.29 0-1.1-.89-2-2-2m-2 19c0 1.11.9 2 2 2 .5 0 .97-.19 1.33-.5a6.5 6.5 0 0 1 -1.3-1.5z"/></svg>