<svg height="24" viewBox="0 0 24 24" width="24" xmlns="http://www.w3.org/2000/svg"><path d="m9.23 17.59v5.53h-2.35v-16.4c0-1.45.43-2.59 1.28-3.44.84-.85 2.01-1.28 3.45-1.28 1.39 0 2.46.34 3.26 1 .79.68 1.18 1.62 1.18 2.81 0 .82-.26 1.59-.78 2.3s-1.19 1.2-2.02 1.47v.04c1.25.2 2.22.65 2.88 1.38.66.71.99 1.62.99 2.74 0 1.32-.46 2.4-1.37 3.23-.92.83-2.12 1.24-3.62 1.24-1.06 0-2.03-.21-2.9-.62m1.49-6.84v-1.92c.87-.11 1.58-.43 2.15-.97.56-.55.84-1.16.84-1.86 0-1.38-.71-2.08-2.11-2.08-.76 0-1.35.24-1.76.73s-.61 1.17-.61 2.06v8.79c.91.53 1.8.79 2.66.79.84 0 1.5-.22 1.97-.65.47-.44.7-1.06.7-1.85 0-1.79-1.28-2.79-3.84-3.04z"/></svg>