<svg height="24" viewBox="0 0 24 24" width="24" xmlns="http://www.w3.org/2000/svg"><path d="m12.88 3.64c.77 0 1.4.63 1.4 1.4s-.63 1.4-1.4 1.4-1.38-.63-1.38-1.4.61-1.4 1.38-1.4m2.12 9.36h1.5v6h-1.5zm0-4.5h1.5v1.5h-1.5zm-4.96-5.9-2.04-.56-1.94 6.54-2.16 2.84 3.27.95zm9.63 15.95c-.36.38-.79.95-1.27 1.15-.49.22-.86.3-1.4.3h-3.5l-.07-3c-.01-.17-.06-.33-.15-.5l-2.4-4.26.88-2.74c.58 1.05 1.24 2.23 1.3 2.33.15.17.39.3.63.3h2.21a.81.81 0 0 0 .81-.81c0-.42-.33-.76-.75-.79l-1.67-.13-1.89-3.4s-.4-.58-1.26-.58c-.87 0-1.14.42-1.31 1l-3.83 12.58h-3v2h14c1.37 0 2.53-.66 3.5-1.63zm-9.92-4.16 1.87 3 .13 2.61h-4z"/></svg>