<svg height="24" viewBox="0 0 24 24" width="24" xmlns="http://www.w3.org/2000/svg"><path d="m19 10c-.56 0-1.09.11-1.59.28l-2.95-5.78h-3.46v1.5h2.54l.88 1.72-2.42 5.41-1.77-4.18c.27-.1.51-.37.51-.7 0-.41-.33-.75-.74-.75h-2c-.42 0-.76.34-.76.75s.34.75.76.75h.61l2.25 5.25h-.94c-.36-2.4-2.42-4.25-4.92-4.25-2.76 0-5 2.24-5 5s2.24 5 5 5c2.5 0 4.56-1.85 4.92-4.25h2.58l2.79-6.32.79 1.53c-1.26.91-2.08 2.38-2.08 4.04 0 2.76 2.24 5 5 5s5-2.24 5-5-2.24-5-5-5m-14 8.5c-1.93 0-3.5-1.57-3.5-3.5s1.57-3.5 3.5-3.5c1.67 0 3.07 1.18 3.41 2.75h-4.41v1.5h4.41c-.34 1.57-1.74 2.75-3.41 2.75m14 0c-1.93 0-3.5-1.57-3.5-3.5 0-1.08.5-2.03 1.27-2.67l1.8 3.52 1.32-.72-1.79-3.5c.29-.07.59-.13.9-.13 1.93 0 3.5 1.57 3.5 3.5s-1.57 3.5-3.5 3.5z"/></svg>