<svg height="24" viewBox="0 0 24 24" width="24" xmlns="http://www.w3.org/2000/svg"><path d="m11.74 13.36 2.4-5.65-1.08-2.21h-2.56v-1.5h3.5l.73 1.5h7.02l-1 3.5h-4.31l.67 1.37c.58-.24 1.22-.37 1.89-.37 2.76 0 5 2.24 5 5s-2.24 5-5 5-5-2.24-5-5c0-1.55.71-2.94 1.82-3.85l-.82-1.65-2.75 6.5h-2.35c-.46 2.28-2.48 4-4.9 4-2.76 0-5-2.24-5-5s2.24-5 5-5c2.59 0 4.72 1.97 5 4.5h.58l-2.28-5.5h-.8c-.41 0-.75-.34-.75-.75s.34-.75.75-.75h2.75c.41 0 .75.34.75.75s-.34.75-.75.75h-.28zm-6.74-1.86c-1.93 0-3.5 1.57-3.5 3.5s1.57 3.5 3.5 3.5c1.59 0 2.93-1.05 3.36-2.5h-4.36v-1.5h4.47c-.25-1.7-1.71-3-3.47-3m14 0c-.43 0-.85.08-1.23.22l1.93 3.96-1.35.66-1.85-3.79c-.62.63-1 1.5-1 2.45 0 1.93 1.57 3.5 3.5 3.5s3.5-1.57 3.5-3.5-1.57-3.5-3.5-3.5z"/></svg>