<svg height="24" viewBox="0 0 24 24" width="24" xmlns="http://www.w3.org/2000/svg"><path d="m16 1.2c-1 0-1.8.8-1.8 1.8s.8 1.8 1.8 1.8 1.8-.8 1.8-1.8-.8-1.8-1.8-1.8m-3.6 2.9c-.47 0-.9.19-1.2.5l-3.7 3.69c-.31.31-.5.71-.5 1.21 0 .63.33 1.16.85 1.47l3.35 2.03v5h1.8v-6.5l-2.25-1.65 2.32-2.35 1.73 2.5h4.2v-1.8h-3.2l-1.94-3.27c-.29-.5-.86-.83-1.46-.83m-2.4-1.1h-7c-.55 0-1-.45-1-1s.45-1 1-1h9.79c-.21.34-.38.71-.47 1.11-.86.02-1.67.34-2.32.89m-5 9c-2.76 0-5 2.24-5 5s2.24 5 5 5 5-2.24 5-5-2.24-5-5-5m0 8.5c-1.93 0-3.5-1.57-3.5-3.5s1.57-3.5 3.5-3.5 3.5 1.57 3.5 3.5-1.57 3.5-3.5 3.5m14-8.5c-2.76 0-5 2.24-5 5s2.24 5 5 5 5-2.24 5-5-2.24-5-5-5m0 8.5c-1.93 0-3.5-1.57-3.5-3.5s1.57-3.5 3.5-3.5 3.5 1.57 3.5 3.5-1.57 3.5-3.5 3.5m-13.68-9.5h-4.32c-.552 0-1-.45-1-1s.448-1 1-1h4.05c-.02.16-.05.33-.05.5 0 .53.12 1.04.32 1.5m.68-4h-4c-.55 0-1-.45-1-1s.45-1 1-1h5.97l-1.88 1.87c-.04.04-.09.09-.09.13z"/></svg>