<svg height="24" viewBox="0 0 24 24" width="24" xmlns="http://www.w3.org/2000/svg"><path d="m23 16.06c0 .23 0 .44-.04.64-.18-2.56-2.32-4.59-4.96-4.59-.37 0-.73.05-1.08.12.04.27.08.5.08.77 0 2.35-1.69 4.32-3.93 4.81.35 2.24 2.24 3.98 4.58 4.15-.22.04-.43.04-.65.04-2.08 0-3.93-1.06-5-2.66-1.07 1.6-2.91 2.66-5 2.66-.22 0-.43 0-.65-.04 2.34-.17 4.22-1.9 4.58-4.15-2.25-.49-3.93-2.46-3.93-4.81 0-.27.04-.5.07-.77-.34-.07-.7-.12-1.07-.12-2.64 0-4.78 2.03-4.97 4.59-.03-.2-.03-.41-.03-.64 0-3.21 2.59-5.82 5.81-5.92-.51-.87-.81-1.89-.81-2.97 0-2.23 1.23-4.17 3.06-5.17-1.25.9-2.06 2.34-2.06 4 0 1.35.56 2.59 1.47 3.5.91-.91 2.15-1.46 3.53-1.46 1.37 0 2.62.55 3.5 1.46.93-.91 1.5-2.15 1.5-3.5 0-1.66-.82-3.1-2.06-4 1.83 1 3.06 2.94 3.06 5.17 0 1.08-.3 2.1-.81 2.97 3.23.1 5.81 2.71 5.81 5.92m-13.73-5.95c.78.51 1.73.81 2.73.81s1.95-.3 2.73-.81c-.73-.66-1.67-1.08-2.73-1.08s-2 .42-2.73 1.08m2.73 4.36c.82 0 1.5-.67 1.5-1.47a1.5 1.5 0 0 0 -1.5-1.5 1.5 1.5 0 0 0 -1.5 1.5c0 .8.67 1.47 1.5 1.47m-1.03 2.32c-.1-1.89-1.26-3.5-2.92-4.24-.02.15-.05.29-.05.45 0 1.82 1.27 3.34 2.97 3.79m4.99-4.24c-1.67.74-2.84 2.35-2.96 4.24 1.73-.45 3-1.97 3-3.79 0-.16-.03-.3-.04-.45z"/></svg>