<svg height="24" viewBox="0 0 24 24" width="24" xmlns="http://www.w3.org/2000/svg"><path d="m3 13.5a.5.5 0 0 0 -.5.5.5.5 0 0 0 .5.5.5.5 0 0 0 .5-.5.5.5 0 0 0 -.5-.5m3 3.5a1 1 0 0 0 -1 1 1 1 0 0 0 1 1 1 1 0 0 0 1-1 1 1 0 0 0 -1-1m4 3.5a.5.5 0 0 0 -.5.5.5.5 0 0 0 .5.5.5.5 0 0 0 .5-.5.5.5 0 0 0 -.5-.5m-7-11a.5.5 0 0 0 -.5.5.5.5 0 0 0 .5.5.5.5 0 0 0 .5-.5.5.5 0 0 0 -.5-.5m3 3.5a1 1 0 0 0 -1 1 1 1 0 0 0 1 1 1 1 0 0 0 1-1 1 1 0 0 0 -1-1m15 .5a.5.5 0 0 0 -.5.5.5.5 0 0 0 .5.5.5.5 0 0 0 .5-.5.5.5 0 0 0 -.5-.5m-11 3.5a1 1 0 0 0 -1 1 1 1 0 0 0 1 1 1 1 0 0 0 1-1 1 1 0 0 0 -1-1m-7.5-11.73 3.78 3.78-.28-.05a1 1 0 0 0 -1 1 1 1 0 0 0 1 1 1 1 0 0 0 1-1c0-.1-.03-.19-.06-.28l2.81 2.81c-.71.11-1.25.73-1.25 1.47a1.5 1.5 0 0 0 1.5 1.5c.74 0 1.36-.54 1.47-1.25l2.81 2.81c-.09-.03-.18-.06-.28-.06a1 1 0 0 0 -1 1 1 1 0 0 0 1 1 1 1 0 0 0 1-1c0-.1-.03-.19-.06-.28l3.78 3.78 1.28-1.27-16.23-16.23zm11.5 15.23a.5.5 0 0 0 -.5.5.5.5 0 0 0 .5.5.5.5 0 0 0 .5-.5.5.5 0 0 0 -.5-.5m4-13.5a1 1 0 0 0 1-1 1 1 0 0 0 -1-1 1 1 0 0 0 -1 1 1 1 0 0 0 1 1m0 4a1 1 0 0 0 1-1 1 1 0 0 0 -1-1 1 1 0 0 0 -1 1 1 1 0 0 0 1 1m0 4a1 1 0 0 0 1-1 1 1 0 0 0 -1-1 1 1 0 0 0 -1 1 1 1 0 0 0 1 1m-8-8a1 1 0 0 0 1-1 1 1 0 0 0 -1-1 1 1 0 0 0 -1 1 1 1 0 0 0 1 1m11 3.5a.5.5 0 0 0 .5-.5.5.5 0 0 0 -.5-.5.5.5 0 0 0 -.5.5.5.5 0 0 0 .5.5m-11-7a.5.5 0 0 0 .5-.5.5.5 0 0 0 -.5-.5.5.5 0 0 0 -.5.5.5.5 0 0 0 .5.5m4 0a.5.5 0 0 0 .5-.5.5.5 0 0 0 -.5-.5.5.5 0 0 0 -.5.5.5.5 0 0 0 .5.5m-.2 8h.2a1.5 1.5 0 0 0 1.5-1.5 1.5 1.5 0 0 0 -1.5-1.5 1.5 1.5 0 0 0 -1.5 1.5v.2c.11.67.63 1.19 1.3 1.3m.2-4.5a1 1 0 0 0 1-1 1 1 0 0 0 -1-1 1 1 0 0 0 -1 1 1 1 0 0 0 1 1z"/></svg>