<svg height="24" viewBox="0 0 24 24" width="24" xmlns="http://www.w3.org/2000/svg"><path d="m14.5 2.75c-1.8 0-3.25 1.45-3.25 3.25h-1.25v1.29c-.69.21-1.33.52-1.92.91l9.71 9.71c.79-1.15 1.21-2.52 1.21-3.91 0-3.17-2.11-5.85-5-6.71v-1.29h-1.25a1.75 1.75 0 0 1 1.75-1.75 1.75 1.75 0 0 1 1.75 1.75 2.25 2.25 0 0 0 2.25 2.25c1.24 0 2.24-1.01 2.24-2.25v-.75h-1.49v.75c0 .42-.34.75-.75.75-.42 0-.75-.33-.75-.75 0-1.8-1.46-3.25-3.25-3.25m-11.09 3.61-1.41 1.41 3.55 3.55c-.35.82-.55 1.72-.55 2.68 0 3.86 3.13 7 7 7 .92 0 1.83-.19 2.68-.55l3.55 3.55 1.41-1.41z"/></svg>