<svg height="24" viewBox="0 0 24 24" width="24" xmlns="http://www.w3.org/2000/svg"><path d="m7 5-2 2v1h-2a1 1 0 0 0 -1 1v8a1 1 0 0 0 1 1h18a1 1 0 0 0 1-1v-8a1 1 0 0 0 -1-1h-2v-1l-2-2zm0 2h10v1h-10zm4 2h2a.5.5 0 0 1 .5.5.5.5 0 0 1 -.5.5h-2a.5.5 0 0 1 -.5-.5.5.5 0 0 1 .5-.5m-3.5 1.5a3 3 0 0 1 3 3 3 3 0 0 1 -3 3 3 3 0 0 1 -3-3 3 3 0 0 1 3-3m9 0a3 3 0 0 1 3 3 3 3 0 0 1 -3 3 3 3 0 0 1 -3-3 3 3 0 0 1 3-3m-9 1.5a1.5 1.5 0 0 0 -1.5 1.5 1.5 1.5 0 0 0 1.5 1.5 1.5 1.5 0 0 0 1.5-1.5 1.5 1.5 0 0 0 -1.5-1.5m9 0a1.5 1.5 0 0 0 -1.5 1.5 1.5 1.5 0 0 0 1.5 1.5 1.5 1.5 0 0 0 1.5-1.5 1.5 1.5 0 0 0 -1.5-1.5z"/></svg>