<svg height="24" viewBox="0 0 24 24" width="24" xmlns="http://www.w3.org/2000/svg"><path d="m19.86 3c-.55-.96-1.77-1.29-2.74-.73l-10.2 5.89c-.3-.1-.61-.16-.92-.16a3 3 0 0 0 -3 3v9a1 1 0 0 0 -1 1v1h8v-1a1 1 0 0 0 -1-1v-8.42l10.12-5.85c.96-.55 1.29-1.77.74-2.73m-12.36 17h-3v-6.4c.93.54 2.07.54 3 0zm-1.5-7.5a1.5 1.5 0 0 1 -1.5-1.5 1.5 1.5 0 0 1 1.5-1.5 1.5 1.5 0 0 1 1.5 1.5 1.5 1.5 0 0 1 -1.5 1.5m4.4-2.88-2.3-1 1.3-.75 2.3 1zm3.46-2-2.3-1 1.3-.75 2.3 1zm3.47-2-2.3-1 1.3-.75 2.29 1zm2.67 10.38h-2v-5h2zm0 4h-2v-2h2z"/></svg>