<svg height="24" viewBox="0 0 24 24" width="24" xmlns="http://www.w3.org/2000/svg"><path d="m19.86 3c.55.96.22 2.18-.74 2.73l-10.12 5.85v8.42a1 1 0 0 1 1 1v1h-8v-1a1 1 0 0 1 1-1v-9a3 3 0 0 1 3-3c.31 0 .62.06.92.16l10.2-5.89c.97-.56 2.19-.23 2.74.73m-12.36 17v-6.4c-.93.54-2.07.54-3 0v6.4zm-1.5-7.5a1.5 1.5 0 0 0 1.5-1.5 1.5 1.5 0 0 0 -1.5-1.5 1.5 1.5 0 0 0 -1.5 1.5 1.5 1.5 0 0 0 1.5 1.5m4.4-2.88 1.3-.75-2.3-1-1.3.75zm3.46-2 1.3-.75-2.3-1-1.3.75zm3.47-2 1.29-.75-2.29-1-1.3.75zm-1.33 5.54h2v5.01l3-.01-4 3.84-4-3.84 3 .01z"/></svg>