<svg height="24" viewBox="0 0 24 24" width="24" xmlns="http://www.w3.org/2000/svg"><path d="m11.79 11.5h-2.07v-3.31h2.47c1.26 0 1.96.56 1.96 1.59 0 1.12-.83 1.72-2.36 1.72m.37 1.13h-2.44v3.64h2.56c1.56 0 2.38-.63 2.38-1.83s-.85-1.81-2.5-1.81m9.84-7.32v13.38c0 1.81-1.5 3.31-3.31 3.31h-13.38c-1.81 0-3.31-1.5-3.31-3.31v-13.38c0-1.81 1.5-3.31 3.31-3.31h13.38c1.81 0 3.31 1.5 3.31 3.31m-6 9.19c0-1.38-.92-2.37-2.33-2.55v-.06c1-.18 1.79-1.18 1.79-2.26 0-1.55-1.2-2.58-2.96-2.58h-4.07v10.36h4.04c2.21 0 3.53-1.09 3.53-2.91z"/></svg>