<svg height="24" viewBox="0 0 24 24" width="24" xmlns="http://www.w3.org/2000/svg"><path d="m13 4h-2l-1-2h4zm1 4v-2h1v-1h-6v1h1v2c-2.76 0-5 2.24-5 5v9h14v-9c0-2.76-2.24-5-5-5m3 12h-10v-7c0-1.65 1.35-3 3-3h4c1.65 0 3 1.35 3 3zm-5-9c-2.21 0-4 1.79-4 4 0 1 .39 1.9 1 2.59v1.41h1.25v-1.5h1.13v1.5h1.25v-1.5h1.12v1.5h1.25v-1.41c.61-.69 1-1.59 1-2.59 0-2.21-1.79-4-4-4m-1.5 4c-.55 0-1-.45-1-1s.45-1 1-1 1 .45 1 1-.45 1-1 1m.75 1.25.75-1.25.75 1.25zm2.25-1.25c-.55 0-1-.45-1-1s.45-1 1-1 1 .45 1 1-.45 1-1 1z"/></svg>