<svg height="24" viewBox="0 0 24 24" width="24" xmlns="http://www.w3.org/2000/svg"><path d="m15.39 14.04c0-1.42-1.15-2.57-2.57-2.57-1.41 0-2.56 1.15-2.56 2.57 0 1.41 1.15 2.56 2.56 2.56 1.42 0 2.57-1.15 2.57-2.56m1.71 0c0 2.36-1.92 4.27-4.28 4.27-1.63 0-3.05-.92-3.77-2.27-.72 1.35-2.14 2.27-3.77 2.27-2.34 0-4.24-1.88-4.28-4.2v-7.11c0-.44.39-.82.86-.82s.84.38.85.82v3.62c.72-.54 1.61-.86 2.57-.86 1.63 0 3.05.92 3.77 2.27.72-1.35 2.14-2.27 3.77-2.27 2.36 0 4.28 1.92 4.28 4.28zm-9.26 0c0-1.42-1.15-2.57-2.56-2.57-1.42 0-2.57 1.15-2.57 2.57 0 1.41 1.15 2.56 2.57 2.56 1.41 0 2.56-1.15 2.56-2.56m15 2.92c.11.16.16.34.16.51 0 .26-.12.53-.34.68-.16.11-.33.17-.51.17-.25 0-.5-.11-.65-.32l-1.91-2.53-1.89 2.53c-.17.21-.42.32-.67.32-.18 0-.36-.06-.53-.17-.21-.15-.33-.43-.33-.69 0-.17.06-.35.16-.5l2.17-2.92-2.17-2.93c-.11-.15-.16-.32-.16-.5 0-.26.12-.51.33-.68.39-.28.91-.21 1.2.16l1.89 2.52 1.91-2.52c.26-.37.79-.44 1.16-.16.23.17.34.43.34.7 0 .17-.05.34-.16.48l-2.18 2.93z"/></svg>