<svg height="24" viewBox="0 0 24 24" width="24" xmlns="http://www.w3.org/2000/svg"><path d="m21 11.11v-4.11a2 2 0 0 0 -.58-1.41 1.87 1.87 0 0 0 -1.42-.59h-4v-2a1.9 1.9 0 0 0 -.58-1.42 1.9 1.9 0 0 0 -1.42-.58h-4a1.9 1.9 0 0 0 -1.42.58 1.9 1.9 0 0 0 -.58 1.42v2h-4a1.87 1.87 0 0 0 -1.42.59 2 2 0 0 0 -.58 1.41v11a2 2 0 0 0 .58 1.41 1.87 1.87 0 0 0 1.42.59h7.26a7 7 0 1 0 10.74-8.89m-12-8.11h4v2h-4m-6 13v-11h16v2.68a6.84 6.84 0 0 0 -3-.68 7 7 0 0 0 -7 7 6.91 6.91 0 0 0 .29 2m9.71 2a5 5 0 0 1 -6 0 4.94 4.94 0 0 1 -2-4 5 5 0 0 1 5-5 4.94 4.94 0 0 1 3 1 5 5 0 0 1 0 8m-4-7h1.5v2.82l2.44 1.41-.75 1.3-3.19-1.84z"/></svg>