<svg height="24" viewBox="0 0 24 24" width="24" xmlns="http://www.w3.org/2000/svg"><path d="m10 2h4a2 2 0 0 1 2 2v2h4a2 2 0 0 1 2 2v5.03c-.5-.8-1.2-1.49-2-2.03v-3h-16v11h6.5c.31.75.76 1.42 1.31 2h-7.81c-1.11 0-2-.9-2-2v-11c0-1.11.89-2 2-2h4v-2c0-1.11.89-2 2-2m4 4v-2h-4v2zm6.31 12.9 3.08 3.1-1.39 1.39-3.12-3.07c-.69.43-1.51.68-2.38.68-2.5 0-4.5-2-4.5-4.5s2-4.5 4.5-4.5 4.5 2 4.5 4.5c0 .88-.25 1.71-.69 2.4m-3.81.1a2.5 2.5 0 0 0 2.5-2.5 2.5 2.5 0 0 0 -2.5-2.5 2.5 2.5 0 0 0 -2.5 2.5 2.5 2.5 0 0 0 2.5 2.5z"/></svg>