<svg height="24" viewBox="0 0 24 24" width="24" xmlns="http://www.w3.org/2000/svg"><path d="m16.5 12c2.5 0 4.5 2 4.5 4.5 0 .88-.25 1.71-.69 2.4l3.08 3.1-1.39 1.39-3.12-3.07c-.69.43-1.51.68-2.38.68-2.5 0-4.5-2-4.5-4.5s2-4.5 4.5-4.5m0 2a2.5 2.5 0 0 0 -2.5 2.5 2.5 2.5 0 0 0 2.5 2.5 2.5 2.5 0 0 0 2.5-2.5 2.5 2.5 0 0 0 -2.5-2.5m-6.5-12h4a2 2 0 0 1 2 2v2h4a2 2 0 0 1 2 2v5.03c-1.15-1.82-3.18-3.03-5.5-3.03a6.5 6.5 0 0 0 -6.5 6.5c0 1.75.69 3.33 1.81 4.5h-7.81c-1.11 0-2-.9-2-2v-11c0-1.11.89-2 2-2h4v-2c0-1.11.89-2 2-2m4 4v-2h-4v2z"/></svg>