<svg height="24" viewBox="0 0 24 24" width="24" xmlns="http://www.w3.org/2000/svg"><path d="m11 2v1c-1.73.2-3.31.9-4.6 1.94l-.76-.76-1.42 1.42.78.75c-1.1 1.33-1.79 2.95-2 4.65h-1v2h1c.21 1.68.9 3.26 2 4.56l-.78.76 1.42 1.42.75-.74c1.32 1.07 2.91 1.77 4.61 2v1h2v-1c1.69-.23 3.29-.93 4.6-2l.76.74 1.42-1.42-.78-.75c1.1-1.3 1.79-2.89 2-4.57h1v-2h-1c-.21-1.7-.9-3.31-2-4.64l.78-.76-1.42-1.42-.75.76c-1.32-1.07-2.92-1.74-4.61-1.94v-1zm0 3v3l-1 .5-2.19-2.15c.91-.68 2-1.18 3.19-1.35m2 0c1.16.18 2.26.64 3.2 1.35l-2.2 2.15-1-.5zm-6.6 2.76 2.1 2.24-.5 1h-3c.16-1.16.7-2.3 1.39-3.25zm11.2 0c.73.95 1.21 2.06 1.4 3.24h-3l-.5-1 2.11-2.24zm-5.6 2.24c1.12 0 2 .88 2 2s-.88 2-2 2-2-.88-2-2 .88-2 2-2m-7 3h3l.57 1-2.18 2.15c-.72-.91-1.2-1.99-1.39-3.15zm11 0h3c-.19 1.15-.67 2.24-1.39 3.16l-2.11-2.16zm-6 2.5 1 .5v3c-1.17-.2-2.27-.69-3.2-1.43zm4 0 2.19 2.07c-.91.68-2 1.26-3.19 1.43v-3z"/></svg>