<svg height="24" viewBox="0 0 24 24" width="24" xmlns="http://www.w3.org/2000/svg"><path d="m18 7h-2.81c-.45-.8-1.07-1.5-1.82-2l1.63-1.59-1.41-1.41-2.17 2.17c-.46-.11-.92-.17-1.42-.17s-.95.06-1.41.17l-2.18-2.17-1.41 1.41 1.62 1.59c-.75.5-1.36 1.21-1.81 2h-2.81v2h2.09c-.06.33-.09.66-.09 1v1h-2v2h2v1c0 .34.03.67.09 1h-2.09v2h2.81c1.45 2.5 4.47 3.61 7.19 2.65 0-.22 0-.43 0-.65 0-2.54 1.61-4.8 4-5.65v-.35h2v-2h-2v-1c0-.34-.03-.67-.09-1h2.09zm-6 8h-4v-2h4zm0-4h-4v-2h4zm5.75 11.16-2.75-3 1.16-1.16 1.59 1.59 3.59-3.59 1.16 1.41z"/></svg>