<svg height="24" viewBox="0 0 24 24" width="24" xmlns="http://www.w3.org/2000/svg"><path d="m20 8h-2.81c-.45-.8-1.07-1.5-1.82-2l1.63-1.59-1.41-1.41-2.17 2.17c-.46-.11-.92-.17-1.42-.17s-.95.06-1.41.17l-2.18-2.17-1.41 1.41 1.62 1.59c-.75.5-1.36 1.21-1.81 2h-2.81v2h2.09c-.06.33-.09.66-.09 1v1h-2v2h2v1c0 .34.03.67.09 1h-2.09v2h2.81c1.66 2.87 5.33 3.84 8.19 2.18.91-.52 1.67-1.28 2.19-2.18h2.81v-2h-2.09c.06-.33.09-.66.09-1v-1h2v-2h-2v-1c0-.34-.03-.67-.09-1h2.09zm-4 7a4 4 0 0 1 -4 4 4 4 0 0 1 -4-4v-4a4 4 0 0 1 4-4 4 4 0 0 1 4 4zm-2-5v2h-4v-2zm-4 4h4v2h-4z"/></svg>