<svg height="24" viewBox="0 0 24 24" width="24" xmlns="http://www.w3.org/2000/svg"><path d="m18 7h-2.81c-.45-.8-1.07-1.5-1.82-2l1.63-1.59-1.41-1.41-2.17 2.17c-.46-.11-.92-.17-1.42-.17s-.95.06-1.41.17l-2.18-2.17-1.41 1.41 1.62 1.59c-.75.5-1.36 1.21-1.81 2h-2.81v2h2.09c-.06.33-.09.66-.09 1v1h-2v2h2v1c0 .34.03.67.09 1h-2.09v2h2.81c1.45 2.5 4.47 3.61 7.19 2.65 0-.22 0-.43 0-.65 0-.57.09-1.14.25-1.69-.66.45-1.45.69-2.25.69a4 4 0 0 1 -4-4v-4a4 4 0 0 1 4-4 4 4 0 0 1 4 4v4c0 .19 0 .39-.05.58.59-.54 1.29-.96 2.05-1.23v-.35h2v-2h-2v-1c0-.34-.03-.67-.09-1h2.09zm3.34 9-3.59 3.59-1.59-1.59-1.16 1.16 2.75 3 4.75-4.75zm-9.34-7v2h-4v-2zm0 4v2h-4v-2z"/></svg>