<svg height="24" viewBox="0 0 24 24" width="24" xmlns="http://www.w3.org/2000/svg"><path d="m12 2a10 10 0 0 0 -10 10 10 10 0 0 0 10 10 10 10 0 0 0 10-10c0-1.16-.21-2.31-.61-3.39l-1.6 1.6c.14.59.21 1.19.21 1.79a8 8 0 0 1 -8 8 8 8 0 0 1 -8-8 8 8 0 0 1 8-8c.6 0 1.2.07 1.79.21l1.61-1.61c-1.09-.39-2.24-.6-3.4-.6m7 0-4 4v1.5l-2.55 2.55c-.15-.05-.3-.05-.45-.05a2 2 0 0 0 -2 2 2 2 0 0 0 2 2 2 2 0 0 0 2-2c0-.15 0-.3-.05-.45l2.55-2.55h1.5l4-4h-3zm-7 4a6 6 0 0 0 -6 6 6 6 0 0 0 6 6 6 6 0 0 0 6-6h-2a4 4 0 0 1 -4 4 4 4 0 0 1 -4-4 4 4 0 0 1 4-4z"/></svg>