<svg height="24" viewBox="0 0 24 24" width="24" xmlns="http://www.w3.org/2000/svg"><path d="m1 2h2v7h7v-6h9c2.2 0 4 1.8 4 4v16h-2v-2h-18v2h-2zm11 3v4h9v-2c0-1.1-.9-2-2-2zm-9 6v8h7v-6h9c.7 0 1.4.2 2 .6v-2.6zm3.5 2c1.4 0 2.5 1.1 2.5 2.5s-1.1 2.5-2.5 2.5-2.5-1.1-2.5-2.5 1.1-2.5 2.5-2.5m0 1.6c-.5 0-.9.4-.9.9s.4.9.9.9.9-.4.9-.9-.4-.9-.9-.9m5.5.4v4h9v-2c0-1.1-.9-2-2-2zm-5.5-12c1.4 0 2.5 1.1 2.5 2.5s-1.1 2.5-2.5 2.5-2.5-1.1-2.5-2.5 1.1-2.5 2.5-2.5m0 1.6c-.5 0-.9.4-.9.9s.4.9.9.9.9-.4.9-.9-.4-.9-.9-.9z"/></svg>