<svg height="24" viewBox="0 0 24 24" width="24" xmlns="http://www.w3.org/2000/svg"><path d="m10 5c-4.42 0-8 .5-8 4v10c0 .85.37 1.66 1 2.22v1.78c0 .55.45 1 1 1h1c.55 0 1-.45 1-1v-1h8v1c0 .55.45 1 1 1h1c.55 0 1-.45 1-1v-1.78c.63-.56 1-1.37 1-2.22v-10c0-3.5-3.58-4-8-4m-4.5 15c-.83 0-1.5-.67-1.5-1.5s.67-1.5 1.5-1.5 1.5.67 1.5 1.5-.67 1.5-1.5 1.5m9 0c-.83 0-1.5-.67-1.5-1.5s.67-1.5 1.5-1.5 1.5.67 1.5 1.5-.67 1.5-1.5 1.5m1.5-6h-12v-5h12zm6-9v10c0 .85-.37 1.66-1 2.22v1.78c0 .55-.45 1-1 1h-.12c.07-.32.12-.65.12-1v-10c0-6-7-6-10-6-.91 0-2.2 0-3.54.17 1.09-1.85 4.04-2.17 7.54-2.17 4.42 0 8 .5 8 4z"/></svg>