<svg height="24" viewBox="0 0 24 24" width="24" xmlns="http://www.w3.org/2000/svg"><path d="m1 6 1.5 1.5-1.5 1.5 1.5 1.5-1.5 1.5 1.5 1.5-1.5 1.5h2a3 3 0 0 0 3 3 3 3 0 0 0 3-3h6a3 3 0 0 0 3 3 3 3 0 0 0 3-3h2v-7c0-1.11-.89-2-2-2zm3 1.5h2.5v2.5h-2.5zm4 0h4v2.5h-4zm5.5 0h4v2.5h-4zm5.5 0h2.5v5.5l-2.5-2zm-13 6a1.5 1.5 0 0 1 1.5 1.5 1.5 1.5 0 0 1 -1.5 1.5 1.5 1.5 0 0 1 -1.5-1.5 1.5 1.5 0 0 1 1.5-1.5m12 0a1.5 1.5 0 0 1 1.5 1.5 1.5 1.5 0 0 1 -1.5 1.5 1.5 1.5 0 0 1 -1.5-1.5 1.5 1.5 0 0 1 1.5-1.5z"/></svg>