<svg height="24" viewBox="0 0 24 24" width="24" xmlns="http://www.w3.org/2000/svg"><path d="m3 4c-1.11 0-2 .89-2 2v11h2a3 3 0 0 0 3 3 3 3 0 0 0 3-3h6a3 3 0 0 0 3 3 3 3 0 0 0 3-3h2v-3c0-1.11-.89-2-2-2h-2v-2.5h4v-3.5c0-1.11-.89-2-2-2zm-.5 1.5h4v2.5h-4zm5.5 0h4v2.5h-4zm5.5 0h4v2.5h-4zm5.5 0h2.5v2.5h-2.5zm-5.5 4h4v2.5h-4zm-11 0h4v2.5h-4zm5.5 0h4v2.5h-4zm-2 6a1.5 1.5 0 0 1 1.5 1.5 1.5 1.5 0 0 1 -1.5 1.5 1.5 1.5 0 0 1 -1.5-1.5 1.5 1.5 0 0 1 1.5-1.5m12 0a1.5 1.5 0 0 1 1.5 1.5 1.5 1.5 0 0 1 -1.5 1.5 1.5 1.5 0 0 1 -1.5-1.5 1.5 1.5 0 0 1 1.5-1.5z"/></svg>