<svg height="24" viewBox="0 0 24 24" width="24" xmlns="http://www.w3.org/2000/svg"><path d="m16 1a7 7 0 0 1 7 7c0 3.53-2.61 6.45-6 6.93v3.07c0 .84-.35 1.58-1.04 2.2v1.8c0 .27-.09.5-.28.71-.18.2-.42.29-.68.29h-1c-.29 0-.53-.09-.73-.29-.21-.21-.31-.44-.31-.71v-1h-7.92v1c0 .27-.1.5-.31.71-.2.2-.44.29-.73.29h-1c-.26 0-.5-.09-.68-.29-.19-.21-.28-.44-.28-.71v-1.8c-.69-.62-1.04-1.36-1.04-2.2v-10c0-1.58.7-2.65 2.07-3.2 1.37-.54 3.35-.8 5.93-.8l1.23.03c1.27-1.83 3.38-3.03 5.77-3.03m0 2a5 5 0 0 0 -5 5 5 5 0 0 0 5 5 5 5 0 0 0 5-5 5 5 0 0 0 -5-5m-1 7h2v2h-2zm0-6h2v5h-2zm-12 9h8.09c-1.29-1.28-2.09-3.04-2.09-5h-6zm1.5 3c-.81 0-1.5.67-1.5 1.5a1.5 1.5 0 0 0 1.5 1.5c.85 0 1.5-.67 1.5-1.5a1.5 1.5 0 0 0 -1.5-1.5m9 0c-.85 0-1.5.67-1.5 1.5a1.5 1.5 0 0 0 1.5 1.5c.81 0 1.5-.67 1.5-1.5a1.5 1.5 0 0 0 -1.5-1.5z"/></svg>