<svg height="24" viewBox="0 0 24 24" width="24" xmlns="http://www.w3.org/2000/svg"><path d="m12 2c-4.42 0-8 .5-8 4v10a3 3 0 0 0 1 2.22v1.78a1 1 0 0 0 1 1h1a1 1 0 0 0 1-1v-1h6a8 8 0 0 1 -1-3.5 5.55 5.55 0 0 1 2.38-4.5h-9.38v-5h12v4a4.07 4.07 0 0 1 .5 0 5.34 5.34 0 0 1 1.5.22v-4.22c0-3.5-3.58-4-8-4m-4.5 12a1.5 1.5 0 1 1 -1.5 1.5 1.5 1.5 0 0 1 1.5-1.5m11-2a3.54 3.54 0 0 0 -3.5 3.5c0 2.6 3.5 6.5 3.5 6.5s3.5-3.9 3.5-6.5a3.54 3.54 0 0 0 -3.5-3.5m0 4.8a1.2 1.2 0 1 1 0-2.4 1.29 1.29 0 0 1 1.2 1.2 1.15 1.15 0 0 1 -1.2 1.2z"/></svg>