<svg height="24" viewBox="0 0 24 24" width="24" xmlns="http://www.w3.org/2000/svg"><path d="m16.5 4v4.25l2.86 1.69-.75 1.22-3.61-2.16v-5zm-.5 9c1.36 0 2.54-.5 3.5-1.47 1-.97 1.5-2.14 1.5-3.53 0-1.36-.5-2.54-1.5-3.5-.96-1-2.14-1.5-3.5-1.5-1.39 0-2.56.5-3.53 1.5-.97.96-1.47 2.14-1.47 3.5 0 1.39.5 2.56 1.47 3.53s2.14 1.47 3.53 1.47m-2.5 6c.44 0 .8-.16 1.08-.46s.42-.65.42-1.04c0-.42-.14-.77-.42-1.07s-.64-.43-1.08-.43-.8.13-1.08.43-.42.65-.42 1.07c0 .39.14.74.42 1.04s.64.46 1.08.46m-10.5-6h8.11c-1.41-1.36-2.11-3-2.11-5h-6zm1.5 6c.44 0 .8-.16 1.08-.46s.42-.65.42-1.04c0-.42-.14-.77-.42-1.07s-.64-.43-1.08-.43-.8.13-1.08.43-.42.65-.42 1.07c0 .39.14.74.42 1.04s.64.46 1.08.46m11.5-18c1.92 0 3.58.67 4.95 2.05 1.38 1.37 2.05 3.03 2.05 4.95 0 1.77-.56 3.29-1.72 4.59-1.15 1.29-2.58 2.07-4.28 2.32v3.09c0 .84-.33 1.58-1 2.2v1.8c0 .27-.11.5-.3.71-.2.2-.42.29-.7.29h-1c-.27 0-.5-.09-.71-.29-.2-.21-.29-.44-.29-.71v-1h-8v1c0 .27-.09.5-.29.71-.21.2-.44.29-.71.29h-1c-.28 0-.5-.09-.7-.29-.19-.21-.3-.44-.3-.71v-1.8c-.67-.62-1-1.36-1-2.2v-10c0-1.58.67-2.65 2.05-3.2 1.37-.54 3.36-.8 5.95-.8h.61c.28 0 .48.03.61.03 1.41-2.03 3.33-3.03 5.78-3.03z"/></svg>