<svg height="24" viewBox="0 0 24 24" width="24" xmlns="http://www.w3.org/2000/svg"><path d="m22 7v9c0 .71-.38 1.36-1 1.72v1.53c0 .41-.34.75-.75.75h-.5c-.41 0-.75-.34-.75-.75v-1.25h-7v1.25c0 .41-.34.75-.75.75h-.5c-.41 0-.75-.34-.75-.75v-1.53c-.61-.36-1-1.01-1-1.72v-9c0-3 3-3 6.5-3s6.5 0 6.5 3m-9 8c0-.55-.45-1-1-1s-1 .45-1 1 .45 1 1 1 1-.45 1-1m7 0c0-.55-.45-1-1-1s-1 .45-1 1 .45 1 1 1 1-.45 1-1m0-8h-9v4h9zm-13 2.5c-.03-1.38-1.17-2.5-2.55-2.45-1.38.03-2.48 1.17-2.45 2.55.03 1.17.86 2.17 2 2.4v8h1v-8c1.18-.24 2-1.29 2-2.5z"/></svg>