<svg height="24" viewBox="0 0 24 24" width="24" xmlns="http://www.w3.org/2000/svg"><path d="m7.05 3.5c-1.37 1.38-1.37 3.6 0 4.97l8.49 8.48c.58.59.58 1.55 0 2.12-.59.59-1.54.59-2.13 0l-4.24-4.24 1.06-1.06-3.53-3.54-.36.36-1.41-1.42c-.39-.39-1.02-.39-1.43 0l-1.4 1.42c-.39.41-.39 1.02 0 1.41l1.4 1.41-.34.36 3.54 3.53 1.06-1.06 4.24 4.26c1.37 1.35 3.58 1.35 4.95 0 1.37-1.38 1.37-3.6 0-4.96l-8.49-8.49c-.58-.59-.58-1.55 0-2.12.59-.59 1.54-.59 2.13 0l4.24 4.24-1.06 1.06 3.53 3.54.36-.36 1.41 1.42c.39.39 1.03.39 1.43 0l1.4-1.42c.39-.41.39-1.02 0-1.41l-1.4-1.41.34-.36-3.54-3.53-1.06 1.06-4.24-4.26c-1.37-1.35-3.58-1.35-4.95 0m-4.24 7.79 1.41-1.41 1.42 1.41-1.42 1.42m14.14 0 1.42-1.42 1.41 1.42-1.41 1.41z"/></svg>