<svg height="24" viewBox="0 0 24 24" width="24" xmlns="http://www.w3.org/2000/svg"><path d="m12 6c1.11 0 2-.9 2-2 0-.38-.1-.73-.29-1.03l-1.71-2.97-1.71 2.97c-.19.3-.29.65-.29 1.03a2 2 0 0 0 2 2m4.6 10-1.07-1.08-1.08 1.08c-1.3 1.29-3.58 1.3-4.89 0l-1.06-1.08-1.1 1.08c-.65.64-1.52 1-2.44 1-.73 0-1.4-.23-1.96-.61v4.61a1 1 0 0 0 1 1h16a1 1 0 0 0 1-1v-4.61c-.56.38-1.23.61-1.96.61-.92 0-1.79-.36-2.44-1m1.4-7h-5v-2h-2v2h-5a3 3 0 0 0 -3 3v1.54c0 1.08.88 1.96 1.96 1.96.54 0 1.04-.2 1.38-.57l2.16-2.13 2.11 2.13c.74.74 2.03.74 2.77 0l2.12-2.13 2.15 2.13c.35.37.85.57 1.38.57 1.08 0 1.97-.88 1.97-1.96v-1.54a3 3 0 0 0 -3-3z"/></svg>