<svg height="24" viewBox="0 0 24 24" width="24" xmlns="http://www.w3.org/2000/svg"><path d="m9 2h-5a2 2 0 0 0 -2 2v5a2 2 0 0 0 2 2h5a2 2 0 0 0 2-2v-5a2 2 0 0 0 -2-2m0 5h-5v-1h5zm11 6h-5a2 2 0 0 0 -2 2v5a2 2 0 0 0 2 2h5a2 2 0 0 0 2-2v-5a2 2 0 0 0 -2-2m0 6h-5v-1h5zm0-2h-5v-1h5zm0-15h-5a2 2 0 0 0 -2 2v5a2 2 0 0 0 2 2h5a2 2 0 0 0 2-2v-5a2 2 0 0 0 -2-2m0 5h-2v2h-1v-2h-2v-1h2v-2h1v2h2zm-11 6h-5a2 2 0 0 0 -2 2v5a2 2 0 0 0 2 2h5a2 2 0 0 0 2-2v-5a2 2 0 0 0 -2-2m-.38 5.91-.71.71-1.41-1.41-1.41 1.41-.71-.71 1.41-1.41-1.41-1.41.71-.71 1.41 1.41 1.41-1.41.71.71-1.41 1.41z"/></svg>