<svg height="24" viewBox="0 0 24 24" width="24" xmlns="http://www.w3.org/2000/svg"><path d="m9 12c0-.81.3-1.5.89-2.11.61-.59 1.3-.89 2.11-.89s1.5.3 2.11.89c.59.61.89 1.3.89 2.11s-.3 1.5-.89 2.11c-.61.59-1.3.89-2.11.89s-1.5-.3-2.11-.89c-.59-.61-.89-1.3-.89-2.11m-3.47-3.56 1.78 1.78-1.78 1.78 1.78 1.78-1.78 1.78-3.53-3.56zm2.91 10.03 1.78-1.78 1.78 1.78 1.78-1.78 1.78 1.78-3.56 3.53zm10.03-2.91-1.78-1.78 1.78-1.78-1.78-1.78 1.78-1.78 3.53 3.56zm-2.91-10.03-1.78 1.78-1.78-1.78-1.78 1.78-1.78-1.78 3.56-3.53z"/></svg>