<svg height="24" viewBox="0 0 24 24" width="24" xmlns="http://www.w3.org/2000/svg"><path d="m1.2 4.47 1.3-1.27 17.5 17.52-1.27 1.28-2-2h-12.73a2 2 0 0 1 -2-2v-12c0-.22.04-.43.1-.63zm5.8-.47 2-2h6l2 2h3a2 2 0 0 1 2 2v12c0 .6-.26 1.13-.68 1.5l-4.99-5c.43-.73.67-1.59.67-2.5a5 5 0 0 0 -5-5c-.91 0-1.77.24-2.5.67l-3.68-3.67zm0 8a5 5 0 0 0 5 5c.5 0 1.03-.08 1.5-.23l-1.78-1.77c-1.43-.15-2.57-1.29-2.72-2.72l-1.77-1.78c-.15.47-.23 1-.23 1.5m5-3a3 3 0 0 1 3 3c0 .35-.06.69-.17 1l-3.83-3.83c.31-.11.65-.17 1-.17z"/></svg>