<svg height="24" viewBox="0 0 24 24" width="24" xmlns="http://www.w3.org/2000/svg"><path d="m11.5 22v-4.65c-.5.78-1.5 1.74-3.47 2.46 0 0 .5-1.71 1.91-2.86-1.3.28-3.26.24-5.94-.95 0 0 2.47-1.41 5.28-1.03-1.59-.97-3.58-2.89-5.11-6.86 0 0 4.5 1.23 6.74 5.03-2.03-4.9 1.09-11.14 1.09-11.14 2.43 5.47 1.91 9.1 1.12 11.1 2.25-3.77 6.71-4.99 6.71-4.99-1.53 3.97-3.52 5.89-5.11 6.86 2.81-.38 5.28 1.03 5.28 1.03-2.68 1.19-4.64 1.23-5.94.95 1.41 1.15 1.91 2.86 1.91 2.86-1.97-.72-2.97-1.68-3.47-2.46v4.65z"/></svg>