<svg height="24" viewBox="0 0 24 24" width="24" xmlns="http://www.w3.org/2000/svg"><path d="m5.31 6c1.64-1.84 4.03-3 6.69-3s5.05 1.16 6.69 3h-3.11c-1.05-.63-2.27-1-3.58-1s-2.53.37-3.58 1zm9.09 3.6v-1.6h-3.2a1.6 1.6 0 0 0 -1.6 1.6v1.6c0 .88.72 1.6 1.6 1.6h1.6v1.6h-3.2v1.6h3.2a1.6 1.6 0 0 0 1.6-1.6v-1.6c0-.88-.72-1.6-1.6-1.6h-1.6v-1.6zm4-1.6h-3.2v8h1.6v-3.2h1.6a1.6 1.6 0 0 0 1.6-1.6v-1.6c0-.88-.72-1.6-1.6-1.6m0 3.2h-1.6v-1.6h1.6zm-9.6-1.6v-1.6h-4.8v8h4.8v-1.6h-3.2v-1.6h3.2v-1.6h-3.2v-1.6zm6.78 8.4c-1.05.63-2.27 1-3.58 1s-2.53-.37-3.58-1h-3.11c1.64 1.84 4.03 3 6.69 3s5.05-1.16 6.69-3zm4.92-14.5-1.08 1.08c1.9 1.92 3.08 4.53 3.08 7.42 0 2.9-1.18 5.5-3.08 7.42l1.08 1.08c2.16-2.19 3.5-5.19 3.5-8.5s-1.34-6.31-3.5-8.5m-15.92 1.08-1.08-1.08c-2.16 2.19-3.5 5.19-3.5 8.5s1.34 6.31 3.5 8.5l1.08-1.08c-1.9-1.92-3.08-4.52-3.08-7.42 0-2.89 1.18-5.5 3.08-7.42z"/></svg>