<svg height="24" viewBox="0 0 24 24" width="24" xmlns="http://www.w3.org/2000/svg"><path d="m9.5 11h1c.3 0 .5-.2.5-.5v-1.5h8v1.5c0 .3.2.5.5.5h1c.3 0 .5-.2.5-.5v-1.5-.5-2.5l-1.4-4.3c-.1-.4-.5-.7-.9-.7h-7.3c-.4 0-.8.3-.9.7l-1.5 4.3v2.5.5 1.5c0 .3.2.5.5.5m1.8-9h7.3l.9 3h-9.1zm.7 21h-2c0-.8-1.9-1.5-3.4-2.1-2.1-.8-4.6-1.7-4.6-3.9 0-2.3 2.3-2.9 4.2-3.5 1.7-.4 2.8-.8 2.8-1.5h2c0 2.3-2.3 2.9-4.2 3.5-1.7.4-2.8.8-2.8 1.5 0 .8 1.9 1.5 3.4 2.1 2.1.8 4.6 1.7 4.6 3.9m10 0h-2c0-.8-1.9-1.5-3.4-2.1-2.1-.8-4.6-1.7-4.6-3.9 0-2.3 2.3-2.9 4.2-3.5 1.6-.5 2.8-.8 2.8-1.5h2c0 2.3-2.3 2.9-4.2 3.5-1.6.4-2.8.8-2.8 1.5 0 .8 1.9 1.5 3.4 2.1 2.1.8 4.6 1.7 4.6 3.9z"/></svg>