<svg height="24" viewBox="0 0 24 24" width="24" xmlns="http://www.w3.org/2000/svg"><path d="m8 11 1.5-4.5h9l1.5 4.5m-1.5 5a1.5 1.5 0 0 1 -1.5-1.5 1.5 1.5 0 0 1 1.5-1.5 1.5 1.5 0 0 1 1.5 1.5 1.5 1.5 0 0 1 -1.5 1.5m-9 0a1.5 1.5 0 0 1 -1.5-1.5 1.5 1.5 0 0 1 1.5-1.5 1.5 1.5 0 0 1 1.5 1.5 1.5 1.5 0 0 1 -1.5 1.5m10.42-10c-.21-.6-.78-1-1.42-1h-9c-.64 0-1.21.4-1.42 1l-2.08 6v8a1 1 0 0 0 1 1h1a1 1 0 0 0 1-1v-1h10v1a1 1 0 0 0 1 1h1a1 1 0 0 0 1-1v-8zm-5-3c-.21-.6-.78-1-1.42-1h-9c-.64 0-1.21.4-1.42 1l-2.08 6v8a1 1 0 0 0 1 1h1a1 1 0 0 0 1-1v-4.09c-.78-.28-1.18-1.14-.9-1.91.22-.6.77-1 1.4-1h.07l.7-2h-2.27l1.5-4.5h10.59z"/></svg>