<svg height="24" viewBox="0 0 24 24" width="24" xmlns="http://www.w3.org/2000/svg"><path d="m15 23c-.3 0-.5-.1-.7-.3-.4-.4-.3-1 .1-1.4.5-.4 1.7-1.8 1.7-2.9 0-.6-.4-1.2-.8-1.9-.5-.8-1.2-1.8-1.2-3 0-2.3 1.3-3.2 1.5-3.3.5-.3 1.1-.1 1.4.3.3.5.1 1.1-.3 1.4s-.5.4-.5 1.6c0 .6.4 1.2.8 1.9.5.8 1.2 1.8 1.2 3 0 2.2-2.1 4.2-2.3 4.4-.4.1-.7.2-.9.2m-3.3-.3c.2-.2 2.3-2.2 2.3-4.4 0-1.2-.6-2.2-1.2-3-.4-.7-.8-1.3-.8-1.9 0-1.2.5-1.6.5-1.6.5-.3.6-.9.3-1.4s-.9-.6-1.4-.3c-.2.1-1.5 1-1.5 3.3 0 1.2.6 2.2 1.2 3 .4.7.8 1.3.8 1.9 0 1.1-1.2 2.5-1.7 2.9-.4.4-.4 1-.1 1.4.2.2.5.3.7.3.4.1.7 0 .9-.2m-4 0c.2-.2 2.3-2.2 2.3-4.4 0-1.2-.6-2.2-1.2-3-.4-.6-.8-1.2-.8-1.9 0-1.2.5-1.6.5-1.6.5-.3.6-.9.3-1.4-.2-.4-.9-.5-1.3-.3-.2.1-1.5 1-1.5 3.3 0 1.2.6 2.2 1.2 3 .4.7.8 1.3.8 1.9 0 1.1-1.2 2.5-1.7 2.9-.4.4-.4 1-.1 1.4.3.3.5.4.8.4.2 0 .5-.1.7-.3m4.3-19.7c-2.6 0-11 .3-11 4 0 2.4 1.2 8.4 1.8 11h1.2.8.2v-2h-.6c-.6-2.9-1.4-7.2-1.4-9 0-1 4.4-2 9-2s9 1 9 2c0 1.8-.8 6.1-1.4 9h-.6v2h.2.8 1.2c.6-2.6 1.8-8.6 1.8-11 0-3.7-8.4-4-11-4z"/></svg>