<svg height="24" viewBox="0 0 24 24" width="24" xmlns="http://www.w3.org/2000/svg"><path d="m7.3 9.2c.8.4 1.7 1.3 1.7 2.8s-.9 2.4-1.7 2.8c-.4-1.4-.4-4.2 0-5.6m-.8-2.2c-2 0-2 10 0 10s4.5-1.9 4.5-5-2.5-5-4.5-5m10.2 2.2c.3 1.4.3 4.2 0 5.6-.8-.4-1.7-1.3-1.7-2.8s.9-2.4 1.7-2.8m.8-2.2c-2 0-4.5 1.9-4.5 5s2.5 5 4.5 5 2-10 0-10m-12.6-.8-2.4-1.6-1.1 1.7 2.6 1.7c.2-.7.5-1.4.9-1.8m15.1 1.8 2.6-1.7-1.1-1.7-2.4 1.6c.3.4.7 1 .9 1.8m-16 8-2.6 1.7 1.1 1.7 2.4-1.6c-.3-.4-.7-1-.9-1.8m16.5-5v1 1h3.5v-2zm-1.4 6.8 2.4 1.6 1.1-1.7-2.6-1.7c-.2.7-.5 1.4-.9 1.8m-15.6-5.8c0-.3 0-.6 0-1h-3.5v2h3.5c0-.3 0-.7 0-1z"/></svg>