<svg height="24" viewBox="0 0 24 24" width="24" xmlns="http://www.w3.org/2000/svg"><path d="m5 14h14l-1.5-4.5h-11zm12.5 5a1.5 1.5 0 0 0 1.5-1.5 1.5 1.5 0 0 0 -1.5-1.5 1.5 1.5 0 0 0 -1.5 1.5 1.5 1.5 0 0 0 1.5 1.5m-11 0a1.5 1.5 0 0 0 1.5-1.5 1.5 1.5 0 0 0 -1.5-1.5 1.5 1.5 0 0 0 -1.5 1.5 1.5 1.5 0 0 0 1.5 1.5m12.42-10 2.08 6v8a1 1 0 0 1 -1 1h-1a1 1 0 0 1 -1-1v-1h-12v1a1 1 0 0 1 -1 1h-1a1 1 0 0 1 -1-1v-8l2.08-6c.2-.58.77-1 1.42-1h11c.65 0 1.22.42 1.42 1m-6.92-9c2.12 0 4.15.86 5.65 2.35l-1.42 1.42c-1.12-1.12-2.65-1.77-4.23-1.77s-3.11.65-4.23 1.77l-1.41-1.42c1.49-1.49 3.52-2.35 5.64-2.35m0 4c1.06 0 2.07.44 2.82 1.18l-1.42 1.42c-.37-.37-.87-.6-1.4-.6-.5 0-1.03.23-1.4.6l-1.42-1.42c.75-.74 1.76-1.18 2.82-1.18z"/></svg>