<svg height="24" viewBox="0 0 24 24" width="24" xmlns="http://www.w3.org/2000/svg"><path d="m12 3c-5 0-9 4-9 9s4 9 9 9 9-4 9-9-4-9-9-9m0 16c-3.9 0-7-3.1-7-7s3.1-7 7-7 7 3.1 7 7-3.1 7-7 7m8.5 1.5c2.2-2.2 3.5-5.2 3.5-8.5s-1.3-6.3-3.5-8.5l-1.1 1.1c1.9 1.9 3.1 4.5 3.1 7.4s-1.2 5.5-3.1 7.4zm-15.9-1.1c-1.9-1.9-3.1-4.5-3.1-7.4s1.2-5.5 3.1-7.4l-1.1-1.1c-2.2 2.2-3.5 5.2-3.5 8.5s1.3 6.3 3.5 8.5zm10.7-8.9c.66 0 1.2.67 1.2 1.5 0 .81-.55 1.5-1.2 1.5-.37 0-.64-.21-.8-.39l-.03-.03-.03-.03-1.06-1.05 1.09-1.08.03-.03.03-.03c.21-.23.47-.36.77-.36m-6.6 0c.37 0 .64.21.8.38v.04l.06.03 1.06 1.05-1.09 1.08-.03.03-.03.04c-.21.22-.47.35-.77.35-.65 0-1.2-.69-1.2-1.5s.55-1.5 1.2-1.5m6.6-1.5c-.72 0-1.4.31-1.88.85l-1.42 1.4-1.39-1.37c-.51-.57-1.19-.88-1.91-.88-1.49 0-2.7 1.35-2.7 3s1.21 3 2.7 3c.72 0 1.4-.31 1.89-.85l1.41-1.4 1.39 1.37c.51.56 1.19.88 1.91.88 1.49 0 2.7-1.35 2.7-3 0-1.67-1.21-3-2.7-3z"/></svg>