<svg height="24" viewBox="0 0 24 24" width="24" xmlns="http://www.w3.org/2000/svg"><path d="m20.5 19.85-14.09-14.09-4-4-1.3 1.24 3.46 3.46-1.57 4.54v8a1 1 0 0 0 1 1h1a1 1 0 0 0 1-1v-1h10.11l4.73 4.73 1.27-1.27zm-14-4.85a1.5 1.5 0 0 1 -1.5-1.5 1.5 1.5 0 0 1 1.5-1.5 1.5 1.5 0 0 1 1.5 1.5 1.5 1.5 0 0 1 -1.5 1.5m-1.5-5 .78-2.33 2.33 2.33zm12.5-4.5 1.5 4.5h-5.8l2.92 2.92c.38-.75 1.25-1.06 2-.71.75.36 1.06 1.26.71 2-.15.29-.4.56-.71.71l2.88 2.88v-6.8l-2.08-6c-.21-.6-.78-1-1.42-1h-10.3l1.5 1.5z"/></svg>