<svg height="24" viewBox="0 0 24 24" width="24" xmlns="http://www.w3.org/2000/svg"><path d="m22 15c0 2.6-1.2 4.9-3.1 6.3l-.5-.5-2.1-2.1 1.4-1.4 1.2 1.2c.5-.7.9-1.6 1-2.5h-1.9v-2h1.9c-.2-.9-.5-1.7-1-2.5l-1.2 1.2-1.4-1.4 1.2-1.2c-.7-.5-1.6-.9-2.5-1v1.9h-2v-1.9c-.9.2-1.7.5-2.5 1l3 3c.2 0 .3-.1.5-.1a2 2 0 0 1 2 2 2 2 0 0 1 -2 2 2 2 0 0 1 -2-2c0-.2 0-.3.1-.5l-3-3c-.5.7-.9 1.6-1 2.5h1.9v2h-1.9c.2.9.5 1.7 1 2.5l1.2-1.2 1.4 1.4-2.6 2.6c-1.9-1.4-3.1-3.7-3.1-6.3a8 8 0 0 1 8-8 8 8 0 0 1 8 8m-15.3-9.7-3.3-3.3-1.4 1.4 3.3 3.3-1.3 1.3h4v-4z"/></svg>