<svg height="24" viewBox="0 0 24 24" width="24" xmlns="http://www.w3.org/2000/svg"><path d="m24 12c0 3.31-1.34 6.31-3.5 8.5l-1.08-1.08c1.9-1.92 3.08-4.52 3.08-7.42 0-2.89-1.18-5.5-3.08-7.42l1.08-1.08c2.16 2.19 3.5 5.19 3.5 8.5m-4-2.4v-1.6h-3.2c-.88 0-1.6.72-1.6 1.6v1.6a1.6 1.6 0 0 0 1.6 1.6h1.6v1.6h-3.2v1.6h3.2c.88 0 1.6-.72 1.6-1.6v-1.6a1.6 1.6 0 0 0 -1.6-1.6h-1.6v-1.6zm-11.58-3.6c1.05-.63 2.27-1 3.58-1s2.53.37 3.58 1h3.11c-1.64-1.84-4.03-3-6.69-3s-5.05 1.16-6.69 3zm4.78 6c.64 0 1.2.56 1.2 1.2v1.2a1.6 1.6 0 0 1 -1.6 1.6h-3.2v-8h3.2a1.6 1.6 0 0 1 1.6 1.6v1.2c0 .64-.56 1.2-1.2 1.2m-.4.8h-1.6v1.6h1.6zm0-3.2h-1.6v1.6h1.6zm-8.22-5.02-1.08-1.08c-2.16 2.19-3.5 5.19-3.5 8.5s1.34 6.31 3.5 8.5l1.08-1.08c-1.9-1.92-3.08-4.52-3.08-7.42 0-2.89 1.18-5.5 3.08-7.42m2.62 11.42v-3.2h-1.6v3.2h-1.6v-6.4a1.6 1.6 0 0 1 1.6-1.6h1.6c.88 0 1.6.72 1.6 1.6v6.4zm0-4.8v-1.6h-1.6v1.6zm8.38 6.8c-1.05.63-2.27 1-3.58 1s-2.53-.37-3.58-1h-3.11c1.64 1.84 4.03 3 6.69 3s5.05-1.16 6.69-3z"/></svg>