<svg height="24" viewBox="0 0 24 24" width="24" xmlns="http://www.w3.org/2000/svg"><path d="m20 22.09 2.45 1.49-.65-2.81 2.2-1.88-2.89-.25-1.11-2.64-1.13 2.64-2.87.25 2.18 1.88-.68 2.81zm-5.92-1.09h-12.08c-1.09-.04-1.96-.91-2-2v-14c.04-1.09.91-1.96 2-2h20c1.09.04 1.96.91 2 2v10.53c-.58-.53-1.25-.92-2-1.19v-9.34h-20v14h12.08c-.05.33-.08.66-.08 1s.03.68.08 1m-.08-4h-10v-1.25c0-1.66 3.34-2.5 5-2.5s5 .84 5 2.5zm0-6h4v1h-4zm-5-4c-1.37 0-2.5 1.13-2.5 2.5s1.13 2.5 2.5 2.5 2.5-1.13 2.5-2.5-1.13-2.5-2.5-2.5m5 2h6v1h-6zm0-2h6v1h-6z"/></svg>