<svg height="24" viewBox="0 0 24 24" width="24" xmlns="http://www.w3.org/2000/svg"><path d="m22 3h-20a2 2 0 0 0 -2 2v14a2 2 0 0 0 2 2h20a2 2 0 0 0 2-2v-14a2 2 0 0 0 -2-2m0 16h-20v-14h20zm-3-1 2-2-1.5-2h-1.65c-.22-.63-.35-1.3-.35-2s.13-1.37.35-2h1.65l1.5-2-2-2c-1.3 1-2.27 2.38-2.72 4-.18.64-.28 1.31-.28 2s.1 1.36.28 2c.45 1.61 1.42 3 2.72 4m-10-6a3 3 0 0 0 3-3 3 3 0 0 0 -3-3 3 3 0 0 0 -3 3 3 3 0 0 0 3 3m0-4a1 1 0 0 1 1 1 1 1 0 0 1 -1 1 1 1 0 0 1 -1-1 1 1 0 0 1 1-1m6 8.59c0-2.5-3.97-3.59-6-3.59s-6 1.09-6 3.59v1.41h12zm-9.5-.59c.72-.5 2.2-1 3.5-1s2.77.5 3.5 1z"/></svg>