<svg height="24" viewBox="0 0 24 24" width="24" xmlns="http://www.w3.org/2000/svg"><path d="m16 10-.2 1h-2.3a.5.5 0 0 0 -.5.5.5.5 0 0 0 .5.5h2.1l-1 5h-2.1a.5.5 0 0 0 -.5.5.5.5 0 0 0 .5.5h1.9l-.4 2a2 2 0 0 1 -2 2 2 2 0 0 1 -2-2l-1-5h1.5a.5.5 0 0 0 .5-.5.5.5 0 0 0 -.5-.5h-1.7l-.8-4c0-1.2.93-2.23 2.29-2.71l-1.39-2.01c-.31-.46-.2-1.08.26-1.39.45-.32 1.07-.2 1.39.25l.45.66v-1.8a1 1 0 0 1 1-1 1 1 0 0 1 1 1v2.28l1.5-1.74c.33-.42.97-.47 1.39-.11.42.35.47.98.11 1.41l-2.13 2.51c1.27.5 2.13 1.5 2.13 2.65z"/></svg>