<svg height="24" viewBox="0 0 24 24" width="24" xmlns="http://www.w3.org/2000/svg"><path d="m14.12 8.53-2.12-2.12-2.12 2.13-1.42-1.42 2.13-2.12-2.12-2.12 1.41-1.41 2.12 2.12 2.12-2.13 1.42 1.42-2.13 2.12 2.12 2.12zm-7.12 9.47a2 2 0 0 1 2 2 2 2 0 0 1 -2 2 2 2 0 0 1 -2-2 2 2 0 0 1 2-2m10 0a2 2 0 0 1 2 2 2 2 0 0 1 -2 2 2 2 0 0 1 -2-2 2 2 0 0 1 2-2m-9.83-3.25a.25.25 0 0 0 .25.25h11.58v2h-12a2 2 0 0 1 -2-2c0-.35.09-.68.25-.96l1.35-2.45-3.6-7.59h-2v-2h3.27l.94 2 .95 2 2.24 4.73.13.27h7.02l2.76-5 1.1-2h.01l1.74.96-3.86 7.01c-.34.62-1 1.03-1.75 1.03h-7.45l-.9 1.63z"/></svg>