<svg height="24" viewBox="0 0 24 24" width="24" xmlns="http://www.w3.org/2000/svg"><path d="m22.73 22.73-21.46-21.46-1.27 1.27 4.39 4.39 2.21 4.66-1.35 2.45c-.16.28-.25.61-.25.96a2 2 0 0 0 2 2h7.46l1.38 1.38c-.5.36-.84.95-.84 1.62a2 2 0 0 0 2 2c.67 0 1.26-.33 1.62-.84l2.84 2.84zm-15.31-7.73a.25.25 0 0 1 -.25-.25l.03-.12.9-1.63h2.36l2 2zm8.13-2c.75 0 1.41-.41 1.75-1.03l3.58-6.47c.08-.16.12-.33.12-.5a1 1 0 0 0 -1-1h-13.46zm-8.55 5a2 2 0 0 0 -2 2 2 2 0 0 0 2 2 2 2 0 0 0 2-2 2 2 0 0 0 -2-2z"/></svg>