<svg height="24" viewBox="0 0 24 24" width="24" xmlns="http://www.w3.org/2000/svg"><path d="m2 5h20v15h-20zm18 13v-11h-16v11zm-3-10a2 2 0 0 0 2 2v5a2 2 0 0 0 -2 2h-10a2 2 0 0 0 -2-2v-5a2 2 0 0 0 2-2zm0 5v-1c0-1.1-.67-2-1.5-2s-1.5.9-1.5 2v1c0 1.1.67 2 1.5 2s1.5-.9 1.5-2m-1.5-2a.5.5 0 0 1 .5.5v2a.5.5 0 0 1 -.5.5.5.5 0 0 1 -.5-.5v-2a.5.5 0 0 1 .5-.5m-2.5 2v-1c0-1.1-.67-2-1.5-2s-1.5.9-1.5 2v1c0 1.1.67 2 1.5 2s1.5-.9 1.5-2m-1.5-2a.5.5 0 0 1 .5.5v2a.5.5 0 0 1 -.5.5.5.5 0 0 1 -.5-.5v-2a.5.5 0 0 1 .5-.5m-3.5 4h1v-5h-1l-1 .5v1l1-.5z"/></svg>