<svg height="24" viewBox="0 0 24 24" width="24" xmlns="http://www.w3.org/2000/svg"><path d="m20.07 4.93c1.81 1.81 2.93 4.31 2.93 7.07s-1.12 5.26-2.93 7.07l-1.41-1.41c1.45-1.44 2.34-3.44 2.34-5.66 0-2.21-.89-4.22-2.34-5.66zm-2.83 2.83c1.09 1.09 1.76 2.59 1.76 4.24s-.67 3.15-1.76 4.24l-1.41-1.41c.72-.72 1.17-1.72 1.17-2.83s-.45-2.11-1.17-2.83zm-4.24 2.24a2 2 0 0 1 2 2 2 2 0 0 1 -2 2 2 2 0 0 1 -2-2 2 2 0 0 1 2-2m-1.5-9a2.5 2.5 0 0 1 2.5 2.5v4.5h-2v-4h-9v15h9v-3h2v4.5a2.5 2.5 0 0 1 -2.5 2.5h-8a2.5 2.5 0 0 1 -2.5-2.5v-17a2.5 2.5 0 0 1 2.5-2.5z"/></svg>