<svg height="24" viewBox="0 0 24 24" width="24" xmlns="http://www.w3.org/2000/svg"><path d="m9.82 12.5c.02-.17.04-.33.04-.5s-.02-.33-.04-.5l1.08-.81c.1-.07.1-.19.06-.32l-1.03-1.73c-.06-.11-.2-.14-.31-.11l-1.28.5c-.27-.2-.56-.36-.87-.49l-.2-1.33c0-.12-.11-.21-.24-.21h-2.03c-.15 0-.26.09-.28.21l-.22 1.32c-.29.12-.58.3-.85.47l-1.28-.5c-.12-.03-.25 0-.31.13l-1.03 1.73c-.06.14-.03.25.07.33l1.08.81c-.02.17-.03.34-.03.5 0 .17.02.33.04.5l-1.09.82c-.1.07-.1.21-.06.32l1.03 1.73c.06.13.2.13.31.13l1.28-.5c.27.18.56.34.87.47l.2 1.32c.01.12.12.21.27.21h2.04c.13 0 .24-.09.25-.21l.21-1.32c.3-.12.59-.3.86-.47l1.28.5c.12.03.25 0 .31-.13l1.05-1.73c.04-.11 0-.24-.08-.32zm-3.82 1.25c-1 0-1.8-.78-1.8-1.75s.8-1.75 1.8-1.75 1.8.78 1.8 1.75-.8 1.75-1.8 1.75m11-12.75h-10a2 2 0 0 0 -2 2v3h2v-2h10v16h-10v-2h-2v3a2 2 0 0 0 2 2h10a2 2 0 0 0 2-2v-18a2 2 0 0 0 -2-2z"/></svg>