<svg height="24" viewBox="0 0 24 24" width="24" xmlns="http://www.w3.org/2000/svg"><path d="m17.8 8c-.54-2.11-2.19-3.76-4.3-4.3v-1.7h-3v1.7c-2.11.54-3.76 2.19-4.3 4.3h-2.2v3h2.2c.54 2.11 2.19 3.76 4.3 4.3v6.7h3v-6.7c2.11-.54 3.76-2.19 4.3-4.3h2.17v-3zm-5.76 1.53 2.46 1.47h1.26c-.41 1.03-1.23 1.84-2.26 2.26v-1.26l-1.44-2.44-.06-.06-.06.06-1.44 2.44v1.26c-1.03-.42-1.84-1.23-2.26-2.26h1.26l2.46-1.47.04-.03h-.04l-2.46-1.5h-1.26c.41-1.03 1.23-1.84 2.26-2.26v1.26l1.44 2.44.06.06.06-.06 1.44-2.44v-1.26c1.03.42 1.85 1.23 2.26 2.26h-1.26l-2.46 1.5h-.04z"/></svg>