<svg height="24" viewBox="0 0 24 24" width="24" xmlns="http://www.w3.org/2000/svg"><path d="m19.07 14.93 2.93-2.93-2.93-2.93v-4.14h-4.14l-2.93-2.93-2.93 2.93h-4.14v4.14l-2.93 2.93 2.93 2.93v4.14h4.14l2.93 2.93 2.93-2.93h4.14zm2.34-2.93-2.34 2.34v-1.88h-5.38l-.46-.46.46-.46h5.38v-1.88zm-2.75 2.76-1.34 1.33-3.21-3.22h4.55zm-6.2-1.66-.46-.45-.46.45v-.64h-.64l.46-.46-.46-.46h.64v-.64l.46.46.46-.46v.64h.64l-.45.46.45.46h-.64zm1.65-1.97 3.21-3.22 1.34 1.33v1.89zm4.55-5.78v3.3l-1.34-1.33-3.82 3.81h-.63v-.63l3.81-3.82-1.33-1.33zm-5.79 4.54v-4.54h1.89l1.33 1.33zm-.87-7.3 2.34 2.34h-1.88v5.38l-.46.46-.46-.46v-5.38h-1.88zm-.87 7.3-3.22-3.21 1.33-1.33h1.89zm-5.78-4.54h3.3l-1.33 1.33 3.81 3.82v.63h-.63l-3.82-3.81-1.33 1.33zm0 3.89 1.33-1.33 3.21 3.22h-4.54zm-2.76 2.76 2.34-2.34v1.88h5.38l.46.46-.46.46h-5.38v1.88zm7.3.87-3.21 3.22-1.33-1.33v-1.89zm-4.54 5.79v-3.31l1.33 1.33 3.82-3.81h.63v.63l-3.81 3.82 1.33 1.33h-3.3m5.78-4.54v4.55h-1.89l-1.33-1.34zm.87 7.3-2.34-2.34h1.88v-5.38l.46-.46.46.46v5.38h1.88zm.87-7.3 3.22 3.21-1.33 1.34h-1.89zm2.48 4.55 1.33-1.34-3.81-3.82v-.63h.63l3.82 3.81 1.33-1.33v3.31z"/></svg>