<svg height="24" viewBox="0 0 24 24" width="24" xmlns="http://www.w3.org/2000/svg"><path d="m16.18 19.6-2.01-3.48c.98-.72 1.66-1.84 1.8-3.12h4.03c-.17 2.76-1.65 5.16-3.82 6.6m-3.18-12.57v-4.03c4.3.26 7.74 3.7 8 8h-4.03c-.23-2.09-1.88-3.74-3.97-3.97m-6 5.47c0 .64.13 1.25.38 1.8l-3.48 2.01c-.58-1.15-.9-2.44-.9-3.81 0-4.53 3.54-8.23 8-8.5v4.03c-2.25.25-4 2.15-4 4.47m4.5 8.5c-2.97 0-5.58-1.5-7.1-3.82l3.48-2.01c.82 1.11 2.12 1.83 3.62 1.83.64 0 1.25-.13 1.8-.38l2.01 3.48c-1.15.58-2.44.9-3.81.9z"/></svg>