<svg height="24" viewBox="0 0 24 24" width="24" xmlns="http://www.w3.org/2000/svg"><path d="m13 2.05c5.05.5 9 4.77 9 9.95 0 1.45-.32 2.83-.88 4.07l-2.62-1.53c.32-.79.5-1.64.5-2.54 0-3.53-2.61-6.43-6-6.92zm-1 16.95c2.21 0 4.17-1 5.45-2.62l2.6 1.53c-1.82 2.48-4.75 4.09-8.05 4.09-5.53 0-10-4.5-10-10 0-5.19 3.94-9.45 9-9.95v3.03c-3.39.49-6 3.39-6 6.92a7 7 0 0 0 7 7m0-13a6 6 0 0 1 6 6c0 2.97-2.16 5.44-5 5.92v-3.09c1.17-.41 2-1.52 2-2.83a3 3 0 0 0 -3-3l-.55.05-1.54-2.67c.65-.25 1.35-.38 2.09-.38m-6 6c0-1.86.85-3.5 2.18-4.62l1.54 2.67c-.45.52-.72 1.21-.72 1.95 0 1.31.83 2.42 2 2.83v3.09c-2.84-.48-5-2.95-5-5.92z"/></svg>