<svg height="24" viewBox="0 0 24 24" width="24" xmlns="http://www.w3.org/2000/svg"><path d="m14 2a8 8 0 0 0 -8 8 8 8 0 0 0 8 8 8 8 0 0 0 8-8h-2c0 3.32-2.68 6-6 6a6 6 0 0 1 -6-6 6 6 0 0 1 6-6c.43 0 .86.05 1.27.14l1.61-1.6c-.92-.36-1.88-.54-2.88-.54m6.59 1.58-6.59 6.59-2.38-2.38-1.41 1.42 3.79 3.79 8-8m-17.07.82c-1.85 1.52-2.93 3.79-2.93 6.18a8 8 0 0 0 8 8c.64 0 1.27-.08 1.88-.23-1.76-.39-3.38-1.27-4.71-2.48-1.95-1.04-3.17-3.08-3.17-5.29 0-.3.03-.59.07-.89-.04-.37-.07-.74-.07-1.11 0-1.44.32-2.87.93-4.18z"/></svg>