<svg height="24" viewBox="0 0 24 24" width="24" xmlns="http://www.w3.org/2000/svg"><path d="m11 17.5c0-.83.67-1.5 1.5-1.5.29 0 .56.09.79.23l7.46-4.3c-.4-.71-.85-1.38-1.34-2.03-.12.06-.26.1-.41.1-.55 0-1-.45-1-1 0-.2.08-.38.18-.54-1.73-1.82-3.84-3.26-6.18-4.21-.15.99-1 1.75-2 1.75-1.1 0-2-.89-2-2 0-.28.06-.55.16-.79-.86-.13-1.75-.21-2.66-.21-.17 0-.33 0-.5.03v6.02c1.14.23 2 1.24 2 2.45s-.86 2.22-2 2.45v7.05l6-3.46c0-.01 0-.04 0-.04m3-8.5c1.11 0 2 .9 2 2s-.89 2-2 2-2-.89-2-2 .9-2 2-2m-5 7c-.55 0-1-.45-1-1s.45-1 1-1 1 .45 1 1-.45 1-1 1m0-6c-.55 0-1-.45-1-1s.45-1 1-1 1 .45 1 1-.45 1-1 1z"/></svg>