<svg height="24" viewBox="0 0 24 24" width="24" xmlns="http://www.w3.org/2000/svg"><path d="m11 7.83c-1.17-.41-2-1.53-2-2.83a3 3 0 0 1 3-3 3 3 0 0 1 3 3c0 1.31-.84 2.42-2 2.83v2.81c-.32-.09-.65-.14-1-.14s-.68.05-1 .14zm7.3 13.27c-1.14-.65-1.68-1.92-1.46-3.14l-2.44-1.41c.48-.46.84-1.05 1-1.73l2.44 1.41c.94-.81 2.32-.97 3.45-.32 1.44.83 1.93 2.66 1.1 4.09-.83 1.44-2.66 1.93-4.09 1.1m-15.6-5.2c1.13-.65 2.51-.48 3.45.32l2.45-1.41c.16.69.51 1.27 1 1.73l-2.45 1.41c.23 1.22-.32 2.5-1.45 3.15-1.44.83-3.27.34-4.1-1.1-.83-1.43-.34-3.27 1.1-4.1m11.3-1.9a2 2 0 0 1 -2 2c-1.11 0-2-.9-2-2a2 2 0 0 1 2-2c1.11 0 2 .9 2 2m3 0-.03.57-1.47-.86c-.1-1.07-.67-2-1.5-2.59v-1.71c1.77.78 3 2.54 3 4.59m-2.03 4.03c-.83.61-1.86.97-2.97.97s-2.14-.36-2.97-1l1.47-.83c.46.21.97.33 1.5.33s1.03-.12 1.5-.33zm-7.94-3.47-.03-.56c0-2.05 1.23-3.81 3-4.58v1.71c-.83.58-1.4 1.51-1.5 2.57z"/></svg>