<svg height="24" viewBox="0 0 24 24" width="24" xmlns="http://www.w3.org/2000/svg"><path d="m17.75 9 1.2-.76c.63.34 1.05 1 1.05 1.76v11.75s-8-1.75-8-10.75v-1c0-.73.39-1.37.97-1.72l1.46.72 1.57-1zm-3.75-7c1.53 0 2.8 1.15 3 2.64 1 .29 1.81 1.03 2.22 1.99l-1.47.87-1.75-1-1.57 1-1.67-.83c.39-.95 1.19-1.67 2.18-2.01-.14-.38-.51-.66-.94-.66zm-4 8c0 8 3.63 9.84 6 11.75 0 0-8-1.75-8-10.75v-1c0-.73.39-1.37.97-1.72l1.33.66c-.19.31-.3.67-.3 1.06m.43-2.5-1.67-.83c.39-.95 1.19-1.67 2.18-2.01-.14-.38-.51-.66-.94-.66v-2c.77 0 1.47.29 2 .76v1.24c.43 0 .8.28.94.66-.99.34-1.79 1.06-2.51 2.84m-4.43 2.5c0 8 3.63 9.84 6 11.75 0 0-8-1.75-8-10.75v-1c0-.73.39-1.37.97-1.72l1.33.66c-.19.31-.3.67-.3 1.06m.43-2.5-1.67-.83c.39-.95 1.19-1.67 2.18-2.01-.14-.38-.51-.66-.94-.66v-2c.77 0 1.47.29 2 .76v1.24c.43 0 .8.28.94.66-.99.34-1.79 1.06-2.51 2.84z"/></svg>