<svg height="24" viewBox="0 0 24 24" width="24" xmlns="http://www.w3.org/2000/svg"><path d="m16 10.2h-1.5a2 2 0 0 1 -1.85-2 1.78 1.78 0 0 1 1.85-1.75v-1.45a3.35 3.35 0 1 0 0 6.7h1.5a1.93 1.93 0 0 1 2 2v1.3h1.5v-1.64a3.31 3.31 0 0 0 -3.5-3.16m2.82-2.47a3.34 3.34 0 0 0 -2.32-5.73v1.5a1.85 1.85 0 1 1 0 3.7v1.5a4 4 0 0 1 4 4.07v2.23h1.5v-2.24a5.55 5.55 0 0 0 -3.15-5.03m-.85 8.27v6h1.5v-6m1 0v6h1.5v-6m-10 0v1.27a2 2 0 0 1 0 3.46v1.27h5v-6m-14.12.88a3 3 0 0 0 2.12 5.12h5v-1.27a2 2 0 0 1 0-3.46v-1.27h-5a3 3 0 0 0 -2.12.88m9.12 2.12a1 1 0 1 1 -1-1 1 1 0 0 1 1 1z"/></svg>