<svg height="24" viewBox="0 0 24 24" width="24" xmlns="http://www.w3.org/2000/svg"><path d="m13 11a1 1 0 0 1 1 1 1 1 0 0 1 -1 1 1 1 0 0 1 -1-1 1 1 0 0 1 1-1m-5.14-4.75c1.28-1.38 3.11-2.25 5.14-2.25 3.5 0 6.44 2.61 6.93 6h2.07v2h-6a3 3 0 0 0 -3-3 3 3 0 0 0 -3 3h-8v-2h.05c.2-2.27 1.09-4.34 2.45-6zm-1.13 1.64-1.67-1.12c-.53.98-.88 2.07-1 3.23h2.01c.11-.75.33-1.46.66-2.11m.67 7.51-1.4-1.4h5.79c.24.42.71.7 1.21.7s.97-.28 1.21-.7h5.79v1.4c-1.61-.98-1.54.35-1.54.35v1.96l-1.96 1.96c-.5-1.75-1.4-.77-1.4-.77l-1.4 1.4h-2.8c.98-1.61-.35-1.54-.35-1.54h-1.96l-1.96-1.96c1.75-.49.77-1.4.77-1.4z"/></svg>