<svg height="24" viewBox="0 0 24 24" width="24" xmlns="http://www.w3.org/2000/svg"><path d="m5 4c-.55 0-1 .18-1.41.57-.39.39-.59.87-.59 1.43v12c0 .56.2 1.04.59 1.43.41.39.86.57 1.41.57h14c.5 0 1-.19 1.39-.59.41-.41.61-.88.61-1.41v-12c0-.53-.2-1-.61-1.41-.39-.4-.89-.59-1.39-.59zm-.5 1.5h15v13h-15zm2.5 3.5c-.3 0-.53.09-.72.28s-.28.42-.28.72v4c0 .3.09.53.28.72s.42.28.72.28h3c.27 0 .5-.09.71-.28.2-.19.29-.42.29-.72v-1h-1.5v.5h-2v-3h2v.5h1.5v-1c0-.3-.09-.53-.29-.72-.21-.19-.44-.28-.71-.28zm7 0c-.27 0-.5.09-.71.28-.2.19-.29.42-.29.72v4c0 .3.09.53.29.72.21.19.44.28.71.28h3c.3 0 .53-.09.72-.28s.28-.42.28-.72v-1h-1.5v.5h-2v-3h2v.5h1.5v-1c0-.3-.09-.53-.28-.72s-.42-.28-.72-.28z"/></svg>