<svg height="24" viewBox="0 0 24 24" width="24" xmlns="http://www.w3.org/2000/svg"><path d="m22 17c.5 0 1 .5 1 1v4c0 .5-.5 1-1 1h-5c-.5 0-1-.5-1-1v-4c0-.5.5-1 1-1v-1.5c0-1.4 1.1-2.5 2.5-2.5s2.5 1.1 2.5 2.5zm-1 0v-1.5c0-.8-.7-1.5-1.5-1.5s-1.5.7-1.5 1.5v1.5zm-3.5-6v-.5c0-3.04-2.46-5.5-5.5-5.5-2.5 0-4.63 1.69-5.29 4h-.71c-2.21 0-4 1.79-4 4s1.79 4 4 4h8.17c-.11.31-.17.65-.17 1v1h-8c-3.31 0-6-2.69-6-6 0-3.1 2.34-5.64 5.35-5.96 1.25-2.4 3.76-4.04 6.65-4.04 3.64 0 6.67 2.6 7.36 6.04 2.59.18 4.64 2.32 4.64 4.96l-.06.77c-.35-2.14-2.2-3.77-4.44-3.77z"/></svg>