<svg height="24" viewBox="0 0 24 24" width="24" xmlns="http://www.w3.org/2000/svg"><path d="m15.5 12c2.5 0 4.5 2 4.5 4.5 0 .88-.25 1.71-.69 2.4l3.08 3.1-1.39 1.39-3.12-3.07c-.69.43-1.51.68-2.38.68-2.5 0-4.5-2-4.5-4.5s2-4.5 4.5-4.5m0 2a2.5 2.5 0 0 0 -2.5 2.5 2.5 2.5 0 0 0 2.5 2.5 2.5 2.5 0 0 0 2.5-2.5 2.5 2.5 0 0 0 -2.5-2.5m6.5-1a3 3 0 0 0 -3-3h-1.5v-.5a5.5 5.5 0 0 0 -5.5-5.5c-2.5 0-4.63 1.69-5.29 4h-.71a4 4 0 0 0 -4 4 4 4 0 0 0 4 4h3v.5c0 .5.06 1 .17 1.5h-3.17a6 6 0 0 1 -6-6c0-3.1 2.34-5.64 5.35-5.96 1.25-2.4 3.76-4.04 6.65-4.04 3.64 0 6.67 2.59 7.36 6.04 2.59.18 4.64 2.32 4.64 4.96 0 1.65-.79 3.1-2 4v-.5c0-.73-.12-1.44-.35-2.1.22-.4.35-.9.35-1.4z"/></svg>