<svg height="24" viewBox="0 0 24 24" width="24" xmlns="http://www.w3.org/2000/svg"><path d="m19 12v1.5c2.21 0 4 1.79 4 4 0 .82-.25 1.58-.67 2.21l-1.09-1.09c.17-.34.26-.72.26-1.12 0-1.38-1.12-2.5-2.5-2.5v1.5l-2.25-2.25-.03-.03c.06-.05.13-.09 2.28-2.22m0 11v-1.5c-2.21 0-4-1.79-4-4 0-.82.25-1.58.67-2.21l1.09 1.09c-.17.34-.26.72-.26 1.12 0 1.38 1.12 2.5 2.5 2.5v-1.5l2.25 2.25.03.03c-.06.05-.13.09-2.28 2.22m-6-5.5c0-3.59 2.91-6.5 6.5-6.5 1.28 0 2.47.38 3.5 1-.87-1.1-2.16-1.86-3.65-1.97-.68-3.44-3.71-6.03-7.35-6.03-2.89 0-5.4 1.64-6.65 4.03-3.01.33-5.35 2.87-5.35 5.97 0 3.31 2.69 6 6 6h7.5c-.32-.77-.5-1.61-.5-2.5z"/></svg>