<svg height="24" viewBox="0 0 24 24" width="24" xmlns="http://www.w3.org/2000/svg"><path d="m15.5 12c2.5 0 4.5 2 4.5 4.5 0 .88-.25 1.71-.69 2.4l3.08 3.1-1.39 1.39-3.12-3.07c-.69.43-1.51.68-2.38.68-2.5 0-4.5-2-4.5-4.5s2-4.5 4.5-4.5m0 2a2.5 2.5 0 0 0 -2.5 2.5 2.5 2.5 0 0 0 2.5 2.5 2.5 2.5 0 0 0 2.5-2.5 2.5 2.5 0 0 0 -2.5-2.5m3.85-5.97c2.6.19 4.65 2.33 4.65 4.97 0 1.64-.79 3.1-2 4v-.5a6.5 6.5 0 0 0 -6.5-6.5 6.5 6.5 0 0 0 -6.5 6.5c0 .5.06 1 .17 1.5h-3.17a6 6 0 0 1 -6-6c0-3.1 2.34-5.64 5.35-5.97 1.25-2.39 3.76-4.03 6.65-4.03 3.64 0 6.67 2.59 7.35 6.03z"/></svg>