<svg height="24" viewBox="0 0 24 24" width="24" xmlns="http://www.w3.org/2000/svg"><path d="m6 20a6 6 0 0 1 -6-6c0-3.09 2.34-5.64 5.35-5.96 1.25-2.4 3.76-4.04 6.65-4.04 3.63 0 6.66 2.58 7.35 6 2.6.19 4.65 2.36 4.65 5a5 5 0 0 1 -5 5zm12.5-8h-.5a1 1 0 0 1 -1-1v-1a2 2 0 0 0 -2-2h-1.5v2h1.5v1a2 2 0 0 0 2 2 2 2 0 0 0 -2 2v1h-1.5v2h1.5a2 2 0 0 0 2-2v-1a1 1 0 0 1 1-1h.5zm-13 0v2h.5a1 1 0 0 1 1 1v1a2 2 0 0 0 2 2h1.5v-2h-1.5v-1a2 2 0 0 0 -2-2 2 2 0 0 0 2-2v-1h1.5v-2h-1.5a2 2 0 0 0 -2 2v1a1 1 0 0 1 -1 1z"/></svg>