<svg height="24" viewBox="0 0 24 24" width="24" xmlns="http://www.w3.org/2000/svg"><path d="m19.35 10.03c-.68-3.44-3.71-6.03-7.35-6.03-2.89 0-5.4 1.64-6.65 4.03-3.01.33-5.35 2.87-5.35 5.97a6 6 0 0 0 6 6h13a5 5 0 0 0 5-5c0-2.64-2.05-4.78-4.65-4.97m-6.35 6.97h-2v-2h2zm1.8-5.18c-.3.39-.67.68-1.13.93-.26.16-.43.32-.52.51s-.15.43-.15.74h-2c0-.55.11-.92.3-1.18.2-.26.55-.57 1.07-.91.26-.16.47-.35.63-.59.15-.23.23-.51.23-.82 0-.32-.09-.56-.27-.74-.18-.2-.46-.29-.76-.29-.27 0-.49.08-.7.23-.15.15-.25.38-.25.69h-1.97c-.05-.75.22-1.39.78-1.8.54-.39 1.25-.59 2.14-.59.94 0 1.69.23 2.23.68s.81 1.07.81 1.82c0 .5-.15.91-.44 1.32z"/></svg>