<svg height="24" viewBox="0 0 24 24" width="24" xmlns="http://www.w3.org/2000/svg"><path d="m8.21 12-1.33.89v-1.78zm3.26-2.18v-2.48l-4.16 2.78 1.85 1.24zm5.23.3-4.17-2.78v2.48l2.31 1.54zm-9.39 3.76 4.16 2.78v-2.48l-2.31-1.54zm5.22.3v2.48l4.17-2.78-1.86-1.24zm-.53-3.44-1.88 1.26 1.88 1.26 1.88-1.26zm10 1.26c0 5.5-4.5 10-10 10s-10-4.5-10-10 4.5-10 10-10 10 4.5 10 10m-3.82-1.88c0-.03 0-.05 0-.07l-.01-.05-.01-.05c-.01-.01-.01-.02-.02-.04l-.01-.02-.02-.04-.01-.02-.02-.03-.02-.03-.03-.03-.03-.02v-.02l-.04-.02-.01-.01-5.65-3.76c-.18-.12-.41-.12-.59 0l-5.66 3.76v.01l-.05.02v.02l-.03.02-.03.03-.01.03-.03.03-.01.02-.02.04-.01.02-.02.04v.05h-.01l-.01.05v.07 3.76.07l.01.05h.01v.05c.01.01.01.02.02.04l.01.02.02.04.01.02.02.03.02.03c.01.01.02.02.03.03l.03.02v.02l.04.02.01.01 5.66 3.77c.08.06.19.08.29.08s.21-.03.3-.08l5.65-3.77.01-.01.04-.02v-.02l.03-.02.03-.03.02-.03.02-.03.01-.02.02-.04.01-.02.02-.04v-.05h.01l.01-.05c0-.02 0-.04 0-.07zm-1.06 2.77v-1.78l-1.33.89z"/></svg>