<svg height="24" viewBox="0 0 24 24" width="24" xmlns="http://www.w3.org/2000/svg"><path d="m15 17v-3h3v-2l4 3.5-4 3.5v-2zm2 1v3h-3v2l-4-3.5 4-3.5v2zm-5-10c-2.21 0-4 1.8-4 4 0 1.91 1.35 3.54 3.21 3.92l4.79-4.06c-.07-2.15-1.84-3.86-4-3.86m0 6c-1.1 0-2-.89-2-2s.9-2 2-2 2 .9 2 2-.89 2-2 2m9.66-5.27-2-3.46c-.12-.22-.38-.31-.61-.22l-2.49 1c-.51-.41-1.06-.74-1.69-1l-.37-2.63c-.04-.24-.25-.42-.5-.42h-4c-.25 0-.46.18-.5.42l-.37 2.65c-.63.26-1.17.59-1.69 1l-2.44-1.02c-.23-.09-.5 0-.61.22l-2 3.46c-.13.21-.08.49.11.64l2.07 1.63-.07 1 .07 1-2.11 1.63c-.2.15-.25.43-.12.64l2 3.46c.11.27.4.38.66.27l2.5-1c.24.19.5.37.76.53l1.65-1.4c-.77-.33-1.45-.82-2-1.45l-2.41 1-.77-1.3 2.07-1.58c-.4-1.17-.4-2.43 0-3.6l-2.11-1.55.75-1.3 2.41 1c.78-.9 1.83-1.53 3-1.78l.4-2.57h1.5l.37 2.62c1.17.24 2.22.88 3 1.77l2.41-1 .75 1.3-2.08 1.51c.09.26.16.53.2.8h2l2.1-1.63c.22-.14.28-.42.16-.64m-9.66-.73c-2.21 0-4 1.8-4 4 0 1.91 1.35 3.54 3.21 3.92l4.79-4.06c-.07-2.15-1.84-3.86-4-3.86m0 6c-1.1 0-2-.89-2-2s.9-2 2-2 2 .9 2 2-.89 2-2 2m0-6c-2.21 0-4 1.8-4 4 0 1.91 1.35 3.54 3.21 3.92l4.79-4.06c-.07-2.15-1.84-3.86-4-3.86m0 6c-1.1 0-2-.89-2-2s.9-2 2-2 2 .9 2 2-.89 2-2 2z"/></svg>