<svg height="24" viewBox="0 0 24 24" width="24" xmlns="http://www.w3.org/2000/svg"><path d="m12 3c-4.97 0-9 4.03-9 9s4.03 9 9 9c2 0 3.92-.66 5.5-1.86l-1.44-1.44c-1.19.84-2.61 1.3-4.06 1.3-3.87 0-7-3.13-7-7s3.13-7 7-7 7 3.13 7 7h-3l4 4 4-4h-3c0-4.97-4.03-9-9-9m-4.29 10.16c-.09.07-.12.19-.07.29l.9 1.55c.06.12.18.12.28.12l1.13-.45c.24.16.49.3.75.42l.18 1.19c.02.11.12.19.22.19h1.8c.1.03.21-.06.23-.17l.18-1.18c.27-.12.53-.27.76-.45l1.12.45c.11.04.23-.01.28-.12l.9-1.5c.05-.12.02-.24-.06-.31l-1-.74c.03-.3.03-.6 0-.9l1-.76c.09-.07.11-.18.06-.29l-.9-1.55c-.06-.1-.17-.14-.28-.1l-1.12.45c-.24-.17-.5-.3-.77-.42l-.17-1.19c-.02-.11-.13-.19-.23-.19h-1.76c-.1 0-.19.07-.21.17l-.17 1.18c-.26.12-.53.27-.76.45l-1.15-.42c-.11-.04-.24.01-.29.12l-.91 1.5c-.05.12-.02.24.06.31l1 .74c-.02.15-.02.3 0 .45-.01.15-.01.3 0 .45l-1 .74m4.29.31c-.84 0-1.5-.68-1.5-1.5 0-.83.67-1.5 1.5-1.5s1.5.67 1.5 1.5-.67 1.5-1.5 1.5"/></svg>