<svg height="24" viewBox="0 0 24 24" width="24" xmlns="http://www.w3.org/2000/svg"><path d="m22.11 21.46-19.72-19.73-1.28 1.27 2.89 2.88-1.66 2.85c-.13.22-.07.49.12.64l2.11 1.63-.07 1 .07.97-2.11 1.66c-.19.15-.25.42-.12.64l2 3.46c.12.22.39.3.61.22l2.49-1.01c.52.4 1.06.74 1.69.99l.37 2.65c.04.24.25.42.5.42h4c.25 0 .46-.18.5-.42l.37-2.65c.51-.2.96-.48 1.39-.78l4.58 4.58zm-12.11-9.56 2.1 2.1c-.04 0-.07 0-.1 0-1.1 0-2-.89-2-2 0-.03 0-.06 0-.1m3.13 5.49-.37 2.61h-1.52l-.37-2.62c-1.19-.24-2.24-.88-3.01-1.76l-2.43 1.04-.75-1.3 2.12-1.56c-.4-1.16-.4-2.43 0-3.6l-2.11-1.55.75-1.3.06.02 2.9 2.92c-.25.51-.4 1.09-.4 1.71 0 2.21 1.79 4 4 4 .62 0 1.2-.14 1.71-.4l1.12 1.12c-.52.31-1.09.54-1.7.67m-3.07-10.53-1.51-1.51c.19-.09.38-.2.58-.28l.37-2.65c.04-.24.25-.42.5-.42h4c.25 0 .46.18.5.42l.37 2.65c.63.25 1.17.59 1.69.98l2.49-1c.22-.09.49 0 .61.22l2 3.46c.13.22.07.49-.12.64l-2.11 1.63.07 1-.07 1 2.11 1.63c.19.15.25.42.12.64l-1.16 2.02-1.46-1.45.28-.48-2.12-1.55c.4-1.17.4-2.44 0-3.61l2.11-1.55-.75-1.3-2.41 1.04c-.77-.89-1.83-1.53-3.03-1.77l-.37-2.62h-1.5l-.37 2.61c-.28.06-.56.14-.82.25m1.94 1.14c2.21 0 4 1.79 4 4 0 .25-.03.5-.07.73l-4.66-4.66c.23-.04.48-.07.73-.07z"/></svg>