<svg height="24" viewBox="0 0 24 24" width="24" xmlns="http://www.w3.org/2000/svg"><path d="m22.12 21.46-19.72-19.73-1.28 1.27 2.88 2.87-1.66 2.86c-.13.22-.07.49.12.64l2.11 1.63c-.04.34-.07.67-.07 1s.03.65.07.97l-2.11 1.66c-.19.15-.25.42-.12.64l2 3.46c.12.22.39.3.61.22l2.49-1.01c.52.4 1.06.74 1.69.99l.37 2.65c.04.24.25.42.5.42h4c.25 0 .46-.18.5-.42l.37-2.65c.51-.21.96-.48 1.39-.79l4.59 4.59zm-10.12-5.96c-1.93 0-3.5-1.57-3.5-3.5 0-.5.12-.92.29-1.33l4.54 4.54c-.41.18-.83.29-1.33.29m-.26-6.97-3.18-3.18c.19-.1.37-.2.57-.28l.37-2.65c.04-.24.25-.42.5-.42h4c.25 0 .46.18.5.42l.37 2.65c.63.25 1.17.59 1.69.98l2.49-1c.22-.09.49 0 .61.22l2 3.46c.12.22.07.49-.12.64l-2.11 1.63c.04.34.07.67.07 1s-.03.65-.07.97l2.11 1.66c.19.15.24.42.12.64l-1.16 2.02-5.03-5.03c.03-.08.03-.17.03-.26 0-1.93-1.57-3.5-3.5-3.5-.09 0-.17 0-.26.03z"/></svg>