<svg height="24" viewBox="0 0 24 24" width="24" xmlns="http://www.w3.org/2000/svg"><path d="m4 4h5.5c-.25.64-.41 1.31-.46 2h-5.04v10h6v3.08l3.08-3.08h4.92v-2.77l2 2v.77a2 2 0 0 1 -2 2h-4.1l-3.7 3.71c-.2.19-.45.29-.7.29h-.5a1 1 0 0 1 -1-1v-3h-4a2 2 0 0 1 -2-2v-10c0-1.11.9-2 2-2m11.5-2c2.5 0 4.5 2 4.5 4.5 0 .88-.25 1.7-.69 2.39l3.1 3.11-1.41 1.39-3.11-3.08c-.69.44-1.51.69-2.39.69-2.5 0-4.5-2-4.5-4.5s2-4.5 4.5-4.5m0 2a2.5 2.5 0 0 0 -2.5 2.5 2.5 2.5 0 0 0 2.5 2.5 2.5 2.5 0 0 0 2.5-2.5 2.5 2.5 0 0 0 -2.5-2.5z"/></svg>