<svg height="24" viewBox="0 0 24 24" width="24" xmlns="http://www.w3.org/2000/svg"><path d="m16 6c.56 0 1 .44 1 1s-.44 1-1 1-1-.44-1-1 .44-1 1-1m0-3c2.73 0 5.06 1.66 6 4-.94 2.34-3.27 4-6 4s-5.06-1.66-6-4c.94-2.34 3.27-4 6-4m0 1.5a2.5 2.5 0 0 0 -2.5 2.5 2.5 2.5 0 0 0 2.5 2.5 2.5 2.5 0 0 0 2.5-2.5 2.5 2.5 0 0 0 -2.5-2.5m2 8.25v3.25h-4.92l-3.08 3.08v-3.08h-6v-10h4.27c.32-.73.73-1.4 1.23-2h-5.5a2 2 0 0 0 -2 2v10c0 1.11.9 2 2 2h4v3a1 1 0 0 0 1 1h.5c.25 0 .5-.1.7-.29l3.7-3.71h4.1c1.11 0 2-.89 2-2v-4c-.63.33-1.3.58-2 .75z"/></svg>