<svg height="24" viewBox="0 0 24 24" width="24" xmlns="http://www.w3.org/2000/svg"><path d="m15.5 2c2.5 0 4.5 2 4.5 4.5 0 .88-.25 1.7-.69 2.39l3.1 3.11-1.41 1.39-3.11-3.08c-.69.44-1.51.69-2.39.69-2.5 0-4.5-2-4.5-4.5s2-4.5 4.5-4.5m0 2a2.5 2.5 0 0 0 -2.5 2.5 2.5 2.5 0 0 0 2.5 2.5 2.5 2.5 0 0 0 2.5-2.5 2.5 2.5 0 0 0 -2.5-2.5m-11.5 0h5.5c-.31.79-.5 1.64-.5 2.5a6.5 6.5 0 0 0 6.5 6.5c.68 0 1.33-.11 1.96-.31l2.54 2.54v.77a2 2 0 0 1 -2 2h-4.1l-3.7 3.71c-.2.18-.44.29-.7.29h-.5a1 1 0 0 1 -1-1v-3h-4a2 2 0 0 1 -2-2v-10a2 2 0 0 1 2-2z"/></svg>