<svg height="24" viewBox="0 0 24 24" width="24" xmlns="http://www.w3.org/2000/svg"><path d="m20 12v4c0 1.11-.89 2-2 2h-4.1l-3.7 3.71c-.2.18-.44.29-.7.29h-.5a1 1 0 0 1 -1-1v-3h-4a2 2 0 0 1 -2-2v-10c0-1.11.9-2 2-2h5.5c-.55.67-1 1.42-1.36 2.25l-.29.75.29.75c1.29 3.19 4.36 5.25 7.86 5.25 1.44 0 2.8-.37 4-1m-4-6c.56 0 1 .44 1 1s-.44 1-1 1-1-.44-1-1 .44-1 1-1m0-3c2.73 0 5.06 1.66 6 4-.94 2.34-3.27 4-6 4s-5.06-1.66-6-4c.94-2.34 3.27-4 6-4m0 1.5a2.5 2.5 0 0 0 -2.5 2.5 2.5 2.5 0 0 0 2.5 2.5 2.5 2.5 0 0 0 2.5-2.5 2.5 2.5 0 0 0 -2.5-2.5"/></svg>