<svg height="24" viewBox="0 0 24 24" width="24" xmlns="http://www.w3.org/2000/svg"><path d="m1 3.5 1.28-1.25 19.47 19.47-1.25 1.28-2.8-2.78c-1.62 1.12-3.58 1.78-5.7 1.78a10 10 0 0 1 -10-10c0-2.12.66-4.08 1.78-5.7zm6 13.5 2.39-5.09-4.16-4.17c-.78 1.26-1.23 2.7-1.23 4.26a8 8 0 0 0 8 8c1.56 0 3-.45 4.26-1.23l-4.17-4.16zm10-10-2.38 5.05-2.67-2.67zm-5-5a10 10 0 0 1 10 10c0 2.1-.65 4.06-1.76 5.67l-1.44-1.45c.76-1.22 1.2-2.67 1.2-4.22a8 8 0 0 0 -8-8c-1.55 0-3 .44-4.22 1.2l-1.45-1.44c1.61-1.11 3.57-1.76 5.67-1.76z"/></svg>