<svg height="24" viewBox="0 0 24 24" width="24" xmlns="http://www.w3.org/2000/svg"><path d="m19 3-6 6 2 2 7-7v-1m-10 9.5a.5.5 0 0 1 -.5-.5.5.5 0 0 1 .5-.5.5.5 0 0 1 .5.5.5.5 0 0 1 -.5.5m-6 7.5a2 2 0 0 1 -2-2c0-1.11.9-2 2-2a2 2 0 0 1 2 2c0 1.11-.9 2-2 2m0-12a2 2 0 0 1 -2-2c0-1.11.9-2 2-2a2 2 0 0 1 2 2c0 1.11-.9 2-2 2m3.64-.36c.23-.5.36-1.05.36-1.64a4 4 0 0 0 -4-4 4 4 0 0 0 -4 4 4 4 0 0 0 4 4c.59 0 1.14-.13 1.64-.36l2.36 2.36-2.36 2.36c-.5-.23-1.05-.36-1.64-.36a4 4 0 0 0 -4 4 4 4 0 0 0 4 4 4 4 0 0 0 4-4c0-.59-.13-1.14-.36-1.64l2.36-2.36 7 7h3v-1z"/></svg>