<svg height="24" viewBox="0 0 24 24" width="24" xmlns="http://www.w3.org/2000/svg"><path d="m17.5 7a5.5 5.5 0 0 1 5.5 5.5 5.5 5.5 0 0 1 -5.5 5.5c-1.71 0-3.23-.78-4.24-2h-2.52c-1.01 1.22-2.53 2-4.24 2a5.5 5.5 0 0 1 -5.5-5.5 5.5 5.5 0 0 1 5.5-5.5zm-11 2a3.5 3.5 0 0 0 -3.5 3.5 3.5 3.5 0 0 0 3.5 3.5c1.4 0 2.6-.82 3.16-2h4.68c.56 1.18 1.76 2 3.16 2a3.5 3.5 0 0 0 3.5-3.5 3.5 3.5 0 0 0 -3.5-3.5zm-.75 1.25h1.5v1.5h1.5v1.5h-1.5v1.5h-1.5v-1.5h-1.5v-1.5h1.5zm11 2.25a1 1 0 0 1 1 1 1 1 0 0 1 -1 1 1 1 0 0 1 -1-1 1 1 0 0 1 1-1m2-2a1 1 0 0 1 1 1 1 1 0 0 1 -1 1 1 1 0 0 1 -1-1 1 1 0 0 1 1-1z"/></svg>