<svg height="24" viewBox="0 0 24 24" width="24" xmlns="http://www.w3.org/2000/svg"><path d="m16.79 23c-.42-.17-.72-.55-.79-1-.05-.26 0-.44.4-1.16 1.5-2.7 2.27-5.75 2.23-8.84.04-3-.69-5.93-2.13-8.56-.21-.44-.4-.86-.56-1.31.06-.38.25-.73.56-.94.45-.24 1-.19 1.41.09.28.36.52.72.72 1.14 1.08 2.08 1.81 4.28 2.17 6.58.23 1.81.26 3.65.09 5.47-.31 2.34-1 4.6-2.06 6.71-.64 1.28-1 1.82-1.38 1.82-.08 0-.17 0-.25 0-.14 0-.27 0-.41 0zm-4.36-2.21c-.57-.16-.93-.74-.81-1.32 0-.12.31-.67.59-1.23 1.18-2.27 1.69-4.83 1.46-7.38-.14-1.83-.67-3.61-1.54-5.22-.63-1.26-.67-1.46-.3-2 .44-.49 1.17-.56 1.71-.14.72 1.06 1.29 2.22 1.71 3.44 1.28 3.79 1.08 7.92-.56 11.56-.84 1.89-1.43 2.5-2.26 2.24zm-4.5-2.23c-.36-.16-.63-.48-.73-.86 0-.2 0-.46.45-1.26 1.49-2.7 1.49-5.98 0-8.68-.65-1.26-.65-1.52-.12-2 .19-.22.47-.33.77-.29.64 0 1 .31 1.54 1.44.85 1.56 1.29 3.31 1.28 5.09.04 1.81-.4 3.61-1.27 5.2-.54 1.05-.81 1.3-1.35 1.39-.19.02-.39 0-.57-.09zm-4.21-2.13c-.33-.16-.59-.43-.72-.78-.1-.35 0-.65.4-1.29.5-.68.74-1.52.69-2.36.07-.85-.16-1.69-.65-2.39-.17-.25-.31-.52-.44-.79-.11-.63.31-1.23 1-1.35.54-.1.92.13 1.42.89 1.45 2.21 1.45 5.06 0 7.27-.51.77-1.09 1-1.69.8z"/></svg>