<svg height="24" viewBox="0 0 24 24" width="24" xmlns="http://www.w3.org/2000/svg"><path d="m12 2c-5.5 0-10 4.5-10 10s4.5 10 10 10 10-4.5 10-10-4.5-10-10-10m-3.57 12.44-1.36-.61c.28-.56.43-1.16.43-1.78 0-.66-.15-1.29-.43-1.88l1.36-.61c.38.81.57 1.64.57 2.49 0 .75-.19 1.55-.57 2.39m3.1 1.5-1.31-.65c.53-1.13.78-2.29.78-3.43 0-1.13-.25-2.17-.78-3.15l1.31-.75c.66 1.16.97 2.46.97 3.9 0 1.47-.31 2.83-.97 4.08m3.15 1.41-1.37-.7c.79-1.54 1.19-3.08 1.19-4.65s-.4-3.13-1.19-4.69l1.37-.66c.87 1.78 1.32 3.57 1.32 5.35 0 1.82-.45 3.6-1.32 5.35z"/></svg>