<svg height="24" viewBox="0 0 24 24" width="24" xmlns="http://www.w3.org/2000/svg"><path d="m11.5 1a1.5 1.5 0 0 0 -1.5 1.5v12c-.63.47-1 1.21-1 2a2.5 2.5 0 0 0 2.5 2.5 2.5 2.5 0 0 0 2.5-2.5c0-.79-.37-1.5-1-2v-1.5h4v-2h-4v-2h4v-2h-4v-2h4v-2h-4v-.5a1.5 1.5 0 0 0 -1.5-1.5m-11.5 14v2c.67 0 .79.21 1.29.71s1.38 1.29 2.71 1.29 2.21-.79 2.71-1.29c.11-.12.2-.21.29-.3v-2.25c-.79.26-1.35.77-1.71 1.13-.5.5-.62.71-1.29.71s-.79-.21-1.29-.71-1.38-1.29-2.71-1.29m16 0v2c.67 0 .79.21 1.29.71s1.38 1.29 2.71 1.29 2.21-.79 2.71-1.29.62-.71 1.29-.71v-2c-1.33 0-2.21.79-2.71 1.29s-.62.71-1.29.71-.79-.21-1.29-.71-1.38-1.29-2.71-1.29m-8 5c-1.33 0-2.21.79-2.71 1.29s-.62.71-1.29.71-.79-.21-1.29-.71c-.36-.36-.92-.87-1.71-1.13v2.25c.09.09.18.18.29.3.5.5 1.38 1.29 2.71 1.29s2.21-.79 2.71-1.29.62-.71 1.29-.71.79.21 1.29.71c.44.43 1.15 1.09 2.21 1.25.16.04.33.04.5.04 1.33 0 2.21-.79 2.71-1.29s.62-.71 1.29-.71.79.21 1.29.71 1.38 1.29 2.71 1.29 2.21-.79 2.71-1.29c.11-.12.2-.21.29-.3v-2.25c-.79.26-1.35.77-1.71 1.13-.5.5-.62.71-1.29.71s-.79-.21-1.29-.71-1.38-1.29-2.71-1.29-2.21.79-2.71 1.29-.62.71-1.29.71c-.22 0-.37-.03-.5-.08-.28-.1-.45-.29-.79-.63-.5-.5-1.38-1.29-2.71-1.29z"/></svg>