<svg height="24" viewBox="0 0 24 24" width="24" xmlns="http://www.w3.org/2000/svg"><path d="m10.08 10.86c.05-.33.16-.62.3-.86.12-.26.34-.47.59-.63.24-.15.53-.22.91-.23.23.01.44.05.62.13.21.09.39.23.53.36.14.15.25.33.34.53s.13.42.13.64h1.8c-.02-.47-.11-.9-.3-1.3-.15-.38-.38-.72-.68-1-.32-.28-.66-.5-1.08-.66s-.88-.23-1.39-.23c-.65 0-1.22.11-1.7.34s-.88.55-1.2.92c-.32.39-.56.84-.71 1.36s-.24 1.06-.24 1.64v.27c0 .58.08 1.12.23 1.64s.39.97.71 1.35c.32.37.72.69 1.2.91s1.05.34 1.7.34c.47 0 .91-.08 1.32-.23s.77-.36 1.08-.65c.31-.25.56-.56.76-.92.16-.36.27-.74.28-1.15h-1.78c0 .21-.07.4-.16.57-.09.19-.21.34-.34.47-.17.13-.34.23-.54.3-.19.07-.39.09-.6.1-.36-.01-.66-.08-.89-.23-.25-.14-.47-.37-.59-.64-.14-.23-.25-.53-.3-.86s-.08-.67-.08-1v-.27c0-.37.03-.68.08-1.01m1.92-8.86a10 10 0 0 0 -10 10 10 10 0 0 0 10 10 10 10 0 0 0 10-10 10 10 0 0 0 -10-10m0 18c-4.41 0-8-3.59-8-8s3.59-8 8-8 8 3.59 8 8-3.59 8-8 8z"/></svg>