<svg height="24" viewBox="0 0 24 24" width="24" xmlns="http://www.w3.org/2000/svg"><path d="m22.1 21.5-19.7-19.8-1.3 1.3 6.1 6.1c-.1.6-.2 1.2-.2 1.9-1.5-.6-3.2-1-5-1 5.9 2.6 4 12 10 12 2.5 0 3.7-1.5 4.6-3.5l4.3 4.3zm-14-11.5 1 1h-1.1zm.7 2h1.3l.9.9v.8c-.7-.6-1.4-1.2-2.2-1.7m5.5 7.2c-.2-1.2-.9-2.8-2.1-4.2h.9l2.1 2.1c-.2.8-.5 1.5-.9 2.1m-3.3-13.2v1.8l1.2 1.2h1.8v-1h-2v-2h1v-1h-1v-2c2.1 0 3.9 4 4 8.8v1l2 2c.8-2 1.9-3.9 4-4.8-1.8 0-3.5.4-5 1.1-.2-5.2-2.3-9.1-5-9.1-1.5 0-2.8 1.2-3.7 3.1l.9.9zm0-2.7v1.7h-1.5c.5-.8 1-1.4 1.5-1.7m4 8.5-.8-.8h.8z"/></svg>