<svg height="24" viewBox="0 0 24 24" width="24" xmlns="http://www.w3.org/2000/svg"><path d="m4 4h16a2 2 0 0 1 2 2v12a2 2 0 0 1 -2 2h-16a2 2 0 0 1 -2-2v-12a2 2 0 0 1 2-2m0 2v12h7v-12zm16 12v-12h-1.24c.24.54.19 1.07.19 1.13-.07.67-.54 1.37-.71 1.62l-2.33 2.55 3.32-.02.01 1.22-5.2-.03-.04-1s3.05-3.23 3.2-3.52c.14-.28.71-1.95-.7-1.95-1.23.05-1.09 1.3-1.09 1.3l-1.54.01s.01-.66.38-1.31h-1.25v12h2.58l-.01-.86.97-.01s.91-.16.92-1.05c.04-1-.81-1-.96-1-.13 0-1.07.05-1.07.87h-1.52s.04-2.06 2.59-2.06c2.6 0 2.46 2.02 2.46 2.02s.04 1.25-1.11 1.72l.52.37zm-11.08-2h-1.5v-5.8l-1.8.56v-1.23l3.14-1.12h.16z"/></svg>