<svg height="24" viewBox="0 0 24 24" width="24" xmlns="http://www.w3.org/2000/svg"><path d="m10.5 18a.5.5 0 0 1 .5.5.5.5 0 0 1 -.5.5.5.5 0 0 1 -.5-.5.5.5 0 0 1 .5-.5m3 0a.5.5 0 0 1 .5.5.5.5 0 0 1 -.5.5.5.5 0 0 1 -.5-.5.5.5 0 0 1 .5-.5m-3.5-7a1 1 0 0 1 1 1 1 1 0 0 1 -1 1 1 1 0 0 1 -1-1 1 1 0 0 1 1-1m4 0a1 1 0 0 1 1 1 1 1 0 0 1 -1 1 1 1 0 0 1 -1-1 1 1 0 0 1 1-1m4 7c0 2.21-2.69 4-6 4s-6-1.79-6-4c0-.9.45-1.73 1.2-2.4-.75-1-1.2-2.25-1.2-3.6l.12-1.22c-.54.15-1.19.15-1.72 0-1.02-.28-2.56-1.43-2.33-2.23s2.14-.95 3.16-.65c.59.17 1.22.6 1.59 1.06l.57-.81c-.6-1.1-.39-4.15 2.61-5.15l-.09.14c-.28.44-1 1.83-.24 3.33.72-.3 1.5-.47 2.33-.47s1.61.17 2.33.47c.76-1.5.04-2.89-.24-3.33l-.09-.14c3 1 3.21 4.05 2.61 5.15l.57.81c.37-.46 1-.89 1.59-1.06 1.02-.3 2.93-.15 3.16.65s-1.31 1.95-2.33 2.23c-.53.15-1.18.15-1.72 0l.12 1.22c0 1.35-.45 2.6-1.2 3.6.75.67 1.2 1.5 1.2 2.4m-6-2c-2.21 0-4 .9-4 2s1.79 2 4 2 4-.9 4-2-1.79-2-4-2m0-2c1.12 0 2.17.21 3.07.56.58-.69.93-1.56.93-2.56a4 4 0 0 0 -4-4 4 4 0 0 0 -4 4c0 1 .35 1.87.93 2.56.9-.35 1.95-.56 3.07-.56"/></svg>