<svg height="24" viewBox="0 0 24 24" width="24" xmlns="http://www.w3.org/2000/svg"><path d="m20 6v-1a1 1 0 0 0 -1-1h-10v-1h-3v1h-1v2h1v9h-1v-2h-2v2h-1v2h1v4h2v-4h5v4h2v-1.08-2.92h1v-2h-1v-2h-2v2h-1v-9h8v4.62c-.47.17-.81.61-.81 1.14 0 .44.24.84.61 1.06v1.18h.62c.34 0 .61.28.61.62s-.27.62-.61.62c-.22 0-.42-.12-.53-.31-.18-.29-.55-.39-.84-.22-.3.16-.4.54-.23.84.33.56.94.92 1.6.92 1.01 0 1.84-.83 1.84-1.85 0-.78-.5-1.48-1.23-1.74v-.06c.38-.22.62-.62.62-1.06 0-.46-.27-.85-.65-1.06v-4.7zm-12 7.66-1 1v-1.42l1-1zm0-2.95-1 1v-1.42l1-1zm-1-2v-1.42l1-1v1.42z"/></svg>