<svg height="24" viewBox="0 0 24 24" width="24" xmlns="http://www.w3.org/2000/svg"><path d="m20.94 11c-.44-4.17-3.77-7.5-7.94-7.94v-2.06h-2v2.06c-1.13.12-2.19.44-3.16.97l1.5 1.5c.82-.34 1.72-.53 2.66-.53 3.87 0 7 3.13 7 7 0 .94-.19 1.84-.5 2.65l1.5 1.5c.5-.96.82-2.02.95-3.15h2.05v-2zm-17.94-6.73 2.04 2.04c-1.07 1.31-1.79 2.92-1.98 4.69h-2.06v2h2.06c.44 4.17 3.77 7.5 7.94 7.94v2.06h2v-2.06c1.77-.2 3.38-.91 4.69-1.98l2.04 2.04 1.27-1.27-16.73-16.73zm13.27 13.27c-1.18.91-2.66 1.46-4.27 1.46-3.87 0-7-3.13-7-7 0-1.61.55-3.09 1.46-4.27z"/></svg>