<svg height="24" viewBox="0 0 24 24" width="24" xmlns="http://www.w3.org/2000/svg"><path d="m3.05 13h-2.05v-2h2.05c.45-4.17 3.78-7.5 7.95-7.95v-2.05h2v2.05c4.17.45 7.5 3.78 7.95 7.95h2.05v2h-2.05c-.45 4.17-3.78 7.5-7.95 7.95v2.05h-2v-2.05c-4.17-.45-7.5-3.78-7.95-7.95m8.95-8c-3.87 0-7 3.13-7 7s3.13 7 7 7 7-3.13 7-7-3.13-7-7-7m-.87 12.25h1.75v-1.75h-1.75zm.87-10.5c-1.93 0-3.5 1.57-3.5 3.5h1.75c0-.97.78-1.75 1.75-1.75s1.75.78 1.75 1.75c0 1.75-2.62 1.53-2.62 4.38h1.75c0-1.97 2.62-2.19 2.62-4.38 0-1.93-1.57-3.5-3.5-3.5z"/></svg>