<svg height="24" viewBox="0 0 24 24" width="24" xmlns="http://www.w3.org/2000/svg"><path d="m9.38 8.38 2.12.96 2.12-.96-.96 2.12.96 2.12-2.12-.96-2.12.96.96-2.12zm7.12-5.88 1.09 2.91 2.91 1.09-2.91 1.09-1.09 2.91-1.09-2.91-2.91-1.09 2.91-1.09zm-10.5 16.5h1v-1a1 1 0 0 1 1-1h.26c-2.26-1.3-3.76-3.72-3.76-6.5a7.5 7.5 0 0 1 7.5-7.5c1.05 0 2.05.22 2.96.61l-.37.98-1.42.53c-.38-.08-.77-.12-1.17-.12a5.5 5.5 0 0 0 -5.5 5.5 5.5 5.5 0 0 0 5.5 5.5c2.91 0 5.3-2.27 5.5-5.13l.91-2.46.71-.27c.25.74.38 1.54.38 2.36 0 2.78-1.5 5.2-3.76 6.5h.26a1 1 0 0 1 1 1v1h1a2 2 0 0 1 2 2v1h-16v-1a2 2 0 0 1 2-2z"/></svg>