<svg height="24" viewBox="0 0 24 24" width="24" xmlns="http://www.w3.org/2000/svg"><path d="m17 22v-2h3v-3h2v3.5c0 .39-.16.74-.46 1.04s-.65.46-1.04.46zm-10 0h-3.5c-.39 0-.74-.16-1.04-.46s-.46-.65-.46-1.04v-3.5h2v3h3zm10-20h3.5c.39 0 .74.16 1.04.46s.46.65.46 1.04v3.5h-2v-3h-3zm-10 0v2h-3v3h-2v-3.5c0-.39.16-.74.46-1.04s.65-.46 1.04-.46zm6 15.25 4-2.3v-4.59l-4 2.3zm-1-6.33 4-2.29-4-2.35-4 2.35zm-5 4.03 4 2.3v-4.59l-4-2.3zm11.23-7.36c.5.32.77.75.77 1.32v6.32c0 .57-.27 1-.77 1.32l-5.48 3.18c-.5.32-1 .32-1.5 0l-5.48-3.18c-.5-.32-.77-.75-.77-1.32v-6.32c0-.57.27-1 .77-1.32l5.48-3.18c.25-.13.5-.19.75-.19s.5.06.75.19z"/></svg>