<svg height="24" viewBox="0 0 24 24" width="24" xmlns="http://www.w3.org/2000/svg"><path d="m12 15h2c0 1.08 1.37 2 3 2s3-.92 3-2c0-1.1-1.04-1.5-3.24-2.03-2.12-.53-4.76-1.19-4.76-3.97 0-1.79 1.47-3.31 3.5-3.82v-2.18h3v2.18c2.03.51 3.5 2.03 3.5 3.82h-2c0-1.08-1.37-2-3-2s-3 .92-3 2c0 1.1 1.04 1.5 3.24 2.03 2.12.53 4.76 1.19 4.76 3.97 0 1.79-1.47 3.31-3.5 3.82v2.18h-3v-2.18c-2.03-.51-3.5-2.03-3.5-3.82m-10-12h3.5a5.5 5.5 0 0 1 5.5 5.5c0 2.19-1.29 4.09-3.14 4.97l3.78 7.53h-2.24l-3.52-7h-.38-1.5v7h-2zm3.5 9a3.5 3.5 0 0 0 3.5-3.5 3.5 3.5 0 0 0 -3.5-3.5h-1.5v7z"/></svg>