<svg height="24" viewBox="0 0 24 24" width="24" xmlns="http://www.w3.org/2000/svg"><path d="m22.11 21.46-19.72-19.73-1.28 1.27 4.89 4.89c-.19.36-.36.73-.5 1.11h-2.5l-1 2h3.05l-.05 1 .05 1h-2.05l-1 2h3.5c1.25 3.5 4.58 6 8.5 6 1.5 0 2.89-.35 4.12-1l2.72 2.73zm-15.11-9.46.07-1h2.05l2 2h-4.05zm7 7c-2.79 0-5.2-1.63-6.33-4h5.45l3.48 3.5c-.81.31-1.68.5-2.6.5m3-5.19-.79-.81h1.14zm1.19-2.81h-3.98l-2-2h6.83zm-8.49-4.5-1.43-1.43c1.56-1.29 3.55-2.07 5.73-2.07 2.5 0 4.8 1.05 6.43 2.72l-.86 2.04c-1.28-1.67-3.3-2.76-5.57-2.76-1.62 0-3.11.58-4.3 1.5z"/></svg>