<svg height="24" viewBox="0 0 24 24" width="24" xmlns="http://www.w3.org/2000/svg"><path d="m19 12v1.5a4 4 0 0 1 4 4c0 .82-.25 1.58-.67 2.21l-1.09-1.09c.17-.34.26-.72.26-1.12a2.5 2.5 0 0 0 -2.5-2.5v1.5l-2.25-2.25zm0 11v-1.5a4 4 0 0 1 -4-4c0-.82.25-1.58.67-2.21l1.09 1.09c-.17.34-.26.72-.26 1.12a2.5 2.5 0 0 0 2.5 2.5v-1.5l2.25 2.25zm-7-20c4.42 0 8 1.79 8 4s-3.58 4-8 4-8-1.79-8-4 3.58-4 8-4m-8 6c0 2.21 3.58 4 8 4 1.11 0 2.17-.11 3.14-.32-.95.86-1.64 1.99-1.96 3.28l-1.18.04c-4.42 0-8-1.79-8-4zm16 0v2h-.5l-.6.03c.7-.6 1.1-1.29 1.1-2.03m-16 5c0 2.21 3.58 4 8 4l1-.03c.09 1.06.42 2.03.95 2.91l-1.95.12c-4.42 0-8-1.79-8-4z"/></svg>