<svg height="24" viewBox="0 0 24 24" width="24" xmlns="http://www.w3.org/2000/svg"><path d="m18.68 12.32c-1.76-1.76-4.61-1.75-6.36.01-1.76 1.76-1.76 4.61 0 6.36 1.49 1.48 3.79 1.74 5.57.63l3.11 3.07 1.39-1.39-3.09-3.11c1.13-1.77.87-4.09-.62-5.57m-1.41 4.95c-.98.98-2.56.97-3.54 0-.97-.98-.97-2.56.01-3.54.97-.97 2.55-.97 3.53 0 .97.98.97 2.56 0 3.54m-6.37 2.83c-.65-.66-1.16-1.45-1.48-2.32-3.15-.53-5.42-2.02-5.42-3.78v3c0 2.21 3.58 4 8 4-.4-.26-.77-.56-1.1-.9m-6.9-11.1v3c0 1.68 2.07 3.12 5 3.7 0-.07 0-.13 0-.2 0-.93.2-1.85.58-2.69-3.24-.51-5.58-2.02-5.58-3.81m8-6c-4.42 0-8 1.79-8 4 0 2 3 3.68 6.85 4h.05c1.2-1.26 2.86-2 4.6-2 .91 0 1.81.19 2.64.56 1.03-.47 1.73-1.44 1.86-2.56 0-2.21-3.58-4-8-4z"/></svg>