<svg height="24" viewBox="0 0 24 24" width="24" xmlns="http://www.w3.org/2000/svg"><path d="m12 3c4.42 0 8 1.79 8 4s-3.58 4-8 4-8-1.79-8-4 3.58-4 8-4m-8 6c0 2.21 3.58 4 8 4 1.11 0 2.18-.11 3.14-.32-.95.86-1.64 1.99-1.96 3.28l-1.18.04c-4.42 0-8-1.79-8-4zm16 0v2h-.5l-.6.03c.7-.6 1.1-1.29 1.1-2.03m-16 5c0 2.21 3.58 4 8 4l1-.03c.09 1.06.42 2.03.95 2.91l-1.95.12c-4.42 0-8-1.79-8-4zm15-.5c1.11 0 2.11.45 2.83 1.17l1.17-1.17v4h-4l1.77-1.77c-.45-.45-1.08-.73-1.77-.73-1.38 0-2.5 1.12-2.5 2.5s1.12 2.5 2.5 2.5c.82 0 1.54-.39 2-1h1.71c-.59 1.47-2.03 2.5-3.71 2.5-2.21 0-4-1.79-4-4s1.79-4 4-4z"/></svg>