<svg height="24" viewBox="0 0 24 24" width="24" xmlns="http://www.w3.org/2000/svg"><path d="m19.78 3h-8.56c-.67 0-1.22.55-1.22 1.22v3.78h6v6h3.78c.67 0 1.22-.55 1.22-1.22v-8.56c0-.67-.55-1.22-1.22-1.22m-7.34 3.67c-.68 0-1.23-.55-1.23-1.23s.55-1.23 1.23-1.23a1.23 1.23 0 0 1 1.23 1.23c0 .68-.55 1.23-1.23 1.23m6.12 6.11c-.68.01-1.23-.54-1.24-1.22s.54-1.23 1.22-1.24 1.23.54 1.24 1.24c-.01.67-.55 1.21-1.22 1.22m0-6.11c-.68.01-1.23-.54-1.24-1.22s.54-1.23 1.22-1.24 1.23.54 1.24 1.23c0 .68-.54 1.22-1.22 1.23m-14.34 3.33h8.56a1.22 1.22 0 0 1 1.22 1.22v8.56c0 .67-.55 1.22-1.22 1.22h-8.56c-.67 0-1.22-.55-1.22-1.22v-8.56c0-.67.55-1.22 1.22-1.22m4.28 4.28c-.67 0-1.22.55-1.22 1.22s.55 1.22 1.22 1.22 1.22-.55 1.22-1.22a1.22 1.22 0 0 0 -1.22-1.22m-3.06-3.06c-.67 0-1.22.55-1.22 1.22a1.22 1.22 0 0 0 1.22 1.22c.67 0 1.22-.55 1.22-1.22 0-.67-.55-1.22-1.22-1.22m6.11 6.11c-.67 0-1.22.55-1.22 1.22s.55 1.22 1.22 1.22a1.22 1.22 0 0 0 1.22-1.22c0-.67-.54-1.21-1.21-1.22z"/></svg>