<svg height="24" viewBox="0 0 24 24" width="24" xmlns="http://www.w3.org/2000/svg"><path d="m14 8c-.55 0-1-.45-1-1s.45-1 1-1 1 .45 1 1-.45 1-1 1m-2 4v7h-7v-7zm.78-2h-8.56c-.67 0-1.22.55-1.22 1.22v8.56c0 .67.55 1.22 1.22 1.22h8.56c.67 0 1.22-.55 1.22-1.22v-8.56c0-.67-.55-1.22-1.22-1.22m7-7h-8.56c-.67 0-1.22.55-1.22 1.22v3.78h2v-3h7v7h-3v2h3.78c.67 0 1.22-.55 1.22-1.22v-8.56c0-.67-.55-1.22-1.22-1.22m-2.78 5c-.55 0-1-.45-1-1s.45-1 1-1 1 .45 1 1-.45 1-1 1m0 3c-.55 0-1-.45-1-1s.45-1 1-1 1 .45 1 1-.45 1-1 1m-10 4c-.55 0-1-.45-1-1s.45-1 1-1 1 .45 1 1-.45 1-1 1m3 3c-.55 0-1-.45-1-1s.45-1 1-1 1 .45 1 1-.45 1-1 1"/></svg>