<svg height="24" viewBox="0 0 24 24" width="24" xmlns="http://www.w3.org/2000/svg"><path d="m21.5 10.8c.6.7.6 1.7 0 2.4l-8.3 8.3c-.7.7-1.7.7-2.4 0l-8.3-8.3c-.7-.7-.7-1.7 0-2.4l8.3-8.3c.7-.7 1.7-.7 2.4 0zm-1.2 1.2-8.3-8.3-8.3 8.3 8.3 8.3zm-9.92 3.79h-1.5v-5.79l-1.8.55v-1.23l3.14-1.12h.16zm3.55-7.79a2.57 2.57 0 0 1 2.57 2.57v2.64c0 1.42-1.15 2.57-2.57 2.57-1.43 0-2.57-1.15-2.57-2.57v-2.64a2.57 2.57 0 0 1 2.57-2.57m-.01 1.44a1.06 1.06 0 0 0 -1.06 1.06v2.77a1.06 1.06 0 0 0 1.06 1.06c.58 0 1.08-.48 1.08-1.06v-2.77c0-.59-.5-1.06-1.08-1.06z"/></svg>