<svg height="24" viewBox="0 0 24 24" width="24" xmlns="http://www.w3.org/2000/svg"><path d="m16 2h-12c-1.1 0-2 .9-2 2v16c0 1.11.9 2 2 2h12c1.11 0 2-.89 2-2v-16c0-1.1-.89-2-2-2m-8 2c.55 0 1 .45 1 1s-.45 1-1 1-1-.45-1-1 .45-1 1-1m-3 0c.55 0 1 .45 1 1s-.45 1-1 1-1-.45-1-1 .45-1 1-1m11 16h-12v-12h12zm-3.33-4.67c.02.7-.26 1.38-.76 1.88-1.05 1.05-2.76 1.06-3.82 0-.5-.5-.78-1.18-.76-1.88.07-.71.3-1.39.67-2 .37-.83.81-1.6 1.33-2.33l.67-1c1.79 2.59 2.67 4.36 2.67 5.33m7.33-.33h2v2h-2zm0-8h2v6h-2z"/></svg>