<svg height="24" viewBox="0 0 24 24" width="24" xmlns="http://www.w3.org/2000/svg"><path d="m16 12a4 4 0 0 1 -4 4 4 4 0 0 1 -4-4 4 4 0 0 1 4-4 4 4 0 0 1 4 4m3.45-4.11-1.38.69.25.42h1.68v6h-1.67c-.49 1.03-1.22 1.92-2.12 2.6 1.64.51 2.89 1.31 3.46 2.26-.98 1.24-4.05 2.14-7.67 2.14s-6.69-.9-7.67-2.14c.57-.95 1.82-1.75 3.46-2.26-.9-.68-1.63-1.57-2.12-2.6h-1.67v-6h1.68c.69-1.46 1.86-2.63 3.32-3.32v-1.68h6v1.68c.68.32 1.29.78 1.82 1.32l1.73-.86c1.38-.72 1.45-2.04 1.45-4.14h2c0 2.06 0 4.62-2.55 5.89m-2.45 4.11a5 5 0 0 0 -5-5 5 5 0 0 0 -5 5 5 5 0 0 0 5 5 5 5 0 0 0 5-5z"/></svg>