<svg height="24" viewBox="0 0 24 24" width="24" xmlns="http://www.w3.org/2000/svg"><path d="m12 15c1.31 0 2.42.83 2.83 2h3.17a4 4 0 0 1 4 4v1h-2v-1a2 2 0 0 0 -2-2h-3.17c-.41 1.17-1.52 2-2.83 2a3 3 0 0 1 -3-3 3 3 0 0 1 3-3m0 2a1 1 0 0 0 -1 1 1 1 0 0 0 1 1 1 1 0 0 0 1-1 1 1 0 0 0 -1-1m6-14a2 2 0 0 1 2 2v5a2 2 0 0 1 -2 2h-3.15c-.42 0-.8.24-.95.63-.2.6-.67 1.08-1.28 1.28-1.04.34-2.18-.23-2.52-1.28-.15-.39-.53-.63-.95-.63h-3.15a2 2 0 0 1 -2-2v-5a2 2 0 0 1 2-2zm0 7v-5h-12v5h4.65c.25-.54.76-.91 1.35-1 .59.09 1.1.46 1.35 1z"/></svg>