<svg height="24" viewBox="0 0 24 24" width="24" xmlns="http://www.w3.org/2000/svg"><path d="m20.28 3.66c-1-.22-1.74-1.41-2.71-1.62s-2.17.55-3.15.33c-1.04-.37-2.2-.24-3.14.34l-.07 14.29-.21 1c-.36 1.62.67 3.22 2.29 3.58 1.61.35 3.21-.67 3.57-2.29l.21-1 5.93-13.01c-.61-.93-1.61-1.52-2.72-1.62m-5.37 15.2c-.12.55-.66.9-1.21.79-.56-.12-.91-.65-.79-1.22l.86-3.93c.09-.53.6-.9 1.15-.81.54.09.91.61.82 1.15 0 .04-.01.07-.02.11zm-5.19 2.48c-.39-.61-.64-1.29-.72-2l-.76-3.34c-.14-.53.17-1.08.76-1.24.07-.01.15-.01.22 0v-11.33c-.91 0-2-.57-2.84-.37s-1.69 1.38-2.66 1.6c-1.11.1-2.11.69-2.72 1.62l5.93 13 .21 1c.36 1.62 1.95 2.64 3.57 2.29h.1c-.43-.35-.81-.76-1.09-1.23z"/></svg>