<svg height="24" viewBox="0 0 24 24" width="24" xmlns="http://www.w3.org/2000/svg"><path d="m4 2h2v2c0 1.44.68 2.61 1.88 3.78.86.83 2.01 1.63 3.21 2.42l-1.83 1.19c-.99-.67-1.95-1.39-2.76-2.18-1.43-1.39-2.5-3.11-2.5-5.21zm14 0h2v2c0 2.1-1.07 3.82-2.5 5.21-1.41 1.38-3.21 2.52-4.96 3.63-1.75 1.12-3.45 2.21-4.66 3.38-1.2 1.17-1.88 2.34-1.88 3.78v2h-2v-2c0-2.1 1.07-3.82 2.5-5.21 1.41-1.38 3.21-2.52 4.96-3.63 1.75-1.12 3.45-2.21 4.66-3.38 1.2-1.17 1.88-2.34 1.88-3.78zm-3.26 10.61c.99.67 1.95 1.39 2.76 2.18 1.43 1.39 2.5 3.11 2.5 5.21v2h-2v-2c0-1.44-.68-2.61-1.88-3.78-.86-.83-2.01-1.63-3.21-2.42zm-7.74-9.61h10v1l-.06.5h-9.88l-.06-.5zm.68 3h8.64c-.24.34-.52.69-.9 1.06l-.51.44h-5.84l-.49-.44c-.38-.37-.66-.72-.9-1.06m1.41 10.5h5.84l.49.44c.38.37.66.72.9 1.06h-8.64c.24-.34.52-.69.9-1.06zm-2.03 3h9.88l.06.5v1h-10v-1z"/></svg>