<svg height="24" viewBox="0 0 24 24" width="24" xmlns="http://www.w3.org/2000/svg"><path d="m11.97 19.88c-1.04.38-2.19-.16-2.57-1.19-.4-1.04.15-2.19 1.19-2.56 1.04-.38 2.19.15 2.57 1.18.38 1.04-.16 2.19-1.19 2.57m-2.07-5.63c-2.07.75-3.14 3.05-2.4 5.13.78 2.07 3.08 3.12 5.16 2.37 2.07-.75 3.13-3.05 2.38-5.12-.76-2.08-3.07-3.13-5.14-2.38m6.04-9.67-6.57 2.42 1.38 3.74 6.57-2.41m3 5.29-4.78 1.75c.17.29.31.59.43.91s.2.65.25.97l4.78-1.75m-1.46-6.92-8.45 3.1.49 1.32c1.25.09 2.42.64 3.31 1.55l6.03-2.21m-18.92-10.34v2h3.09l3.57 9.75c.28-.18.58-.32.9-.44s.65-.2.97-.25l-4.03-11.06"/></svg>