<svg height="24" viewBox="0 0 24 24" width="24" xmlns="http://www.w3.org/2000/svg"><path d="m15.83 9.81c-1.13-.11-2.14.57-2.37 1.69 0 .34 1.35.79 2.59.79s2.36-.79 2.36-1.01c0-.23-.78-1.35-2.58-1.47m-7.65 0c-1.8.12-2.59 1.13-2.59 1.46 0 .23 1.23 1.02 2.36 1.02s2.59-.45 2.59-.79c-.23-1.12-1.35-1.8-2.36-1.69m8.77 6.19c-1.91 0-3.15-2.25-4.95-2.25s-3.15 2.25-4.95 2.25c-2.36 0-4.05-2.14-4.05-5.96 0-2.36.68-3.04 3.71-3.04s3.83 1.24 5.29 1.24 2.36-1.24 5.29-1.24 3.71.79 3.71 3.04c0 3.82-1.69 5.96-4.05 5.96z"/></svg>