<svg height="24" viewBox="0 0 24 24" width="24" xmlns="http://www.w3.org/2000/svg"><path d="m8.11 19.45c-2.17-.8-3.89-2.67-4.4-5.1l-1.66-7.81c-.24-1.08.45-2.14 1.53-2.37l9.77-2.07.03-.01c1.07-.21 2.12.48 2.34 1.54l.35 1.67 4.35.93h.03c1.05.24 1.73 1.3 1.51 2.36l-1.66 7.82c-.8 3.77-4.52 6.19-8.3 5.38-1.58-.33-2.92-1.18-3.89-2.34zm11.89-11.27-9.77-2.08-1.66 7.82v.03c-.57 2.68 1.16 5.32 3.85 5.89s5.35-1.15 5.92-3.84zm-4 8.32c-.63 1.07-1.89 1.66-3.17 1.39-1.27-.27-2.18-1.32-2.33-2.55zm-7.53-11.33-4.47.96 1.66 7.81.01.03c.15.71.45 1.35.86 1.9-.1-.77-.08-1.57.09-2.37l.43-2c-.45-.08-.84-.33-1.05-.69.06-.61.56-1.15 1.25-1.31h.25l.78-3.81c.04-.19.1-.36.19-.52m6.56 7.06c.32-.53 1-.81 1.69-.66.69.14 1.19.67 1.28 1.29-.33.52-1 .8-1.7.64-.69-.13-1.19-.66-1.27-1.27m-4.88-1.04c.32-.53.99-.81 1.68-.66.67.14 1.2.68 1.28 1.29-.33.52-1 .81-1.69.68-.69-.17-1.19-.7-1.27-1.31m1.82-6.76 1.96.42-.16-.8z"/></svg>