<svg height="24" viewBox="0 0 24 24" width="24" xmlns="http://www.w3.org/2000/svg"><path d="m9.75 20.85c1.78-.7 1.39-2.63.49-3.85-.89-1.25-2.12-2.11-3.36-2.94-.88-.56-1.69-1.26-2.34-2.06-.28-.33-.85-.94-.27-1.06.59-.12 1.61.46 2.13.68.91.38 1.81.82 2.65 1.34l1.01-1.7c-1.56-1.03-3.56-1.94-5.42-2.21-1.06-.16-2.18.06-2.54 1.21-.32.99.19 1.99.77 2.77 1.37 1.83 3.5 2.71 5.09 4.29.34.33.75.72.95 1.18.21.44.16.47-.31.47-1.24 0-2.79-.97-3.8-1.61l-1.01 1.7c1.53.94 4.09 2.41 5.96 1.79m11.09-15.6c.22-.22.22-.58 0-.79l-1.3-1.3c-.21-.21-.57-.21-.78 0l-1.02 1.02 2.08 2.08m-8.82 4.66v2.08h2.08l6.15-6.15-2.08-2.08z"/></svg>