<svg height="24" viewBox="0 0 24 24" width="24" xmlns="http://www.w3.org/2000/svg"><path d="m17 20c-.29 0-.56-.06-.76-.15-.71-.35-1.21-.88-1.71-2.38-.53-1.56-1.47-2.29-2.39-3-.79-.61-1.61-1.24-2.32-2.53-.53-.94-.82-2.01-.82-2.94 0-2.8 2.2-5 5-5s5 2.2 5 5h2c0-3.93-3.07-7-7-7s-7 3.07-7 7c0 1.26.38 2.65 1.07 3.9.93 1.65 1.98 2.48 2.85 3.15.81.62 1.39 1.07 1.71 2.05.6 1.82 1.37 2.84 2.73 3.55.51.23 1.07.35 1.64.35a4 4 0 0 0 4-4h-2a2 2 0 0 1 -2 2m-9.36-17.36-1.42-1.42c-1.99 1.99-3.22 4.74-3.22 7.78s1.23 5.79 3.22 7.78l1.41-1.41c-1.63-1.63-2.63-3.87-2.63-6.37s1-4.74 2.64-6.36m3.86 6.36a2.5 2.5 0 0 0 2.5 2.5 2.5 2.5 0 0 0 2.5-2.5 2.5 2.5 0 0 0 -2.5-2.5 2.5 2.5 0 0 0 -2.5 2.5z"/></svg>