<svg height="24" viewBox="0 0 24 24" width="24" xmlns="http://www.w3.org/2000/svg"><path d="m1 4.27 1.28-1.27 17.72 17.72-1.27 1.28-5.82-5.82c-.72.56-1.24 1.01-1.54 1.92-.6 1.82-1.37 2.84-2.73 3.55-.51.23-1.07.35-1.64.35a4 4 0 0 1 -4-4h2a2 2 0 0 0 2 2c.29 0 .56-.06.76-.15.71-.35 1.21-.88 1.71-2.38.44-1.35 1.22-2.08 2.03-2.71l-6.46-6.45c-.04.23-.04.46-.04.69h-2c0-.83.14-1.61.39-2.34zm13.18 7.67c.53-.94.82-2.01.82-2.94 0-2.8-2.2-5-5-5-1.19 0-2.26.39-3.11 1.06l-1.43-1.43c1.21-1.02 2.79-1.63 4.54-1.63 3.93 0 7 3.07 7 7 0 1.26-.38 2.65-1.07 3.9l-.46.75-1.44-1.45zm2.18-9.3 1.42-1.42c1.99 1.99 3.22 4.74 3.22 7.78 0 2.83-1.07 5.41-2.82 7.36l-1.41-1.42c1.38-1.58 2.23-3.66 2.23-5.94 0-2.5-1-4.74-2.64-6.36m-3.86 6.36c0 .5-.14.93-.37 1.31l-3.44-3.44c.38-.23.81-.37 1.31-.37a2.5 2.5 0 0 1 2.5 2.5z"/></svg>