<svg height="24" viewBox="0 0 24 24" width="24" xmlns="http://www.w3.org/2000/svg"><path d="m22 5.27-1.5 1.48c.96 1.53 1.5 3.32 1.5 5.25a10 10 0 0 1 -10 10c-1.92 0-3.72-.54-5.25-1.5l-1.48 1.5-1.27-1.28 16.72-16.72zm-4.1 12.12c1.3-1.42 2.1-3.31 2.1-5.39 0-1.37-.34-2.66-.95-3.78l-4.22 4.22c.11.16.17.35.17.56v3h1c.89 0 1.64.59 1.9 1.39m-6.9 2.54v-1.93c-.5 0-.93-.17-1.27-.46l-1.51 1.51c.85.45 1.78.75 2.78.88m4-15.34v.41a2 2 0 0 1 -2 2h-2v2a1 1 0 0 1 -1 1h-2v2h2.18l-2.09 2.09-3.88-3.88c-.13.57-.21 1.17-.21 1.79 0 1.74.56 3.36 1.5 4.67l-1.42 1.43c-1.31-1.69-2.08-3.8-2.08-6.1a10 10 0 0 1 10-10c2.3 0 4.41.77 6.1 2.08l-1.43 1.42c-.51-.36-1.07-.67-1.67-.91z"/></svg>