<svg height="24" viewBox="0 0 24 24" width="24" xmlns="http://www.w3.org/2000/svg"><path d="m6.89 6.36c1.34-2.45 3.11-4.36 5.11-4.36s3.77 1.91 5.11 4.36c-.85.21-1.61.71-2.11 1.41-1.21-1.66-3.54-2.02-5.2-.8-.3.22-.58.49-.8.8-.5-.7-1.26-1.2-2.11-1.41m8.11 11.7-3-3-3 3-3-3-1.27 1.27c1.02 4.02 5.1 6.44 9.11 5.43 2.66-.68 4.75-2.76 5.43-5.43l-1.27-1.27zm-6-2.12 3-3 3 3 3-3 1.5 1.5c-.13-2.31-.7-4.58-1.69-6.68-1.16.1-2.06 1.07-2.06 2.24h-1.5a2.25 2.25 0 0 0 -2.25-2.25 2.25 2.25 0 0 0 -2.25 2.25h-1.5c0-1.17-.9-2.14-2.06-2.24-.99 2.1-1.56 4.37-1.69 6.68l1.5-1.5z"/></svg>