<svg height="24" viewBox="0 0 24 24" width="24" xmlns="http://www.w3.org/2000/svg"><path d="m12 22c-1.67 0-3.16-1.5-4.1-4.07-.07-.2.03-.43.24-.49.2-.08.42.03.49.23.81 2.23 2.07 3.56 3.37 3.56.94 0 1.87-.68 2.62-1.92.11-.18.34-.24.53-.13.18.11.24.35.13.53-.9 1.48-2.06 2.29-3.28 2.29m3.91-4.28c-.04 0-.08-.01-.11-.02-.21-.07-.3-.28-.26-.49.46-1.4.68-3.03.68-4.71 0-3.85-1.25-7.26-3.03-8.36-.25.36-.69.64-1.19.64-.76 0-1.39-.62-1.39-1.39s.63-1.39 1.39-1.39c.77 0 1.4.61 1.41 1.37 2.12 1.13 3.59 4.84 3.59 9.13 0 1.75-.25 3.46-.72 4.95-.05.16-.2.27-.37.27m-3.91-14.95c-.34 0-.62.28-.62.62s.29.61.62.61c.35 0 .64-.27.64-.61s-.29-.62-.64-.62m-7.92 15.77c-.77 0-1.4-.63-1.4-1.39 0-.49.26-.93.65-1.18-.14-2.41 2.35-5.56 6.17-7.75 1.59-.9 3.25-1.55 4.82-1.88.18-.05.41.08.45.29.05.21-.08.42-.27.46-1.5.32-3.09.94-4.6 1.8-3.44 1.97-5.8 4.79-5.8 6.87.76.01 1.4.63 1.4 1.39 0 .77-.65 1.39-1.42 1.39m0-2.01c-.34 0-.62.28-.62.62 0 .35.28.62.62.62s.63-.27.63-.62c0-.34-.29-.62-.63-.62m14.42-3.09c-.07 0-.16-.03-.23-.09-.16-.14-.18-.38-.04-.55 1.54-1.8 2.07-3.54 1.41-4.66-.47-.81-1.54-1.26-3.01-1.28-.22 0-.39-.18-.38-.39 0-.21.18-.37.39-.38 1.75.02 3.06.61 3.67 1.66.84 1.44.29 3.46-1.49 5.55-.08.09-.19.14-.32.14m-2 5.46c-2 0-4.56-.74-7-2.13-1.55-.89-2.93-1.98-4-3.14-.15-.16-.14-.4 0-.55.18-.14.42-.13.57.03 1.01 1.1 2.33 2.14 3.82 2.99 3.31 1.9 6.88 2.53 8.76 1.62-.08-.17-.15-.37-.15-.57 0-.77.65-1.39 1.42-1.39s1.4.62 1.4 1.39-.63 1.39-1.4 1.39c-.28 0-.53-.08-.75-.22-.7.39-1.61.58-2.67.58m3-1.27c.13.08.27.14.42.14.35 0 .63-.27.63-.62 0-.34-.28-.62-.63-.62s-.62.28-.62.62c0 .14.05.27.13.38.04.02.07.06.07.1m-15.04-5.63c-.13 0-.26-.08-.33-.2-.9-1.55-1.05-2.99-.43-4.06.84-1.44 2.88-1.98 5.61-1.49.19.04.35.25.31.45-.03.21-.23.35-.44.3-2.36-.41-4.18 0-4.81 1.13-.48.82-.33 1.98.43 3.28.1.19.04.42-.15.53-.06.03-.12.06-.19.06m7.75 1.4c-.5.1-1-.21-1.1-.71-.11-.49.21-.98.7-1.09.5-.1 1 .21 1.1.71.09.49-.21.98-.7 1.09z"/></svg>