<svg height="24" viewBox="0 0 24 24" width="24" xmlns="http://www.w3.org/2000/svg"><path d="m3 4h16a2 2 0 0 1 2 2v4.82c-1-.97-2.3-1.59-3.69-1.76l1.69-1.06v-2l-8 5-8-5v2l7.62 4.76c-.41.86-.62 1.79-.62 2.74 0 1.68.65 3.29 1.81 4.5h-8.81a2 2 0 0 1 -2-2v-12c0-1.11.89-2 2-2m13.5 7c2.5 0 4.5 2 4.5 4.5 0 .88-.25 1.71-.69 2.4l3.08 3.1-1.39 1.39-3.12-3.07c-.69.43-1.51.68-2.38.68-2.5 0-4.5-2-4.5-4.5s2-4.5 4.5-4.5m0 2a2.5 2.5 0 0 0 -2.5 2.5 2.5 2.5 0 0 0 2.5 2.5 2.5 2.5 0 0 0 2.5-2.5 2.5 2.5 0 0 0 -2.5-2.5z"/></svg>