<svg height="24" viewBox="0 0 24 24" width="24" xmlns="http://www.w3.org/2000/svg"><path d="m16.5 11c2.5 0 4.5 2 4.5 4.5 0 .88-.25 1.71-.69 2.4l3.08 3.1-1.39 1.39-3.12-3.07c-.69.43-1.51.68-2.38.68-2.5 0-4.5-2-4.5-4.5s2-4.5 4.5-4.5m0 2c-1.38 0-2.5 1.12-2.5 2.5s1.12 2.5 2.5 2.5 2.5-1.12 2.5-2.5-1.12-2.5-2.5-2.5m-6 5h-7.5v-10l7.62 4.76c1.03-2.22 3.28-3.76 5.88-3.76.27 0 .54 0 .81.06l1.69-1.06v1.5c.75.31 1.42.77 2 1.32v-4.82c0-1.1-.9-2-2-2h-16c-1.1 0-2 .9-2 2v12c0 1.1.9 2 2 2h8.82c-.55-.58-1-1.25-1.32-2m8.5-12-8 5-8-5z"/></svg>