<svg height="24" viewBox="0 0 24 24" width="24" xmlns="http://www.w3.org/2000/svg"><path d="m3 4c-1.11 0-2 .89-2 2v12c0 1.11.9 2 2 2h10.5a6.5 6.5 0 0 1 -.5-2.5 6.5 6.5 0 0 1 6.5-6.5 6.5 6.5 0 0 1 1.5.18v-5.18c0-1.11-.9-2-2-2zm0 2 8 5 8-5v2l-8 5-8-5zm16 6-2.25 2.25 2.25 2.25v-1.5c1.38 0 2.5 1.12 2.5 2.5 0 .4-.09.78-.26 1.12l1.09 1.09c.42-.63.67-1.39.67-2.21 0-2.21-1.79-4-4-4zm-3.33 3.29c-.42.63-.67 1.39-.67 2.21 0 2.21 1.79 4 4 4v1.5l2.25-2.25-2.25-2.25v1.5c-1.38 0-2.5-1.12-2.5-2.5 0-.4.09-.78.26-1.12z"/></svg>