<svg height="24" viewBox="0 0 24 24" width="24" xmlns="http://www.w3.org/2000/svg"><path d="m22.5 2.09c-.9.91-2.37 1.64-4.19 2.16-1.72-1.41-3.92-2.25-6.31-2.25s-4.59.84-6.31 2.25c-1.82-.52-3.29-1.25-4.19-2.16.03 1.63.85 3.12 2.22 4.31-1.09 1.6-1.72 3.52-1.72 5.6a10 10 0 0 0 10 10 10 10 0 0 0 10-10c0-2.08-.63-4-1.72-5.6 1.37-1.19 2.19-2.68 2.22-4.31m-15 6.41 3 1.5c0 .8-.7 1.5-1.5 1.5s-1.5-.7-1.5-1.5zm4.5 8.73c-1.75 0-3.29-.73-4.19-1.81l1.42-1.42c.45.72 1.52 1.23 2.77 1.23s2.32-.51 2.77-1.23l1.42 1.42c-.9 1.08-2.44 1.81-4.19 1.81m4.5-7.23c0 .8-.7 1.5-1.5 1.5s-1.5-.7-1.5-1.5l3-1.5z"/></svg>