<svg height="24" viewBox="0 0 24 24" width="24" xmlns="http://www.w3.org/2000/svg"><path d="m12 2c-5.53 0-10 4.47-10 10s4.47 10 10 10a10 10 0 0 0 10-10c0-5.53-4.5-10-10-10m0 18a8 8 0 0 1 -8-8 8 8 0 0 1 8-8 8 8 0 0 1 8 8 8 8 0 0 1 -8 8m4.18-12.24-1.06 1.06-1.06-1.06-1.06 1.06 1.06 1.06-1.06 1.06 1.06 1.06 1.06-1.06 1.06 1.06 1.06-1.06-1.06-1.06 1.06-1.06zm-8.36 4.24 1.06-1.06 1.06 1.06 1.06-1.06-1.06-1.06 1.06-1.06-1.06-1.06-1.06 1.06-1.06-1.06-1.06 1.06 1.06 1.06-1.06 1.06zm4.18 2c-2.33 0-4.31 1.46-5.11 3.5h10.22c-.8-2.04-2.78-3.5-5.11-3.5z"/></svg>