<svg height="24" viewBox="0 0 24 24" width="24" xmlns="http://www.w3.org/2000/svg"><path d="m7.57 20c-1.34 0-2.43-1.09-2.43-2.43 0-1.07 1.18-3.07 2.43-4.76 1.25 1.69 2.43 3.69 2.43 4.76a2.43 2.43 0 0 1 -2.43 2.43m4.43-18a10 10 0 0 0 -10 10c0 1.75.45 3.38 1.24 4.81.16-.81.57-1.74 1.07-2.64-.2-.67-.31-1.42-.31-2.17a8 8 0 0 1 8-8 8 8 0 0 1 8 8 8 8 0 0 1 -8 8c-.24 0-.47 0-.71-.04-.47.74-1.15 1.32-1.95 1.67.85.24 1.74.37 2.66.37a10 10 0 0 0 10-10 10 10 0 0 0 -10-10m0 12c-.41 0-.81.04-1.19.12.35.63.66 1.28.88 1.88h.31c1.25 0 2.32.5 2.77 1.23l1.42-1.42c-.9-1.09-2.44-1.81-4.19-1.81m3.5-6c-.8 0-1.5.7-1.5 1.5s.7 1.5 1.5 1.5 1.5-.7 1.5-1.5-.7-1.5-1.5-1.5m-5.5 1.5c0-.8-.7-1.5-1.5-1.5s-1.5.7-1.5 1.5.7 1.5 1.5 1.5 1.5-.7 1.5-1.5"/></svg>