<svg height="24" viewBox="0 0 24 24" width="24" xmlns="http://www.w3.org/2000/svg"><path d="m12 2a10 10 0 0 0 -10 10 10 10 0 0 0 10 10 10 10 0 0 0 10-10 10 10 0 0 0 -10-10m0 18a8 8 0 0 1 -8-8 8 8 0 0 1 8-8 8 8 0 0 1 8 8 8 8 0 0 1 -8 8m-3-10c-.74 0-1.39.4-1.73 1-.17-.29-.27-.64-.27-1a2 2 0 0 1 2-2c1.11 0 2 .9 2 2 0 .36-.1.71-.27 1-.34-.6-.99-1-1.73-1m8 0c0 .36-.1.71-.27 1-.34-.6-.99-1-1.73-1s-1.39.4-1.73 1c-.17-.29-.27-.64-.27-1a2 2 0 0 1 2-2c1.11 0 2 .9 2 2m-1 3v2h-1c0 2-.9 3-2 3s-2-1-2-3h-3v-2z"/></svg>