<svg height="24" viewBox="0 0 24 24" width="24" xmlns="http://www.w3.org/2000/svg"><path d="m6 11v1.5h1.5v1.5h1.5v-3m3.5-5h-1.5v3h3v-1.5h-1.5m-2.7 9.5a5.5 5.5 0 0 0 7.2-7.2m-10.66-3.46a8 8 0 0 1 8.74-1.72 4.11 4.11 0 0 1 .65-1.9 10 10 0 0 0 -13 13 4.11 4.11 0 0 1 1.9-.65 8 8 0 0 1 1.71-8.73m11.32 11.32a8 8 0 0 1 -8.74 1.72 4.11 4.11 0 0 1 -.65 1.9 10 10 0 0 0 13-13 4.11 4.11 0 0 1 -1.9.65 8 8 0 0 1 -1.71 8.73m-11.66-6.66v1.5h1.5v1.5h1.5v-3m.8 6a5.5 5.5 0 0 0 7.2-7.2m-4.5-3.8h-1.5v3h3v-1.5h-1.5m-6.5 3.5v1.5h1.5v1.5h1.5v-3m3.5-5h-1.5v3h3v-1.5h-1.5m-2.7 9.5a5.5 5.5 0 0 0 7.2-7.2m-12.07 11.2a2 2 0 0 1 -2-2 2 2 0 0 1 2-2h2v2a2 2 0 0 1 -2 2.07m14.14-18.14a2 2 0 0 1 2 2 2 2 0 0 1 -2 2h-2v-2a2 2 0 0 1 2-2z"/></svg>