<svg height="24" viewBox="0 0 24 24" width="24" xmlns="http://www.w3.org/2000/svg"><path d="m18.9 18.94-2.96-2.94c-.18-.21-.39-.5-.39-.95a1.3 1.3 0 0 1 1.3-1.3c.34 0 .68.14.92.4l1.14 1.11 1.12-1.13c.24-.24.58-.38.92-.38a1.3 1.3 0 0 1 1.3 1.3c0 .34-.14.68-.38.92zm-1.44.68c-1.74 1.48-3.99 2.38-6.46 2.38a10 10 0 0 1 -10-10 10 10 0 0 1 10-10 10 10 0 0 1 10 10c0 .09 0 .17-.05.25-.74 0-1.45.3-1.98.82l-.07.07-.06-.05c-.52-.54-1.24-.84-1.99-.84a2.8 2.8 0 0 0 -2.8 2.8c0 .73.29 1.45.82 1.98zm-4.46-10.12c0 .8.7 1.5 1.5 1.5s1.5-.7 1.5-1.5-.7-1.5-1.5-1.5-1.5.7-1.5 1.5m-4 0c0-.8-.7-1.5-1.5-1.5s-1.5.7-1.5 1.5.7 1.5 1.5 1.5 1.5-.7 1.5-1.5m3.94 5.68 1.06-1.06-2.12-2.12-1.06 1.06 1.06 1.06-1.06 1.06 1.06 1.06-1.06 1.06 1.06 1.06 2.12-2.12z"/></svg>