<svg height="24" viewBox="0 0 24 24" width="24" xmlns="http://www.w3.org/2000/svg"><path d="m9 9.5c0 .8-.7 1.5-1.5 1.5s-1.5-.7-1.5-1.5.7-1.5 1.5-1.5 1.5.7 1.5 1.5m7 0c0 .8-.7 1.5-1.5 1.5s-1.5-.7-1.5-1.5.7-1.5 1.5-1.5 1.5.7 1.5 1.5m-2 4.62-2.12-2.12-1.06 1.06 1.06 1.06-1.06 1.06 1.06 1.06-1.06 1.06 1.06 1.06 2.12-2.12-1.06-1.06zm2.85-1.12a2.05 2.05 0 0 0 -2.05 2.05c0 .57.23 1.07.6 1.45l3.5 3.5 3.5-3.5c.37-.37.6-.89.6-1.45a2.05 2.05 0 0 0 -2.05-2.05c-.55 0-1.08.23-1.45.6l-.6.6-.6-.59c-.37-.38-.9-.61-1.45-.61m-1.85 5.92c-1.18.68-2.54 1.08-4 1.08a8 8 0 0 1 -8-8 8 8 0 0 1 8-8c4.26 0 7.73 3.33 8 7.5.58-.31 1.26-.5 1.95-.5-.5-5.05-4.77-9-9.95-9a10 10 0 0 0 -10 10 10 10 0 0 0 10 10c2 0 3.88-.6 5.45-1.62z"/></svg>