<svg height="24" viewBox="0 0 24 24" width="24" xmlns="http://www.w3.org/2000/svg"><path d="m15.07 8.93v-4a4.06 4.06 0 0 1 .66-2.21 10 10 0 0 0 -13 13 4.06 4.06 0 0 1 2.21-.66h4v4a4.06 4.06 0 0 1 -.66 2.21 10 10 0 0 0 13-13 4.06 4.06 0 0 1 -2.21.66m-8.07-2.93h1.5v1.5h1.5v1.5h-3m-3.5 5v-1.5h-1.5v-1.5h3v3m6.89 1.9a5.5 5.5 0 0 1 -6.09 1.1l7.2-7.2a5.5 5.5 0 0 1 -1.11 6.09m-11 5.19a2 2 0 0 1 -2-2 2 2 0 0 1 2-2h2v2a2 2 0 0 1 -1.96 1.99m14.14-18.14a2 2 0 0 1 2 2 2 2 0 0 1 -2 2h-2v-2a2 2 0 0 1 2-2z"/></svg>