<svg height="24" viewBox="0 0 24 24" width="24" xmlns="http://www.w3.org/2000/svg"><path d="m5.14 17.57c0-1.07 1.18-3.07 2.43-4.76 1.25 1.69 2.43 3.69 2.43 4.76a2.43 2.43 0 0 1 -2.43 2.43c-1.34 0-2.43-1.09-2.43-2.43m16.86-5.57a10 10 0 0 1 -10 10c-.92 0-1.82-.14-2.67-.37 1.57-.68 2.67-2.24 2.67-4.06 0-.45-.11-.97-.31-1.57h.31c1.25 0 2.32.5 2.77 1.23l1.42-1.42c-.9-1.09-2.44-1.81-4.19-1.81-.41 0-.81.04-1.19.12-.43-.76-.96-1.59-1.62-2.49l-.48-.63c.71-.13 1.29-.77 1.29-1.5 0-.8-.7-1.5-1.5-1.5s-1.5.7-1.5 1.5c0 .19.04.37.11.54l-1.15 1.59c-1.56 2.12-2.46 3.87-2.73 5.18-.78-1.43-1.23-3.07-1.23-4.81a10 10 0 0 1 10-10 10 10 0 0 1 10 10m-5-2.5c0-.8-.7-1.5-1.5-1.5s-1.5.7-1.5 1.5.7 1.5 1.5 1.5 1.5-.7 1.5-1.5z"/></svg>