<svg height="24" viewBox="0 0 24 24" width="24" xmlns="http://www.w3.org/2000/svg"><path d="m19 10c0 1.38-2.12 2.5-3.5 2.5s-2.75-1.12-2.75-2.5h-1.5c0 1.38-1.37 2.5-2.75 2.5s-3.5-1.12-3.5-2.5h-.75c-.16.64-.25 1.31-.25 2a8 8 0 0 0 8 8 8 8 0 0 0 8-8c0-.69-.09-1.36-.25-2zm-7-6c-2.96 0-5.55 1.61-6.93 4h13.86c-1.38-2.39-3.97-4-6.93-4m10 8a10 10 0 0 1 -10 10 10 10 0 0 1 -10-10 10 10 0 0 1 10-10 10 10 0 0 1 10 10m-10 5.23c-1.75 0-3.29-.73-4.19-1.81l1.42-1.42c.45.72 1.52 1.23 2.77 1.23s2.32-.51 2.77-1.23l1.42 1.42c-.9 1.08-2.44 1.81-4.19 1.81z"/></svg>