<svg height="24" viewBox="0 0 24 24" width="24" xmlns="http://www.w3.org/2000/svg"><path d="m7.95 9.55 3.89-2.25c.1-.05.22-.05.32 0l3.89 2.25c.1.06.16.16.16.27v4.5c0 .11-.06.21-.16.27l-3.89 2.25c-.1.05-.22.05-.32 0l-3.89-2.25c-.1-.06-.16-.16-.16-.27v-4.5c0-.11.06-.21.16-.27m14.17 2.05c.17.29.17.63 0 .93l-4.65 8.03c-.17.3-.47.44-.82.44h-9.3c-.35 0-.65-.15-.82-.44l-4.65-8.03c-.17-.29-.17-.66 0-.95l4.65-8.08c.17-.28.47-.5.82-.5h9.3c.35 0 .65.22.82.5zm-3.85 3.9v-6.85c0-.12-.07-.23-.18-.29l-5.93-3.41c-.1-.06-.23-.06-.33 0l-5.92 3.41c-.11.06-.18.17-.18.29v6.85c0 .11.07.22.18.28l5.93 3.41c.1.06.23.06.33 0l5.92-3.41c.11-.06.18-.17.18-.28z"/></svg>