<svg height="24" viewBox="0 0 24 24" width="24" xmlns="http://www.w3.org/2000/svg"><path d="m23 8.78-1.29-1.56c-.26.2-1.18.78-1.94.78-.51 0-1.47-.25-2.32-.47-1.06-.27-2.06-.53-2.85-.53-.6 0-1.17.15-1.67.35-.31-1.9-1.93-3.35-3.93-3.35-4.42 0-7 3.58-7 8s3.58 7 8 7c2.06 0 3.93-.57 5.34-1.61l-.34 3.9 2 .18 1-11.73c.66.15 1.27.26 1.77.26 1.61 0 3.07-1.09 3.23-1.22m-14-2.78a2 2 0 0 1 2 2 2 2 0 0 1 -2 2h-4.77c.57-2.33 2.16-4 4.77-4m1 11c-3.31 0-6-1.69-6-5h5c1.6 0 2.83-.83 3.5-2.09.26-.2 1.35-.91 2.1-.91.34 0 .9.11 1.45.25l-.4 4.64c-.83 2.06-3.05 3.11-5.65 3.11z"/></svg>