<svg height="24" viewBox="0 0 24 24" width="24" xmlns="http://www.w3.org/2000/svg"><path d="m15.09 11.63s.19-1.28.91-1.28c.76 0 1.78 1.71 1.78 1.71s-2.32-.43-2.69-.43m3.91-6.94c-.36-.6-2.17-1.28-3.11-1.28-.93 0-2.39 0-2.39 0s-.8-1.41-2.62-1.41c-1.83 0-1.71.81-1.71 1.5v2.82l-.83.87h-3.84s-1.06.72-1.06 2.25c0 1.56.48 6.91 3.69 7.41 3.8.58 4.45-1.18 4.45-1.39 0-.9.02-2.25.02-2.25s1.11 2.12 2.79 2.12 2.65.97 2.65 1.96v1.84s-.04 1.15-1.04 1.15-2.11 0-2.11 0-.69-.54-.69-1.28c0-.75.33-.95.73-.95.39 0 .72.04.72.04v-1.56s-3.18-.03-3.18 2.41c0 2.43 1.66 3.06 2.99 3.06h2.17s3.93-.5 3.93-8.25-1.23-8.47-1.56-9.06m-11.5 1.62h-3.24l4.06-4.09v3.28z"/></svg>