<svg height="24" viewBox="0 0 24 24" width="24" xmlns="http://www.w3.org/2000/svg"><path d="m11.83 9 3.17 3.16c0-.05 0-.11 0-.16a3 3 0 0 0 -3-3c-.06 0-.11 0-.17 0m-4.3.8 1.55 1.55c-.05.21-.08.42-.08.65a3 3 0 0 0 3 3c.22 0 .44-.03.65-.08l1.55 1.55c-.67.33-1.41.53-2.2.53a5 5 0 0 1 -5-5c0-.79.2-1.53.53-2.2m-5.53-5.53 2.28 2.28.45.45c-1.65 1.3-2.95 3-3.73 5 1.73 4.39 6 7.5 11 7.5 1.55 0 3.03-.3 4.38-.84l.43.42 2.92 2.92 1.27-1.27-17.73-17.73m8.73 4a5 5 0 0 1 5 5c0 .64-.13 1.26-.36 1.82l2.93 2.93c1.5-1.25 2.7-2.89 3.43-4.75-1.73-4.39-6-7.5-11-7.5-1.4 0-2.74.25-4 .7l2.17 2.15c.57-.22 1.18-.35 1.83-.35z"/></svg>