<svg height="24" viewBox="0 0 24 24" width="24" xmlns="http://www.w3.org/2000/svg"><path d="m9 11.75a1.25 1.25 0 0 0 -1.25 1.25 1.25 1.25 0 0 0 1.25 1.25 1.25 1.25 0 0 0 1.25-1.25 1.25 1.25 0 0 0 -1.25-1.25m6 0a1.25 1.25 0 0 0 -1.25 1.25 1.25 1.25 0 0 0 1.25 1.25 1.25 1.25 0 0 0 1.25-1.25 1.25 1.25 0 0 0 -1.25-1.25m-3-9.75a10 10 0 0 0 -10 10 10 10 0 0 0 10 10 10 10 0 0 0 10-10 10 10 0 0 0 -10-10m0 18a8 8 0 0 1 -8-8c-.03-.29-.03-.57 0-.86 2.38-1.04 4.27-2.97 5.26-5.37 1.87 2.65 4.91 4.23 8.16 4.23.76 0 1.51-.09 2.25-.26 1.25 4.26-1.17 8.69-5.41 9.93-.76.22-1.5.33-2.26.33m-12-18a2 2 0 0 1 2-2h4v2h-4v4h-2zm24 20a2 2 0 0 1 -2 2h-4v-2h4v-4h2zm-22 2a2 2 0 0 1 -2-2v-4h2v4h4v2zm20-24a2 2 0 0 1 2 2v4h-2v-4h-4v-2z"/></svg>