<svg height="24" viewBox="0 0 24 24" width="24" xmlns="http://www.w3.org/2000/svg"><path d="m19.69 16.12c-.27.31-.74.8-1.5.8-1.06 0-1.41-.77-1.73-1.58l-1.6-3.93-1.6 3.93c-.26.66-.56 1.58-1.73 1.58s-1.46-.92-1.74-1.58l-2.68-6.62h2.26l2.16 5.45 1.61-3.97c.25-.63.55-1.58 1.72-1.58 1.14 0 1.46.95 1.72 1.58l1.75 4.3c.89-1.36 1.27-3 1.05-4.61s-1.01-3.09-2.24-4.16c-1.22-1.07-2.8-1.67-4.42-1.67-1.69-.01-3.33.52-4.72 1.5-1.34.99-2.36 2.38-2.88 3.98s-.52 3.33 0 4.93 1.54 2.99 2.91 3.97c1.37.99 3.01 1.51 4.69 1.5.73 0 1.45-.1 2.15-.3v2.11c-.71.16-1.43.25-2.15.25-2.11 0-4.18-.66-5.9-1.9s-3-2.99-3.65-5c-.67-2.01-.67-4.18-.01-6.2.66-2.01 1.94-3.76 3.66-5 1.71-1.24 3.78-1.9 5.9-1.9 4.84 0 8.78 3.94 8.78 8.79 0 1.92-.64 3.8-1.81 5.33z"/></svg>