<svg height="24" viewBox="0 0 24 24" width="24" xmlns="http://www.w3.org/2000/svg"><path d="m10.25 13a1.25 1.25 0 0 1 -1.25 1.25 1.25 1.25 0 0 1 -1.25-1.25 1.25 1.25 0 0 1 1.25-1.25 1.25 1.25 0 0 1 1.25 1.25m4.75-1.25a1.25 1.25 0 0 0 -1.25 1.25 1.25 1.25 0 0 0 1.25 1.25 1.25 1.25 0 0 0 1.25-1.25 1.25 1.25 0 0 0 -1.25-1.25m7 .25a10 10 0 0 1 -10 10 10 10 0 0 1 -10-10 10 10 0 0 1 10-10 10 10 0 0 1 10 10m-11.34-7.88c1.4 2.32 3.94 3.88 6.84 3.88.46 0 .91-.05 1.34-.12-1.4-2.32-3.94-3.88-6.84-3.88-.46 0-.91.05-1.34.12m-6.24 5.35c1.71-.97 3.03-2.55 3.66-4.44-1.71.97-3.03 2.55-3.66 4.44m15.58 2.53c0-.78-.12-1.53-.33-2.24-.7.15-1.42.24-2.17.24-3.13 0-5.92-1.44-7.76-3.69-1.05 2.56-3.14 4.57-5.74 5.55v.14c0 4.41 3.59 8 8 8s8-3.59 8-8z"/></svg>