<svg height="24" viewBox="0 0 24 24" width="24" xmlns="http://www.w3.org/2000/svg"><path d="m12 2c-5.5 0-10 4.5-10 10v10h20v-10c0-5.5-4.5-10-10-10m0 2c2.9 0 5.44 1.56 6.84 3.88-.43.07-.88.12-1.34.12-2.9 0-5.44-1.56-6.84-3.88.43-.07.88-.12 1.34-.12m-3.92 1.03c-.63 1.89-1.95 3.47-3.66 4.44.63-1.89 1.95-3.47 3.66-4.44m-4.08 6.83c2.6-.98 4.69-2.99 5.74-5.55 1.84 2.25 4.63 3.69 7.76 3.69.75 0 1.47-.09 2.17-.24.21.71.33 1.46.33 2.24 0 4.41-3.59 8-8 8s-8-3.59-8-8zm0 8.14v-2c.57.75 1.25 1.43 2 2zm16 0h-2c.75-.57 1.43-1.25 2-2zm-6.25-7c0-.69.56-1.25 1.25-1.25s1.25.56 1.25 1.25-.56 1.25-1.25 1.25-1.25-.56-1.25-1.25m-6 0c0-.69.56-1.25 1.25-1.25s1.25.56 1.25 1.25-.56 1.25-1.25 1.25-1.25-.56-1.25-1.25z"/></svg>