<svg height="24" viewBox="0 0 24 24" width="24" xmlns="http://www.w3.org/2000/svg"><path d="m12.5 2c-2.86 0-3.93 2.55-3.21 5.47l5.71 5.69c.87.21 1.81.65 2.28 1.57 1.18 2.37 4.75 2.27 4.75-2.23 0-3.58-3.98-4.37-7.68-2.37-.32-.4-.74-.71-1.22-.91.19-.93.63-1.98 1.62-2.47 2.36-1.18 2.25-4.75-2.25-4.75m-9.22 2-1.28 1.27 2.47 2.46c-1.25.01-2.47 1.14-2.47 3.77 0 3.57 3.96 4.35 7.65 2.37.32.4.75.72 1.24.92-.2.92-.64 1.96-1.62 2.45-2.36 1.18-2.27 4.76 2.23 4.76 2.3 0 3.44-1.64 3.44-3.79l3.79 3.79 1.27-1.28z"/></svg>