<svg height="24" viewBox="0 0 24 24" width="24" xmlns="http://www.w3.org/2000/svg"><path d="m12 11a1 1 0 0 0 -1 1 1 1 0 0 0 1 1 1 1 0 0 0 1-1 1 1 0 0 0 -1-1m.5-9c4.5 0 4.61 3.57 2.25 4.75-.99.49-1.43 1.54-1.62 2.47.48.2.9.51 1.22.91 3.7-2 7.68-1.21 7.68 2.37 0 4.5-3.57 4.6-4.75 2.23-.5-.99-1.56-1.43-2.49-1.62-.2.48-.51.89-.91 1.23 1.99 3.69 1.2 7.66-2.38 7.66-4.5 0-4.59-3.58-2.23-4.76.98-.49 1.42-1.53 1.62-2.45-.49-.2-.92-.52-1.24-.92-3.69 1.98-7.65 1.2-7.65-2.37 0-4.5 3.56-4.61 4.74-2.24.5.99 1.55 1.42 2.48 1.61.19-.48.51-.9.92-1.22-1.99-3.69-1.2-7.65 2.36-7.65z"/></svg>