<svg height="24" viewBox="0 0 24 24" width="24" xmlns="http://www.w3.org/2000/svg"><path d="m4.4 22c-1.33 0-2.4-1.07-2.4-2.4v-7.6a10 10 0 0 1 10-10 10 10 0 0 1 10 10 10 10 0 0 1 -10 10zm10.5-17.6c-2.6 0-4.7 2.1-4.7 4.7v2.5h-1.9c-.61 0-1.1.49-1.1 1.1s.49 1.1 1.1 1.1h1.5c.2 0 .4.2.4.4v2.1c0 1.38-1.12 2.5-2.5 2.5-.15 0-.29-.01-.43-.04-.08-.02-.17-.03-.27-.03-.59 0-1.09.5-1.09 1.1 0 .54.39.98.89 1.08.29.06.59.09.9.09 2.6 0 4.7-2.1 4.7-4.7v-2.5h1.9c.61 0 1.1-.49 1.1-1.1a1.1 1.1 0 0 0 -1.1-1.1h-1.5a.4.4 0 0 1 -.4-.4v-2.1a2.5 2.5 0 0 1 2.5-2.5c.15 0 .3.01.44.04.08.02.16.03.25.03.6 0 1.1-.5 1.1-1.1 0-.54-.39-.99-.89-1.07-.3-.07-.59-.1-.9-.1m-8.1 8.3c0-.12.01-.24.04-.36l-.53-.53c-.21.06-.42.14-.61.24l1.21 1.21c-.07-.18-.11-.36-.11-.56m-.26 5.8h-.07.03zm-.93 1.33c0-.23.06-.45.16-.64l-2.77-2.77c0 .34.05.66.13.98l2.48 2.48zm.25.8c-.09-.13-.15-.26-.19-.41l-2.43-2.43c.43 1.28 1.39 2.31 2.62 2.84m9.94-7.93c0 .12-.01.24-.04.36l.53.53c.21-.06.42-.14.61-.24l-1.21-1.21c.07.18.11.36.11.56m.26-5.82.07.04-.05-.04zm.94-1.31c0 .23-.07.43-.17.64l2.77 2.79c-.01-.36-.05-.68-.13-1l-2.47-2.5zm-.26-.8c.09.13.15.26.19.41l2.43 2.43c-.43-1.28-1.39-2.31-2.62-2.84m-.67 8.88-.38-.38c-.08.19-.19.36-.34.51.25-.02.49-.07.72-.13m2.16-1.23-1.56-1.56c-.14.14-.3.27-.47.38l1.58 1.58c.16-.13.31-.26.45-.4m-.61.52-1.62-1.6c-.18.1-.39.16-.61.21l1.7 1.71c.18-.1.36-.21.53-.32m1.13-1.14-1.6-1.6c-.1.19-.21.36-.34.51l1.56 1.56c.13-.15.26-.3.38-.47m.41-.71-1.77-1.77c-.02.24-.07.47-.16.68l1.63 1.63c.11-.17.21-.35.3-.54m.44-1.83-2.88-2.88c-.12.17-.27.31-.44.41l3.22 3.21c.06-.23.09-.5.1-.74m-.14.99-2.38-2.38c.19.35.31.75.32 1.17l1.85 1.85c.08-.21.15-.42.21-.64m-14.64 2.33c-.16.13-.32.26-.45.42l1.56 1.54c.14-.14.3-.27.47-.38zm.68-.44c-.17.1-.35.21-.5.32l1.58 1.6c.2-.1.42-.17.63-.21zm1.75-.52c-.25.02-.49.07-.72.13l.38.38c.09-.19.2-.36.34-.51zm-4.16 3.76c-.05.25-.09.5-.09.76l2.88 2.86c.12-.15.27-.29.44-.39zm.65-1.61c-.11.17-.21.35-.3.54l1.77 1.77c.02-.24.07-.47.16-.68zm-.39.73c-.08.22-.15.43-.21.65l2.36 2.38c-.17-.35-.29-.75-.3-1.17zm.88-1.37c-.13.15-.26.3-.38.47l1.6 1.6c.1-.2.21-.36.34-.51z"/></svg>