<svg height="24" viewBox="0 0 24 24" width="24" xmlns="http://www.w3.org/2000/svg"><path d="m6 6h12v3.96l-6-1.96-6 1.96m-2.06 9.04h.06c1.6 0 3-.88 4-2 1 1.12 2.4 2 4 2s3-.88 4-2c1 1.12 2.4 2 4 2h.05l1.9-6.69c.08-.25.05-.53-.06-.77-.13-.24-.34-.42-.6-.5l-1.29-.42v-4.62c0-1.11-.9-2-2-2h-3v-3h-6v3h-3a2 2 0 0 0 -2 2v4.62l-1.29.42c-.26.08-.47.26-.6.5-.11.24-.14.52-.06.77m17.95 8.69c-1.39 0-2.78-.47-4-1.33-2.44 1.71-5.56 1.71-8 0-1.22.86-2.61 1.33-4 1.33h-2v2h2c1.37 0 2.74-.35 4-1 2.5 1.3 5.5 1.3 8 0 1.26.65 2.62 1 4 1h2v-2z"/></svg>