<svg height="24" viewBox="0 0 24 24" width="24" xmlns="http://www.w3.org/2000/svg"><path d="m5 3c-1.1 0-2 .9-2 2v14c0 1.1.9 2 2 2h14c1.1 0 2-.9 2-2v-14c0-1.1-.9-2-2-2m-7.75 2.25h1.5v1.13c.83 0 1.5.67 1.5 1.5v2.49l-.14.13 1.07 1.86c.37-.6.57-1.29.57-2h1.5c.01 1.25-.44 2.46-1.25 3.41l2 3.48v1.5l-1.3-.75-1.86-3.22c-1.72 1.13-3.95 1.13-5.68 0l-1.86 3.22-1.3.75v-1.5l3.89-6.75-.14-.13v-2.49c0-.83.67-1.5 1.5-1.5m.75 1.5c-.84 0-1.26 1.02-.66 1.62.6.58 1.61.15 1.6-.69 0-.52-.44-.93-.94-.93m-1 3.72-1.09 1.9c1.26.86 2.92.86 4.18 0l-1.09-1.9c-.57.51-1.43.51-2 0z"/></svg>