<svg height="24" viewBox="0 0 24 24" width="24" xmlns="http://www.w3.org/2000/svg"><path d="m14 2h-8a2 2 0 0 0 -2 2v16a2 2 0 0 0 2 2h12a2 2 0 0 0 2-2v-12zm-8 2h7l5 5v8.58l-1.84-1.84c1.28-1.94 1.07-4.57-.66-6.28-.95-.96-2.22-1.46-3.5-1.46s-2.55.5-3.53 1.46c-1.97 1.95-1.97 5.11 0 7.04.97 1 2.25 1.47 3.53 1.47.96 0 1.92-.28 2.75-.83l2.85 2.86h-11.6zm8.11 11.1c-.56.56-1.31.9-2.11.9s-1.55-.33-2.11-.9c-.56-.56-.89-1.31-.89-2.1 0-.81.32-1.56.89-2.12.56-.57 1.31-.88 2.11-.88s1.55.31 2.11.88c.56.56.89 1.31.89 2.12 0 .79-.32 1.54-.89 2.1z"/></svg>