<svg height="24" viewBox="0 0 24 24" width="24" xmlns="http://www.w3.org/2000/svg"><path d="m17 18c.56 0 1 .44 1 1s-.44 1-1 1-1-.44-1-1 .44-1 1-1m0-3c-2.73 0-5.06 1.66-6 4 .94 2.34 3.27 4 6 4s5.06-1.66 6-4c-.94-2.34-3.27-4-6-4m0 6.5a2.5 2.5 0 0 1 -2.5-2.5 2.5 2.5 0 0 1 2.5-2.5 2.5 2.5 0 0 1 2.5 2.5 2.5 2.5 0 0 1 -2.5 2.5m-7.86-1.75-.29-.75.29-.74c1.29-3.2 4.36-5.26 7.86-5.26 1.05 0 2.06.21 3 .56v-5.56l-6-6h-8c-1.11 0-2 .89-2 2v16a2 2 0 0 0 2 2h4.5c-.55-.66-1-1.42-1.36-2.25m3.86-16.25 5.5 5.5h-5.5z"/></svg>