<svg height="24" viewBox="0 0 24 24" width="24" xmlns="http://www.w3.org/2000/svg"><path d="m17.04 2c-.19 0-.38.04-.54.14l-10.91 6.36h3.96l7.95-4.64c.5-.28.63-.89.35-1.36-.17-.3-.47-.5-.81-.5m-1.04 6v2h-13a2 2 0 0 0 -2 2h1v3h-1v4h2a3 3 0 0 0 3 3 3 3 0 0 0 3-3h6a3 3 0 0 0 3 3 3 3 0 0 0 3-3h2v-6.5l-3.5-4.5zm2 1.5h1l2.5 3v1h-3.5zm-14 2.5h3v3h-3zm5 0h3v3h-3zm5 0h2v3h-2zm-8 5.5a1.5 1.5 0 0 1 1.5 1.5 1.5 1.5 0 0 1 -1.5 1.5 1.5 1.5 0 0 1 -1.5-1.5 1.5 1.5 0 0 1 1.5-1.5m12 0a1.5 1.5 0 0 1 1.5 1.5 1.5 1.5 0 0 1 -1.5 1.5 1.5 1.5 0 0 1 -1.5-1.5 1.5 1.5 0 0 1 1.5-1.5z"/></svg>