<svg height="24" viewBox="0 0 24 24" width="24" xmlns="http://www.w3.org/2000/svg"><path d="m19.11 5h1.89v-2h-18v2h1.89c-1.78 1.8-2.89 4.27-2.89 7 0 3.97 2.31 7.39 5.66 9h8.68c3.35-1.61 5.66-5.03 5.66-9 0-2.73-1.11-5.2-2.89-7m-5.86 12c-1.16 0-2.19-.36-2.92-.83-.66.83-2 .83-3.33.83 1.1 0 1.5-1.12 1.5-2.5s-.4-2.5-1.5-2.5c1.33 0 2.67 0 3.37.91.69-.55 1.72-.91 2.88-.91 2.07 0 3.75 1.12 3.75 2.5s-1.68 2.5-3.75 2.5m2.75-10c-2.44 1.71-5.56 1.71-8 0-.94.66-2 1.09-3.05 1.25.36-.67.82-1.29 1.37-1.84l1.38-1.41h8.6l1.38 1.41c.55.55 1.01 1.17 1.37 1.84-1.05-.16-2.11-.59-3.05-1.25z"/></svg>