<svg height="24" viewBox="0 0 24 24" width="24" xmlns="http://www.w3.org/2000/svg"><path d="m23 17v2h-8v-2zm-18 2c0 .55.45 1 1 1h7.34c.27.75.66 1.42 1.19 2h-8.53c-1.66 0-3-1.34-3-3 0-.6.18-1.16.5-1.64l5.5-9.55v-1.81c-.55 0-1-.45-1-1v-1c0-1.1.9-2 2-2h4c1.11 0 2 .9 2 2v1c0 .55-.45 1-1 1v1.81l2.5 4.37c-.64.17-1.26.45-1.81.82l-2.69-4.65v-4.35h-2v4.35l-5.82 10.08c-.11.16-.18.36-.18.57m8-3 .58-.58c-.37.78-.58 1.66-.58 2.58h-5.27l2.66-4.61zm-.5-4c.28 0 .5.22.5.5s-.22.5-.5.5-.5-.22-.5-.5.22-.5.5-.5z"/></svg>