<svg height="24" viewBox="0 0 24 24" width="24" xmlns="http://www.w3.org/2000/svg"><path d="m3 13a9 9 0 0 0 9 9 9 9 0 0 0 -9-9m2.44 2.44c1.91.71 3.41 2.21 4.12 4.12-1.91-.71-3.41-2.21-4.12-4.12m6.56 6.56a9 9 0 0 0 9-9 9 9 0 0 0 -9 9m2.42-2.43c.69-1.93 2.22-3.46 4.15-4.15-.71 1.92-2.23 3.44-4.15 4.15m-2.42-5.57a6 6 0 0 0 6-6v-5c-.74 0-1.47.12-2.16.39-.55.23-1.04.57-1.45 1l-2.39-2.39-2.39 2.39c-.41-.43-.9-.77-1.45-1-.69-.27-1.42-.39-2.16-.39v5a6 6 0 0 0 6 6m-4-8.39 1.57 1.65 2.43-2.43 2.43 2.43 1.57-1.65v2.39a4 4 0 0 1 -4 4 4 4 0 0 1 -4-4z"/></svg>