<svg height="24" viewBox="0 0 24 24" width="24" xmlns="http://www.w3.org/2000/svg"><path d="m3 13a9 9 0 0 0 9 9c0-5-4.03-9-9-9m9-7.5a2.5 2.5 0 0 1 2.5 2.5 2.5 2.5 0 0 1 -2.5 2.5 2.5 2.5 0 0 1 -2.5-2.5 2.5 2.5 0 0 1 2.5-2.5m-6.4 4.75a2.5 2.5 0 0 0 2.5 2.5c.53 0 1.02-.17 1.4-.44v.19a2.5 2.5 0 0 0 2.5 2.5 2.5 2.5 0 0 0 2.5-2.5c0-.07 0-.13 0-.19.38.27.87.44 1.4.44 1.38 0 2.5-1.12 2.5-2.5 0-1-.59-1.85-1.43-2.25.84-.4 1.43-1.26 1.43-2.25 0-1.38-1.12-2.5-2.5-2.5-.53 0-1.02.16-1.4.44 0-.06 0-.13 0-.19a2.5 2.5 0 0 0 -2.5-2.5 2.5 2.5 0 0 0 -2.5 2.5v.19c-.38-.28-.87-.44-1.4-.44a2.5 2.5 0 0 0 -2.5 2.5c0 .99.59 1.85 1.43 2.25-.84.4-1.43 1.25-1.43 2.25m6.4 11.75a9 9 0 0 0 9-9c-5 0-9 4-9 9z"/></svg>