<svg height="24" viewBox="0 0 24 24" width="24" xmlns="http://www.w3.org/2000/svg"><path d="m18.5 12a3.5 3.5 0 0 0 3.5-3.5 6.5 6.5 0 0 0 -6.5-6.5 3.5 3.5 0 0 0 -3.5 3.5 3.5 3.5 0 0 0 -3.5-3.5 6.5 6.5 0 0 0 -6.5 6.5 3.5 3.5 0 0 0 3.5 3.5 3.5 3.5 0 0 0 -3.5 3.5 6.5 6.5 0 0 0 6.5 6.5 3.5 3.5 0 0 0 3.5-3.5 3.5 3.5 0 0 0 3.5 3.5 6.5 6.5 0 0 0 6.5-6.5 3.5 3.5 0 0 0 -3.5-3.5m-6.5 4a4 4 0 0 1 -4-4 4 4 0 0 1 4-4 4 4 0 0 1 4 4 4 4 0 0 1 -4 4m2.5-4a2.5 2.5 0 0 1 -2.5 2.5 2.5 2.5 0 0 1 -2.5-2.5 2.5 2.5 0 0 1 2.5-2.5 2.5 2.5 0 0 1 2.5 2.5z"/></svg>