<svg height="24" viewBox="0 0 24 24" width="24" xmlns="http://www.w3.org/2000/svg"><path d="m8.66 13.07c-1.74 0-3.16-1.41-3.16-3.14 0-.71.26-1.39.69-1.93-.42-.54-.69-1.22-.69-1.93 0-1.73 1.43-3.14 3.16-3.14l.43.03c.47-1.15 1.6-1.96 2.91-1.96s2.44.81 2.91 1.96l.43-.03c1.73 0 3.16 1.41 3.16 3.14 0 .71-.26 1.39-.69 1.93.42.54.69 1.22.69 1.93 0 1.73-1.43 3.14-3.16 3.14l-.43-.03c-.47 1.15-1.6 1.96-2.91 1.96s-2.44-.81-2.91-1.96zm3.34-.07c.62 0 1.12-.5 1.14-1.1l-.11-1.09c-.32.12-.67.19-1.03.19s-.7-.07-1-.19l-.14 1.09c.02.6.52 1.1 1.14 1.1m3.34-1.93c.63 0 1.16-.51 1.16-1.15 0-.42-.27-.84-.67-1.03l-.88-.42c-.12.74-.51 1.38-1.06 1.83l.81.57c.18.13.4.2.64.2m-.65-5.94-.82.56c.56.45.95 1.09 1.07 1.81l.88-.4c.41-.2.68-.6.68-1.03 0-.63-.53-1.14-1.16-1.14-.23 0-.45.07-.65.2m-2.69-2.13c-.62 0-1.12.5-1.14 1.1l.14 1.09c.3-.12.64-.19 1-.19s.71.07 1.03.19l.11-1.09c-.02-.6-.52-1.1-1.14-1.1m-3.34 1.93c-.63 0-1.16.51-1.16 1.14 0 .43.27.83.67 1.03l.88.4c.12-.72.51-1.36 1.06-1.81l-.81-.56c-.18-.13-.4-.2-.64-.2m-.49 3.97c-.4.2-.67.6-.67 1.02 0 .63.53 1.14 1.16 1.14.23 0 .45-.06.65-.2l.81-.55c-.56-.45-.95-1.09-1.07-1.81zm3.83 13.1a9 9 0 0 1 -9-9 9 9 0 0 1 9 9 9 9 0 0 1 9-9 9 9 0 0 1 -9 9m2.44-2.44c1.9-.71 3.41-2.22 4.12-4.12-1.9.7-3.41 2.22-4.12 4.12m-9-4.12c.71 1.9 2.22 3.41 4.12 4.12-.7-1.9-2.22-3.41-4.12-4.12z"/></svg>