<svg height="24" viewBox="0 0 24 24" width="24" xmlns="http://www.w3.org/2000/svg"><path d="m10 4 2 2h8a2 2 0 0 1 2 2v3.5c-.62-.26-1.3-.43-2-.5v-3h-16v10h9c.07.7.24 1.38.5 2h-9.5c-1.11 0-2-.9-2-2v-12c0-1.11.89-2 2-2zm9 8v1.5a4 4 0 0 1 4 4c0 .82-.25 1.58-.67 2.21l-1.09-1.09c.17-.34.26-.72.26-1.12a2.5 2.5 0 0 0 -2.5-2.5v1.5l-2.25-2.25-.03-.03c.06-.05.13-.09 2.28-2.22m0 11v-1.5a4 4 0 0 1 -4-4c0-.82.25-1.58.67-2.21l1.09 1.09c-.17.34-.26.72-.26 1.12a2.5 2.5 0 0 0 2.5 2.5v-1.5l2.25 2.25.03.03c-.06.05-.13.09-2.28 2.22z"/></svg>