<svg height="24" viewBox="0 0 24 24" width="24" xmlns="http://www.w3.org/2000/svg"><path d="m19.76 2h-15.52c-1.24 0-2.24 1-2.24 2.24v15.52c0 1.24 1 2.24 2.24 2.24h15.52c1.24 0 2.24-1 2.24-2.24v-15.52c0-1.24-1-2.24-2.24-2.24m-2.03 12.69c0 .19-.16.27-.35.35-.74.32-1.54.61-2.38.61-1.22 0-1.78-.74-3.22-.74-1.04 0-2.13.37-3.01.77-.06.03-.11.03-.16.05v2.03c0 .08 0 .16-.03.21v.06c-.11.37-.45.64-.85.64-.51 0-.91-.41-.91-.91v-9.76c-.35-.27-.58-.69-.58-1.17 0-.83.66-1.5 1.49-1.5s1.5.67 1.5 1.5c0 .48-.23.9-.59 1.17v.83c.08-.03.16-.06.24-.11.83-.35 1.82-.64 2.75-.64 1.01 0 1.81.27 2.72.61.19.08.37.11.58.11 1.02 0 2.14-.72 2.41-.72.21 0 .4.16.4.35v6.26z"/></svg>