<svg height="24" viewBox="0 0 24 24" width="24" xmlns="http://www.w3.org/2000/svg"><path d="m3 3a1 1 0 0 0 -1 1v4 1.5c0 1.69 1.03 3.13 2.5 3.72v6.28a1.5 1.5 0 0 0 1.5 1.5 1.5 1.5 0 0 0 1.5-1.5v-6.28c1.47-.59 2.5-2.03 2.5-3.72v-1.5-4a1 1 0 0 0 -1-1 1 1 0 0 0 -1 1v4a.5.5 0 0 1 -.5.5.5.5 0 0 1 -.5-.5v-4a1 1 0 0 0 -1-1 1 1 0 0 0 -1 1v4a.5.5 0 0 1 -.5.5.5.5 0 0 1 -.5-.5v-4a1 1 0 0 0 -1-1m16.88 0c-.13 0-.26.09-.38.16l-3.5 2.09v3.75h-4v2h1l1 10h6l1-10h1v-2h-4v-2.66l2.5-1.5c.5-.28.63-.84.34-1.34-.21-.36-.58-.55-.96-.5z"/></svg>