<svg height="24" viewBox="0 0 24 24" width="24" xmlns="http://www.w3.org/2000/svg"><path d="m20 10c-1.42-2.43-4.5-3.31-7-2v-5h-2v5c-2.5-1.31-5.58-.43-7 2-2 3 3 12 5 12s2-1 3-1 1 1 3 1 7-9 5-12m-1.75 3.38c-.62 2.47-1.84 4.74-3.55 6.62-.2 0-.43-.1-.6-.25-1.23-.99-2.97-.99-4.2 0-.17.15-.4.25-.6.25-1.71-1.87-2.94-4.15-3.55-6.61-.25-.73-.3-1.52-.09-2.27.58-1.03 1.66-1.69 2.84-1.72.56.01 1.11.14 1.61.39l.89.45h2l.89-.45c.5-.25 1.05-.38 1.61-.39 1.18.03 2.26.68 2.84 1.71.21.75.16 1.54-.09 2.27m-7.25-8.38c-5.62 3.07-6.89-1.22-6.89-1.22s2.66-3.59 6.89 1.22z"/></svg>