<svg height="24" viewBox="0 0 24 24" width="24" xmlns="http://www.w3.org/2000/svg"><path d="m20.06 18c-.06-.17-.15-.46-.2-.89-.67.7-1.48 1.05-2.41 1.05-.83 0-1.52-.24-2.05-.71-.53-.45-.8-1.06-.8-1.79 0-.88.33-1.56 1-2.05s1.61-.73 2.83-.73h1.4v-.64c0-.49-.15-.88-.45-1.17s-.75-.43-1.33-.43c-.52 0-.95.12-1.3.36-.35.25-.52.54-.52.89h-1.46c0-.43.15-.84.45-1.24.28-.4.71-.71 1.22-.94.51-.21 1.06-.35 1.69-.35.98 0 1.74.24 2.29.73s.84 1.16.86 2.02v3.89c0 .8.1 1.42.3 1.88v.12zm-2.4-1.12c.45 0 .88-.11 1.29-.32.4-.21.7-.49.88-.83v-1.57h-1.13c-1.77 0-2.66.47-2.66 1.41 0 .43.15.73.46.96.3.23.68.35 1.16.35m-12.2-3.17h4.07l-2.03-5.42zm1.18-7.71h1.72l4.71 12h-1.93l-.97-2.57h-5.35l-.96 2.57h-1.93zm-4.64 14h11v2h-11z"/></svg>