<svg height="24" viewBox="0 0 24 24" width="24" xmlns="http://www.w3.org/2000/svg"><path d="m16.5 8c-2.5 0-4.5 2-4.5 4.5s2 4.5 4.5 4.5 4.5-2 4.5-4.5-2-4.5-4.5-4.5m0 7.5c-1.7 0-3-1.3-3-3 0-.6.2-1.1.4-1.5l4.1 4.1c-.4.2-.9.4-1.5.4m2.6-1.5-4.1-4.1c.4-.3.9-.4 1.5-.4 1.7 0 3 1.3 3 3 0 .6-.2 1.1-.4 1.5m-7-6.3-1.5-1.5 3.3-3.3c.6-.6 1.5-.6 2.1 0l2.2 2.1c.4.4.5.8.4 1.3-.6-.2-1.3-.3-2-.3-1.8 0-3.3.7-4.5 1.7m-1.6 7.2-1.5 1.4c-.6.6-1.5.6-2.1 0l-.7.7h-4.2l2.8-2.8c-.6-.6-.6-1.5 0-2.1l4.7-4.7 1.6 1.6c-.7 1-1.1 2.2-1.1 3.5 0 .8.2 1.6.5 2.4z"/></svg>