<svg height="24" viewBox="0 0 24 24" width="24" xmlns="http://www.w3.org/2000/svg"><path d="m16 7.41-4.59 4.59 4.59 4.59-1.41 1.41-4.59-4.59-4.59 4.59-1.41-1.41 4.59-4.59-4.59-4.59 1.41-1.41 4.59 4.59 4.59-4.59zm5.85 1.59h-4.88v-1l.89-.82c.76-.64 1.32-1.18 1.7-1.63.37-.44.56-.85.57-1.23.01-.28-.08-.52-.27-.7-.18-.19-.47-.28-.86-.29-.31.01-.58.07-.84.17l-.66.39-.45-1.17c.27-.22.59-.39.98-.53s.82-.19 1.29-.19c.78 0 1.38.2 1.78.61.4.39.62.93.62 1.57-.01.56-.19 1.08-.54 1.55-.34.48-.76.93-1.27 1.36l-.64.52v.02h2.58z"/></svg>