<svg height="24" viewBox="0 0 24 24" width="24" xmlns="http://www.w3.org/2000/svg"><path d="m15.67 4.42c-.97-.58-2.09-.88-3.22-.86-1.58 0-2.79.78-2.79 2 0 1.4 1.34 1.91 3.34 2.58 2.5.81 4.4 1.83 4.4 4.24-.04 1.31-.71 2.51-1.8 3.23.65.61 1.01 1.47 1 2.36 0 2.82-2.6 4-5.1 4-1.46.06-2.91-.33-4.15-1.1l.65-1.53c1.04.71 2.27 1.09 3.53 1.1 1.72 0 3-.78 3-2.2 0-1.24-.78-1.93-3.28-2.79-2.75-.95-4.65-1.95-4.65-4.24.07-1.32.83-2.52 2-3.14-.63-.57-.99-1.4-1-2.26 0-2.36 2.17-3.81 4.93-3.81 1.29 0 2.56.29 3.7.89zm-4.32 9c1.06.33 2.09.76 3.06 1.29.65-.49 1.02-1.26 1-2.07 0-1-.64-1.88-2.41-2.5-1.11-.37-2.22-.83-3.28-1.37-.75.45-1.22 1.26-1.22 2.14 0 .97.73 1.77 2.85 2.51z"/></svg>