<svg height="24" viewBox="0 0 24 24" width="24" xmlns="http://www.w3.org/2000/svg"><path d="m16 7.41-4.59 4.59 4.59 4.59-1.41 1.41-4.59-4.59-4.59 4.59-1.41-1.41 4.59-4.59-4.59-4.59 1.41-1.41 4.59 4.59 4.59-4.59zm5.85 13.62h-4.88v-1l.89-.8c.76-.65 1.32-1.19 1.7-1.63.37-.44.56-.85.57-1.24.01-.28-.08-.51-.27-.7-.18-.16-.47-.28-.86-.28-.31 0-.58.06-.84.18l-.66.38-.45-1.17c.27-.21.59-.39.98-.53s.82-.24 1.29-.24c.78.04 1.38.25 1.78.66s.62.93.62 1.57c-.01.56-.19 1.08-.54 1.55-.34.47-.76.92-1.27 1.36l-.64.52v.02h2.58z"/></svg>