<svg height="24" viewBox="0 0 24 24" width="24" xmlns="http://www.w3.org/2000/svg"><path d="m7.5 2c-3.03 0-5.5 2.46-5.5 5.5v.5h2v-.5a3.5 3.5 0 0 1 3.5-3.5c1.5 0 2.76.93 3.26 2.24-.39-.16-.81-.24-1.26-.24-1.39 0-2.6.82-3.16 2l1.74 1c.21-.58.77-1 1.42-1a1.5 1.5 0 0 1 1.5 1.5v1.5h2v-1.5a1.5 1.5 0 0 1 1.5-1.5c.66 0 1.21.42 1.42 1l1.74-1c-.56-1.18-1.76-2-3.16-2-.45 0-.87.08-1.26.24.5-1.31 1.76-2.24 3.26-2.24a3.5 3.5 0 0 1 3.5 3.5v.5h2v-.5a5.5 5.5 0 0 0 -5.5-5.5c-1.86 0-3.5.93-4.5 2.34-1-1.41-2.64-2.34-4.5-2.34m-1.5 10v2h1.42c.5 1.15 1.43 2.07 2.58 2.57v2.43h-8s.82 1.23 1.41 2.11c.37.56.99.89 1.66.89h13.86c.67 0 1.29-.33 1.66-.89l1.41-2.11h-8c0-.81 0-1.62 0-2.43 1.15-.5 2.08-1.42 2.58-2.57h1.42v-2z"/></svg>