<svg height="24" viewBox="0 0 24 24" width="24" xmlns="http://www.w3.org/2000/svg"><path d="m18 15h-12l-4 4v-16a1 1 0 0 1 1-1h15a1 1 0 0 1 1 1v11a1 1 0 0 1 -1 1m5-6v14l-4-4h-11a1 1 0 0 1 -1-1v-1h14v-9h1a1 1 0 0 1 1 1m-14.81-5c-.87 0-1.57.2-2.11.59-.52.41-.78.98-.77 1.77l.01.03h1.93c.01-.3.1-.53.28-.69.18-.15.4-.23.66-.23.31 0 .57.1.75.28.18.19.26.45.26.75 0 .32-.07.59-.23.82-.14.23-.35.43-.61.59-.51.34-.86.64-1.05.91-.2.26-.31.68-.31 1.18h2c0-.31.04-.56.13-.74s.26-.36.51-.52c.45-.24.82-.53 1.11-.93s.44-.81.44-1.31c0-.76-.27-1.37-.81-1.82-.53-.45-1.26-.68-2.19-.68m-1.19 7v2h2v-2zm6 2h2v-2h-2zm0-9v6h2v-6z"/></svg>