<svg height="24" viewBox="0 0 24 24" width="24" xmlns="http://www.w3.org/2000/svg"><path d="m14.4 7.7c2-1.3 4.6-.7 4.6-.7-1.8-2.4-3.9-2.3-5.4-1.8v-.2c1.1-1.6 3.3-1.5 3.3-1.5-1.6-1.4-3-1-3.9-.5-.5-1.2-1-2-1-2-.4.7-.7 1.4-1 2.1-.9-.6-2.4-1-4 .4 0 0 2.3 0 3.4 1.7-1.5-.5-3.6-.6-5.4 1.8 0 0 2.6-.6 4.6.7-2.1 1.2-3.6 4-3.6 7.3 0 4.4 2.7 8 6 8s6-3.6 6-8c0-3.3-1.5-6.1-3.6-7.3m1.4 9.1c-.1.4-.2.8-.4 1.2l-1.4-2-1.5 2 1.6 2.1c-.3.2-.5.4-.8.6l-1.3-1.7-1.3 1.7c-.3-.1-.6-.3-.8-.6l1.6-2.1-1.5-2-1.5 1.9c-.1-.4-.3-.8-.4-1.2l1.4-1.7-1.3-1.8c.1-.4.2-.8.4-1.2l1.4 2 1.5-2-1.6-2.1c.3-.2.5-.4.8-.6l1.3 1.7 1.3-1.7c.3.1.6.3.8.6l-1.6 2.1 1.5 2 1.5-1.9c.1.4.3.8.4 1.2l-1.4 1.7zm-3.8-3.8 1.5 2-1.5 2-1.5-2z"/></svg>