<svg height="24" viewBox="0 0 24 24" width="24" xmlns="http://www.w3.org/2000/svg"><path d="m9 15.9c-2.1-.2-3.9-1-5-2.3-.8 0-1.6-.5-1.9-1.3s0-1.6.7-2.1c.1-3 2.8-6.1 6.9-7.5s8.3-.6 10.3 1.7c.8 0 1.6.5 1.9 1.3s0 1.6-.7 2.1c0 .8-.2 1.6-.6 2.4-1.2-.7-2.6-1.2-4.1-1.2-3.9 0-7.2 3-7.5 6.9m13 .6c0 3-2.5 5.5-5.5 5.5s-5.5-2.5-5.5-5.5 2.5-5.5 5.5-5.5 5.5 2.5 5.5 5.5m-8.7 1.5 2.3-1.5-2.3-1.5c-.2.5-.3 1-.3 1.5s.1 1 .3 1.5m2.7-.6-2.1 1.4c.5.6 1.3 1 2.1 1.2zm0-4.3c-.8.1-1.6.5-2.1 1.2l2.1 1.4zm1 2.5 2.1-1.4c-.5-.6-1.3-1-2.1-1.2zm2.1 3.2-2.1-1.4v2.5c.8-.1 1.6-.5 2.1-1.1m.9-2.3c0-.5-.1-1-.3-1.5l-2.3 1.5 2.3 1.5c.2-.5.3-1 .3-1.5z"/></svg>