<svg height="24" viewBox="0 0 24 24" width="24" xmlns="http://www.w3.org/2000/svg"><path d="m19 12c0-1.39-.95-2.53-2.22-2.88.14-.34.22-.72.22-1.12 0-1.66-1.34-3-3-3-.43 0-.83.1-1.19.26.19-1.07.58-2.67 1.59-3.06l-.8-1.2c-1.7.77-2.2 3.09-2.34 4.29-.39-.18-.81-.29-1.26-.29-1.66 0-3 1.34-3 3 0 .4.08.77.22 1.12-1.28.34-2.22 1.5-2.22 2.88 0 1.39.95 2.54 2.23 2.88-.14.34-.23.72-.23 1.12 0 1.39.94 2.54 2.22 2.88-.14.35-.22.73-.22 1.12 0 1.66 1.34 3 3 3s3-1.34 3-3c0-.39-.08-.77-.22-1.12 1.28-.34 2.22-1.49 2.22-2.88 0-.4-.08-.77-.23-1.12 1.28-.34 2.23-1.49 2.23-2.88m-2.69-2.12v.02h-.01zm-2.31-3.38c.83 0 1.5.67 1.5 1.5s-.67 1.5-1.5 1.5-1.5-.67-1.5-1.5.67-1.5 1.5-1.5m-.5 5.5c0 .83-.67 1.5-1.5 1.5s-1.5-.67-1.5-1.5.67-1.5 1.5-1.5 1.5.67 1.5 1.5m-3.5-5.5c.83 0 1.5.67 1.5 1.5s-.67 1.5-1.5 1.5-1.5-.67-1.5-1.5.67-1.5 1.5-1.5m-3.5 5.5c0-.83.67-1.5 1.5-1.5s1.5.67 1.5 1.5-.67 1.5-1.5 1.5-1.5-.67-1.5-1.5m2 4c0-.83.67-1.5 1.5-1.5s1.5.67 1.5 1.5-.67 1.5-1.5 1.5-1.5-.67-1.5-1.5m3.5 5.5c-.83 0-1.5-.67-1.5-1.5s.67-1.5 1.5-1.5 1.5.67 1.5 1.5-.67 1.5-1.5 1.5m2-4c-.83 0-1.5-.67-1.5-1.5s.67-1.5 1.5-1.5 1.5.67 1.5 1.5-.67 1.5-1.5 1.5m2-4c-.83 0-1.5-.67-1.5-1.5s.67-1.5 1.5-1.5 1.5.67 1.5 1.5-.67 1.5-1.5 1.5z"/></svg>