<svg height="24" viewBox="0 0 24 24" width="24" xmlns="http://www.w3.org/2000/svg"><path d="m22.1 21.5-19.7-19.8-1.3 1.3 3.3 3.3c-1 1.2-1.5 2.6-1.6 3.9-.7.5-1 1.3-.7 2.1s1.1 1.3 1.9 1.3c1.1 1.3 2.9 2.1 5 2.3.1-1.4.6-2.6 1.3-3.7l1.5 1.5c-.5.8-.8 1.8-.8 2.8 0 3 2.5 5.5 5.5 5.5 1 0 2-.3 2.8-.8l1.5 1.5zm-9.1-5c0-.5.1-.9.3-1.4l1.7 1.7-1.7 1.2c-.2-.5-.3-1-.3-1.5m.9 2.3 1.8-1.2.3.3v2.1c-.8-.2-1.6-.6-2.1-1.2m3.1 1.1v-1l.8.8c-.3.1-.5.2-.8.2m3-3.1v-.3c0-.5-.1-1-.3-1.5l-.9.6-.7-.7 1-.7c-.5-.6-1.3-1-2.1-1.2v.8l-2.4-2.4c.6-.2 1.3-.4 1.9-.4 3 0 5.5 2.5 5.5 5.5 0 .7-.1 1.3-.4 1.9zm-7-7-5.9-5.9c.8-.5 1.7-.9 2.6-1.2 4.1-1.4 8.3-.6 10.3 1.7.8 0 1.6.5 1.9 1.3s0 1.6-.7 2.1c0 .8-.2 1.6-.6 2.4-1.2-.7-2.6-1.2-4.1-1.2-1.2 0-2.4.3-3.5.8z"/></svg>