<svg height="24" viewBox="0 0 24 24" width="24" xmlns="http://www.w3.org/2000/svg"><path d="m12.42 5.29c-1.1-.1-2.07.71-2.17 1.82l-.25 2.89h2.82v2h-3l-.44 5.07c-.2 2.2-2.14 3.83-4.34 3.63-1.25-.11-2.38-.8-3.04-1.87l1.5-1.5c.33 1.05 1.46 1.64 2.5 1.3.78-.24 1.33-.93 1.4-1.74l.42-4.89h-3v-2h3.18l.27-3.07c.19-2.2 2.12-3.83 4.33-3.65 1.26.11 2.4.81 3.06 1.89l-1.5 1.5c-.25-.77-.93-1.31-1.74-1.38m9.58 8.36-1.41-1.41-2.83 2.83-2.83-2.83-1.43 1.41 2.85 2.85-2.85 2.81 1.43 1.41 2.83-2.83 2.83 2.83 1.41-1.41-2.83-2.81z"/></svg>