<svg height="24" viewBox="0 0 24 24" width="24" xmlns="http://www.w3.org/2000/svg"><path d="m8 5v2h-6v2h9.95c-.42 1.13-1.45 2.5-2.79 3.67-1.04-.93-1.81-1.85-2.34-2.67h-2.32c.58 1.25 1.63 2.62 3.12 3.96l-4.07 3.26-.79.62 1.24 1.57.8-.63 4.37-3.5 4.38 3.5.78.63 1.25-1.57-.78-.62-4.07-3.25c1.61-1.47 2.97-3.12 3.34-4.97h1.93v-2h-6v-2zm11.5 1c-1.38 0-2.5 1.12-2.5 2.5s1.12 2.5 2.5 2.5 2.5-1.12 2.5-2.5-1.12-2.5-2.5-2.5m-.03 7c-1.38 0-2.5 1.12-2.5 2.5s1.12 2.5 2.5 2.5 2.5-1.12 2.5-2.5-1.12-2.5-2.5-2.5z"/></svg>