<svg height="24" viewBox="0 0 24 24" width="24" xmlns="http://www.w3.org/2000/svg"><path d="m6 9h2v2h2v2h-2v2h-2v-2h-2v-2h2zm12.5 0a1.5 1.5 0 0 1 1.5 1.5 1.5 1.5 0 0 1 -1.5 1.5 1.5 1.5 0 0 1 -1.5-1.5 1.5 1.5 0 0 1 1.5-1.5m-3 3a1.5 1.5 0 0 1 1.5 1.5 1.5 1.5 0 0 1 -1.5 1.5 1.5 1.5 0 0 1 -1.5-1.5 1.5 1.5 0 0 1 1.5-1.5m1.5-7a7 7 0 0 1 7 7 7 7 0 0 1 -7 7c-1.96 0-3.73-.8-5-2.1-1.27 1.3-3.04 2.1-5 2.1a7 7 0 0 1 -7-7 7 7 0 0 1 7-7zm-10 2a5 5 0 0 0 -5 5 5 5 0 0 0 5 5c1.64 0 3.09-.79 4-2h2c.91 1.21 2.36 2 4 2a5 5 0 0 0 5-5 5 5 0 0 0 -5-5z"/></svg>