<svg height="24" viewBox="0 0 24 24" width="24" xmlns="http://www.w3.org/2000/svg"><path d="m21 6h1v-2h-1v-1h-3v1h-12v-1h-3v1h-1v2h1v14h-1v2h5v-2h-1v-14h5v1h.5v3.62c-.5.17-.81.63-.81 1.14 0 .44.23.84.61 1.06v1.18h.62c.34 0 .62.27.63.61 0 .35-.27.63-.62.63-.22 0-.43-.12-.54-.31-.17-.29-.55-.39-.84-.22-.29.16-.4.54-.23.84.33.57.94.92 1.6.92 1.02-.01 1.84-.85 1.83-1.87-.01-.77-.49-1.46-1.22-1.72v-.06c.59-.32.81-1.04.5-1.62-.11-.2-.29-.39-.5-.5v-3.7h.47v-1h5v14h-1v2h5v-2h-1zm-16 9.29v1.42l-1 1v-1.42zm-1 4.71v-.76l1-1v1.42l-.34.34zm0-12.71 1-1v1.42l-1 1zm0 3 1-1v1.42l-1 1zm0 3 1-1v1.42l-1 1v-1.47zm16 2v1.42l-1 1v-1.42zm-1 4.71v-.76l1-1v1.42l-.34.34zm0-12.71 1-1v1.42l-1 1zm0 3 1-1v1.42l-1 1zm0 3 1-1v1.42l-1 1v-1.47z"/></svg>