<svg height="24" viewBox="0 0 24 24" width="24" xmlns="http://www.w3.org/2000/svg"><path d="m12 2a10 10 0 0 0 -10 10 10 10 0 0 0 10 10 10 10 0 0 0 10-10 10 10 0 0 0 -10-10m0 2a8 8 0 0 1 8 8c0 2.4-1 4.5-2.7 6-1.4-1.3-3.3-2-5.3-2s-3.8.7-5.3 2c-1.7-1.5-2.7-3.6-2.7-6a8 8 0 0 1 8-8m2 1.89c-.38.01-.74.26-.9.65l-1.29 3.23-.1.23c-.71.13-1.3.6-1.57 1.26-.41 1.03.09 2.19 1.12 2.6s2.19-.09 2.6-1.12c.26-.66.14-1.42-.29-1.98l.1-.26 1.29-3.21.01-.03c.2-.51-.05-1.09-.56-1.3-.13-.05-.26-.07-.41-.07m-4 .11a1 1 0 0 0 -1 1 1 1 0 0 0 1 1 1 1 0 0 0 1-1 1 1 0 0 0 -1-1m-3 3a1 1 0 0 0 -1 1 1 1 0 0 0 1 1 1 1 0 0 0 1-1 1 1 0 0 0 -1-1m10 0a1 1 0 0 0 -1 1 1 1 0 0 0 1 1 1 1 0 0 0 1-1 1 1 0 0 0 -1-1z"/></svg>