<svg height="24" viewBox="0 0 24 24" width="24" xmlns="http://www.w3.org/2000/svg"><path d="m12 2a10 10 0 0 0 -10 10 10 10 0 0 0 10 10 10 10 0 0 0 10-10 10 10 0 0 0 -10-10m0 2a8 8 0 0 1 8 8c0 2.4-1 4.5-2.7 6-1.4-1.3-3.3-2-5.3-2s-3.8.7-5.3 2c-1.7-1.5-2.7-3.6-2.7-6a8 8 0 0 1 8-8m-2 2a1 1 0 0 0 -1 1 1 1 0 0 0 1 1 1 1 0 0 0 1-1 1 1 0 0 0 -1-1m4 0a1 1 0 0 0 -1 1 1 1 0 0 0 1 1 1 1 0 0 0 1-1 1 1 0 0 0 -1-1m3.09 2.94c-.13 0-.25.03-.39.06l-3.2 1.32-.27.11c-.56-.43-1.32-.55-1.98-.28-1.02.41-1.52 1.58-1.1 2.6.41 1.02 1.58 1.52 2.6 1.1.66-.26 1.13-.85 1.25-1.57l.23-.1 3.22-1.3.02-.01c.53-.21.76-.79.56-1.31-.16-.38-.53-.63-.94-.62m-10.09.06a1 1 0 0 0 -1 1 1 1 0 0 0 1 1 1 1 0 0 0 1-1 1 1 0 0 0 -1-1z"/></svg>