<svg height="24" viewBox="0 0 24 24" width="24" xmlns="http://www.w3.org/2000/svg"><path d="m4 1 3 3h-2v3h-2v-3h-2zm0 14-3-3h2v-3h2v3h2zm9-6a1 1 0 0 1 1-1 1 1 0 0 1 1 1v4.47l1.21.13 4.94 2.2c.52.24.85.76.85 1.34v4.36c-.03.82-.68 1.47-1.5 1.5h-6.5c-.38 0-.74-.15-1-.43l-4.9-4.2.74-.77c.19-.21.46-.32.74-.32h.22l3.2 1.72zm1-4c1.42 0 2.74.76 3.45 2 1.11 1.9.46 4.35-1.45 5.46v-1.23c.64-.56 1-1.38 1-2.23a3 3 0 0 0 -3-3 3 3 0 0 0 -3 3c0 .85.36 1.67 1 2.23v1.23c-1.23-.71-2-2.03-2-3.46a4 4 0 0 1 4-4m-5 9c.73 0 1.41.19 2 .54v1.22c-.53-.47-1.23-.76-2-.76a3 3 0 0 0 -3 3c0 1 .5 1.87 1.22 2.42l2.09 1.58h-.31a4 4 0 0 1 -4-4 4 4 0 0 1 4-4z"/></svg>