<svg height="24" viewBox="0 0 24 24" width="24" xmlns="http://www.w3.org/2000/svg"><path d="m13 5c2.21 0 4 1.79 4 4 0 1.5-.8 2.77-2 3.46v-1.22c.61-.55 1-1.35 1-2.24 0-1.66-1.34-3-3-3s-3 1.34-3 3c0 .89.39 1.69 1 2.24v1.22c-1.2-.69-2-1.96-2-3.46 0-2.21 1.79-4 4-4m7 15.5c-.03.82-.68 1.47-1.5 1.5h-5.5c-.38 0-.74-.15-1-.43l-4-4.2.74-.77c.19-.21.46-.32.76-.32h.2l2.3 1.72v-9c0-.55.45-1 1-1s1 .45 1 1v4.47l1.21.13 3.94 2.19c.53.24.85.77.85 1.35zm0-18.5h-16c-1.1 0-2 .9-2 2v8c0 1.11.9 2 2 2h4v-2h-4v-8h16v8h-2v2h2v-.04l.04.04c1.09 0 1.96-.91 1.96-2v-8c0-1.1-.89-2-2-2z"/></svg>