<svg height="24" viewBox="0 0 24 24" width="24" xmlns="http://www.w3.org/2000/svg"><path d="m19 15.14v6.36c-.03.82-.68 1.47-1.5 1.5h-6.5c-.38 0-.74-.15-1-.43l-4.9-4.2.74-.77c.19-.21.46-.32.74-.32h.22l3.2 1.72v-10a1 1 0 0 1 1-1 1 1 0 0 1 1 1v-2a1 1 0 0 1 1-1 1 1 0 0 1 1 1v5l4.15 1.84c.51.23.85.74.85 1.3m-6-12.14a4 4 0 0 1 4 4c0 1.5-.8 2.77-2 3.46v-1.22c.61-.55 1-1.35 1-2.24a3 3 0 0 0 -3-3c-1.35 0-2.5.9-2.87 2.13-1.23.37-2.13 1.52-2.13 2.87 0 .89.39 1.69 1 2.24v1.22c-1.2-.69-2-1.96-2-3.46 0-1.62.97-3 2.35-3.65.65-1.38 2.03-2.35 3.65-2.35m0-2a6 6 0 0 1 6 6c0 2.06-1.04 3.88-2.62 4.96l-1.12-.5c1.63-.82 2.74-2.51 2.74-4.46a5 5 0 0 0 -5-5c-1.89 0-3.54 1.05-4.39 2.61-1.56.85-2.61 2.5-2.61 4.39 0 2.05 1.23 3.81 3 4.58v1.08c-2.33-.83-4-3.05-4-5.66 0-2.17 1.15-4.07 2.88-5.12 1.05-1.73 2.95-2.88 5.12-2.88z"/></svg>