<svg height="24" viewBox="0 0 24 24" width="24" xmlns="http://www.w3.org/2000/svg"><path d="m20.11 3.89 1.89-1.89v5h-5l2.08-2.08c-.53-.69-1.44-1.26-2.72-1.73s-2.73-.69-4.36-.69c-1.62 0-3.08.22-4.36.69s-2.19 1.04-2.72 1.73l2.08 2.08h-5v-5l1.89 1.89c.75-.89 1.85-1.58 3.31-2.11 1.45-.53 3.05-.78 4.8-.78s3.35.25 4.8.78c1.46.53 2.56 1.22 3.31 2.11m-.38 12.38v.18l-.73 5.25c-.08.38-.24.69-.5.94-.27.25-.59.36-.97.36h-6.8c-.37 0-.73-.14-1.03-.45l-4.97-4.92.8-.8c.22-.22.47-.33.8-.33h.23l3.44.75v-10.75c0-.39.13-.74.43-1.04s.65-.46 1.07-.46c.39 0 .74.16 1.04.46s.46.65.46 1.04v6h.78c.1 0 .27.05.52.11l4.54 2.25c.6.28.89.75.89 1.41z"/></svg>