<svg height="24" viewBox="0 0 24 24" width="24" xmlns="http://www.w3.org/2000/svg"><path d="m19 15.14v6.36c-.03.82-.68 1.47-1.5 1.5h-6.5c-.38 0-.74-.15-1-.43l-4.9-4.2.74-.77c.19-.21.46-.32.74-.32h.22l3.2 1.72v-10a1 1 0 0 1 1-1 1 1 0 0 1 1 1v-2a1 1 0 0 1 1-1 1 1 0 0 1 1 1v5l4.15 1.84c.51.23.85.74.85 1.3m-4-4.69v-1.21-.01c.23-.2.42-.44.57-.69.27-.45.43-.98.43-1.54a3 3 0 0 0 -3-3c-.79 0-1.5.31-2.05.81l-.14.14c-.13.14-.25.29-.35.45s-.19.34-.26.52c-.03.08-.05.14-.07.21-1.23.37-2.13 1.52-2.13 2.87 0 .7.24 1.34.64 1.85.1.15.23.26.36.38v.01 1.22c-1.2-.69-2-1.96-2-3.46 0-1.62.97-3 2.35-3.65.65-1.38 2.03-2.35 3.65-2.35a4 4 0 0 1 4 4c0 1.5-.8 2.77-2 3.46z"/></svg>