<svg height="24" viewBox="0 0 24 24" width="24" xmlns="http://www.w3.org/2000/svg"><path d="m10 9a1 1 0 0 1 1-1 1 1 0 0 1 1 1v4.47l1.21.13 4.94 2.19c.53.24.85.77.85 1.35v4.36c-.03.82-.68 1.47-1.5 1.5h-6.5c-.38 0-.74-.15-1-.43l-4.9-4.2.74-.77c.19-.21.46-.32.74-.32h.22l3.2 1.72zm1-4a4 4 0 0 1 4 4c0 1.5-.8 2.77-2 3.46v-1.22c.61-.55 1-1.35 1-2.24a3 3 0 0 0 -3-3 3 3 0 0 0 -3 3c0 .89.39 1.69 1 2.24v1.22c-1.2-.69-2-1.96-2-3.46a4 4 0 0 1 4-4m0-2a6 6 0 0 1 6 6c0 1.7-.71 3.23-1.84 4.33l-1-.45c1.12-.92 1.84-2.32 1.84-3.88a5 5 0 0 0 -5-5 5 5 0 0 0 -5 5c0 2.05 1.23 3.81 3 4.58v1.08c-2.33-.83-4-3.05-4-5.66a6 6 0 0 1 6-6z"/></svg>