<svg height="24" viewBox="0 0 24 24" width="24" xmlns="http://www.w3.org/2000/svg"><path d="m4.59 6.89c.7-.71 1.41-1.35 1.71-1.22.5.2 0 1.03-.3 1.52-.25.42-2.86 3.89-2.86 6.31 0 1.28.48 2.34 1.36 3 .73.54 1.72.71 2.62.44 1.07-.31 1.95-1.4 3.06-2.77 1.21-1.49 2.82-3.44 4.08-3.44 1.63 0 1.65 1.01 1.74 1.77-3.76.66-5.36 3.69-5.36 5.39s1.44 3.11 3.21 3.11c1.65 0 4.29-1.35 4.69-6.12h2.46v-2.5h-2.47c-.15-1.65-1.09-4.2-4.03-4.2-2.25 0-4.18 1.91-4.94 2.82-.56.75-2.06 2.5-2.29 2.74-.27.3-.68.84-1.11.84-.45 0-.72-.83-.36-1.92.35-1.09 1.4-2.86 1.85-3.52.78-1.14 1.3-1.92 1.3-3.28 0-2.17-1.64-2.86-2.51-2.86-1.32 0-2.47 1-2.72 1.25-.36.36-.66.66-.88.93zm9.29 11.66c-.31 0-.74-.26-.74-.72 0-.6.73-2.2 2.86-2.76-.29 2.69-1.42 3.48-2.12 3.48z"/></svg>