<svg height="24" viewBox="0 0 24 24" width="24" xmlns="http://www.w3.org/2000/svg"><path d="m22 12v8a2 2 0 0 1 -2 2h-16a2 2 0 0 1 -2-2v-8a1 1 0 0 1 -1-1v-3a2 2 0 0 1 2-2h3.17c-.11-.31-.17-.65-.17-1a3 3 0 0 1 3-3c1 0 1.88.5 2.43 1.24v-.01l.57.77.57-.77v.01c.55-.74 1.43-1.24 2.43-1.24a3 3 0 0 1 3 3c0 .35-.06.69-.17 1h3.17a2 2 0 0 1 2 2v3a1 1 0 0 1 -1 1m-18 8h7v-8h-7zm16 0v-8h-7v8zm-11-16a1 1 0 0 0 -1 1 1 1 0 0 0 1 1 1 1 0 0 0 1-1 1 1 0 0 0 -1-1m6 0a1 1 0 0 0 -1 1 1 1 0 0 0 1 1 1 1 0 0 0 1-1 1 1 0 0 0 -1-1m-12 4v2h8v-2zm10 0v2h8v-2z"/></svg>