<svg height="24" viewBox="0 0 24 24" width="24" xmlns="http://www.w3.org/2000/svg"><path d="m21.94 13.11-1.05-3.22c0-.03-.01-.06-.02-.09l-2.11-6.48c-.11-.32-.43-.57-.8-.57-.36 0-.68.25-.79.58l-2 6.17h-6.33l-2.01-6.17c-.11-.33-.43-.58-.79-.58-.37 0-.69.25-.8.58l-2.11 6.49v.01l-1.07 3.28c-.16.5.01 1.04.44 1.34l9.22 6.71c.17.12.39.12.56-.01l9.22-6.7c.43-.3.6-.84.44-1.34m-13.79-2.66 2.57 7.91-6.17-7.91m8.73 7.92 2.47-7.59.1-.33h3.61l-5.59 7.16m4.1-13.67 1.81 5.56h-3.62m-1.3.95-1.79 5.51-1.07 3.28-2.86-8.79m-3.11-6.51 1.81 5.56h-3.61m-1.18 4.19c-.09-.07-.13-.19-.09-.29l.79-2.43 5.82 7.45m11.38-4.73-6.51 4.73.02-.03 5.79-7.42.79 2.43c.04.1 0 .22-.09.29"/></svg>