<svg height="24" viewBox="0 0 24 24" width="24" xmlns="http://www.w3.org/2000/svg"><path d="m3 10c-.24 0-.45.09-.59.25-.14.15-.2.37-.17.61l.5 2.99c.08.65.66 1.15 1.26 1.15h3c.64 0 1.36-.56 1.5-1.18l1.06-3.19c.04-.13.01-.32-.06-.44-.11-.12-.28-.19-.5-.19zm4 7h-3c-1.62 0-3.04-1.26-3.24-2.86l-.5-2.99c-.11-.85.13-1.65.65-2.23s1.28-.92 2.09-.92h6c.83 0 1.58.35 2.06.96.11.15.21.31.29.49.43-.09.87-.09 1.29 0 .08-.18.18-.34.3-.49.47-.61 1.22-.96 2.06-.96h6c.81 0 1.57.34 2.09.92.51.58.75 1.38.65 2.19l-.51 3.07c-.19 1.56-1.62 2.82-3.23 2.82h-3c-1.56 0-3.08-1.19-3.46-2.7l-.9-2.71c-.38-.28-.91-.28-1.29 0l-.92 2.78c-.36 1.45-1.87 2.63-3.43 2.63m8-7c-.22 0-.39.07-.5.19-.08.12-.1.31-.05.51l1.01 3.05c.18.69.9 1.25 1.54 1.25h3c.59 0 1.18-.5 1.25-1.11l.51-3.07c.03-.2-.03-.42-.17-.57-.14-.16-.35-.25-.59-.25z"/></svg>