<svg height="24" viewBox="0 0 24 24" width="24" xmlns="http://www.w3.org/2000/svg"><path d="m17.36 2.64-1.41 1.42c1.31 1.31 2.05 3.08 2.05 4.94a7 7 0 0 1 -7 7c-1.85 0-3.63-.74-4.94-2.05l-1.42 1.41c1.44 1.44 3.33 2.35 5.36 2.57v2.07h-4v2h10v-2h-4v-2.06c4.55-.51 8-4.36 8-8.94 0-2.38-.95-4.67-2.64-6.36m-6.36.86a5.5 5.5 0 0 0 -5.5 5.5 5.5 5.5 0 0 0 5.5 5.5 5.5 5.5 0 0 0 5.5-5.5 5.5 5.5 0 0 0 -5.5-5.5m0 2c1.94 0 3.5 1.57 3.5 3.5a3.5 3.5 0 0 1 -3.5 3.5 3.5 3.5 0 0 1 -3.5-3.5 3.5 3.5 0 0 1 3.5-3.5z"/></svg>