<svg height="24" viewBox="0 0 24 24" width="24" xmlns="http://www.w3.org/2000/svg"><path d="m18 10h-2.47l-1.15-1.72 1.42-.95-1.1-1.66-4.5 3 1.1 1.66 1.43-.95 1.15 1.74-.88.88h-2.8l-4.37-6.55-1.66 1.1 1.7 2.56c-2.83.54-4.87 3.01-4.87 5.89v2h2a3 3 0 0 0 3 3 3 3 0 0 0 3-3h6a3 3 0 0 0 3 3 3 3 0 0 0 3-3h2v-2a5 5 0 0 0 -5-5m-12 8.5a1.5 1.5 0 0 1 -1.5-1.5 1.5 1.5 0 0 1 1.5-1.5 1.5 1.5 0 0 1 1.5 1.5 1.5 1.5 0 0 1 -1.5 1.5m12 0a1.5 1.5 0 0 1 -1.5-1.5 1.5 1.5 0 0 1 1.5-1.5 1.5 1.5 0 0 1 1.5 1.5 1.5 1.5 0 0 1 -1.5 1.5z"/></svg>