<svg height="24" viewBox="0 0 24 24" width="24" xmlns="http://www.w3.org/2000/svg"><path d="m22 5.5a3.5 3.5 0 0 0 -3.5-3.5 3.5 3.5 0 0 0 -3.5 3.5v.5a3 3 0 0 1 -3 3c-2 0-3-3-6-3a4 4 0 0 0 -4 4v1h2v-1a2 2 0 0 1 2-2c.86 0 1.42.45 2.32 1.24.96 1.03 2.28 1.66 3.68 1.76a5 5 0 0 0 5-5v-.5a1.5 1.5 0 0 1 1.5-1.5 1.5 1.5 0 0 1 1.5 1.5c-.14.85-.42 1.68-.83 2.44-.67 1.26-1.06 2.64-1.17 4.06.09 1.37.5 2.71 1.21 3.89.39.65.66 1.36.79 2.11a2 2 0 0 1 -2 2 2 2 0 0 1 -2-2 3.75 3.75 0 0 0 -3.75-3.75 3.75 3.75 0 0 0 -3.75 3.75v.5a1.5 1.5 0 0 1 -1.5 1.5 3 3 0 0 1 -3-3v-2h2v-2h-6v2h2v2a5 5 0 0 0 5 5 3.5 3.5 0 0 0 3.5-3.5v-.5a1.75 1.75 0 0 1 1.75-1.75 1.75 1.75 0 0 1 1.75 1.75 4 4 0 0 0 4 4 4 4 0 0 0 4-4c0-2-2-4-2-6s2-4.5 2-6.5z"/></svg>