<svg height="24" viewBox="0 0 24 24" width="24" xmlns="http://www.w3.org/2000/svg"><path d="m4 3h16a2 2 0 0 1 2 2v14a2 2 0 0 1 -2 2h-16a2 2 0 0 1 -2-2v-14a2 2 0 0 1 2-2m6.46 2.54c-.51 0-.92.41-.92.92v3.08a.92.92 0 0 0 .92.92h3.08a.92.92 0 0 0 .92-.92v-3.08c0-.51-.41-.92-.92-.92zm.62 1.23h1.84a.31.31 0 0 1 .31.31v1.84a.31.31 0 0 1 -.31.31h-1.84a.31.31 0 0 1 -.31-.31v-1.84a.31.31 0 0 1 .31-.31m-6.16-1.23a.92.92 0 0 0 -.92.92v3.08c0 .51.41.92.92.92h2.16v-1.23h-1.54c-.17 0-.31-.14-.31-.31v-1.84c0-.17.14-.31.31-.31h1.84a.31.31 0 0 1 .31.31v3.69a.31.31 0 0 1 -.31.31h-3.38v1.23h4c.5 0 .92-.42.92-.93v-4.92a.92.92 0 0 0 -.92-.92zm11.08 0c-.5 0-.92.41-.92.92v3.08c0 .51.42.92.92.92h2.15v-1.23h-1.53c-.17 0-.31-.14-.31-.31v-1.84c0-.17.14-.31.31-.31h1.84c.17 0 .31.14.31.31v3.69c0 .17-.14.31-.31.31h-3.38v1.23h4c.51 0 .92-.42.92-.93v-4.92c0-.51-.41-.92-.92-.92zm-6.15 8c-.51 0-.93.41-.93.92v3.08c0 .51.42.92.93.92h3.07c.51 0 .93-.41.93-.92v-3.08c0-.51-.42-.92-.93-.92zm.61 1.23h1.85c.19 0 .31.14.31.31v1.84a.31.31 0 0 1 -.31.31h-1.85c-.17 0-.31-.14-.31-.31v-1.84a.31.31 0 0 1 .31-.31m-5.54-1.23c-.51 0-.92.41-.92.92v3.08c0 .51.41.92.92.92h3.39v-1.23h-2.77c-.17 0-.31-.14-.31-.31v-1.84c0-.17.14-.31.31-.31h2.77v-1.23zm10.46 0c-.51 0-.92.41-.92.92v4h1.23v-3.38a.31.31 0 0 1 .31-.31h.62v3.69h1.23v-3.69h.92v3.69h1.23v-4.92z"/></svg>