<svg height="24" viewBox="0 0 24 24" width="24" xmlns="http://www.w3.org/2000/svg"><path d="m7 19v-2h10v2h-2c-.5 0-1 .2-1.4.6s-.6.9-.6 1.4v1h-2v-1c0-.5-.2-1-.6-1.4s-.9-.6-1.4-.6zm4-13c0-.3.1-.5.3-.7s.4-.3.7-.3.5.1.7.3.3.4.3.7-.1.5-.3.7-.4.3-.7.3-.5-.1-.7-.3-.3-.4-.3-.7m2 2c0-.3.1-.5.3-.7s.4-.3.7-.3.5.1.7.3.3.4.3.7-.1.5-.3.7-.4.3-.7.3-.5-.1-.7-.3-.3-.4-.3-.7m-4 0c0-.3.1-.5.3-.7s.4-.3.7-.3.5.1.7.3.3.4.3.7-.1.5-.3.7-.4.3-.7.3-.5-.1-.7-.3-.3-.4-.3-.7m7.9-3.9c-1.4-1.4-3-2-4.9-2s-3.6.7-4.9 2-2.1 3-2.1 4.9.7 3.6 2 4.9 3 2 4.9 2 3.6-.7 4.9-2 2-3 2-4.9-.5-3.6-1.9-4.9m-1.4 8.4c-1 1-2.2 1.5-3.5 1.5s-2.6-.5-3.5-1.5-1.5-2.1-1.5-3.5.5-2.6 1.5-3.5 2.1-1.5 3.5-1.5 2.6.5 3.5 1.5 1.5 2.1 1.5 3.5-.5 2.6-1.5 3.5z"/></svg>