<svg height="24" viewBox="0 0 24 24" width="24" xmlns="http://www.w3.org/2000/svg"><path d="m18 10h-5v-2.41l9.12-1.52-.24-1.48-5.47.91c.05-.15.09-.32.09-.5a1.5 1.5 0 0 0 -1.5-1.5 1.5 1.5 0 0 0 -1.5 1.5c0 .35.13.68.34.93l-.84.14v-1.07h-2v1.41l-.59.09c.05-.15.09-.32.09-.5a1.5 1.5 0 0 0 -1.5-1.5 1.5 1.5 0 0 0 -1.5 1.5c0 .36.13.68.33.93l-5.95 1 .24 1.48 8.88-1.48v2.07h-5c-1.11 0-2 .9-2 2v6a2 2 0 0 0 2 2h12a2 2 0 0 0 2-2v-6a2 2 0 0 0 -2-2m-12 2h2.25v4h-2.25zm3.75 4v-4h4.5v4zm8.25 0h-2.25v-4h2.25z"/></svg>