<svg height="24" viewBox="0 0 24 24" width="24" xmlns="http://www.w3.org/2000/svg"><path d="m7.97 16-2.97 3c-.33.3-.77.5-1.25.5a1.75 1.75 0 0 1 -1.75-1.75v-.25l1-7.38c.21-2.31 2.14-4.12 4.5-4.12h9c2.36 0 4.29 1.81 4.5 4.12l1 7.38v.25a1.75 1.75 0 0 1 -1.75 1.75c-.48 0-.92-.2-1.25-.5l-2.97-3zm-.97-8v2h-2v1h2v2h1v-2h2v-1h-2v-2zm9.5 0a.75.75 0 0 0 -.75.75.75.75 0 0 0 .75.75.75.75 0 0 0 .75-.75.75.75 0 0 0 -.75-.75m-1.75 1.75a.75.75 0 0 0 -.75.75.75.75 0 0 0 .75.75.75.75 0 0 0 .75-.75.75.75 0 0 0 -.75-.75m3.5 0a.75.75 0 0 0 -.75.75.75.75 0 0 0 .75.75.75.75 0 0 0 .75-.75.75.75 0 0 0 -.75-.75m-1.75 1.75a.75.75 0 0 0 -.75.75.75.75 0 0 0 .75.75.75.75 0 0 0 .75-.75.75.75 0 0 0 -.75-.75z"/></svg>