<svg height="24" viewBox="0 0 24 24" width="24" xmlns="http://www.w3.org/2000/svg"><path d="m5 10a2 2 0 0 0 -2 2c0 1.11.9 2 2 2 1.11 0 2-.89 2-2a2 2 0 0 0 -2-2m0 6a4 4 0 0 1 -4-4 4 4 0 0 1 4-4 4 4 0 0 1 4 4 4 4 0 0 1 -4 4m5.5-5h3.5v-3l4 4-4 4v-3h-3.5zm-5.5-5c-.45 0-.89.05-1.31.14 1.94-3.09 5.39-5.14 9.31-5.14 6.08 0 11 4.92 11 11s-4.92 11-11 11c-3.92 0-7.37-2.05-9.31-5.14.42.09.86.14 1.31.14.8 0 1.56-.16 2.25-.44 1.46 1.51 3.49 2.44 5.75 2.44a8 8 0 0 0 8-8 8 8 0 0 0 -8-8c-2.26 0-4.29.93-5.75 2.44-.69-.28-1.45-.44-2.25-.44z"/></svg>