<svg height="24" viewBox="0 0 24 24" width="24" xmlns="http://www.w3.org/2000/svg"><path d="m2 5.27 1.28-1.27 16.72 16.72-1.27 1.28-6-6h-4.76l-2.97 3c-.33.3-.77.5-1.25.5a1.75 1.75 0 0 1 -1.75-1.75v-.25l1-7.38c.1-1.03.53-1.95 1.19-2.66zm3 4.73v1h2v2h1v-1.73l-1.27-1.27zm11.5-4c2.36 0 4.29 1.81 4.5 4.12l1 7.38v.25c0 .66-.36 1.25-.9 1.53l-13.28-13.28zm0 2a.75.75 0 0 0 -.75.75.75.75 0 0 0 .75.75.75.75 0 0 0 .75-.75.75.75 0 0 0 -.75-.75m-1.75 1.75a.75.75 0 0 0 -.75.75.75.75 0 0 0 .75.75.75.75 0 0 0 .75-.75.75.75 0 0 0 -.75-.75m3.5 0a.75.75 0 0 0 -.75.75.75.75 0 0 0 .75.75.75.75 0 0 0 .75-.75.75.75 0 0 0 -.75-.75m-1.75 1.75a.75.75 0 0 0 -.75.75.75.75 0 0 0 .75.75.75.75 0 0 0 .75-.75.75.75 0 0 0 -.75-.75z"/></svg>