<svg height="24" viewBox="0 0 24 24" width="24" xmlns="http://www.w3.org/2000/svg"><path d="m18 19c-1.11 0-2-.9-2-2 0-1.11.89-2 2-2a2 2 0 0 1 2 2 2 2 0 0 1 -2 2m0-6a4 4 0 0 0 -4 4 4 4 0 0 0 4 4 4 4 0 0 0 4-4 4 4 0 0 0 -4-4m-6-1.9a1.9 1.9 0 0 0 -1.9 1.9 1.9 1.9 0 0 0 1.9 1.9 1.9 1.9 0 0 0 1.9-1.9 1.9 1.9 0 0 0 -1.9-1.9m-6 7.9c-1.11 0-2-.9-2-2 0-1.11.89-2 2-2a2 2 0 0 1 2 2 2 2 0 0 1 -2 2m0-6a4 4 0 0 0 -4 4 4 4 0 0 0 4 4 4 4 0 0 0 4-4 4 4 0 0 0 -4-4m6-9a2 2 0 0 1 2 2 2 2 0 0 1 -2 2c-1.11 0-2-.9-2-2 0-1.11.89-2 2-2m0 6a4 4 0 0 0 4-4 4 4 0 0 0 -4-4 4 4 0 0 0 -4 4 4 4 0 0 0 4 4z"/></svg>