<svg height="24" viewBox="0 0 24 24" width="24" xmlns="http://www.w3.org/2000/svg"><path d="m11.95 9.27c2.01 0 3.64-1.63 3.64-3.64 0-2-1.63-3.63-3.64-3.63s-3.63 1.63-3.63 3.63c0 2.01 1.62 3.64 3.63 3.64m-2.59 3.7s-1.09 2.97-1.4 3.53c-.11.21-.09.27-.36.27s-.69-.27-.69-.27-.2-.13-.12-.36c.24-.74 1.33-5.06 1.56-5.89.25-.89.93-.86.93-.86h.65l2.1 3.65 2.11-3.65h.78s.31.04.54.31c.24.27.29.74.29.74l1.39 5.4s.1.38.07.49c-.04.17-.13.17-.13.17s-.39.12-.61.19c-.4.13-.47-.25-.47-.25l-1.3-3.4-.15 8.96h-1.95l-.33-5.11s-.06-.13-.24-.13c-.17 0-.23.13-.23.13l-.35 5.11h-1.95l-.13-9.03z"/></svg>