<svg height="24" viewBox="0 0 24 24" width="24" xmlns="http://www.w3.org/2000/svg"><path d="m17.68 7.22v1.4c0 .68-.55 1.24-1.25 1.24-.69 0-1.25-.56-1.25-1.24v-1.4a1.25 1.25 0 0 1 1.25-1.25c.7 0 1.25.56 1.25 1.25m-4.43 1.14v7.27c0 .69-.56 1.25-1.25 1.25s-1.25-.56-1.25-1.25v-7.27c0-.68.56-1.25 1.25-1.25s1.25.57 1.25 1.25m8.75 2.94v1.4c0 .68-.56 1.24-1.25 1.24s-1.25-.56-1.25-1.24v-1.4c0-.69.56-1.24 1.25-1.24s1.25.55 1.25 1.24m-17.5 0v1.4c0 .68-.56 1.24-1.25 1.24-.7 0-1.25-.56-1.25-1.24v-1.4c0-.69.55-1.24 1.25-1.24.69 0 1.25.55 1.25 1.24m4.32 4.08v1.39c0 .68-.56 1.23-1.25 1.23s-1.25-.55-1.25-1.23v-1.39c0-.7.56-1.25 1.25-1.25a1.25 1.25 0 0 1 1.25 1.25m4.43 3.98v1.39a1.25 1.25 0 0 1 -1.25 1.25 1.25 1.25 0 0 1 -1.25-1.25v-1.39a1.25 1.25 0 0 1 1.25-1.25 1.25 1.25 0 0 1 1.25 1.25m0-16.11v1.39a1.25 1.25 0 0 1 -1.25 1.25 1.25 1.25 0 0 1 -1.25-1.25v-1.39c0-.7.56-1.25 1.25-1.25a1.25 1.25 0 0 1 1.25 1.25m4.43 9.09v4.43c0 .69-.55 1.23-1.25 1.23-.69 0-1.25-.54-1.25-1.23v-4.43c0-.7.56-1.25 1.25-1.25.7 0 1.25.55 1.25 1.25m-8.86-5.12v4.43c0 .7-.56 1.25-1.25 1.25a1.25 1.25 0 0 1 -1.25-1.25v-4.43a1.25 1.25 0 0 1 1.25-1.25 1.25 1.25 0 0 1 1.25 1.25z"/></svg>