<svg height="24" viewBox="0 0 24 24" width="24" xmlns="http://www.w3.org/2000/svg"><path d="m23 14.75c0 3.45-2.8 6.25-6.25 6.25h-9.5c-3.45 0-6.25-2.8-6.25-6.25 0-2.14 1.08-4.03 2.71-5.15.87-3.78 4.25-6.6 8.29-6.6s7.42 2.82 8.29 6.6c1.64 1.12 2.71 3.01 2.71 5.15m-6.37 2.25c1.31 0 2.37-1.06 2.37-2.37 0-1.28-1-2.33-2.28-2.38l.03-.5c0-2.62-2.13-4.75-4.75-4.75-1.42 0-2.7.62-3.57 1.61 1.5.29 2.8 1.11 3.71 2.25l-2.64 2.64c-.42-.73-1.21-1.25-2.12-1.25-1.32 0-2.38 1.06-2.38 2.38 0 1.27 1 2.3 2.25 2.37z"/></svg>