<svg height="24" viewBox="0 0 24 24" width="24" xmlns="http://www.w3.org/2000/svg"><path d="m20.74 6h-17.54c-.65 0-1.2.57-1.2 1.27v10.46c0 .7.55 1.27 1.23 1.27h4.77c.54 0 1-.32 1.16-.79l1.39-3.47c.24-.58.8-.99 1.45-.99s1.21.41 1.45.99l1.39 3.47c.19.47.62.79 1.11.79h4.79c.71 0 1.26-.57 1.26-1.27v-10.46c0-.7-.55-1.27-1.26-1.27m-13.52 8.58c-1.22 0-2.22-1.03-2.22-2.29 0-1.29 1-2.29 2.22-2.29s2.21 1 2.21 2.29c0 1.26-.99 2.29-2.21 2.29m9.56 0c-1.22 0-2.21-1.03-2.21-2.29s.99-2.29 2.21-2.29 2.22 1.03 2.22 2.29-1 2.29-2.22 2.29z"/></svg>