<svg height="24" viewBox="0 0 24 24" width="24" xmlns="http://www.w3.org/2000/svg"><path d="m23 2h-22a1 1 0 0 0 -1 1v18a1 1 0 0 0 1 1h22a1 1 0 0 0 1-1v-18a1 1 0 0 0 -1-1m-1 18h-2v-1h-5v1h-13v-16h20zm-11.71-10.29a1.71 1.71 0 0 1 1.71-1.71c.95 0 1.71.77 1.71 1.71 0 .95-.76 1.72-1.71 1.72s-1.71-.77-1.71-1.72m-4.58 1.58c0-.71.58-1.29 1.29-1.29a1.29 1.29 0 0 1 1.29 1.29c0 .71-.58 1.28-1.29 1.28s-1.29-.57-1.29-1.28m10 0a1.29 1.29 0 0 1 1.29-1.29 1.29 1.29 0 0 1 1.29 1.29c0 .71-.58 1.28-1.29 1.28s-1.29-.57-1.29-1.28m4.29 3.85v.86h-4-2-4-2-4v-.86c0-.94 1.55-1.71 3-1.71.55 0 1.11.11 1.6.3.75-.69 2.1-1.16 3.4-1.16s2.65.47 3.4 1.16c.49-.19 1.05-.3 1.6-.3 1.45 0 3 .77 3 1.71z"/></svg>