<svg height="24" viewBox="0 0 24 24" width="24" xmlns="http://www.w3.org/2000/svg"><path d="m10 13c.55 0 1 .18 1.41.57.39.39.59.87.59 1.43v7c0 .17-.09.27-.28.27-.06 0-.14-.05-.22-.14l-4.5-4.46v-4.67zm2.5-11.12 4.5 4.45v4.67h-3c-.55 0-1-.18-1.41-.57-.39-.39-.59-.87-.59-1.43v-7c0-.17.09-.27.28-.27.06 0 .14.05.22.15m9.5 10.12c.17 0 .27.09.27.28 0 .06-.05.14-.14.22l-4.46 4.5h-4.67v-3c0-.55.18-1 .57-1.41.39-.39.87-.59 1.43-.59zm-15.67-5h4.67v3c0 .55-.18 1-.57 1.41-.39.39-.87.59-1.43.59h-7c-.17 0-.27-.09-.27-.28 0-.06.05-.14.15-.22z"/></svg>