<svg height="24" viewBox="0 0 24 24" width="24" xmlns="http://www.w3.org/2000/svg"><path d="m12 5.37-.44-.06-5.56 9.59c.24.21.4.48.47.78h11.06c.07-.3.23-.57.47-.78l-5.56-9.59zm-5.4 11.16 4.28 2.53c.29-.27.69-.43 1.12-.43s.83.16 1.12.43l4.28-2.53zm5.4 5.47a1.68 1.68 0 0 1 -1.68-1.68l.09-.56-4.3-2.55c-.31.36-.76.58-1.27.58a1.68 1.68 0 0 1 -1.68-1.68c0-.79.53-1.45 1.26-1.64v-5.11c-.83-.11-1.47-.82-1.47-1.68a1.68 1.68 0 0 1 1.68-1.68c.55 0 1.03.26 1.34.66l4.41-2.53-.06-.45c0-.93.75-1.68 1.68-1.68s1.68.75 1.68 1.68l-.06.45 4.41 2.53c.31-.4.79-.66 1.34-.66a1.68 1.68 0 0 1 1.68 1.68c0 .86-.64 1.57-1.47 1.68v5.11c.73.19 1.26.85 1.26 1.64a1.68 1.68 0 0 1 -1.68 1.68c-.51 0-.96-.22-1.27-.58l-4.3 2.55.09.56a1.68 1.68 0 0 1 -1.68 1.68m-1.2-17.14-4.5 2.58.02.24c0 .71-.44 1.32-1.06 1.57l.03 5.25zm2.4 0 5.51 9.64.03-5.25c-.62-.25-1.06-.86-1.06-1.57l.02-.24z"/></svg>