<svg height="24" viewBox="0 0 24 24" width="24" xmlns="http://www.w3.org/2000/svg"><path d="m19.5 17c-.14 0-.26 0-.39.04l-1.61-3.24c.45-.45.75-1.09.75-1.8 0-1.38-1.12-2.5-2.5-2.5-.14 0-.25 0-.4.04l-1.61-3.24c.47-.46.76-1.09.76-1.8 0-1.38-1.12-2.5-2.5-2.5s-2.5 1.12-2.5 2.5c0 .7.29 1.34.76 1.79l-1.61 3.25c-.15-.04-.26-.04-.4-.04-1.38 0-2.5 1.12-2.5 2.5 0 .71.29 1.34.75 1.79l-1.61 3.25c-.13-.04-.25-.04-.39-.04-1.38 0-2.5 1.12-2.5 2.5s1.12 2.5 2.5 2.5 2.5-1.12 2.5-2.5c0-.7-.29-1.34-.76-1.79l1.62-3.25c.14.04.26.04.39.04s.25 0 .38-.04l1.63 3.25c-.47.45-.76 1.09-.76 1.79 0 1.38 1.12 2.5 2.5 2.5s2.5-1.12 2.5-2.5-1.12-2.5-2.5-2.5c-.13 0-.26 0-.39.04l-1.61-3.24c.45-.45.75-1.09.75-1.8 0-.7-.29-1.33-.75-1.79l1.61-3.25c.13.04.26.04.39.04s.26 0 .39-.04l1.61 3.25c-.46.45-.75 1.09-.75 1.79 0 1.38 1.12 2.5 2.5 2.5.13 0 .25 0 .38-.04l1.63 3.25c-.47.45-.76 1.09-.76 1.79 0 1.38 1.12 2.5 2.5 2.5s2.5-1.12 2.5-2.5-1.12-2.5-2.5-2.5m-15 3.5c-.55 0-1-.45-1-1s.45-1 1-1 1 .45 1 1-.45 1-1 1m8.5-1c0 .55-.45 1-1 1s-1-.45-1-1 .45-1 1-1 1 .45 1 1m-5.75-7.5c0-.55.45-1 1-1s1 .45 1 1-.45 1-1 1-1-.45-1-1m3.75-7.5c0-.55.45-1 1-1s1 .45 1 1-.45 1-1 1-1-.45-1-1m3.75 7.5c0-.55.45-1 1-1s1 .45 1 1-.45 1-1 1-1-.45-1-1m4.75 8.5c-.55 0-1-.45-1-1s.45-1 1-1 1 .45 1 1-.45 1-1 1z"/></svg>