<svg height="24" viewBox="0 0 24 24" width="24" xmlns="http://www.w3.org/2000/svg"><path d="m17 22a3 3 0 1 0 -2.82-4h-5.04l1.99-3.06a6.36 6.36 0 0 0 1.74 0l1.02 1.56c.42-.5.96-.94 1.61-1.2l-.61-.93a7 7 0 0 0 4.11-6.37h-14a7 7 0 0 0 4.12 6.37l-3.95 6.08a1 1 0 0 0 1.67 1.09l1-1.54h6.34a3 3 0 0 0 2.82 2m0-4a1 1 0 0 1 1 1c0 .55-.45 1-1 1s-1-.45-1-1a1 1 0 0 1 1-1m-9.58-8h9.16a5 5 0 0 1 -9.16 0m1.99-3h1c.15-1.15.23-1.64-.91-2.96-.4-.5-.66-.77-.44-2.04h-.99a3.14 3.14 0 0 0 .89 2.96c.22.24.79.67.45 2.04m2.48 0h1c.15-1.15.23-1.64-.89-2.96-.42-.5-.68-.78-.46-2.04h-.99a3.14 3.14 0 0 0 .89 2.96c.23.24.8.67.45 2.04m2.52 0h1c.15-1.15.23-1.64-.91-2.96-.4-.5-.66-.77-.44-2.04h-.99a3.14 3.14 0 0 0 .89 2.96c.22.24.79.67.45 2.04z"/></svg>