<svg height="24" viewBox="0 0 24 24" width="24" xmlns="http://www.w3.org/2000/svg"><path d="m21 13a9 9 0 0 1 -9 9 9 9 0 0 1 -9-9l.03-8.57c2.65-1.55 5.73-2.43 9.02-2.43 3.25 0 6.31.87 8.95 2.38zm-8 6.93c3.39-.49 6-3.43 6-6.93v-7.41c-2.1-1.02-4.46-1.59-6.95-1.59-2.55 0-4.97.6-7.11 1.66l.06 7.34c0 3.5 2.63 6.44 6 6.93v-1.93h2zm-2-3.93h-3l-2-3 3 1h1l1-1h2l1 1h1l3-1-2 3h-3l-1-1zm-5-6.97c.64-.63 1.5-.98 2.5-.98.95 0 1.84.35 2.5.98-.66.62-1.55.97-2.5.97-1 0-1.86-.35-2.5-.97m7 0c.64-.63 1.5-.98 2.5-.98.95 0 1.84.35 2.5.98-.66.62-1.55.97-2.5.97-1 0-1.86-.35-2.5-.97z"/></svg>