<svg height="24" viewBox="0 0 24 24" width="24" xmlns="http://www.w3.org/2000/svg"><path d="m10 12.73a70.39 70.39 0 0 0 7-1.73v-7s-6.5-2-9.5-2a5.5 5.5 0 0 0 -1.38 10.82l.88 6.18h1a3 3 0 0 0 1.46 2.33 3.15 3.15 0 0 1 1.54 2.67h1a4.12 4.12 0 0 0 -1.91-3.45c-.7-.55-1.09-.92-1.09-1.55h1m-6-11.5a3.5 3.5 0 0 1 3.5-3.5 37.08 37.08 0 0 1 7.5 1.5v4a37.08 37.08 0 0 1 -7.5 1.5 3.5 3.5 0 0 1 -3.5-3.5m18 1.5a4.32 4.32 0 0 1 -2.22-.55 3.4 3.4 0 0 0 -1.78-.45v-1a4.32 4.32 0 0 1 2.22.55 3.4 3.4 0 0 0 1.78.45m0-2a3.4 3.4 0 0 1 -1.78-.45 4.32 4.32 0 0 0 -2.22-.55v1a3.4 3.4 0 0 1 1.78.45 4.32 4.32 0 0 0 2.22.55m0 3a3.4 3.4 0 0 1 -1.78-.45 4.32 4.32 0 0 0 -2.22-.55v1a3.4 3.4 0 0 1 1.78.45 4.32 4.32 0 0 0 2.22.55m-13-3.5a1.5 1.5 0 1 1 -1.5-1.5 1.5 1.5 0 0 1 1.5 1.5z"/></svg>