<svg height="24" viewBox="0 0 24 24" width="24" xmlns="http://www.w3.org/2000/svg"><path d="m6.5 6c.97 0 1.87.5 2.61 1.38.55-.59 1.2-1.02 1.89-1.23v-2.15a2 2 0 0 1 2-2h2v2h-2v2.15c.69.21 1.34.64 1.89 1.23.74-.88 1.64-1.38 2.61-1.38 2.5 0 4.5 3.36 4.5 7.5s-2 7.5-4.5 7.5c-.97 0-1.87-.5-2.61-1.38-.81.88-1.81 1.38-2.89 1.38s-2.08-.5-2.89-1.38c-.74.88-1.64 1.38-2.61 1.38-2.5 0-4.5-3.36-4.5-7.5s2-7.5 4.5-7.5m2.5 4-1.25 2.25h2.5zm6 0-1.25 2.25h2.5zm-7 7h2l1-1 1 1h2l1-1 1 1 1.5-3-3.58.62-.92 1.38-1-1h-2l-1 1-1-1-2-1z"/></svg>