<svg height="24" viewBox="0 0 24 24" width="24" xmlns="http://www.w3.org/2000/svg"><path d="m17.42 22.5h-12.09c-1.83 0-3.33-1.5-3.33-3.33v-6.09c0-.9.36-1.75 1-2.37l5.63-5.54s1.03 1.05 1.04 1.08c.16.18.25.41.25.66 0 .18-.05.35-.14.5-.01.03-1.78 2.59-1.78 2.59h10.67c.69 0 1.25.56 1.25 1.25s-.56 1.25-1.25 1.25h-5.84v.83h7.92c.69 0 1.25.56 1.25 1.25 0 .7-.56 1.25-1.25 1.25h-7.92v.84h7.09c.69 0 1.25.55 1.25 1.25 0 .69-.56 1.25-1.25 1.25h-7.09v.83h4.59c.69 0 1.25.56 1.25 1.25s-.56 1.25-1.25 1.25m-3.92-17.7s-1.5 1.66-1.5 2.7c0 2 3 2 3 0 0-1.04-1.5-2.7-1.5-2.7m5-3.8s-2.5 2.76-2.5 4.5c0 3.33 5 3.33 5 0 0-1.74-2.5-4.5-2.5-4.5z"/></svg>