<svg height="24" viewBox="0 0 24 24" width="24" xmlns="http://www.w3.org/2000/svg"><path d="m3 6.58v12.09c0 1.83 1.5 3.33 3.33 3.33h6.09c.9 0 1.75-.36 2.37-1l6.54-6.64s-1.05-1.03-1.08-1.04c-.18-.16-.41-.25-.66-.25-.18 0-.35.05-.5.14-.03.01-3.59 2.05-3.59 2.05v-9.93a1.25 1.25 0 0 0 -1.25-1.25 1.25 1.25 0 0 0 -1.25 1.25v5.84h-.83v-7.92a1.25 1.25 0 0 0 -1.25-1.25 1.25 1.25 0 0 0 -1.25 1.25v7.92h-.84v-7.09a1.25 1.25 0 0 0 -1.25-1.25 1.25 1.25 0 0 0 -1.25 1.25v7.09h-.83v-4.59a1.25 1.25 0 0 0 -1.25-1.25 1.25 1.25 0 0 0 -1.25 1.25z"/></svg>