<svg height="24" viewBox="0 0 24 24" width="24" xmlns="http://www.w3.org/2000/svg"><path d="m21 6.58v12.09a3.33 3.33 0 0 1 -3.33 3.33h-6.09c-.9 0-1.75-.36-2.37-1l-6.54-6.64s1.05-1.03 1.08-1.04c.18-.16.41-.25.66-.25.18 0 .35.05.5.14.03.01 3.59 2.05 3.59 2.05v-9.93a1.25 1.25 0 0 1 1.25-1.25 1.25 1.25 0 0 1 1.25 1.25v5.84h.83v-7.92a1.25 1.25 0 0 1 1.25-1.25c.7 0 1.25.56 1.25 1.25v7.92h.84v-7.09c0-.69.55-1.25 1.25-1.25a1.25 1.25 0 0 1 1.25 1.25v7.09h.83v-4.59a1.25 1.25 0 0 1 1.25-1.25 1.25 1.25 0 0 1 1.25 1.25z"/></svg>