<svg height="24" viewBox="0 0 24 24" width="24" xmlns="http://www.w3.org/2000/svg"><path d="m20.24 6.76c-1.84-1.85-4.59-2.23-6.82-1.17l-.96-.96c-.39-.39-1.02-.39-1.41 0l-.08.09c-.14-.97-.97-1.72-1.97-1.72-1.1 0-2 .9-2 2 0 .09 0 .18.03.26-.61.35-1.03.99-1.03 1.74 0 .46.16.87.42 1.21-.25.18-.42.46-.42.79v1.35c-2.33.82-4 3.04-4 5.65 0 3.31 2.69 6 6 6s6-2.69 6-6c0-2.61-1.67-4.83-4-5.65v-1.35c0-.33-.17-.61-.42-.79.26-.34.42-.75.42-1.21 0-.09 0-.18-.03-.26.18-.1.33-.24.46-.36.93.5 1.57 1.48 1.57 2.62v.08c.13.07.25.17.38.25.19-.42.45-.83.79-1.16 1.56-1.56 4.1-1.56 5.66 0s1.56 4.1 0 5.66c-.8.8-1.83 1.17-2.9 1.17.07.32.07.66.07 1s-.03.67-.07 1c1.57 0 3.12-.57 4.31-1.76 2.35-2.34 2.35-6.14 0-8.48m-11.24-2.76c.55 0 1 .45 1 1 0 .33-.17.61-.42.79-.36-.48-.93-.79-1.58-.79 0-.55.45-1 1-1m-1.58 2.21c.36.48.93.79 1.58.79 0 .55-.45 1-1 1s-1-.45-1-1c0-.33.17-.61.42-.79m4.58 9.79c0 2.21-1.79 4-4 4s-4-1.79-4-4 1.79-4 4-4 4 1.79 4 4z"/></svg>