<svg height="24" viewBox="0 0 24 24" width="24" xmlns="http://www.w3.org/2000/svg"><path d="m6 2h12a2 2 0 0 1 2 2v16a2 2 0 0 1 -2 2h-12a2 2 0 0 1 -2-2v-16a2 2 0 0 1 2-2m6 2a6 6 0 0 0 -6 6c0 3.31 2.69 6 6.1 6l-.88-2.23c-.27-.48-.11-1.09.37-1.37l.86-.5c.48-.27 1.09-.11 1.37.37l1.92 2.42c1.38-1.1 2.26-2.79 2.26-4.69a6 6 0 0 0 -6-6m0 5a1 1 0 0 1 1 1 1 1 0 0 1 -1 1 1 1 0 0 1 -1-1 1 1 0 0 1 1-1m-5 9a1 1 0 0 0 -1 1 1 1 0 0 0 1 1 1 1 0 0 0 1-1 1 1 0 0 0 -1-1m5.09-4.73 2.49 6.31 2.59-1.5-4.22-5.31z"/></svg>