<svg height="24" viewBox="0 0 24 24" width="24" xmlns="http://www.w3.org/2000/svg"><path d="m12 9a1 1 0 1 0 1 1 1 1 0 0 0 -1-1m0 0a1 1 0 1 0 1 1 1 1 0 0 0 -1-1m6-7h-12a2 2 0 0 0 -2 2v9.09a5.47 5.47 0 0 1 1-.09 5.71 5.71 0 0 1 2 .36 6 6 0 1 1 8.71 1.33l-1.92-2.42a1 1 0 0 0 -1.37-.37l-.86.5a1 1 0 0 0 -.37 1.37l.91 2.23a6.12 6.12 0 0 1 -2.1-.38 6 6 0 0 1 .19 6.38h7.81a2 2 0 0 0 2-2v-16a2 2 0 0 0 -2-2m-3.42 17.58-2.49-6.31.86-.5 4.22 5.31m-5.17-7.08a1 1 0 1 0 -1-1 1 1 0 0 0 1 1m-3 9h-3v3h-2v-3h-3v-2h3v-3h2v3h3z"/></svg>