<svg height="24" viewBox="0 0 24 24" width="24" xmlns="http://www.w3.org/2000/svg"><path d="m13 3c-3.77 0-6.81 2.95-7 6.66l-1.92 2.53c-.24.31 0 .81.42.81h1.5v3c0 1.11.89 2 2 2h1v3h7v-4.69c2.37-1.12 4-3.51 4-6.31 0-3.86-3.12-7-7-7m0 12v-1.5c-2.21 0-4-1.79-4-4 0-.82.25-1.58.67-2.21l1.09 1.09c-.17.34-.26.72-.26 1.12 0 1.38 1.12 2.5 2.5 2.5v-1.5l2.25 2.25zm3.33-3.29-1.09-1.09c.17-.34.26-.72.26-1.12 0-1.38-1.12-2.5-2.5-2.5v1.5l-2.25-2.25 2.25-2.25v1.5c2.21 0 4 1.79 4 4 0 .82-.25 1.58-.67 2.21z"/></svg>