<svg height="24" viewBox="0 0 24 24" width="24" xmlns="http://www.w3.org/2000/svg"><path d="m13 8.58c.78 0 1.44.61 1.44 1.42s-.66 1.44-1.44 1.44-1.42-.66-1.42-1.44.61-1.42 1.42-1.42m0-5.58c3.88 0 7 3.14 7 7 0 2.8-1.63 5.19-4 6.31v4.69h-7v-3h-1c-1.11 0-2-.89-2-2v-3h-1.5c-.42 0-.66-.5-.42-.81l1.92-2.53c.19-3.71 3.23-6.66 7-6.66m3 7c0-.16 0-.25-.06-.39l.89-.66c.05-.04.09-.18.05-.28l-.8-1.36c-.05-.09-.19-.14-.28-.09l-.99.42c-.18-.19-.42-.33-.65-.42l-.16-1.03c-.03-.14-.08-.19-.22-.19h-1.59c-.1 0-.19.05-.19.19l-.14 1.03c-.23.09-.47.23-.66.42l-1.03-.42c-.09-.05-.17 0-.23.09l-.8 1.36c-.05.14-.05.24.05.28l.84.66c0 .14-.03.28-.03.39 0 .13.03.27.03.41l-.84.65c-.1.05-.1.14-.05.24l.8 1.4c.06.1.14.1.23.1l.99-.43c.23.19.42.29.7.38l.14 1.08c0 .09.09.17.19.17h1.59c.14 0 .19-.08.22-.17l.16-1.08c.23-.09.47-.19.65-.37l.99.42c.09 0 .23 0 .28-.1l.8-1.4c.04-.1 0-.19-.05-.24l-.83-.65z"/></svg>