<svg height="24" viewBox="0 0 24 24" width="24" xmlns="http://www.w3.org/2000/svg"><path d="m13 3c-3.77 0-6.81 2.95-7 6.66l-1.92 2.53c-.24.31 0 .81.42.81h1.5v3c0 1.11.89 2 2 2h1v3h7v-4.69c2.37-1.12 4-3.51 4-6.31 0-3.86-3.12-7-7-7m4.06 6.57-1.96.52 1.44 1.45c.35.34.35.92 0 1.27s-.93.35-1.27 0l-1.46-1.44-.51 1.96c-.12.49-.62.77-1.09.64-.49-.13-.77-.62-.64-1.1l.53-1.97-1.97.53c-.48.13-.98-.15-1.1-.64-.13-.47.15-.97.64-1.09l1.96-.51-1.44-1.46c-.35-.34-.35-.91 0-1.27.35-.35.93-.35 1.27 0l1.45 1.44.52-1.96c.12-.48.61-.76 1.07-.64.5.13.78.62.66 1.11l-.53 1.96 1.96-.53c.49-.12.98.16 1.11.66.12.46-.16.95-.64 1.07z"/></svg>