<svg height="24" viewBox="0 0 24 24" width="24" xmlns="http://www.w3.org/2000/svg"><path d="m13 3c3.88 0 7 3.14 7 7 0 2.8-1.63 5.19-4 6.31v4.69h-7v-3h-1c-1.11 0-2-.89-2-2v-3h-1.5c-.42 0-.66-.5-.42-.81l1.92-2.53c.19-3.71 3.23-6.66 7-6.66m-2.68 4.39h1.93c.01-.3.1-.53.28-.69.18-.15.4-.23.66-.23.31 0 .57.1.75.28.18.19.26.45.26.75 0 .32-.07.59-.23.82-.14.23-.35.43-.61.59-.51.34-.86.64-1.05.91-.2.26-.31.68-.31 1.18h2c0-.31.04-.56.13-.74.09-.19.26-.36.51-.52.45-.24.82-.53 1.11-.93s.44-.81.44-1.31c0-.76-.27-1.37-.81-1.82-.53-.45-1.26-.68-2.19-.68-.87 0-1.57.2-2.11.59-.52.41-.78.98-.77 1.77zm1.68 6.61h2v-2h-2zm1-13c-4.59 0-8.39 3.42-8.94 7.9l-1.56 2.1h-.03l-.02.03c-.55.76-.62 1.76-.19 2.59.36.69 1 1.17 1.74 1.32v1.06c0 1.85 1.28 3.42 3 3.87v3.13h11v-5.5c2.5-1.67 4-4.44 4-7.5 0-4.97-4.04-9-9-9z"/></svg>