<svg height="24" viewBox="0 0 24 24" width="24" xmlns="http://www.w3.org/2000/svg"><path d="m7.5 4a5.5 5.5 0 0 0 -5.5 5.5c0 .5.09 1 .22 1.5h4.08l1.27-3.37c.3-.8 1.48-.88 1.86 0l2.07 5.37.59-1.42c.13-.33.48-.58.91-.58h8.78c.13-.5.22-1 .22-1.5a5.5 5.5 0 0 0 -5.5-5.5c-1.86 0-3.5.93-4.5 2.34-1-1.41-2.64-2.34-4.5-2.34zm-4.5 8.5a1 1 0 0 0 -1 1 1 1 0 0 0 1 1h2.44l5.56 5.5c1 .9 1 .9 2 0l5.56-5.5h2.44a1 1 0 0 0 1-1 1 1 0 0 0 -1-1h-7.6l-.93 2.3c-.4 1.01-1.55.87-1.92.03l-2.05-5.33-.96 2.33c-.15.38-.49.67-.94.67z"/></svg>