<svg height="24" viewBox="0 0 24 24" width="24" xmlns="http://www.w3.org/2000/svg"><path d="m10.25 2c.19 0 .36.11.44.26l2.22 3.96.09.28-.09.28-2.22 3.96c-.08.15-.25.26-.44.26h-4.5c-.19 0-.36-.11-.44-.26l-2.22-3.96-.09-.28.09-.28 2.22-3.96c.08-.15.25-.26.44-.26zm0 11c.19 0 .36.11.44.26l2.22 3.96.09.28-.09.28-2.22 3.96c-.08.15-.25.26-.44.26h-4.5c-.19 0-.36-.11-.44-.26l-2.22-3.96-.09-.28.09-.28 2.22-3.96c.08-.15.25-.26.44-.26zm9.25-5.5c.19 0 .36.11.44.26l2.22 3.96.09.28-.09.28-2.22 3.96c-.08.15-.25.26-.44.26h-4.5c-.19 0-.36-.11-.44-.26l-2.22-3.96-.09-.28.09-.28 2.22-3.96c.08-.15.25-.26.44-.26z"/></svg>