<svg height="24" viewBox="0 0 24 24" width="24" xmlns="http://www.w3.org/2000/svg"><path d="m9.37 4 1.41 2.5-1.41 2.5h-2.74l-1.4-2.5 1.4-2.5zm.88-2h-4.5c-.19 0-.36.11-.44.26l-2.22 3.96-.09.28.09.28 2.22 3.96c.08.15.25.26.44.26h4.5c.19 0 .36-.11.44-.26l2.22-3.96.09-.28-.09-.28-2.22-3.96c-.08-.15-.25-.26-.44-.26m8.37 7.5 1.38 2.5-1.38 2.5h-2.74l-1.38-2.5 1.38-2.5zm.88-2h-4.5c-.19 0-.36.11-.44.26l-2.22 3.96-.09.28.09.28 2.22 3.96c.08.15.25.26.44.26h4.5c.19 0 .36-.11.44-.26l2.22-3.96.09-.28-.09-.28-2.22-3.96c-.08-.15-.25-.26-.44-.26m-10.13 7.5 1.41 2.5-1.41 2.5h-2.74l-1.4-2.5 1.4-2.5zm.88-2h-4.5c-.19 0-.36.11-.44.26l-2.22 3.96-.09.28.09.28 2.22 3.96c.08.15.25.26.44.26h4.5c.19 0 .36-.11.44-.26l2.22-3.96.09-.28-.09-.28-2.22-3.96c-.08-.15-.25-.26-.44-.26z"/></svg>