<svg height="24" viewBox="0 0 24 24" width="24" xmlns="http://www.w3.org/2000/svg"><path d="m21.8 13h-1.8v8h-7v-3.33l2.79-2.79.71.12c1.16 0 2.1-.94 2.1-2.1s-.94-2.1-2.1-2.1a2.1 2.1 0 0 0 -2.1 2.1l.1.71-1.5 1.52v-5.48c.66-.36 1.1-1.05 1.1-1.85a2.1 2.1 0 0 0 -2.1-2.1 2.1 2.1 0 0 0 -2.1 2.1c0 .8.44 1.49 1.1 1.85v5.48l-1.5-1.52.1-.71a2.1 2.1 0 0 0 -2.1-2.1 2.1 2.1 0 0 0 -2.1 2.1 2.1 2.1 0 0 0 2.1 2.1l.71-.12 2.79 2.79v3.33h-7v-8h-1.75c-.42 0-.83 0-.83-.21.01-.22.43-.64.86-1.07l8.72-8.72c.33-.33.67-.67 1-.67s.67.34 1 .67l4 4v-1h2v3l2.78 2.78c.4.4.81.81.82 1.02 0 .2-.4.2-.8.2m-14.3-1a.9.9 0 0 1 .9.9.9.9 0 0 1 -.9.9.9.9 0 0 1 -.9-.9.9.9 0 0 1 .9-.9m9 0c.5 0 .9.4.9.9s-.4.9-.9.9a.9.9 0 0 1 -.9-.9.9.9 0 0 1 .9-.9m-4.5-5.1c.5 0 .9.4.9.9s-.4.9-.9.9-.9-.4-.9-.9.4-.9.9-.9z"/></svg>