<svg height="24" viewBox="0 0 24 24" width="24" xmlns="http://www.w3.org/2000/svg"><path d="m21 12s-8.5-2-8.5-10c0 0 8.5 0 8.5 10m-18 0c0-10 8.5-10 8.5-10 0 8-8.5 10-8.5 10m9-5.5s1 2.16 3 4c-.24 3.66-3 5.5-3 5.5s-2.76-1.84-3-5.5c2-1.84 3-4 3-4m8.75 6.75s-.75 3.75-2.75 5.75c0 0-2.47-1.64-3.67-4.19.72-1.23 1.17-2.69 1.42-3.68 1.38 1.05 3 1.87 5 2.12m-5.25 5c-1 2-3.5 3.5-3.5 3.5s-2.5-1.5-3.5-3.5c0 0 1.09-.91 1.85-2.45.47.55 1.01.99 1.65 1.2.64-.21 1.18-.65 1.65-1.2.76 1.54 1.85 2.45 1.85 2.45m-12.25-5c2-.25 3.62-1.07 5-2.12.25.99.7 2.45 1.42 3.68-1.2 2.55-3.67 4.19-3.67 4.19-2-2-2.75-5.75-2.75-5.75z"/></svg>