<svg height="24" viewBox="0 0 24 24" width="24" xmlns="http://www.w3.org/2000/svg"><path d="m7 4a2 2 0 0 1 2 2 2 2 0 0 1 -2 2 2 2 0 0 1 -2-2 2 2 0 0 1 2-2m4.15 8h10.85v8a2 2 0 0 1 -2 2h-16a2 2 0 0 1 -2-2v-8h3v-.75c0-1.25 1-2.25 2.25-2.25h.03c.34 0 .67.09.96.23.26.12.5.27.69.5l1.4 1.55c.23.26.51.5.82.72m-4.15 8v-6h-2v6zm4 0v-6h-2v6zm4 0v-6h-2v6zm4 0v-6h-2v6zm-.35-14.14c1.03 1 1.51 2.35 1.3 3.71l-.06.43h-1.89l.09-.59c.15-.79-.09-1.58-.67-2.2l-.07-.06c-1.03-1.01-1.5-2.36-1.3-3.72l.06-.43h1.89l-.09.59c-.15.79.09 1.58.67 2.2zm-4 0c1.03 1 1.51 2.35 1.3 3.71l-.06.43h-1.89l.09-.59c.15-.79-.09-1.58-.67-2.2l-.07-.06c-1.03-1.01-1.5-2.36-1.3-3.72l.06-.43h1.89l-.09.59c-.15.79.09 1.58.67 2.2z"/></svg>