<svg height="24" viewBox="0 0 24 24" width="24" xmlns="http://www.w3.org/2000/svg"><path d="m17.1 8.6v-2.4c.6-.3 1.1-.9 1.1-1.6v-.1c0-1-.8-1.8-1.8-1.8h-.1c-1 0-1.8.8-1.8 1.8v.1c0 .7.4 1.3 1.1 1.6v2.4c-.9.1-1.8.5-2.5 1.1l-6.6-5.1c.3-1.1-.4-2.3-1.5-2.5s-2.2.3-2.5 1.4.4 2.3 1.5 2.6c.5.1 1.1.1 1.6-.2l6.4 5c-1.2 1.8-1.2 4.1.1 5.9l-2 2c-.2 0-.3-.1-.5-.1-.9 0-1.7.8-1.7 1.7s.8 1.6 1.7 1.6 1.7-.8 1.7-1.7c0-.2 0-.3-.1-.5l1.9-1.9c2.3 1.7 5.6 1.3 7.3-1s1.3-5.6-1-7.3c-.6-.5-1.4-.9-2.3-1m-.8 7.8c-1.5 0-2.7-1.2-2.7-2.7s1.2-2.7 2.7-2.7 2.7 1.2 2.7 2.7-1.2 2.7-2.7 2.7"/></svg>