<svg height="24" viewBox="0 0 24 24" width="24" xmlns="http://www.w3.org/2000/svg"><path d="m5.68 19.74c1.48 1.21 3.32 2.01 5.32 2.21v-2.02c-1.46-.18-2.79-.76-3.9-1.62m5.9 1.62v2.02c2-.2 3.84-1 5.32-2.21l-1.43-1.43c-1.1.86-2.43 1.44-3.89 1.62m5.31-3.03 1.43 1.43c1.21-1.48 2.01-3.33 2.21-5.33h-2.02c-.18 1.46-.76 2.79-1.62 3.9m-3.31-4.9a3 3 0 0 0 -3-3 3 3 0 0 0 -3 3 3 3 0 0 0 3 3 3 3 0 0 0 3-3m-10.93 1h-2.02c.2 2 1 3.84 2.21 5.32l1.43-1.43c-.86-1.1-1.44-2.43-1.62-3.89m1.62-5.9-1.43-1.42c-1.21 1.48-2.01 3.32-2.21 5.32h2.02c.18-1.46.76-2.79 1.62-3.9m14.24 3.9h2.02c-.2-2-1-3.84-2.21-5.32l-1.43 1.42c.86 1.11 1.44 2.44 1.62 3.9m-1.61-6.74c-1.48-1.21-3.32-2.01-5.32-2.21v2.02c1.46.18 2.79.76 3.9 1.62m-5.9-1.62v-2.02c-2 .2-3.84 1-5.32 2.21l1.42 1.43c1.11-.86 2.44-1.44 3.9-1.62z"/></svg>