<svg height="24" viewBox="0 0 24 24" width="24" xmlns="http://www.w3.org/2000/svg"><path d="m12 3c-2.69 0-4.59 1.22-4.59 1.22l-1.41 4.78h12l-1.41-4.78s-1.9-1.22-4.59-1.22m0 8c-2.73 0-6.61.54-6.87.59-1.04.28-1.88.56-2.54.82-1.01.34-1.59.59-1.59.59h22s-.58-.25-1.59-.59c-.66-.26-1.52-.54-2.57-.82 0 0-4.02-.59-6.84-.59m-4.5 3a3.5 3.5 0 0 0 -3.5 3.5 3.5 3.5 0 0 0 3.5 3.5 3.5 3.5 0 0 0 3.5-3.5c0-.16 0-.32-.03-.47.32-.07.66-.13 1.03-.12.37 0 .71.05 1.03.12-.03.15-.03.31-.03.47a3.5 3.5 0 0 0 3.5 3.5 3.5 3.5 0 0 0 3.5-3.5 3.5 3.5 0 0 0 -3.5-3.5c-1.47 0-2.73.9-3.25 2.19-.32-.1-.7-.19-1.25-.19s-.93.09-1.25.19c-.52-1.29-1.78-2.19-3.25-2.19m0 1a2.5 2.5 0 0 1 2.5 2.5 2.5 2.5 0 0 1 -2.5 2.5 2.5 2.5 0 0 1 -2.5-2.5 2.5 2.5 0 0 1 2.5-2.5m9 0a2.5 2.5 0 0 1 2.5 2.5 2.5 2.5 0 0 1 -2.5 2.5 2.5 2.5 0 0 1 -2.5-2.5 2.5 2.5 0 0 1 2.5-2.5z"/></svg>