<svg height="24" viewBox="0 0 24 24" width="24" xmlns="http://www.w3.org/2000/svg"><path d="m14.3 11.1c2.3.2 4.5.5 4.5.5 1 .3 1.9.6 2.6.8 1 .3 1.6.6 1.6.6h-6.8zm5.6 5.6c-.3-1.3-1.3-2.3-2.6-2.6zm2.2 4.8-1.3 1.3-2.4-2.4c-.6.4-1.2.6-2 .6-1.9 0-3.5-1.6-3.5-3.5v-.5c-.3-.1-.7-.1-1-.1-.4 0-.7.1-1 .1v.5c0 1.9-1.6 3.5-3.5 3.5s-3.4-1.6-3.4-3.5 1.6-3.5 3.5-3.5c1.5 0 2.7.9 3.2 2.2.3-.1.7-.2 1.2-.2s.9.1 1.2.2c.1-.2.2-.5.4-.7l-2.4-2.5h-10.1s.6-.2 1.6-.6c.7-.3 1.5-.5 2.5-.8.2 0 2.1-.3 4.1-.5l-2.1-2.1h-1.1l.3-.9-5.2-5.1 1.3-1.3zm-12.1-4c0-1.4-1.1-2.5-2.5-2.5s-2.5 1.1-2.5 2.5 1.1 2.5 2.5 2.5 2.5-1.1 2.5-2.5m7.8 2.1-3.4-3.4c-.3.4-.4.8-.4 1.3 0 1.4 1.1 2.5 2.5 2.5.5 0 .9-.1 1.3-.4m.2-10.6-1.4-4.8s-1.9-1.2-4.6-1.2-4.5 1.2-4.6 1.2l4.8 4.8z"/></svg>