<svg height="24" viewBox="0 0 24 24" width="24" xmlns="http://www.w3.org/2000/svg"><path d="m18.6 6.62c2.98 0 5.4 2.38 5.4 5.38 0 2.96-2.42 5.37-5.4 5.37-1.45 0-2.8-.56-3.82-1.57l-2.78-2.46-2.83 2.51c-.97.97-2.33 1.53-3.77 1.53-2.98 0-5.4-2.42-5.4-5.38s2.42-5.38 5.4-5.38c1.44 0 2.8.56 3.82 1.58l2.78 2.46 2.83-2.51c.97-.97 2.33-1.53 3.77-1.53m-10.8 7.77 2.7-2.39-2.66-2.35c-.68-.68-1.53-1.03-2.44-1.03-1.87 0-3.4 1.51-3.4 3.38s1.53 3.38 3.4 3.38c.91 0 1.76-.35 2.4-.99m8.4-4.78-2.7 2.39 2.66 2.35c.68.68 1.54 1.03 2.44 1.03 1.87 0 3.4-1.51 3.4-3.38s-1.53-3.38-3.4-3.38c-.91 0-1.76.35-2.4.99z"/></svg>