<svg height="24" viewBox="0 0 24 24" width="24" xmlns="http://www.w3.org/2000/svg"><path d="m7.8 2h8.4c3.2 0 5.8 2.6 5.8 5.8v8.4a5.8 5.8 0 0 1 -5.8 5.8h-8.4c-3.2 0-5.8-2.6-5.8-5.8v-8.4a5.8 5.8 0 0 1 5.8-5.8m-.2 2a3.6 3.6 0 0 0 -3.6 3.6v8.8c0 1.99 1.61 3.6 3.6 3.6h8.8a3.6 3.6 0 0 0 3.6-3.6v-8.8c0-1.99-1.61-3.6-3.6-3.6zm9.65 1.5a1.25 1.25 0 0 1 1.25 1.25 1.25 1.25 0 0 1 -1.25 1.25 1.25 1.25 0 0 1 -1.25-1.25 1.25 1.25 0 0 1 1.25-1.25m-5.25 1.5a5 5 0 0 1 5 5 5 5 0 0 1 -5 5 5 5 0 0 1 -5-5 5 5 0 0 1 5-5m0 2a3 3 0 0 0 -3 3 3 3 0 0 0 3 3 3 3 0 0 0 3-3 3 3 0 0 0 -3-3z"/></svg>