<svg height="24" viewBox="0 0 24 24" width="24" xmlns="http://www.w3.org/2000/svg"><path d="m19.5 14.5c-.58-.07-1.07.42-1 1 0 .67-1 .67-1 0v-2.3l1.7-.5c.72-.34 1.21-1.02 1.3-1.8 0-5.4-3.8-8.9-8.5-8.9s-8.5 3.5-8.5 8.9c.06.8.56 1.5 1.3 1.8l1.7.5v2.3a.5.5 0 0 1 -.5.5.5.5 0 0 1 -.5-.5c.07-.58-.42-1.07-1-1-.58-.07-1.07.42-1 1-.06 1.41 1.09 2.56 2.5 2.5 1.41.06 2.56-1.09 2.5-2.5v-1.8h1v5.7c0 .67-1 .67-1 0 .07-.58-.42-1.07-1-1-.58-.07-1.07.42-1 1-.12 1.44 1.05 2.67 2.5 2.6 1.41.06 2.56-1.09 2.5-2.5v-5.5h1v5.5c-.06 1.41 1.09 2.56 2.5 2.5 1.41.06 2.56-1.09 2.5-2.5 0-1.33-2-1.33-2 0 0 .67-1 .67-1 0v-5.7h1v1.8c0 1.36 1.13 2.46 2.5 2.4 1.41.06 2.56-1.09 2.5-2.5.07-.58-.42-1.07-1-1m-8.9-9.8c-1.51.33-2.81 1.27-3.6 2.6-.17.2-.5.27-.7.1-.22-.17-.26-.48-.1-.7.96-1.51 2.47-2.58 4.2-3 .27-.02.51.15.6.4.06.27-.12.55-.4.6z"/></svg>