<svg height="24" viewBox="0 0 24 24" width="24" xmlns="http://www.w3.org/2000/svg"><path d="m12 4c3.8 0 6.5 2.8 6.5 6.8-4.19 1.59-8.81 1.59-13 0 0-4 2.7-6.8 6.5-6.8m0-2c-4.7 0-8.5 3.5-8.5 8.9.06.8.56 1.5 1.3 1.8l1.7.5v2.3a.5.5 0 0 1 -.5.5.5.5 0 0 1 -.5-.5c.07-.58-.42-1.07-1-1-.58-.07-1.07.42-1 1-.06 1.36 1.04 2.5 2.4 2.5h.1c1.41.06 2.56-1.09 2.5-2.5v-1.8h1v5.7c0 .67-1 .67-1 0 .07-.58-.42-1.07-1-1-.58-.07-1.07.42-1 1-.11 1.4 1 2.6 2.4 2.6h.1c1.41.06 2.56-1.09 2.5-2.5v-5.5h1v5.5c-.06 1.41 1.09 2.56 2.5 2.5h.1c1.37 0 2.46-1.14 2.4-2.5 0-1.33-2-1.33-2 0 0 .67-1 .67-1 0v-5.7h1v1.8c0 1.36 1.13 2.46 2.5 2.4h.1c1.37 0 2.46-1.14 2.4-2.5 0-1.33-2-1.33-2 0 0 .67-1 .67-1 0v-2.3l1.7-.5c.72-.34 1.21-1.02 1.3-1.8 0-5.4-3.8-8.9-8.5-8.9m0 4.2c-1.47.4-2.76 1.33-3.6 2.6-.4.53-1.2-.07-.8-.6 1-1.47 2.49-2.53 4.2-3 .28-.06.55.12.6.4.1.3-.1.5-.4.6z"/></svg>