<svg height="24" viewBox="0 0 24 24" width="24" xmlns="http://www.w3.org/2000/svg"><path d="m22.88 10.41c-2.11 1.77-5.27 1.49-7.04-.62-1.78-2.12-1.5-5.29.61-7.04l.51-.38c-1.69 1.82-1.8 4.66-.16 6.63 1.63 1.94 4.45 2.32 6.54.97zm-1.78 4.09c-3.17 2.67-7.9 2.26-10.56-.92-2.67-3.17-2.25-7.9.92-10.58l.92-.64c-2.42 2.73-2.54 6.9-.12 9.78 2.42 2.86 6.54 3.49 9.65 1.58zm-1.13 4.88c-4.44 3.73-11.07 3.15-14.8-1.3-3.72-4.44-3.14-11.08 1.3-14.79l1.11-.79c-3.51 3.8-3.73 9.73-.3 13.82 3.43 4.08 9.31 4.9 13.68 2.11z"/></svg>