<svg height="24" viewBox="0 0 24 24" width="24" xmlns="http://www.w3.org/2000/svg"><path d="m21 4.5v6c0 .7-.5 1.4-1.2 1.5v5.3c0 1.3-.8 3.8-3.8 3.8h-1.5c.4-.4.8-.9 1-1.5h.5c2.1 0 2.2-1.9 2.2-2.2v-5.4c-.7-.1-1.2-.7-1.2-1.5v-6c0-.8.7-1.5 1.5-1.5h1c.8 0 1.5.7 1.5 1.5m-6.2 13.7c0 1.5-1.2 2.8-2.8 2.8h-4c-3 0-3.8-2.5-3.8-3.8v-5.2c-.7-.1-1.2-.8-1.2-1.5v-6c0-.8.7-1.5 1.5-1.5h1c.8 0 1.5.7 1.5 1.5v6c0 .7-.5 1.4-1.2 1.5v5.3c0 .4.1 2.2 2.2 2.2h1.6c-.2-.4-.3-.8-.3-1.2v-10c0-1.5 1.2-2.8 2.8-2.8s2.7 1.2 2.7 2.8m-1.6-.1c0-.6-.5-1.2-1.2-1.2s-1.2.6-1.2 1.2v10c0 .7.6 1.2 1.2 1.2s1.2-.6 1.2-1.2z"/></svg>