<svg height="24" viewBox="0 0 24 24" width="24" xmlns="http://www.w3.org/2000/svg"><path d="m19 11-3-3-2.1 2.1c-1.32-.72-2.85-1.1-4.4-1.1-1.85 0-3.55.53-4.95 1.41-.36-.44-.55-.91-.55-1.41 0-1.79 2.46-3.25 5.5-3.25 1.43 0 2.8.33 3.83.92l2.02-2.02c-1.58-1.06-3.67-1.65-5.85-1.65-4.69 0-8.5 2.69-8.5 6 0 1.19.5 2.34 1.44 3.33-.91 1.17-1.44 2.63-1.44 4.17v3.5c0 1.11.89 2 2 2h13c1.11 0 2-.89 2-2v-3.5c0-1.22-.34-2.43-1-3.5zm-14 6.5v2.5h-2v-2.5c0-3.59 2.91-6.5 6.5-6.5.34 0 .67.04 1 .09-3.11.48-5.5 3.16-5.5 6.41m18-10.2c0 1.63-1.09 3.3-2.62 3.67l-.67-.68-.71-.69h.75c1 0 1.75-1.38 1.75-2.4s-.85-2.06-1.85-2.06v-1.5c1.85 0 3.35 1.81 3.35 3.66m-5.35-.57c-.62-.61-1-1.45-1-2.38 0-1.85 1.5-3.35 3.35-3.35v1.5c-1 0-1.85.83-1.85 1.85s.85 1.85 1.85 1.85v1.5c-.82 0-1.58.25-2.21.68l-1.07-1.07c.28-.22.6-.42.93-.58z"/></svg>