<svg height="24" viewBox="0 0 24 24" width="24" xmlns="http://www.w3.org/2000/svg"><path d="m22.1 21.5-19.7-19.8-1.3 1.3 3.6 3.6c-.4.7-.7 1.5-.7 2.4 0 1.2.5 2.3 1.4 3.3-.9 1.2-1.4 2.7-1.4 4.2v3.5c0 1.1.9 2 2 2h13c.3 0 .6-.1.9-.2l.9.9zm-13.9-11.4-.6.3c-.4-.4-.6-.9-.6-1.4v-.1zm-2.2 9.9v-3.5c0-1.8 1.6-3.9 3.7-4.9l1.2 1.2c-1.8.6-2.9 2-2.9 4.2v1h2v-1c0-.8 0-2.5 1.4-3.7l6.7 6.7zm10.9-9.9 2.1-2.1 3 3-2 2c.7 1.1 1 2.3 1 3.5v1.3l-2.1-2.1c-.4-1.8-2.1-3.6-4.3-4.3l-2.4-2.4c1.6-.1 3.2.3 4.7 1.1m-7.4-3.8-2.1-2.1c1.4-.7 3.2-1.2 5.1-1.2 2.1 0 4.1.5 5.8 1.7l-2 2c-1-.6-2.4-1-3.8-1-1.1 0-2.2.2-3 .6z"/></svg>