<svg height="24" viewBox="0 0 24 24" width="24" xmlns="http://www.w3.org/2000/svg"><path d="m22.1 21.5-19.7-19.8-1.3 1.3 3.6 3.6c-.4.7-.7 1.5-.7 2.4 0 1.2.5 2.3 1.4 3.3-.9 1.2-1.4 2.7-1.4 4.2v3.5c0 1.1.9 2 2 2h13c.3 0 .6-.1.9-.2l.9.9zm-13.9-11.4-.6.3c-.4-.4-.6-.9-.6-1.4v-.1zm-.2 7.4v2.5h-2v-2.5c0-2.6 1.5-4.8 3.7-5.9l.8.8c-1.5 1.2-2.5 3-2.5 5.1m8.9-7.4 2.1-2.1 3 3-2 2c.7 1.1 1 2.3 1 3.5v1.3l-8.8-8.8h.3c1.5 0 3.1.4 4.4 1.1m-7.4-3.8-2.1-2.1c1.4-.7 3.2-1.2 5.1-1.2 2.2 0 4.3.6 5.8 1.7l-2 2c-1-.6-2.4-.9-3.8-.9-1.1 0-2.1.1-3 .5z"/></svg>