<svg height="24" viewBox="0 0 24 24" width="24" xmlns="http://www.w3.org/2000/svg"><path d="m9.5 3c-4.7 0-8.5 2.7-8.5 6 0 1.2.5 2.3 1.4 3.3-.9 1.2-1.415 2.7-1.4 4.2v3.5c0 1.1.9 2 2 2h13c1.11 0 2-.89 2-2v-3.5c0-1.2-.3-2.4-1-3.5l2-2-3-3-2.1 2.1c-2.93-1.6-6.48-1.47-9.3.3-.38-.37-.6-.87-.6-1.4 0-1.8 2.5-3.3 5.5-3.3 1.4 0 2.8.4 3.8 1l2-2c-1.71-1.15-3.74-1.74-5.8-1.7m0 8c3.5 0 6.5 3 6.5 5.5v3.5h-13v-3.5c0-2.5 3-5.5 6.5-5.5m.5 1.5c-3 0-5 1.5-5 4.5v1h2v-1c0-1 0-3.5 3-4.5m13-5.2c0 1.63-1.09 3.3-2.62 3.67l-.67-.68-.71-.69h.75c1 0 1.75-1.38 1.75-2.4s-.85-2.06-1.85-2.06v-1.5c1.85 0 3.35 1.81 3.35 3.66m-5.35-.57c-.62-.61-1-1.45-1-2.38 0-1.85 1.5-3.35 3.35-3.35v1.5c-1 0-1.85.83-1.85 1.85s.85 1.85 1.85 1.85v1.5c-.82 0-1.58.25-2.21.68l-1.07-1.07c.28-.22.6-.42.93-.58z"/></svg>