<svg height="24" viewBox="0 0 24 24" width="24" xmlns="http://www.w3.org/2000/svg"><path d="m6.5 2c1.96 0 3.63 1.25 4.24 3h11.26v3h-4v3h-3v-3h-4.26c-.61 1.75-2.28 3-4.24 3-2.5 0-4.5-2-4.5-4.5s2-4.5 4.5-4.5m0 3a1.5 1.5 0 0 0 -1.5 1.5 1.5 1.5 0 0 0 1.5 1.5 1.5 1.5 0 0 0 1.5-1.5 1.5 1.5 0 0 0 -1.5-1.5m0 8c1.96 0 3.63 1.25 4.24 3h11.26v3h-2v3h-2v-3h-2v3h-3v-3h-2.26c-.61 1.75-2.28 3-4.24 3-2.5 0-4.5-2-4.5-4.5s2-4.5 4.5-4.5m0 3a1.5 1.5 0 0 0 -1.5 1.5 1.5 1.5 0 0 0 1.5 1.5 1.5 1.5 0 0 0 1.5-1.5 1.5 1.5 0 0 0 -1.5-1.5z"/></svg>