<svg height="24" viewBox="0 0 24 24" width="24" xmlns="http://www.w3.org/2000/svg"><path d="m16 20c3.72-2 6-4.73 6-8 0-2.66-1.54-5.1-4.11-7h-.07c1.18 1.35 1.86 3.09 1.86 5 0 3-1.68 5-4.18 6.83 0 .01-1.12.71-2.5 1.58v-1.08l2-1.33s-.2-.6-.42-1.54c2.02-.88 3.42-2.77 3.42-4.96 0-2.16-1.36-4.03-3.35-4.93.19-.94.35-1.57.35-1.57l-3-2-3 2s.16.63.35 1.57c-1.98.9-3.35 2.77-3.35 4.93 0 2.19 1.4 4.08 3.42 4.96-.22.94-.42 1.54-.42 1.54l2 1.33v1.08c-1.38-.87-2.5-1.57-2.5-1.58-2.5-1.83-4.18-3.83-4.18-6.83 0-1.91.68-3.65 1.86-5h-.06c-2.58 1.9-4.12 4.34-4.12 7 0 3.27 2.29 6 6 8l1-1.5 1.92 1.23-3.58 2.27.66 1 3-1.93v1.93h2v-1.93l3 1.93.66-1-3.58-2.27 1.92-1.23zm.75-10.5c0 1.59-.99 2.96-2.44 3.69-.17-.96-.31-2.07-.31-3.19 0-1.33.2-2.85.42-4.14 1.39.74 2.33 2.09 2.33 3.64m-9.5 0c0-1.55.94-2.9 2.34-3.64.21 1.29.41 2.81.41 4.14 0 1.12-.14 2.23-.31 3.19-1.45-.73-2.44-2.1-2.44-3.69z"/></svg>