<svg height="24" viewBox="0 0 24 24" width="24" xmlns="http://www.w3.org/2000/svg"><path d="m13.95 13.5h-.23c-.18.11-.26.32-.18.5l.86 2.11c.83-.53 1.46-1.32 1.79-2.25l-2.23-.36zm-3.45.29c-.06-.17-.21-.29-.38-.29h-.08l-2.22.37c.33.92.96 1.7 1.79 2.23l.85-2.07v-.03c.04-.05.04-.14.04-.21m1.83.81c-.1-.18-.33-.25-.51-.15-.07.05-.12.08-.15.15h-.01l-1.09 1.97c.78.26 1.62.31 2.43.12.14-.03.29-.07.43-.12l-1.09-1.97zm3.45-4.57-1.68 1.47.01.03c-.16.14-.18.38-.04.53.05.06.11.1.18.12l.01.01 2.17.62c.07-.97-.14-1.95-.65-2.78m-3.11.16c.01.21.18.37.39.36.08 0 .15-.02.21-.05h.01l1.83-1.31c-.7-.69-1.61-1.12-2.57-1.24zm-1.94.31c.17.11.4.08.52-.09.05-.06.07-.13.08-.21h.01l.12-2.25c-.15.02-.3.05-.46.08-.8.18-1.54.58-2.12 1.16l1.84 1.31zm-.99 1.69c.2-.05.32-.26.26-.46 0-.08-.05-.14-.11-.19v-.01l-1.68-1.53c-.52.86-.74 1.84-.63 2.82l2.16-.62zm1.64.66.62.3.62-.3.15-.67-.43-.53h-.69l-.43.53zm10.89 1.32-1.77-7.67c-.09-.42-.37-.76-.74-.94l-7.17-3.43c-.37-.17-.81-.17-1.19 0l-7.16 3.43c-.37.18-.65.52-.74.94l-1.77 7.67c-.05.2-.05.4 0 .59.01.06.03.12.05.18.03.09.08.19.13.27.03.04.05.08.09.11l4.95 6.18c.02 0 .05.04.05.06.1.09.19.16.28.22.12.08.26.14.4.17.11.05.23.05.32.05h8.12c.07 0 .14-.03.2-.05.05-.01.1-.03.14-.04.04-.02.07-.03.11-.05.05-.02.1-.05.15-.08.12-.08.23-.18.33-.28l.15-.2 4.8-5.98c.1-.12.17-.25.22-.38.02-.06.04-.12.05-.18.05-.19.05-.4 0-.59m-7.43 2.99c.02.06.04.12.07.17-.04.08-.06.17-.03.26.12.24.23.46.38.68.08.11.16.23.24.34 0 .03.03.08.04.12.12.2.06.46-.15.59s-.47.05-.59-.15c-.01-.03-.02-.05-.03-.08-.02-.03-.04-.09-.06-.09-.05-.15-.09-.28-.12-.41-.09-.25-.17-.49-.3-.72-.05-.07-.13-.12-.21-.14l-.08-.16c-1.29.48-2.7.48-3.97-.01l-.1.18c-.07.01-.14.04-.19.09-.14.24-.24.49-.33.77-.03.13-.07.26-.12.4-.02 0-.04.07-.06.1-.08.22-.32.34-.55.26-.22-.08-.34-.32-.26-.55.01-.03.03-.05.04-.08.04-.03.04-.08.04-.11.09-.12.16-.23.24-.35.16-.21.29-.45.39-.69.01-.08 0-.17-.03-.25l.07-.18c-1.17-.7-2.05-1.79-2.47-3.09l-.2.03c-.06-.05-.15-.09-.23-.09-.27.05-.51.13-.77.22-.11.06-.24.11-.37.15-.03.01-.07.02-.13.03-.22.07-.46-.05-.54-.27-.07-.23.04-.47.28-.55.02 0 .05-.01.08-.01v-.01h.01l.11-.02c.14-.04.28-.04.41-.04.26 0 .52-.06.77-.12.08-.05.14-.11.19-.19l.19-.05c-.21-1.36.1-2.73.86-3.87l-.14-.12c0-.09-.03-.18-.08-.25-.2-.17-.41-.32-.64-.45-.12-.06-.24-.13-.36-.21-.02-.02-.06-.05-.08-.07l-.01-.01c-.2-.16-.25-.42-.11-.63.09-.1.21-.15.35-.15.11.01.21.05.3.12l.09.07c.1.09.19.2.28.3.18.19.37.37.58.52.08.04.17.05.26.03l.15.11c.75-.8 1.73-1.36 2.8-1.6.25-.06.52-.1.78-.12l.01-.18c.07-.06.11-.13.14-.23.01-.26-.01-.52-.05-.77-.03-.13-.05-.27-.06-.41v-.12c-.02-.24.15-.45.39-.48s.44.15.47.38v.22c-.01.14-.03.28-.06.41-.04.25-.06.51-.05.77.02.1.07.17.14.22l.01.19c1.36.12 2.62.73 3.56 1.72l.16-.12c.09.02.18.01.26-.03.21-.15.41-.33.58-.52.09-.1.18-.2.28-.3.03-.02.07-.06.1-.06.17-.18.44-.18.59 0 .19.16.18.43 0 .6 0 .02-.03.04-.06.06-.02.02-.06.05-.09.07-.11.08-.23.15-.35.21-.23.13-.45.28-.64.45-.06.07-.09.15-.08.24l-.16.14c.77 1.13 1.08 2.51.88 3.86l.19.05c.04.08.11.14.19.18.25.07.51.11.77.14h.41c.03.03.08.04.12.05.24.03.4.25.37.49-.05.23-.24.4-.48.37-.03-.01-.07-.01-.07-.02v-.01c-.06 0-.1-.01-.14-.02-.13-.04-.25-.09-.36-.15-.26-.1-.5-.17-.77-.21-.09 0-.17 0-.23.08-.07-.01-.13-.02-.19-.03-.41 1.31-1.31 2.41-2.47 3.11z"/></svg>