<svg height="24" viewBox="0 0 24 24" width="24" xmlns="http://www.w3.org/2000/svg"><path d="m19.8 16.7s1.8-.2 1.8-2.4-2.1-2.5-2.1-2.5h-3.8v7.2h1.9v-1.7l1.7 1.7h2.7zm-.8-1.4h-1.5v-1.6h1.5s.4.2.4.8c.1.6-.4.8-.4.8m2.3-7.1v.2c-8.1-2.3-11.3 4.8-10.7 10.3 0 0-5.7 0-6.3 0 .7-5.4 7.5-16.1 17-10.5m-.8-1.3c-.7-.3-1.4-.6-2.1-.8l.1-1.3 2.1.8zm-2 1.8c.7 0 1.4.1 2.1.3l-.1 1.2-1.8-.2zm-4.6-2.9-.4-1.2 2.1-.2.4 1.3c-.2 0-1.9.1-2.1.1m1.3 3.7c.4-.2 1.1-.5 2-.7l.4 1.2-1.8.7zm-3.4-3c-.6.3-1.2.6-1.8 1l-.8-1.3 1.8-1zm2.5 3.6.8 1.2-1.1 1.3-1.1-1c.3-.6.8-1.1 1.4-1.5m-2.7 4.9c.1-.8.3-1.5.6-2.3l1.2 1-.3 1.9zm-3.7-5.7c-.5.5-1 1.1-1.4 1.6l-1.3-1.1 1.5-1.6zm-3.1 4.4c-.4.8-.7 1.6-1 2.3l-1.8-.7.9-2.3zm6.7 2.6 1.8.6.3 2-2-.5c0-.2-.1-.9-.1-2.1z"/></svg>