<svg height="24" viewBox="0 0 24 24" width="24" xmlns="http://www.w3.org/2000/svg"><path d="m19.14 7.5a2.86 2.86 0 0 1 2.86 2.86v3.78a2.86 2.86 0 0 1 -2.86 2.86h-7.14c0 .39.32.96.71.96h4.29v1.68a2.86 2.86 0 0 1 -2.86 2.86h-4.28a2.86 2.86 0 0 1 -2.86-2.86v-3.75c0-1.58 1.28-2.85 2.86-2.85h5.25c1.58 0 2.85-1.28 2.85-2.86v-2.68zm-4.28 11.79c-.4 0-.72.3-.72.89s.32.71.72.71a.71.71 0 0 0 .71-.71c0-.59-.32-.89-.71-.89m-10-1.79c-1.58 0-2.86-1.28-2.86-2.86v-3.78c0-1.58 1.28-2.86 2.86-2.86h7.14c0-.39-.32-.96-.71-.96h-4.29v-1.68c0-1.58 1.28-2.86 2.86-2.86h4.28c1.58 0 2.86 1.28 2.86 2.86v3.75c0 1.58-1.28 2.85-2.86 2.85h-5.25c-1.58 0-2.85 1.28-2.85 2.86v2.68zm4.28-11.79c.4 0 .72-.3.72-.89s-.32-.71-.72-.71c-.39 0-.71.12-.71.71s.32.89.71.89z"/></svg>