<svg height="24" viewBox="0 0 24 24" width="24" xmlns="http://www.w3.org/2000/svg"><path d="m16.93 7.9 2.38 4.1-2.36 4.09-.62-1.09 1.47-2.5c.17-.31.17-.67 0-.96l-1.48-2.54zm-.01-1.33c-.03 0-.07.02-.09.05l-1.27 2.25c-.06.07-.06.13 0 .22l1.62 2.81c.04.07.04.15 0 .22l-1.61 2.79c-.04.06-.04.15 0 .22l1.28 2.23c.02.04.06.06.09.06.06 0 .06-.02.1-.06l2.96-5.13c.08-.14.08-.31 0-.44l-3-5.17c0-.03-.04-.05-.08-.05m4.99 5.1-4.68-8.09c-.12-.2-.34-.33-.57-.33h-9.38c-.23 0-.45.13-.57.33l-4.71 8.09c-.09.2-.09.46 0 .66l4.71 8.09c.12.2.34.33.57.33h9.38c.23 0 .45-.13.57-.33l4.68-8.09c.12-.2.12-.45 0-.66m-14.61-7.72h8.82l-4.36 7.7h-4.83l3.94-6.83c.04-.07-.01-.16-.09-.16l-2.57-.01c-.08 0-.15.05-.21.11l-3.96 6.89h-1.2zm-1.13 8.51 3.57 6.17h-1.24l-3.63-6.28-.2-.35.2-.35 3.63-6.28h1.23l-3.56 6.16c-.02.04-.04.08-.06.12-.08.23-.08.48.01.7.01.04.03.08.05.11m1.13 7.59-4.45-7.7h1.2l3.98 6.88c.04.07.11.11.19.11h2.57c.08 0 .13-.09.09-.16l-3.94-6.83h4.83l4.4 7.7zm9.5-.3-4.43-7.75 4.41-7.79 4.51 7.79z"/></svg>