<svg height="24" viewBox="0 0 24 24" width="24" xmlns="http://www.w3.org/2000/svg"><path d="m21.7 6.53c.01.02.01.05.01.08v4.29c0 .1-.06.22-.15.27l-3.61 2.08v4.11c0 .11-.05.21-.15.27l-7.52 4.33c-.02.01-.04.04-.06.04h-.02c-.05 0-.11 0-.16 0-.01 0-.04 0-.04 0s0-.03-.04-.04l-7.52-4.33c-.09-.05-.15-.16-.15-.27v-12.86c0-.05 0-.08.01-.1 0-.01.01-.02.01-.03 0-.02.01-.03.02-.05 0-.01.01-.02.02-.03l.03-.03.03-.03c.01-.01.02-.02.03-.02l3.76-2.17c.1-.04.22-.04.3 0l3.78 2.17c.01.01.02.01.03.02l.03.03c.01.01.02.02.03.03s.02.02.02.03c.01.02.02.03.02.05 0 .01.01.02.01.03.01.03.01.05.01.1v8l3.14-1.78v-4.11c0-.03 0-.06.01-.08l.01-.03s.01-.03.02-.05c0-.01.01-.02.02-.03s.02-.02.03-.03.02-.02.03-.03.02-.02.03-.02l3.78-2.17c.08-.06.2-.06.3 0l3.76 2.17c.01 0 .02.01.03.02l.03.03c.01.01.02.02.03.03s.01.02.02.03c.01.02.01.05.02.05s.01 0 .01.03m-.61 4.19v-3.57l-3.14 1.8v3.55zm-3.76 6.46v-3.58l-6.9 3.94v3.61zm-14.42-12.18v12.18l6.9 3.97v-3.61l-3.6-2.04h-.01c-.01 0-.02 0-.03-.03-.01 0-.02-.01-.03-.02-.01-.01-.02-.02-.03-.03s-.01-.02-.02-.03c-.01-.02-.01-.03-.02-.04 0-.02-.01-.03-.01-.04-.01-.01-.01-.03-.01-.04 0-.02 0-.03 0-.04v-8.41zm3.45-2.32-3.13 1.82 3.13 1.78 3.14-1.78zm3.45 10.2v-7.88l-3.14 1.82v7.87zm7.83-8.08-3.14 1.81 3.14 1.8 3.13-1.8zm-.31 4.15-3.14-1.8v3.57l3.14 1.78zm-7.21 8.05 6.88-3.94-3.12-1.8-6.88 3.97z"/></svg>