<svg height="24" viewBox="0 0 24 24" width="24" xmlns="http://www.w3.org/2000/svg"><path d="m12 2c5.5 0 10 3.13 10 7 0 3.26-3.19 6-7.5 6.78v-.28c0-.59-.1-1.16-.29-1.69 3.34-.6 5.79-2.53 5.79-4.81 0-2.76-3.58-5-8-5s-8 2.24-8 5c0 1.19.67 2.29 1.79 3.15-.44.49-.79 1.06-1.01 1.7-1.72-1.26-2.78-2.97-2.78-4.85 0-3.87 4.5-7 10-7m-2.5 10c1.93 0 3.5 1.57 3.5 3.5 0 1.9-1.5 3.45-3.4 3.5-.21.36-.42 1 .23 1.68 1.17 1.2 3.45-.96 6.56-.97 2.04-.01 3.64.26 3.64.26s1.05.13.94 1.07c-.11.93-1.06.93-1.06.93-.38-.04-1.88-.39-3.69-.29-1.81.09-2.75.73-3.66 1.01-.9.28-2.65.69-4.26-.64-1.33-1.09-.84-2.94-.63-3.55-1-.63-1.67-1.74-1.67-3 0-1.93 1.57-3.5 3.5-3.5m0 2c-.83 0-1.5.67-1.5 1.5s.67 1.5 1.5 1.5 1.5-.67 1.5-1.5-.67-1.5-1.5-1.5z"/></svg>