<svg height="24" viewBox="0 0 24 24" width="24" xmlns="http://www.w3.org/2000/svg"><path d="m19.31 18.9c.44-.69.69-1.52.69-2.4 0-2.5-2-4.5-4.5-4.5s-4.5 2-4.5 4.5 2 4.5 4.5 4.5c.87 0 1.69-.25 2.38-.68l3.12 3.07 1.39-1.39zm-3.81.1c-1.38 0-2.5-1.12-2.5-2.5s1.12-2.5 2.5-2.5 2.5 1.12 2.5 2.5-1.12 2.5-2.5 2.5m-5.91.2-6.59-5.13 1.62-1.26 4.38 3.41v.28c0 .96.22 1.88.59 2.7m-.09-5.16-6.5-5.04 9-7 9 7-2.34 1.82c-.7-.38-1.47-.64-2.29-.75l1.37-1.07-5.74-4.47-5.74 4.47 4.27 3.32c-.43.52-.79 1.1-1.03 1.72z"/></svg>