<svg height="24" viewBox="0 0 24 24" width="24" xmlns="http://www.w3.org/2000/svg"><path d="m20.84 22.73-5.7-5.7c-1.88 1.76-4.22 2.97-7.14 2.97-.36 0-.86-.13-1.34-.3l-.95 2.3-1.89-.66c1.33-3.31 2.68-7.02 5.84-9.79l-.89-.89c-2.01 1.37-3.91 3.44-5.02 6.59 0 0-1.75-1.75-1.75-3.75 0-1.5 1.12-4.18 3.72-5.89l-4.61-4.61 1.28-1.27s14 14.01 14 14.01l5.72 5.72zm-3.84-14.73c-1.65.37-3.07.88-4.3 1.5l4.8 4.79c3.37-4.94 4.5-11.29 4.5-11.29-.97 1.95-7.65 2.24-12.62 3.18l2.77 2.77c2.66-.95 4.85-.95 4.85-.95z"/></svg>