<svg height="24" viewBox="0 0 24 24" width="24" xmlns="http://www.w3.org/2000/svg"><path d="m9 10a3.04 3.04 0 0 1 3-3 3.04 3.04 0 0 1 3 3 3.04 3.04 0 0 1 -3 3 3.04 3.04 0 0 1 -3-3m3 9 4 1v-3.08a7.54 7.54 0 0 1 -4 1.08 7.54 7.54 0 0 1 -4-1.08v3.08m4-16a5.78 5.78 0 0 0 -4.24 1.74 5.78 5.78 0 0 0 -1.76 4.26 5.78 5.78 0 0 0 1.76 4.23 5.78 5.78 0 0 0 4.24 1.77 5.78 5.78 0 0 0 4.24-1.77 5.78 5.78 0 0 0 1.76-4.23 5.78 5.78 0 0 0 -1.76-4.26 5.78 5.78 0 0 0 -4.24-1.74m8 6a8.04 8.04 0 0 1 -.57 2.8 7.84 7.84 0 0 1 -1.43 2.48v7.72l-6-2-6 2v-7.72a7.9 7.9 0 0 1 -2-5.28 7.68 7.68 0 0 1 2.33-5.64 7.73 7.73 0 0 1 5.67-2.36 7.73 7.73 0 0 1 5.67 2.36 7.68 7.68 0 0 1 2.33 5.64z"/></svg>