<svg height="24" viewBox="0 0 24 24" width="24" xmlns="http://www.w3.org/2000/svg"><path d="m19.79 15.41c.95-2.17.95-4.66 0-6.82l-2.74 1.24c.6 1.38.6 2.95.01 4.34zm-4.37-11.2c-2.17-.95-4.66-.95-6.83 0l1.24 2.73c1.39-.59 2.96-.59 4.35.01zm-11.21 4.37c-.95 2.18-.95 4.66 0 6.84l2.74-1.25c-.6-1.38-.6-2.96 0-4.35zm4.38 11.21c2.17.95 4.66.95 6.83-.01l-1.24-2.73c-1.38.6-2.96.6-4.34.01zm3.41-17.79a10 10 0 0 1 10 10 10 10 0 0 1 -10 10 10 10 0 0 1 -10-10 10 10 0 0 1 10-10m0 6a4 4 0 0 0 -4 4 4 4 0 0 0 4 4 4 4 0 0 0 4-4 4 4 0 0 0 -4-4z"/></svg>