<svg height="24" viewBox="0 0 24 24" width="24" xmlns="http://www.w3.org/2000/svg"><path d="m12 21c0 .55.45 1 1 1h2c.55 0 1-.45 1-1v-1h-4m2-13c-2.76 0-5 2.24-5 5 0 1.57.74 3.06 2 4v2c0 .55.45 1 1 1h4c.55 0 1-.45 1-1v-2c2.21-1.66 2.66-4.79 1-7-.94-1.26-2.43-2-4-2m1 7.82v2.18h-2v-2.18c-1.56-.55-2.38-2.27-1.83-3.82.55-1.57 2.27-2.39 3.83-1.84 1.56.56 2.38 2.27 1.83 3.84-.3.85-.98 1.5-1.83 1.82m-7.32.18h-.68v1c0 .55.45 1 1 1h1v-.12c-.54-.55-1-1.18-1.32-1.88m5.92-10c-1.1-2.53-4.07-3.67-6.6-2.55s-3.66 4.05-2.55 6.59c.34.77.88 1.46 1.55 1.96v2c0 .55.45 1 1 1h.3c-.2-.65-.3-1.32-.3-2 0-3.71 2.89-6.79 6.6-7z"/></svg>