<svg height="24" viewBox="0 0 24 24" width="24" xmlns="http://www.w3.org/2000/svg"><path d="m20.84 22.73-2.75-2.73c-.03 0-.06 0-.09 0h-1.17c.11-.32.17-.66.17-1v-.11l-2.25-2.25c-.18.22-.44.36-.75.36h-4c-.55 0-1-.45-1-1v-2c-1.6-1.2-2.26-3.16-1.88-5l-1.62-1.6c-.32.83-.5 1.71-.5 2.6 0 1.83.72 3.58 2 4.88v2.12h-2c-.55 0-1-.45-1-1v-1.55c-1.14-.66-1.88-1.83-2-3.14-.15-2.04 1.25-3.81 3.2-4.22l-4.09-4.09 1.28-1.27 19.72 19.73zm-5.84-16.73c-1.78-1.33-4.14-1.28-5.87-.07l6.95 6.95c1.55-2.21 1.09-5.25-1.08-6.88m4.79 10.59c.12-.17.21-.37.21-.59v-1.55c1.91-1.11 2.57-3.55 1.46-5.45-.66-1.15-1.83-1.89-3.14-2 .45.94.68 1.96.68 3 0 1.57-.53 3.09-1.5 4.31zm-9.79 2.41c0 .55.45 1 1 1h2c.55 0 1-.45 1-1v-1h-4zm-3-1h-2v1c0 .55.45 1 1 1h1.17c-.11-.32-.17-.66-.17-1z"/></svg>