<svg height="24" viewBox="0 0 24 24" width="24" xmlns="http://www.w3.org/2000/svg"><path d="m7 19a2.93 2.93 0 0 0 .17 1h-1.17a1 1 0 0 1 -1-1v-1h2m3 1a1 1 0 0 0 1 1h2a1 1 0 0 0 1-1v-1h-4m-6-2a1 1 0 0 0 1 1h2v-2.12a6.92 6.92 0 0 1 -2-4.88 6.79 6.79 0 0 1 .68-3 4 4 0 0 0 -1.68 7.45m13 4.55a2.93 2.93 0 0 1 -.17 1h1.17a1 1 0 0 0 1-1v-1h-2m0-8a5 5 0 0 1 -2 4v2a1 1 0 0 1 -1 1h-4a1 1 0 0 1 -1-1v-2a5 5 0 1 1 8-4m-2 0a3 3 0 1 0 -4 2.82v2.18h2v-2.18a3 3 0 0 0 2-2.82m3.32-3a6.79 6.79 0 0 1 .68 3 6.92 6.92 0 0 1 -2 4.88v2.12h2a1 1 0 0 0 1-1v-1.55a4 4 0 0 0 -1.68-7.45z"/></svg>