<svg height="24" viewBox="0 0 24 24" width="24" xmlns="http://www.w3.org/2000/svg"><path d="m20.84 22.73-4.1-4.1c-.19.22-.45.37-.74.37h-4c-.58 0-1-.45-1-1v-2c-1.63-1.2-2.29-3.18-1.9-5l-1.6-1.61c-.33.81-.53 1.69-.5 2.61-.03.68.07 1.35.28 2h-.28c-.58 0-1-.45-1-1v-2c-.7-.5-1.23-1.19-1.57-1.96-.43-.99-.52-2.04-.31-3.04l-3.01-3 1.28-1.27 19.72 19.73zm-7.26-17.73c-1.12-2.53-4.08-3.67-6.58-2.55-.32.13-.61.3-.87.48l3.54 3.54c1.09-.84 2.43-1.39 3.91-1.47m4.48 9.86c1.54-2.2 1.08-5.24-1.06-6.86-1.8-1.33-4.16-1.28-5.88-.08zm-6.06 6.14c0 .55.42 1 1 1h2c.53 0 1-.45 1-1v-1h-4zm-5-6v1c0 .55.42 1 1 1h1v-.12c-.57-.55-1-1.18-1.34-1.88z"/></svg>