<svg height="24" viewBox="0 0 24 24" width="24" xmlns="http://www.w3.org/2000/svg"><path d="m11 2c-.16 0-.31.03-.45.1l-2 1c-.99.56-.55 1.9.45 1.9.16 0 .32-.05.45-.1l2-1c.98-.54.55-1.9-.45-1.9m4 2c-.17 0-.31.03-.45.1l-6 3c-.99.58-.55 1.9.45 1.9.18 0 .32-.05.45-.1l6-3c.96-.47.55-1.9-.45-1.9m0 4c-.16 0-.31.03-.45.1l-5.85 2.93c-.5.22-.7.57-.7.97v2h-1v3c0 .55.44 1 1 1h8c.55 0 1-.45 1-1v-3h-1v-1c0-.56-.45-1-1-1s-1 .45-1 1v1h-4v-1.38l5.45-2.72c.97-.56.55-1.9-.45-1.9m-6 12v1c0 .57.46 1 1 1h4c.56 0 1-.45 1-1v-1"/></svg>