<svg height="24" viewBox="0 0 24 24" width="24" xmlns="http://www.w3.org/2000/svg"><path d="m15.45 9.9-1.57.78-1.5-1.5 2.17-1.08c.14-.07.29-.1.45-.1 1 0 1.42 1.34.45 1.9m-4.23-1.9 4.23-2.1c.96-.47.55-1.9-.45-1.9-.17 0-.31.03-.45.1l-4.83 2.4zm9.62 14.73-4.75-4.73h-8.09c-.56 0-1-.45-1-1v-3h1v-2c0-.4.2-.75.7-.97l.3-.15-7.89-7.88 1.28-1.27 19.72 19.73zm-8.73-8.73-1.61-1.62-.5.24v1.38zm-3.11 7c0 .57.46 1 1 1h4c.56 0 1-.45 1-1v-1h-6zm0-16c.16 0 .32-.05.45-.1l2-1c.98-.54.55-1.9-.45-1.9-.16 0-.31.03-.45.1l-2 1c-.99.56-.55 1.9.45 1.9z"/></svg>