<svg height="24" viewBox="0 0 24 24" width="24" xmlns="http://www.w3.org/2000/svg"><path d="m22.11 21.46-19.72-19.73-1.28 1.27 3.03 3.03c-.21.97-.14 2.02.31 3.01.34.77.88 1.46 1.55 1.96v2c0 .55.45 1 1 1h.3c-.2-.65-.3-1.32-.3-2 0-.92.19-1.79.5-2.59l1.61 1.59c-.06.33-.11.66-.11 1 0 1.57.74 3.06 2 4v2c0 .55.45 1 1 1h4c.31 0 .57-.14.75-.36l4.09 4.09zm-10.88-8.34 1.64 1.64c-.77-.32-1.34-.91-1.64-1.64m3.77 3.88h-2v-2.11l2 2zm-5.31-10.5-3.55-3.56c.27-.19.56-.36.86-.5 2.53-1.11 5.5.03 6.6 2.56-1.48.09-2.83.63-3.91 1.5m1.43 1.42c.82-.57 1.81-.92 2.88-.92 1.57 0 3.06.74 4 2 1.33 1.78 1.28 4.14.07 5.87l-1.45-1.45c.08-.14.15-.28.21-.42.55-1.57-.27-3.28-1.83-3.84-.84-.29-1.71-.19-2.43.21zm-3.44 7.08c.32.7.78 1.33 1.32 1.88v.12h-1c-.55 0-1-.45-1-1v-1zm4.32 5h4v1c0 .55-.45 1-1 1h-2c-.55 0-1-.45-1-1z"/></svg>