<svg height="24" viewBox="0 0 24 24" width="24" xmlns="http://www.w3.org/2000/svg"><path d="m22.11 21.46-19.72-19.73-1.28 1.27 4.09 4.09c-1.95.41-3.35 2.18-3.2 4.22.12 1.31.86 2.48 2 3.14v1.55c0 .55.45 1 1 1h2v-2.12c-1.28-1.3-2-3.05-2-4.88 0-.89.18-1.77.5-2.6l1.62 1.6c-.38 1.84.28 3.8 1.88 5v2c0 .55.45 1 1 1h4c.31 0 .57-.14.75-.36l2.25 2.25v.11c0 .34-.06.68-.17 1h1.17.09l2.75 2.73zm-12.88-10.34 1.64 1.64c-.76-.3-1.34-.9-1.64-1.64m3.77 3.88h-2v-2.11l2 2zm-2.43-7.63-1.44-1.44c1.73-1.21 4.09-1.26 5.87.07 1.26.94 2 2.43 2 4 0 1.05-.33 2.05-.92 2.88l-1.45-1.45c.23-.43.37-.93.37-1.43 0-1.66-1.33-3-3-3-.5 0-1 .14-1.43.37m6.93 6.94c.97-1.22 1.5-2.74 1.5-4.31 0-1.04-.23-2.06-.68-3 1.31.11 2.48.85 3.14 2 1.11 1.9.45 4.34-1.46 5.45v1.55c0 .22-.09.42-.21.59zm-7.5 3.69h4v1c0 .55-.45 1-1 1h-2c-.55 0-1-.45-1-1zm-3 1c0 .34.06.68.17 1h-1.17c-.55 0-1-.45-1-1v-1h2z"/></svg>