<svg height="24" viewBox="0 0 24 24" width="24" xmlns="http://www.w3.org/2000/svg"><path d="m2 5.27 1.28-1.27 16.72 16.72-1.27 1.28-4.83-4.83-2.61 2.61c-1.95 1.95-5.12 1.95-7.07 0s-1.95-5.12 0-7.07l1.49-1.49c-.01.82.12 1.64.4 2.43l-.47.47c-1.18 1.17-1.18 3.07 0 4.24 1.17 1.18 3.07 1.18 4.24 0l2.62-2.6-1.62-1.61c-.01.24-.11.49-.29.68-.39.39-1.03.39-1.42 0-1.05-1.06-1.54-2.46-1.45-3.83zm10.71-1.05c1.95-1.95 5.12-1.95 7.07 0s1.95 5.12 0 7.07l-1.49 1.49c.01-.82-.12-1.64-.4-2.42l.47-.48c1.18-1.17 1.18-3.07 0-4.24-1.17-1.18-3.07-1.18-4.24 0l-3.33 3.33-1.41-1.42zm.7 4.95c.39-.39 1.03-.39 1.42 0 1.37 1.37 1.78 3.33 1.23 5.06l-1.78-1.77c-.05-.68-.34-1.35-.87-1.87-.41-.39-.41-1.03 0-1.42z"/></svg>