<svg height="24" viewBox="0 0 24 24" width="24" xmlns="http://www.w3.org/2000/svg"><path d="m7 3a4 4 0 0 1 4 4c0 1.86-1.27 3.43-3 3.87v2.26c.37.09.72.24 1.04.43l4.52-4.52c-.36-.6-.56-1.29-.56-2.04a4 4 0 0 1 4-4 4 4 0 0 1 4 4 4 4 0 0 1 -4 4c-.74 0-1.43-.2-2-.55l-4.55 4.55c.35.57.55 1.26.55 2a4 4 0 0 1 -4 4 4 4 0 0 1 -4-4c0-1.86 1.27-3.43 3-3.87v-2.26c-1.73-.44-3-2.01-3-3.87a4 4 0 0 1 4-4m10 10a4 4 0 0 1 4 4 4 4 0 0 1 -4 4 4 4 0 0 1 -4-4 4 4 0 0 1 4-4m0 2a2 2 0 0 0 -2 2 2 2 0 0 0 2 2 2 2 0 0 0 2-2 2 2 0 0 0 -2-2z"/></svg>