<svg height="24" viewBox="0 0 24 24" width="24" xmlns="http://www.w3.org/2000/svg"><path d="m12.63 2c5.53 0 10.01 4.5 10.01 10s-4.48 10-10.01 10c-3.51 0-6.58-1.82-8.37-4.57l1.58-1.25c1.41 2.29 3.92 3.82 6.8 3.82a8 8 0 0 0 8-8 8 8 0 0 0 -8-8c-4.08 0-7.44 3.06-7.93 7h2.76l-3.74 3.73-3.73-3.73h2.69c.5-5.05 4.76-9 9.94-9m2.96 8.24c.5.01.91.41.91.92v4.61c0 .5-.41.92-.92.92h-5.53c-.51 0-.92-.42-.92-.92v-4.61c0-.51.41-.91.91-.92v-1.01c0-1.53 1.25-2.77 2.77-2.77 1.53 0 2.78 1.24 2.78 2.77zm-2.78-2.38c-.75 0-1.37.61-1.37 1.37v1.01h2.75v-1.01c0-.76-.62-1.37-1.38-1.37z"/></svg>