<svg height="24" viewBox="0 0 24 24" width="24" xmlns="http://www.w3.org/2000/svg"><path d="m15.47 3.11c-.47-.26-1.1-.06-1.36.43-.07.14-.11.3-.11.46v2.59l-.71-.71c-.19-.19-.29-.44-.29-.7v-4.18h-2v4.17c0 .27-.1.52-.29.71l-.71.71v-2.59c0-.56-.46-1-1-1-.17 0-.33.04-.47.11-3.81 1.89-6.53 6.86-6.53 12.66 0 1.9.33 3.78 1 5.55.19.53.76.81 1.29.62.05-.02.1-.04.15-.07l5.06-2.8c.31-.17.5-.51.5-.88v-8.78l1.3-1.29c.39-.39 1.02-.39 1.41 0l1.29 1.3v8.78c0 .36.21.7.5.88l5.08 2.8c.49.26 1.1.08 1.36-.42.02-.04.06-.09.06-.14.67-1.77 1-3.65 1-5.55 0-5.8-2.71-10.77-6.53-12.66z"/></svg>