<svg height="24" viewBox="0 0 24 24" width="24" xmlns="http://www.w3.org/2000/svg"><path d="m17 22v-2h3v-3h2v3.5c0 .39-.16.74-.46 1.04s-.65.46-1.04.46zm-10 0h-3.5c-.39 0-.74-.16-1.04-.46s-.46-.65-.46-1.04v-3.5h2v3h3zm10-20h3.5c.39 0 .74.16 1.04.46s.46.65.46 1.04v3.5h-2v-3h-3zm-10 0v2h-3v3h-2v-3.5c0-.39.16-.74.46-1.04s.65-.46 1.04-.46zm3.5 4c2.5 0 4.5 2 4.5 4.5 0 .88-.25 1.7-.69 2.4l3.26 3.26-1.41 1.41-3.26-3.26c-.7.44-1.52.69-2.4.69-2.5 0-4.5-2-4.5-4.5s2-4.5 4.5-4.5m0 2c-1.38 0-2.5 1.12-2.5 2.5s1.12 2.5 2.5 2.5 2.5-1.12 2.5-2.5-1.12-2.5-2.5-2.5z"/></svg>