<svg height="24" viewBox="0 0 24 24" width="24" xmlns="http://www.w3.org/2000/svg"><path d="m18 15a3 3 0 0 1 3 3 3 3 0 0 1 -3 3c-1.31 0-2.42-.83-2.83-2h-1.17v-2h1.17c.41-1.17 1.52-2 2.83-2m0 2a1 1 0 0 0 -1 1 1 1 0 0 0 1 1 1 1 0 0 0 1-1 1 1 0 0 0 -1-1m0-9a1.43 1.43 0 0 0 1.43-1.43c0-.79-.64-1.43-1.43-1.43s-1.43.64-1.43 1.43a1.43 1.43 0 0 0 1.43 1.43m0-5.43a4 4 0 0 1 4 4c0 2.99-4 7.43-4 7.43s-4-4.44-4-7.43a4 4 0 0 1 4-4m-9.17 14.43h1.17v2h-1.17c-.41 1.17-1.52 2-2.83 2a3 3 0 0 1 -3-3c0-1.31.83-2.42 2-2.83v-1.17h2v1.17c.85.3 1.53.98 1.83 1.83m-2.83 0a1 1 0 0 0 -1 1 1 1 0 0 0 1 1 1 1 0 0 0 1-1 1 1 0 0 0 -1-1m0-14a3 3 0 0 1 3 3c0 1.31-.83 2.42-2 2.83v1.17h-2v-1.17c-1.17-.41-2-1.52-2-2.83a3 3 0 0 1 3-3m0 2a1 1 0 0 0 -1 1 1 1 0 0 0 1 1 1 1 0 0 0 1-1 1 1 0 0 0 -1-1m5 14v-2h2v2zm-4-6h-2v-2h2z"/></svg>