<svg height="24" viewBox="0 0 24 24" width="24" xmlns="http://www.w3.org/2000/svg"><path d="m15.5 12c2.5 0 4.5 2 4.5 4.5 0 .88-.25 1.7-.69 2.4l3.08 3.1-1.39 1.39-3.12-3.07c-.69.43-1.51.68-2.38.68-2.5 0-4.5-2-4.5-4.5s2-4.5 4.5-4.5m0 2a2.5 2.5 0 0 0 -2.5 2.5 2.5 2.5 0 0 0 2.5 2.5 2.5 2.5 0 0 0 2.5-2.5 2.5 2.5 0 0 0 -2.5-2.5m4-12a.5.5 0 0 1 .5.5v9.31c-.58-.55-1.25-1-2-1.31v-5.8l-3 1.16v4.14c-.7.07-1.38.24-2 .5v-4.63l-4-1.4v11.66.37c0 .64.09 1.26.26 1.84l-1.26-.44-5.34 2.07-.16.03a.5.5 0 0 1 -.5-.5v-15.12c0-.23.15-.41.36-.48l5.64-1.9 6 2.1 5.34-2.07zm-15.5 3.46v11.85l3-1.16v-11.7z"/></svg>