<svg height="24" viewBox="0 0 24 24" width="24" xmlns="http://www.w3.org/2000/svg"><path d="m15 12h1.5v4.25l2.86 1.69-.75 1.22-3.61-2.16zm1-3c.69 0 1.37.1 2 .29v-4.59l-3 1.16v3.21c.33-.07.66-.07 1-.07m7 7a7 7 0 0 1 -7 7c-3 0-5.6-1.92-6.58-4.6l-1.42-.5-5.34 2.07-.16.03a.5.5 0 0 1 -.5-.5v-15.12c0-.23.15-.41.36-.48l5.64-1.9 6 2.1 5.34-2.07.16-.03a.5.5 0 0 1 .5.5v7.75c1.81 1.25 3 3.37 3 5.75m-14 0c0-2.79 1.63-5.2 4-6.33v-3.8l-4-1.4v11.66c0-.04 0-.09 0-.13m7-5a5 5 0 0 0 -5 5 5 5 0 0 0 5 5 5 5 0 0 0 5-5 5 5 0 0 0 -5-5m-12-5.54v11.85l3-1.16v-11.7z"/></svg>