<svg height="24" viewBox="0 0 24 24" width="24" xmlns="http://www.w3.org/2000/svg"><path d="m15.5 12c2.5 0 4.5 2 4.5 4.5 0 .88-.25 1.71-.69 2.4l3.08 3.1-1.39 1.39-3.12-3.07c-.69.43-1.51.68-2.38.68-2.5 0-4.5-2-4.5-4.5s2-4.5 4.5-4.5m0 2a2.5 2.5 0 0 0 -2.5 2.5 2.5 2.5 0 0 0 2.5 2.5 2.5 2.5 0 0 0 2.5-2.5 2.5 2.5 0 0 0 -2.5-2.5m-1.5-7.89-6-2.11v11.89l1 .35v.26c0 .64.09 1.26.26 1.84l-1.26-.44-5.34 2.07-.16.03a.5.5 0 0 1 -.5-.5v-15.12c0-.23.15-.41.36-.48l5.64-1.9 6 2.1 5.34-2.1h.16a.5.5 0 0 1 .5.5v9.31c-1.17-1.12-2.75-1.81-4.5-1.81-.5 0-1 .06-1.5.17z"/></svg>