<svg height="24" viewBox="0 0 24 24" width="24" xmlns="http://www.w3.org/2000/svg"><path d="m6.5 8.11c-.89 0-1.61-.72-1.61-1.61a1.61 1.61 0 0 1 1.61-1.61c.89 0 1.61.72 1.61 1.61a1.61 1.61 0 0 1 -1.61 1.61m0-6.11c-2.5 0-4.5 2-4.5 4.5 0 3.37 4.5 8.36 4.5 8.36s4.5-4.99 4.5-8.36c0-2.5-2-4.5-4.5-4.5m11 6.11a1.61 1.61 0 0 1 -1.61-1.61c0-.89.72-1.61 1.61-1.61s1.61.72 1.61 1.61a1.61 1.61 0 0 1 -1.61 1.61m0-6.11c-2.5 0-4.5 2-4.5 4.5 0 3.37 4.5 8.36 4.5 8.36s4.5-4.99 4.5-8.36c0-2.5-2-4.5-4.5-4.5m0 14c-1.27 0-2.4.8-2.82 2h-5.36c-.55-1.56-2.27-2.38-3.82-1.83-1.57.55-2.39 2.27-1.84 3.83.56 1.56 2.27 2.38 3.84 1.83.85-.3 1.5-.98 1.82-1.83h5.37c.55 1.56 2.27 2.38 3.81 1.83 1.58-.55 2.4-2.27 1.85-3.83-.43-1.2-1.57-2-2.85-2zm0 4.5a1.5 1.5 0 0 1 -1.5-1.5 1.5 1.5 0 0 1 1.5-1.5 1.5 1.5 0 0 1 1.5 1.5 1.5 1.5 0 0 1 -1.5 1.5z"/></svg>