<svg height="24" viewBox="0 0 24 24" width="24" xmlns="http://www.w3.org/2000/svg"><path d="m17.5 13c2.5 0 4.5 2 4.5 4.5s-2 4.5-4.5 4.5-4.5-2-4.5-4.5 2-4.5 4.5-4.5m0 1.5c-.56 0-1.08.15-1.5.42l4.08 4.08c.27-.42.42-.94.42-1.5a3 3 0 0 0 -3-3m-3 3a3 3 0 0 0 3 3c.56 0 1.08-.15 1.5-.42l-4.08-4.08c-.27.42-.42.94-.42 1.5m4-16.35c.5 0 1 .19 1.39.58l2.84 2.83c.77.79.77 2.05 0 2.83l-3.78 3.77c-.45-.1-.95-.16-1.45-.16-.83 0-1.62.16-2.35.44l-3.89-3.89 5.81-5.82c.39-.39.9-.58 1.43-.58m-8.2 7.35 3.59 3.6c-1.74 1.16-2.89 3.15-2.89 5.4 0 .5.06 1 .16 1.45l-1.16 1.17c-.78.77-2.03.78-2.81.02l-.86.86h-5.66l3.69-3.69c-.8-.81-.8-2.07-.02-2.85z"/></svg>