<svg height="24" viewBox="0 0 24 24" width="24" xmlns="http://www.w3.org/2000/svg"><path d="m21 12c0-2.03-.67-3.91-2-5.62v11.25c1.33-1.66 2-3.54 2-5.63m-3.37 7h-11.25c.68.55 1.57 1 2.67 1.41 1.09.39 2.08.59 2.95.59.88 0 1.86-.2 2.95-.59 1.1-.41 1.99-.86 2.68-1.41m-6.63-2-4-8v8zm6-8-4 8h4zm-5 5.53 3.75-7.53h-7.5zm5.63-9.53c-1.66-1.33-3.54-2-5.63-2s-3.97.67-5.62 2zm-12.63 12.63v-11.25c-1.33 1.71-2 3.59-2 5.62 0 2.09.67 3.97 2 5.63m18-5.63c0 3.03-1.06 5.63-3.22 7.78-2.15 2.16-4.75 3.22-7.78 3.22s-5.62-1.06-7.78-3.22c-2.16-2.15-3.22-4.75-3.22-7.78s1.06-5.62 3.22-7.78 4.75-3.22 7.78-3.22 5.63 1.06 7.78 3.22c2.16 2.16 3.22 4.75 3.22 7.78z"/></svg>