<svg height="24" viewBox="0 0 24 24" width="24" xmlns="http://www.w3.org/2000/svg"><path d="m22 12.41v-8.41c0-1.1-.89-2-2-2h-16c-1.1 0-2 .89-2 2v18l4-4h3.29c.86 2.89 3.54 5 6.71 5 3.86 0 7-3.13 7-7 0-1.31-.37-2.54-1-3.59m-16.83 3.59-1.17 1.17v-13.17h16v6.26c-1.14-.79-2.5-1.26-4-1.26-1.9 0-3.63.77-4.89 2h-5.11v2h3.69c-.44.91-.69 1.93-.69 3zm10.83 4.85c-2.68 0-4.85-2.17-4.85-4.85s2.17-4.85 4.85-4.85c2.67 0 4.85 2.17 4.85 4.85s-2.18 4.85-4.85 4.85m2-11.85h-12v-2h12zm-1.5 6.82 2.44 1.41-.75 1.3-3.19-1.84v-3.69h1.5z"/></svg>