<svg height="24" viewBox="0 0 24 24" width="24" xmlns="http://www.w3.org/2000/svg"><path d="m13.5 10a1.5 1.5 0 0 1 -1.5 1.5c-.84 0-1.5-.67-1.5-1.5a1.5 1.5 0 0 1 1.5-1.5 1.5 1.5 0 0 1 1.5 1.5m8.5-6v12a2 2 0 0 1 -2 2h-14l-4 4v-18a2 2 0 0 1 2-2h16a2 2 0 0 1 2 2m-5.23 7.32-1.07-.82c.01-.17.01-.34 0-.5.02-.16.02-.33 0-.5l1.06-.82c.09-.08.12-.21.06-.32l-1-1.73c-.06-.13-.19-.16-.32-.13l-1.23.5c-.27-.2-.54-.37-.85-.5l-.19-1.31c-.02-.11-.12-.19-.23-.19h-2c-.12 0-.23.09-.25.21l-.19 1.32c-.3.12-.59.28-.86.47l-1.24-.5c-.12-.04-.25 0-.31.11l-1 1.73c-.06.11-.04.24.06.32l1.06.84c-.04.32-.04.66 0 1l-1.06.82c-.09.08-.12.21-.06.32l1 1.73c.06.13.19.16.31.13l1.24-.5c.26.2.54.37.85.5l.19 1.31c.03.12.14.19.26.19h2c.12 0 .23-.09.25-.21l.19-1.32c.3-.13.56-.29.84-.47l1.25.5c.12 0 .25 0 .31-.13l1-1.73c.06-.11.03-.24-.07-.32z"/></svg>