<svg height="24" viewBox="0 0 24 24" width="24" xmlns="http://www.w3.org/2000/svg"><path d="m2.8 3 16.87 15.82s.33.45-.09.89c-.41.44-.95.06-.95.06zm5.01 1.59 13.1 12.05s.32.44-.09.86c-.42.47-.96.09-.96.09zm-3.52 3.41 13.1 12.03s.32.44-.09.88c-.42.45-.96.09-.96.09zm7.76-2.04 9.15 8.41s.22.31-.07.63c-.28.3-.66.03-.66.03zm-6.6 5.95 9.15 8.42s.22.31-.06.62c-.29.31-.67.05-.67.05zm10.93-3.99 4.17 3.82s.11.14-.05.29c-.12.14-.31.02-.31.02zm-8.82 8.18 4.18 3.81s.11.15-.04.29c-.14.15-.33.02-.33.02z"/></svg>