<svg height="24" viewBox="0 0 24 24" width="24" xmlns="http://www.w3.org/2000/svg"><path d="m21.17 3.25q.33 0 .59.25.24.24.24.58v15.84q0 .34-.24.58-.26.25-.59.25h-13.34q-.33 0-.59-.25-.24-.24-.24-.58v-2.92h-4.17q-.33 0-.59-.24-.24-.26-.24-.59v-8.34q0-.33.24-.59.26-.24.59-.24h4.17v-2.92q0-.34.24-.58.26-.25.59-.25m-.83 9.81 1.18 2.22h1.79l-1.97-3.22 1.93-3.17h-1.71l-1.09 2.01-.04.06-.03.07q-.26-.53-.56-1.07-.25-.53-.53-1.07h-1.81l1.89 3.19-2.05 3.2h1.78m8.1 4.22v-2.5h-5.63v2.5m5.63-3.75v-3.12h-1.88v3.12m1.88-4.37v-3.13h-1.88v3.13m1.88-4.38v-2.5h-5.63v2.5m12.5 12.5v-2.5h-5.62v2.5m5.62-3.75v-3.12h-5.62v3.12m5.62-4.37v-3.13h-5.62v3.13m5.62-4.38v-2.5h-5.62v2.5z"/></svg>