<svg height="24" viewBox="0 0 24 24" width="24" xmlns="http://www.w3.org/2000/svg"><path d="m13 3 1 .06c2.8-1.27 5.23-1.42 6.5-.14 1 1.01 1.08 2.75.42 4.8.69 1.28 1.08 2.73 1.08 4.28l-.05 1h-12.87c.37 2.28 1.98 4 3.92 4 1.31 0 2.47-.79 3.2-2h5.3c-1.25 3.5-4.58 6-8.5 6-1.28 0-2.5-.27-3.59-.75-2.91 1.43-5.52 1.65-6.84.31-1.57-1.6-.89-4.99 1.43-8.56.93-1.46 2.14-2.94 3.57-4.35l.81-.77c-1.17.69-2.67 1.74-4.19 3.29.84-4.09 4.47-7.17 8.81-7.17m0 4c-1.79 0-3.31 1.47-3.82 3.5h7.64c-.51-2.03-2.03-3.5-3.82-3.5m7.06-2.94c-.66-.67-1.84-.71-3.32-.25 1.48.69 2.76 1.75 3.67 3.08.32-1.24.23-2.24-.35-2.83m-16.17 15.94c.83.84 2.51.69 4.55-.24-1.85-1.09-3.27-2.82-3.97-4.88-1.2 2.27-1.47 4.19-.58 5.12z"/></svg>