<svg height="24" viewBox="0 0 24 24" width="24" xmlns="http://www.w3.org/2000/svg"><path d="m21.17 3.25q.33 0 .59.25.24.24.24.58v15.84q0 .34-.24.58-.26.25-.59.25h-13.34q-.33 0-.59-.25-.24-.24-.24-.58v-2.92h-4.17q-.33 0-.59-.24-.24-.26-.24-.59v-8.34q0-.33.24-.59.26-.24.59-.24h4.17v-2.92q0-.34.24-.58.26-.25.59-.25m-2.03 7.92 2.36 4.1h1.49v-6.54h-1.45v4.19l-2.27-4.19h-1.58v6.54h1.45m14.95 4.23v-2.5h-2.5v2.5m2.5-3.75v-2.5h-2.5v2.5m2.5-3.75v-2.5h-2.5v2.5m2.5-3.75v-3.75h-12.5v2.5h2.92q.33 0 .59.24.24.26.24.59v8.34q0 .33-.24.59-.26.24-.59.24h-2.92v2.5h8.75v-11.25z"/></svg>