<svg height="24" viewBox="0 0 24 24" width="24" xmlns="http://www.w3.org/2000/svg"><path d="m21.67 5c.73 0 1.33.6 1.33 1.33v13.34a1.33 1.33 0 0 1 -1.33 1.33h-7.34c-.73 0-1.33-.6-1.33-1.33v-2.92h-5.25c-2 0-2.75 2.25-4.75 3.25-2 0-3.5-3 .5-11.5h.25l.44-.83s2.81-1.67 4.14-.44h4.67v-.9a1.33 1.33 0 0 1 1.33-1.33h1.67v-2h4v2zm-10.67 3a1 1 0 0 0 -1 1 1 1 0 0 0 1 1 1 1 0 0 0 1-1 1 1 0 0 0 -1-1m7.19 0c-.87 0-1.57.2-2.11.59-.52.41-.78.98-.77 1.77l.01.03h1.93c.01-.3.1-.53.28-.69.18-.15.4-.23.66-.23.31 0 .57.1.75.28.18.19.26.45.26.75 0 .32-.07.59-.23.82-.14.23-.35.43-.61.59-.51.34-.86.64-1.05.91-.2.26-.31.68-.31 1.18h2c0-.31.04-.56.13-.74s.26-.36.51-.52c.45-.24.82-.53 1.11-.93s.44-.81.44-1.31c0-.76-.27-1.37-.81-1.82-.53-.45-1.26-.68-2.19-.68m-1.19 7v2h2v-2z"/></svg>