<svg height="24" viewBox="0 0 24 24" width="24" xmlns="http://www.w3.org/2000/svg"><path d="m6.43 3.72c.07-.06.14-.12.19-.16 1.56-1.01 3.38-1.56 5.38-1.56 1.88 0 3.64.5 5.14 1.42.11.08.4.27.56.46-1.45-1.6-5.7 1.82-5.7 1.82-1.5-1.13-2.83-1.9-3.84-2.2-.85-.21-1.43 0-1.7.2m12.88 1.51c-.05-.05-.1-.1-.14-.15-.36-.4-.82-.5-1.2-.47-.39.12-2.1.73-4.2 2.72 0 0 2.37 2.3 3.82 4.65s2.31 4.2 1.78 6.77c1.6-1.78 2.6-4.14 2.6-6.73 0-2.62-1-5-2.66-6.79m-3.61 7.75c-.65-.72-1.6-1.75-2.87-3.01-.27-.27-.56-.55-.86-.85 0 0-.47.46-1.07 1.07-.77.77-1.76 1.78-2.32 2.37-.98 1.05-3.8 4.35-3.96 6.2 0 0-.65-1.46.75-4.85.9-2.21 3.6-5.53 4.75-6.61 0 0-1.03-1.14-2.33-1.93l-.05-.03c-.63-.37-1.31-.66-1.97-.7-.67.05-1.09.54-1.09.54-1.68 1.79-2.71 4.19-2.71 6.84a10 10 0 0 0 10 10c2.93 0 5.57-1.26 7.4-3.27 0 0-.21-1.33-1.56-3.23-.31-.43-1.47-1.81-2.11-2.54z"/></svg>