<svg height="24" viewBox="0 0 24 24" width="24" xmlns="http://www.w3.org/2000/svg"><path d="m13.25 3.25q1.21 0 2.33.31 1.12.32 2.09.89.97.55 1.77 1.36.79.8 1.36 1.77.58.97.89 2.09.31 1.12.31 2.33 0 1.21-.31 2.33-.31 1.12-.89 2.09-.57.97-1.36 1.77-.8.81-1.77 1.36-.97.58-2.09.89-1.12.31-2.33.31-1.07 0-2.1-.25-1.03-.26-1.95-.74-.92-.49-1.7-1.18-.81-.7-1.43-1.58h-3.24q-.33 0-.59-.24-.24-.26-.24-.59v-8.34q0-.33.24-.58.26-.25.59-.25h3.24q.62-.88 1.43-1.58.78-.7 1.7-1.18.93-.48 1.95-.74 1.03-.25 2.1-.25m.63 1.28v6.84h6.84q-.12-1.37-.69-2.56-.57-1.19-1.48-2.11-.91-.91-2.12-1.48-1.2-.57-2.55-.69m-4.38 6.31q0-.57-.2-.97-.19-.41-.52-.66-.33-.26-.78-.37-.45-.12-1-.12h-2.63v6.55h1.54v-2.27h1.03q.48 0 .93-.16.46-.14.82-.41.36-.26.58-.67.23-.4.23-.92m3.75 8.66q.98 0 1.89-.24.9-.26 1.71-.68.81-.45 1.48-1.08.67-.61 1.17-1.37.5-.77.83-1.66.31-.89.39-1.85h-8.08v-8.09q-1.45.12-2.73.76-1.28.64-2.24 1.71h3.5q.33 0 .59.25.24.25.24.58v8.34q0 .33-.24.59-.26.24-.59.24h-3.5q.53.6 1.17 1.06.66.44 1.35.78.72.33 1.49.49.77.17 1.57.17m-6.4-9.5q.47 0 .76.19.28.19.28.7 0 .22-.1.36-.1.14-.26.25-.16.07-.35.1-.18.04-.38.04h-.89v-1.64z"/></svg>