<svg height="24" viewBox="0 0 24 24" width="24" xmlns="http://www.w3.org/2000/svg"><path d="m8.56 12.03q0 .38-.06.73-.11.34-.3.62-.2.27-.49.43-.3.16-.71.16-.42 0-.71-.17-.29-.17-.48-.45-.19-.28-.27-.63-.09-.35-.09-.72 0-.36.09-.72.08-.35.27-.63.19-.28.5-.45.3-.17.72-.17.43 0 .72.17.3.18.48.46.18.29.27.64.06.36.06.73m13.44-.03v7.81q0 .39-.27.69-.28.25-.67.25h-13.12q-.39 0-.67-.25-.27-.3-.27-.69v-2.81h-4.17q-.33 0-.59-.24-.24-.26-.24-.59v-8.34q0-.33.24-.59.26-.24.59-.24h5.42v-2.87q0-.37.25-.63.26-.25.63-.25h10.74q.37 0 .63.25.25.26.25.63v6.91l1.04.6h.01q.08.06.14.16.06.09.06.2m-5-6.87v2.5h2.5v-2.5m-2.5 3.75v2.5h2.5v-2.5m-2.5 3.75v1.52l2.54-1.52m-6.91-7.5v2.5h3.12v-2.5m-3.12 3.75v2.5h3.12v-2.5m-3.12 3.75v1.69l2.01 1.24 1.11-.66v-2.27m-6.25-7.5v1.87h1.77q.06 0 .11.04v-1.92m-4.38 10.2q.73 0 1.32-.26.58-.26.99-.71.4-.45.6-1.07.21-.62.22-1.34 0-.69-.21-1.29-.2-.59-.6-1.03-.39-.44-.95-.69-.57-.25-1.29-.25-.77 0-1.37.25-.59.25-1 .7-.41.46-.62 1.08-.21.63-.21 1.37 0 .7.21 1.3.22.59.62 1.02.4.43.97.68.58.24 1.32.24m1.25 4.18h10.32l-6.57-4.1v.77q0 .33-.24.59-.26.24-.59.24h-2.92m12.5 2.39v-6.03l-4.92 2.95z"/></svg>