<svg height="24" viewBox="0 0 24 24" width="24" xmlns="http://www.w3.org/2000/svg"><path d="m21.17 3.25q.33 0 .59.25.24.24.24.58v15.84q0 .34-.24.58-.26.25-.59.25h-13.34q-.33 0-.59-.25-.24-.24-.24-.58v-2.92h-4.17q-.33 0-.59-.24-.24-.26-.24-.59v-8.34q0-.33.24-.59.26-.24.59-.24h4.17v-2.92q0-.34.24-.58.26-.25.59-.25m-.8 8.09 1.2 3.94h1.37l1.31-6.56h-1.38l-.78 3.88-1.11-3.75h-1.14l-1.19 3.77-.78-3.9h-1.44l1.31 6.56h1.37m14.98 4.22v-2.5h-12.5v2.5m12.5-3.75v-3.12h-8.75v3.12m8.75-4.37v-3.13h-8.75v3.13m8.75-4.38v-2.5h-12.5v2.5z"/></svg>