<svg height="24" viewBox="0 0 24 24" width="24" xmlns="http://www.w3.org/2000/svg"><path d="m2 5.27 1.28-1.27 16.72 16.72-1.27 1.28-2.73-2.74c-.14 2.09-1.88 3.74-4 3.74a4 4 0 0 1 -4-4v-1h-1l-.84-8.18c-.34-.35-.63-.76-.83-1.22zm7-2.27a4 4 0 0 1 4 4h-4.18l-2.74-2.74c.73-.76 1.77-1.26 2.92-1.26m2.84 6.82-.02.18-2-2h3.05c-.18.7-.54 1.32-1.03 1.82m-.84 8.18h-1v1a2 2 0 0 0 2 2 2 2 0 0 0 2-2v-1.73l-2.65-2.65zm7-8h2l-1 1 1 1h-2a2 2 0 0 0 -2 2v.18l-1.7-1.68c.6-1.5 2.03-2.5 3.7-2.5m-10 2a1 1 0 0 0 1 1c.21 0 .4-.06.56-.17l-1.39-1.39c-.11.16-.17.35-.17.56z"/></svg>