<svg height="24" viewBox="0 0 24 24" width="24" xmlns="http://www.w3.org/2000/svg"><path d="m23 13v-2h-3.07c-.18-1.42-.74-2.77-1.62-3.9l2.19-2.17-1.43-1.43-2.17 2.19c-1.13-.88-2.48-1.44-3.9-1.62v-3.07h-2v3.07c-1.42.18-2.77.74-3.9 1.62l-2.17-2.19-1.43 1.43 2.19 2.17c-.88 1.13-1.44 2.48-1.62 3.9h-3.07v2h3.07c.18 1.42.74 2.77 1.62 3.9l-2.19 2.17 1.43 1.43 2.17-2.19c1.13.88 2.48 1.44 3.9 1.62v3.07h2v-3.07c1.42-.18 2.77-.74 3.9-1.62l2.17 2.19 1.43-1.43-2.19-2.17c.88-1.13 1.44-2.48 1.62-3.9zm-11-5a4 4 0 0 0 -4 4h-2a6 6 0 0 1 6-6z"/></svg>