<svg height="24" viewBox="0 0 24 24" width="24" xmlns="http://www.w3.org/2000/svg"><path d="m7.27 10 1.73-3h5.42l1.16-2-.08-.5a1.5 1.5 0 0 1 1.5-1.5 1.5 1.5 0 0 1 1.5 1.5c0 .71-.5 1.31-1.17 1.46l-.96 1.67 1.36 2.37.86-1.5-.09-.5a1.5 1.5 0 0 1 1.5-1.5 1.5 1.5 0 0 1 1.5 1.5c0 .71-.5 1.3-1.15 1.46l-1.46 2.54 1.73 3c.77.07 1.38.71 1.38 1.5a1.5 1.5 0 0 1 -1.5 1.5 1.5 1.5 0 0 1 -1.5-1.5v-.26l-1.27-2.24-1.36 2.37.96 1.67c.67.15 1.17.75 1.17 1.46a1.5 1.5 0 0 1 -1.5 1.5 1.5 1.5 0 0 1 -1.5-1.5l.08-.5-1.16-2h-3.84l-1.16 2 .08.5a1.5 1.5 0 0 1 -1.5 1.5 1.5 1.5 0 0 1 -1.5-1.5c0-.71.5-1.31 1.17-1.46l.96-1.67-4.25-7.37c-.77-.07-1.38-.71-1.38-1.5a1.5 1.5 0 0 1 1.5-1.5 1.5 1.5 0 0 1 1.5 1.5v.26zm2.88-1-1.73 3 1.73 3h4.7l1.73-3-1.73-3z"/></svg>