<svg height="24" viewBox="0 0 24 24" width="24" xmlns="http://www.w3.org/2000/svg"><path d="m3 4v12h18v-12zm0-2h18c1.1 0 2 .89 2 2v12c0 .53-.21 1.04-.59 1.41-.37.38-.88.59-1.41.59h-7v2h2v2h-8v-2h2v-2h-7c-.53 0-1.04-.21-1.41-.59-.38-.37-.59-.88-.59-1.41v-12c0-1.11.89-2 2-2m7.84 6.93c.31-.3.73-.48 1.16-.48.43.01.85.18 1.16.49.3.3.48.72.48 1.15 0 .44-.18.85-.48 1.16-.31.31-.73.48-1.16.48s-.85-.18-1.16-.48c-.3-.31-.48-.72-.48-1.16 0-.43.18-.85.48-1.16m-.77 3.07c.51.53 1.21.82 1.93.82s1.42-.29 1.93-.82c.51-.5.8-1.19.8-1.91s-.29-1.42-.8-1.93-1.21-.8-1.93-.8-1.42.29-1.93.8-.8 1.21-.8 1.93.29 1.41.8 1.91m-4.07-1.91c.94-2.39 3.27-4.09 6-4.09s5.06 1.7 6 4.09c-.94 2.41-3.27 4.09-6 4.09s-5.06-1.68-6-4.09z"/></svg>