<svg height="24" viewBox="0 0 24 24" width="24" xmlns="http://www.w3.org/2000/svg"><path d="m23.1 22.5-21.7-21.8-1.3 1.3 1.1 1.1c-.1.3-.2.6-.2.9v12c0 1.1.9 2 2 2h7v2h-2v2h4v-6h-9v-11.1l11 11v5.1c0 .6.5 1 1 1h5.1l1.7 1.7zm-4.6-1.5c-1.9 0-3.5-1.6-3.5-3.5 0-.2 0-.4.1-.6l1 1c.2 1 1 1.8 2 2l1 1c-.2.1-.4.1-.6.1m2.5-3.5v.3l-2.8-2.8h.3c1.4 0 2.5 1.1 2.5 2.5m2 2.3v-9.8c0-.6-.5-1-1-1h-7c-.6 0-1 .5-1 1v.8l3.4 3.4c.3-.1.7-.2 1.1-.2 1.9 0 3.5 1.6 3.5 3.5 0 .4-.1.8-.2 1.1zm-4.5-6.8c-.8 0-1.5-.7-1.5-1.5s.7-1.5 1.5-1.5 1.5.7 1.5 1.5-.7 1.5-1.5 1.5m-11.3-9-2-2h15.8c1.1 0 2 .9 2 2v4h-2v-4z"/></svg>