<svg height="24" viewBox="0 0 24 24" width="24" xmlns="http://www.w3.org/2000/svg"><path d="m10 20v-2h-7c-1.1 0-2-.9-2-2v-12c0-1.11.89-2 2-2h18c1.1 0 2 .89 2 2v4h-2v-4h-18v12h9v6h-4v-2zm8.5-5c-1.38 0-2.5 1.12-2.5 2.5s1.12 2.5 2.5 2.5 2.5-1.12 2.5-2.5-1.12-2.5-2.5-2.5m4.5-5v11c0 .55-.45 1-1 1h-7c-.55 0-1-.45-1-1v-11c0-.55.45-1 1-1h7c.55 0 1 .45 1 1m-6 1.5c0 .83.67 1.5 1.5 1.5s1.5-.67 1.5-1.5-.67-1.5-1.5-1.5-1.5.67-1.5 1.5m5 6c0-1.93-1.57-3.5-3.5-3.5s-3.5 1.57-3.5 3.5 1.57 3.5 3.5 3.5 3.5-1.57 3.5-3.5z"/></svg>