<svg height="24" viewBox="0 0 24 24" width="24" xmlns="http://www.w3.org/2000/svg"><path d="m10 .2c-1 0-1.8.8-1.8 1.8s.8 1.8 1.8 1.8 1.8-.8 1.8-1.8-.8-1.8-1.8-1.8m5.67.8a7.33 7.33 0 0 0 7.33 7.33v-1.33a6 6 0 0 1 -6-6zm2.66 0c0 2.58 2.09 4.67 4.67 4.67v-1.34c-1.84 0-3.33-1.49-3.33-3.33zm2.67 0a2 2 0 0 0 2 2v-2zm-13.08 3.03c-.17 0-.34.03-.5.08l-5.42 1.69v5.2h1.8v-3.67l2.11-.66-3.91 15.33h1.8l2.87-8.11 2.33 3.11v5h1.8v-6.41l-2.49-4.54.73-2.87 1.08 1.82h4.88v-1.8h-3.62l-2-3.33c-.3-.5-.84-.84-1.46-.84z"/></svg>