<svg height="24" viewBox="0 0 24 24" width="24" xmlns="http://www.w3.org/2000/svg"><path d="m12 2a10 10 0 0 1 10 10 10 10 0 0 1 -10 10 10 10 0 0 1 -10-10 10 10 0 0 1 10-10m0 2a2.5 2.5 0 0 0 -2.5 2.5 2.5 2.5 0 0 0 2.5 2.5 2.5 2.5 0 0 0 2.5-2.5 2.5 2.5 0 0 0 -2.5-2.5m-7.6 5.53c-.43 1.31.29 2.72 1.6 3.15 1.32.42 2.73-.29 3.15-1.61.43-1.31-.29-2.72-1.6-3.15-1.31-.42-2.73.29-3.15 1.61m15.21-.03c-.43-1.29-1.84-2-3.15-1.58-1.32.42-2.04 1.83-1.61 3.15.43 1.31 1.84 2.03 3.15 1.6 1.31-.42 2.03-1.84 1.61-3.17m-12.3 8.96c1.11.82 2.69.57 3.49-.55.81-1.12.56-2.68-.56-3.49-1.11-.81-2.68-.56-3.49.55-.81 1.12-.56 2.68.56 3.49m9.39 0c1.12-.81 1.37-2.37.56-3.49s-2.38-1.37-3.49-.55c-1.12.81-1.37 2.37-.56 3.49.79 1.12 2.38 1.36 3.49.55m-4.7-7.96a1.5 1.5 0 0 0 -1.5 1.5 1.5 1.5 0 0 0 1.5 1.5 1.5 1.5 0 0 0 1.5-1.5 1.5 1.5 0 0 0 -1.5-1.5z"/></svg>