<svg height="24" viewBox="0 0 24 24" width="24" xmlns="http://www.w3.org/2000/svg"><path d="m22.1 21.5-19.7-19.8-1.3 1.3 3 3c-1.3 1.6-2.1 3.7-2.1 6 0 1.1.9 2 2 2h8.1l1 1h-4.1l-1 3.5-.3 1c-.3 1.1.4 2.2 1.4 2.4l.6.1h4.7c1.1 0 2-.9 2-2l-.1-.5-.3-1-.2-.9 5.1 5.1zm-18.1-9.5c0-1.7.6-3.3 1.5-4.6l.7.7c-.1.3-.2.6-.2.9 0 1.1.9 2 2 2 .3 0 .6-.1.9-.2l1.2 1.2zm5.7 8 .3-1 .6-2h3l.6 2 .3 1zm6.3-9c-1.1 0-2-.9-2-2s.9-2 2-2 2 .9 2 2-.9 2-2 2m-7.8-6-1.5-1.5c1.6-.9 3.4-1.5 5.3-1.5 5.5 0 10 4.5 10 10 0 1.1-.9 2-2 2h-2.8l-2-2h4.8c0-3.7-2.6-6.9-6-7.8-.1 1-1 1.8-2 1.8s-1.9-.8-2-1.8c-.6.2-1.3.5-1.8.8z"/></svg>