<svg height="24" viewBox="0 0 24 24" width="24" xmlns="http://www.w3.org/2000/svg"><path d="m4 12h16c0-3.73-2.56-6.87-6-7.75-.14.99-1 1.75-2 1.75s-1.86-.76-2-1.75c-3.44.88-6 4.02-6 7.75m8-10a10 10 0 0 1 10 10 2 2 0 0 1 -2 2h-16a2 2 0 0 1 -2-2 10 10 0 0 1 10-10m1.5 15h-3l-.58 2-.27 1h4.7l-.27-1zm1.5-2 1 3.5.27.95.08.55c0 1.1-.9 2-2 2h-4.7l-.48-.06c-1.07-.28-1.72-1.37-1.44-2.44l.27-1 1-3.5zm1-8a2 2 0 0 1 2 2 2 2 0 0 1 -2 2 2 2 0 0 1 -2-2 2 2 0 0 1 2-2m-8 0a2 2 0 0 1 2 2 2 2 0 0 1 -2 2 2 2 0 0 1 -2-2 2 2 0 0 1 2-2z"/></svg>