<svg height="24" viewBox="0 0 24 24" width="24" xmlns="http://www.w3.org/2000/svg"><path d="m22.1 21.5-19.7-19.8-1.3 1.3 3 3c-1.3 1.6-2.1 3.7-2.1 6 0 1.1.9 2 2 2h8.1l1 1h-4.1l-1.3 4.5v.5c0 1.1.9 2 2 2h4.7c1.1 0 2-.9 2-2l-.1-.5-.5-1.8 5.1 5.1zm-15.1-9.5c-1.1 0-2-.9-2-2 0-.8.5-1.6 1.3-1.9l2.6 2.6c-.3.8-1.1 1.3-1.9 1.3m3-6c0-1.1.9-2 2-2s2 .9 2 2-.9 2-2 2c-.5 0-.9-.2-1.3-.5l6.5 6.5h2.8c1.1 0 2-.9 2-2 0-5.5-4.5-10-10-10-1.9 0-3.7.6-5.3 1.5l3.7 3.7c-.2-.3-.4-.7-.4-1.2m7 2c1.1 0 2 .9 2 2s-.9 2-2 2-2-.9-2-2 .9-2 2-2z"/></svg>