<svg height="24" viewBox="0 0 24 24" width="24" xmlns="http://www.w3.org/2000/svg"><path d="m16.5 12c2.5 0 4.5 2 4.5 4.5 0 .88-.24 1.71-.68 2.4l3.08 3.1-1.4 1.39-3.11-3.07c-.69.43-1.51.68-2.39.68-2.5 0-4.5-2-4.5-4.5s2-4.5 4.5-4.5m0 2a2.5 2.5 0 0 0 -2.5 2.5 2.5 2.5 0 0 0 2.5 2.5c1.39 0 2.5-1.12 2.5-2.5a2.5 2.5 0 0 0 -2.5-2.5m1.5-8v4.18c-.67-.18-1.34-.21-2-.18v-2h-3v2.28l.53.44c-1.19.61-2.18 1.58-2.81 2.81-.44-.36-.72-.91-.72-1.53 0-.74.41-1.38 1-1.72v-2.28a2 2 0 0 1 2-2zm-12 12v-12h2 2v2h-2v8h2c-.04.68 0 1.35.17 2zm14-14h-16v16h7c.53.8 1.21 1.5 2.03 2h-9.03c-1.11 0-2-.9-2-2v-16a2 2 0 0 1 2-2h16a2 2 0 0 1 2 2v9.04c-.5-.8-1.18-1.5-2-2.04z"/></svg>