<svg height="24" viewBox="0 0 24 24" width="24" xmlns="http://www.w3.org/2000/svg"><path d="m7.24 2c-1.64 0-3.28 0-3.69.04-.88.05-1.47.69-1.51 1.52-.04.81-.04 16.03 0 16.85.05.82.67 1.45 1.51 1.5.91.05 3.89.06 4.74.06-1.53-1.06-1.74-3.05-1.88-6.74-.08-2.19-.01-9.87 0-10.19l.04-2.1 8.05 8.06v2.5l-6.41-6.39c-.01 1.27-.03 2.92-.03 4.43 0 1.46.02 2.8.06 3.51.24 4.02.62 5.91 2.71 6.65.67.23 1.24.3 2.24.3.82 0 6.56 0 7.38-.04.88-.05 1.48-.69 1.52-1.52.03-.81.03-15.99 0-16.82-.06-.82-.68-1.44-1.52-1.49-.91-.05-3.88-.1-4.74-.1 1.53 1.06 1.73 3.05 1.88 6.75.08 2.19.01 9.86 0 10.19l-.04 2.09-8.02-8.06v-2.5l6.38 6.39c.01-1.27.03-2.92.03-4.43 0-1.46-.02-2.8-.06-3.5-.24-4.03-.62-5.92-2.71-6.66-.64-.23-1.24-.3-2.24-.3z"/></svg>