<svg height="24" viewBox="0 0 24 24" width="24" xmlns="http://www.w3.org/2000/svg"><path d="m7.75 13c-.01-.35.15-.69.42-.92.75.16 1.45.47 2.08.92 0 .68-.56 1.24-1.25 1.24s-1.24-.55-1.25-1.24m6 0c.63-.44 1.33-.75 2.08-.91.27.23.43.57.42.91 0 .7-.56 1.26-1.25 1.26s-1.25-.56-1.25-1.26zm-1.75-4c-2.77-.04-5.5.65-7.93 2l-.07 1c0 1.23.29 2.44.84 3.54 2.37-.36 4.76-.54 7.16-.54s4.79.18 7.16.54c.55-1.1.84-2.31.84-3.54l-.07-1c-2.43-1.35-5.16-2.04-7.93-2m0-7a10 10 0 0 1 10 10 10 10 0 0 1 -10 10 10 10 0 0 1 -10-10 10 10 0 0 1 10-10z"/></svg>