<svg height="24" viewBox="0 0 24 24" width="24" xmlns="http://www.w3.org/2000/svg"><path d="m17.84 16.94h-1.87v-6.15h1.87zm.16-8.36c0 .61-.5 1.11-1.1 1.11a1.11 1.11 0 0 1 -1.11-1.11c0-.62.5-1.12 1.11-1.12.6 0 1.1.5 1.1 1.12m3.82 8.36h-1.88v-6.15h1.88zm.18-8.36c0 .61-.5 1.11-1.12 1.11a1.11 1.11 0 0 1 -1.11-1.11c0-.62.5-1.12 1.11-1.12.62 0 1.12.5 1.12 1.12m-9.1-.53h2l-2.12 7.45s-.28 1.54-1.5 1.54c-1.21 0-1.49-1.54-1.49-1.54l-1.34-4.86-1.34 4.86s-.29 1.54-1.5 1.54-1.49-1.54-1.49-1.54l-2.12-7.45h2l1.72 6.62 1.39-5.37c.32-1.35 1.34-1.33 1.34-1.33s1.02-.02 1.34 1.33l1.38 5.37z"/></svg>