<svg height="24" viewBox="0 0 24 24" width="24" xmlns="http://www.w3.org/2000/svg"><path d="m10.04 20.4h-2.92c-.93 0-1.82-.4-2.48-1.04-.64-.66-1.04-1.55-1.04-2.48v-9.76c0-.93.4-1.82 1.04-2.48.66-.64 1.55-1.02 2.48-1.02h2.92zm-2.92-18.4a5.12 5.12 0 0 0 -5.12 5.12v9.76c0 2.83 2.29 5.12 5.12 5.12h4.53v-20zm-2.01 6c0 1.04.84 1.88 1.89 1.88 1.03 0 1.87-.84 1.87-1.88s-.84-1.88-1.87-1.88c-1.05 0-1.89.84-1.89 1.88m12.5 3c1.11 0 2.01.89 2.01 2 0 1.12-.9 2-2.01 2s-2.03-.88-2.03-2c0-1.11.92-2 2.03-2m-.73 11a5.12 5.12 0 0 0 5.12-5.12v-9.76c0-2.83-2.29-5.12-5.12-5.12h-3.23v20z"/></svg>