<svg height="24" viewBox="0 0 24 24" width="24" xmlns="http://www.w3.org/2000/svg"><path d="m17.83 12.74c-.28-.57-1.07-1.05-2.12-.24-1.43 1.14-3.71 1.14-3.71 1.14s-2.28 0-3.71-1.14c-1.05-.81-1.84-.33-2.12.24-.5 1 .06 1.49 1.33 2.3 1.09.7 2.58.96 3.54 1.06l-.8.8c-1.14 1.13-2.24 2.22-2.99 2.98-.45.46-.45 1.19 0 1.62l.14.16c.45.45 1.19.45 1.64 0l2.97-2.98c1.15 1.13 2.24 2.22 3 2.98.45.45 1.18.45 1.64 0l.13-.16c.46-.43.46-1.16 0-1.62l-2.98-2.98-.79-.81c.95-.09 2.42-.36 3.5-1.05 1.27-.81 1.83-1.3 1.33-2.3m-5.83-8.17c1.38 0 2.5 1.12 2.5 2.49 0 1.38-1.12 2.49-2.5 2.49s-2.5-1.11-2.5-2.49c0-1.37 1.12-2.49 2.5-2.49m0 7.55c2.8 0 5.06-2.26 5.06-5.06 0-2.79-2.26-5.06-5.06-5.06s-5.06 2.27-5.06 5.06c0 2.8 2.26 5.06 5.06 5.06z"/></svg>