<svg height="24" viewBox="0 0 24 24" width="24" xmlns="http://www.w3.org/2000/svg"><path d="m10 5h3v-2h-3v-1c0-.6-.4-1-1-1s-1 .4-1 1v13.3c-.6.3-1 1-1 1.7 0 1.1.9 2 2 2s2-.9 2-2c0-.7-.4-1.4-1-1.7v-2.3h3v-2h-3v-2h3v-2h-3zm12 12.5s2 2.2 2 3.5c0 1.1-.9 2-2 2s-2-.9-2-2c0-1.3 2-3.5 2-3.5m.9-2c-.3.5-.9.6-1.4.4l-2.1-1.2-3.6 6.3c-.3.6-1 1-1.8 1h-9c-1.1 0-2-.9-2-2v-3c0-1.1.9-2 2-2v5h9l2.1-3.6-3.1 1.8v-2.4l6.2-3.6 3.3 1.9c.5.3.6.9.4 1.4m-19.4-1.6-1.7 1.7c-.4.4-1 .4-1.4 0s-.4-1 0-1.4l1.7-1.7c.4-.4 1-.4 1.4 0s.4 1 0 1.4z"/></svg>