<svg height="24" viewBox="0 0 24 24" width="24" xmlns="http://www.w3.org/2000/svg"><path d="m8 18c-1.33 0-2.21.79-2.71 1.29s-.62.71-1.29.71-.79-.21-1.29-.71c-.36-.36-.92-.87-1.71-1.13v2.25c.09.09.18.18.29.3.5.5 1.38 1.29 2.71 1.29s2.21-.79 2.71-1.29.62-.71 1.29-.71.79.21 1.29.71c.44.43 1.15 1.09 2.21 1.25.16.04.33.04.5.04 1.33 0 2.21-.79 2.71-1.29s.62-.71 1.29-.71.79.21 1.29.71 1.38 1.29 2.71 1.29 2.21-.79 2.71-1.29c.11-.12.2-.21.29-.3v-2.25c-.79.26-1.35.77-1.71 1.13-.5.5-.62.71-1.29.71s-.79-.21-1.29-.71-1.38-1.29-2.71-1.29-2.21.79-2.71 1.29-.62.71-1.29.71c-.22 0-.37-.03-.5-.08-.28-.1-.45-.29-.79-.63-.5-.5-1.38-1.29-2.71-1.29m14-7.5s2 2.17 2 3.5c0 1.1-.9 2-2 2s-2-.9-2-2c0-1.33 2-3.5 2-3.5m.5-3.37-3.26-1.89-6.51 3.76c-.34-.6-.99-1-1.73-1h-2v-2h1c.55 0 1-.45 1-1s-.45-1-1-1h-4c-.55 0-1 .45-1 1s.45 1 1 1h1v2h-2c-1.1 0-2 .9-2 2v3c0 1.1.9 2 2 2h9c.75 0 1.41-.42 1.75-1.03l3.65-6.32 2.1 1.21c.5.28 1.09.11 1.37-.36.27-.5.13-1.1-.37-1.37m-8.5 5.87h-9v-3h6.69l.91 1.43 3.46-2zm-10.5-6.08-1.71 1.7a1 1 0 0 1 -1.41-1.41l1.71-1.71a1 1 0 0 1 1.41 0c.39.39.39 1 0 1.42z"/></svg>