<svg height="24" viewBox="0 0 24 24" width="24" xmlns="http://www.w3.org/2000/svg"><path d="m22 12.5s2 2.17 2 3.5a2 2 0 0 1 -2 2 2 2 0 0 1 -2-2c0-1.33 2-3.5 2-3.5m-16-6.5h4a1 1 0 0 1 1 1 1 1 0 0 1 -1 1h-1v2h2c.74 0 1.39.4 1.73 1l6.51-3.76 3.26 1.89c.5.27.64.87.37 1.37-.28.47-.87.64-1.37.36l-2.1-1.21-3.65 6.32c-.34.61-1 1.03-1.75 1.03h-9a2 2 0 0 1 -2-2v-3a2 2 0 0 1 2-2h2v-2h-1a1 1 0 0 1 -1-1 1 1 0 0 1 1-1m-1 6v3h9l2.06-3.57-3.46 2-.91-1.43zm-4.62-2.79 1.71-1.71c.41-.39 1.02-.39 1.41 0s.39 1 0 1.41l-1.71 1.71c-.39.38-1.02.38-1.41 0-.38-.39-.38-1.02 0-1.41z"/></svg>