<svg height="24" viewBox="0 0 24 24" width="24" xmlns="http://www.w3.org/2000/svg"><path d="m15.41 22c-.06 0-.13 0-.19 0-.12-.05-.22-.15-.26-.27l-2.22-5.8c-.09-.24.03-.51.26-.61.71-.26 1.28-.82 1.58-1.49.64-1.43 0-3.1-1.43-3.74s-3.1 0-3.74 1.41c-.3.71-.32 1.5-.05 2.19.3.74.89 1.31 1.64 1.59.24.09.37.36.28.61l-2.28 5.8c-.04.12-.13.22-.25.27-.12.04-.25.04-.36 0-5.15-1.99-7.72-7.78-5.73-12.93s7.78-7.72 12.93-5.73c2.47.96 4.46 2.85 5.54 5.27 1.09 2.43 1.16 5.18.2 7.65-1.01 2.66-3.1 4.78-5.75 5.78-.08 0-.11 0-.17 0m-3.41-18.41c-4.97-.13-9.1 3.8-9.23 8.77-.09 3.72 2.11 7.11 5.55 8.54l1.89-4.9c-1.83-1-2.52-3.28-1.53-5.11s3.28-2.51 5.11-1.53c1.83.99 2.52 3.28 1.53 5.11-.35.65-.88 1.18-1.53 1.53l1.89 4.93c2.18-.98 3.89-2.77 4.76-5 1.84-4.62-.4-9.85-5.02-11.7-1.09-.43-2.25-.65-3.42-.64z"/></svg>