<svg height="24" viewBox="0 0 24 24" width="24" xmlns="http://www.w3.org/2000/svg"><path d="m12 1a3 3 0 0 1 3 3v1a1 1 0 0 1 1 1v1.07c2.39 1.38 4 3.97 4 6.93a8 8 0 0 1 -8 8 8 8 0 0 1 -8-8c0-2.96 1.61-5.55 4-6.93v-1.07a1 1 0 0 1 1-1v-1a3 3 0 0 1 3-3m0 2a1 1 0 0 0 -1 1v1h2v-1a1 1 0 0 0 -1-1m0 5c-1.78 0-3.37.77-4.47 2h8.94c-1.1-1.23-2.69-2-4.47-2m0 12c1.78 0 3.37-.77 4.47-2h-8.94c1.1 1.23 2.69 2 4.47 2m0-8a2 2 0 0 0 -2 2 2 2 0 0 0 2 2 2 2 0 0 0 2-2 2 2 0 0 0 -2-2m6 2c0-.69-.12-1.35-.33-2-.95.19-1.67 1-1.67 2s.72 1.81 1.67 1.97c.21-.62.33-1.28.33-1.97m-12 0c0 .69.12 1.35.33 1.97.95-.16 1.67-.97 1.67-1.97s-.72-1.81-1.67-2c-.21.65-.33 1.31-.33 2z"/></svg>