<svg height="24" viewBox="0 0 24 24" width="24" xmlns="http://www.w3.org/2000/svg"><path d="m12 1a3 3 0 0 1 3 3v1a1 1 0 0 1 1 1v1.07c2.39 1.38 4 3.97 4 6.93a8 8 0 0 1 -8 8 8 8 0 0 1 -8-8c0-2.96 1.61-5.55 4-6.93v-1.07a1 1 0 0 1 1-1v-1a3 3 0 0 1 3-3m0 2a1 1 0 0 0 -1 1v1h2v-1a1 1 0 0 0 -1-1m0 5c-1.78 0-3.37.77-4.47 2h8.94c-1.1-1.23-2.69-2-4.47-2m-5.66 8h1.25l-1.59-1.57c.05.57.17 1.07.34 1.57m6.25 0-4-4h-2.18l4 4zm5.07-4h-1.25l1.59 1.57c-.05-.57-.17-1.07-.34-1.57m-6.25 0 4 4h2.18l-4-4zm.59 8c1.78 0 3.37-.77 4.47-2h-8.94c1.1 1.23 2.69 2 4.47 2z"/></svg>