<svg height="24" viewBox="0 0 24 24" width="24" xmlns="http://www.w3.org/2000/svg"><path d="m12 16c.56.84 1.31 1.53 2.2 2l-2.2 2.2-2.2-2.2c.89-.47 1.65-1.16 2.2-2m5-4.8a2 2 0 0 0 -2 2 2 2 0 0 0 2 2 2 2 0 0 0 2-2c0-1.11-.9-2-2-2m-10 0a2 2 0 0 0 -2 2 2 2 0 0 0 2 2 2 2 0 0 0 2-2c0-1.11-.9-2-2-2m10-2.5a4 4 0 0 1 4 4 4 4 0 0 1 -4 4 4 4 0 0 1 -4-4 4 4 0 0 1 4-4m-10 0a4 4 0 0 1 4 4 4 4 0 0 1 -4 4 4 4 0 0 1 -4-4 4 4 0 0 1 4-4m-4.76-7.7c1.76 3.7.49 6.46-.69 9.2-.36.8-.55 1.63-.55 2.5a6 6 0 0 0 6 6c.21-.01.42-.02.63-.05l2.96 2.96 1.41 1.39 1.41-1.39 2.96-2.96c.21.03.42.04.63.05a6 6 0 0 0 6-6c0-.87-.19-1.7-.55-2.5-1.18-2.74-2.45-5.5-.69-9.2-2.64 2.06-6.4 3.69-9.76 3.7-3.36-.01-7.12-1.64-9.76-3.7z"/></svg>