<svg height="24" viewBox="0 0 24 24" width="24" xmlns="http://www.w3.org/2000/svg"><path d="m12 9c1.59 7.61-2 13-2 13h3c1.88-5.8 1-9.91.5-12m2.16-2.84c.17.21.34.43.47.66 1.71 2.71 1.37 6.13-.63 8.44.84-2.05.72-4.47-.55-6.49-.08-.13-.17-.24-.25-.36-.59-.83-1.34-1.49-2.16-1.98-2.88.92-4.96 3.61-4.96 6.79 0 .74.11 1.45.31 2.11-.84-1.17-1.33-2.6-1.33-4.14 0-2.35 1.14-4.43 2.89-5.73-1.45-.11-2.99.21-4.33 1.04-.62.41-1.16.88-1.62 1.41.55-1.33 1.5-2.52 2.8-3.34 1.5-.94 3.2-1.25 4.84-1.01-.41-.56-.91-1.09-1.51-1.56-.58-.42-1.21-.76-1.87-1 1.44.04 2.88.5 4.11 1.43.63.47 1.13 1.04 1.53 1.64.1 0 .19-.01.29-.01 3.2 0 5.91 2.11 6.81 5.02-1.12-1.58-2.85-2.65-4.84-2.92z"/></svg>