<svg height="24" viewBox="0 0 24 24" width="24" xmlns="http://www.w3.org/2000/svg"><path d="m12 3c1.74 0 3.36.5 4.74 1.35.64-.82 1.64-1.35 2.76-1.35a3.5 3.5 0 0 1 3.5 3.5c0 1.5-.95 2.78-2.28 3.28.18.72.28 1.45.28 2.22a9 9 0 0 1 -9 9 9 9 0 0 1 -9-9c0-.77.1-1.5.28-2.22-1.33-.5-2.28-1.78-2.28-3.28a3.5 3.5 0 0 1 3.5-3.5c1.12 0 2.12.53 2.76 1.35 1.38-.85 3-1.35 4.74-1.35m0 2a7 7 0 0 0 -7 7 7 7 0 0 0 7 7 7 7 0 0 0 7-7 7 7 0 0 0 -7-7m4.19 5.3c.36 1.33-.11 2.61-1.04 2.86-.94.26-1.98-.62-2.34-1.96-.36-1.33.11-2.61 1.04-2.86.94-.25 1.98.62 2.34 1.96m-8.38 0c.36-1.34 1.4-2.21 2.34-1.96.93.25 1.4 1.53 1.04 2.86-.36 1.34-1.4 2.22-2.34 1.96-.93-.25-1.4-1.53-1.04-2.86m4.19 3.7c.6 0 1.13.19 1.5.5l-1 1c0 .42.34.75.75.75a.75.75 0 0 0 .75-.75.5.5 0 0 1 .5-.5.5.5 0 0 1 .5.5 1.75 1.75 0 0 1 -1.75 1.75c-.49 0-.93-.2-1.25-.53-.32.33-.76.53-1.25.53a1.75 1.75 0 0 1 -1.75-1.75.5.5 0 0 1 .5-.5.5.5 0 0 1 .5.5.75.75 0 0 0 .75.75.75.75 0 0 0 .75-.75l-1-1c.37-.31.9-.5 1.5-.5z"/></svg>