<svg height="24" viewBox="0 0 24 24" width="24" xmlns="http://www.w3.org/2000/svg"><path d="m12 4c-2.73 0-5.22.24-7.95.72l-.93.16-.25.9c-.58 2.07-.87 4.15-.87 6.22s.29 4.15.87 6.22l.25.89.93.16c2.73.49 5.22.73 7.95.73s5.22-.24 7.95-.72l.93-.16.25-.89c.58-2.08.87-4.16.87-6.23s-.29-4.15-.87-6.22l-.25-.89-.93-.16c-2.73-.49-5.22-.73-7.95-.73m0 2c2.45 0 4.71.2 7.29.64.47 1.78.71 3.58.71 5.36s-.24 3.58-.71 5.36c-2.58.44-4.84.64-7.29.64s-4.71-.2-7.29-.64c-.47-1.78-.71-3.58-.71-5.36s.24-3.58.71-5.36c2.58-.44 4.84-.64 7.29-.64z"/></svg>