<svg height="24" viewBox="0 0 24 24" width="24" xmlns="http://www.w3.org/2000/svg"><path d="m11.43 3.23.57.77.57-.77v.01c.55-.74 1.43-1.24 2.43-1.24a3 3 0 0 1 3 3c0 .35-.06.69-.17 1h2.17a2 2 0 0 1 2 2v12a2 2 0 0 1 -2 2h-16a2 2 0 0 1 -2-2v-12a2 2 0 0 1 2-2h2.17c-.11-.31-.17-.65-.17-1a3 3 0 0 1 3-3c1 0 1.88.5 2.43 1.24zm-7.43 4.77v12h7a1 1 0 0 1 1-1 1 1 0 0 1 1 1h7v-12h-5-.1l2.1 2.92-1.6 1.18-2.98-4.1h-.84l-2.98 4.1-1.6-1.18 2.1-2.92h-.1zm5-4a1 1 0 0 0 -1 1 1 1 0 0 0 1 1 1 1 0 0 0 1-1 1 1 0 0 0 -1-1m6 0a1 1 0 0 0 -1 1 1 1 0 0 0 1 1 1 1 0 0 0 1-1 1 1 0 0 0 -1-1m-3 12a1 1 0 0 1 1 1 1 1 0 0 1 -1 1 1 1 0 0 1 -1-1 1 1 0 0 1 1-1m0-3a1 1 0 0 1 1 1 1 1 0 0 1 -1 1 1 1 0 0 1 -1-1 1 1 0 0 1 1-1m0-3a1 1 0 0 1 1 1 1 1 0 0 1 -1 1 1 1 0 0 1 -1-1 1 1 0 0 1 1-1z"/></svg>