<svg height="24" viewBox="0 0 24 24" width="24" xmlns="http://www.w3.org/2000/svg"><path d="m4 16.5v-8.5h-1v-1h1v-1h-1v-1h1v-1h-1v-1h6c.5.03.95.24 1.34.63s.61.87.66 1.37h10v1h-10c-.05.53-.27 1-.66 1.43s-.84.62-1.34.57h-2v7.05c.05 0 .13-.01.24-.05s.2 0 .26 0c.56 0 1.2.14 1.92.42.41-.92 1.11-1.74 2.11-2.42s2-1 3-1c1.53 0 2.83.53 3.89 1.59s1.58 2.36 1.58 3.91v.27s-.03.2-.03.23h-16.83c.13-.5.41-1 .86-1.5m2-1.27v-7.23h-1v7.7c.5-.25.81-.4 1-.47m3-8.23v-1h-2v1zm0-3h-2v1h2zm-4 0v1h1v-1zm0 2v1h1v-1zm-3 13h20l-2 2h-16z"/></svg>