<svg height="24" viewBox="0 0 24 24" width="24" xmlns="http://www.w3.org/2000/svg"><path d="m12 23c-.47 0-.93-.05-1.39-.15-3.51-.75-5.74-4.21-4.99-7.72.25-1.18.83-2.26 1.66-3.13.34-.36.34-.92 0-1.28-2.08-2.58-1.68-6.36.9-8.44s6.36-1.673 8.44.91c1.77 2.19 1.77 5.31 0 7.53-.29.41-.25.98.1 1.34 2.45 2.62 2.32 6.74-.31 9.19-1.19 1.12-2.77 1.75-4.41 1.75m0-20c-.91 0-1.8.31-2.5.89-.95.76-1.5 1.9-1.5 3.11 0 .91.31 1.79.88 2.5.96 1.14.89 2.83-.15 3.91-1.7 1.81-1.6 4.66.21 6.36s4.66 1.61 6.36-.21c1.62-1.73 1.62-4.42 0-6.15-1.07-1.09-1.15-2.81-.18-4 1.38-1.72 1.1-4.24-.62-5.62-.5-.38-1.03-.65-1.62-.79-.29 0-.59 0-.88 0m0 3c0 .55.45 1 1 1s1-.45 1-1-.45-1-1-1-1 .45-1 1m2 13c.55 0 1-.45 1-1s-.45-1-1-1-1 .45-1 1 .45 1 1 1m-1-3c.55 0 1-.45 1-1s-.45-1-1-1-1 .45-1 1 .45 1 1 1m-2 2c.55 0 1-.45 1-1s-.45-1-1-1-1 .45-1 1 .45 1 1 1z"/></svg>