<svg height="24" viewBox="0 0 24 24" width="24" xmlns="http://www.w3.org/2000/svg"><path d="m15.9 10.12a5 5 0 0 0 -2.82-8 5.74 5.74 0 0 0 -1.08-.12 5 5 0 0 0 -4.32 2.5l8.7 8.68a4.35 4.35 0 0 0 -.34-.41 2 2 0 0 1 -.14-2.65m-2.9-3.12a1 1 0 1 1 1-1 1 1 0 0 1 -1 1m-6-.61-4.61-4.66-1.28 1.27 6.69 6.69c.1.15.2.31.31.43a2 2 0 0 1 -.11 2.6 5.5 5.5 0 0 0 2.81 9.15 5.42 5.42 0 0 0 1.19.13 5.5 5.5 0 0 0 5-3.14l3.87 3.87 1.27-1.27m-11.14-3.46a1 1 0 1 1 1-1 1 1 0 0 1 -1 1m3 1a1 1 0 1 1 1-1 1 1 0 0 1 -1 1m-1-3a1 1 0 0 1 -1-1 1 1 0 0 1 .35-.76l1.41 1.41a1 1 0 0 1 -.76.35z"/></svg>