<svg height="24" viewBox="0 0 24 24" width="24" xmlns="http://www.w3.org/2000/svg"><path d="m22.11 21.46-1.27 1.27-3.15-3.15c-.33.63-.76 1.19-1.28 1.67-1.55 1.46-3.72 2.06-5.8 1.6-3.51-.75-5.74-4.21-4.99-7.72.25-1.18.83-2.26 1.66-3.13.34-.36.34-.92 0-1.28-.65-.81-1.07-1.77-1.24-2.79l-4.93-4.93 1.28-1.27zm-6.81-1.9c.39-.43.7-.93.89-1.48l-2.44-2.44c-.18.23-.46.36-.75.36-.55 0-1-.45-1-1 0-.29.13-.57.36-.75l-2.81-2.81c-.02.74-.31 1.44-.82 1.97-1.7 1.81-1.6 4.66.21 6.36l.01.01c1.81 1.69 4.66 1.59 6.35-.22m-1.3-2.56c-1.29 0-1.28 2 0 2s1.29-2 0-2m-7.1-13.3 1.53 1.53c.25-.52.62-.98 1.07-1.34.7-.58 1.59-.89 2.5-.89h.88c.59.14 1.12.41 1.62.79 1.72 1.38 2 3.9.62 5.62-.42.52-.66 1.17-.67 1.84l3.87 3.87c-.25-1.15-.82-2.2-1.6-3.06-.35-.36-.39-.93-.1-1.34 0 0 1.38-1.72 1.38-3.72s-2.03-6.003-6-6.003-5.1 2.703-5.1 2.703m5.1 13.3c0-1.29-2-1.28-2 0s2 1.29 2 0m1-12c-1.29 0-1.28 2 0 2s1.29-2 0-2z"/></svg>