<svg height="24" viewBox="0 0 24 24" width="24" xmlns="http://www.w3.org/2000/svg"><path d="m19 16c0 1.72-.63 3.3-1.66 4.5.41.39.66.91.66 1.5h-12c0-.59.25-1.11.66-1.5-1.03-1.2-1.66-2.78-1.66-4.5h-2c0-1.25.57-2.36 1.46-3.09l.01-.02c1.53-1.08 2.53-2.89 2.53-4.89v-1a5 5 0 0 1 5-5 5 5 0 0 1 5 5v1c0 2 1 3.81 2.53 4.89l.01.02c.89.73 1.46 1.84 1.46 3.09zm-3 0a4 4 0 0 0 -4-4 4 4 0 0 0 -4 4 4 4 0 0 0 4 4 4 4 0 0 0 4-4m-6-7 2 1.5 2-1.5-2-1.5zm0-4a1 1 0 0 0 -1 1 1 1 0 0 0 1 1 1 1 0 0 0 1-1 1 1 0 0 0 -1-1m4 0a1 1 0 0 0 -1 1 1 1 0 0 0 1 1 1 1 0 0 0 1-1 1 1 0 0 0 -1-1z"/></svg>