<svg height="24" viewBox="0 0 24 24" width="24" xmlns="http://www.w3.org/2000/svg"><path d="m23.71 16.67c-3.05-2.9-7.17-4.67-11.71-4.67s-8.66 1.77-11.71 4.67c-.18.18-.29.43-.29.71 0 .27.11.52.29.7l2.48 2.48c.18.18.43.3.73.3.25 0 .5-.11.68-.29.79-.74 1.68-1.36 2.66-1.85.33-.16.56-.5.56-.9v-3.1c1.45-.47 2.99-.72 4.6-.72 1.6 0 3.15.25 4.6.72v3.1c0 .4.23.74.56.9.98.49 1.87 1.11 2.66 1.85.18.18.43.29.68.29.3 0 .55-.12.73-.3l2.48-2.48c.18-.18.29-.43.29-.7 0-.28-.11-.53-.29-.71m-17.21-11.17 5.5 5.5 7-7-1-1-6 6-4.5-4.5h3.5v-1.5h-6v6h1.5z"/></svg>