<svg height="24" viewBox="0 0 24 24" width="24" xmlns="http://www.w3.org/2000/svg"><path d="m12 3c4.53 0 8.65 1.78 11.7 4.67.18.18.3.42.3.7s-.11.53-.29.71l-2.48 2.48c-.18.18-.43.29-.73.29-.25 0-.5-.1-.68-.28-.82-.73-1.69-1.36-2.67-1.85-.33-.16-.56-.51-.56-.9v-3.1c-1.45-.47-3-.72-4.59-.72-1.56 0-3.07.24-4.5.69l-1.56-1.58c1.88-.71 3.92-1.11 6.06-1.11m-3 4h2v2h2v-2h2v3s6 5 6 8v1.18l-12-12zm-8-2.73 1.28-1.27 19.22 19.22-1.27 1.28-1.5-1.5h-15.73v-4c0-2.14 3.05-5.29 4.8-6.93l-1.21-1.21c-.88.47-1.69 1.04-2.41 1.72-.18.17-.43.28-.68.28-.3 0-.55-.11-.73-.29l-2.48-2.48c-.18-.18-.29-.43-.29-.71s.11-.53.29-.71c.706-.67 2.29-1.82 2.29-1.82zm7 11.73c0 2.21 1.79 4 4 4 1.29 0 2.44-.61 3.17-1.56l-1.07-1.08c-.45.69-1.22 1.14-2.1 1.14-1.38 0-2.5-1.12-2.5-2.5 0-.88.45-1.65 1.14-2.09l-1.08-1.08c-.95.73-1.56 1.88-1.56 3.17z"/></svg>