<svg height="24" viewBox="0 0 24 24" width="24" xmlns="http://www.w3.org/2000/svg"><path d="m20 15.5c-1.25 0-2.45-.2-3.57-.57-.1-.03-.21-.05-.31-.05-.26 0-.51.12-.71.29l-2.2 2.2c-2.83-1.44-5.15-3.75-6.59-6.58l2.2-2.21c.28-.27.36-.66.25-1.01-.37-1.12-.57-2.32-.57-3.57 0-.55-.45-1-1-1h-3.5c-.55 0-1 .45-1 1 0 9.39 7.61 17 17 17 .55 0 1-.45 1-1v-3.5c0-.55-.45-1-1-1m-14.97-10.5h1.5c.07.88.22 1.75.47 2.59l-1.21 1.21c-.41-1.21-.67-2.48-.76-3.8m13.97 13.97c-1.32-.09-2.6-.35-3.8-.76l1.2-1.21c.85.25 1.72.4 2.6.46zm-7-15.97v10l3-3h6v-7zm7 5h-5v-3h5z"/></svg>