<svg height="24" viewBox="0 0 24 24" width="24" xmlns="http://www.w3.org/2000/svg"><path d="m12 3c-4.54 0-8.66 1.78-11.71 4.67-.18.18-.29.43-.29.71s.11.53.29.71l2.48 2.48c.18.18.43.29.73.29.25 0 .5-.11.68-.28.79-.74 1.69-1.36 2.66-1.85.33-.16.56-.5.56-.9v-3.1c1.45-.48 2.99-.73 4.6-.73 1.59 0 3.14.25 4.59.72v3.1c0 .39.23.74.56.9.98.49 1.85 1.12 2.67 1.85.18.18.43.28.68.28.3 0 .55-.11.73-.29l2.48-2.48c.18-.18.29-.43.29-.71s-.12-.52-.3-.7c-3.05-2.89-7.17-4.67-11.7-4.67m-3 4v3s-6 5-6 8v4h18v-4c0-3-6-8-6-8v-3h-2v2h-2v-2zm3 5a4 4 0 0 1 4 4 4 4 0 0 1 -4 4 4 4 0 0 1 -4-4 4 4 0 0 1 4-4m0 1.5a2.5 2.5 0 0 0 -2.5 2.5 2.5 2.5 0 0 0 2.5 2.5 2.5 2.5 0 0 0 2.5-2.5 2.5 2.5 0 0 0 -2.5-2.5z"/></svg>