<svg height="24" viewBox="0 0 24 24" width="24" xmlns="http://www.w3.org/2000/svg"><path d="m23.71 16.67c-3.05-2.89-7.17-4.67-11.71-4.67s-8.66 1.78-11.71 4.67c-.18.18-.29.43-.29.71s.11.53.29.71l2.48 2.48c.18.18.43.29.71.29.27 0 .52-.11.7-.28.79-.74 1.69-1.36 2.66-1.85.33-.16.56-.5.56-.9v-3.1c1.45-.48 3-.73 4.6-.73s3.15.25 4.6.72v3.1c0 .39.23.74.56.9.98.49 1.87 1.12 2.66 1.85.18.18.43.28.7.28.28 0 .53-.11.71-.29l2.48-2.48c.18-.18.29-.43.29-.71a.99.99 0 0 0 -.29-.7zm-18.31.56c-.66.37-1.29.8-1.87 1.27l-1.07-1.07c.91-.75 1.9-1.39 2.95-1.9v1.7zm15.07 1.26c-.59-.48-1.21-.9-1.87-1.27v-1.7c1.04.51 2.03 1.15 2.94 1.9zm.69-12.23-1.41-1.41-3.56 3.55 1.41 1.41s3.45-3.52 3.56-3.55zm-10.16-4.26h2v5h-2zm-4.6 7.81 1.41-1.41-3.55-3.56-1.42 1.42c.11.03 3.56 3.55 3.56 3.55z"/></svg>