<svg height="24" viewBox="0 0 24 24" width="24" xmlns="http://www.w3.org/2000/svg"><path d="m20 15.5c-1.2 0-2.5-.2-3.6-.6h-.3c-.3 0-.5.1-.7.3l-2.2 2.2c-2.8-1.5-5.2-3.8-6.6-6.6l2.2-2.2c.3-.3.4-.7.2-1-.3-1.1-.5-2.4-.5-3.6 0-.5-.5-1-1-1h-3.5c-.5 0-1 .5-1 1 0 9.4 7.6 17 17 17 .5 0 1-.5 1-1v-3.5c0-.5-.5-1-1-1m-15-10.5h1.5c.1.9.3 1.8.5 2.6l-1.2 1.2c-.4-1.2-.7-2.5-.8-3.8m14 14c-1.3-.1-2.6-.4-3.8-.8l1.2-1.2c.8.2 1.7.4 2.6.4zm-1-11.79.94.93-.94.94m0-6.17.94.94-.94.94m-3.29 4.71 2.29-2.29v3.79h.5l2.85-2.86-2.14-2.14 2.14-2.15-2.85-2.85h-.5v3.79l-2.29-2.29-.71.71 2.79 2.79-2.79 2.79z"/></svg>