<svg height="24" viewBox="0 0 24 24" width="24" xmlns="http://www.w3.org/2000/svg"><path d="m6.62 10.79c1.44 2.83 3.76 5.15 6.59 6.59l2.2-2.2c.28-.28.67-.36 1.02-.25 1.12.37 2.32.57 3.57.57.55 0 1 .45 1 1v3.5c0 .55-.45 1-1 1-9.39 0-17-7.61-17-17 0-.55.45-1 1-1h3.5c.55 0 1 .45 1 1 0 1.25.2 2.45.57 3.57.11.35.03.74-.25 1.02zm9.88-8.79c-2.5 0-4.5 2-4.5 4.5s2 4.5 4.5 4.5 4.5-2 4.5-4.5-2-4.5-4.5-4.5m0 7.5c-1.66 0-3-1.34-3-3 0-.56.15-1.08.42-1.5l4.08 4.08c-.42.27-.94.42-1.5.42m2.58-1.5-4.08-4.08c.42-.27.94-.42 1.5-.42 1.66 0 3 1.34 3 3 0 .56-.15 1.08-.42 1.5z"/></svg>