<svg height="24" viewBox="0 0 24 24" width="24" xmlns="http://www.w3.org/2000/svg"><path d="m20 15.5a11.36 11.36 0 0 1 -3.57-.57 1 1 0 0 0 -1 .25l-2.2 2.2a15.1 15.1 0 0 1 -6.59-6.59l2.2-2.2a1 1 0 0 0 .25-1 11.36 11.36 0 0 1 -.59-3.59 1 1 0 0 0 -1-1h-3.5a1 1 0 0 0 -1 1 17 17 0 0 0 17 17 1 1 0 0 0 1-1v-3.5a1 1 0 0 0 -1-1m-15-10.5h1.54a12.54 12.54 0 0 0 .46 2.59l-1.21 1.21a15 15 0 0 1 -.79-3.8m14 14a15 15 0 0 1 -3.8-.76l1.21-1.24a12.31 12.31 0 0 0 2.59.45m-4-6.01-3.71-3.7 1.42-1.42 2.29 2.27 5.29-5.3 1.42 1.42z"/></svg>