<svg height="24" viewBox="0 0 24 24" width="24" xmlns="http://www.w3.org/2000/svg"><path d="m16.4 17c.8.2 1.7.4 2.6.5v1.5c-1.3-.1-2.6-.3-3.8-.8zm3.8-14.5-17.7 17.7 1.3 1.3 4.9-4.9c3.1 2.8 7.1 4.4 11.3 4.4.6 0 1-.4 1-1v-3.5c0-.6-.4-1-1-1-1.2 0-2.5-.2-3.6-.6h-.3c-.3 0-.5.1-.7.3l-2.2 2.2c-1.1-.6-2.2-1.3-3.1-2.2l11.4-11.4zm-13.7 2.5c.1.9.3 1.8.5 2.6l-1.2 1.2c-.4-1.2-.7-2.5-.8-3.8zm1-2h-3.5c-.6 0-1 .4-1 1 0 3.6 1.1 7 3.2 9.9l1.4-1.4c-.4-.5-.7-1.1-1-1.7l2.2-2.2c.3-.3.4-.7.2-1-.3-1.2-.5-2.4-.5-3.6 0-.6-.4-1-1-1z"/></svg>