<svg height="24" viewBox="0 0 24 24" width="24" xmlns="http://www.w3.org/2000/svg"><path d="m23.71 11.67a17 17 0 0 0 -23.42 0 1 1 0 0 0 -.29.71 1 1 0 0 0 .29.7l2.48 2.48a1 1 0 0 0 .73.29 1 1 0 0 0 .68-.28 11.5 11.5 0 0 1 2.66-1.85 1 1 0 0 0 .56-.9v-3.1a14.91 14.91 0 0 1 4.6-.72 14.5 14.5 0 0 1 4.59.73v3.1a1 1 0 0 0 .56.9 11.27 11.27 0 0 1 2.67 1.85 1 1 0 0 0 .68.28 1 1 0 0 0 .73-.29l2.48-2.48a1 1 0 0 0 0-1.42m-18.31.55a13.68 13.68 0 0 0 -1.87 1.28l-1.07-1.08a15.54 15.54 0 0 1 2.94-1.92m15.1 3a13.75 13.75 0 0 0 -1.9-1.27v-1.7a14.26 14.26 0 0 1 2.95 1.9z"/></svg>