<svg height="24" viewBox="0 0 24 24" width="24" xmlns="http://www.w3.org/2000/svg"><path d="m13 17v2h1a1 1 0 0 1 1 1h7v2h-7a1 1 0 0 1 -1 1h-4a1 1 0 0 1 -1-1h-7v-2h7a1 1 0 0 1 1-1h1v-2zm10.7-9.33c.18.18.3.42.3.7s-.11.53-.29.71l-2.48 2.48c-.18.18-.43.29-.73.29-.25 0-.5-.1-.68-.28-.82-.73-1.69-1.36-2.67-1.85-.33-.16-.56-.51-.56-.9v-3.1c-1.45-.47-3-.72-4.59-.72-1.6 0-3.15.25-4.6.73v3.1c0 .4-.23.74-.56.9-.97.49-1.87 1.11-2.66 1.85-.18.17-.43.28-.68.28-.3 0-.55-.11-.73-.29l-2.48-2.48c-.18-.18-.29-.43-.29-.71s.11-.53.29-.71c3.05-2.89 7.17-4.67 11.71-4.67 4.53 0 8.65 1.78 11.7 4.67m-12.7 2.33v5h-1v-5zm1 0h3v3h-2v2h-1zm2 2v-1h-1v1z"/></svg>