<svg height="24" viewBox="0 0 24 24" width="24" xmlns="http://www.w3.org/2000/svg"><path d="m20 15.5c-1.25 0-2.45-.2-3.57-.57-.35-.11-.74-.03-1.02.25l-2.2 2.2c-2.83-1.44-5.15-3.76-6.59-6.59l2.2-2.2c.28-.28.36-.67.25-1.02-.37-1.12-.57-2.32-.57-3.57a1 1 0 0 0 -1-1h-3.5a1 1 0 0 0 -1 1 17 17 0 0 0 17 17 1 1 0 0 0 1-1v-3.5a1 1 0 0 0 -1-1m-2-8.29.94.93-.94.94m0-6.17.94.94-.94.94m-3.29 4.71 2.29-2.29v3.79h.5l2.85-2.86-2.14-2.14 2.14-2.15-2.85-2.85h-.5v3.79l-2.29-2.29-.71.71 2.79 2.79-2.79 2.79z"/></svg>