<svg height="24" viewBox="0 0 24 24" width="24" xmlns="http://www.w3.org/2000/svg"><path d="m18.6 15.5v1.8c.7.4 1.3.8 1.9 1.3l1.1-1.1c-.9-.9-1.9-1.5-3-2m-13.2 0c-1 .5-2 1.1-2.9 1.9l1.1 1.1c.6-.5 1.2-.9 1.9-1.3v-1.7m6.5-3.5c4.5 0 8.7 1.7 11.7 4.7.2.2.3.4.3.7s-.1.5-.3.7l-2.5 2.5c-.2.2-.4.3-.7.3-.2 0-.5-.1-.7-.3-.8-.7-1.7-1.4-2.7-1.8-.3-.2-.6-.5-.6-.9v-3.1c-1.5-.5-3-.7-4.6-.7s-3.1.2-4.6.7v3.1c0 .4-.2.7-.6.9-1 .5-1.9 1.1-2.7 1.8-.2.2-.4.3-.7.3s-.5-.1-.7-.3l-2.5-2.5c0-.2-.1-.5-.1-.7 0-.3.1-.5.3-.7 3-2.9 7.2-4.7 11.7-4.7zm-5.5-6.5v3.5h-1.5v-6h6v1.5h-3.5l4.5 4.5 6-6 1 1-7 7z"/></svg>