<svg height="24" viewBox="0 0 24 24" width="24" xmlns="http://www.w3.org/2000/svg"><path d="m5.62 2c3.88 0 5.95 2.29 6.15 5.93.73-4.36 4.16-3.85 4.16-3.85.17 2.47-1.86 3.97-4.16 4.09-.65-1.36-4.52-4.7-4.52-4.7-.02.03 3.72 3.27 3.58 4.68-2.5-.27-5.01-2.15-5.21-6.15m.44 11.11 3.86-3.86c1.17-1.17 3.08-1.17 4.24 0l3.84 3.86c1.19 1.17 1.19 3.07 0 4.24l-3.84 3.86c-1.16 1.17-3.07 1.17-4.24 0l-3.86-3.86c-1.17-1.17-1.17-3.07 0-4.24m3.33 6.48c0-1.23.76-2.74 2.7-2.74 1.31 0 2.78 1.25 4.22 1.11-1.44-.04-2.72-1.11-2.72-2.77 0-1.33 1.1-2.29 1.1-3.85-.06.99-.87 2.43-2.69 2.43-1.41 0-2.45-1.14-4.13-1.14.71.04 2.63.67 2.63 2.72 0 1.65-1.11 2.15-1.11 4.24z"/></svg>