<svg height="24" viewBox="0 0 24 24" width="24" xmlns="http://www.w3.org/2000/svg"><path d="m20 20c-1.39 0-2.78-.47-4-1.33-2.44 1.71-5.56 1.71-8 0-1.22.86-2.61 1.33-4 1.33h-2v2h2c1.37 0 2.74-.35 4-1 2.5 1.3 5.5 1.3 8 0 1.26.65 2.62 1 4 1h2v-2zm0-16v-1a1 1 0 0 0 -1-1h-10v-1h-3v1h-1v2h1v9h-1v-2h-2v2h-1v2h1v4h1c.33 0 .67-.03 1-.08v-3.92h5v3.65c.65.2 1.33.3 2 .3v-.03-3.92h1v-2h-1v-2h-2v2h-1v-9h8v4.62c-.47.17-.81.61-.81 1.14 0 .44.24.84.61 1.06v1.18h.62c.34 0 .61.28.61.62s-.27.62-.61.62c-.22 0-.42-.12-.54-.31-.17-.29-.54-.39-.83-.22-.3.16-.4.54-.23.84.33.56.94.92 1.6.92 1.01 0 1.84-.83 1.84-1.85 0-.78-.5-1.48-1.23-1.74v-.06c.38-.22.62-.62.62-1.06 0-.46-.27-.85-.65-1.06v-4.7zm-12 7.66-1 1v-1.42l1-1zm0-2.95-1 1v-1.42l1-1zm-1-2v-1.42l1-1v1.42z"/></svg>