<svg height="24" viewBox="0 0 24 24" width="24" xmlns="http://www.w3.org/2000/svg"><path d="m9.5 9a1.5 1.5 0 0 0 -1.5 1.5 1.5 1.5 0 0 0 1.5 1.5 1.5 1.5 0 0 0 1.5-1.5 1.5 1.5 0 0 0 -1.5-1.5m5 0a1.5 1.5 0 0 0 -1.5 1.5 1.5 1.5 0 0 0 1.5 1.5 1.5 1.5 0 0 0 1.5-1.5 1.5 1.5 0 0 0 -1.5-1.5m-2.5-5 .68.03c.94-.79 2.14-1.44 3.04-1.68 1.87-.5 5.16-.12 5.59 1.48.31 1.17-.71 2.62-2.28 3.55 1.23 1.54 1.97 3.49 1.97 5.62a9 9 0 0 1 -9 9 9 9 0 0 1 -9-9c0-2.13.74-4.08 1.97-5.62-1.57-.93-2.59-2.38-2.28-3.55.43-1.6 3.72-1.98 5.59-1.48.9.24 2.1.89 3.04 1.68zm-2 12a1 1 0 0 1 1 1 1 1 0 0 1 -1 1 1 1 0 0 1 -1-1 1 1 0 0 1 1-1m4 0a1 1 0 0 1 1 1 1 1 0 0 1 -1 1 1 1 0 0 1 -1-1 1 1 0 0 1 1-1m-2-3c-2.76 0-5 2.34-5 4s2.24 3 5 3 5-1.34 5-3-2.24-4-5-4m-4.24-8.72c-.45-.12-3.17.07-3.17.07s2.21 1.75 2.65 1.87c.45.12 2.53.21 2.67-.32.15-.54-1.71-1.5-2.15-1.62m8.48 0c-.44.12-2.3 1.08-2.15 1.62.14.53 2.22.44 2.67.32.44-.12 2.65-1.87 2.65-1.87s-2.72-.19-3.17-.07z"/></svg>