<svg height="24" viewBox="0 0 24 24" width="24" xmlns="http://www.w3.org/2000/svg"><path d="m12 23h-1v-6.57c-1.07.97-2.5 1.57-4 1.57-3.25 0-6-2.75-6-6v-1h6.57c-.97-1.07-1.57-2.5-1.57-4 0-3.25 2.75-6 6-6h1v6.57c1.07-.97 2.5-1.57 4-1.57 3.25 0 6 2.75 6 6v1h-6.57c.97 1.07 1.57 2.5 1.57 4 0 3.25-2.75 6-6 6m1-9.87v7.74c1.7-.46 3-2.04 3-3.87s-1.3-3.41-3-3.87m-9.87-.13c.46 1.7 2.04 3 3.87 3s3.41-1.3 3.87-3zm10-2h7.74c-.46-1.7-2.05-3-3.87-3s-3.41 1.3-3.87 3m-2.13-7.87c-1.7.46-3 2.05-3 3.87s1.3 3.41 3 3.87z"/></svg>