<svg height="24" viewBox="0 0 24 24" width="24" xmlns="http://www.w3.org/2000/svg"><path d="m8.2 12.1c-.3.2-.5.6-.4.9 0 .7.7 1.2 1.3 1.2s1.2-.5 1.2-1.2c-.6-.4-1.3-.7-2.1-.9m13.8-1.1 1-4s-2 0-5-2-3-4-6-4-3 2-6 4-5 2-5 2l1 4h.1c-.1.3-.1.7-.1 1 0 3.5 1.8 6.6 4.5 8.4l-.5.9c6.4 4.1 12 0 12 0l-.5-.9c2.7-1.8 4.5-4.9 4.5-8.4 0-.3 0-.7 0-1m-10.7-6.5-1.4-1.4.7-.7 1.4 1.4 1.4-1.4.7.7-1.4 1.4 1.4 1.4-.7.7-1.4-1.4-1.4 1.4-.7-.7zm-2 4c1-.3 2-.5 2.7-.5 2.2 0 5.9 1.6 7.8 2.4.1.3.1.6.1.9zm4.3 10.6c-.7.4-1.4.7-2.2.8-.5-.4-.5-1.2 0-1.6.4-.4 1.3-.6 1.8-.1.3.1.4.6.4.9m6.4-5.7c-.5 2.1-1.8 4-3.5 5.2l-1.5-2.6h-6l-1.5 2.6c-2.1-1.4-3.5-3.8-3.5-6.6 0-.5.1-1 .2-1.5.5-.2 1.1-.5 1.8-.8l7.1 1.9v2.4c0 .5.4 1 1 1h2c.5 0 1-.4 1-1v-1.4z"/></svg>