<svg height="24" viewBox="0 0 24 24" width="24" xmlns="http://www.w3.org/2000/svg"><path d="m17 18.25v3.25h-10v-3.25c0-1.38 2.24-2.5 5-2.5s5 1.12 5 2.5m-5-12.75a6.5 6.5 0 0 1 6.5 6.5c0 1.25-.35 2.42-.96 3.41l-1.54-1.37c.32-.61.5-1.31.5-2.04 0-2.5-2-4.5-4.5-4.5s-4.5 2-4.5 4.5c0 .73.18 1.43.5 2.04l-1.54 1.37c-.61-.99-.96-2.16-.96-3.41a6.5 6.5 0 0 1 6.5-6.5m0-4a10.5 10.5 0 0 1 10.5 10.5c0 2.28-.73 4.39-1.96 6.11l-1.5-1.35c.92-1.36 1.46-3 1.46-4.76a8.5 8.5 0 0 0 -8.5-8.5 8.5 8.5 0 0 0 -8.5 8.5c0 1.76.54 3.4 1.46 4.76l-1.5 1.35c-1.23-1.72-1.96-3.83-1.96-6.11a10.5 10.5 0 0 1 10.5-10.5m0 8a2.5 2.5 0 0 1 2.5 2.5 2.5 2.5 0 0 1 -2.5 2.5 2.5 2.5 0 0 1 -2.5-2.5 2.5 2.5 0 0 1 2.5-2.5z"/></svg>