<svg height="24" viewBox="0 0 24 24" width="24" xmlns="http://www.w3.org/2000/svg"><path d="m12 2a7 7 0 0 1 7 7c0 1.4-.41 2.71-1.12 3.8l-5.88 9.41-5.88-9.41c-.71-1.09-1.12-2.4-1.12-3.8a7 7 0 0 1 7-7m0 1.5c-2.7 0-4.94 1.94-5.41 4.5h2.58c.41-1.17 1.52-2 2.83-2s2.42.83 2.83 2h2.58c-.47-2.56-2.71-4.5-5.41-4.5m0 8.5c-1.31 0-2.42-.83-2.83-2h-2.58c.13.69.38 1.34.75 1.91l.04.09c.98 1.5 2.68 2.5 4.62 2.5s3.64-1 4.62-2.5l.04-.09c.37-.57.62-1.22.75-1.91h-2.58c-.41 1.17-1.52 2-2.83 2m0-4.5a1.5 1.5 0 0 0 -1.5 1.5 1.5 1.5 0 0 0 1.5 1.5 1.5 1.5 0 0 0 1.5-1.5 1.5 1.5 0 0 0 -1.5-1.5z"/></svg>