<svg height="24" viewBox="0 0 24 24" width="24" xmlns="http://www.w3.org/2000/svg"><path d="m23 12c0 6.08-4.92 11-11 11s-11-4.92-11-11 4.92-11 11-11 11 4.92 11 11m-10-7.94c2.13.27 4.07 1.39 5.37 3.1l1.74-1c-1.66-2.34-4.25-3.86-7.11-4.16zm-9.11 2.1 1.74 1c1.3-1.71 3.24-2.83 5.37-3.1v-2.06c-2.86.3-5.45 1.82-7.11 4.16m-1 9.94 1.73-1c-.83-1.98-.83-4.22 0-6.2l-1.73-1c-1.19 2.6-1.19 5.6 0 8.2m8.11 3.84c-2.13-.27-4.07-1.39-5.37-3.1l-1.74 1c1.66 2.34 4.25 3.86 7.11 4.16zm9.11-2.1-1.74-1c-1.3 1.71-3.24 2.83-5.37 3.1v2c2.85-.29 5.44-1.78 7.11-4.1m1-1.74c1.19-2.6 1.19-5.6 0-8.2l-1.73 1c.83 1.98.83 4.22 0 6.2zm-6.11-4.1-3-5-3 5 3 5z"/></svg>