<svg height="24" viewBox="0 0 24 24" width="24" xmlns="http://www.w3.org/2000/svg"><path d="m2 15c1.67-.75 3.33-1.5 5-1.83v-8.17a3 3 0 0 1 3-3c1.31 0 2.42.83 2.83 2h-2.83a1 1 0 0 0 -1 1v1h5v-1a3 3 0 0 1 3-3c1.31 0 2.42.83 2.83 2h-2.83a1 1 0 0 0 -1 1v9.94c2-.32 4-1.94 6-1.94v2c-2.22 0-4.44 2-6.67 2-2.22 0-4.44-2-6.66-2-2.23 0-4.45 1-6.67 2zm12-7h-5v2h5zm0 4h-5v1c1.67.16 3.33 1.31 5 1.79zm-12 7c2.22-1 4.44-2 6.67-2 2.22 0 4.44 2 6.66 2 2.23 0 4.45-2 6.67-2v2c-2.22 0-4.44 2-6.67 2-2.22 0-4.44-2-6.66-2-2.23 0-4.45 1-6.67 2z"/></svg>