<svg height="24" viewBox="0 0 24 24" width="24" xmlns="http://www.w3.org/2000/svg"><path d="m7 22h-2.25s-.75 0-.94-1.35l-1.77-16.84-.04-.31c0-.83.9-1.5 2-1.5s2 .67 2 1.5c0-.83.9-1.5 2-1.5s2 .67 2 1.5c0-.83.9-1.5 2-1.5 1.09 0 2 .66 2 1.5 0-.83.9-1.5 2-1.5s2 .67 2 1.5c0-.83.9-1.5 2-1.5s2 .67 2 1.5l-.04.31-1.77 16.84c-.19 1.35-.94 1.35-.94 1.35h-2.25-.5-2.75-3.5-2.75zm10.85-17.07c-.3-.54-1.01-.93-1.85-.93-.81 0-1.64.36-2 .87l-.22 15.13h2.88zm-7.85-.06c-.36-.51-1.19-.87-2-.87-.84 0-1.55.39-1.85.93l1.19 15.07h2.88z"/></svg>