<svg height="24" viewBox="0 0 24 24" width="24" xmlns="http://www.w3.org/2000/svg"><path d="m2 2v3.5c1.1 0 2 1.12 2 2.5s-.9 2.5-2 2.5v3c1.1 0 2 1.12 2 2.5s-.9 2.5-2 2.5v3.5h3.5c0-1.1 1.12-2 2.5-2s2.5.9 2.5 2h3c0-1.1 1.12-2 2.5-2s2.5.9 2.5 2h3.5v-3.5c-1.1 0-2-1.12-2-2.5 0-1.38.9-2.5 2-2.5v-3c-1.1 0-2-1.12-2-2.5 0-1.38.9-2.5 2-2.5v-3.5h-3.5c0 1.1-1.12 2-2.5 2s-2.5-.9-2.5-2h-3c0 1.1-1.12 2-2.5 2s-2.5-.9-2.5-2zm4 4h12v12h-12zm3 1a2 2 0 0 0 -2 2 2 2 0 0 0 2 2 2 2 0 0 0 2-2 2 2 0 0 0 -2-2m8 3-3 3-2-1-5 5h10z"/></svg>