<svg height="24" viewBox="0 0 24 24" width="24" xmlns="http://www.w3.org/2000/svg"><path d="m4.22 2a2.22 2.22 0 0 0 -2.22 2.22v15.56c0 1.22 1 2.22 2.22 2.22h15.56a2.22 2.22 0 0 0 2.22-2.22v-15.56c0-1.22-1-2.22-2.22-2.22zm7.78 2a8 8 0 0 1 8 8 8 8 0 0 1 -8 8 8 8 0 0 1 -8-8 8 8 0 0 1 8-8m0 2a1.5 1.5 0 0 0 -1.5 1.5 1.5 1.5 0 0 0 1.5 1.5 1.5 1.5 0 0 0 1.5-1.5 1.5 1.5 0 0 0 -1.5-1.5m-4.5 4.5a1.5 1.5 0 0 0 -1.5 1.5c0 .83.66 1.5 1.5 1.5a1.5 1.5 0 0 0 1.5-1.5 1.5 1.5 0 0 0 -1.5-1.5m9 0a1.5 1.5 0 0 0 -1.5 1.5 1.5 1.5 0 0 0 1.5 1.5 1.5 1.5 0 0 0 1.5-1.5 1.5 1.5 0 0 0 -1.5-1.5z"/></svg>