<svg height="24" viewBox="0 0 24 24" width="24" xmlns="http://www.w3.org/2000/svg"><path d="m19 6a1 1 0 0 0 1-1 1 1 0 0 0 -1-1 1 1 0 0 0 -1 1 1 1 0 0 0 1 1m0-4a3 3 0 0 1 3 3v6h-4v-4h-12v4h-4v-6a3 3 0 0 1 3-3zm-1 16.25c0 .38-.21.71-.53.88l-4.9 2.69c-.17.12-.36.18-.57.18s-.41-.06-.57-.18l-4.9-2.69c-.32-.17-.53-.5-.53-.88v-5.25c0-.38.21-.71.53-.88l4.9-2.44c.16-.12.36-.18.57-.18s.4.06.57.18l4.9 2.44c.32.17.53.5.53.88zm-6-6.6-2.96 1.35 2.96 1.6 2.96-1.6zm-4 6.01 3 1.63v-2.96l-3-1.62zm8 0v-2.95l-3 1.62v2.96z"/></svg>