<svg height="24" viewBox="0 0 24 24" width="24" xmlns="http://www.w3.org/2000/svg"><path d="m13 2.03c4.73.47 8.5 4.22 8.95 8.97.55 5.5-3.45 10.38-8.95 10.93v-2c3.64-.43 6.5-3.32 6.96-6.96.54-4.39-2.57-8.38-6.96-8.92v-2zm-2 .03v2c-1.43.2-2.78.78-3.9 1.68l-1.43-1.48c1.52-1.26 3.38-2.01 5.33-2.2m-6.74 3.61 1.43 1.43c-.89 1.13-1.45 2.48-1.64 3.9h-2c.2-1.96.95-3.81 2.21-5.33m-2.2 7.33h2c.18 1.42.75 2.77 1.63 3.9l-1.42 1.43c-1.24-1.52-2.01-3.37-2.21-5.33m5.04 5.37c1.13.88 2.48 1.45 3.9 1.63v2c-1.96-.21-3.82-1-5.33-2.26zm4.9-1.87-4.5-4.5h3.5v-4h2v4h3.5z"/></svg>