<svg height="24" viewBox="0 0 24 24" width="24" xmlns="http://www.w3.org/2000/svg"><path d="m13 2.03v.02 2c4.39.54 7.5 4.53 6.96 8.92-.46 3.64-3.32 6.53-6.96 6.96v2c5.5-.55 9.5-5.43 8.95-10.93-.45-4.75-4.22-8.5-8.95-8.97m-2 .03c-1.95.19-3.81.94-5.33 2.2l1.43 1.48c1.12-.9 2.47-1.48 3.9-1.68zm-6.74 3.61c-1.26 1.52-2.01 3.37-2.21 5.33h2c.19-1.42.75-2.77 1.64-3.9zm-2.2 7.33c.2 1.96.97 3.81 2.21 5.33l1.42-1.43c-.88-1.13-1.45-2.48-1.63-3.9zm5.04 5.37-1.43 1.37c1.51 1.26 3.37 2.05 5.33 2.26v-2c-1.42-.18-2.77-.75-3.9-1.63m5.4-11.37v5.25l4.5 2.67-.75 1.23-5.25-3.15v-6z"/></svg>