<svg height="24" viewBox="0 0 24 24" width="24" xmlns="http://www.w3.org/2000/svg"><path d="m16 6c-1.13 0-2.23.35-3.16 1h-8.84c-1.11 0-2 .89-2 2v6c0 1.11.89 2 2 2h1v1a1 1 0 0 0 1 1h2a1 1 0 0 0 1-1v-1h6v1a1 1 0 0 0 1 1h2a1 1 0 0 0 1-1v-1h1c1.11 0 2-.89 2-2v-6c0-1.11-.89-2-2-2h-.85c-.92-.65-2.02-1-3.15-1m0 1.5a3.5 3.5 0 0 1 3.5 3.5 3.5 3.5 0 0 1 -3.5 3.5 3.5 3.5 0 0 1 -3.5-3.5 3.5 3.5 0 0 1 3.5-3.5m-12 1.5h4v1h-4zm12 0a2 2 0 0 0 -2 2 2 2 0 0 0 2 2 2 2 0 0 0 2-2 2 2 0 0 0 -2-2m-12 2h4v1h-4zm0 2h4v1h-4z"/></svg>