<svg height="24" viewBox="0 0 24 24" width="24" xmlns="http://www.w3.org/2000/svg"><path d="m22 13.5c0 1.76-1.3 3.22-3 3.46v3.04a2 2 0 0 1 -2 2h-3.8v-.3a2.7 2.7 0 0 0 -2.7-2.7c-1.5 0-2.7 1.21-2.7 2.7v.3h-3.8a2 2 0 0 1 -2-2v-3.8h.3c1.49 0 2.7-1.2 2.7-2.7s-1.21-2.7-2.7-2.7h-.3v-3.8a2 2 0 0 1 2-2h3.04c.24-1.7 1.7-3 3.46-3s3.22 1.3 3.46 3h3.04a2 2 0 0 1 2 2v3.04c1.7.24 3 1.7 3 3.46m-5 1.5h1.5a1.5 1.5 0 0 0 1.5-1.5 1.5 1.5 0 0 0 -1.5-1.5h-1.5v-5h-5v-1.5a1.5 1.5 0 0 0 -1.5-1.5 1.5 1.5 0 0 0 -1.5 1.5v1.5h-5v2.12c1.76.68 3 2.38 3 4.38s-1.25 3.7-3 4.38v2.12h2.12c.68-1.75 2.38-3 4.38-3s3.7 1.25 4.38 3h2.12z"/></svg>