<svg height="24" viewBox="0 0 24 24" width="24" xmlns="http://www.w3.org/2000/svg"><path d="m12.09 6.56v8.08c0 .08-.09.15-.15.15-2.32 0-4.19-1.88-4.19-4.19 0-2.32 1.87-4.2 4.19-4.2.06 0 .15.07.15.16m0 11.3v2.43c-.03 1.4 1.03 2.58 2.41 2.71.16 0 .28-.11.29-.27v-18.26c-.01-.17-.11-.32-.29-.38-3.58-1.42-7.64.35-9.06 3.94-1.44 3.6.35 7.66 3.94 9.08.78.31 1.62.47 2.43.49.14-.01.26.11.27.27m4.11-12.37v10.22c0 .28 0 .48.27.28 2.96-2.5 3.35-6.91.87-9.87-.26-.32-.56-.63-.87-.87-.27-.21-.27 0-.27.27m-1.4-3.1c0-.77.63-1.4 1.4-1.4s1.4.63 1.4 1.4-.63 1.4-1.4 1.4c-.77 0-1.4-.63-1.4-1.4"/></svg>