<svg height="24" viewBox="0 0 24 24" width="24" xmlns="http://www.w3.org/2000/svg"><path d="m5.5 1c2.5 0 4.5 2 4.5 4.5 0 .88-.25 1.7-.69 2.4l.1.1h5.18l.1-.1c-.44-.7-.69-1.52-.69-2.4 0-2.5 2-4.5 4.5-4.5s4.5 2 4.5 4.5-2 4.5-4.5 4.5c-.88 0-1.7-.25-2.4-.69l-1.1 1.1v3.18l1.1 1.1c.7-.44 1.52-.69 2.4-.69 2.5 0 4.5 2 4.5 4.5s-2 4.5-4.5 4.5-4.5-2-4.5-4.5c0-.88.25-1.7.69-2.4l-.1-.1h-5.18l-.1.1c.44.7.69 1.52.69 2.4 0 2.5-2 4.5-4.5 4.5s-4.5-2-4.5-4.5 2-4.5 4.5-4.5c.88 0 1.7.25 2.4.69l1.1-1.1v-3.18l-1.1-1.1c-.7.44-1.52.69-2.4.69-2.5 0-4.5-2-4.5-4.5s2-4.5 4.5-4.5m0 2a2.5 2.5 0 0 0 -2.5 2.5 2.5 2.5 0 0 0 2.5 2.5 2.5 2.5 0 0 0 2.5-2.5 2.5 2.5 0 0 0 -2.5-2.5m0 13a2.5 2.5 0 0 0 -2.5 2.5 2.5 2.5 0 0 0 2.5 2.5 2.5 2.5 0 0 0 2.5-2.5 2.5 2.5 0 0 0 -2.5-2.5m13-13a2.5 2.5 0 0 0 -2.5 2.5 2.5 2.5 0 0 0 2.5 2.5 2.5 2.5 0 0 0 2.5-2.5 2.5 2.5 0 0 0 -2.5-2.5m0 13a2.5 2.5 0 0 0 -2.5 2.5 2.5 2.5 0 0 0 2.5 2.5 2.5 2.5 0 0 0 2.5-2.5 2.5 2.5 0 0 0 -2.5-2.5m-14.59 1.25 1.13.66c.13-.1.29-.16.46-.16a.75.75 0 0 1 .75.75l-.01.1 1.13.65-.28.5-1.13-.66c-.13.1-.29.16-.46.16a.75.75 0 0 1 -.75-.75l.01-.1-1.13-.65zm-.28-11 1.13-.65-.01-.1a.75.75 0 0 1 .75-.75c.17 0 .33.06.46.16l1.13-.66.28.5-1.13.65.01.1a.75.75 0 0 1 -.75.75c-.17 0-.33-.06-.46-.16l-1.13.66zm13.28-2 1.13.66c.13-.1.29-.16.46-.16a.75.75 0 0 1 .75.75l-.01.1 1.13.65-.28.5-1.13-.66c-.13.1-.29.16-.46.16a.75.75 0 0 1 -.75-.75l.01-.1-1.13-.65zm-.28 15 1.12-.75a.75.75 0 0 1 .75-.75c.17 0 .33.06.46.16l1.13-.66.28.5-1.12.75a.75.75 0 0 1 -.75.75c-.17 0-.33-.06-.46-.16l-1.13.66z"/></svg>