<svg height="24" viewBox="0 0 24 24" width="24" xmlns="http://www.w3.org/2000/svg"><path d="m18.5 16c1.4 0 2.5 1.1 2.5 2.5s-1.1 2.5-2.5 2.5-2.5-1.1-2.5-2.5 1.1-2.5 2.5-2.5m-8-15c-7.5 0-7.5 2.7-7.5 8.8 0 3.4 3.4 7.1 6 8.3v4.9h3v-4.9c2.6-1.2 6-4.9 6-8.3 0-6.2 0-8.8-7.5-8.8m4.9 3.2c.3.4.4 1 .5 1.8h-.9v-2.2c.2.1.3.3.4.4m.6 5.6v.2h-1v-3h1zm-2 4.2h-3v-3h3zm-7 0v-3h3v3zm-2-4.2c0-1 0-1.9 0-2.8h1v3h-1c0-.1 0-.2 0-.2m2-2.8h3v3h-3zm4-4c1.4 0 2.4.2 3 .3v2.7h-3zm-1 3h-3v-2.6c.6-.2 1.6-.4 3-.4zm1 4v-3h3v3zm-5-6.2v2.2h-.9c.1-.8.2-1.4.5-1.8.1-.1.2-.2.4-.4m-.8 7.2h.8v1.7c-.3-.6-.6-1.1-.8-1.7m2.8 4h2v1.3l-.2-.1c-.6-.2-1.2-.7-1.8-1.2m3.2 1.3h-.2v-1.3h2c-.6.5-1.2 1-1.8 1.3m3.8-3.6v-1.7h.8c-.2.5-.5 1.1-.8 1.7z"/></svg>