<svg height="24" viewBox="0 0 24 24" width="24" xmlns="http://www.w3.org/2000/svg"><path d="m19.07 4.93-1.41 1.41c1.44 1.45 2.34 3.45 2.34 5.66a8 8 0 0 1 -8 8 8 8 0 0 1 -8-8c0-4.08 3.05-7.44 7-7.93v2.02c-2.84.48-5 2.94-5 5.91a6 6 0 0 0 6 6 6 6 0 0 0 6-6c0-1.66-.67-3.16-1.76-4.24l-1.41 1.41c.72.73 1.17 1.73 1.17 2.83a4 4 0 0 1 -4 4 4 4 0 0 1 -4-4c0-1.86 1.28-3.41 3-3.86v2.14c-.6.35-1 .98-1 1.72a2 2 0 0 0 2 2 2 2 0 0 0 2-2c0-.74-.4-1.38-1-1.72v-8.28h-1a10 10 0 0 0 -10 10 10 10 0 0 0 10 10 10 10 0 0 0 10-10c0-2.76-1.12-5.26-2.93-7.07z"/></svg>