<svg height="24" viewBox="0 0 24 24" width="24" xmlns="http://www.w3.org/2000/svg"><path d="m12 10a2 2 0 0 1 2 2c0 .5-.18.94-.47 1.29l3.17 8.71h-2.13l-2.57-7.07-2.57 7.07h-2.13l3.17-8.71c-.29-.35-.47-.79-.47-1.29a2 2 0 0 1 2-2m0-2a4 4 0 0 0 -4 4c0 .5.1 1 .28 1.46l-.88 2.4c-.87-1.05-1.4-2.39-1.4-3.86a6 6 0 0 1 6-6 6 6 0 0 1 6 6c0 1.47-.53 2.81-1.4 3.86l-.88-2.4c.18-.46.28-.96.28-1.46a4 4 0 0 0 -4-4m0-4a8 8 0 0 0 -8 8c0 2.36 1 4.5 2.64 5.94l-.72 2c-2.38-1.83-3.92-4.71-3.92-7.94a10 10 0 0 1 10-10 10 10 0 0 1 10 10c0 3.23-1.54 6.11-3.92 7.94l-.72-2c1.64-1.44 2.64-3.58 2.64-5.94a8 8 0 0 0 -8-8z"/></svg>