<svg height="24" viewBox="0 0 24 24" width="24" xmlns="http://www.w3.org/2000/svg"><path d="m3.28 2-1.28 1.27 2.77 2.77.87 1.35-1.42 2.21 1.73.9 1.28-2 3.5 3.5h-6.73a2 2 0 0 0 -2 2v8h2v-2h14.73l1.27 1.27v.73h2v-1.27-.01zm3.72 15a1 1 0 0 1 -1 1 1 1 0 0 1 -1-1v-2a1 1 0 0 1 1-1 1 1 0 0 1 1 1zm4 0a1 1 0 0 1 -1 1 1 1 0 0 1 -1-1v-2a1 1 0 0 1 1-1 1 1 0 0 1 1 1zm4 0a1 1 0 0 1 -1 1 1 1 0 0 1 -1-1v-2c0-.21.08-.39.18-.55l1.82 1.82zm1.25-7.5 1.42-2.2-1.42-2.2 2-3.1 1.75.89-1.44 2.21 1.44 2.2v.01l-2 3.09zm5.75 4.5v4.18l-3-3v-.18a1 1 0 0 0 -1-1c-.05 0-.1 0-.15.03l-2.03-2.03h4.18c1.11 0 2 .9 2 2m-10.36-6.7-1.42-2.2 2-3.1 1.73.89-1.42 2.21 1.42 2.2-.01.01-1.1 1.69-1.4-1.38zm-4.14-3.61-1.4-1.41.12-.19 1.73.91z"/></svg>