<svg height="24" viewBox="0 0 24 24" width="24" xmlns="http://www.w3.org/2000/svg"><path d="m7.95 3-1.42 2.19 1.42 2.21h-.01l-1.99 3.1-1.73-.9 1.42-2.21-1.42-2.2 2-3.1zm6-.11-1.42 2.21 1.42 2.2-.01.01-1.99 3.09-1.73-.9 1.42-2.2-1.42-2.2 2-3.1zm6.05 0-1.44 2.21 1.44 2.2v.01l-2 3.09-1.75-.9 1.42-2.2-1.42-2.2 2-3.1zm-18 19.11v-8a2 2 0 0 1 2-2h16a2 2 0 0 1 2 2v8h-2v-2h-16v2zm4-8a1 1 0 0 0 -1 1v2a1 1 0 0 0 1 1 1 1 0 0 0 1-1v-2a1 1 0 0 0 -1-1m4 0a1 1 0 0 0 -1 1v2a1 1 0 0 0 1 1 1 1 0 0 0 1-1v-2a1 1 0 0 0 -1-1m4 0a1 1 0 0 0 -1 1v2a1 1 0 0 0 1 1 1 1 0 0 0 1-1v-2a1 1 0 0 0 -1-1m4 0a1 1 0 0 0 -1 1v2a1 1 0 0 0 1 1 1 1 0 0 0 1-1v-2a1 1 0 0 0 -1-1z"/></svg>