<svg height="24" viewBox="0 0 24 24" width="24" xmlns="http://www.w3.org/2000/svg"><path d="m21.82 15.42-2.5 4.33c-.49.86-1.4 1.31-2.32 1.25h-2v2l-2.5-4.5 2.5-4.5v2h2.82l-2.22-3.85 4.33-2.5 1.8 3.12c.52.77.59 1.8.09 2.65m-12.61-12.36h5c.98 0 1.83.57 2.24 1.39l1 1.74 1.73-1-2.64 4.41-5.15.09 1.73-1-1.41-2.45-2.21 3.85-4.34-2.5 1.8-3.12c.41-.83 1.26-1.41 2.25-1.41m-4.16 16.7-2.5-4.33c-.49-.85-.42-1.87.09-2.64l1-1.73-1.73-1 5.14.08 2.65 4.42-1.73-1-1.41 2.44h4.44v5h-3.6c-.93.07-1.85-.39-2.35-1.24z"/></svg>