<svg height="24" viewBox="0 0 24 24" width="24" xmlns="http://www.w3.org/2000/svg"><path d="m16 16.92c-.33.05-.66.08-1 .08s-.67-.03-1-.08v-3.51l-2.5 2.48c-.5-.39-1-.89-1.39-1.39l2.48-2.5h-3.51c-.05-.33-.08-.66-.08-1s.03-.67.08-1h3.51l-2.48-2.5c.19-.25.39-.5.65-.74.24-.26.49-.46.74-.65l2.5 2.48v-3.51c.33-.05.66-.08 1-.08s.67.03 1 .08v3.51l2.5-2.48c.5.39 1 .89 1.39 1.39l-2.48 2.5h3.51c.05.33.08.66.08 1s-.03.67-.08 1h-3.51l2.48 2.5c-.19.25-.39.5-.65.74-.24.26-.49.46-.74.65l-2.5-2.48zm-11 2.08a2 2 0 0 1 2-2 2 2 0 0 1 2 2 2 2 0 0 1 -2 2 2 2 0 0 1 -2-2z"/></svg>