<svg height="24" viewBox="0 0 24 24" width="24" xmlns="http://www.w3.org/2000/svg"><path d="m7.25 3c.65 0 1.25.21 1.75.56v-.56a2 2 0 0 1 2-2 2 2 0 0 1 2 2v.57c.5-.35 1.1-.57 1.75-.57a3 3 0 0 1 3 3c0 1.58-1.21 2.87-2.75 3h-2v1h1.24l.48.13 4.59 2.29c.82.31 1.22.92 1.22 1.83l-.03.14v.14l-1 6.75c-.06.47-.28.88-.66 1.22-.37.34-.79.5-1.26.5h-7.58c-.55 0-1-.19-1.42-.59l-6.58-6.57 1.05-1.07c.28-.27.64-.43 1.08-.43h.32l4.55.99v-5.33-1h-2c-1.54-.14-2.75-1.43-2.75-3a3 3 0 0 1 3-3m1.75 3a1.75 1.75 0 0 0 -1.75-1.75 1.75 1.75 0 0 0 -1.75 1.75c0 .88.65 1.61 1.5 1.73v.02h2zm6 1.75v-.01c.85-.12 1.5-.85 1.5-1.74 0-.96-.78-1.74-1.75-1.74s-1.75.78-1.75 1.74v1.75z"/></svg>