<svg height="24" viewBox="0 0 24 24" width="24" xmlns="http://www.w3.org/2000/svg"><path d="m2 5.27 1.28-1.27 17.72 17.72-1.27 1.28-3.73-3.73v2.73a1 1 0 0 1 -1 1h-6c-.54 0-1-.45-1-1v-10.73zm10-5.27c3.05 0 5.8 1.23 7.77 3.23l-1.41 1.41c-1.61-1.64-3.86-2.64-6.36-2.64-2.28 0-4.36.85-5.94 2.24l-1.42-1.42c1.95-1.75 4.53-2.82 7.36-2.82m0 4c1.94 0 3.69.78 4.95 2.05l-1.4 1.41c-.91-.9-2.16-1.46-3.55-1.46-1.17 0-2.24.4-3.1 1.08l-1.4-1.42c1.2-1.04 2.78-1.66 4.5-1.66m3 5c.56 0 1 .45 1 1v4.18l-2.5-2.49-.19-.19-2.49-2.5zm-4.97 4.3c.13.86.81 1.55 1.68 1.7z"/></svg>