<svg height="24" viewBox="0 0 24 24" width="24" xmlns="http://www.w3.org/2000/svg"><path d="m2 11h1.67c.41-1.17 1.52-2 2.83-2a3 3 0 0 1 3 3c0 .65-.21 1.25-.56 1.74l1.13 1.61 3.04-11.35 1.5 2.13 2.09 2.98.8-.11c1.31 0 2.42.83 2.83 2h1.67v2h-1.67c-.41 1.17-1.52 2-2.83 2a3 3 0 0 1 -3-3c0-.65.21-1.25.56-1.74l-1.13-1.61-3.04 11.35-3.59-5.11c-.25.07-.52.11-.8.11-1.31 0-2.42-.83-2.83-2h-1.67zm15.5-.5a1.5 1.5 0 0 0 -1.5 1.5 1.5 1.5 0 0 0 1.5 1.5 1.5 1.5 0 0 0 1.5-1.5 1.5 1.5 0 0 0 -1.5-1.5m-11 0a1.5 1.5 0 0 0 -1.5 1.5 1.5 1.5 0 0 0 1.5 1.5 1.5 1.5 0 0 0 1.5-1.5 1.5 1.5 0 0 0 -1.5-1.5z"/></svg>