<svg height="24" viewBox="0 0 24 24" width="24" xmlns="http://www.w3.org/2000/svg"><path d="m12 2c2.65 0 5.19 1.06 7.07 2.93l-1.42 1.42c-1.5-1.5-3.53-2.35-5.65-2.35s-4.16.84-5.65 2.35l-1.42-1.42c1.88-1.87 4.42-2.93 7.07-2.93m-8.34 4.5 1.45 1.44c-.72 1.23-1.11 2.63-1.11 4.06a8 8 0 0 0 8 8 8 8 0 0 0 8-8c0-1.43-.39-2.83-1.12-4.06l1.46-1.44c1.08 1.62 1.66 3.54 1.66 5.5a10 10 0 0 1 -10 10 10 10 0 0 1 -10-10c0-1.96.58-3.88 1.66-5.5m8.34-.5a6 6 0 0 1 6 6c0 1.59-.63 3.12-1.76 4.24l-1.41-1.41c-.75.75-1.77 1.17-2.83 1.17s-2.08-.42-2.83-1.17l-1.41 1.41c-1.13-1.12-1.76-2.65-1.76-4.24a6 6 0 0 1 6-6m0 2a1 1 0 0 0 -1 1 1 1 0 0 0 1 1 1 1 0 0 0 1-1 1 1 0 0 0 -1-1z"/></svg>