<svg height="24" viewBox="0 0 24 24" width="24" xmlns="http://www.w3.org/2000/svg"><path d="m12 2a2 2 0 0 1 2 2c0 .74-.4 1.39-1 1.73v1.27h1a7 7 0 0 1 7 7h1a1 1 0 0 1 1 1v3a1 1 0 0 1 -1 1h-1v1a2 2 0 0 1 -2 2h-14a2 2 0 0 1 -2-2v-1h-1a1 1 0 0 1 -1-1v-3a1 1 0 0 1 1-1h1a7 7 0 0 1 7-7h1v-1.27c-.6-.34-1-.99-1-1.73a2 2 0 0 1 2-2m-4.5 11a2.5 2.5 0 0 0 -2.5 2.5 2.5 2.5 0 0 0 2.5 2.5 2.5 2.5 0 0 0 2.5-2.5 2.5 2.5 0 0 0 -2.5-2.5m9 0a2.5 2.5 0 0 0 -2.5 2.5 2.5 2.5 0 0 0 2.5 2.5 2.5 2.5 0 0 0 2.5-2.5 2.5 2.5 0 0 0 -2.5-2.5z"/></svg>