<svg height="24" viewBox="0 0 24 24" width="24" xmlns="http://www.w3.org/2000/svg"><path d="m21.33 17.39c1.4 1.27.47 3.61-1.41 3.61h-8.86c-2.81 0-5.06-2.25-5.06-5.06v-.05c-2.3-.47-4-2.48-4-4.89 0-2.75 2.22-5 5-5h2.5c.3 0 .5-.23.5-.5s-.2-.5-.5-.5h-2.5v-2h2.5c1.38 0 2.5 1.13 2.5 2.5 0 1.39-1.12 2.5-2.5 2.5h-2.5c-1.66 0-3 1.33-3 3 0 1.37.92 2.5 2.14 2.87.56-2.2 2.53-3.87 4.92-3.87.8 0 1.6.22 2.3.55-1.41.79-2.36 2.25-2.36 3.95 0 1.25.5 2.37 1.33 3.17l.7-.7c-.65-.61-1.03-1.5-1.03-2.47 0-2.59 2.34-3.5 3.5-3.5 2.08 0 3.95 1.89 3.44 4.23zm-3.33 1.61c.56 0 1-.44 1-1s-.44-1-1-1-1 .44-1 1 .44 1 1 1z"/></svg>