<svg height="24" viewBox="0 0 24 24" width="24" xmlns="http://www.w3.org/2000/svg"><path d="m20.84 22.73-1.52-1.52c-.46.48-1.1.79-1.82.79-1.38 0-2.5-1.12-2.5-2.5 0-.72.31-1.36.79-1.82l-1.68-1.68h-10.11v-10.11l-2.89-2.89 1.28-1.27 19.72 19.73zm-9.2-15.23-.21-1.5h-2.19v-1.5h1.97l-.21-1.5h-4.8l4.5 4.5zm7.36 7.5c0-5-5-5-5-5h-.8l5.52 5.5c.28-.23.28-.5.28-.5m-7.5 2c-1.38 0-2.5 1.12-2.5 2.5s1.12 2.5 2.5 2.5 2.5-1.12 2.5-2.5-1.12-2.5-2.5-2.5m-6 0c-1.38 0-2.5 1.12-2.5 2.5s1.12 2.5 2.5 2.5 2.5-1.12 2.5-2.5-1.12-2.5-2.5-2.5z"/></svg>