<svg height="24" viewBox="0 0 24 24" width="24" xmlns="http://www.w3.org/2000/svg"><path d="m19.46 8.64c0 2.47-1.35 4.62-3.34 5.76-.12.1-.19.26-.12.41l3.41 6.74c.09.21-.05.45-.28.45h-13.03l.07-.04c.49-.28 3.89-6.99 7.21-10.17s3.74-2.12 1.91-5.58c0 0 1.41 2.75.21 2.96-.94.17-3.1-1.92-2.3-3.8.8-1.84 3.95-1.49 5.4.01.55.96.86 2.07.86 3.26m-12.3 4.49c-1.32 2.43-2.16 4.2-2.62 5.44v-16.26c0-.17.14-.31.31-.31h8.07c2.34.04 4.39 1.28 5.54 3.15-.84-1.05-2.16-1.65-3.46-1.65-2.47 0-3.09.9-7.84 9.63z"/></svg>