<svg height="24" viewBox="0 0 24 24" width="24" xmlns="http://www.w3.org/2000/svg"><path d="m7.47 21.5c-3.27-1.56-5.61-4.74-5.97-8.5h-1.5c.5 6.16 5.66 11 11.95 11l.66-.03-3.81-3.81zm.89-6.54c-.19 0-.36-.03-.52-.08-.16-.06-.29-.13-.4-.24-.11-.1-.2-.22-.26-.37-.06-.14-.09-.3-.09-.47h-1.3c0 .36.07.7.21.95s.33.5.56.69c.24.18.51.32.82.41.3.1.62.15.96.15.37 0 .72-.05 1.03-.15.32-.1.6-.25.83-.44s.42-.41.55-.72c.13-.29.2-.61.2-.97 0-.19-.02-.38-.07-.56-.05-.16-.12-.35-.23-.51-.1-.15-.24-.3-.4-.43-.17-.13-.37-.22-.61-.31.2-.09.36-.2.52-.33.15-.13.27-.27.37-.42.1-.16.17-.3.22-.46s.07-.32.07-.48c0-.36-.06-.68-.18-.96-.14-.26-.29-.51-.51-.69-.2-.19-.47-.33-.77-.43-.31-.09-.65-.14-1.02-.14-.34 0-.69.05-1 .16-.3.11-.57.26-.79.45-.21.19-.38.39-.51.67-.12.26-.18.54-.18.85h1.3c0-.17.03-.32.09-.45s.14-.25.25-.34.23-.17.38-.22.3-.08.48-.08c.4 0 .7.1.89.31.19.2.29.49.29.86 0 .18-.04.34-.08.49-.05.15-.14.27-.25.37s-.25.18-.41.24-.36.09-.58.09h-.77v1.03h.77c.22 0 .42.02.6.07s.33.13.45.23c.12.11.23.24.29.4.07.16.1.37.1.57 0 .41-.12.72-.35.93-.23.23-.55.33-.95.33m8.55-5.92c-.32-.33-.7-.59-1.14-.77-.43-.18-.92-.27-1.46-.27h-2.36v8h2.3c.55 0 1.06-.09 1.51-.27s.84-.43 1.16-.76.58-.73.74-1.19c.17-.47.26-.99.26-1.57v-.4c0-.58-.09-1.1-.26-1.57-.16-.47-.43-.87-.75-1.2m-.41 3.16c0 .42-.03.8-.12 1.13-.1.33-.24.62-.43.85s-.45.41-.71.53c-.29.12-.62.18-.99.18h-.91v-5.77h.97c.72 0 1.27.23 1.64.69.38.46.55 1.12.55 1.99m-4.55-11.8-.66.03 3.81 3.81 1.33-1.34c3.27 1.56 5.61 4.73 5.96 8.5h1.5c-.5-6.16-5.65-11-11.94-11z"/></svg>