<svg height="24" viewBox="0 0 24 24" width="24" xmlns="http://www.w3.org/2000/svg"><path d="m8 14.25-3.25-3.25h2.25c.25-5.61 2.39-10 5-10 2 0 3.77 2.64 4.55 6.45 3.81.78 6.45 2.55 6.45 4.55 0 1.83-2.17 3.43-5.4 4.3l.29-2.03c1.91-.55 3.11-1.36 3.11-2.27 0-1.06-1.65-2-4.13-2.5.08.79.13 1.63.13 2.5 0 6.08-2.24 11-5 11-1.83 0-3.43-2.17-4.3-5.4l2.03.29c.55 1.91 1.36 3.11 2.27 3.11 1.66 0 3-4.03 3-9 0-1-.05-1.95-.15-2.85-.9-.1-1.85-.15-2.85-.15l-1.86.06.29-2.01 1.57-.05c.87 0 1.71.05 2.5.13-.5-2.48-1.44-4.13-2.5-4.13-1.54 0-2.82 3.5-3 8h2.25zm6.25 1.75-3.25 3.25v-2.25c-5.61-.25-10-2.39-10-5 0-1.83 2.17-3.43 5.4-4.3l-.29 2.03c-1.91.55-3.11 1.36-3.11 2.27 0 1.54 3.5 2.82 8 3v-2.25z"/></svg>