<svg height="24" viewBox="0 0 24 24" width="24" xmlns="http://www.w3.org/2000/svg"><path d="m16.22 16.22c2.03-2.03 3.11-4.72 3.23-8.02-1.09 2.41-2.64 4.61-4.64 6.61s-4.2 3.55-6.61 4.64c3.3-.09 5.96-1.17 8.02-3.23m-8.44-8.44c-2.03 2.03-3.11 4.72-3.23 8.02.45-1 1.15-2.15 2.06-3.45.89-1.3 1.77-2.35 2.58-3.16 2-2 4.2-3.55 6.61-4.64-3.3.09-5.96 1.17-8.02 3.23m12.72-4.28c.5.55.84 1.61.97 3.2.12 1.6-.12 3.46-.73 5.6-.61 2.15-1.63 3.93-3.07 5.37-1.31 1.33-2.87 2.28-4.67 2.88-1.79.61-3.56.92-5.31.92-2.13 0-3.52-.33-4.19-.97-.5-.55-.84-1.61-.97-3.2-.12-1.6.12-3.46.73-5.6.61-2.15 1.63-3.93 3.07-5.37 1.31-1.33 2.87-2.28 4.67-2.88 1.79-.61 3.56-.92 5.31-.92 2.13 0 3.52.33 4.19.97z"/></svg>