<svg height="24" viewBox="0 0 24 24" width="24" xmlns="http://www.w3.org/2000/svg"><path d="m10 12c0-1.1.9-2 2-2s2 .9 2 2-.9 2-2 2-2-.9-2-2m-2.2 5.7-1.5-1.4 1.5-1.5c-.5-.8-.8-1.8-.8-2.8s.3-2 .8-2.7l-1.5-1.5 1.5-1.5 1.4 1.5c.8-.5 1.8-.8 2.8-.8s2 .3 2.8.8l1.5-1.5 1.4 1.4-1.5 1.5c.5.8.8 1.8.8 2.8s-.3 2-.8 2.8l1.5 1.5-1.4 1.4-1.5-1.5c-.8.5-1.8.8-2.8.8s-2-.3-2.7-.8zm4.2-8.7c-1.7 0-3 1.3-3 3s1.3 3 3 3 3-1.3 3-3-1.3-3-3-3m8-7c1.1 0 2 .9 2 2v16c0 1.1-.9 2-2 2h-1v1h-4v-1h-6v1h-4v-1h-1c-1.1 0-2-.9-2-2v-16c0-1.1.9-2 2-2zm0 18v-16h-16v16z"/></svg>