<svg height="24" viewBox="0 0 24 24" width="24" xmlns="http://www.w3.org/2000/svg"><path d="m20 2c1.1 0 2 .9 2 2v16c0 1.1-.9 2-2 2h-1v1h-4v-1h-6v1h-4v-1h-1c-1.1 0-2-.9-2-2v-16c0-1.1.9-2 2-2zm-3 10c0-1-.3-2-.8-2.8l1.5-1.5-1.4-1.4-1.5 1.5c-.8-.5-1.8-.8-2.8-.8s-2 .3-2.8.8l-1.4-1.5-1.5 1.5 1.5 1.5c-.5.7-.8 1.7-.8 2.7s.3 2 .8 2.8l-1.5 1.5 1.5 1.4 1.5-1.5c.7.5 1.7.8 2.7.8s2-.3 2.8-.8l1.5 1.5 1.4-1.4-1.5-1.5c.5-.8.8-1.8.8-2.8m-5-3c1.7 0 3 1.3 3 3s-1.3 3-3 3-3-1.3-3-3 1.3-3 3-3m0 5c1.1 0 2-.9 2-2s-.9-2-2-2-2 .9-2 2 .9 2 2 2z"/></svg>