<svg height="24" viewBox="0 0 24 24" width="24" xmlns="http://www.w3.org/2000/svg"><path d="m18.65 2.85.61 3.86 3.51 1.79-1.77 3.5 1.78 3.5-3.54 1.79-.61 3.86-3.89-.61-2.77 2.76-2.78-2.8-3.86.64-.62-3.89-3.49-1.78 1.78-3.5-1.77-3.47 3.51-1.81.61-3.83 3.87.64 2.78-2.81 2.77 2.77zm-9.15 4.15a1.5 1.5 0 0 0 -1.5 1.5 1.5 1.5 0 0 0 1.5 1.5 1.5 1.5 0 0 0 1.5-1.5 1.5 1.5 0 0 0 -1.5-1.5m5 7a1.5 1.5 0 0 0 -1.5 1.5 1.5 1.5 0 0 0 1.5 1.5 1.5 1.5 0 0 0 1.5-1.5 1.5 1.5 0 0 0 -1.5-1.5m-6.09 3 8.59-8.59-1.41-1.41-8.59 8.59z"/></svg>