<svg height="24" viewBox="0 0 24 24" width="24" xmlns="http://www.w3.org/2000/svg"><path d="m11.62 1 5.66 5.67-2.12 2.12-2.12-2.12-1.42 1.42 2.33 2.32-1.16 1.17.45.46c.93-.43 2.07-.27 2.83.5l-3.53 3.53c-.77-.76-.93-1.9-.5-2.83l-.46-.45-1.17 1.16-2.32-2.33-1.42 1.42 2.12 2.12-2.12 2.12-5.67-5.66 2.14-2.12 2.12 2.12 1.41-1.41-2.83-2.83c-.78-.78-.78-2.05 0-2.83l.71-.71c.78-.78 2.05-.78 2.83 0l2.83 2.83 1.41-1.41-2.12-2.12zm6.38 13a4 4 0 0 1 -4 4v-2a2 2 0 0 0 2-2zm4 0a8 8 0 0 1 -8 8v-2a6 6 0 0 0 6-6z"/></svg>