<svg height="24" viewBox="0 0 24 24" width="24" xmlns="http://www.w3.org/2000/svg"><path d="m11 21h-4v-2h4zm4.5-2h1.5v2h-4v-2h.2l-1.4-6.1-2.5.6c-.1.5-.3.9-.5 1.3-.9 1.5-2.8 1.9-4.3 1s-1.9-2.8-1-4.3 2.8-1.9 4.3-1c.4.2.7.6.9.9l2.5-.6-.6-2.5c-.4-.1-.8-.3-1.2-.5-1.4-.9-1.9-2.8-1-4.3s2.8-1.9 4.3-1 1.9 2.8 1 4.3c-.2.4-.6.7-.9.9zm-8.5-7.2c-.7-.5-1.7-.2-2.2.5s-.2 1.7.5 2.1c.7.5 1.7.3 2.2-.5.4-.7.2-1.7-.5-2.1m5.4-5.8c.5-.7.2-1.7-.5-2.2s-1.7-.2-2.2.5c-.4.7-.2 1.7.6 2.2.7.4 1.7.2 2.1-.5m.4 5.3c-.2-.1-.4-.1-.5.1s-.1.4.1.5.4.1.5-.1c.2-.2.1-.4-.1-.5m8.2-2.8-6.5 1.5.5 2.2 7.5-1.8.5-.7zm2 10.5h-4v2h4zm-18 0h-4v2h4z"/></svg>