<svg height="24" viewBox="0 0 24 24" width="24" xmlns="http://www.w3.org/2000/svg"><path d="m16.5 2.25c.83 0 1.5.67 1.5 1.5s-.67 1.5-1.5 1.5-1.5-.67-1.5-1.5.67-1.5 1.5-1.5m3.5 15.75c1.11 0 2 .9 2 2 0 1.11-.89 2-2 2-.74 0-1.39-.4-1.73-1h-9.54c-.34.6-.99 1-1.73 1-1.1 0-2-.89-2-2 0-1.1.9-2 2-2 .74 0 1.39.4 1.73 1h4.27v-5.5l-3.27-2.27-2.96 2.77c-.41.37-1.04.34-1.42-.06l-3.07-3.29c-.37-.41-.35-1.04.05-1.42.41-.37 1.04-.35 1.41.05l2.39 2.56 7.13-6.64.04-.02c.42-.36 1.05-.3 1.41.12l2.26 2.7h3.03c.55 0 1 .45 1 1s-.45 1-1 1h-3.5c-.35 0-.65-.18-.83-.44l-1.5-1.79-2.53 2.36 2.93 2.05c.26.18.43.48.43.82v6h.61c.43-1.87 2.02-3.3 3.97-3.5l-.77-4.5h1.5l1.08 6.34c-.42-.22-.89-.34-1.39-.34-1.31 0-2.42.84-2.83 2h1.1c.34-.6.99-1 1.73-1z"/></svg>