<svg height="24" viewBox="0 0 24 24" width="24" xmlns="http://www.w3.org/2000/svg"><path d="m16.8 2.5c0-.94.76-1.7 1.7-1.7s1.7.76 1.7 1.7v.5h-3.4zm-.8 6.5h5a1 1 0 0 0 1-1v-4a1 1 0 0 0 -1-1v-.5a2.5 2.5 0 0 0 -2.5-2.5 2.5 2.5 0 0 0 -2.5 2.5v.5a1 1 0 0 0 -1 1v4a1 1 0 0 0 1 1m-7.53 11.5c-3.27-1.56-5.61-4.74-5.97-8.5h-1.5c.5 6.16 5.66 11 11.95 11l.66-.03-3.81-3.82zm14.78-7.73-2.57-2.57-1.41 1.41 2.23 2.22-5.67 5.67-11.33-11.33 5.67-5.67 2.1 2.11 1.41-1.41-2.45-2.45c-.59-.59-1.54-.59-2.12 0l-6.36 6.36c-.59.59-.59 1.54 0 2.12l12.02 12.02c.59.59 1.54.59 2.12 0l6.36-6.36c.59-.59.59-1.54 0-2.12z"/></svg>