<svg height="24" viewBox="0 0 24 24" width="24" xmlns="http://www.w3.org/2000/svg"><path d="m17.71 6.15c-.25-.77-.92-.94-1.26-1.38-.31-.46-.27-1.15-.92-1.62s-1.3-.23-1.83-.38-.89-.77-1.7-.77-1.18.58-1.7.77-1.17-.1-1.83.38-.61 1.16-.92 1.62c-.34.44-1 .61-1.26 1.38s.21 1.3.21 1.85-.5 1.08-.21 1.85.92.94 1.26 1.38c.31.46.27 1.15.92 1.62s1.3.23 1.83.38.89.77 1.7.77 1.18-.58 1.7-.77 1.17.1 1.83-.38.61-1.16.92-1.62c.34-.44 1-.61 1.26-1.38s-.21-1.3-.21-1.85.5-1.08.21-1.85m-5.71 5.85a4 4 0 1 1 4-4 4 4 0 0 1 -4 4m2-4a2 2 0 1 1 -2-2 2 2 0 0 1 2 2m-.29 7.56-.63 3.6-.73 4.13-2.61-2.49-3.3 1.45 1.33-7.5a4 4 0 0 0 1.89.42 4.15 4.15 0 0 0 1.34.68 3.32 3.32 0 0 0 1 .15 3.5 3.5 0 0 0 1.71-.44m4.21 3.22-2.58-.92.51-2.94a3.2 3.2 0 0 0 .85-.45l.12-.1z"/></svg>