<svg height="24" viewBox="0 0 24 24" width="24" xmlns="http://www.w3.org/2000/svg"><path d="m15.5 14 5 5-1.5 1.5-5-5v-.79l-.27-.28c-1.14.98-2.62 1.57-4.23 1.57a6.5 6.5 0 0 1 -6.5-6.5 6.5 6.5 0 0 1 6.5-6.5 6.5 6.5 0 0 1 6.5 6.5c0 1.61-.59 3.09-1.57 4.23l.28.27zm-6-9.5-.55.03c-.24.52-.61 1.4-.88 2.47h2.86c-.27-1.07-.64-1.95-.88-2.47-.18-.03-.36-.03-.55-.03m4.33 2.5c-.59-1.03-1.54-1.83-2.68-2.22.24.53.55 1.3.78 2.22zm-8.66 0h1.9c.23-.92.54-1.69.78-2.22-1.14.39-2.09 1.19-2.68 2.22m-.67 2.5c0 .5.08 1.03.23 1.5h2.14l-.12-1.5.12-1.5h-2.14c-.15.47-.23 1-.23 1.5m9.77 1.5c.15-.47.23-1 .23-1.5s-.08-1.03-.23-1.5h-2.14c.08.5.12 1 .12 1.5s-.04 1-.12 1.5zm-6.4-3-.12 1.5.12 1.5h3.26c.08-.5.12-1 .12-1.5s-.04-1-.12-1.5zm1.63 6.5c.18 0 .36 0 .53-.03.25-.52.63-1.4.9-2.47h-2.86c.27 1.07.65 1.95.9 2.47zm4.33-2.5h-1.9c-.23.92-.54 1.69-.78 2.22 1.14-.39 2.09-1.19 2.68-2.22m-8.66 0c.59 1.03 1.54 1.83 2.68 2.22-.24-.53-.55-1.3-.78-2.22z"/></svg>