<svg height="24" viewBox="0 0 24 24" width="24" xmlns="http://www.w3.org/2000/svg"><path d="m5.35 5.64c-.9-.64-1.12-1.88-.49-2.79.64-.9 1.88-1.12 2.79-.49.9.64 1.12 1.88.49 2.79-.64.9-1.88 1.12-2.79.49m10.65 13.36h-7.07c-1.48 0-2.74-1.08-2.96-2.54l-1.97-9.46h-2l2 9.76c.37 2.44 2.47 4.24 4.94 4.24h7.06m.23-6h-4.88l-1.03-4.1c1.58.89 3.28 1.54 5.15 1.22v-2.12c-1.63.3-3.44-.28-4.69-1.26l-1.64-1.27c-.23-.18-.49-.3-.76-.38-.32-.09-.66-.12-.99-.06h-.02c-1.23.22-2.05 1.39-1.84 2.61l1.35 5.92c.28 1.44 1.51 2.44 2.95 2.44h6.85l3.82 3 1.5-1.5"/></svg>