<svg height="24" viewBox="0 0 24 24" width="24" xmlns="http://www.w3.org/2000/svg"><path d="m19.31 18.9c.44-.69.69-1.52.69-2.4 0-2.5-2-4.5-4.5-4.5s-4.5 2-4.5 4.5 2 4.5 4.5 4.5c.87 0 1.69-.25 2.38-.68l3.12 3.07 1.39-1.39zm-3.81.1c-1.38 0-2.5-1.12-2.5-2.5s1.12-2.5 2.5-2.5 2.5 1.12 2.5 2.5-1.12 2.5-2.5 2.5m5.5-10h-2v-2h2zm0-4h-2v-2h1c.55 0 1 .45 1 1zm-2 6.03v-.03h2v2h-.03c-.51-.79-1.18-1.46-1.97-1.97m-2-6.03h-2v-2h2zm-4 0h-2v-2h2zm-10 2h2v2h-2zm4 12h2v2h-2zm-4-8h2v2h-2zm1-8h1v2h-2v-1c0-.55.45-1 1-1m5 2h-2v-2h2zm-6 14h2v2h-1c-.55 0-1-.45-1-1zm0-4h2v2h-2z"/></svg>