<svg height="24" viewBox="0 0 24 24" width="24" xmlns="http://www.w3.org/2000/svg"><path d="m3.88 3c-.5.06-.88.5-.88 1v1h1 1v-1-1h-1zm3.12 0v2h2v-2zm4 0v2h2v-2zm4 0v2h2v-2zm4 0v1 1h1 1v-1-.12c-.06-.5-.5-.88-1-.88zm-16 4v2h2v-2zm16 0v2h2v-2zm-16 4v2h2v-2zm16.31 1c-.13 0-.26.05-.36.14l-1.56 1.57-.96-.96-.71.71.71.71-4.46 4.46v2.37h2.38l4.45-4.46.7.71.72-.71-.96-.96 1.56-1.55c.18-.2.18-.53 0-.72l-1.17-1.17c-.09-.09-.21-.14-.34-.14m-16.31 3v2h2v-2zm14 0 .97.97-4.04 4.03-.96-.96zm-14 4v1 .12c.06.5.5.88 1 .88h1v-1-1h-1zm4 0v2h2v-2z"/></svg>