<svg height="24" viewBox="0 0 24 24" width="24" xmlns="http://www.w3.org/2000/svg"><path d="m19.27 18.9c.43-.69.68-1.52.68-2.4 0-2.5-2-4.5-4.49-4.5s-4.5 2-4.5 4.5 2 4.5 4.5 4.5c.87 0 1.69-.25 2.38-.68l3.12 3.07 1.39-1.39zm-3.81.1c-1.39 0-2.5-1.12-2.5-2.5s1.11-2.5 2.5-2.5 2.49 1.12 2.49 2.5-1.11 2.5-2.49 2.5m6.54-5h-.55c-.33-.81-.83-1.53-1.45-2.14v-1.86h2zm-2-10h-3v-2h3c1.11 0 2 .9 2 2v3h-2zm-6 0h-4v-2h4zm-10-2h3v2h-3v3h-2v-3c0-1.11.9-2 2-2m8 20h-2v-2c.5.82 1.2 1.5 2 2m-8-2h3v2h-3c-1.1 0-2-.89-2-2v-3h2zm0-6h-2v-4h2z"/></svg>