<svg height="24" viewBox="0 0 24 24" width="24" xmlns="http://www.w3.org/2000/svg"><path d="m6.35 20.25 1.21-1.59c.86.57 1.83.98 2.87 1.19l-.27 1.98c-1.39-.26-2.66-.83-3.81-1.58m10.08-1.59 1.21 1.6c-1.14.77-2.41 1.31-3.8 1.57l-.27-1.98c1.04-.21 2-.62 2.86-1.19m3.41-5.07 1.99.27c-.26 1.39-.83 2.68-1.59 3.8l-1.59-1.21c.57-.85.98-1.82 1.19-2.86m-17.67.25 1.98-.27c.21 1.04.62 2.01 1.19 2.87l-1.59 1.21c-.75-1.15-1.32-2.42-1.58-3.81m16.49-6.28 1.59-1.21c.78 1.15 1.33 2.43 1.58 3.83l-1.98.27c-.21-1.05-.62-2.03-1.19-2.89m-5.09-3.41.27-1.98c1.39.26 2.66.83 3.81 1.58l-1.21 1.59c-.86-.57-1.83-.98-2.87-1.19m-6.01 1.19-1.21-1.59c1.15-.75 2.42-1.32 3.81-1.58l.27 1.98c-1.04.21-2.01.62-2.87 1.19m-3.41 5.09-1.98-.27c.26-1.39.83-2.66 1.58-3.81l1.59 1.21c-.57.86-.98 1.83-1.19 2.87z"/></svg>