<svg height="24" viewBox="0 0 24 24" width="24" xmlns="http://www.w3.org/2000/svg"><path d="m7 4h2v2h-1v1h-2v-2c0-.55.45-1 1-1m12 0c.55 0 1 .45 1 1v2h-2v-1h-1v-2zm-8 2v-2h4v2zm-4 12c-.55 0-1-.45-1-1v-2h2v1h1v2zm-1-9h2v4h-2zm-3-1h1v12h10.58l1.45 2h-13.03c-.55 0-1-.45-1-1v-12c0-.55.45-1 1-1m15.5 4c1.9 0 3.5 1.6 3.5 3.5 0 2.6-3.5 6.5-3.5 6.5s-3.5-3.9-3.5-6.5c0-1.9 1.6-3.5 3.5-3.5m0 4.8c.7 0 1.3-.6 1.2-1.2 0-.6-.6-1.2-1.2-1.2s-1.2.5-1.2 1.2c0 .6.5 1.2 1.2 1.2m-7.5 1.2v-2h2c.09.66.27 1.33.5 2zm9-9v1.23c-.5-.15-1-.23-1.5-.23l-.5.03v-1.03z"/></svg>