<svg height="24" viewBox="0 0 24 24" width="24" xmlns="http://www.w3.org/2000/svg"><path d="m11.2 4c-1.26.12-2.48.53-3.56 1.2l-1-1.73c1.31-.83 2.81-1.34 4.36-1.47m6.53 4.25c-.91-.86-2-1.52-3.19-1.92l.66-1.94c1.5.45 2.89 1.27 4 2.39m-13.66 2.63c-.7 1.03-1.15 2.19-1.34 3.42l-2-.28c.2-1.55.79-3.05 1.7-4.32m18.3 5.77v.66l-2-.16v-.5c0-1.08-.19-2.14-.61-3.14l1.83-.8c.53 1.25.78 2.59.78 3.94m-16 5.3-1.5 1.31c-1.03-1.18-1.78-2.57-2.2-4.08l1.87-.53c.36 1.22.99 2.35 1.83 3.3m6.14 4.7h-.14c-1.5 0-3-.32-4.36-.93l.89-1.83c1.09.51 2.27.76 3.47.76h.19m4.81 1h-2v-6h6v2h-2.58l2.72 2.76-1.41 1.41-2.73-2.67"/></svg>