<svg height="24" viewBox="0 0 24 24" width="24" xmlns="http://www.w3.org/2000/svg"><path d="m13 19h1a1 1 0 0 1 1 1h.73l-2.73-2.73zm9 1v1.18l-1.18-1.18zm-1 2.72-1.27 1.28-2-2h-2.73a1 1 0 0 1 -1 1h-4a1 1 0 0 1 -1-1h-7v-2h7a1 1 0 0 1 1-1h1v-2h-7a1 1 0 0 1 -1-1v-4a1 1 0 0 1 1-1h2.73l-2-2h-.73a1 1 0 0 1 -1-1v-.73l-2-2 1.28-1.27zm-17-19.72h16a1 1 0 0 1 1 1v4a1 1 0 0 1 -1 1h-10.18l-2.82-2.82v-1.18h-1.18l-1.98-2zm16 8a1 1 0 0 1 1 1v4a1 1 0 0 1 -1 1h-2.18l-6-6zm-11-4h1v-2h-1zm0 8h1v-.73l-1-1zm-4-2v2h2v-2z"/></svg>