<svg height="24" viewBox="0 0 24 24" width="24" xmlns="http://www.w3.org/2000/svg"><path d="m4 1h16a1 1 0 0 1 1 1v4a1 1 0 0 1 -1 1h-11.18l-2-2h.18v-2h-2v.18l-1.79-1.79c.18-.24.47-.39.79-.39m18 21.72-1.27 1.28-1-1h-15.73a1 1 0 0 1 -1-1v-4a1 1 0 0 1 1-1h9.73l-2-2h-7.73a1 1 0 0 1 -1-1v-4a1 1 0 0 1 1-1h1.73l-2.05-2.05c-.3-.1-.53-.33-.63-.63l-2.05-2.05 1.28-1.27zm-2-13.72a1 1 0 0 1 1 1v4a1 1 0 0 1 -1 1h-3.18l-6-6zm0 8a1 1 0 0 1 1 1v1.18l-2.18-2.18zm-11-12h1v-2h-1zm0 8h.73l-.73-.73zm0 8h1v-2h-1zm-4-10v2h2v-2zm0 8v2h2v-2z"/></svg>