<svg height="24" viewBox="0 0 24 24" width="24" xmlns="http://www.w3.org/2000/svg"><path d="m3 1h16a1 1 0 0 1 1 1v4a1 1 0 0 1 -1 1h-16a1 1 0 0 1 -1-1v-4a1 1 0 0 1 1-1m0 8h16a1 1 0 0 1 1 1v.67l-2.5-1.11-6.5 2.88v2.56h-8a1 1 0 0 1 -1-1v-4a1 1 0 0 1 1-1m0 8h8c.06 2.25 1 4.4 2.46 6h-10.46a1 1 0 0 1 -1-1v-4a1 1 0 0 1 1-1m5-12h1v-2h-1zm0 8h1v-2h-1zm0 8h1v-2h-1zm-4-18v2h2v-2zm0 8v2h2v-2zm0 8v2h2v-2zm13.5-7 4.5 2v3c0 2.78-1.92 5.37-4.5 6-2.58-.63-4.5-3.22-4.5-6v-3zm0 1.94-2.5 1.12v2.66c0 1.54 1.07 2.98 2.5 3.34z"/></svg>