<svg height="24" viewBox="0 0 24 24" width="24" xmlns="http://www.w3.org/2000/svg"><path d="m16.88 4 2.15 2.1-5.53 4.4-1-1 4.37-5.5zm0-2c-.58 0-1.15.24-1.55.72l-5.53 6.93 3.54 3.54 6.94-5.52c.9-.76.97-2.13.13-2.97l-2.11-2.11c-.4-.4-.91-.59-1.42-.59m-7.78 8.36-.71.71c-.39.39-.39 1.02 0 1.43l2.11 2.1c.21.2.46.29.72.29s.51-.09.71-.29l.7-.7zm-3.1 4.64c-.55 0-1 .45-1 1s.45 1 1 1 1-.45 1-1-.45-1-1-1m3 1c-.55 0-1 .45-1 1s.45 1 1 1 1-.45 1-1-.45-1-1-1m-5 2c-.55 0-1 .45-1 1s.45 1 1 1 1-.45 1-1-.45-1-1-1m3 1c-.55 0-1 .45-1 1s.45 1 1 1 1-.45 1-1-.45-1-1-1z"/></svg>