<svg height="24" viewBox="0 0 24 24" width="24" xmlns="http://www.w3.org/2000/svg"><path d="m20 8.5a2.5 2.5 0 0 1 -2.5 2.5c-1.08 0-2-.69-2.34-1.64-.44.39-1.02.64-1.66.64-.56 0-1.08-.19-1.5-.5-.42.31-.93.5-1.5.5-.64 0-1.22-.25-1.66-.64-.34.95-1.26 1.64-2.34 1.64a2.5 2.5 0 0 1 -2.5-2.5c0-1.24.91-2.27 2.1-2.46-.06-.17-.1-.35-.1-.54a1.5 1.5 0 0 1 1.5-1.5c.2 0 .39.04.56.11.17-.64.75-1.11 1.44-1.11.25 0 .5.07.68.17.32-.67 1.01-1.17 1.82-1.17s1.5.5 1.82 1.17c.18-.1.43-.17.68-.17.69 0 1.27.47 1.44 1.11.17-.07.36-.11.56-.11a1.5 1.5 0 0 1 1.5 1.5c0 .19-.04.37-.1.54 1.19.19 2.1 1.22 2.1 2.46m-10 3.5a1 1 0 0 0 -1 1 1 1 0 0 0 1 1 1 1 0 0 0 1-1 1 1 0 0 0 -1-1m4 0a1 1 0 0 0 -1 1 1 1 0 0 0 1 1 1 1 0 0 0 1-1 1 1 0 0 0 -1-1m6.23-1.34c-.64.81-1.62 1.34-2.73 1.34-.45 0-.88-.1-1.29-.27-.01 2.55-.38 5.63-1.76 7.22-.52.59-1.15.91-1.95 1.01v-1.96h-1v1.96c-.8-.1-1.43-.41-1.95-1.01-1.39-1.6-1.76-4.66-1.77-7.21-.4.16-.83.26-1.28.26-1.11 0-2.09-.53-2.73-1.34-.89.89-1.77 1.34-1.77 1.34s1 2 3 2c.36 0 .64-.04.88-.09.34 3.82 1.7 8.09 6.12 8.09s5.78-4.27 6.12-8.09c.24.05.52.09.88.09 2 0 3-2 3-2s-.88-.45-1.77-1.34z"/></svg>