<svg height="24" viewBox="0 0 24 24" width="24" xmlns="http://www.w3.org/2000/svg"><path d="m21 11c0 5.55-3.84 10.74-9 12-5.16-1.26-9-6.45-9-12v-6l9-4 9 4zm-9 10c3.75-1 7-5.46 7-9.78v-4.92l-7-3.12-7 3.12v4.92c0 4.32 3.25 8.78 7 9.78m2.28-11.27c.58.58.9 1.35.9 2.17 0 .83-.32 1.6-.9 2.18l-2.02 2.02c-.6.6-1.39.9-2.18.9s-1.58-.3-2.18-.9c-1.2-1.2-1.2-3.15 0-4.36l1.25-1.24-.01.56c0 .44.07.89.22 1.3l.04.14-.36.37c-.29.28-.44.63-.44 1.05 0 .39.15.76.43 1.04.57.57 1.54.57 2.1.01l2.01-2.02c.29-.28.44-.65.44-1.04 0-.41-.15-.77-.44-1.05-.14-.15-.24-.36-.24-.57s.1-.42.24-.57c.31-.3.86-.3 1.14.01m3.72-.65c0 .82-.32 1.6-.9 2.18l-1.25 1.24.01-.56c0-.44-.07-.88-.22-1.3l-.05-.14.37-.37c.29-.28.44-.63.44-1.05 0-.39-.15-.76-.44-1.04-.56-.57-1.53-.57-2.09-.01l-2.01 2.02c-.29.28-.44.65-.44 1.05s.15.76.43 1.04c.15.15.25.36.25.57 0 .22-.1.42-.25.57s-.35.22-.56.22c-.2 0-.41-.07-.57-.22-1.22-1.21-1.22-3.16 0-4.36l2.02-2.02c1.21-1.2 3.16-1.2 4.36 0 .58.6.9 1.36.9 2.18z"/></svg>