<svg height="24" viewBox="0 0 24 24" width="24" xmlns="http://www.w3.org/2000/svg"><path d="m12 1-9 4v6c0 5.55 3.84 10.74 9 12 5.16-1.26 9-6.45 9-12v-6zm0 2.18 7 3.12v4.92c0 1.7-.5 3.43-1.35 4.95-1.65-1.23-4.39-1.67-5.65-1.67s-4 .44-5.65 1.67c-.85-1.52-1.35-3.25-1.35-4.95v-4.92zm0 2.82a3.5 3.5 0 0 0 -3.5 3.5 3.5 3.5 0 0 0 3.5 3.5 3.5 3.5 0 0 0 3.5-3.5 3.5 3.5 0 0 0 -3.5-3.5m0 2a1.5 1.5 0 0 1 1.5 1.5 1.5 1.5 0 0 1 -1.5 1.5 1.5 1.5 0 0 1 -1.5-1.5 1.5 1.5 0 0 1 1.5-1.5m0 8.5c1.57 0 3.64.61 4.53 1.34-1.24 1.54-2.83 2.71-4.53 3.16-1.7-.45-3.29-1.62-4.53-3.16.9-.73 2.96-1.34 4.53-1.34z"/></svg>