<svg height="24" viewBox="0 0 24 24" width="24" xmlns="http://www.w3.org/2000/svg"><path d="m2 11 2.05.1c.25-2.27 1.45-4.25 3.2-5.54l-1.12-1.72c-.27-.48-.13-1.09.37-1.37.5-.27 1.09-.11 1.37.37l.93 1.82c.98-.42 2.06-.66 3.2-.66s2.22.24 3.2.66l.93-1.82c.28-.48.87-.64 1.37-.37.5.28.64.89.37 1.37l-1.12 1.72c1.75 1.29 2.95 3.27 3.2 5.54l2.05-.1a1 1 0 0 1 1 1 1 1 0 0 1 -1 1l-2.05-.1c-.25 2.27-1.45 4.25-3.2 5.54l1.12 1.72c.27.48.13 1.09-.37 1.37-.5.27-1.09.11-1.37-.37l-.93-1.82c-.98.42-2.06.66-3.2.66s-2.22-.24-3.2-.66l-.93 1.82c-.28.48-.87.64-1.37.37-.5-.28-.64-.89-.37-1.37l1.12-1.72c-1.75-1.29-2.95-3.27-3.2-5.54l-2.05.1a1 1 0 0 1 -1-1 1 1 0 0 1 1-1m7.07.35c.13-.61.46-1.15.93-1.56l-1.66-2.54c-1.23.94-2.07 2.35-2.29 3.95zm2.93-2.35c.32 0 .62.05.9.14l1.38-2.69c-.7-.29-1.47-.45-2.28-.45s-1.58.16-2.28.45l1.38 2.69c.28-.09.58-.14.9-.14m2.93 2.35 3.02-.15c-.22-1.6-1.06-3.01-2.29-3.95l-1.66 2.54c.47.41.8.95.93 1.56m0 1.3c-.13.61-.46 1.15-.93 1.56l1.66 2.54c1.23-.94 2.07-2.35 2.29-3.95zm-2.93 2.35c-.32 0-.62-.05-.91-.14l-1.37 2.69c.7.29 1.47.45 2.28.45s1.58-.16 2.28-.45l-1.37-2.69c-.29.09-.59.14-.91.14m-2.93-2.35-3.02.15c.22 1.6 1.06 3.01 2.29 3.95l1.66-2.54c-.47-.41-.8-.95-.93-1.56z"/></svg>