<svg height="24" viewBox="0 0 24 24" width="24" xmlns="http://www.w3.org/2000/svg"><path d="m15 0-.62 1.37-1.38.63 1.38.63.62 1.37.63-1.37 1.37-.63-1.37-.63zm-4.5 2-1.09 2.41-2.41 1.09 2.41 1.09 1.09 2.41 1.1-2.41 2.4-1.09-2.4-1.09zm8.39 3.14c-1.33-.08-2.85.51-4.05 1.7-1.59 1.59-2.09 3.74-1.38 5.27l-9.76 9.76 1.41 1.41 6.89-6.87 6.88 6.88 1.41-1.41-6.88-6.88 1.47-1.47c1.53.71 3.68.21 5.27-1.38 1.91-1.91 2.28-4.65.81-6.12-.55-.53-1.28-.84-2.07-.89m-14.98.36c-1.56 1.56-1.56 4.09 0 5.66l4.19 4.18 2.83-2.84z"/></svg>