<svg height="24" viewBox="0 0 24 24" width="24" xmlns="http://www.w3.org/2000/svg"><path d="m18.25 17c0 .88-.18 1.74-.54 2.53h-1.4c1.4-2.38.6-5.44-1.78-6.84-.77-.45-1.64-.69-2.53-.69-2.76 0-5-2.24-5-5s2.24-5 5-5 5 2.24 5 5h-1.25c0-2.07-1.68-3.75-3.75-3.75s-3.75 1.68-3.75 3.75 1.68 3.75 3.75 3.75c3.45 0 6.25 2.81 6.25 6.25m-11.96 2.53c-.36-.79-.54-1.66-.54-2.53h1.25c0 .93.25 1.79.69 2.53zm11.96 1.22v1.25h-12.5v-1.25h3.75v-5h-1.25v-1.25h7.5v1.25h-1.25v5zm-5-5h-2.5v5h2.5zm1.19-8.68c-.04 1.33-1.11 2.4-2.44 2.43-1.38-.04-2.47-1.18-2.43-2.56.03-1.33 1.1-2.41 2.43-2.44 1.38.04 2.47 1.18 2.44 2.57m-1.19-.07c0-.69-.56-1.25-1.25-1.25s-1.25.56-1.25 1.25.56 1.25 1.25 1.25 1.25-.56 1.25-1.25z"/></svg>