<svg height="24" viewBox="0 0 24 24" width="24" xmlns="http://www.w3.org/2000/svg"><path d="m15.8 18.5 6 1.6-.4 1.9-9.4-2.5-9.4 2.5-.5-1.9 6-1.6-6.1-1.6.5-1.9 9.4 2.5 9.4-2.5.5 1.9zm-6.3-12.5c-.8 0-1.5.7-1.5 1.5s.7 1.5 1.5 1.5 1.5-.7 1.5-1.5-.7-1.5-1.5-1.5m5 0c-.8 0-1.5.7-1.5 1.5s.7 1.5 1.5 1.5 1.5-.7 1.5-1.5-.7-1.5-1.5-1.5m-1.5 5-1-2-1 2zm-1-10c-3.9 0-7 3.1-7 7 0 1.9.8 3.6 2 4.9v3.1h10v-3.1c1.2-1.3 2-3 2-4.9 0-3.9-3.1-7-7-7m3 11v2h-1v-2h-1v2h-2v-2h-1v2h-1v-2c-1.2-.9-2-2.3-2-4 0-2.8 2.2-5 5-5s5 2.2 5 5c0 1.6-.8 3.1-2 4z"/></svg>