<svg height="24" viewBox="0 0 24 24" width="24" xmlns="http://www.w3.org/2000/svg"><path d="m6 15a2 2 0 0 1 -2 2 2 2 0 0 1 -2-2 2 2 0 0 1 2-2h2zm1 0a2 2 0 0 1 2-2 2 2 0 0 1 2 2v5a2 2 0 0 1 -2 2 2 2 0 0 1 -2-2zm2-8a2 2 0 0 1 -2-2 2 2 0 0 1 2-2 2 2 0 0 1 2 2v2zm0 1a2 2 0 0 1 2 2 2 2 0 0 1 -2 2h-5a2 2 0 0 1 -2-2 2 2 0 0 1 2-2zm8 2a2 2 0 0 1 2-2 2 2 0 0 1 2 2 2 2 0 0 1 -2 2h-2zm-1 0a2 2 0 0 1 -2 2 2 2 0 0 1 -2-2v-5a2 2 0 0 1 2-2 2 2 0 0 1 2 2zm-2 8a2 2 0 0 1 2 2 2 2 0 0 1 -2 2 2 2 0 0 1 -2-2v-2zm0-1a2 2 0 0 1 -2-2 2 2 0 0 1 2-2h5a2 2 0 0 1 2 2 2 2 0 0 1 -2 2z"/></svg>