<svg height="24" viewBox="0 0 24 24" width="24" xmlns="http://www.w3.org/2000/svg"><path d="m2 6 7 7h-7v3h10l7 7 1.25-1.25-17-17zm18.5 7h1.5v3h-1.5zm-2.5 0h1.5v3h-1.5zm.85-8.12c.62-.61 1-1.45 1-2.38h-1.5c0 1-.85 1.85-1.85 1.85v1.5c2.24 0 4 1.83 4 4.07v2.08h1.5v-2.08c0-2.23-1.28-4.15-3.15-5.04m-4.35 3.82h1.53c1.05 0 1.97.74 1.97 2.05v1.25h1.5v-1.59c0-1.8-1.6-3.16-3.47-3.16h-1.53c-1 0-1.85-.98-1.85-2s.85-1.75 1.85-1.75v-1.5a3.35 3.35 0 0 0 -3.35 3.35 3.35 3.35 0 0 0 3.35 3.35m2.5 7.23v-2.93h-2.93z"/></svg>