<svg height="24" viewBox="0 0 24 24" width="24" xmlns="http://www.w3.org/2000/svg"><path d="m2 16h15v3h-15zm18.5 0h1.5v3h-1.5zm-2.5 0h1.5v3h-1.5zm.85-8.27c.62-.61 1-1.45 1-2.38 0-1.85-1.5-3.35-3.35-3.35v1.5c1 0 1.85.83 1.85 1.85s-.85 1.85-1.85 1.85v1.5c2.24 0 4 1.83 4 4.07v2.23h1.5v-2.24c0-2.22-1.28-4.14-3.15-5.03m-2.82 2.47h-1.53c-1 0-1.85-.98-1.85-2s.85-1.75 1.85-1.75v-1.5c-1.85 0-3.35 1.5-3.35 3.35a3.35 3.35 0 0 0 3.35 3.35h1.53c1.05 0 1.97.74 1.97 2.05v1.3h1.5v-1.64c0-1.81-1.6-3.16-3.47-3.16z"/></svg>