<svg height="24" viewBox="0 0 24 24" width="24" xmlns="http://www.w3.org/2000/svg"><path d="m17 17a5 5 0 0 1 -5 5 5 5 0 0 1 -5-5c0-1.5.65-2.83 1.69-3.75-.43-.64-.69-1.42-.69-2.25 0-.14 0-.27 0-.41l-2.96-1.72-.21-.16-2.54.68-.26-.96 2.21-.59-1.98-1.15.5-.87 1.98 1.15-.59-2.22.96-.25.69 2.54.24.1 2.69 1.55c.38-.54.89-.98 1.49-1.27-.72-.55-1.22-1.42-1.22-2.42a3 3 0 0 1 3-3 3 3 0 0 1 3 3c0 1-.5 1.87-1.22 2.42.6.29 1.11.73 1.49 1.27l2.69-1.55.24-.1.69-2.54.96.25-.59 2.22 1.98-1.15.5.87-1.98 1.15 2.21.59-.26.96-2.54-.68-.21.16-2.96 1.72v.41c0 .83-.26 1.61-.69 2.25 1.04.92 1.69 2.25 1.69 3.75z"/></svg>