<svg height="24" viewBox="0 0 24 24" width="24" xmlns="http://www.w3.org/2000/svg"><path d="m8 17.85c0 1.19-.89 2.15-2 2.15s-2-.96-2-2.15c0-1.43 2-3.85 2-3.85s2 2.42 2 3.85m8.46-5.85v-1.44l2-1.13 2.33.62.52-1.93-1.77-.47.46-1.77-1.93-.52-.62 2.33-2 1.13-2.45-1.44v-2.26l1.71-1.71-1.42-1.41-1.29 1.29-1.29-1.29-1.42 1.41 1.71 1.71v2.26l-2.5 1.44-2-1.13-.58-2.33-1.92.52.47 1.77-1.77.47.52 1.93 2.33-.62 2 1.13v1.44h-5.55v1h20v-1zm-6.96 0v-1.44l2.5-1.45 2.5 1.45v1.44zm10.5 5.85c0 1.19-.89 2.15-2 2.15s-2-.96-2-2.15c0-1.43 2-3.85 2-3.85s2 2.42 2 3.85m-6 3c0 1.19-.89 2.15-2 2.15s-2-.96-2-2.15c0-1.43 2-3.85 2-3.85s2 2.42 2 3.85z"/></svg>