<svg height="24" viewBox="0 0 24 24" width="24" xmlns="http://www.w3.org/2000/svg"><path d="m20.79 13.95-2.33.62-2-1.13v-2.88l2-1.13 2.33.62.52-1.93-1.77-.47.46-1.77-1.93-.52-.62 2.33-2 1.13-2.45-1.44v-2.26l1.71-1.71-1.42-1.41-1.29 1.29-1.29-1.29-1.42 1.41 1.71 1.71v2.26l-2.5 1.44-2-1.13-.58-2.33-1.92.52.47 1.77-1.77.47.52 1.93 2.33-.62 2 1.13v2.89l-2 1.13-2.33-.62-.52 1.93 1.77.47-.47 1.76 1.93.52.62-2.33 2-1.13 2.45 1.44v2.26l-1.71 1.71 1.42 1.41 1.29-1.29 1.29 1.29 1.41-1.41-1.7-1.71v-2.26l2.5-1.45 2 1.13.62 2.33 1.88-.51-.47-1.77 1.77-.47zm-11.29-3.39 2.5-1.45 2.5 1.45v2.88l-2.5 1.45-2.5-1.45z"/></svg>