<svg height="24" viewBox="0 0 24 24" width="24" xmlns="http://www.w3.org/2000/svg"><path d="m12 2a10 10 0 0 0 -10 10 10 10 0 0 0 10 10 10 10 0 0 0 10-10 10 10 0 0 0 -10-10m0 1c1.76 0 3.4.53 4.78 1.41l-.28.59h-3.5-1l-1.72-.84.35-1.03c.45-.08.9-.13 1.37-.13m-2.47.38-.34 1.03-2.56 1.28-1.25.25c1.12-1.21 2.54-2.1 4.15-2.56m3.47 2.62h3l2.69 3.59-1.25 2.57-2.63.62-3.28-3.84zm-6.84.66.84 3.34-1.22 3.06-2.56.88c-.14-.63-.22-1.27-.22-1.94 0-1.9.59-3.64 1.59-5.09zm14.4 2.56c.29.87.44 1.81.44 2.78 0 1.44-.37 2.79-.97 4h-1.03l-.84-3.34 1.5-3zm-12.56.78h3l2.81 3.28-1.81 2.72-3.16.78-2.31-3.09zm4 7 3 2-.87 1.72c-.69.16-1.4.28-2.13.28-1.75 0-3.37-.5-4.75-1.37l1.16-1.72zm7 0h.5c-1 1.5-2.5 2.67-4.19 3.34l.69-1.34z"/></svg>