<svg height="24" viewBox="0 0 24 24" width="24" xmlns="http://www.w3.org/2000/svg"><path d="m9.5 4.27c1.38.26 3.4.87 4.5 1.23 2.75.95 3.69 2.13 3.69 4.79 0 2.6-1.6 3.58-3.64 2.6v-4.84c0-.55-.1-1.08-.64-1.23-.41-.13-.65.25-.65.81v12.1l-3.26-1.04zm3.87 13.35 5.25-1.87c.6-.21.69-.51.21-.67-.49-.16-1.36-.11-1.96.1l-3.5 1.23v-1.96l.21-.07s1.01-.38 2.42-.51c1.43-.16 3.17.02 4.53.53 1.54.49 1.72 1.21 1.33 1.7-.4.5-1.36.85-1.36.85l-7.13 2.55zm-9.87-.2c-1.57-.42-1.84-1.37-1.12-1.92.67-.5 1.8-.85 1.8-.85l4.68-1.65v1.88l-3.36 1.21c-.6.21-.69.51-.21.67s1.36.12 1.95-.1l1.62-.58v1.69l-.32.06c-1.62.26-3.34.17-5.04-.41z"/></svg>