<svg height="24" viewBox="0 0 24 24" width="24" xmlns="http://www.w3.org/2000/svg"><path d="m11.56 8.87v8.13h8.76c1.85-.13 2.68-1.27 2.68-2.67 0-1.48-1.12-2.67-2.62-2.67-.38 0-.7.08-1.03.22-.24-2.34-2.23-4.17-4.68-4.17-1.17 0-2.28.44-3.11 1.16m-.88 1.02c-.3-.18-.62-.32-.97-.39v7.5h1.39v-7.66c-.15.16-.29.36-.42.55m-2.35-.54v7.65h.92v-7.62c-.19-.03-.38-.04-.58-.04-.12 0-.23 0-.34.01m-1.83.65v7h.91v-7.46c-.33.11-.64.27-.91.46m-1.67 2.5c-.06 0-.12-.06-.19-.09v4.59h.92v-6.14c-.37.48-.62 1.05-.73 1.64m-2.04-.28v4.69c.21.06.45.09.71.09h.22v-4.86c-.08-.01-.16-.02-.22-.02-.26 0-.5.04-.71.1m-1.79 2.34c0 .75.34 1.41.87 1.86v-3.71c-.53.44-.87 1.11-.87 1.85z"/></svg>