<svg height="24" viewBox="0 0 24 24" width="24" xmlns="http://www.w3.org/2000/svg"><path d="m6 2a3 3 0 0 1 3 3c0 1.28-.81 2.38-1.94 2.81.09.46.33 1.02.94 1.82 1 1.29 3 3.2 4 4.54 1-1.34 3-3.25 4-4.54.61-.8.85-1.36.94-1.82-1.13-.43-1.94-1.53-1.94-2.81a3 3 0 0 1 3-3 3 3 0 0 1 3 3c0 1.32-.86 2.45-2.05 2.85-.08.52-.31 1.15-.95 1.98-1 1.34-3 3.25-4 4.55-.61.79-.85 1.35-.94 1.81 1.13.43 1.94 1.53 1.94 2.81a3 3 0 0 1 -3 3 3 3 0 0 1 -3-3c0-1.28.81-2.38 1.94-2.81-.09-.46-.33-1.02-.94-1.81-1-1.3-3-3.21-4-4.55-.64-.83-.87-1.46-.95-1.98-1.19-.4-2.05-1.53-2.05-2.85a3 3 0 0 1 3-3m0 2a1 1 0 0 0 -1 1 1 1 0 0 0 1 1 1 1 0 0 0 1-1 1 1 0 0 0 -1-1m12 0a1 1 0 0 0 -1 1 1 1 0 0 0 1 1 1 1 0 0 0 1-1 1 1 0 0 0 -1-1m-6 14a1 1 0 0 0 -1 1 1 1 0 0 0 1 1 1 1 0 0 0 1-1 1 1 0 0 0 -1-1z"/></svg>