<svg height="24" viewBox="0 0 24 24" width="24" xmlns="http://www.w3.org/2000/svg"><path d="m13 14c-3.36 0-4.46 1.35-4.82 2.24 1.07.46 1.82 1.52 1.82 2.76a3 3 0 0 1 -3 3 3 3 0 0 1 -3-3c0-1.31.83-2.42 2-2.83v-8.34c-1.17-.41-2-1.52-2-2.83a3 3 0 0 1 3-3 3 3 0 0 1 3 3c0 1.31-.83 2.42-2 2.83v5.29c.88-.65 2.16-1.12 4-1.12 2.67 0 3.56-1.34 3.85-2.23-1.08-.45-1.85-1.52-1.85-2.77a3 3 0 0 1 3-3 3 3 0 0 1 3 3c0 1.34-.88 2.5-2.09 2.86-.26 1.43-1.23 4.14-4.91 4.14m-6 4a1 1 0 0 0 -1 1 1 1 0 0 0 1 1 1 1 0 0 0 1-1 1 1 0 0 0 -1-1m0-14a1 1 0 0 0 -1 1 1 1 0 0 0 1 1 1 1 0 0 0 1-1 1 1 0 0 0 -1-1m10 2a1 1 0 0 0 -1 1 1 1 0 0 0 1 1 1 1 0 0 0 1-1 1 1 0 0 0 -1-1z"/></svg>