<svg height="24" viewBox="0 0 24 24" width="24" xmlns="http://www.w3.org/2000/svg"><path d="m6 3a3 3 0 0 1 3 3c0 1.31-.83 2.42-2 2.83v6.34c1.17.41 2 1.52 2 2.83a3 3 0 0 1 -3 3 3 3 0 0 1 -3-3c0-1.31.83-2.42 2-2.83v-6.34c-1.17-.41-2-1.52-2-2.83a3 3 0 0 1 3-3m0 2a1 1 0 0 0 -1 1 1 1 0 0 0 1 1 1 1 0 0 0 1-1 1 1 0 0 0 -1-1m0 12a1 1 0 0 0 -1 1 1 1 0 0 0 1 1 1 1 0 0 0 1-1 1 1 0 0 0 -1-1m15 1a3 3 0 0 1 -3 3 3 3 0 0 1 -3-3c0-1.31.83-2.42 2-2.83v-8.17h-2v3.25l-4.25-4.25 4.25-4.25v3.25h2a2 2 0 0 1 2 2v8.17c1.17.41 2 1.52 2 2.83m-3-1a1 1 0 0 0 -1 1 1 1 0 0 0 1 1 1 1 0 0 0 1-1 1 1 0 0 0 -1-1z"/></svg>