<svg height="24" viewBox="0 0 24 24" width="24" xmlns="http://www.w3.org/2000/svg"><path d="m7 3a3 3 0 0 1 3 3c0 1.29-.81 2.39-1.96 2.81.54 5 5.04 5.96 7.15 6.15.42-1.15 1.52-1.96 2.81-1.96a3 3 0 0 1 3 3 3 3 0 0 1 -3 3c-1.31 0-2.43-.84-2.84-2-4.25-.2-5.72-1.81-7.16-3.61v1.78c1.17.41 2 1.52 2 2.83a3 3 0 0 1 -3 3 3 3 0 0 1 -3-3c0-1.31.83-2.42 2-2.83v-6.34c-1.17-.41-2-1.52-2-2.83a3 3 0 0 1 3-3m0 2a1 1 0 0 0 -1 1 1 1 0 0 0 1 1 1 1 0 0 0 1-1 1 1 0 0 0 -1-1m0 12a1 1 0 0 0 -1 1 1 1 0 0 0 1 1 1 1 0 0 0 1-1 1 1 0 0 0 -1-1m11-2a1 1 0 0 0 -1 1 1 1 0 0 0 1 1 1 1 0 0 0 1-1 1 1 0 0 0 -1-1z"/></svg>