<svg height="24" viewBox="0 0 24 24" width="24" xmlns="http://www.w3.org/2000/svg"><path d="m15.5 9.63c-1.29.69-2.47 1.57-3.5 2.63-1.03-1.07-2.21-1.95-3.5-2.63.24-2.77 1.42-5.49 3.56-7.63 2.12 2.12 3.25 4.84 3.44 7.63m-3.5 5.82c2.15-3.28 5.82-5.45 10-5.45 0 10-9.32 11.88-10 12-.68-.11-10-2-10-12 4.18 0 7.85 2.17 10 5.45m.05-10.26c-.66 1.04-1.12 2.19-1.37 3.39l1.32.97 1.35-.98c-.23-1.2-.67-2.35-1.3-3.38m-.05 14.78s6-.97 7.74-7.72c-5.74 1.75-7.74 6.85-7.74 6.85s-3-6.1-7.74-6.84c1.74 6.74 7.74 7.71 7.74 7.71z"/></svg>