<svg height="24" viewBox="0 0 24 24" width="24" xmlns="http://www.w3.org/2000/svg"><path d="m15.5 19v2h-1.77c-.34.6-.99 1-1.73 1s-1.39-.4-1.73-1h-1.77v-2h1.77c.17-.3.43-.56.73-.73v-1.27h-1c-.55 0-1-.45-1-1v-3h-3v4c0 .55-.45 1-1 1h-2c-.55 0-1-.45-1-1v-9c0-.55.45-1 1-1h2c.55 0 1 .45 1 1v3h3v-3c0-.55.45-1 1-1h1v-1h-1c-.55 0-1-.45-1-1v-1c0-.55.45-1 1-1h4c.55 0 1 .45 1 1v1c0 .55-.45 1-1 1h-1v1h1c.55 0 1 .45 1 1v3h3v-3c0-.55.45-1 1-1h2c.55 0 1 .45 1 1v9c0 .55-.45 1-1 1h-2c-.55 0-1-.45-1-1v-4h-3v3c0 .55-.45 1-1 1h-1v1.27c.3.17.56.43.73.73zm-12.5-3v1h2v-1zm0-2v1h2v-1zm0-2v1h2v-1zm0-2v1h2v-1zm0-2v1h2v-1zm16 8v1h2v-1zm0-2v1h2v-1zm0-2v1h2v-1zm0-2v1h2v-1zm0-2v1h2v-1z"/></svg>