<svg height="24" viewBox="0 0 24 24" width="24" xmlns="http://www.w3.org/2000/svg"><path d="m20.07 19.07-1.41-1.41c1.45-1.44 2.34-3.45 2.34-5.66 0-2.22-.89-4.22-2.34-5.66l1.41-1.41c1.81 1.81 2.93 4.31 2.93 7.07s-1.12 5.26-2.93 7.07m-2.83-2.83-1.41-1.41c.72-.72 1.17-1.72 1.17-2.83s-.45-2.11-1.17-2.83l1.41-1.41c1.09 1.09 1.76 2.59 1.76 4.24s-.67 3.15-1.76 4.24m-13.24-13.24h8a2 2 0 0 1 2 2v14a2 2 0 0 1 -2 2h-8a2 2 0 0 1 -2-2v-14a2 2 0 0 1 2-2m4 2a2 2 0 0 0 -2 2 2 2 0 0 0 2 2 2 2 0 0 0 2-2 2 2 0 0 0 -2-2m0 6a4 4 0 0 0 -4 4 4 4 0 0 0 4 4 4 4 0 0 0 4-4 4 4 0 0 0 -4-4m0 2a2 2 0 0 1 2 2 2 2 0 0 1 -2 2 2 2 0 0 1 -2-2 2 2 0 0 1 2-2z"/></svg>