<svg height="24" viewBox="0 0 24 24" width="24" xmlns="http://www.w3.org/2000/svg"><path d="m4 3a2 2 0 0 0 -2 2v14a2 2 0 0 0 2 2h8a2 2 0 0 0 2-2v-14a2 2 0 0 0 -2-2zm4 2a2 2 0 0 1 2 2 2 2 0 0 1 -2 2 2 2 0 0 1 -2-2 2 2 0 0 1 2-2m11 2v3.79l-2.29-2.29-.71.71 2.79 2.79-2.79 2.79.71.71 2.29-2.29v3.79h.5l2.85-2.86-2.14-2.14 2.14-2.15-2.85-2.85zm1 1.91.94.94-.94.94zm-12 2.09a4 4 0 0 1 4 4 4 4 0 0 1 -4 4 4 4 0 0 1 -4-4 4 4 0 0 1 4-4m0 2a2 2 0 0 0 -2 2 2 2 0 0 0 2 2 2 2 0 0 0 2-2 2 2 0 0 0 -2-2m12 .21.94.93-.94.94z"/></svg>