<svg height="24" viewBox="0 0 24 24" width="24" xmlns="http://www.w3.org/2000/svg"><path d="m2 5.27 1.28-1.27 17.72 17.72-1.27 1.28-1.46-1.46c-.34.29-.77.46-1.27.46h-10c-1.11 0-2-.9-2-2v-11.73zm10 12.73a3 3 0 0 1 -3-3c0-.76.28-1.46.75-2l-1.42-1.4c-.83.9-1.33 2.09-1.33 3.4a5 5 0 0 0 5 5c1.31 0 2.5-.5 3.4-1.33l-1.4-1.42c-.55.47-1.24.75-2 .75m5-3a5 5 0 0 0 -5-5h-.18l-6.7-6.7c.29-.76 1.02-1.3 1.88-1.3h10a2 2 0 0 1 2 2v13.18l-2-2.01zm-5-11c-1.11 0-2 .89-2 2a2 2 0 0 0 2 2 2 2 0 0 0 2-2c0-1.11-.9-2-2-2z"/></svg>