<svg height="24" viewBox="0 0 24 24" width="24" xmlns="http://www.w3.org/2000/svg"><path d="m12 1.38-2.86 10.68c-.34 1.04-.1 2.23.72 3.06 1.18 1.17 3.08 1.17 4.25 0 .79-.79 1.05-1.92.78-2.91m-.29-8.86.62 2.33c2.82 1.24 4.78 4.05 4.78 7.32 0 2.21-.89 4.21-2.34 5.65h-.01c-.39.39-.39 1.02 0 1.41s1.03.39 1.42.01c1.81-1.81 2.93-4.31 2.93-7.07 0-4.62-3.14-8.5-7.4-9.65m-5.2.01c-4.25 1.14-7.4 5.04-7.4 9.64 0 2.76 1.12 5.26 2.93 7.07.39.38 1.02.38 1.41-.01s.39-1.02 0-1.41c-1.45-1.45-2.34-3.44-2.34-5.65 0-3.35 1.94-6.14 4.79-7.35"/></svg>