<svg height="24" viewBox="0 0 24 24" width="24" xmlns="http://www.w3.org/2000/svg"><path d="m13 2v5.08a5.47 5.47 0 0 0 -1-.08 5.47 5.47 0 0 0 -1 .08v-5.08m5.9 13a5 5 0 0 1 -.17.55l3.27 1.87v4.58h-2v-3.42l-2.26-1.29a4.94 4.94 0 0 1 -7.48 0l-2.26 1.29v3.42h-2v-4.58l3.27-1.87a5 5 0 0 1 -.17-.55h-1.8l-2.75 1.83-1.1-1.66 3.25-2.17h2.4a5 5 0 0 1 .27-.88l-1.56-1-3.57.88-.48-2 4.43-1.08 2.31 1.53a5 5 0 0 1 7 0l2.27-1.53 4.47 1.08-.48 2-3.57-.89-1.56 1a5 5 0 0 1 .27.89h2.4l3.25 2.16-1.1 1.66-2.75-1.82m-7.7-1a1 1 0 1 0 -1 1 1 1 0 0 0 1-1m4 0a1 1 0 1 0 -1 1 1 1 0 0 0 1-1z"/></svg>