<svg height="24" viewBox="0 0 24 24" width="24" xmlns="http://www.w3.org/2000/svg"><path d="m23 4.1v-1.8l-1.8-.2c-.1 0-.7-.1-1.7-.1-4.1 0-7.1 1.2-8.8 3.3-1.3-.8-3.1-1.3-5.2-1.3-1 0-1.7.1-1.7.1l-1.9.3.1 1.7c.1 3 1.6 8.7 6.8 8.7h.2v3.4c-3.8.5-7 1.8-7 1.8v2h20v-2s-3.2-1.3-7-1.8v-3.2c6.3-.1 8-7.2 8-10.9m-11 13.9c-.3 0-.7 0-1 0v-5.6s-.2-3.4-3-3.4c0 0 1.5.8 1.9 3.7-.4.1-.8.1-1.1.1-4.6 0-4.8-6.7-4.8-6.7s.6-.1 1.5-.1c1.9 0 5 .4 5.9 3.1.5-4.5 5.6-5.1 8.1-5.1.9 0 1.5.1 1.5.1s0 9-6.3 9c-.2 0-.5 0-.7 0 0-2 2-5 2-5-3 1-3 4.9-3 4.9v5c-.3 0-.7 0-1 0z"/></svg>