<svg height="24" viewBox="0 0 24 24" width="24" xmlns="http://www.w3.org/2000/svg"><path d="m6.27 17.05c.45.53.73 1.2.73 1.95 0 1.66-1.34 3-3 3s-3-1.34-3-3 1.34-3 3-3c.18 0 .36 0 .53.05l3.07-5.36-1.74-.99 4.09-1.12 1.12 4.09-1.74-.99zm13.73-1.05c-1.3 0-2.4.84-2.82 2h-6.18v-2l-3 3 3 3v-2h6.18c.42 1.16 1.52 2 2.82 2 1.66 0 3-1.34 3-3s-1.34-3-3-3m-8-8c.18 0 .36 0 .53-.05l3.07 5.36-1.74.99 4.09 1.12 1.12-4.09-1.74.99-3.06-5.37c.45-.53.73-1.2.73-1.95 0-1.66-1.34-3-3-3s-3 1.34-3 3 1.34 3 3 3z"/></svg>