<svg height="24" viewBox="0 0 24 24" width="24" xmlns="http://www.w3.org/2000/svg"><path d="m12 2a10 10 0 0 1 10 10 10 10 0 0 1 -10 10c-4.6 0-8.45-3.08-9.64-7.27l3.83 1.58c.26 1.29 1.41 2.27 2.78 2.27 1.56 0 2.83-1.27 2.83-2.83v-.13l3.4-2.43h.08c2.08 0 3.77-1.69 3.77-3.77s-1.69-3.77-3.77-3.77-3.78 1.69-3.78 3.77v.05l-2.37 3.46-.16-.01c-.59 0-1.14.18-1.59.49l-5.38-2.21c.43-5.15 4.73-9.2 10-9.2m-3.72 15.17c.8.33 1.72-.04 2.05-.84s-.05-1.71-.83-2.04l-1.28-.53c.49-.18 1.04-.19 1.56.03.53.21.94.62 1.15 1.15.22.52.22 1.1 0 1.62-.43 1.08-1.7 1.6-2.78 1.15-.5-.21-.88-.59-1.09-1.04zm9.52-7.75c0 1.39-1.13 2.52-2.52 2.52-1.38 0-2.51-1.13-2.51-2.52a2.5 2.5 0 0 1 2.51-2.51c1.39 0 2.52 1.13 2.52 2.51m-4.4 0c0 1.04.84 1.89 1.89 1.89 1.04 0 1.88-.85 1.88-1.89s-.84-1.89-1.88-1.89c-1.05 0-1.89.85-1.89 1.89z"/></svg>