<svg height="24" viewBox="0 0 24 24" width="24" xmlns="http://www.w3.org/2000/svg"><path d="m13 19.92c1.8-.22 3.35-.97 4.65-2.27s2.05-2.85 2.27-4.65h-3c-.22 1-.68 1.84-1.38 2.54s-1.54 1.16-2.54 1.38zm-3-11.92h4l3 3h2.92c-.25-1.95-1.13-3.62-2.65-5-1.51-1.34-3.27-2-5.27-2s-3.76.66-5.27 2c-1.52 1.38-2.4 3.05-2.65 5h2.92zm1 11.92v-3c-1-.22-1.84-.68-2.54-1.38s-1.16-1.54-1.38-2.54h-3c.22 1.77.97 3.3 2.27 4.6s2.85 2.07 4.65 2.32m1-17.92c2.75 0 5.1 1 7.05 2.95s2.95 4.3 2.95 7.05-1 5.1-2.95 7.05-4.3 2.95-7.05 2.95-5.1-1-7.05-2.95-2.95-4.3-2.95-7.05 1-5.1 2.95-7.05 4.3-2.95 7.05-2.95z"/></svg>