<svg height="24" viewBox="0 0 24 24" width="24" xmlns="http://www.w3.org/2000/svg"><path d="m12.12 18.46 6.18-6.18c-1.36.31-2.99.92-4.23 2.18-1.03 1.04-1.68 2.37-1.95 4m8.63-8.46h.3c.39 0 .74.27.88.64.14.36.07.79-.23 1.07l-10 10c-.2.19-.44.29-.7.29l-.36-.07c-.37-.14-.64-.49-.64-.88-.16-3.39.73-6.09 2.66-8.02 2.84-2.83 6.96-3.03 8.09-3.03m-8.75-8c4.5 0 8.34 3 9.58 7.11l-1.58-.11h-.58c-1.18-2.93-4.06-5-7.42-5a8 8 0 0 0 -8 8c0 3.36 2.07 6.24 5 7.42-.03.71 0 1.43.11 2.15-4.11-1.24-7.11-5.07-7.11-9.57 0-5.53 4.5-10 10-10z"/></svg>