<svg height="24" viewBox="0 0 24 24" width="24" xmlns="http://www.w3.org/2000/svg"><path d="m5.5 2c-1.94 0-3.5 1.56-3.5 3.5v13c0 1.94 1.56 3.5 3.5 3.5h10.5l6-6v-10.5c0-1.94-1.56-3.5-3.5-3.5zm.25 2h12.5a1.75 1.75 0 0 1 1.75 1.75v9.25h-1.5c-1.94 0-3.5 1.56-3.5 3.5v1.5h-9.25a1.75 1.75 0 0 1 -1.75-1.75v-12.5a1.75 1.75 0 0 1 1.75-1.75m8.69 2.77c-.16 0-.32.02-.47.06-.94.26-1.47 1.22-1.23 2.17.05.15.12.3.21.44l3.23-.88c0-.17-.02-.34-.06-.51-.21-.75-.9-1.28-1.68-1.28m-6.27 1.73c-.17 0-.32 0-.47.05-.93.26-1.48 1.22-1.23 2.15.03.16.12.3.21.46l3.23-.88c0-.17-.02-.34-.06-.5-.21-.78-.9-1.28-1.68-1.28m8.55 2.76-9.13 2.51c1.32 1.53 3.41 2.17 5.36 1.64 1.95-.54 3.41-2.16 3.77-4.15z"/></svg>