<svg height="24" viewBox="0 0 24 24" width="24" xmlns="http://www.w3.org/2000/svg"><path d="m5.06 3c-.43 0-.84.14-1.22.42s-.6.64-.7 1.08l-1.03 4.41c-.25 1.09-.05 2.04.61 2.86l.28.28v6.95c0 .5.2 1 .61 1.39s.89.61 1.39.61h14c.5 0 1-.2 1.39-.61s.61-.89.61-1.39v-6.95l.28-.28c.66-.82.86-1.77.61-2.86l-1.03-4.41c-.13-.44-.36-.8-.73-1.08-.36-.28-.75-.42-1.19-.42zm13.83 1.97 1.08 4.41c.09.43 0 .82-.28 1.17-.25.31-.56.45-.94.45-.31 0-.58-.1-.8-.34-.22-.23-.34-.5-.37-.82l-.61-4.84zm-13.83.03h1.97l-.61 4.84c-.12.79-.51 1.16-1.17 1.16-.41 0-.72-.14-.94-.45-.28-.35-.37-.74-.28-1.17zm3.99 0h1.95v4.7c0 .35-.11.65-.36.92-.25.26-.56.38-.94.38-.34 0-.63-.12-.86-.41s-.34-.59-.34-.93v-.16zm3.95 0h1.95l.55 4.5c.08.42 0 .77-.29 1.07-.26.3-.6.43-1.01.43-.31 0-.59-.12-.84-.38-.25-.27-.36-.57-.36-.92zm-5.55 7.05c.63.62 1.41.95 2.35.95.84 0 1.58-.33 2.2-.95.69.62 1.45.95 2.3.95.87 0 1.62-.33 2.25-.95.56.62 1.31.95 2.25.95h.23v6h-14.03v-6h.25c.91 0 1.64-.33 2.2-.95z"/></svg>