<svg height="24" viewBox="0 0 24 24" width="24" xmlns="http://www.w3.org/2000/svg"><path d="m6 14h2l3 3h-2zm-2-10h1v-1a1 1 0 0 1 1-1h4a1 1 0 0 1 1 1v1h2v-1a1 1 0 0 1 1-1h4a1 1 0 0 1 1 1v1h1a2 2 0 0 1 2 2v13a2 2 0 0 1 -2 2v1h-3v-1h-10v1h-3v-1a2 2 0 0 1 -2-2v-13a2 2 0 0 1 2-2m14 3a1 1 0 0 1 1 1 1 1 0 0 1 -1 1 1 1 0 0 1 -1-1 1 1 0 0 1 1-1m-4 0a1 1 0 0 1 1 1 1 1 0 0 1 -1 1 1 1 0 0 1 -1-1 1 1 0 0 1 1-1m6-1h-16v4h16zm-16 13h16v-7h-16zm2-12a1 1 0 0 1 1 1 1 1 0 0 1 -1 1 1 1 0 0 1 -1-1 1 1 0 0 1 1-1m7 7h2l3 3h-2z"/></svg>