<svg height="24" viewBox="0 0 24 24" width="24" xmlns="http://www.w3.org/2000/svg"><path d="m6.91 5.5 2.3 2.29-1.42 1.42-2.29-2.3-2.29 2.3-1.42-1.42 2.3-2.29-2.3-2.29 1.42-1.42 2.29 2.3 2.29-2.3 1.42 1.42m13 13-1.42-1.42-2.29 2.3-2.29-2.3-1.42 1.42 2.3 2.29-2.3 2.29 1.42 1.42 2.29-2.3 2.29 2.3 1.42-1.42-2.3-2.29m.49-11.67-3.22 4.17-1.58-1.27 1.17-1.5a9.08 9.08 0 0 0 -6.66 5.62 4.5 4.5 0 1 1 -2.61-.85 4 4 0 0 1 .78.08 11.27 11.27 0 0 1 8.15-6.82l-1.43-1.08 1.27-1.58m-6.27 13.9a2.5 2.5 0 1 0 -2.5 2.5 2.5 2.5 0 0 0 2.5-2.5z"/></svg>