<svg height="24" viewBox="0 0 24 24" width="24" xmlns="http://www.w3.org/2000/svg"><path d="m14 10.74v-1.78c.95-.06 1.86-.15 2.74-.29l.42 1.72c-.49.73-.62 1.61-.43 2.43.09.35.18.68.27.98l4.12 4.12c2.49-.66 1.97-4.37 1.44-6.53-.2-.8-.74-1.54-1.51-1.95l-.42-1.7c.48-.16.94-.33 1.37-.51v-2.23c-2 1.07-5.47 2.03-10 2.03-.63 0-1.24-.03-1.83-.06m10.55 9.53c-1.45.34-2.53-4.03-2.53-4.03s-.36-1.47 1.1-1.82 1.81 1.1 1.81 1.1 1.08 4.37-.38 4.75m-5.77-2.21-1.45-1.46-1.32-1.33-2.18-2.16-.42-.41h.01l-2.27-2.27-4.93-4.93-1.28 1.27 2.8 2.8c-.72-.25-1.38-.52-1.91-.8v2.23c.43.18.89.35 1.37.51l-.42 1.7c-.77.41-1.31 1.15-1.51 1.95-.535 2.18-1.055 5.92 1.48 6.54 1.08.27 3.08-.04 4.35-5.11.19-.82.06-1.7-.43-2.43l.33-1.33 2.33 2.32c-.32.49-.5 1.06-.5 1.62 0 2.24.39 6 3 6 .8 0 1.97-.41 2.59-2.5l6.25 6.23 1.27-1.27-7.16-7.16zm-9.14-1.82s-1.07 4.37-2.53 4.03c-1.46-.38-.38-4.75-.38-4.75s.36-1.46 1.81-1.1 1.1 1.82 1.1 1.82m6.19 5.03c-1.5 0-1.5-4.5-1.5-4.5s0-.23.1-.5l2.72 2.71c-.19 1.14-.56 2.29-1.32 2.29z"/></svg>