<svg height="24" viewBox="0 0 24 24" width="24" xmlns="http://www.w3.org/2000/svg"><path d="m8.5 15a1 1 0 0 1 1 1 1 1 0 0 1 -1 1 1 1 0 0 1 -1-1 1 1 0 0 1 1-1m-1.5-6h10v5h-10zm8.5 6a1 1 0 0 1 1 1 1 1 0 0 1 -1 1 1 1 0 0 1 -1-1 1 1 0 0 1 1-1m2.5.88v-6.88c0-2.62-2.68-3-6-3-3 0-6 .37-6 3v6.88a2.62 2.62 0 0 0 2.62 2.62l-1.12 1.12v.38h1.67l1.5-1.5h2.83l1.5 1.5h1.5v-.38l-1.13-1.12c1.45 0 2.63-1.17 2.63-2.62m-.2-13.08c2.67 1.04 4.2 3.25 4.2 6.06v13.14h-20v-13.14c0-2.81 1.53-5.02 4.2-6.06 1.8-.71 3.94-.8 5.8-.8s4 .09 5.8.8z"/></svg>