<svg height="24" viewBox="0 0 24 24" width="24" xmlns="http://www.w3.org/2000/svg"><path d="m20 4h-16a2 2 0 0 0 -2 2v12a2 2 0 0 0 2 2h16a2 2 0 0 0 2-2v-12a2 2 0 0 0 -2-2m-12.24 12.24-1.41 1.41c-1.57-1.55-2.35-3.6-2.35-5.65s.78-4.1 2.34-5.66l1.41 1.41c-1.16 1.18-1.75 2.71-1.75 4.25s.59 3.07 1.76 4.24m4.24-.24a4 4 0 0 1 -4-4 4 4 0 0 1 4-4 4 4 0 0 1 4 4 4 4 0 0 1 -4 4m5.66 1.66-1.41-1.41c1.16-1.18 1.75-2.71 1.75-4.25s-.59-3.07-1.76-4.24l1.41-1.41c1.57 1.55 2.35 3.6 2.35 5.65s-.78 4.1-2.34 5.66m-5.66-7.66a2 2 0 0 0 -2 2 2 2 0 0 0 2 2 2 2 0 0 0 2-2 2 2 0 0 0 -2-2z"/></svg>