<svg height="24" viewBox="0 0 24 24" width="24" xmlns="http://www.w3.org/2000/svg"><path d="m9 4v2h-3v2h3v2c-2.75 0-5 2.27-5 5.03 0 2.77 2.26 5.03 5.03 5.03.86 0 1.69-.29 2.37-.8.23.28.48.56.75.83l1.41-1.42c-.26-.25-.49-.52-.7-.78l1-1c1.07-1.07 1.92-2.66 2.56-4.3.89.52 1.58 1.31 1.58 2.41 0 1.32-.53 2.6-1.46 3.54l1.41 1.41c1.31-1.31 2.05-3.09 2.05-4.95 0-1.96-1.18-3.64-2.85-4.45l.35-1.26-1.95-.51-.34 1.27c-.08 0-.15-.05-.24-.05h-3.97v-2h5v-2h-5v-2m0 8h3.5c-.56 1.37-1.31 2.72-2.06 3.47l-.65.66c-.54-1.2-.79-2.54-.79-4.13m-2 0c0 2.07.41 3.94 1.3 5.59-.36.3-.8.47-1.27.47-1.7 0-3.03-1.33-3.03-3.03 0-1.69 1.32-3.03 3-3.03z"/></svg>