<svg height="24" viewBox="0 0 24 24" width="24" xmlns="http://www.w3.org/2000/svg"><path d="m20 4h-6v6l2.24-2.24c1.08 1.09 1.76 2.58 1.76 4.24 0 1-.25 1.94-.68 2.77l1.46 1.46c.77-1.23 1.22-2.67 1.22-4.23 0-2.21-.91-4.2-2.36-5.64zm-17.14 1.41 2.36 2.36c-.77 1.23-1.22 2.67-1.22 4.23 0 2.21.91 4.2 2.36 5.64l-2.36 2.36h6v-6l-2.24 2.24c-1.08-1.09-1.76-2.58-1.76-4.24 0-1 .25-1.94.68-2.77l8.08 8.08c-.26.13-.5.25-.76.34v2.09c.79-.21 1.54-.54 2.22-.96l2.36 2.36 1.27-1.27-15.71-15.73zm7.14.94v-2.09c-.8.21-1.55.54-2.23.96l1.46 1.46c.27-.12.5-.24.77-.33z"/></svg>