<svg height="24" viewBox="0 0 24 24" width="24" xmlns="http://www.w3.org/2000/svg"><path d="m2.38 1.73-1.27 1.27 1.15 1.15a2 2 0 0 0 -1.26 1.85v13a2 2 0 0 0 2 2h6v-10h.11l3.61 3.61a6.21 6.21 0 0 0 -1.72 2.39 6.45 6.45 0 0 0 6 4 6.55 6.55 0 0 0 1.84-.27l2 2 1.27-1.27-1.53-1.53m-13.58-.93h-4v-3h4m0-2h-4v-3h4m0-2h-4v-3h1.11l2.89 2.89m10 10.61a2.5 2.5 0 0 1 -2.44-3.05l3 3a2.5 2.5 0 0 1 -.56.05m-.76-6.5 1.61 1.61a2.5 2.5 0 0 1 1.5 1.5l2.59 2.59a6.44 6.44 0 0 0 1.06-1.7 6.45 6.45 0 0 0 -6-4zm-3.24-7v3h-.8l2 2h6.8v-5a2 2 0 0 0 -2-2h-11.8l2 2m5.8 0h4v3h-4z"/></svg>