<svg height="24" viewBox="0 0 24 24" width="24" xmlns="http://www.w3.org/2000/svg"><path d="m19 12v1.5c2.21 0 4 1.79 4 4 0 .82-.24 1.58-.67 2.21l-1.09-1.09c.17-.34.26-.72.26-1.12 0-1.38-1.12-2.5-2.5-2.5v1.5l-2.25-2.25zm0 11v-1.5c-2.21 0-4-1.79-4-4 0-.82.25-1.58.67-2.21l1.09 1.09c-.17.34-.26.72-.26 1.12 0 1.38 1.12 2.5 2.5 2.5v-1.5l2.25 2.25zm-15-20h14c1.11 0 2 .9 2 2v6h-.5c-1.84 0-3.5.77-4.69 2h-2.81v4h1v.5c0 .5.06 1 .17 1.5h-9.17c-1.1 0-2-.89-2-2v-12c0-1.1.9-2 2-2m0 4v4h6v-4zm8 0v4h6v-4zm-8 6v4h6v-4z"/></svg>