<svg height="24" viewBox="0 0 24 24" width="24" xmlns="http://www.w3.org/2000/svg"><path d="m12 8.8-5.8-5.8h11.8c1.1 0 2 .9 2 2v7.59c-.93-.38-1.94-.59-3-.59-.55 0-1.09.07-1.62.18l-1.18-1.18h3.8v-4h-6zm5.09 5.09 5.22 5.22c.27-.38.51-.79.69-1.23-.93-2.31-3.22-3.96-5.91-3.99m5.02 7.57-1.27 1.27-1.34-1.36c-.79.32-1.62.51-2.5.51-2.73 0-5.06-1.66-6-4 .45-1.12 1.23-2.08 2.21-2.78l-1.28-1.28c-.74.6-1.4 1.32-1.93 2.15v-2.97h-6v4h5.42c-.16.32-.3.66-.42 1 .12.34.26.68.42 1h-5.42c-1.1 0-2-.9-2-2v-12c0-.32.08-.62.22-.89l-1.11-1.11 1.28-1.27zm-13-10.46-4-4h-1.11v4zm9.07 9.07-3.37-3.37c-.2.35-.31.75-.31 1.18 0 1.38 1.12 2.5 2.5 2.5.43 0 .83-.11 1.18-.31z"/></svg>