<svg height="24" viewBox="0 0 24 24" width="24" xmlns="http://www.w3.org/2000/svg"><path d="m19.3 17.89c1.32-2.1.7-4.89-1.41-6.21-2.1-1.32-4.89-.68-6.21 1.41-1.32 2.11-.68 4.91 1.41 6.21 1.47.92 3.33.92 4.8 0l3.11 3.09 1.39-1.39zm-2-.62c-.98.98-2.56.97-3.54 0-.97-.98-.97-2.56.01-3.54.97-.97 2.55-.97 3.53 0 .96.99.95 2.57-.03 3.54zm1.7-13.27h-14a2 2 0 0 0 -2 2v12a2 2 0 0 0 2 2h5.81c-.56-.58-1.01-1.26-1.31-2h-4.5v-4h4.18c.16-.71.43-1.39.82-2h-5v-4h6v2.81c.58-.56 1.26-1.01 2-1.31v-1.5h6v2c.4.25.77.55 1.1.88.34.34.64.71.9 1.12v-6a2 2 0 0 0 -2-2z"/></svg>