<svg height="24" viewBox="0 0 24 24" width="24" xmlns="http://www.w3.org/2000/svg"><path d="m17 16.88c.56 0 1 .44 1 1s-.44 1-1 1-1-.45-1-1 .44-1 1-1m0-3c2.73 0 5.06 1.66 6 4-.94 2.34-3.27 4-6 4s-5.06-1.66-6-4c.94-2.34 3.27-4 6-4m0 1.5c-1.38 0-2.5 1.12-2.5 2.5s1.12 2.5 2.5 2.5 2.5-1.12 2.5-2.5-1.12-2.5-2.5-2.5m1-12.38h-14c-1.1 0-2 .9-2 2v12c0 1.1.9 2 2 2h5.42c-.16-.32-.3-.66-.42-1 .12-.34.26-.68.42-1h-5.42v-4h6v2.97c.55-.86 1.23-1.6 2-2.21v-.76h1.15c1.16-.64 2.47-1 3.85-1 1.06 0 2.07.21 3 .59v-7.59c0-1.1-.9-2-2-2m-8 8h-6v-4h6zm8 0h-6v-4h6z"/></svg>