<svg height="24" viewBox="0 0 24 24" width="24" xmlns="http://www.w3.org/2000/svg"><path d="m3 3h14c1.11 0 2 .9 2 2v7.08c-1.55-.26-3.08.1-4.32.92h-3.68v4h1.08c-.11.68-.11 1.35 0 2h-9.08c-1.1 0-2-.89-2-2v-12c0-1.1.9-2 2-2m0 4v4h6v-4zm8 0v4h6v-4zm-8 6v4h6v-4zm19.78 6.32-1.07-.82c.02-.17.04-.33.04-.5s-.01-.33-.04-.5l1.06-.82c.09-.08.12-.21.06-.32l-1-1.73c-.06-.13-.19-.13-.33-.13l-1.22.5c-.28-.18-.54-.35-.85-.47l-.19-1.32c-.01-.12-.12-.21-.24-.21h-2c-.12 0-.23.09-.25.21l-.19 1.32c-.3.13-.59.29-.85.47l-1.24-.5c-.11 0-.24 0-.31.13l-1 1.73c-.06.11-.04.24.06.32l1.06.82c-.02.17-.03.33-.03.5s.01.33.03.5l-1.06.82c-.09.08-.12.21-.06.32l1 1.73c.06.13.19.13.31.13l1.24-.5c.26.18.54.35.85.47l.19 1.32c.02.12.12.21.25.21h2c.12 0 .23-.09.25-.21l.19-1.32c.3-.13.56-.29.84-.47l1.22.5c.14 0 .27 0 .34-.13l1-1.73c.06-.11.03-.24-.06-.32m-4.78.18c-.83 0-1.5-.67-1.5-1.5s.68-1.5 1.5-1.5 1.5.67 1.5 1.5-.66 1.5-1.5 1.5z"/></svg>