<svg height="24" viewBox="0 0 24 24" width="24" xmlns="http://www.w3.org/2000/svg"><path d="m21.41 11.58-9-9c-.37-.37-.88-.58-1.41-.58h-7a2 2 0 0 0 -2 2v7c0 .53.21 1.04.59 1.41l.41.4c.9-.54 1.94-.81 3-.81a6 6 0 0 1 6 6c0 1.06-.28 2.09-.82 3l.4.4c.37.38.89.6 1.42.6s1.04-.21 1.41-.59l7-7c.38-.37.59-.88.59-1.41s-.21-1.04-.59-1.42m-15.91-4.58a1.5 1.5 0 0 1 -1.5-1.5 1.5 1.5 0 0 1 1.5-1.5 1.5 1.5 0 0 1 1.5 1.5 1.5 1.5 0 0 1 -1.5 1.5m2.62 14.54-2.12-2.13-2.12 2.13-1.42-1.42 2.13-2.12-2.13-2.12 1.41-1.41 2.13 2.12 2.12-2.12 1.41 1.41-2.12 2.12 2.12 2.12z"/></svg>