<svg height="24" viewBox="0 0 24 24" width="24" xmlns="http://www.w3.org/2000/svg"><path d="m6.5 5a1.5 1.5 0 1 0 1.5 1.5 1.5 1.5 0 0 0 -1.5-1.5m0 0a1.5 1.5 0 1 0 1.5 1.5 1.5 1.5 0 0 0 -1.5-1.5m11.83 3.5 4.59-4.58-1.42-1.42-19 19 1.42 1.42 4.58-4.59 3.09 3.09a2 2 0 0 0 1.41.58 2 2 0 0 0 1.41-.59l7-7a2 2 0 0 0 .59-1.41 2 2 0 0 0 -.59-1.42m-8.41 8.42-3.08-3.08 7-7 3.08 3.08m-14.39 2.43 1.39-1.43-3-3v-7h7l3.06 3.06 1.41-1.4-3.06-3.08a2 2 0 0 0 -1.41-.58h-7a2 2 0 0 0 -2 2v7a2 2 0 0 0 .59 1.42m2.41-5.92a1.5 1.5 0 1 0 1.5-1.5 1.5 1.5 0 0 0 -1.5 1.5z"/></svg>