<svg height="24" viewBox="0 0 24 24" width="24" xmlns="http://www.w3.org/2000/svg"><path d="m15 18c-3.32 0-6-2.69-6-6 0-3.32 2.68-6 6-6a6 6 0 0 1 6 6 6 6 0 0 1 -6 6m-11-5a1 1 0 0 1 -1-1 1 1 0 0 1 1-1 1 1 0 0 1 1 1 1 1 0 0 1 -1 1m18-10h-14.37c-.66 0-1.25.32-1.63.81l-6 8.19 6 8.18c.38.5.97.82 1.63.82h14.37a2 2 0 0 0 2-2v-14c0-1.11-.9-2-2-2m-9 8a1 1 0 0 0 1-1 1 1 0 0 0 -1-1 1 1 0 0 0 -1 1 1 1 0 0 0 1 1m2 5c1.86 0 3.35-1.28 3.8-3h-7.6c.45 1.72 1.94 3 3.8 3m2-5a1 1 0 0 0 1-1 1 1 0 0 0 -1-1 1 1 0 0 0 -1 1 1 1 0 0 0 1 1z"/></svg>