<svg height="24" viewBox="0 0 24 24" width="24" xmlns="http://www.w3.org/2000/svg"><path d="m21.41 11.58-9-9c-.36-.36-.86-.58-1.41-.58h-7a2 2 0 0 0 -2 2v7c0 .55.22 1.05.59 1.42l9 9c.36.36.86.58 1.41.58s1.05-.22 1.41-.59l7-7c.37-.36.59-.86.59-1.41s-.23-1.06-.59-1.42m-15.91-4.58a1.5 1.5 0 0 1 -1.5-1.5 1.5 1.5 0 0 1 1.5-1.5 1.5 1.5 0 0 1 1.5 1.5 1.5 1.5 0 0 1 -1.5 1.5m11.77 8.27-4.27 4.27-4.27-4.27c-.45-.46-.73-1.08-.73-1.77a2.5 2.5 0 0 1 2.5-2.5c.69 0 1.32.28 1.77.74l.73.72.73-.73c.45-.45 1.08-.73 1.77-.73a2.5 2.5 0 0 1 2.5 2.5c0 .69-.28 1.32-.73 1.77z"/></svg>