<svg height="24" viewBox="0 0 24 24" width="24" xmlns="http://www.w3.org/2000/svg"><path d="m11 2v2.07c-3.62.46-6.47 3.31-6.93 6.93h-2.07v2h2.07c.46 3.62 3.31 6.47 6.93 6.93v2.07h2v-2.07c3.62-.46 6.47-3.31 6.93-6.93h2.07v-2h-2.07c-.46-3.62-3.31-6.47-6.93-6.93v-2.07m-2 4.08v1.92h2v-1.91c2.5.41 4.5 2.41 4.92 4.91h-1.92v2h1.91c-.41 2.5-2.41 4.5-4.91 4.92v-1.92h-2v1.91c-2.5-.41-4.5-2.41-4.92-4.91h1.92v-2h-1.91c.41-2.5 2.41-4.5 4.91-4.92m1 4.92a1 1 0 0 0 -1 1 1 1 0 0 0 1 1 1 1 0 0 0 1-1 1 1 0 0 0 -1-1z"/></svg>