<svg height="24" viewBox="0 0 24 24" width="24" xmlns="http://www.w3.org/2000/svg"><path d="m20.95 11h1.55v2h-1.55c-.45 4.17-3.78 7.5-7.95 7.95v1.55h-2v-1.55c-4.17-.45-7.5-3.78-7.95-7.95h-1.55v-2h1.55c.45-4.17 3.78-7.5 7.95-7.95v-1.55h2v1.55c4.17.45 7.5 3.78 7.95 7.95m-15.88 0h1.43v2h-1.43c.43 3.07 2.86 5.5 5.93 5.93v-1.43h2v1.43c3.07-.43 5.5-2.86 5.93-5.93h-1.43v-2h1.43c-.43-3.07-2.86-5.5-5.93-5.93v1.43h-2v-1.43c-3.07.43-5.5 2.86-5.93 5.93m10.93 5h-8v-1c0-1.33 2.67-2 4-2s4 .67 4 2zm-4-8a2 2 0 0 1 2 2 2 2 0 0 1 -2 2 2 2 0 0 1 -2-2 2 2 0 0 1 2-2z"/></svg>