<svg height="24" viewBox="0 0 24 24" width="24" xmlns="http://www.w3.org/2000/svg"><path d="m12 2c2.5 0 4.75.9 6.5 2.4-2.14 1.83-3.5 4.56-3.5 7.6s1.36 5.77 3.5 7.6c-1.75 1.5-4 2.4-6.5 2.4s-4.75-.9-6.5-2.4c2.14-1.83 3.5-4.56 3.5-7.6s-1.36-5.77-3.5-7.6c1.75-1.5 4-2.4 6.5-2.4m10 10c0 2.32-.79 4.45-2.12 6.15-1.76-1.47-2.88-3.68-2.88-6.15s1.12-4.68 2.88-6.15c1.33 1.7 2.12 3.83 2.12 6.15m-20 0c0-2.32.79-4.45 2.12-6.15 1.76 1.47 2.88 3.68 2.88 6.15s-1.12 4.68-2.88 6.15c-1.33-1.7-2.12-3.83-2.12-6.15z"/></svg>