<svg height="24" viewBox="0 0 24 24" width="24" xmlns="http://www.w3.org/2000/svg"><path d="m18 15a4 4 0 0 1 4 4 4 4 0 0 1 -4 4 4 4 0 0 1 -4-4 4 4 0 0 1 4-4m0 2a2 2 0 0 0 -2 2 2 2 0 0 0 2 2 2 2 0 0 0 2-2 2 2 0 0 0 -2-2m-11.95-2.46s1.41-1.42 1.42-4.24c-.36-2.19.5-4.76 2.47-6.72 2.93-2.93 7.2-3.41 9.56-1.08 2.33 2.36 1.85 6.63-1.08 9.56-1.96 1.97-4.53 2.83-6.72 2.47-2.82.01-4.24 1.42-4.24 1.42l-4.24 4.24-1.41-1.41zm12.02-10.61c-1.57-1.56-4.57-1.09-6.72 1.07-2.14 2.14-2.62 5.15-1.06 6.71 1.57 1.56 4.57 1.08 6.71-1.06 2.16-2.15 2.63-5.15 1.07-6.72z"/></svg>