<svg height="24" viewBox="0 0 24 24" width="24" xmlns="http://www.w3.org/2000/svg"><path d="m17 7h5v10h-5v2a1 1 0 0 0 1 1h2v2h-2.5c-.55 0-1.5-.45-1.5-1 0 .55-.95 1-1.5 1h-2.5v-2h2a1 1 0 0 0 1-1v-14a1 1 0 0 0 -1-1h-2v-2h2.5c.55 0 1.5.45 1.5 1 0-.55.95-1 1.5-1h2.5v2h-2a1 1 0 0 0 -1 1zm-15 0h11v2h-9v6h9v2h-11zm18 8v-6h-3v6zm-11.5-3a1.5 1.5 0 0 0 -1.5-1.5 1.5 1.5 0 0 0 -1.5 1.5 1.5 1.5 0 0 0 1.5 1.5 1.5 1.5 0 0 0 1.5-1.5m4.5-1.11c-.61-.56-1.56-.51-2.12.11-.56.6-.51 1.55.12 2.11.55.52 1.43.52 2 0z"/></svg>