<svg height="24" viewBox="0 0 24 24" width="24" xmlns="http://www.w3.org/2000/svg"><path d="m15.5 12c2.5 0 4.5 2 4.5 4.5 0 .88-.25 1.71-.69 2.4l3.08 3.1-1.39 1.39-3.12-3.07c-.69.43-1.51.68-2.38.68-2.5 0-4.5-2-4.5-4.5s2-4.5 4.5-4.5m0 2a2.5 2.5 0 0 0 -2.5 2.5 2.5 2.5 0 0 0 2.5 2.5 2.5 2.5 0 0 0 2.5-2.5 2.5 2.5 0 0 0 -2.5-2.5m-10.5-11h14c1.11 0 2 .89 2 2v8.03c-.5-.8-1.19-1.49-2-2.03v-6h-14v14h4.5c.31.75.76 1.42 1.31 2h-5.81c-1.11 0-2-.89-2-2v-14c0-1.11.89-2 2-2m2 4h10v2h-10zm0 4h5.03c-.8.5-1.49 1.19-2.03 2h-3zm0 4h2.17c-.11.5-.17 1-.17 1.5v.5h-2z"/></svg>