<svg height="24" viewBox="0 0 24 24" width="24" xmlns="http://www.w3.org/2000/svg"><path d="m2 7h4v2h-2v6h2v2h-4zm8 0h12v5c-.58-.44-1.26-.75-2-.9v-2.1h-10v6h4.25c-.69 0-1.25.56-1.25 1.25v.75h-3v2c0 .55.45 1 1 1h2v2h-2.5c-.55 0-1.5-.45-1.5-1 0 .55-.95 1-1.5 1h-2.5v-2h2c.55 0 1-.45 1-1v-14c0-.55-.45-1-1-1h-2v-2h2.5c.55 0 1.5.45 1.5 1 0-.55.95-1 1.5-1h2.5v2h-2c-.55 0-1 .45-1 1zm11.8 10c.6 0 1.2.6 1.2 1.3v3.5c0 .6-.6 1.2-1.3 1.2h-5.5c-.6 0-1.2-.6-1.2-1.3v-3.5c0-.6.6-1.2 1.2-1.2v-1.5c0-1.4 1.4-2.5 2.8-2.5s2.8 1.1 2.8 2.5zm-1.3 0v-1.5c0-.8-.7-1.3-1.5-1.3s-1.5.5-1.5 1.3v1.5z"/></svg>