<svg height="24" viewBox="0 0 24 24" width="24" xmlns="http://www.w3.org/2000/svg"><path d="m15.5 12c2.5 0 4.5 2 4.5 4.5 0 .88-.25 1.71-.69 2.4l3.08 3.1-1.39 1.39-3.12-3.07c-.69.43-1.51.68-2.38.68-2.5 0-4.5-2-4.5-4.5s2-4.5 4.5-4.5m0 2a2.5 2.5 0 0 0 -2.5 2.5 2.5 2.5 0 0 0 2.5 2.5 2.5 2.5 0 0 0 2.5-2.5 2.5 2.5 0 0 0 -2.5-2.5m-8.5 1v2h2c.14 1.55.8 2.94 1.81 4h-5.81c-1.11 0-2-.9-2-2v-14c0-1.11.89-2 2-2h14a2 2 0 0 1 2 2v8.03c-1.15-1.82-3.18-3.03-5.5-3.03-1.27 0-2.46.37-3.46 1h-5.04v2h3c-.36.6-.66 1.28-.83 2zm10-6v-2h-10v2z"/></svg>