<svg height="24" viewBox="0 0 24 24" width="24" xmlns="http://www.w3.org/2000/svg"><path d="m7.5 2c-1.79 1.15-3 3.18-3 5.5s1.21 4.35 3.03 5.5c-3.07 0-5.53-2.46-5.53-5.5a5.5 5.5 0 0 1 5.5-5.5m11.57 1.5 1.43 1.43-15.57 15.57-1.43-1.43zm-6.18 2.43-1.48-.93-1.44 1 .42-1.7-1.39-1.06 1.75-.12.58-1.65.67 1.63 1.73.03-1.35 1.13zm-3.3 3.61-1.16-.73-1.12.78.34-1.32-1.09-.83 1.36-.09.45-1.29.51 1.27 1.36.03-1.05.87zm9.41 3.96a5.5 5.5 0 0 1 -5.5 5.5c-1.22 0-2.35-.4-3.26-1.07l7.69-7.69c.67.91 1.07 2.04 1.07 3.26m-4.4 6.58 2.77-1.15-.24 3.35zm4.33-2.7 1.15-2.77 2.2 2.54zm1.15-4.96-1.14-2.78 3.34.24zm-10.45 6.51 2.77 1.15-2.53 2.19z"/></svg>