<svg height="24" viewBox="0 0 24 24" width="24" xmlns="http://www.w3.org/2000/svg"><path d="m3.5 19a1.5 1.5 0 0 1 1.5 1.5 1.5 1.5 0 0 1 -1.5 1.5 1.5 1.5 0 0 1 -1.5-1.5 1.5 1.5 0 0 1 1.5-1.5m5-3a2.5 2.5 0 0 1 2.5 2.5 2.5 2.5 0 0 1 -2.5 2.5 2.5 2.5 0 0 1 -2.5-2.5 2.5 2.5 0 0 1 2.5-2.5m6-1c-1.19 0-2.27-.5-3-1.35-.73.85-1.81 1.35-3 1.35-1.96 0-3.59-1.41-3.93-3.26-1.5-.58-2.57-2.04-2.57-3.74a4 4 0 0 1 4-4l.77.07c.73-.66 1.68-1.07 2.73-1.07 1.19 0 2.27.5 3 1.35.73-.85 1.81-1.35 3-1.35 1.96 0 3.59 1.41 3.93 3.26 1.5.58 2.57 2.04 2.57 3.74a4 4 0 0 1 -4 4l-.77-.07c-.73.66-1.68 1.07-2.73 1.07m-8.5-9a2 2 0 0 0 -2 2 2 2 0 0 0 2 2c.33 0 .64-.08.92-.22-.26.34-.42.76-.42 1.22a2 2 0 0 0 2 2c.6 0 1.14-.27 1.5-.69l1.47-1.68 1.53 1.71c.38.4.91.66 1.5.66 1 0 1.83-.74 2-1.7.34.43.89.7 1.5.7a2 2 0 0 0 2-2 2 2 0 0 0 -2-2c-.33 0-.64.08-.92.22.26-.34.42-.76.42-1.22a2 2 0 0 0 -2-2c-.59 0-1.12.26-1.5.66l-1.53 1.71-1.47-1.68c-.36-.42-.9-.69-1.5-.69-1 0-1.83.74-2 1.7-.34-.43-.89-.7-1.5-.7m2.5 11.5a1 1 0 0 0 -1 1 1 1 0 0 0 1 1 1 1 0 0 0 1-1 1 1 0 0 0 -1-1z"/></svg>