<svg height="24" viewBox="0 0 24 24" width="24" xmlns="http://www.w3.org/2000/svg"><path d="m3.5 19a1.5 1.5 0 0 1 1.5 1.5 1.5 1.5 0 0 1 -1.5 1.5 1.5 1.5 0 0 1 -1.5-1.5 1.5 1.5 0 0 1 1.5-1.5m5-3a2.5 2.5 0 0 1 2.5 2.5 2.5 2.5 0 0 1 -2.5 2.5 2.5 2.5 0 0 1 -2.5-2.5 2.5 2.5 0 0 1 2.5-2.5m6-1c-1.19 0-2.27-.5-3-1.35-.73.85-1.81 1.35-3 1.35-1.96 0-3.59-1.41-3.93-3.26-1.5-.58-2.57-2.04-2.57-3.74a4 4 0 0 1 4-4c.26 0 .5.03.77.07.73-.66 1.68-1.07 2.73-1.07 1.19 0 2.27.5 3 1.35.73-.85 1.81-1.35 3-1.35 1.96 0 3.59 1.41 3.93 3.26 1.5.58 2.57 2.04 2.57 3.74a4 4 0 0 1 -4 4l-.77-.07c-.73.66-1.68 1.07-2.73 1.07z"/></svg>