<svg height="24" viewBox="0 0 24 24" width="24" xmlns="http://www.w3.org/2000/svg"><path d="m4 2v6h-2v-6zm-2 20v-6h2v6zm3-10c0 1.11-.89 2-2 2-1.1 0-2-.89-2-2 0-1.1.9-2 2-2 1.11 0 2 .9 2 2m19-6v12c0 1.11-.89 2-2 2h-12c-1.1 0-2-.89-2-2v-4l-2-2 2-2v-4c0-1.11.9-2 2-2h12c1.11 0 2 .89 2 2m-7.5 9.5h-1.5v1.5h1.5zm-2-5v-.5c0-.83.67-1.5 1.5-1.5s1.5.68 1.5 1.5c0 .47-.23.9-.62 1.16l-.29.19c-.99.65-1.59 1.76-1.59 2.95v.2h1.5v-.2c0-.68.34-1.3.91-1.7l.3-.19c.79-.53 1.29-1.44 1.29-2.41 0-1.66-1.34-3-3-3s-3 1.34-3 3v.5z"/></svg>