<svg height="24" viewBox="0 0 24 24" width="24" xmlns="http://www.w3.org/2000/svg"><path d="m5 12c0 1.11-.89 2-2 2-1.1 0-2-.89-2-2 0-1.1.9-2 2-2 1.11 0 2 .9 2 2m-1-10v6h-2v-6zm-2 20v-6h2v6zm22-16v12c0 1.11-.89 2-2 2h-12c-1.1 0-2-.89-2-2v-4l-2-2 2-2v-4c0-1.11.9-2 2-2h12c1.11 0 2 .89 2 2m-2 0h-12v4.83l-1.17 1.17 1.17 1.17v4.83h12zm-5.5 9.5v1.5h-1.5v-1.5zm-2-5h-1.5v-.5c0-1.66 1.34-3 3-3s3 1.34 3 3c0 .97-.5 1.88-1.29 2.41l-.3.19c-.57.4-.91 1.02-.91 1.7v.2h-1.5v-.2c0-1.19.6-2.3 1.59-2.95l.29-.19c.39-.26.62-.69.62-1.16 0-.82-.67-1.5-1.5-1.5s-1.5.67-1.5 1.5z"/></svg>