<svg height="24" viewBox="0 0 24 24" width="24" xmlns="http://www.w3.org/2000/svg"><path d="m20.87 14.37c-.14-.28-.37-.53-.63-.74-.28-.21-.61-.39-1.01-.53s-.85-.27-1.35-.38c-.35-.07-.64-.15-.88-.22-.22-.09-.4-.17-.54-.26s-.23-.19-.28-.3-.08-.24-.08-.39.03-.28.09-.41c.06-.14.15-.25.27-.34.12-.1.27-.18.45-.24s.4-.09.64-.09c.25 0 .45.03.66.11.19.07.35.17.48.29.13.13.22.26.31.42.04.16.08.32.08.49h1.95c0-.39-.08-.75-.24-1.09s-.39-.63-.69-.88-.66-.44-1.1-.59c-.42-.15-.91-.22-1.45-.22-.51 0-.98.07-1.39.21s-.77.33-1.06.57c-.29.22-.51.52-.67.84s-.23.65-.23 1.01c0 .37.08.68.23.96s.37.52.64.73.6.38.98.53.81.26 1.27.36c.39.08.71.17.95.26.23.09.43.19.57.29.13.1.22.24.27.34.05.12.07.25.07.4 0 .31-.13.56-.4.76-.28.2-.66.29-1.17.29-.22 0-.43-.02-.64-.08-.21-.05-.4-.13-.56-.24-.17-.11-.3-.26-.41-.44s-.17-.41-.18-.67h-1.89c0 .38.07.71.24 1.05.16.33.39.65.7.93.31.27.69.49 1.13.66.5.17 1 .24 1.6.24.53 0 1.01-.05 1.44-.18s.8-.32 1.11-.54c.31-.23.54-.51.71-.83s.25-.67.25-1.06c-.02-.39-.11-.74-.24-1.02m-9.26-1.4c-.16-.24-.36-.47-.61-.65-.26-.19-.57-.35-.94-.48.3-.14.57-.3.8-.5s.42-.41.57-.64.27-.46.34-.7c.08-.25.11-.5.11-.74 0-.55-.09-1.04-.28-1.46-.18-.42-.44-.77-.78-1.06-.32-.28-.73-.5-1.2-.64-.45-.13-.97-.2-1.53-.2-.55 0-1.06.1-1.52.24-.47.17-.87.4-1.2.69s-.6.63-.78 1.03c-.2.39-.29.83-.29 1.29h1.98c0-.26.05-.49.14-.69.08-.2.22-.38.38-.52.17-.14.36-.25.58-.33s.46-.11.73-.11c.61 0 1.06.15 1.36.46s.44.75.44 1.32c0 .27-.04.52-.12.72-.08.24-.21.43-.38.59s-.38.28-.63.37-.55.13-.89.13h-1.17v1.57h1.18c.34 0 .64.04.91.11.27.08.5.19.69.35s.34.38.44.61c.1.24.16.54.16.87 0 .62-.18 1.09-.53 1.4-.35.35-.84.5-1.45.5-.29 0-.56-.03-.8-.12-.24-.08-.44-.2-.61-.38-.17-.14-.3-.32-.39-.54s-.14-.46-.14-.72h-1.99c0 .55.11 1.03.31 1.45.22.42.5.77.87 1.05.36.26.77.49 1.24.63.47.13.96.21 1.48.21.57 0 1.09-.08 1.58-.23s.91-.38 1.26-.68c.36-.3.64-.67.84-1.1s.3-.93.3-1.48c0-.29-.04-.59-.11-.86-.08-.23-.19-.51-.35-.76z"/></svg>