<svg height="24" viewBox="0 0 24 24" width="24" xmlns="http://www.w3.org/2000/svg"><path d="m12 20a7 7 0 0 1 -7-7c0-1.28.35-2.5.95-3.5l9.55 9.54c-1 .61-2.22.96-3.5.96m-9-16-1.25 1.27 2.75 2.76c-.95 1.42-1.5 3.13-1.5 4.97a9 9 0 0 0 9 9c1.84 0 3.55-.55 5-1.5l2.5 2.5 1.25-1.27-7.71-7.73zm8 5.44 2 2v-3.44h-2m4-7h-6v2h6m4.04 1.55-1.42 1.42c-1.55-1.23-3.5-1.97-5.62-1.97-1.83 0-3.53.55-4.95 1.5l1.45 1.44c1.03-.59 2.23-.94 3.5-.94a7 7 0 0 1 7 7c0 1.27-.35 2.47-.94 3.5l1.44 1.44c.95-1.41 1.5-3.11 1.5-4.94 0-2.12-.74-4.07-1.97-5.61l1.42-1.42z"/></svg>