<svg height="24" viewBox="0 0 24 24" width="24" xmlns="http://www.w3.org/2000/svg"><path d="m20 18v-4h-3v1h-2v-1h-6v1h-2v-1h-3v4zm-13.67-10-1.74 4h2.41v-1h2v1h6v-1h2v1h2.41l-1.74-4zm2.67-3v1h6v-1zm12.84 7.61c.1.22.16.48.16.8v4.59c0 .53-.21 1-.6 1.41-.4.4-.85.59-1.4.59h-16c-.55 0-1-.19-1.4-.59-.39-.41-.6-.88-.6-1.41v-4.59c0-.32.06-.58.16-.8l2.34-5.39c.34-.81.95-1.22 1.83-1.22h.67v-1c0-.55.18-1 .57-1.41.39-.39.87-.59 1.43-.59h6c.56 0 1.04.2 1.43.59.39.41.57.86.57 1.41v1h.67c.88 0 1.49.41 1.83 1.22z"/></svg>