<svg height="24" viewBox="0 0 24 24" width="24" xmlns="http://www.w3.org/2000/svg"><path d="m15 10h5.39l-3.33-4h-2.06zm2.5 8.5c.39 0 .74-.13 1.04-.43s.46-.65.46-1.07c0-.39-.16-.74-.46-1.04s-.65-.46-1.04-.46c-.42 0-.77.16-1.07.46s-.43.65-.43 1.04c0 .42.13.77.43 1.07s.65.43 1.07.43m-11.5 0c.44 0 .8-.13 1.08-.43s.42-.65.42-1.07c0-.39-.14-.74-.42-1.04s-.64-.46-1.08-.46-.8.16-1.08.46-.42.65-.42 1.04c0 .42.14.77.42 1.07s.64.43 1.08.43m12-14.5 5 6v7h-2.5c0 .83-.31 1.53-.91 2.13-.59.59-1.29.87-2.09.87-.83 0-1.53-.28-2.12-.87-.6-.6-.88-1.3-.88-2.13h-5.5c0 .83-.3 1.53-.89 2.13-.61.59-1.3.87-2.11.87s-1.5-.28-2.11-.87c-.59-.6-.89-1.3-.89-2.13h-2v-4h8.19l-6.19-4.89v2.89h-2v-6h1l11 6.06v-7.06z"/></svg>