<svg height="24" viewBox="0 0 24 24" width="24" xmlns="http://www.w3.org/2000/svg"><path d="m5 4v7.26c-1.8.64-3 2.34-3 4.24 0 2.5 2 4.5 4.5 4.5 2.29 0 4.21-1.72 4.47-4h4.2c-.11.32-.17.66-.17 1a3 3 0 0 0 3 3 3 3 0 0 0 3-3c0-.34-.06-.68-.18-1h1.18v-3c0-1.11-.89-2-2-2h-4.96l-1.39-7zm2 2h5l1 5v3h-2.26c-.58-1.62-2.03-2.77-3.74-2.97zm-.5 7.25a2.25 2.25 0 0 1 2.25 2.25 2.25 2.25 0 0 1 -2.25 2.25 2.25 2.25 0 0 1 -2.25-2.25 2.25 2.25 0 0 1 2.25-2.25m11.5 2.25a1.5 1.5 0 0 1 1.5 1.5 1.5 1.5 0 0 1 -1.5 1.5 1.5 1.5 0 0 1 -1.5-1.5 1.5 1.5 0 0 1 1.5-1.5z"/></svg>