<svg height="24" viewBox="0 0 24 24" width="24" xmlns="http://www.w3.org/2000/svg"><path d="m12 9a2 2 0 0 1 -2-2c0-1.11.9-2 2-2 1.11 0 2 .89 2 2a2 2 0 0 1 -2 2m0 5a2 2 0 0 1 -2-2c0-1.11.9-2 2-2 1.11 0 2 .89 2 2a2 2 0 0 1 -2 2m0 5a2 2 0 0 1 -2-2c0-1.11.9-2 2-2 1.11 0 2 .89 2 2a2 2 0 0 1 -2 2m8-9h-3v-1.14c1.72-.45 3-2 3-3.86h-3v-1a1 1 0 0 0 -1-1h-8a1 1 0 0 0 -1 1v1h-3c0 1.86 1.28 3.41 3 3.86v1.14h-3c0 1.86 1.28 3.41 3 3.86v1.14h-3c0 1.86 1.28 3.41 3 3.86v1.14a1 1 0 0 0 1 1h8a1 1 0 0 0 1-1v-1.14c1.72-.45 3-2 3-3.86h-3v-1.14c1.72-.45 3-2 3-3.86z"/></svg>