<svg height="24" viewBox="0 0 24 24" width="24" xmlns="http://www.w3.org/2000/svg"><path d="m12 4h-7a3 3 0 0 0 -3 3v8a3 3 0 0 0 3 3l-1 1v1h1l2-2.03 2 .03v-5h-5v-7h9v2h2v-1a3 3 0 0 0 -3-3m-7 10a1 1 0 0 1 1 1 1 1 0 0 1 -1 1 1 1 0 0 1 -1-1 1 1 0 0 1 1-1m15.57-4.34c-.14-.4-.52-.66-.97-.66h-7.19c-.46 0-.83.26-.98.66l-1.43 4.11v5.51c0 .38.32.72.7.72h.62c.38 0 .68-.38.68-.76v-1.24h8v1.24c0 .38.31.76.69.76h.61c.38 0 .7-.34.7-.72v-1.37-4.14zm-8.16.34h7.19l1.03 3h-9.25zm-.41 6a1 1 0 0 1 -1-1 1 1 0 0 1 1-1 1 1 0 0 1 1 1 1 1 0 0 1 -1 1m8 0a1 1 0 0 1 -1-1 1 1 0 0 1 1-1 1 1 0 0 1 1 1 1 1 0 0 1 -1 1z"/></svg>