<svg height="24" viewBox="0 0 24 24" width="24" xmlns="http://www.w3.org/2000/svg"><path d="m15 2a7 7 0 0 1 7 7c0 2.71-1.54 5.05-3.78 6.22-.67 1.28-1.72 2.33-3 3-1.17 2.24-3.51 3.78-6.22 3.78a7 7 0 0 1 -7-7c0-2.71 1.54-5.05 3.78-6.22.67-1.28 1.72-2.33 3-3 1.17-2.24 3.51-3.78 6.22-3.78m-3 17a7 7 0 0 1 -7-7c-.63.84-1 1.87-1 3a5 5 0 0 0 5 5c1.13 0 2.16-.37 3-1m3-3a7 7 0 0 1 -7-7c-.63.84-1 1.87-1 3a5 5 0 0 0 5 5c1.13 0 2.16-.37 3-1zm0-12c-1.13 0-2.16.37-3 1a7 7 0 0 1 7 7c.63-.84 1-1.87 1-3a5 5 0 0 0 -5-5m-5 5a5 5 0 0 0 5 5c.6 0 1.17-.1 1.7-.3.2-.53.3-1.1.3-1.7a5 5 0 0 0 -5-5c-.6 0-1.17.1-1.7.3-.2.53-.3 1.1-.3 1.7z"/></svg>