<svg height="24" viewBox="0 0 24 24" width="24" xmlns="http://www.w3.org/2000/svg"><path d="m19 3a3 3 0 0 0 -2.39 1.21 11.5 11.5 0 0 0 -2.86-.21l.13 2a9.47 9.47 0 0 1 2.12.13 3 3 0 1 0 3-3.13m0 4a1 1 0 1 1 1-1 1 1 0 0 1 -1 1m-10.14.86-1.19-1.61a11.5 11.5 0 0 1 3.93-1.88l.5 1.94a9.5 9.5 0 0 0 -3.24 1.55m12.14 10.14a3 3 0 1 1 -5.31-1.89 9.47 9.47 0 0 0 -7.1-2.65c-.22.01-.43.04-.65.08a3 3 0 1 1 -3.55-3.48 11.54 11.54 0 0 1 1.65-2.36l1.46 1.36a9.34 9.34 0 0 0 -1 1.35 3.04 3.04 0 0 1 1.12 1.15c.29-.06.57-.06.88-.1a11.47 11.47 0 0 1 8.96 3.59 2.96 2.96 0 0 1 .54-.05 3 3 0 0 1 3 3z"/></svg>