<svg height="24" viewBox="0 0 24 24" width="24" xmlns="http://www.w3.org/2000/svg"><path d="m18 11h-3.18c-.42-1.16-1.52-2-2.82-2s-2.4.84-2.82 2h-3.18c-.33 0-2-.1-2-2v-1c0-1.83 1.54-2 2-2h10.18c.42 1.16 1.52 2 2.82 2a3 3 0 0 0 3-3 3 3 0 0 0 -3-3c-1.3 0-2.4.84-2.82 2h-10.18c-1.61 0-4 1.06-4 4v1c0 2.94 2.39 4 4 4h3.18c.42 1.16 1.52 2 2.82 2s2.4-.84 2.82-2h3.18c.33 0 2 .1 2 2v1c0 1.83-1.54 2-2 2h-10.18c-.42-1.16-1.52-2-2.82-2a3 3 0 0 0 -3 3 3 3 0 0 0 3 3c1.3 0 2.4-.84 2.82-2h10.18c1.61 0 4-1.07 4-4v-1c0-2.93-2.39-4-4-4m1-7a1 1 0 0 1 1 1 1 1 0 0 1 -1 1 1 1 0 0 1 -1-1 1 1 0 0 1 1-1m-14 16a1 1 0 0 1 -1-1 1 1 0 0 1 1-1 1 1 0 0 1 1 1 1 1 0 0 1 -1 1z"/></svg>