<svg height="24" viewBox="0 0 24 24" width="24" xmlns="http://www.w3.org/2000/svg"><path d="m10.5 3c-2.5 0-4.5 2-4.5 4.5 0 .61.13 1.21.37 1.77-.87.85-1.37 2.01-1.37 3.23 0 2.5 2 4.5 4.5 4.5.5 0 1-.11 1.5-.28v4.28h2v-5.23c.5.14 1 .23 1.5.23a5.5 5.5 0 0 0 5.5-5.5 5.5 5.5 0 0 0 -5.5-5.5c-.09 0-.17 0-.26 0-.83-1.24-2.24-2-3.74-2m0 2c1.32 0 2.41 1.03 2.5 2.35.46-.23 1-.35 1.5-.35a3.5 3.5 0 0 1 3.5 3.5 3.5 3.5 0 0 1 -3.5 3.5c-.96 0-1.87-.39-2.54-1.09-.2 1.21-1.24 2.09-2.46 2.09a2.5 2.5 0 0 1 -2.5-2.5c0-1.38.8-1.96 2-2.71-.8-1.03-1-1.63-1-2.29a2.5 2.5 0 0 1 2.5-2.5z"/></svg>