<svg height="24" viewBox="0 0 24 24" width="24" xmlns="http://www.w3.org/2000/svg"><path d="m.75 7.5h9.75l.75 1.5h-9.75zm1 3h9.75l.75 1.5h-9.75zm16.25 8c.83 0 1.5-.67 1.5-1.5s-.67-1.5-1.5-1.5-1.5.67-1.5 1.5.67 1.5 1.5 1.5m1.5-9h-2.5v2.5h4.46zm-11.5 9c.83 0 1.5-.67 1.5-1.5s-.67-1.5-1.5-1.5-1.5.67-1.5 1.5.67 1.5 1.5 1.5m12-10.5 3 4v5h-2c0 1.66-1.34 3-3 3s-3-1.34-3-3h-4c0 1.66-1.35 3-3 3-1.66 0-3-1.34-3-3h-2v-3.5h2v1.5h.76c.55-.61 1.35-1 2.24-1s1.69.39 2.24 1h4.76v-9h-12c0-1.11.89-2 2-2h12v4z"/></svg>