<svg height="24" viewBox="0 0 24 24" width="24" xmlns="http://www.w3.org/2000/svg"><path d="m22.11 21.46-19.72-19.73-1.28 1.27 2.89 2.89v14.11c0 1.11.89 2 2 2h12c.58 0 1.1-.25 1.46-.65l1.38 1.38zm-10.11-1.46c-3.31 0-6-2.69-6-6 0-1.68.7-3.2 1.82-4.29l.79.79h-.5c-.26 1.79.21 3.14 1.31 4.21.58.62.82 1.41.58 2.79h1.89c.27-1.79-.21-3.14-1.31-4.21-.36-.38-.58-.85-.63-1.45l4.08 4.08c.08.43.08.94-.03 1.58h1.61l.68.68c-1.09 1.12-2.6 1.82-4.29 1.82m-.75-11.95c.25-.05.5-.05.75-.05 3.31 0 6 2.69 6 6 0 .25 0 .5-.05.75l2.05 2.05v-12.8c0-1.1-.89-2-2-2h-12c-.24 0-.46.05-.67.13zm-1.25-4.05c.55 0 1 .45 1 1s-.45 1-1 1-1-.45-1-1 .45-1 1-1z"/></svg>