<svg height="24" viewBox="0 0 24 24" width="24" xmlns="http://www.w3.org/2000/svg"><path d="m4 2h12c1.11 0 2 .9 2 2v16c0 1.11-.89 2-2 2h-12c-1.1 0-2-.89-2-2v-16c0-1.1.9-2 2-2m1 2c-.55 0-1 .45-1 1s.45 1 1 1 1-.45 1-1-.45-1-1-1m3 0c-.55 0-1 .45-1 1s.45 1 1 1 1-.45 1-1-.45-1-1-1m2 4c-3.31 0-6 2.69-6 6s2.69 6 6 6 6-2.69 6-6-2.69-6-6-6m-3.89 2.5h1.89c-.24 1.38 0 2.17.58 2.79 1.1 1.07 1.58 2.42 1.31 4.21h-1.89c.24-1.38 0-2.17-.58-2.79-1.1-1.07-1.57-2.42-1.31-4.21m4 0h1.89c-.24 1.38 0 2.17.58 2.79 1.1 1.07 1.58 2.42 1.31 4.21h-1.89c.24-1.38 0-2.17-.58-2.79-1.1-1.07-1.57-2.42-1.31-4.21m9.89 4.5h2v2h-2zm0-8h2v6h-2z"/></svg>