<svg height="24" viewBox="0 0 24 24" width="24" xmlns="http://www.w3.org/2000/svg"><path d="m8.47 5.95c.48-.28 1-.51 1.53-.67v-1.28c0-1.1.87-2 1.97-2.03 1.16.03 2.03.93 2.03 2.03v1.28c.53.17 1.05.39 1.53.67l-1.6 2.12h-3.86zm10.53 6.05c0 .5-.05.95-.14 1.4l-2.53-.78-1.19-3.66 1.6-2.11c.43.4.81.85 1.14 1.35.79-.07 1.55.05 2.23.39 1.03.53 1.73 1.54 1.89 2.69l-3 .36zm-14 0c0-.12 0-.24 0-.35l-3-.37c.16-1.15.86-2.16 1.89-2.69.68-.34 1.45-.46 2.19-.33.33-.51.71-.98 1.16-1.39l1.62 2.08-1.19 3.67-2.53.78c-.09-.45-.14-.9-.14-1.4m5.24-2.43h3.52l1.09 3.36-2.85 2.07-2.85-2.07zm-2.11 4.48 3.12 2.26v2.65c-.57-.06-1.12-.19-1.63-.38l-1.23 2.76c-1.06-.47-1.82-1.44-2.02-2.58-.14-.76-.02-1.52.32-2.2-.45-.52-.82-1.1-1.1-1.74zm7.74 0 2.54.77c-.28.64-.65 1.22-1.1 1.74.34.68.46 1.44.33 2.2-.21 1.14-.97 2.11-2.03 2.58l-1.22-2.76c-.53.19-1.06.36-1.64.42v-2.69z"/></svg>