<svg height="24" viewBox="0 0 24 24" width="24" xmlns="http://www.w3.org/2000/svg"><path d="m11.41 2c-6.2 0-8.88 5.53-8.88 5.53l.79.56s-.99 1.91-.97 4.31c0 4.94 3.94 9.6 9.72 9.6 5.26 0 9.6-4.29 9.6-9.59 0-6.91-5.36-10.41-10.26-10.41m.06 1.69c4.84 0 8.6 3.91 8.6 8.45 0 4.81-3.62 8.16-7.84 8.16-3.1 0-5.9-2.36-5.9-5.6 0-1.88.99-3.2 2.11-3.88l.16.18c-.3.24-1.17 1.64-1.17 3 0 2.56 2 4.33 4.52 4.33 3.21 0 5.35-2.74 5.35-5.92 0-3.7-3.27-6.84-7.2-6.84-2.17 0-4.01.93-5.07 1.76l-.17-.15c1.39-2.14 3.79-3.49 6.61-3.49m-1.47 3.54c2.53 0 4.97 1.66 5.59 4.02l-.23.08c-1.09-1.45-2.89-2.65-5.01-2.65-3.91 0-5.96 3.55-5.66 6.51l-.23.09s-.43-.95-.43-2.08c0-3.27 2.68-5.97 5.97-5.97m1.68 4.1c1.18 0 2.13.97 2.13 2.11 0 .94-.6 1.5-.6 1.5l.71.51s-.71 1.12-2.16 1.12c-1.39 0-2.63-1.13-2.63-2.64 0-1.55 1.34-2.6 2.55-2.6z"/></svg>