<svg height="24" viewBox="0 0 24 24" width="24" xmlns="http://www.w3.org/2000/svg"><path d="m22 12a10 10 0 0 1 -10 10 10 10 0 0 1 -10-10 10 10 0 0 1 10-10 10 10 0 0 1 10 10m-7.66-4.26c.58.33 1.31.13 1.66-.44.31-.57.12-1.3-.46-1.64-.57-.33-1.31-.16-1.64.44-.33.57-.13 1.31.44 1.64m-2.46 7.76c-.53 0-1.03-.11-1.47-.32l-.84 1.5c.7.32 1.48.54 2.31.54.49 0 .95-.07 1.4-.19.08-.49.36-.93.82-1.19.46-.27.98-.29 1.44-.12.89-.87 1.46-2.06 1.55-3.39l-1.71-.02c-.16 1.79-1.66 3.19-3.5 3.19m0-7c1.84 0 3.34 1.39 3.5 3.19l1.71-.03c-.09-1.32-.66-2.51-1.55-3.38-.46.17-.99.14-1.44-.12-.46-.26-.74-.71-.82-1.19-.45-.12-.91-.19-1.4-.19-.83 0-1.61.19-2.31.54l.84 1.5c.44-.21.94-.32 1.47-.32m-3.51 3.5c0-1.19.59-2.24 1.49-2.87l-.86-1.48c-1.06.71-1.85 1.78-2.17 3.04.38.31.62.78.62 1.31s-.24 1-.62 1.31c.32 1.25 1.11 2.33 2.17 3.03l.86-1.47c-.9-.63-1.49-1.68-1.49-2.87m5.97 4.26c-.57.33-.77 1.06-.44 1.64.33.57 1.07.77 1.64.44.58-.34.77-1.07.46-1.64-.35-.58-1.08-.77-1.66-.44m-8.58-5.46c-.66 0-1.2.54-1.2 1.2s.54 1.2 1.2 1.2c.67 0 1.2-.54 1.2-1.2s-.53-1.2-1.2-1.2z"/></svg>