<svg height="24" viewBox="0 0 24 24" width="24" xmlns="http://www.w3.org/2000/svg"><path d="m2 12a10 10 0 0 0 10 10 10 10 0 0 0 10-10 10 10 0 0 0 -10-10 10 10 0 0 0 -10 10m3.24 6.76c-1.81-1.81-2.8-4.21-2.8-6.76s.99-4.95 2.8-6.76 4.21-2.8 6.76-2.8 4.95.99 6.76 2.8 2.8 4.21 2.8 6.76-.99 4.95-2.8 6.76-4.21 2.8-6.76 2.8-4.95-.99-6.76-2.8m1.11-9.26c-2.01 2.29-1.62 4.18-1.62 4.18s.55-1.3 1.88-2.68c.64-.63 1.11-.85 1.43-.85.36 0 .53.26.53.5v4.64c0 .46-.3.56-.57.55-.23 0-.45-.08-.45-.08 1.37 1.97 4.64 2.24 4.64 2.24l1.44-1.5h.04l1.33 1.13c2.39-1.42 3.55-4.05 3.55-4.05-1.05 1.12-1.76 1.39-2.16 1.38-.36 0-.51-.21-.51-.21-.01-.1-.06-5.85.01-5.85.42-.77 1.74-2.34 1.74-2.34-2.47.49-3.82 2.1-3.82 2.1-.4-.31-1.22-.26-1.22-.26.38.21.76.81.76 1.32v4.93s-.85.73-1.47.73c-.38 0-.61-.21-.74-.38-.09-.12-.14-.21-.14-.21v-6.1c-.07.06-.18.11-.29.11-.14-.01-.28-.07-.37-.27-.08-.15-.12-.38-.12-.7 0-1.13 1.28-1.87 1.28-1.87-1.63.43-3.14 1.26-5.15 3.54"/></svg>