<svg height="24" viewBox="0 0 24 24" width="24" xmlns="http://www.w3.org/2000/svg"><path d="m8 15c.55 0 1 .45 1 1s-.45 1-1 1-1-.45-1-1 .45-1 1-1m7.07-10.31 1.43 1.41-1.43 1.4-1.41-1.4zm2.83 2.81 1.41 1.43-1.41 1.41-1.4-1.41zm-9.9 5.5c-1.66 0-3 1.34-3 3s1.34 3 3 3 3-1.34 3-3-1.34-3-3-3m1.77-8.67.73.75 3.79-3.79c.18-.18.43-.29.71-.29s.53.11.71.29l7.07 7.07v.01c.14.17.22.39.22.63 0 .3-.13.57-.34.76l-3.73 3.74.74.73-6.72 6.72c-1.27 1.27-3.02 2.05-4.95 2.05-3.87 0-7-3.13-7-7 0-1.93.78-3.68 2.05-4.95zm10.82 4.67-5.59-5.59-3.07 3.09 5.57 5.58z"/></svg>