<svg height="24" viewBox="0 0 24 24" width="24" xmlns="http://www.w3.org/2000/svg"><path d="m18.5 2a1.5 1.5 0 0 1 1.5 1.5 1.5 1.5 0 0 1 -1.5 1.5c-.23 0-.45-.05-.65-.15l-3.69 3.7.34.45c2.19-1.26 4.76-2 7.5-2l1 .03v2.01l-1-.04c-2.58 0-5 .75-7 2.04a3.96 3.96 0 0 1 -3.96 3.96c-1.29 2-2.04 4.42-2.04 7l.04 1h-2.01l-.03-1c0-2.74.74-5.31 2-7.5l-.45-.34-3.7 3.69c.1.2.15.42.15.65a1.5 1.5 0 0 1 -1.5 1.5 1.5 1.5 0 0 1 -1.5-1.5 1.5 1.5 0 0 1 1.5-1.5c.23 0 .45.05.65.15l3.69-3.7c-.53-.67-.84-1.53-.84-2.45a4 4 0 0 1 4-4c.92 0 1.78.31 2.45.84l3.7-3.69c-.1-.2-.15-.42-.15-.65a1.5 1.5 0 0 1 1.5-1.5m-7.5 7a2 2 0 0 0 -2 2 2 2 0 0 0 2 2 2 2 0 0 0 2-2 2 2 0 0 0 -2-2z"/></svg>