<svg height="24" viewBox="0 0 24 24" width="24" xmlns="http://www.w3.org/2000/svg"><path d="m9 2v2.06c-2.28.86-4.08 2.66-4.95 4.94h-2.05v6h2.06c.86 2.28 2.66 4.09 4.94 4.95v2.05h6v-2.06c2.28-.86 4.09-2.66 4.95-4.94h2.05v-6h-2.06c-.86-2.28-2.66-4.08-4.94-4.95v-2.05m-4 2h2v2h-2m-2 .25v1.75h6v-1.75c1.18.61 2.14 1.57 2.75 2.75h-1.75v6h1.75c-.61 1.18-1.57 2.14-2.75 2.75v-1.75h-6v1.75c-1.18-.61-2.14-1.57-2.75-2.75h1.75v-6h-1.75c.61-1.18 1.57-2.14 2.75-2.75m-5 4.75h2v2h-2m14-2h2v2h-2m-7 5h2v2h-2"/></svg>