<svg height="24" viewBox="0 0 24 24" width="24" xmlns="http://www.w3.org/2000/svg"><path d="m3.14 1a2.14 2.14 0 0 0 -2.14 2.14v1.86h2v-2h2v-2zm3.86 0v2h3v-2zm5 0v2h2v2h2v-1.86c0-1.18-.96-2.14-2.14-2.14zm-11 6v3h2v-3zm8 0c-1.11 0-2 .89-2 2v7h6.86a2.14 2.14 0 0 0 2.14-2.14c0-2.29 0-6.86 0-6.86s-4.67 0-7 0m9 0v2h2v2h2v-2c0-1.11-.89-2-2-2zm-9 2h5v5h-5zm-8 3v1.86c0 1.18.96 2.14 2.14 2.14h1.86v-2h-2v-2zm19 1v3h2v-3zm-13 5v2c0 1.11.89 2 2 2h2v-2h-2v-2zm13 0v2h-2v2h2c1.11 0 2-.89 2-2v-2zm-7 2v2h3v-2z"/></svg>