<svg height="24" viewBox="0 0 24 24" width="24" xmlns="http://www.w3.org/2000/svg"><path d="m12 .5c-.97 0-1.75.78-1.75 1.75 0 .59.3 1.12.75 1.43v1.4c-.9.13-1.74.42-2.5.86l-1.11-1.59c.19-.52.14-1.12-.2-1.6-.35-.49-.89-.75-1.44-.75-.35 0-.7.1-1 .32-.79.55-.99 1.64-.43 2.43.34.49.88.75 1.43.75l1.18 1.68c-.43.43-.77.91-1.06 1.44-.2-.08-.41-.12-.62-.12-.45 0-.9.17-1.25.5-.67.7-.67 1.8 0 2.5.29.27.64.42 1 .5 0 .54.07 1.06.18 1.56l-1.31.35c-.31-.26-.71-.41-1.12-.41-.15 0-.31 0-.46.06-.93.25-1.481 1.21-1.23 2.15.21.79.94 1.29 1.69 1.29.15 0 .3 0 .46-.06.57-.16 1-.58 1.18-1.1l1.51-.41c.45.79 1.05 1.49 1.75 2.07l-1.1 2c-.55.08-1.05.39-1.34.92-.46.85-.14 1.91.71 2.37.26.14.55.21.83.21.62 0 1.22-.33 1.54-.92.28-.52.27-1.12.02-1.61l1.07-1.97c.81.32 1.69.5 2.62.5h.18c-.13.26-.18.56-.18.88.08.92.84 1.62 1.75 1.62h.13c.97-.08 1.69-.92 1.62-1.88-.04-.5-.29-.94-.65-1.23.47-.21.92-.48 1.34-.79l2.34 2.34c-.1.56.06 1.13.47 1.56.35.33.8.5 1.25.5s.9-.17 1.25-.5c.67-.7.67-1.8 0-2.5-.35-.33-.8-.5-1.25-.5-.1 0-.2 0-.31.03l-2.34-2.34c.49-.65.87-1.39 1.11-2.19h1.11c.31.45.84.75 1.43.75.97 0 1.75-.78 1.75-1.75s-.78-1.75-1.75-1.75c-.59 0-1.12.3-1.43.75h-.82c0-1.57-.5-3-1.4-4.19l1.34-1.34c.11.03.21.03.31.03.45 0 .9-.17 1.25-.5.67-.69.67-1.8 0-2.5-.35-.33-.8-.5-1.25-.5s-.9.17-1.25.5c-.41.43-.57 1-.47 1.56l-1.34 1.34c-.92-.69-2-1.15-3.19-1.32v-1.4c.45-.31.75-.84.75-1.43 0-.97-.78-1.75-1.75-1.75m0 16.5c-2.76 0-5-2.24-5-5s2.24-5 5-5 5 2.24 5 5-2.24 5-5 5m-1.5-8c-.83 0-1.5.67-1.5 1.5s.67 1.5 1.5 1.5 1.5-.67 1.5-1.5-.67-1.5-1.5-1.5m3.5 4c-.55 0-1 .45-1 1s.45 1 1 1 1-.45 1-1-.45-1-1-1z"/></svg>