<svg height="24" viewBox="0 0 24 24" width="24" xmlns="http://www.w3.org/2000/svg"><path d="m12 1c-.42 0-.81.23-1 .75l-1.12 3.13c.48.52 1.4.62 2.12.62s1.64-.1 2.13-.62l-1.13-3.13c-.18-.5-.58-.75-1-.75m-3.56 7.91-1.44 4c1.07 1.36 3.26 1.59 5 1.59s3.93-.23 5-1.59l-1.44-4c-.8.92-2.32 1.09-3.56 1.09s-2.76-.17-3.56-1.09m-3 6.09c-.82 0-1.68.65-1.91 1.44l-1.47 5.12c-.22.79.24 1.44 1.07 1.44h17.75c.82 0 1.28-.65 1.06-1.44l-1.47-5.12c-.23-.79-1.09-1.44-1.91-1.44h-.81l.34.97c.12.32.2.72 0 1-1.25 1.73-3.95 2.03-6.09 2.03s-4.84-.3-6.09-2.03c-.2-.28-.12-.68 0-1l.34-.97z"/></svg>