<svg height="24" viewBox="0 0 24 24" width="24" xmlns="http://www.w3.org/2000/svg"><path d="m12 2a10 10 0 0 1 10 10 10 10 0 0 1 -10 10 10 10 0 0 1 -10-10 10 10 0 0 1 10-10m1.6 18.35c2.36-2.31 4.09-5.27 4.9-8.59-.66-.14-1.32-.22-2-.26-.94 3.61-3.09 6.72-6 8.87.5.08 1 .13 1.5.13.55 0 1.08-.05 1.6-.15m-4.37-.31c3-1.97 5.27-4.99 6.23-8.54-.75.05-1.49.15-2.19.31-1.09 3.08-3.3 5.63-6.14 7.16.64.45 1.37.81 2.1 1.07m11.27-7.67c-.34-.14-.69-.26-1.04-.37-.7 2.9-2.07 5.53-3.92 7.73 2.82-1.29 4.81-4.09 4.96-7.36m-16.94-1.33c-.06.31-.06.64-.06.96 0 2.5 1.07 4.73 2.77 6.28.59-.28 1.14-.62 1.67-.99-1.86-1.75-3.36-3.88-4.38-6.25m1.77-4.3c-.6.76-1.07 1.61-1.38 2.54.97 2.85 2.63 5.38 4.79 7.39.51-.43.98-.9 1.41-1.41-2.41-2.23-4.15-5.18-4.82-8.52m2.71-2.24c-.68.35-1.31.8-1.86 1.32.53 3.39 2.19 6.41 4.59 8.65.4-.56.73-1.15 1.05-1.77-2.14-2.14-3.54-5.01-3.78-8.2m11.92 4.53c-1.26-.35-2.59-.53-3.96-.53-1.9 0-3.72.35-5.39 1 .35.6.74 1.17 1.19 1.7 1.32-.45 2.73-.7 4.2-.7 1.57 0 3.08.28 4.47.79-.07-.79-.24-1.55-.51-2.26m-2.42-3.46c-.51-.07-1.04-.07-1.54-.07-2.31 0-4.53.44-6.56 1.23.18.65.42 1.27.7 1.88 1.82-.72 3.79-1.11 5.86-1.11 1.18 0 2.32.13 3.42.37-.49-.87-1.13-1.66-1.88-2.3m-1.54-1.07c-1.21-.63-2.56-1-4-1-1.05 0-2.06.2-3 .55.04.58.11 1.15.21 1.7 2.1-.8 4.39-1.25 6.79-1.25z"/></svg>