<svg height="24" viewBox="0 0 24 24" width="24" xmlns="http://www.w3.org/2000/svg"><path d="m9 5h6l-3 3zm1.5 9.66c-.3.34-.5.84-.5 1.34a2 2 0 0 0 2 2 2 2 0 0 0 2-2c0-.55-.22-1.05-.59-1.41l1.42-1.42c.72.73 1.17 1.73 1.17 2.83a4 4 0 0 1 -4 4 4 4 0 0 1 -4-4c0-1.07.42-2.04 1.1-2.75l-.01-.01 7.08-7.07c.72-.72 1.72-1.17 2.83-1.17a4 4 0 0 1 4 4 4 4 0 0 1 -4 4c-1.1 0-2.1-.45-2.83-1.17l1.42-1.42c.36.37.86.59 1.41.59a2 2 0 0 0 2-2 2 2 0 0 0 -2-2c-.55 0-1.05.22-1.41.59zm-4.09-7.07c-.36-.37-.86-.59-1.41-.59a2 2 0 0 0 -2 2 2 2 0 0 0 2 2c.55 0 1.05-.22 1.41-.59l1.42 1.42c-.73.72-1.73 1.17-2.83 1.17a4 4 0 0 1 -4-4 4 4 0 0 1 4-4c1.11 0 2.11.45 2.83 1.17l2.76 2.76-1.42 1.42z"/></svg>