<svg height="24" viewBox="0 0 24 24" width="24" xmlns="http://www.w3.org/2000/svg"><path d="m20 14h-16v-6h5.08l-2.08 2.83 1.62 1.17 2.38-3.24 1-1.36 1 1.36 2.38 3.24 1.62-1.17-2.08-2.83h5.08m0 11h-16v-2h16m-11-13a1 1 0 0 1 1 1 1 1 0 0 1 -1 1 1 1 0 0 1 -1-1 1 1 0 0 1 1-1m6 0a1 1 0 0 1 1 1 1 1 0 0 1 -1 1 1 1 0 0 1 -1-1 1 1 0 0 1 1-1m5 2h-2.18c.11-.31.18-.65.18-1a3 3 0 0 0 -3-3c-1.05 0-1.96.54-2.5 1.35l-.5.65-.5-.66c-.54-.8-1.45-1.34-2.5-1.34a3 3 0 0 0 -3 3c0 .35.07.69.18 1h-2.18c-1.11 0-2 .89-2 2v11c0 1.11.89 2 2 2h16c1.11 0 2-.89 2-2v-11c0-1.11-.89-2-2-2z"/></svg>