<svg height="24" viewBox="0 0 24 24" width="24" xmlns="http://www.w3.org/2000/svg"><path d="m0 9h2v6h-2zm12-1.5c2.47 0 4.47 2.03 4.46 4.5-.01.38-.06.76-.16 1.13l1.2 1.18c.31-.73.5-1.51.5-2.31 0-1.83-.84-3.56-2.28-4.69l-.72-4.31h-6l-.41 2.39 2.27 2.27c.37-.11.75-.16 1.14-.16m9 9.5v-10h-2v8.8l1.2 1.2zm-4.5-1.14 5.61 5.6-1.27 1.27-5.29-5.29-.55 3.56h-6l-.73-4.28c-2.42-1.9-3-5.32-1.36-7.92l-5.8-5.8 1.28-1.27 5.7 5.71 1.08 1.06 6.27 6.29zm-2.45.08-6-6c-.35.63-.55 1.34-.55 2.06 0 2.47 2.03 4.47 4.5 4.46.72 0 1.42-.18 2.05-.52m7.95-6.94v6h2v-6zm-19 8h2v-10h-2z"/></svg>