<svg height="24" viewBox="0 0 24 24" width="24" xmlns="http://www.w3.org/2000/svg"><path d="m20 12h2v2h-2c-1.38 0-2.74-.35-4-1-2.5 1.3-5.5 1.3-8 0-1.26.65-2.63 1-4 1h-2v-2h2c1.39 0 2.78-.47 4-1.33 2.44 1.71 5.56 1.71 8 0 1.22.86 2.61 1.33 4 1.33m0-6h2v2h-2c-1.38 0-2.74-.35-4-1-2.5 1.3-5.5 1.3-8 0-1.26.65-2.63 1-4 1h-2v-2h2c1.39 0 2.78-.47 4-1.33 2.44 1.71 5.56 1.71 8 0 1.22.86 2.61 1.33 4 1.33m0 12h2v2h-2c-1.38 0-2.74-.35-4-1-2.5 1.3-5.5 1.3-8 0-1.26.65-2.63 1-4 1h-2v-2h2c1.39 0 2.78-.47 4-1.33 2.44 1.71 5.56 1.71 8 0 1.22.86 2.61 1.33 4 1.33z"/></svg>