<svg height="24" viewBox="0 0 24 24" width="24" xmlns="http://www.w3.org/2000/svg"><path d="m20.54 6.63c.69.94 1.15 2.04 1.35 3.19.21 1.25.11 2.52-.31 3.72-.4 1.17-1.08 2.22-2 3.06-.67.64-1.43 1.17-2.26 1.58.41 1.07-.13 2.27-1.2 2.68-.24.09-.49.14-.74.14-1.11 0-2.03-.89-2.07-2-.26 0-2.58 0-3.07 0-.11 1.14-1.13 2-2.27 1.87-1.06-.1-1.86-.98-1.88-2.04.01-.19.04-.39.1-.57-1.59-.53-2.98-1.52-4-2.85-.33-.44-.23-1.07.23-1.41.18-.14.4-.22.63-.22.72 0 1-.25 1.17-.63.24-.72.38-1.47.39-2.23.03-.53.09-1.05.17-1.57.35-1.73 1.32-3.28 2.72-4.35 1.66-1.3 3.69-2 5.79-2 1.43 0 2.84.35 4.11 1 1.24.62 2.31 1.5 3.14 2.63m-3.82 10.68c1.78-.81 3.18-2.27 3.87-4.1 1.62-4.94-2.59-9.16-7.3-9.16-.35 0-.71.02-1.06.07-2.87.38-5.83 2.38-6.42 5.38-.38 2 .19 5.29-2.76 5.29.95 1.21 2.27 2.14 3.76 2.58.85-.76 2.16-.68 2.93.18.11.12.2.25.26.39h3.55c.52-1.02 1.78-1.44 2.8-.9.15.08.25.17.37.27m-5.75-7c-.58.03-1.09-.41-1.12-1-.03-.58.42-1.08 1-1.12.58-.03 1.09.42 1.12 1.06.03.55-.41 1.02-.97 1.04zm4.69 0c-.58.03-1.09-.41-1.12-1-.04-.58.42-1.08 1-1.12.58-.03 1.09.42 1.12 1.06.02.55-.41 1.02-1 1.04zm-5.95 1.76c-.06-.28.13-.57.41-.62s.56.13.62.41c.35 1.11 1.42 1.83 2.58 1.74 1.14.06 2.18-.64 2.57-1.72.14-.26.46-.38.71-.23.18.1.29.27.29.47-.19.71-.63 1.33-1.23 1.76-.69.48-1.5.75-2.34.76h-.11c-1.63.07-3.1-1-3.53-2.58z"/></svg>