<svg height="24" viewBox="0 0 24 24" width="24" xmlns="http://www.w3.org/2000/svg"><path d="m3 15h10a1 1 0 0 1 1 1 1 1 0 0 1 -1 1h-10a1 1 0 0 1 -1-1 1 1 0 0 1 1-1m13 0h5a1 1 0 0 1 1 1 1 1 0 0 1 -1 1h-5a1 1 0 0 1 -1-1 1 1 0 0 1 1-1m-15-3a5 5 0 0 1 5-5c1-2.35 3.3-4 6-4 3.43 0 6.24 2.66 6.5 6.03l.5-.03c2.19 0 3.97 1.76 4 4h-2a2 2 0 0 0 -2-2h-2v-1a5 5 0 0 0 -5-5c-2.5 0-4.55 1.82-4.94 4.19-.33-.12-.69-.19-1.06-.19a3 3 0 0 0 -3 3c0 .35.06.69.17 1h-2.07zm2 7h2a1 1 0 0 1 1 1 1 1 0 0 1 -1 1h-2a1 1 0 0 1 -1-1 1 1 0 0 1 1-1m5 0h13a1 1 0 0 1 1 1 1 1 0 0 1 -1 1h-13a1 1 0 0 1 -1-1 1 1 0 0 1 1-1z"/></svg>