<svg height="24" viewBox="0 0 24 24" width="24" xmlns="http://www.w3.org/2000/svg"><path d="m12 2 2.39 3.42c-.74-.27-1.55-.42-2.39-.42s-1.65.15-2.39.42zm-8.66 5 4.16-.35c-.6.51-1.14 1.13-1.56 1.85-.44.74-.69 1.5-.83 2.29zm17.31 0-1.77 3.79c-.14-.79-.41-1.56-.83-2.29-.42-.72-.95-1.35-1.55-1.86m-2.5 8.36a1 1 0 0 0 -1-1h-10a1 1 0 0 0 -1 1 1 1 0 0 0 1 1h10a1 1 0 0 0 1-1m8 0a1 1 0 0 0 -1-1h-4a1 1 0 0 0 -1 1 1 1 0 0 0 1 1h4a1 1 0 0 0 1-1m-12 4a1 1 0 0 0 1 1h9a1 1 0 0 0 1-1 1 1 0 0 0 -1-1h-9a1 1 0 0 0 -1 1m-7 0a1 1 0 0 0 1 1h3a1 1 0 0 0 1-1 1 1 0 0 0 -1-1h-3a1 1 0 0 0 -1 1m9-10a3 3 0 0 1 3 3h2a5 5 0 0 0 -5-5 5 5 0 0 0 -5 5h2a3 3 0 0 1 3-3z"/></svg>