<svg height="24" viewBox="0 0 24 24" width="24" xmlns="http://www.w3.org/2000/svg"><path d="m12 7a5 5 0 0 0 -5 5 5 5 0 0 0 5 5 5 5 0 0 0 5-5 5 5 0 0 0 -5-5m0 8a3 3 0 0 1 -3-3 3 3 0 0 1 3-3 3 3 0 0 1 3 3 3 3 0 0 1 -3 3m0-13 2.39 3.42c-.74-.27-1.55-.42-2.39-.42s-1.65.15-2.39.42zm-8.66 5 4.16-.35c-.6.51-1.14 1.13-1.56 1.85-.44.74-.69 1.5-.83 2.29zm.02 10 1.76-3.77c.14.77.41 1.55.83 2.27.42.74.96 1.36 1.55 1.87zm8.64 5-2.41-3.44c.74.27 1.55.44 2.41.44.82 0 1.63-.17 2.37-.44m4.63-5.56v-6h2v6zm0 4v-2h2v2"/></svg>