<svg height="24" viewBox="0 0 24 24" width="24" xmlns="http://www.w3.org/2000/svg"><path d="m9 12c.53.14.85.69.71 1.22l-1.3 4.83c-.14.54-.69.85-1.22.71-.54-.14-.85-.69-.69-1.22l1.28-4.83c.14-.54.69-.85 1.22-.71m4 0c.53.14.85.69.71 1.22l-2.07 7.73c-.14.55-.69.85-1.23.71-.53-.16-.85-.69-.71-1.23l2.08-7.72c.14-.54.69-.85 1.22-.71m4 0c.53.14.85.69.71 1.22l-1.3 4.83c-.14.54-.69.85-1.22.71-.54-.14-.85-.69-.69-1.22l1.28-4.83c.14-.54.69-.85 1.22-.71m0-2v-1a5 5 0 0 0 -5-5c-2.5 0-4.55 1.82-4.94 4.19-.33-.12-.69-.19-1.06-.19a3 3 0 0 0 -3 3c0 1.11.6 2.08 1.5 2.6v-.01c.5.28.64.91.37 1.37-.28.47-.87.64-1.37.36v.01c-1.5-.86-2.5-2.48-2.5-4.33a5 5 0 0 1 5-5c1-2.35 3.3-4 6-4 3.43 0 6.24 2.66 6.5 6.03l.5-.03a4 4 0 0 1 4 4c0 1.5-.8 2.77-2 3.46-.5.27-1.09.11-1.37-.37-.27-.48-.13-1.09.37-1.37v.01c.6-.34 1-.99 1-1.73a2 2 0 0 0 -2-2z"/></svg>