<svg height="24" viewBox="0 0 24 24" width="24" xmlns="http://www.w3.org/2000/svg"><path d="m18.5 18.67c0 1.29-1 2.33-2.25 2.33s-2.25-1.04-2.25-2.33c0-1.55 2.25-4.17 2.25-4.17s2.25 2.62 2.25 4.17m-14.5-1.31c-.14-.54.18-1.11.73-1.25l2.27-.61-1.67-1.64c-.4-.4-.4-1.05 0-1.46.4-.4 1.07-.4 1.46 0l1.66 1.65.59-2.25c.14-.56.71-.88 1.25-.73.56.14.88.71.71 1.26l-.58 2.25 2.25-.58c.55-.17 1.12.15 1.26.71.15.54-.17 1.11-.73 1.25l-2.25.59 1.65 1.66c.4.39.4 1.06 0 1.46s-1.06.4-1.45 0l-1.65-1.67-.61 2.27c-.14.56-.71.87-1.25.73-.56-.14-.87-.71-.73-1.26l.59-2.24-2.24.59c-.55.14-1.12-.17-1.26-.73m-3-6.36a5 5 0 0 1 5-5c1-2.35 3.3-4 6-4 3.43 0 6.24 2.66 6.5 6.03l.5-.03a4 4 0 0 1 4 4 4 4 0 0 1 -4 4 1 1 0 0 1 -1-1 1 1 0 0 1 1-1 2 2 0 0 0 2-2 2 2 0 0 0 -2-2h-2v-1a5 5 0 0 0 -5-5c-2.5 0-4.55 1.82-4.94 4.19-.33-.12-.69-.19-1.06-.19a3 3 0 0 0 -3 3c0 .85.35 1.61.91 2.16.36.39.35 1-.03 1.38-.38.39-1.03.39-1.41 0-.91-.91-1.47-2.16-1.47-3.54z"/></svg>