<svg height="24" viewBox="0 0 24 24" width="24" xmlns="http://www.w3.org/2000/svg"><path d="m12.75 4.47c2.35 1.03 3.6 3.56 3.17 5.99 1.27 1.1 2.08 2.73 2.08 4.54v.17c.31-.11.65-.17 1-.17a3 3 0 0 1 3 3 3 3 0 0 1 -3 3h-2s-1 0-1-1 1-1 1-1h2a1 1 0 0 0 1-1 1 1 0 0 0 -1-1h-3v-2a4 4 0 0 0 -4-4 4 4 0 0 0 -4 4h-2a2 2 0 0 0 -2 2 2 2 0 0 0 2 2h1s1 0 1 1-1 1-1 1h-1a4 4 0 0 1 -4-4 4 4 0 0 1 4-4h.27c-1.27-1.55-1.67-3.76-.77-5.75 1.22-2.75 4.47-4.01 7.25-2.78m-.82 1.83c-1.77-.8-3.84.01-4.62 1.77-.46 1.02-.38 2.15.1 3.06 1.09-1.3 2.75-2.13 4.59-2.13.7 0 1.38.12 2 .34-.06-1.28-.82-2.48-2.07-3.04m1.62-3.67c-.55-.23-1.1-.4-1.67-.51l2.49-1.3.9 2.89c-.51-.42-1.08-.78-1.72-1.08m-7.46.81c-.49.35-.92.75-1.29 1.19l.11-2.81 2.96.68c-.62.21-1.22.53-1.78.94m11.91 5.27c-.09-.59-.22-1.16-.41-1.71l2.38 1.5-2.05 2.23c.11-.65.13-1.33.08-2.02m-14.96 1.59c.07.6.21 1.17.39 1.7l-2.37-1.5 2.04-2.22c-.1.65-.13 1.33-.06 2.02m8.96 8.61c.59.91 1 1.72 1 2.09a1 1 0 0 1 -1 1 1 1 0 0 1 -1-1c0-.37.41-1.18 1-2.09m0-3.29s-3 3.38-3 5.38a3 3 0 0 0 3 3 3 3 0 0 0 3-3c0-2-3-5.38-3-5.38z"/></svg>