<svg height="24" viewBox="0 0 24 24" width="24" xmlns="http://www.w3.org/2000/svg"><path d="m13.55 2.66c-.55-.24-1.1-.4-1.67-.51l2.49-1.31.9 2.89c-.51-.42-1.08-.78-1.72-1.07m-7.46.8c-.49.35-.92.75-1.29 1.2l.11-2.82 2.96.69c-.62.2-1.22.52-1.78.93m11.91 5.27c-.09-.58-.22-1.16-.41-1.7l2.38 1.5-2.05 2.23c.11-.66.13-1.34.08-2.03m-14.96 1.59c.07.6.21 1.18.39 1.71l-2.37-1.5 2.04-2.23c-.1.65-.13 1.34-.06 2.02m13.64 11.89c0 .99-.77 1.79-1.73 1.79-.95 0-1.72-.8-1.72-1.79 0-1.18 1.72-3.18 1.72-3.18s1.73 2 1.73 3.18m-10.65-.76c-.1-.38.12-.77.51-.87l1.59-.43-1.17-1.15c-.28-.28-.28-.73 0-1 .27-.3.74-.3 1.04 0l1.14 1.14.41-1.58c.1-.39.5-.62.88-.51.39.1.62.5.5.88l-.43 1.57 1.6-.4c.4-.1.78.11.9.5.08.37-.14.77-.53.87l-1.58.42 1.16 1.16c.28.27.28.74 0 1.02s-.74.28-1.02 0l-1.16-1.17-.42 1.6c-.1.38-.5.6-.88.5-.39-.1-.6-.5-.51-.88l.44-1.57-1.59.41c-.41.1-.78-.12-.88-.51m12.97-6.42c-.35 0-.69.05-1 .16v-.16c0-1.82-.81-3.45-2.08-4.53.43-2.45-.82-4.97-3.17-6-2.78-1.23-6.03.03-7.25 2.78-.9 1.99-.5 4.19.77 5.75h-.27c-2.21 0-4 1.78-4 4 0 1.14.5 2.17 1.27 2.9s.7.71 1.41 0 0-1.43 0-1.43c-.41-.35-.68-.88-.68-1.47 0-1.11.9-2 2-2h2c0-2.22 1.79-4 4-4a4 4 0 0 1 4 4v2h3a1 1 0 0 1 1 1c0 .54-.45 1-1 1h-1s-1 0-1 1 1 1 1 1h1a3 3 0 0 0 3-3c0-1.66-1.34-3-3-3m-7-6c-1.84 0-3.5.82-4.59 2.13-.48-.91-.56-2.05-.1-3.07.78-1.76 2.85-2.56 4.62-1.77 1.25.57 2.01 1.76 2.07 3.05-.62-.22-1.3-.34-2-.34z"/></svg>