<svg height="24" viewBox="0 0 24 24" width="24" xmlns="http://www.w3.org/2000/svg"><path d="m12.74 5.47c2.36 1.03 3.61 3.56 3.18 5.99 1.27 1.1 2.08 2.73 2.08 4.54v.17c.31-.11.65-.17 1-.17a3 3 0 0 1 3 3 3 3 0 0 1 -3 3h-13a4 4 0 0 1 -4-4 4 4 0 0 1 4-4h.27c-1.27-1.55-1.67-3.76-.77-5.74 1.22-2.76 4.47-4.02 7.24-2.79m-.81 1.83c-1.77-.8-3.84.01-4.62 1.77-.46 1.02-.38 2.15.1 3.06 1.09-1.3 2.75-2.13 4.59-2.13.7 0 1.38.12 2 .34-.06-1.28-.82-2.48-2.07-3.04m1.62-3.66c-.55-.24-1.1-.41-1.67-.52l2.49-1.3.9 2.89c-.51-.42-1.08-.78-1.72-1.07m-7.46.8c-.49.35-.92.75-1.29 1.19l.11-2.81 2.96.68c-.62.21-1.22.53-1.78.94m11.91 5.27c-.09-.59-.22-1.16-.41-1.71l2.38 1.5-2.05 2.23c.11-.65.13-1.33.08-2.02m-14.96 1.59c.07.6.2 1.17.39 1.7l-2.37-1.5 2.04-2.22c-.1.65-.13 1.33-.06 2.02m15.96 6.7h-3v-2a4 4 0 0 0 -4-4 4 4 0 0 0 -4 4h-2a2 2 0 0 0 -2 2 2 2 0 0 0 2 2h13a1 1 0 0 0 1-1 1 1 0 0 0 -1-1z"/></svg>