<svg height="24" viewBox="0 0 24 24" width="24" xmlns="http://www.w3.org/2000/svg"><path d="m6 14a1 1 0 0 1 1 1 1 1 0 0 1 -1 1 5 5 0 0 1 -5-5 5 5 0 0 1 5-5c1-2.35 3.3-4 6-4 3.43 0 6.24 2.66 6.5 6.03l.5-.03a4 4 0 0 1 4 4 4 4 0 0 1 -4 4h-1a1 1 0 0 1 -1-1 1 1 0 0 1 1-1h1a2 2 0 0 0 2-2 2 2 0 0 0 -2-2h-2v-1a5 5 0 0 0 -5-5c-2.5 0-4.55 1.82-4.94 4.19-.33-.12-.69-.19-1.06-.19a3 3 0 0 0 -3 3 3 3 0 0 0 3 3m1.88 4.07 2.19-.57-1.61-1.62c-.39-.38-.39-1.02 0-1.42.39-.39 1.04-.39 1.42 0l1.62 1.61.57-2.19c.14-.54.69-.85 1.22-.71.54.14.85.69.71 1.23l-.59 2.19 2.19-.59c.54-.14 1.09.17 1.23.71.14.53-.17 1.08-.71 1.22l-2.19.57 1.61 1.62c.39.38.39 1.03 0 1.42s-1.04.39-1.42 0l-1.62-1.61-.57 2.19c-.14.54-.69.85-1.22.71-.54-.14-.85-.69-.71-1.23l.59-2.19-2.19.59c-.54.14-1.09-.17-1.23-.71-.14-.53.17-1.08.71-1.22z"/></svg>