<svg height="24" viewBox="0 0 24 24" width="24" xmlns="http://www.w3.org/2000/svg"><path d="m4 10a1 1 0 0 1 -1-1 1 1 0 0 1 1-1h8a2 2 0 0 0 2-2 2 2 0 0 0 -2-2c-.55 0-1.05.22-1.41.59-.39.41-1.03.41-1.42 0-.39-.39-.39-1.03 0-1.42.73-.72 1.73-1.17 2.83-1.17a4 4 0 0 1 4 4 4 4 0 0 1 -4 4zm15 2a1 1 0 0 0 1-1 1 1 0 0 0 -1-1c-.28 0-.53.11-.71.29-.39.39-1.02.39-1.41 0-.38-.39-.38-1.02 0-1.41.54-.54 1.29-.88 2.12-.88a3 3 0 0 1 3 3 3 3 0 0 1 -3 3h-14a1 1 0 0 1 -1-1 1 1 0 0 1 1-1zm-1 6h-14a1 1 0 0 1 -1-1 1 1 0 0 1 1-1h14a3 3 0 0 1 3 3 3 3 0 0 1 -3 3c-.83 0-1.58-.34-2.12-.88-.38-.39-.38-1.02 0-1.41.39-.39 1.02-.39 1.41 0 .18.18.43.29.71.29a1 1 0 0 0 1-1 1 1 0 0 0 -1-1z"/></svg>