<svg height="24" viewBox="0 0 24 24" width="24" xmlns="http://www.w3.org/2000/svg"><path d="m22 10.28c-.26.02-.5.03-.74.03-1.94 0-3.87-.74-5.35-2.22-1.66-1.65-2.41-3.9-2.19-6.09.05-.47-.5-1-1.01-1-.14 0-.27.04-.39.12-.32.24-.66.52-.96.82-2.31 2.3-2.81 5.72-1.52 8.52-1.53.65-2.71 1.97-3.15 3.6l-.69-.06a4 4 0 0 0 -4 4 4 4 0 0 0 4 4h13a3 3 0 0 0 3-3 3 3 0 0 0 -3-3c-.58 0-1.12.16-1.58.45l.08-.95c0-.22 0-.45-.04-.67 1.68-.16 3.31-.89 4.6-2.19.32-.3.58-.64.82-.96.39-.55-.23-1.4-.84-1.4m-3.04 7.72a1 1 0 0 1 1 1 1 1 0 0 1 -1 1h-13a2 2 0 0 1 -2-2 2 2 0 0 1 2-2h2.5v-.5c0-1.56 1.03-2.86 2.44-3.32.16-.05.32-.09.49-.12.18-.03.37-.06.57-.06.23 0 .45.03.66.07.07.01.14.03.21.06.13.03.28.07.41.12.08.03.16.07.22.11.13.05.24.11.34.18.08.05.16.1.23.16.1.07.18.14.27.22.07.08.16.13.21.2.08.08.14.17.21.25.06.08.13.16.18.25.06.09.1.18.15.28s.11.18.15.28c.17.41.26.85.26 1.32v2.5m1.33-5.14c-.93-1.7-2.75-2.86-4.83-2.86h-.13c-.46-.81-.73-1.74-.73-2.71 0-.98.25-1.92.72-2.74.35 1.86 1.26 3.59 2.64 4.95 1.36 1.38 3.08 2.29 4.95 2.64-.79.46-1.69.7-2.62.72z"/></svg>