<svg height="24" viewBox="0 0 24 24" width="24" xmlns="http://www.w3.org/2000/svg"><path d="m4.5 13.59c.5.28.64.91.37 1.37-.28.48-.87.64-1.37.37-1.5-.86-2.5-2.48-2.5-4.33a5 5 0 0 1 5-5c1-2.35 3.3-4 6-4 3.43 0 6.24 2.66 6.5 6.03l.5-.03a4 4 0 0 1 4 4 4 4 0 0 1 -4 4 1 1 0 0 1 -1-1 1 1 0 0 1 1-1 2 2 0 0 0 2-2 2 2 0 0 0 -2-2h-2v-1a5 5 0 0 0 -5-5c-2.5 0-4.55 1.82-4.94 4.19-.33-.12-.69-.19-1.06-.19a3 3 0 0 0 -3 3c0 1.11.6 2.08 1.5 2.6zm5-2.59h3l-2 4h2l-3.75 7 .75-5h-2.5zm8 7.67c0 1.29-1 2.33-2.25 2.33s-2.25-1.04-2.25-2.33c0-1.55 2.25-4.17 2.25-4.17s2.25 2.62 2.25 4.17z"/></svg>