<svg height="24" viewBox="0 0 24 24" width="24" xmlns="http://www.w3.org/2000/svg"><path d="m3 12h4a5 5 0 0 1 5-5 5 5 0 0 1 5 5h4a1 1 0 0 1 1 1 1 1 0 0 1 -1 1h-18a1 1 0 0 1 -1-1 1 1 0 0 1 1-1m12 0a3 3 0 0 0 -3-3 3 3 0 0 0 -3 3zm-3-10 2.39 3.42c-.74-.27-1.55-.42-2.39-.42s-1.65.15-2.39.42zm-8.66 5 4.16-.35c-.6.51-1.14 1.13-1.56 1.85-.44.74-.69 1.5-.83 2.29zm17.31 0-1.77 3.79c-.14-.79-.41-1.56-.83-2.29-.42-.72-.95-1.35-1.55-1.86zm-7.94 13.71 3.11-3.11c.39-.39.39-1.03 0-1.42s-1.02-.39-1.41 0l-2.41 2.41-2.41-2.41c-.39-.39-1.02-.39-1.41 0s-.39 1.03 0 1.42l3.11 3.11c.21.19.45.29.71.29s.5-.1.71-.29z"/></svg>