<svg height="24" viewBox="0 0 24 24" width="24" xmlns="http://www.w3.org/2000/svg"><path d="m12 7a5 5 0 0 1 5 5 5 5 0 0 1 -5 5 5 5 0 0 1 -5-5 5 5 0 0 1 5-5m0 2a3 3 0 0 0 -3 3 3 3 0 0 0 3 3 3 3 0 0 0 3-3 3 3 0 0 0 -3-3m0-7 2.39 3.42c-.74-.27-1.55-.42-2.39-.42s-1.65.15-2.39.42zm-8.66 5 4.16-.35c-.6.51-1.14 1.13-1.56 1.85-.44.74-.69 1.5-.83 2.29zm.02 10 1.76-3.77c.14.77.41 1.55.83 2.27.42.74.96 1.36 1.55 1.87zm17.29-10-1.77 3.79c-.14-.79-.41-1.56-.83-2.29-.42-.72-.95-1.35-1.55-1.86zm-.01 10-4.14.36c.59-.51 1.12-1.14 1.54-1.86.42-.73.69-1.5.83-2.29zm-8.64 5-2.41-3.44c.74.27 1.55.44 2.41.44.82 0 1.63-.17 2.37-.44z"/></svg>