<svg height="24" viewBox="0 0 24 24" width="24" xmlns="http://www.w3.org/2000/svg"><path d="m6 6 .69.06c.63-2.34 2.77-4.06 5.31-4.06a5.5 5.5 0 0 1 5.5 5.5l-.08.95c.46-.29 1-.45 1.58-.45a3 3 0 0 1 3 3 3 3 0 0 1 -3 3h-13a4 4 0 0 1 -4-4 4 4 0 0 1 4-4m0 2a2 2 0 0 0 -2 2 2 2 0 0 0 2 2h13a1 1 0 0 0 1-1 1 1 0 0 0 -1-1h-3.5v-2.5a3.5 3.5 0 0 0 -3.5-3.5 3.5 3.5 0 0 0 -3.5 3.5v.5zm12 10h-14a1 1 0 0 1 -1-1 1 1 0 0 1 1-1h14a3 3 0 0 1 3 3 3 3 0 0 1 -3 3c-.83 0-1.58-.34-2.12-.88-.38-.39-.38-1.02 0-1.41.39-.39 1.02-.39 1.41 0 .18.18.43.29.71.29a1 1 0 0 0 1-1 1 1 0 0 0 -1-1z"/></svg>