<svg height="24" viewBox="0 0 24 24" width="24" xmlns="http://www.w3.org/2000/svg"><path d="m8.95 13.4h-2.37a5.5 5.5 0 0 1 0-2.8h2.37a11.56 11.56 0 0 0 -.1 1.4 11.56 11.56 0 0 0 .1 1.4m-1.79-4.2h2.04a12.06 12.06 0 0 1 .98-2.49 5.55 5.55 0 0 0 -3.02 2.49m9.68 0a5.59 5.59 0 0 0 -3.03-2.49 10.95 10.95 0 0 1 .97 2.49m-2.78 8.37a9.5 9.5 0 0 0 1.34-2.77h-2.68a9.5 9.5 0 0 0 1.34 2.77m0-11.15a9.53 9.53 0 0 0 -1.34 2.78h2.68a9.53 9.53 0 0 0 -1.34-2.78m-4.84 8.38a5.61 5.61 0 0 0 3.02 2.49 12.06 12.06 0 0 1 -.98-2.49m11.8-9.8v14a2 2 0 0 1 -2 2h-14a2 2 0 0 1 -2-2v-14a2 2 0 0 1 2-2h14a2 2 0 0 1 2 2m-2 7a7 7 0 1 0 -7 7 7 7 0 0 0 7-7m-3.85 0a11.56 11.56 0 0 1 -.1 1.4h2.37a5.5 5.5 0 0 0 0-2.8h-2.37a11.56 11.56 0 0 1 .1 1.4m-1.34 5.29a5.62 5.62 0 0 0 3.03-2.49h-2.06a10.95 10.95 0 0 1 -.97 2.49m-3.45-6.69a8.81 8.81 0 0 0 0 2.8h3.28a10.3 10.3 0 0 0 .11-1.4 10.21 10.21 0 0 0 -.11-1.4z"/></svg>