<svg height="24" viewBox="0 0 24 24" width="24" xmlns="http://www.w3.org/2000/svg"><path d="m15 12.5v4l3 2 .75-1.25-2.25-1.5v-3.25zm7-.11c0-.13 0-.26 0-.39 0-5.5-4.5-10-10-10-5.53 0-10 4.5-10 10s4.5 10 10 10c.13 0 .24 0 .37-.03 1.06.65 2.3 1.03 3.63 1.03 3.86 0 7-3.14 7-7 0-1.32-.38-2.56-1-3.61m-2.24-2.28c-.06-.04-.11-.07-.17-.11h.15c.01.03.01.07.02.11m-.84-2.11h-2.95c-.32-1.25-.78-2.45-1.38-3.56 1.84.63 3.37 1.9 4.33 3.56m-6.92-3.97c.83 1.2 1.5 2.54 1.91 3.97h-3.82c.41-1.43 1.08-2.77 1.91-3.97m-2.34 5.97h2.75c-1.25.75-2.26 1.88-2.84 3.24-.04-.41-.07-.82-.07-1.24 0-.68.06-1.35.16-2m-.26-5.56c-.6 1.11-1.05 2.31-1.4 3.56h-2.92c.95-1.66 2.49-2.94 4.32-3.56m-5.14 9.56c-.16-.64-.26-1.31-.26-2s.1-1.36.26-2h3.38c-.08.66-.14 1.32-.14 2s.06 1.34.14 2zm.82 2h2.92c.35 1.25.8 2.45 1.4 3.56-1.83-.63-3.37-1.91-4.32-3.56m10.92 5c-2.76 0-5-2.24-5-5s2.24-5 5-5 5 2.24 5 5-2.24 5-5 5z"/></svg>