<svg height="24" viewBox="0 0 24 24" width="24" xmlns="http://www.w3.org/2000/svg"><path d="m10.46 19c-1.46 2.07-4.31 2.59-6.37 1.15-2.05-1.44-2.53-4.31-1.09-6.4.87-1.25 2.21-1.92 3.58-1.98l.05 1.43c-.91.07-1.79.54-2.36 1.36-1 1.44-.69 3.38.68 4.35 1.38.96 3.31.59 4.31-.84.31-.45.49-.94.56-1.44v-1.01l5.58-.04.07-.11c.53-.92 1.68-1.24 2.58-.72s1.21 1.68.68 2.6c-.53.91-1.69 1.23-2.59.71-.41-.23-.7-.6-.83-1.02l-4.07.02c-.11.67-.37 1.32-.78 1.94m7.28-7.14c2.53.31 4.33 2.58 4.02 5.07-.31 2.5-2.61 4.27-5.14 3.96-1.49-.18-2.72-1.03-3.43-2.21l1.24-.72c.49.77 1.32 1.32 2.32 1.45 1.75.21 3.3-.98 3.51-2.65s-1.03-3.2-2.76-3.41c-.54-.06-1.06.01-1.53.18l-.85.44-2.58-4.77h-.22c-1.06-.04-1.88-.91-1.85-1.95s.93-1.85 1.98-1.81c1.05.06 1.88.91 1.85 1.95-.02.44-.19.84-.46 1.15l1.9 3.51c.62-.2 1.3-.27 2-.19m-9.49-2.72c-1-2.35.06-5.04 2.37-6.02 2.32-.98 5 .13 6 2.48.59 1.37.47 2.87-.2 4.07l-1.24-.72c.42-.81.49-1.8.09-2.73-.68-1.6-2.49-2.37-4.04-1.72-1.56.66-2.26 2.5-1.58 4.1.28.66.75 1.17 1.32 1.51l.39.21-3.07 4.99c.03.05.07.11.1.19.49.91.15 2.06-.77 2.55-.91.49-2.06.13-2.56-.81-.49-.93-.15-2.08.77-2.57.39-.21.82-.26 1.23-.17l2.31-3.77c-.47-.43-.87-.97-1.12-1.59z"/></svg>