<svg height="24" viewBox="0 0 24 24" width="24" xmlns="http://www.w3.org/2000/svg"><path d="m12 2c2.44 0 4.5 1.75 4.91 4.07l.84-.07c2.75 0 5 2.24 5 5 0 1.89-1.05 3.53-2.59 4.38.38.71.59 1.51.59 2.37 0 2.75-2.25 5-5 5-1.49 0-2.83-.65-3.75-1.69-.92 1.04-2.26 1.69-3.75 1.69-2.75 0-5-2.25-5-5 0-.86.22-1.66.59-2.37-1.54-.85-2.59-2.49-2.59-4.38 0-2.76 2.25-5 5-5l.84.07c.41-2.32 2.47-4.07 4.91-4.07m-5.25 18.25 6.91-3.25h3.34c.55 0 1-.45 1-1v-7c0-.55-.45-1-1-1h-10c-.55 0-1 .45-1 1v7c0 .55.45 1 1 1h.77z"/></svg>