<svg height="24" viewBox="0 0 24 24" width="24" xmlns="http://www.w3.org/2000/svg"><path d="m9.5 4c-4.14 0-7.5 2.69-7.5 6 0 1.89 1.08 3.56 2.78 4.66l-.78 2.34 2.5-1.5c.89.31 1.87.5 2.91.5-.26-.63-.41-1.3-.41-2 0-3.31 3.13-6 7-6 .19 0 .38 0 .56.03-1.02-2.34-3.78-4.03-7.06-4.03m-3 2.5a1 1 0 0 1 1 1 1 1 0 0 1 -1 1 1 1 0 0 1 -1-1 1 1 0 0 1 1-1m5 0a1 1 0 0 1 1 1 1 1 0 0 1 -1 1 1 1 0 0 1 -1-1 1 1 0 0 1 1-1m4.5 2.5c-3.31 0-6 2.24-6 5s2.69 5 6 5c.67 0 1.31-.08 1.91-.25l2.09 1.25-.62-1.87c1.57-.91 2.62-2.42 2.62-4.13 0-2.76-2.69-5-6-5m-2 2.5a1 1 0 0 1 1 1 1 1 0 0 1 -1 1 1 1 0 0 1 -1-1 1 1 0 0 1 1-1m4 0a1 1 0 0 1 1 1 1 1 0 0 1 -1 1 1 1 0 0 1 -1-1 1 1 0 0 1 1-1z"/></svg>