<svg height="24" viewBox="0 0 24 24" width="24" xmlns="http://www.w3.org/2000/svg"><path d="m12 3a4 4 0 0 1 4 4c0 .73-.19 1.41-.54 2h2.54c.95 0 1.75.67 1.95 1.56 2.01 8.01 2.05 8.22 2.05 8.44a2 2 0 0 1 -2 2h-16a2 2 0 0 1 -2-2c0-.22.04-.43 2.05-8.44.2-.89 1-1.56 1.95-1.56h2.54c-.35-.59-.54-1.27-.54-2a4 4 0 0 1 4-4m0 2a2 2 0 0 0 -2 2 2 2 0 0 0 2 2 2 2 0 0 0 2-2 2 2 0 0 0 -2-2m-6 6v8h2v-2.5l1 1v1.5h2v-2l-2-2 2-2v-2h-2v1.5l-1 1v-2.5zm9 0c-1.11 0-2 .89-2 2v4c0 1.11.89 2 2 2h3v-5h-2v3h-1v-4h3v-2z"/></svg>