<svg height="24" viewBox="0 0 24 24" width="24" xmlns="http://www.w3.org/2000/svg"><path d="m12 3a4 4 0 0 1 4 4c0 .73-.19 1.41-.54 2h2.54c.95 0 1.75.67 1.95 1.56 2.01 8.01 2.05 8.22 2.05 8.44a2 2 0 0 1 -2 2h-16a2 2 0 0 1 -2-2c0-.22.04-.43 2.05-8.44.2-.89 1-1.56 1.95-1.56h2.54c-.35-.59-.54-1.27-.54-2a4 4 0 0 1 4-4m0 2a2 2 0 0 0 -2 2 2 2 0 0 0 2 2 2 2 0 0 0 2-2 2 2 0 0 0 -2-2m-6 6v8h5v-2h-3v-6zm7 0v8h3c1.11 0 2-.89 2-2v-.5c0-.57-.25-1.12-.68-1.5.43-.38.68-.93.68-1.5v-.5c0-1.11-.89-2-2-2zm2 2h1v1h-1zm0 3h1v1h-1z"/></svg>