<svg height="24" viewBox="0 0 24 24" width="24" xmlns="http://www.w3.org/2000/svg"><path d="m2.28 3-1.28 1.27 1.47 1.47c-.43.26-.86.55-1.27.86l1.8 2.4c.53-.4 1.08-.75 1.66-1.07l2.23 2.23c-.74.34-1.45.75-2.09 1.24l1.8 2.4c.78-.58 1.66-1.03 2.6-1.33l2.55 2.53c-1.25.07-2.41.5-3.35 1.2l3.6 4.8 2.46-3.27 3.28 3.27 1.26-1.28m-7-16.72c-2.15 0-4.2.38-6.1 1.07l2.39 2.4c1.21-.31 2.43-.47 3.71-.47 3.38 0 6.5 1.11 9 3l1.8-2.4c-3.01-2.26-6.74-3.6-10.8-3.6m0 6c-.38 0-.75 0-1.12.05l3.19 3.2c1.22.28 2.36.82 3.33 1.55l1.8-2.4c-2-1.51-4.5-2.4-7.2-2.4z"/></svg>