<svg height="24" viewBox="0 0 24 24" width="24" xmlns="http://www.w3.org/2000/svg"><path d="m12 3c-4.21 0-8.3 1.42-11.62 4 4.23 5.3 7.78 9.7 11.62 14.5 1.21-1.5 2.29-2.85 3.5-4.36v-2.64c0-.2 0-.41.04-.61l-3.54 4.41-8.73-10.86c2.64-1.59 5.65-2.44 8.73-2.44 3.07 0 6.08.86 8.71 2.45l-1.88 2.34c.54-.19 1.1-.29 1.67-.29.35 0 .7.04 1.05.12.66-.83 1.45-1.85 2.1-2.62-3.33-2.59-7.43-4-11.65-4m8.5 9c-1.4 0-2.5 1.1-2.5 2.5v1.5c-.5 0-1 .5-1 1v4c0 .5.5 1 1 1h5c.5 0 1-.5 1-1v-4c0-.5-.5-1-1-1v-1.5c0-1.4-1.1-2.5-2.5-2.5m0 1c.8 0 1.5.7 1.5 1.5v1.5h-3v-1.5c0-.8.7-1.5 1.5-1.5z"/></svg>