<svg height="24" viewBox="0 0 24 24" width="24" xmlns="http://www.w3.org/2000/svg"><path d="m12 3c-4.21 0-8.3 1.42-11.62 4 4.04 5.06 7.51 9.37 11.62 14.5 1.23-1.53 2.29-2.84 3.5-4.36v-2.64c0-2.06 1.27-3.91 3.19-4.66-1.5-.88-3.85-1.84-6.69-1.84-3 0-5.32 1-6.8 1.84l-1.93-2.4c2.64-1.59 5.65-2.44 8.73-2.44 3.07 0 6.08.86 8.71 2.45l-1.87 2.34c.53-.19 1.09-.29 1.66-.29.35 0 .7.04 1.04.12.66-.82 1.49-1.86 2.11-2.62-3.33-2.59-7.43-4-11.65-4m8.5 9c-1.4 0-2.5 1.1-2.5 2.5v1.5c-.5 0-1 .5-1 1v4c0 .5.5 1 1 1h5c.5 0 1-.5 1-1v-4c0-.5-.5-1-1-1v-1.5c0-1.4-1.1-2.5-2.5-2.5m0 1c.8 0 1.5.7 1.5 1.5v1.5h-3v-1.5c0-.8.7-1.5 1.5-1.5z"/></svg>