<svg height="24" viewBox="0 0 24 24" width="24" xmlns="http://www.w3.org/2000/svg"><path d="m12 3c4.22 0 8.32 1.41 11.65 4l-2.11 2.62-1.04-.12c-.57 0-1.13.1-1.67.29l1.88-2.34c-2.63-1.59-5.64-2.45-8.71-2.45-3.08 0-6.09.85-8.73 2.44l5.12 6.36c1.11-.52 2.36-.8 3.61-.8 1.23 0 2.44.28 3.55.79l-.05.71v2.64l-3.5 4.36-11.62-14.5c3.32-2.58 7.41-4 11.62-4m11 13c.5 0 1 .5 1 1v4c0 .5-.5 1-1 1h-5c-.5 0-1-.5-1-1v-4c0-.5.5-1 1-1v-1.5c0-1.4 1.1-2.5 2.5-2.5s2.5 1.1 2.5 2.5zm-1 0v-1.5c0-.8-.7-1.5-1.5-1.5s-1.5.7-1.5 1.5v1.5z"/></svg>