<svg height="24" viewBox="0 0 24 24" width="24" xmlns="http://www.w3.org/2000/svg"><path d="m13 6c0-.3.1-1.4.8-2.2l-1.8-1.4-1.8 1.5c.7.7.8 1.8.8 2.1-6.3.4-9 5-9 5l7 7s.7-1.3 2-1.8v2.1c-.6.3-1 1-1 1.7a2 2 0 0 0 2 2 2 2 0 0 0 2-2c0-.7-.4-1.4-1-1.7v-2.1c1.3.5 2 1.8 2 1.8l7-7s-2.7-4.5-9-5m-2 8.1c-.8.2-1.5.5-2.1 1l-4.2-4.2c1.1-1.1 3.1-2.6 6.3-2.8zm4.1 1c-.6-.4-1.3-.8-2.1-1v-6c3.2.3 5.2 1.7 6.3 2.8zm2.9-13.8-.7 1.9c-.7-.3-1.8-.3-2.6 0l-.7-1.9c1.2-.4 2.8-.4 4 0m3 4.7h-2s0-1.3-.8-2.1l1.5-1.3c1.3 1.4 1.3 3.3 1.3 3.4m-16.8-3.4 1.5 1.3c-.7.8-.7 2.1-.7 2.1h-2c0-.1 0-2 1.2-3.4m5.8-1.3-.7 1.9c-.7-.3-1.8-.3-2.6 0l-.7-1.9c1.2-.4 2.8-.4 4 0z"/></svg>