<svg height="24" viewBox="0 0 24 24" width="24" xmlns="http://www.w3.org/2000/svg"><path d="m22.61 19-9.08-9.09c.93-2.34.47-5.1-1.44-7-2.3-2.3-5.88-2.51-8.43-.65l3.84 3.85-1.42 1.39-3.83-3.81c-1.86 2.54-1.65 6.13.65 8.42 1.86 1.86 4.57 2.35 6.89 1.48l9.11 9.11c.39.39 1.02.39 1.41 0l2.3-2.3c.39-.4.39-1.01 0-1.4m-3 1.59-9.46-9.46c-.61.45-1.29.72-2 .82-1.36.2-2.79-.21-3.83-1.25-.95-.94-1.39-2.2-1.32-3.44l3.09 3.09 4.24-4.24-3.09-3.11c1.26-.05 2.49.39 3.44 1.33 1.08 1.08 1.49 2.57 1.24 3.96-.12.71-.42 1.37-.88 1.96l9.46 9.45z"/></svg>