<svg height="24" viewBox="0 0 24 24" width="24" xmlns="http://www.w3.org/2000/svg"><path d="m12 12 .03-.1 2.55-4.8.17-.1h1.59l.16.1v.2l-2.5 4.7 2.5 4.7v.2l-.16.1h-1.59l-.17-.1-2.55-4.8-.03-.1v.1l-2.58 4.8-.17.1h-1.59l-.16-.1v-.2l2.5-4.7-2.5-4.7v-.2l.16-.1h1.59l.17.1 2.58 4.8zm10.75-.93c.16.28.25.6.25.93s-.09.65-.25.93l-4.67 8.07c-.36.62-1.02 1-1.73 1h-8.7c-.71 0-1.37-.38-1.73-1l-4.67-8.07c-.16-.28-.25-.6-.25-.93s.09-.65.25-.93l4.67-8.07c.36-.62 1.02-1 1.73-1h8.7c.71 0 1.37.38 1.73 1zm-1.95.18-3.83-6.45c-.29-.5-.83-.8-1.41-.8h-7.12c-.58 0-1.12.3-1.41.8l-3.83 6.45c-.13.25-.2.49-.2.75s.07.5.2.75l3.83 6.45c.29.5.83.8 1.41.8h7.12c.58 0 1.12-.3 1.41-.8l3.83-6.45c.13-.25.2-.49.2-.75s-.07-.5-.2-.75z"/></svg>