<svg height="24" viewBox="0 0 24 24" width="24" xmlns="http://www.w3.org/2000/svg"><path d="m4.8 3c-1 0-1.8.8-1.8 1.8v14.4c0 1 .8 1.8 1.8 1.8h14.4c1 0 1.8-.8 1.8-1.8v-14.4c0-1-.8-1.8-1.8-1.8m-3.13 2h2.04c.12 0 .22.04.26.13.06.09.06.2 0 .31l-4.47 7.92 2.85 5.2c.06.11.06.22 0 .31-.05.08-.14.13-.25.13h-2.03c-.31 0-.47-.21-.56-.39l-2.87-5.26c.14-.25 4.49-7.96 4.49-7.96.11-.2.24-.39.54-.39m-8.98 2.76h2.01c.31 0 .47.2.57.39l1.39 2.42c-.09.14-2.18 3.85-2.18 3.85-.11.19-.25.39-.56.39h-2.02c-.12 0-.21-.05-.26-.14-.04-.08-.04-.2 0-.31l2.14-3.79-1.36-2.37c-.05-.11-.07-.2-.01-.31.05-.08.15-.13.28-.13z"/></svg>