<svg height="24" viewBox="0 0 24 24" width="24" xmlns="http://www.w3.org/2000/svg"><path d="m18 14a4 4 0 0 1 4 4 4 4 0 0 1 -4 4 4 4 0 0 1 -4-4l.09-.85c-.04-.7-.17-1.31-.54-1.65-.2-.2-.48-.31-.8-.37-.96.55-2.07.87-3.25.87a6.5 6.5 0 0 1 -6.5-6.5 6.5 6.5 0 0 1 6.5-6.5 6.5 6.5 0 0 1 6.5 6.5c0 1.18-.32 2.29-.87 3.25.06.32.17.6.37.8.34.37.95.5 1.65.54zm-10.5-4a1.5 1.5 0 0 1 1.5 1.5 1.5 1.5 0 0 1 -1.5 1.5 1.5 1.5 0 0 1 -1.5-1.5 1.5 1.5 0 0 1 1.5-1.5m2-5c-2.5 0-4.5 2-4.5 4.5s2 4.5 4.5 4.5 4.5-2 4.5-4.5-2-4.5-4.5-4.5z"/></svg>