<svg height="24" viewBox="0 0 24 24" width="24" xmlns="http://www.w3.org/2000/svg"><path d="m4.06 6.15c-.09.02-.18.07-.26.13-1.14 1.62-1.8 3.59-1.8 5.72a10 10 0 0 0 10 10c3 0 5.68-1.32 7.5-3.4l-2.5.25c-2.75.3-5.55.34-8.34.11-.71-.02-1.42-.2-2.07-.51-.86-.39-1.44-1.22-1.52-2.16-.01-.16.05-.29.16-.42l2.19-2.27 7.61-7.9v-.1h-4.19c-2.27.04-4.53.22-6.78.55m16.11 11.35c.09-.03.18-.06.26-.11.99-1.56 1.57-3.39 1.57-5.39a10 10 0 0 0 -10-10c-2.78 0-5.3 1.13-7.11 2.97h.28c3.11-.4 6.26-.5 9.39-.32.94-.01 1.89.17 2.77.52.92.36 1.56 1.21 1.67 2.2 0 .16-.07.33-.18.45l-9.11 9.37-.71.76v.11h4.14c2.36-.06 4.7-.25 7.03-.56z"/></svg>