<svg height="24" viewBox="0 0 24 24" width="24" xmlns="http://www.w3.org/2000/svg"><path d="m18.5 19.13c1.5-1.36 1.5-3.95 1.5-5.13a4 4 0 0 0 -4-4c-.7 0-1.4.2-2 .56v-4.56a3 3 0 0 0 -3-3c-.75 0-1.45.29-2 .78-1.14-1.02-2.86-1.02-4 0-.55-.5-1.26-.78-2-.78v2a1 1 0 0 1 1 1v10h2v-10a1 1 0 0 1 1-1 1 1 0 0 1 1 1v10h2v-10a1 1 0 0 1 1-1 1 1 0 0 1 1 1v8c0 1.18 0 3.77 1.5 5.13-.78.41-1.62.71-2.5.87v2c1.29 0 3.84-1.26 5-1.87 1.16.61 3.71 1.87 5 1.87v-2c-.88-.16-1.72-.46-2.5-.87m-2.5-7.13a2 2 0 0 1 2 2c0 2.92-.54 4-2 4s-2-1.08-2-4a2 2 0 0 1 2-2z"/></svg>