<svg height="24" viewBox="0 0 24 24" width="24" xmlns="http://www.w3.org/2000/svg"><path d="m20 17a3 3 0 0 1 -3 3c-1.62-.08-2.92-1.38-3-3 .16-1.61.5-3.2 1-4.74.54-1.71.87-3.47 1-5.26-.07-2.73-2.27-4.93-5-5-2.73.07-4.93 2.27-5 5 .15 1.53.5 3.03 1 4.5l.21.7c-2.11-.67-4.35.5-5.02 2.6-.69 2.11.49 4.36 2.6 5.03s4.35-.5 5.02-2.61c.13-.39.19-.81.19-1.22-.16-1.73-.5-3.44-1.09-5.08-.44-1.27-.75-2.58-.91-3.92.08-1.62 1.38-2.92 3-3 1.62.08 2.92 1.38 3 3-.16 1.61-.5 3.2-1 4.74-.54 1.71-.87 3.47-1 5.26.07 2.73 2.27 4.93 5 5a5 5 0 0 0 5-5zm-14 1a2 2 0 0 1 -2-2 2 2 0 0 1 2-2 2 2 0 0 1 2 2 2 2 0 0 1 -2 2z"/></svg>