<svg height="24" viewBox="0 0 24 24" width="24" xmlns="http://www.w3.org/2000/svg"><path d="m12 4c-5.5 0-10 3.58-10 8 0 2.12 1.65 3.87 3.76 4h.24a4 4 0 0 0 4-4 4 4 0 0 0 -4-4h-.24c1.68-1.59 3.93-2.45 6.24-2.4 1.77-.02 3.5.47 5 1.4l1.25-1.25c-1.87-1.17-4.04-1.78-6.25-1.75m-6 6a2 2 0 0 1 2 2c0 1.11-.92 2-2 2-1.04 0-1.9-.78-2-1.8 0-.13 0-.27 0-.4.1-1.03.97-1.8 2-1.8m12.24-2h-.24a4 4 0 0 0 -4 4 4 4 0 0 0 4 4h.24c-1.68 1.59-3.93 2.45-6.24 2.4-1.77.02-3.5-.47-5-1.4l-1.24 1.24c1.87 1.17 4.03 1.76 6.24 1.76 5.5 0 10-3.58 10-8 0-2.12-1.65-3.87-3.76-4m-.24 6a2 2 0 0 1 -2-2c0-1.11.92-2 2-2 1.04 0 1.9.78 2 1.8v.4c-.1 1.03-.97 1.8-2 1.8z"/></svg>