<svg fill="none" height="24" viewBox="0 0 65 24" width="65" xmlns="http://www.w3.org/2000/svg" xmlns:xlink="http://www.w3.org/1999/xlink"><linearGradient id="a"><stop offset="0" stop-color="#00b5f6"/><stop offset="1" stop-color="#0067ff"/></linearGradient><linearGradient id="b" gradientUnits="userSpaceOnUse" x1="-101.197" x2="-99.512" xlink:href="#a" y1="2.61712" y2="52.3842"/><linearGradient id="c" gradientUnits="userSpaceOnUse" x1="19.8007" x2="59.7175" xlink:href="#a" y1="-3.66814" y2="32.5811"/><linearGradient id="d" gradientUnits="userSpaceOnUse" x1=".778484" x2="43.3025" xlink:href="#a" y1="15.7742" y2="38.424"/><linearGradient id="e" gradientUnits="userSpaceOnUse" x1="-13.7995" x2="26.4804" xlink:href="#a" y1="16.1936" y2="52.1526"/><linearGradient id="f" gradientUnits="userSpaceOnUse" x1="-80.4455" x2="-77.6668" xlink:href="#a" y1="4.06725" y2="54.3461"/><linearGradient id="g" gradientUnits="userSpaceOnUse" x1="-75.4045" x2="-72.6258" xlink:href="#a" y1="1.0698" y2="51.3487"/><linearGradient id="h" gradientUnits="userSpaceOnUse" x1="3.00129" x2="42.5455" xlink:href="#a" y1="5.42379" y2="42.9386"/><linearGradient id="i" gradientUnits="userSpaceOnUse" x1="11.4997" x2="51.0439" xlink:href="#a" y1=".516841" y2="38.0316"/><path d="m14.1251 15.7415c0-.7114-.5721-1.2925-1.2826-1.2925h-8.0694c-.70589 0-1.2826.5765-1.2826 1.2925 0 .7113.5721 1.2925 1.2826 1.2925h8.0694c.7059-.0046 1.2826-.5812 1.2826-1.2925z" fill="url(#b)"/><path d="m62.8795 18.9763h-4.3854c-.1663 0-.2634-.183-.1802-.3237l5.1109-8.3134c.037-.0563.0601-.1173.0878-.1783 0-.0047.0046-.0094.0046-.0141.0185-.0469.0324-.0938.0416-.1407.0093-.03753.0231-.07506.0278-.11259.0046-.01408.0046-.03284.0046-.04692.0092-.0563.0185-.1126.0185-.17359 0-.66619-.5361-1.21041-1.1923-1.21041h-6.3078c-.6238 0-1.1783.46446-1.2384 1.09313-.0693.72248.4898 1.32768 1.1876 1.32768h3.8355c.1664 0 .2634.183.1802.3237l-5.0785 8.2571c-.0324.0563-.0555.1126-.0832.1689-.0832.1642-.134.3472-.134.5442 0 .6662.5314 1.2105 1.1922 1.2105h6.9039c.6562 0 1.1923-.5443 1.1923-1.2105.0046-.6568-.5315-1.201-1.1877-1.201z" fill="url(#c)"/><path d="m31.127 8.36119c-.0047 0-.0093 0-.0093-.00471-.014 0-.0233-.00471-.0372-.00942-.0093 0-.0233 0-.0326-.00471-.0092 0-.0139 0-.0232 0-.2835-.02356-.9389-.02356-1.2828.01884v.00471c-.646.07067-1.3525.29208-1.8452.66897-.2138.16488-.409.3439-.5856.53705-.0186-.66425-.5484-1.1966-1.2084-1.1966-.6693 0-1.2085.55119-1.2085 1.22487v10.68931c0 .1696.0326.3298.0976.4805.1859.4429.6182.7538 1.1202.7538.6692 0 1.213-.5512 1.213-1.2296v-.0754-1.1494-4.6074c0-1.0836.2882-1.9787.8599-2.657.4694-.556.99-.8763 1.5802-.9705.2929-.0377.5903-.0283.5903-.0283h.5949c.6693 0 1.2131-.5512 1.2131-1.22957-.0046-.62185-.4508-1.12593-1.0364-1.21544z" fill="url(#d)"/><path d="m19.431 10.4407c.5941-.83382.9469-1.85608.9469-2.96784 0-2.80768-2.2418-5.08303-5.0081-5.08303h-.687v-.55118c0-.70192-.5616-1.26722-1.2485-1.26722-.6916 0-1.2486.57002-1.2486 1.26722v.55118h-1.2717v.00471h-.803c-.66838 0-1.20679.55117-1.20679 1.22482 0 .67837.54305 1.22483 1.20679 1.22483h.803v.00471h4.4372c1.3878 0 2.511 1.14003 2.511 2.54858v.00471c0 1.37087-1.0675 2.51561-2.4089 2.54387-.246.00471-.9886 0-.9886 0-.0047 0-.014 0-.0186 0h-.0093c-.738.01885-1.3274.66424-1.2485 1.43684.0696.6736.6637 1.1683 1.3321 1.1683h2.5342c.2599 0 .5245.0188.7751.0848 1.36.3627 2.3672 1.6158 2.3672 3.1139 0 1.776-1.4203 3.2175-3.1701 3.2175h-7.64916-1.43885c-.67765 0-1.28104.504-1.34602 1.1871-.07427.782.53376 1.4415 1.29032 1.4415h4.30261v.5653c0 .702.5616 1.2673 1.2486 1.2673.6915 0 1.2485-.57 1.2485-1.2673v-.5653h1.0861.0047 1.3646c3.1701 0 5.7368-2.6098 5.7368-5.8226.0046-2.3837-1.4157-4.4376-3.444-5.3327z" fill="url(#e)"/><path d="m9.27894 11.2517c0-.7113-.57528-1.29251-1.28973-1.29251h-5.76666c-.70981 0-1.289727.57651-1.289727 1.29251 0 .7114.575277 1.2925 1.289727 1.2925h5.76666c.71445 0 1.28973-.5811 1.28973-1.2925z" fill="url(#f)"/><path d="m6.79946 8.73468h5.76664c.7098 0 1.2897-.57651 1.2897-1.29251 0-.71135-.5752-1.29252-1.2897-1.29252h-5.76664c-.70982 0-1.28973.57652-1.28973 1.29252 0 .71135.57527 1.29251 1.28973 1.29251z" fill="url(#g)"/><g clip-rule="evenodd" fill-rule="evenodd"><path d="m41.0979 9.76885c.8247.83155 1.2953 1.85105 1.4071 3.04445v.0093c.0559.545-.0047 1.5363-.0047 1.5363 0 .8034-.6476 1.4565-1.4444 1.4565h-5.7169c-.1165 0-.2097.0939-.2097.2114v.3523c0 .9115.2842 1.6209.876 2.1612.5917.5403 1.3698.8128 2.3156.8128.2516 0 .5219-.0282.7688-.0752.4426-.1034.9505-.3336 1.3046-.6061.021-.0141.0408-.0282.0606-.0422.0198-.0141.0396-.0282.0606-.0423.0046-.0024.0093-.0059.0139-.0094.0047-.0036.0094-.0071.014-.0094.0419-.0282.0885-.0564.1305-.0799.0023-.0023.0058-.0035.0093-.0047s.007-.0023.0093-.0047l.1258-.0564c.0093 0 .0186-.0047.028-.0094.0466-.0188.0932-.0328.1444-.0422.0047 0 .0105-.0012.0163-.0024s.0117-.0023.0163-.0023c.0466-.0094.0979-.0141.1491-.0141h.014.0047c.4892 0 .9039.3194 1.053.7658 0 .0094.0046.0188.0093.0281.0046.0235.0093.0423.014.0611.0093.0235.0139.0423.0186.0658.014.0611.0186.1268.0186.1879v.0188.0235c0 .0423-.0046.0893-.0093.1316-.0046.0094-.0046.0141-.0046.0234-.0094.0517-.0233.1034-.0373.1504-.0024.007-.0047.0129-.007.0188s-.0047.0117-.007.0188c-.0093.0376-.0233.0751-.0419.108-.0014.0029-.0033.0062-.0053.0097-.0046.0083-.0101.0181-.0134.0279-.0233.047-.0512.0893-.0792.1316-.1817.2912-.5172.5731-1.0343.8738-.7549.4416-1.7007.6625-2.8096.6625-1.6214 0-2.9633-.498-3.993-1.4753-1.0344-.9772-1.5609-2.2833-1.5609-3.8712v-2.7719c0-1.4095.4939-2.6404 1.4677-3.66459.9738-1.02889 2.1619-1.55039 3.5317-1.55039 1.3 0 2.4462.48391 3.3967 1.44233zm-1.3698 3.96525c.2562 0 .4659-.2067.4659-.4651v-.1645c0-.747-.2423-1.2356-.7362-1.7993-.4892-.5544-1.0716-.8222-1.7798-.8222-.6989 0-1.2813.249-1.7892.7658s-.7548 1.1369-.7548 1.8933v.1175c0 .2584.2096.4698.4659.4698z" fill="url(#h)"/><path d="m52.4057 9.76885c.8247.83155 1.2953 1.85105 1.4071 3.04445v.0093c.0559.545-.0047 1.5363-.0047 1.5363 0 .8034-.6476 1.4565-1.4443 1.4565h-5.717c-.1165 0-.2097.0939-.2097.2114v.3523c0 .9115.2842 1.6209.876 2.1612.5917.5403 1.3698.8128 2.3156.8128.2516 0 .5219-.0282.7688-.0752.4427-.1034.9505-.3336 1.3046-.6061.021-.0141.0408-.0282.0606-.0422.0198-.0141.0396-.0282.0606-.0423.0046-.0024.0093-.0059.014-.0094.0046-.0035.0093-.0071.0139-.0094.042-.0282.0886-.0564.1305-.0799.0023-.0023.0058-.0035.0093-.0047s.007-.0023.0093-.0047l.1258-.0564c.0094 0 .0187-.0047.028-.0094.0466-.0188.0932-.0328.1444-.0422.0047 0 .0105-.0012.0163-.0024.0059-.0012.0117-.0023.0163-.0023.0466-.0094.0979-.0141.1491-.0141h.014.0047c.4892 0 .9039.3194 1.053.7658 0 .0094.0046.0188.0093.0281.0047.0235.0093.0423.014.0611.0093.0235.014.0423.0186.0658.014.0611.0187.1268.0187.1879v.0188.0235c0 .0423-.0047.0893-.0094.1316-.0046.0094-.0046.0141-.0046.0234-.0093.0517-.0233.1034-.0373.1504-.0023.007-.0047.0129-.007.0188s-.0046.0117-.007.0188c-.0093.0376-.0233.0751-.0419.108-.0014.0029-.0033.0062-.0053.0097-.0046.0083-.0101.0181-.0134.0279-.0232.047-.0512.0893-.0792.1316-.1817.2912-.5171.5731-1.0343.8738-.7548.4416-1.7007.6625-2.8096.6625-1.6214 0-2.9633-.498-3.993-1.4753-1.0344-.9772-1.5609-2.2833-1.5609-3.8712v-2.7719c0-1.4095.4939-2.6404 1.4677-3.66459.9738-1.02889 2.1619-1.55039 3.5318-1.55039 1.2999 0 2.4461.48391 3.3966 1.44233zm-1.3698 3.96525c.2562 0 .4659-.2067.4659-.4651v-.1645c0-.747-.2423-1.2356-.7362-1.7993-.4892-.5544-1.0716-.8222-1.7798-.8222-.6989 0-1.2813.249-1.7892.7658s-.7548 1.1369-.7548 1.8933v.1175c0 .2584.2097.4698.4659.4698z" fill="url(#i)"/></g></svg>