<svg fill="none" height="24" viewBox="0 0 24 24" width="24" xmlns="http://www.w3.org/2000/svg"><path d="m11.9451.96666c1.342.019736 2.5855.1875 3.7697.66118 1.9341.75986 3.3749 2.06248 4.2236 3.9868.8092 1.85524.9178 3.78943.602 5.75326-.3454 2.1907-1.1546 4.2236-2.2303 6.1578-.7697 1.3717-1.6776 2.6546-2.8223 3.7401-.6316.602-1.3224 1.125-2.1316 1.4704-1.1743.5131-2.2894.3256-3.36507-.2862-1.30262-.7401-2.29932-1.8059-3.15786-3.0098-1.67762-2.3388-2.81247-4.9243-3.32563-7.7664-.34539-1.91447-.30591-3.81905.39474-5.6743.71052-1.87498 1.9934-3.25654 3.82891-4.12495 1.35196-.65131 2.79271-.878285 4.21381-.90789zm-.9474 15.73994c.0296-.9671-.3947-2.0822-1.20394-2.9309-1.0263-1.0657-2.29931-1.4802-3.76969-1.2631-.16777.0197-.20724.0987-.22698.2467-.15789 1.125.03948 2.1809.71052 3.0987 1.03618 1.4309 2.44735 2.0131 4.19399 1.7861.1481-.0197.227-.0691.2369-.2368 0-.227.0395-.4638.0592-.7007zm2.0131.0494c.0198.2072.0296.4539.079.7006.0099.0691.1085.1579.1776.1777.6415.1381 1.273.0888 1.8947-.0889 2.0625-.5822 3.3553-2.6052 3.0592-4.7368-.0296-.2171-.1085-.2861-.3059-.3059-1.4013-.1776-2.625.2171-3.6414 1.204-.8388.819-1.2237 1.8355-1.2632 3.0493z" fill="#0085fb"/></svg>