<svg fill="none" height="25" viewBox="0 0 24 25" width="24" xmlns="http://www.w3.org/2000/svg"><path clip-rule="evenodd" d="m2.61033 5.55c-.33708 0-.61033-.29101-.61033-.65s.27325-.65.61033-.65h18.77937c.337 0 .6103.29101.6103.65s-.2733.65-.6103.65zm-.06103 7c-.30337 0-.5493-.291-.5493-.65s.24593-.65.5493-.65h16.9014c.3034 0 .5493.291.5493.65s-.2459.65-.5493.65zm-.5493 6.35c0 .359.27325.65.61033.65h18.77937c.337 0 .6103-.291.6103-.65s-.2733-.65-.6103-.65h-18.77937c-.33708 0-.61033.291-.61033.65z" fill="#0085fb" fill-rule="evenodd"/></svg>