<svg fill="none" height="48" viewBox="0 0 48 48" width="48" xmlns="http://www.w3.org/2000/svg"><path clip-rule="evenodd" d="m27.7115 1.35493c.1961-.1945.1973-.511085.0028-.707105s-.5111-.197252-.7071-.002751l-3.3594 3.333336-.3266.32411.2959.35237 3.3594 4c.1776.21146.493.23892.7044.06133.2115-.1776.2389-.49299.0614-.70445l-2.646-3.15054c11.0917.56579 19.9037 9.66777 19.9037 20.80547 0 11.5022-9.3983 20.8333-21 20.8333s-21-9.3311-21-20.8333c0-.2762-.22386-.5-.5-.5s-.5.2238-.5.5c0 12.0618 9.8534 21.8333 22 21.8333s22-9.7715 22-21.8333c0-11.668-9.2203-21.19265-20.8175-21.80236zm-1.1107 29.90507c.5333.2533 1.1533.38 1.86.38s1.3267-.1267 1.86-.38c.5333-.2534.9733-.66 1.32-1.22.36-.5734.6267-1.32.8-2.24.1867-.92.28-2.0467.28-3.38 0-1.3334-.0933-2.4534-.28-3.36-.1733-.92-.44-1.6667-.8-2.24-.3467-.5734-.7867-.9867-1.32-1.24-.5333-.2534-1.1533-.38-1.86-.38s-1.3267.1266-1.86.38c-.5333.2533-.98.6666-1.34 1.24-.3467.5733-.6133 1.32-.8 2.24-.1733.9066-.26 2.0266-.26 3.36 0 1.3333.0867 2.46.26 3.38.1867.92.4533 1.6666.8 2.24.36.56.8067.9666 1.34 1.22zm4.18-1.8c-.4933.7866-1.2667 1.18-2.32 1.18s-1.8267-.3934-2.32-1.18c-.4933-.8-.74-1.9734-.74-3.52v-3.04c0-1.5467.2467-2.7134.74-3.5.4933-.8 1.2667-1.2 2.32-1.2s1.8267.4 2.32 1.2c.4933.7866.74 1.9533.74 3.5v3.04c0 1.5466-.2467 2.72-.74 3.52zm-14.9008.96v.98h8.22v-.98h-3.42v-12.98h-1.26l-4.14 2.7.5.8 3.78-2.44v11.92z" fill="#000" fill-rule="evenodd"/></svg>