<svg fill="none" height="48" viewBox="0 0 48 48" width="48" xmlns="http://www.w3.org/2000/svg"><path clip-rule="evenodd" d="m20.2885 1.35493c-.1961-.1945-.1973-.511085-.0028-.707105s.5111-.197252.7071-.002751l3.3594 3.333336.3266.32411-.2959.35237-3.3594 4c-.1776.21146-.493.23892-.7044.06133-.2115-.1776-.2389-.49299-.0614-.70445l2.646-3.15054c-11.0917.56579-19.9037 9.66777-19.9037 20.80547 0 11.5022 9.3983 20.8333 21 20.8333s21-9.3311 21-20.8333c0-.2762.2239-.5.5-.5s.5.2238.5.5c0 12.0618-9.8534 21.8333-22 21.8333s-22-9.7715-22-21.8333c0-11.668 9.2203-21.19265 20.8175-21.80236zm.5515 22.14507c-.48.4533-1.1533.68-2.02.68h-1.48v.98h1.58c.92 0 1.6333.2467 2.14.74.5067.48.76 1.1733.76 2.08v.44c0 .9067-.2533 1.6067-.76 2.1-.5067.48-1.22.72-2.14.72-1.3067 0-2.3467-.6267-3.12-1.88l-.86.64c.9333 1.4933 2.2667 2.24 4 2.24 1.2933 0 2.2933-.3467 3-1.04.72-.6933 1.08-1.68 1.08-2.96 0-.56-.0733-1.0467-.22-1.46-.1333-.4267-.3267-.78-.58-1.06-.2533-.2933-.5467-.52-.88-.68s-.7-.26-1.1-.3v-.16c.36-.0667.6933-.1867 1-.36s.5733-.3933.8-.66.4-.5867.52-.96c.1333-.3867.2-.82.2-1.3 0-.6-.0867-1.1133-.26-1.54-.1733-.44-.42-.8067-.74-1.1s-.7067-.5067-1.16-.64c-.44-.1467-.9333-.22-1.48-.22-1.7467 0-2.9733.7467-3.68 2.24l.84.6c.5867-1.2267 1.5133-1.84 2.78-1.84.76 0 1.3667.2067 1.82.62.4533.4.68 1.0067.68 1.82v.44c0 .76-.24 1.3667-.72 1.82zm5.5008 8.36c.5333.2533 1.1533.38 1.86.38.7066 0 1.3266-.1267 1.86-.38.5333-.2533.9733-.66 1.32-1.22.36-.5733.6267-1.32.8-2.24.1866-.92.28-2.0467.28-3.38s-.0934-2.4533-.28-3.36c-.1733-.92-.44-1.6667-.8-2.24-.3467-.5733-.7867-.9867-1.32-1.24-.5334-.2533-1.1534-.38-1.86-.38-.7067 0-1.3267.1267-1.86.38-.5334.2533-.98.6667-1.34 1.24-.3467.5733-.6134 1.32-.8 2.24-.1734.9067-.26 2.0267-.26 3.36s.0866 2.46.26 3.38c.1866.92.4533 1.6667.8 2.24.36.56.8066.9667 1.34 1.22zm4.18-1.8c-.4934.7867-1.2667 1.18-2.32 1.18-1.0534 0-1.8267-.3933-2.32-1.18-.4934-.8-.74-1.9733-.74-3.52v-3.04c0-1.5467.2466-2.7133.74-3.5.4933-.8 1.2666-1.2 2.32-1.2 1.0533 0 1.8266.4 2.32 1.2.4933.7867.74 1.9533.74 3.5v3.04c0 1.5467-.2467 2.72-.74 3.52z" fill="#000" fill-rule="evenodd"/></svg>