<svg enable-background="new 0 0 512 512" height="512" viewBox="0 0 512 512" width="512" xmlns="http://www.w3.org/2000/svg"><path d="m134.074 453.206-12.148-10.412 197.622-230.56 134.109 134.109-11.314 11.314-121.891-121.891z"/><path d="m432 456h-352c-13.234 0-24-10.767-24-24v-352c0-13.234 10.766-24 24-24h352c13.234 0 24 10.766 24 24v352c0 13.233-10.766 24-24 24zm-352-384c-4.411 0-8 3.589-8 8v352c0 4.411 3.589 8 8 8h352c4.411 0 8-3.589 8-8v-352c0-4.411-3.589-8-8-8z"/><path d="m176 232c-30.878 0-56-25.122-56-56s25.122-56 56-56 56 25.122 56 56-25.122 56-56 56zm0-96c-22.056 0-40 17.944-40 40s17.944 40 40 40 40-17.944 40-40-17.944-40-40-40z"/></svg>