<?xml version="1.0" ?><!DOCTYPE svg  PUBLIC '-//W3C//DTD SVG 1.1//EN'  'http://www.w3.org/Graphics/SVG/1.1/DTD/svg11.dtd'><svg enable-background="new 0 0 512 512" height="512px" id="Ebene_1" version="1.1" viewBox="0 0 512 512" width="512px" xml:space="preserve" xmlns="http://www.w3.org/2000/svg" xmlns:xlink="http://www.w3.org/1999/xlink"><g><polygon points="134.074,453.206 121.926,442.794 319.548,212.234 453.657,346.343 442.343,357.657 320.452,235.766  "/></g><g><path d="M432,456H80c-13.234,0-24-10.767-24-24V80c0-13.234,10.766-24,24-24h352c13.234,0,24,10.766,24,24v352   C456,445.233,445.234,456,432,456z M80,72c-4.411,0-8,3.589-8,8v352c0,4.411,3.589,8,8,8h352c4.411,0,8-3.589,8-8V80   c0-4.411-3.589-8-8-8H80z"/></g><g><path d="M176,232c-30.878,0-56-25.122-56-56s25.122-56,56-56s56,25.122,56,56S206.878,232,176,232z M176,136   c-22.056,0-40,17.944-40,40s17.944,40,40,40s40-17.944,40-40S198.056,136,176,136z"/></g></svg>