<svg enable-background="new 0 0 26 26" viewBox="0 0 26 26" xmlns="http://www.w3.org/2000/svg"><g fill="#1d1d1b"><path d="m13.4482422 3.4697266c-.2939453-.2939453-.7685547-.2919922-1.0605469 0-.2929688.2929688-.2929688.7675781 0 1.0605469 2.265625 2.2646484 3.5136719 5.2724609 3.5136719 8.4697265s-1.2480469 6.2050781-3.5136719 8.4697266c-.2929688.2929688-.2929688.7675781 0 1.0605469.1464844.1464843.3378906.2197265.5302735.2197265.1914063 0 .3837891-.0732422.5302734-.2197266 2.5488281-2.5478516 3.953125-5.9316406 3.953125-9.5302734s-1.4042969-6.9824219-3.953125-9.5302734z"/><path d="m7.8847656 5.7197266c-.2929688.2929688-.2929688.7675781 0 1.0605469 1.6640625 1.6630859 2.5800782 3.8710937 2.5800782 6.2197265 0 2.3476563-.9160156 4.5566406-2.5800781 6.2197266-.2929688.2929688-.2929688.7675781 0 1.0605469.1464843.1464843.3378906.2197265.5302734.2197265.1914063 0 .3837891-.0732422.5302734-.2197266 1.9472656-1.946289 3.0195313-4.5322265 3.0195313-7.2802734 0-2.7490234-1.0722656-5.3349609-3.0195313-7.2802734-.2939453-.2939453-.7685547-.2919922-1.0605469 0z"/><path d="m3.3818359 7.9697266c-.2929688.2929688-.2929688.7675781 0 1.0605469 1.0625 1.0615234 1.647461 2.4716796 1.647461 3.9697265s-.5849609 2.9082031-1.6474609 3.9697266c-.2929688.2929688-.2929688.7675781 0 1.0605469.1464843.1464843.3378906.2197265.5302734.2197265.1914063 0 .3837891-.0732422.5302734-.2197266 1.3457031-1.3447265 2.0869141-3.1308593 2.0869141-5.0302734s-.741211-3.6855469-2.0869141-5.0302734c-.2939453-.2939453-.7685547-.2919922-1.0605469 0z"/><path d="m17.9511719 1.2197266c-.2939453-.2939453-.7685547-.2919922-1.0605469 0-.2929688.2929688-.2929688.7675781 0 1.0605469 2.8671875 2.8662109 4.4462891 6.6728515 4.4462891 10.7197265s-1.5791016 7.8535156-4.4462891 10.7197266c-.2929688.2929688-.2929688.7675781 0 1.0605469.1464844.1464843.3378906.2197265.5302734.2197265.1914063 0 .3837891-.0732422.5302734-.2197266 3.1503907-3.149414 4.8857423-7.3330078 4.8857423-11.7802734 0-4.4482422-1.7353516-8.6318359-4.8857422-11.7802734z"/></g></svg>