<svg fill="none" height="24" viewBox="0 0 24 24" width="24" xmlns="http://www.w3.org/2000/svg"><path clip-rule="evenodd" d="m1.11157 1.28603c.20105-.297403.60513-.375512.90253-.17446l1.57282 1.06326c.12947.08752.22307.21876.26366.36968l1.0235 3.80549h16.95222c.1998 0 .3885.09187.5117.24915.1232.15727.1672.36246.1194.55644l-1.8267 7.40921c-.0715.2904-.332.4944-.6311.4944h-13.63107c-.00872 0-.01741-.0002-.02606-.0005h-.46572c-.81546 0-1.47653.661-1.47653 1.4765s.66107 1.4765 1.47653 1.4765h.29079c.39444-1.1682 1.48675-2.0081 2.7725-2.0081 1.28576 0 2.37806.8399 2.77246 2.0081h3.3684c.3944-1.1682 1.4867-2.0081 2.7724-2.0081 1.2858 0 2.3781.8399 2.7725 2.0081h.4237c.359 0 .65.291.65.65 0 .3589-.291.65-.65.65h-.285c-.1651 1.482-1.4055 2.6337-2.9112 2.6337-1.5056 0-2.746-1.1517-2.9111-2.6337h-3.091c-.1651 1.482-1.4055 2.6337-2.91116 2.6337-1.50563 0-2.74599-1.1517-2.9111-2.6337h-.15219c-1.53343 0-2.77653-1.2431-2.77653-2.7765 0-1.4147 1.05812-2.5824 2.42614-2.7546l-2.86824-10.66447-1.37209-.92757c-.297403-.20105-.375512-.60513-.17446-.90253zm18.37883 12.47317h-12.56835c-.00868-.0003-.01741-.0005-.02618-.0005h-.0292l-1.64295-6.1087h15.77288zm-1.6371 6.8862c.8831 0 1.6298-.7309 1.6298-1.6709 0-.9399-.7467-1.6709-1.6298-1.6709-.883 0-1.6297.731-1.6297 1.6709 0 .94.7467 1.6709 1.6297 1.6709zm-7.2835-1.6709c0 .94-.74668 1.6709-1.62976 1.6709s-1.62977-.7309-1.62977-1.6709c0-.9399.74669-1.6709 1.62977-1.6709s1.62976.731 1.62976 1.6709z" fill="#fff" fill-rule="evenodd"/></svg>