<svg fill="none" height="25" viewBox="0 0 24 25" width="24" xmlns="http://www.w3.org/2000/svg"><rect height="8" rx="1" stroke="#0085fb" stroke-width="1.3" width="8" x="2.5" y="3.25"/><circle cx="6.5" cy="7.25" fill="#0085fb" r=".94709"/><rect height="8" rx="1" stroke="#0085fb" stroke-width="1.3" width="8" x="13.5" y="3.25"/><circle cx="17.5" cy="7.25" fill="#0085fb" r=".94709"/><rect height="8" rx="1" stroke="#0085fb" stroke-width="1.3" width="8" x="2.5" y="14.25"/><g fill="#0085fb"><circle cx="6.5" cy="18.25" r=".94709"/><path d="m18.2857 14.9c.359 0 .65-.291.65-.65s-.291-.65-.65-.65zm1.8393-1.3c-.359 0-.65.291-.65.65s.291.65.65.65zm-3.1071 9.3c.3589 0 .65-.291.65-.65s-.2911-.65-.65-.65zm2.4821-1.3c-.359 0-.65.291-.65.65s.291.65.65.65zm1.35-3.35c0 .359.291.65.65.65s.65-.291.65-.65zm1.3 2c0-.359-.291-.65-.65-.65s-.65.291-.65.65zm-5.65 1.35c-.359 0-.65.291-.65.65s.291.65.65.65zm-1.8214 1.3c.359 0 .65-.291.65-.65s-.291-.65-.65-.65zm-.5286-1.65v-6h-1.3v6zm.35-6.35h3v-1.3h-3zm5.8571 0h.1429v-1.3h-.1429zm-2.8571 0h.7857v-1.3h-.7857zm2.8571-1.3h-.2321v1.3h.2321zm.1429 8h-1v1.3h1zm.35-6.35v3h1.3v-3zm0 5v1h1.3v-1zm-3.8321 1.35h-.5179v1.3h.5179zm-2.5179 1.3h.1786v-1.3h-.1786zm-1.65-1.65c0 .9113.7387 1.65 1.65 1.65v-1.3c-.1933 0-.35-.1567-.35-.35zm7.65 1.65c.9113 0 1.65-.7387 1.65-1.65h-1.3c0 .1933-.1567.35-.35.35zm0-8c.1933 0 .35.1567.35.35h1.3c0-.9113-.7387-1.65-1.65-1.65zm-6.35.35c0-.1933.1567-.35.35-.35v-1.3c-.9113 0-1.65.7387-1.65 1.65z"/><rect height="3.21429" rx=".5" width="3.21429" x="15.8929" y="16.6429"/></g></svg>