<svg enable-background="new 0 0 24 24" viewBox="0 0 24 24" xmlns="http://www.w3.org/2000/svg"><path d="m22 3.4c-6.6-3.8-8.5 1.3-9 4.1l-.8-.8c-.3-.3-.7-.6-1.2-.7.2-1.2-.2-2.5-1.2-3.5-1 1-1.4 2.3-1.2 3.6-.6.2-1.1.6-1.6 1-.5.5-.8 1-1 1.6-1.2-.2-2.6.2-3.6 1.2 1 1 2.3 1.3 3.5 1.2.1.4.4.8.7 1.2l.8.7c-2.8.5-7.9 2.4-4.1 9 0 0 .5-2.1 2.8-.9 0 0-.8-2.2 1.8-1.8 0 0-.9-2.2 1.9-1.9 0 0-.2-.9.4-1.4l3.3 3.3 5.9.3-.3-5.9-3.3-3.3c.6-.6 1.4-.4 1.4-.4-.1-2.9 2-2 2-2-.4-2.7 1.8-1.8 1.8-1.8-1.1-2.3 1-2.8 1-2.8zm-12.8 8.6c-.4.4-1 .4-1.4 0s-.4-1 0-1.4 1-.4 1.4 0 .4 1 0 1.4zm2.8-2.8c-.4.4-1 .4-1.4 0s-.4-1 0-1.4 1-.4 1.4 0 .4 1 0 1.4z"/></svg>