<?xml version="1.0" encoding="utf-8"?>
<!-- Generator: Adobe Illustrator 18.0.0, SVG Export Plug-In . SVG Version: 6.00 Build 0)  -->
<!DOCTYPE svg PUBLIC "-//W3C//DTD SVG 1.1//EN" "http://www.w3.org/Graphics/SVG/1.1/DTD/svg11.dtd">
<svg version="1.1" id="Layer_1" xmlns="http://www.w3.org/2000/svg" xmlns:xlink="http://www.w3.org/1999/xlink" x="0px" y="0px"
	 viewBox="0 0 24 24" enable-background="new 0 0 24 24" xml:space="preserve">
<path d="M22,3.4c-6.6-3.8-8.5,1.3-9,4.1l-0.8-0.8c-0.3-0.3-0.7-0.6-1.2-0.7c0.2-1.2-0.2-2.5-1.2-3.5c-1,1-1.4,2.3-1.2,3.6
	c-0.6,0.2-1.1,0.6-1.6,1c-0.5,0.5-0.8,1-1,1.6C4.8,8.5,3.4,8.9,2.4,9.9c1,1,2.3,1.3,3.5,1.2c0.1,0.4,0.4,0.8,0.7,1.2L7.4,13
	c-2.8,0.5-7.9,2.4-4.1,9c0,0,0.5-2.1,2.8-0.9c0,0-0.8-2.2,1.8-1.8c0,0-0.9-2.2,1.9-1.9c0,0-0.2-0.9,0.4-1.4l3.3,3.3l5.9,0.3
	l-0.3-5.9l-3.3-3.3c0.6-0.6,1.4-0.4,1.4-0.4C17.1,7.1,19.2,8,19.2,8c-0.4-2.7,1.8-1.8,1.8-1.8C19.9,3.9,22,3.4,22,3.4z M9.2,12
	c-0.4,0.4-1,0.4-1.4,0c-0.4-0.4-0.4-1,0-1.4c0.4-0.4,1-0.4,1.4,0C9.6,11,9.6,11.6,9.2,12z M12,9.2c-0.4,0.4-1,0.4-1.4,0
	c-0.4-0.4-0.4-1,0-1.4c0.4-0.4,1-0.4,1.4,0C12.4,8.2,12.4,8.8,12,9.2z"/>
</svg>
