<svg enable-background="new 0 0 24 24" viewBox="0 0 24 24" xmlns="http://www.w3.org/2000/svg"><path d="m12 14.5c-2.1 0-3.8 1.1-3.8 2.4 0 1.5 1.8 4.6 3.8 4.6s3.8-3.1 3.8-4.6c0-1.3-1.7-2.4-3.8-2.4zm0 5c-1 0-2-.9-2-1.3s.9-.7 2-.7 2 .3 2 .7-1 1.3-2 1.3z"/><path d="m22 6c0-1.9-1.6-3.5-3.5-3.5-1.6 0-2.9 1.1-3.4 2.5-1-.3-2-.5-3.1-.5s-2.2.2-3.2.6c-.4-1.5-1.7-2.6-3.3-2.6-1.9 0-3.5 1.6-3.5 3.5 0 1.4.8 2.6 2 3.1-.6 1.2-1 2.5-1 3.9 0 3.1 1.8 5.9 4.5 7.3-.8-1.2-1.3-2.5-1.3-3.5 0-2.4 2.5-4.3 5.8-4.3s5.8 1.9 5.8 4.3c0 1-.5 2.3-1.3 3.5 2.7-1.5 4.5-4.2 4.5-7.3 0-1.4-.4-2.7-1-3.9 1.2-.5 2-1.7 2-3.1zm-17.3 2c-.4-.3-.7-.9-.7-1.5 0-1.1.9-2 2-2 .7 0 1.4.4 1.7 1-1.2.6-2.2 1.5-3 2.5zm3.3 3.5c-.6 0-1-.4-1-1s.4-1 1-1 1 .4 1 1-.4 1-1 1zm8 0c-.6 0-1-.4-1-1s.4-1 1-1c.5 0 1 .4 1 1s-.4 1-1 1zm3.3-3.5c-.8-1-1.8-1.9-3-2.5.3-.6 1-1 1.7-1 1.1 0 2 .9 2 2 0 .6-.3 1.2-.7 1.5z"/></svg>