<?xml version="1.0" encoding="utf-8"?>
<!-- Generator: Adobe Illustrator 18.0.0, SVG Export Plug-In . SVG Version: 6.00 Build 0)  -->
<!DOCTYPE svg PUBLIC "-//W3C//DTD SVG 1.1//EN" "http://www.w3.org/Graphics/SVG/1.1/DTD/svg11.dtd">
<svg version="1.1" id="Layer_1" xmlns="http://www.w3.org/2000/svg" xmlns:xlink="http://www.w3.org/1999/xlink" x="0px" y="0px"
	 viewBox="0 0 24 24" enable-background="new 0 0 24 24" xml:space="preserve">
<path d="M19.9,11c2.8-2.4,2-7,2-7c-3.7,0.2-4,2.1-4,2.1c-0.6-0.9-3.1-1.5-3.1-1.5C14.9,4,15.9,3,15.9,3c-1.1-0.2-2.4,0.2-3.2,0.6
	c-0.2-0.2-0.4-0.8-1.1-1.1C11.1,2.3,10.5,2.3,10,2c0.1,0.4,0.5,0.9,0.8,1.2c0.1,0.1,0.1,0.2,0.1,0.3C10.1,3.1,9,2.8,8.1,3
	c0,0,1,0.9,1.1,1.6c0,0-2.5,0.6-3.1,1.5c0,0-0.2-1.8-4-2.1c0,0-0.8,4.6,2,7c0,0-1,1-1,2c0,1-0.7,2-0.7,2s0.6-0.2,1-1
	c0,0-0.9,3,0.7,4l0.3-1c0,0,0.9,2.8,0.3,3.4c0,0,0.7-0.6,0.7-1.1c0,0,0.5,1.2,1.7,1.7l1-1c0,0,1,1.2,1,2c0,0,0.6-0.9,0.6-1.3
	c0,0,1,1.2,2.4,1.2v0c0,0,0,0,0,0c0,0,0,0,0,0v0c1.3,0,2.4-1.2,2.4-1.2c0,0.4,0.6,1.3,0.6,1.3c0-0.8,1-2,1-2l1,1
	c1.2-0.5,1.7-1.7,1.7-1.7c0,0.5,0.7,1.1,0.7,1.1c-0.6-0.6,0.3-3.4,0.3-3.4l0.3,1c1.6-1,0.7-4,0.7-4c0.4,0.8,1,1,1,1s-0.7-1-0.7-2
	C20.9,12,19.9,11,19.9,11z M7,9c1.8-0.1,3.1,1.2,3,3C8.3,12.1,6.9,10.8,7,9z M15.6,19.3c-0.1,0.2-0.2,0.4-0.4,0.5
	C15.1,19.9,15,20,14.8,20c-0.6,0.2-1.2,0.1-1.8-0.2c-0.4-0.2-0.7-0.5-1.1-0.6c-0.4,0.1-0.7,0.4-1.1,0.6c-0.5,0.3-1.2,0.3-1.8,0.2
	c-0.2,0-0.3-0.1-0.4-0.2c-0.2-0.1-0.3-0.3-0.4-0.5C8,18.6,7.9,17.8,8.1,17c0.2-0.8,0.6-1.5,1.2-2c-0.4,0.7-0.5,1.5-0.2,2.3
	c0.1,0.2,0.2,0.4,0.3,0.6c0.4,0.4,1.1,0.5,1.5,0.2c0.4-0.3,0.6-1,0.3-1.5c-0.2-0.3-0.4-0.5-0.7-0.7c-0.2-0.2-0.5-0.4-0.5-0.7
	l-0.1-0.3c0-0.2,0-0.4,0.1-0.5c0.1-0.1,0.3-0.2,0.5-0.2c0.1,0,0.2,0,0.3,0.1c0.3,0.1,0.6,0.2,0.9,0.2c0.1,0,0.2,0,0.2,0
	c0,0,0.1,0,0.1,0.1c0,0,0,0,0.1-0.1c0.1,0,0.2,0,0.2,0c0.3,0,0.6-0.1,0.9-0.2c0.1,0,0.2-0.1,0.3-0.1c0.2,0,0.3,0,0.5,0.2
	c0.1,0.1,0.2,0.3,0.1,0.5l-0.1,0.3c-0.1,0.3-0.3,0.5-0.5,0.7c-0.2,0.2-0.5,0.4-0.7,0.7c-0.3,0.5-0.2,1.2,0.3,1.5
	c0.4,0.4,1.1,0.2,1.5-0.2c0.2-0.2,0.3-0.4,0.3-0.6c0.2-0.7,0.2-1.6-0.2-2.3c0.6,0.5,1.1,1.2,1.2,2C16.1,17.8,16,18.6,15.6,19.3z
	 M14,12c-0.1-1.8,1.2-3.1,3-3C17.1,10.8,15.8,12.1,14,12z"/>
</svg>
