<svg enable-background="new 0 0 24 24" viewBox="0 0 24 24" xmlns="http://www.w3.org/2000/svg"><path d="m19.9 11c2.8-2.4 2-7 2-7-3.7.2-4 2.1-4 2.1-.6-.9-3.1-1.5-3.1-1.5.1-.6 1.1-1.6 1.1-1.6-1.1-.2-2.4.2-3.2.6-.2-.2-.4-.8-1.1-1.1-.5-.2-1.1-.2-1.6-.5.1.4.5.9.8 1.2.1.1.1.2.1.3-.8-.4-1.9-.7-2.8-.5 0 0 1 .9 1.1 1.6 0 0-2.5.6-3.1 1.5 0 0-.2-1.8-4-2.1 0 0-.8 4.6 2 7 0 0-1 1-1 2s-.7 2-.7 2 .6-.2 1-1c0 0-.9 3 .7 4l.3-1s.9 2.8.3 3.4c0 0 .7-.6.7-1.1 0 0 .5 1.2 1.7 1.7l1-1s1 1.2 1 2c0 0 .6-.9.6-1.3 0 0 1 1.2 2.4 1.2 1.3 0 2.4-1.2 2.4-1.2 0 .4.6 1.3.6 1.3 0-.8 1-2 1-2l1 1c1.2-.5 1.7-1.7 1.7-1.7 0 .5.7 1.1.7 1.1-.6-.6.3-3.4.3-3.4l.3 1c1.6-1 .7-4 .7-4 .4.8 1 1 1 1s-.7-1-.7-2c-.2-1-1.2-2-1.2-2zm-12.9-2c1.8-.1 3.1 1.2 3 3-1.7.1-3.1-1.2-3-3zm8.6 10.3c-.1.2-.2.4-.4.5-.1.1-.2.2-.4.2-.6.2-1.2.1-1.8-.2-.4-.2-.7-.5-1.1-.6-.4.1-.7.4-1.1.6-.5.3-1.2.3-1.8.2-.2 0-.3-.1-.4-.2-.2-.1-.3-.3-.4-.5-.2-.7-.3-1.5-.1-2.3s.6-1.5 1.2-2c-.4.7-.5 1.5-.2 2.3l.3.6c.4.4 1.1.5 1.5.2s.6-1 .3-1.5c-.2-.3-.4-.5-.7-.7-.2-.2-.5-.4-.5-.7l-.1-.3c0-.2 0-.4.1-.5s.3-.2.5-.2c.1 0 .2 0 .3.1.3.1.6.2.9.2h.2s.1 0 .1.1c0 0 0 0 .1-.1h.2c.3 0 .6-.1.9-.2.1 0 .2-.1.3-.1.2 0 .3 0 .5.2.1.1.2.3.1.5l-.1.3c-.1.3-.3.5-.5.7s-.5.4-.7.7c-.3.5-.2 1.2.3 1.5.4.4 1.1.2 1.5-.2.2-.2.3-.4.3-.6.2-.7.2-1.6-.2-2.3.6.5 1.1 1.2 1.2 2 .2.8.1 1.6-.3 2.3zm-1.6-7.3c-.1-1.8 1.2-3.1 3-3 .1 1.8-1.2 3.1-3 3z"/></svg>