<svg enable-background="new 0 0 24 24" viewBox="0 0 24 24" xmlns="http://www.w3.org/2000/svg"><path d="m21.5 10.5s.4-3.8-.5-8c0 0-2 .9-3.7 2.7-1.5-1-3.4-1.7-5.3-1.7-2 0-3.8.6-5.3 1.7-1.6-1.8-3.7-2.7-3.7-2.7-.9 4.2-.5 8-.5 8s0 0 0 0c-.3 1-.5 2-.5 3 0 5 4.5 8 10 8s10-3 10-8c0-1-.2-2-.5-3zm-5.5-2c.6 0 1 .4 1 1s-.4 1-1 1-1-.4-1-1c0-.5.4-1 1-1zm-7 1c0 .6-.4 1-1 1s-1-.4-1-1 .4-1 1-1 1 .5 1 1zm4.9 10.2c-.4 0-.8-.1-1.2-.3-.3-.1-.5-.3-.7-.5-.2.2-.5.4-.7.5-.4.2-.8.3-1.2.3-1.7 0-3.4-1.2-3.6-1.4l1.2-1.6c.8.6 2.1 1.2 2.7.9.3-.1.5-.6.6-1.3-1.1-.3-1.9-1-1.9-1.9 0-1.1 1.3-2 3-2s3 .9 3 2c0 .9-.8 1.6-1.9 1.9.1.7.3 1.1.6 1.3.6.3 2.1-.5 2.7-.9l1.2 1.6c-.4.2-2.1 1.4-3.8 1.4z"/></svg>