<?xml version="1.0" encoding="utf-8"?>
<!-- Generator: Adobe Illustrator 18.0.0, SVG Export Plug-In . SVG Version: 6.00 Build 0)  -->
<!DOCTYPE svg PUBLIC "-//W3C//DTD SVG 1.1//EN" "http://www.w3.org/Graphics/SVG/1.1/DTD/svg11.dtd">
<svg version="1.1" id="Layer_1" xmlns="http://www.w3.org/2000/svg" xmlns:xlink="http://www.w3.org/1999/xlink" x="0px" y="0px"
	 viewBox="0 0 24 24" enable-background="new 0 0 24 24" xml:space="preserve">
<path d="M21.5,10.5C21.5,10.5,21.5,10.5,21.5,10.5c0,0,0.4-3.8-0.5-8c0,0-2,0.9-3.7,2.7c-1.5-1-3.4-1.7-5.3-1.7
	c-2,0-3.8,0.6-5.3,1.7C5.1,3.4,3,2.5,3,2.5c-0.9,4.2-0.5,8-0.5,8s0,0,0,0c-0.3,1-0.5,2-0.5,3c0,5,4.5,8,10,8c5.5,0,10-3,10-8
	C22,12.5,21.8,11.5,21.5,10.5z M16,8.5c0.6,0,1,0.4,1,1c0,0.6-0.4,1-1,1c-0.6,0-1-0.4-1-1C15,9,15.4,8.5,16,8.5z M9,9.5
	c0,0.6-0.4,1-1,1c-0.6,0-1-0.4-1-1c0-0.6,0.4-1,1-1C8.6,8.5,9,9,9,9.5z M13.9,19.7c-0.4,0-0.8-0.1-1.2-0.3c-0.3-0.1-0.5-0.3-0.7-0.5
	c-0.2,0.2-0.5,0.4-0.7,0.5c-0.4,0.2-0.8,0.3-1.2,0.3c-1.7,0-3.4-1.2-3.6-1.4l1.2-1.6c0.8,0.6,2.1,1.2,2.7,0.9
	c0.3-0.1,0.5-0.6,0.6-1.3c-1.1-0.3-1.9-1-1.9-1.9c0-1.1,1.3-2,3-2c1.7,0,3,0.9,3,2c0,0.9-0.8,1.6-1.9,1.9c0.1,0.7,0.3,1.1,0.6,1.3
	c0.6,0.3,2.1-0.5,2.7-0.9l1.2,1.6C17.3,18.5,15.6,19.7,13.9,19.7z"/>
</svg>
