<svg enable-background="new 0 0 24 24" viewBox="0 0 24 24" xmlns="http://www.w3.org/2000/svg"><path d="m19.2 8.1c-1.5-.9-2.9-1.3-4.1-1.5v-.1c0-2.5-2.1-4.5-4.6-4.5-2 0-3.7 1.3-4.3 3.1h-4.2l3 1.1-2 1.9 3-.8c.2 1.2.9 2.3 1.9 3-.8 4.1 2.4 6.6 4.1 7.6v2.2h-1c-1.1 0-2 .9-2 2h8v-.6-2.1c1.2-.6 1.7-1.9 1.7-1.9l2.7-3.4c.1-.1 2.1-3.3-2.2-6zm-4.2 12h-1v-1c.4.2.7.3 1 .4zm3.2-7.6c-.1.2-.2.4-.4.6 0 0-.1.1-.1.1v.1c0 .2.1.4 0 .6-.1.4-.2.6-.3.9-.1.2-.3.4-.4.6-.1.1-.2.2-.2.3-.1.1-.2.2-.3.3l-.3.3-.5-.1c-.4-.1-.8-.2-1.2-.3s-.8-.3-1.1-.4c-.4-.2-.7-.4-1.1-.6-.2-.1-.3-.3-.5-.4s-.3-.3-.5-.4c-.1-.2-.3-.3-.4-.5s-.3-.4-.4-.6-.2-.4-.3-.6c0-.2-.1-.5-.1-.7s0-.4 0-.7c0-.2.1-.4.2-.6.1-.4.4-.8.7-1-.1.8 0 1.5.3 2.1.1.3.3.5.5.7s.4.4.7.6c.2.2.6.3.8.5.3.1.6.3.9.4s.6.3 1 .4c.2.1.4.1.6.2.1-.1.2-.2.3-.3s.2-.2.2-.2h.1.1l.2-.9c.2-.1.3-.1.5-.2s.3-.2.5-.3c.1-.1.3-.2.4-.4.1-.1.1-.2.1-.2 0-.1 0-.2 0-.3.1.1.2.2.2.3.1.1.1.3.1.4-.1-.1-.2.1-.3.3z"/></svg>