<?xml version="1.0" encoding="utf-8"?>
<!-- Generator: Adobe Illustrator 18.0.0, SVG Export Plug-In . SVG Version: 6.00 Build 0)  -->
<!DOCTYPE svg PUBLIC "-//W3C//DTD SVG 1.1//EN" "http://www.w3.org/Graphics/SVG/1.1/DTD/svg11.dtd">
<svg version="1.1" id="Layer_1" xmlns="http://www.w3.org/2000/svg" xmlns:xlink="http://www.w3.org/1999/xlink" x="0px" y="0px"
	 viewBox="0 0 24 24" enable-background="new 0 0 24 24" xml:space="preserve">
<path d="M19.2,8.1c-1.5-0.9-2.9-1.3-4.1-1.5c0,0,0-0.1,0-0.1C15.1,4,13,2,10.5,2c-2,0-3.7,1.3-4.3,3.1L2,5.1l3,1.1L3,8.1l3-0.8
	c0.2,1.2,0.9,2.3,1.9,3c-0.8,4.1,2.4,6.6,4.1,7.6v2.2h-1c-1.1,0-2,0.9-2,2h8v-0.6h0v-2.1c1.2-0.6,1.7-1.9,1.7-1.9l2.7-3.4
	C21.5,14,23.5,10.8,19.2,8.1z M15,20.1h-1v-1c0.4,0.2,0.7,0.3,1,0.4V20.1z M18.2,12.5c-0.1,0.2-0.2,0.4-0.4,0.6c0,0-0.1,0.1-0.1,0.1
	c0,0,0,0,0,0.1c0,0.2,0.1,0.4,0,0.6c-0.1,0.4-0.2,0.6-0.3,0.9c-0.1,0.2-0.3,0.4-0.4,0.6c-0.1,0.1-0.2,0.2-0.2,0.3
	c-0.1,0.1-0.2,0.2-0.3,0.3l-0.3,0.3l-0.5-0.1c-0.4-0.1-0.8-0.2-1.2-0.3c-0.4-0.1-0.8-0.3-1.1-0.4c-0.4-0.2-0.7-0.4-1.1-0.6
	c-0.2-0.1-0.3-0.3-0.5-0.4c-0.2-0.1-0.3-0.3-0.5-0.4c-0.1-0.2-0.3-0.3-0.4-0.5c-0.1-0.2-0.3-0.4-0.4-0.6c-0.1-0.2-0.2-0.4-0.3-0.6
	c0-0.2-0.1-0.5-0.1-0.7c0-0.2,0-0.4,0-0.7c0-0.2,0.1-0.4,0.2-0.6c0.1-0.4,0.4-0.8,0.7-1c-0.1,0.8,0,1.5,0.3,2.1
	c0.1,0.3,0.3,0.5,0.5,0.7c0.2,0.2,0.4,0.4,0.7,0.6c0.2,0.2,0.6,0.3,0.8,0.5c0.3,0.1,0.6,0.3,0.9,0.4c0.3,0.1,0.6,0.3,1,0.4
	c0.2,0.1,0.4,0.1,0.6,0.2c0.1-0.1,0.2-0.2,0.3-0.3c0.1-0.1,0.2-0.2,0.2-0.2c0,0,0,0,0.1,0c0,0,0,0,0.1,0l0.2-0.9
	c0.2-0.1,0.3-0.1,0.5-0.2c0.2-0.1,0.3-0.2,0.5-0.3c0.1-0.1,0.3-0.2,0.4-0.4c0.1-0.1,0.1-0.2,0.1-0.2c0-0.1,0-0.2,0-0.3
	c0.1,0.1,0.2,0.2,0.2,0.3c0.1,0.1,0.1,0.3,0.1,0.4C18.4,12.1,18.3,12.3,18.2,12.5z"/>
</svg>
