<svg enable-background="new 0 0 24 24" viewBox="0 0 24 24" xmlns="http://www.w3.org/2000/svg"><path d="m12 14.1c-3.3 0-6 1.8-6 4 0 1.6 1.5 3 3.5 3.6.8.2 1.6.3 2.5.3s1.7-.1 2.5-.3c2-.6 3.5-2 3.5-3.6 0-2.2-2.7-4-6-4zm-3 4.9c-.6 0-1-.4-1-1s.4-1 1-1 1 .4 1 1-.5 1-1 1zm6 0c-.6 0-1-.4-1-1s.4-1 1-1 1 .4 1 1-.4 1-1 1z"/><path d="m22 13c0-1.5-.4-3-1.2-4.3 1.1-1 1.5-2.3 1-3.1-.5-.7-1.5-.8-2.7-.5l.9-1.8c.2-.4.1-.8-.2-1l-.2-.2c-.3-.3-.7-.3-1-.1l-3.6 2.4c-1-.3-2-.4-3-.4s-2.1.2-3 .4l-3.5-2.3c-.3-.2-.8-.1-1.1.1l-.1.2c-.3.2-.4.6-.2 1l.9 1.8c-1.2-.4-2.3-.2-2.8.5-.5.8-.1 2 1 3.1-.8 1.2-1.2 2.7-1.2 4.2 0 2 .8 3.9 2 5.4 0-.1 0-.2 0-.3 0-3.3 3.6-6 8-6s8 2.7 8 6v.3c1.2-1.5 2-3.4 2-5.4zm-13-3c-.6 0-1-.4-1-1s.4-1 1-1 1 .4 1 1-.4 1-1 1zm6 0c-.6 0-1-.4-1-1s.4-1 1-1 1 .4 1 1-.4 1-1 1z"/></svg>