<?xml version="1.0" encoding="utf-8"?>
<!-- Generator: Adobe Illustrator 18.0.0, SVG Export Plug-In . SVG Version: 6.00 Build 0)  -->
<!DOCTYPE svg PUBLIC "-//W3C//DTD SVG 1.1//EN" "http://www.w3.org/Graphics/SVG/1.1/DTD/svg11.dtd">
<svg version="1.1" id="Layer_1" xmlns="http://www.w3.org/2000/svg" xmlns:xlink="http://www.w3.org/1999/xlink" x="0px" y="0px"
	 viewBox="0 0 24 24" enable-background="new 0 0 24 24" xml:space="preserve">
<path d="M16.1,5c-1.7,0-6.4,0-8.1,0C6.2,5,2,8.1,2,12.6s3,3.7,3,3.7c-0.4-2.1,0.1-3.9,0.8-5.3h0.7C6.2,12,6,13.1,6,14.5
	c0,4.7,6,4.5,6,4.5s6,0.2,6-4.5c0-1.4-0.2-2.6-0.5-3.6h0.7c0.7,1.4,1.2,3.3,0.8,5.3c0,0,3,0.7,3-3.7S17.8,5,16.1,5z M9,9.5
	c0-0.6,0.5-1,1-1c0.6,0,1,0.5,1,1s-0.5,1-1,1C9.4,10.5,9,10.1,9,9.5z M14,14.5l-1.6,1.6c-0.2,0.2-0.6,0.2-0.8,0L10,14.5
	c-0.4-0.4-0.1-1,0.4-1l3.1,0C14.1,13.5,14.4,14.1,14,14.5z M14,10.5c-0.6,0-1-0.5-1-1s0.5-1,1-1c0.6,0,1,0.5,1,1S14.6,10.5,14,10.5z
	"/>
</svg>
