<svg enable-background="new 0 0 24 24" viewBox="0 0 24 24" xmlns="http://www.w3.org/2000/svg"><path d="m16.1 5c-1.7 0-6.4 0-8.1 0-1.8 0-6 3.1-6 7.6s3 3.7 3 3.7c-.4-2.1.1-3.9.8-5.3h.7c-.3 1-.5 2.1-.5 3.5 0 4.7 6 4.5 6 4.5s6 .2 6-4.5c0-1.4-.2-2.6-.5-3.6h.7c.7 1.4 1.2 3.3.8 5.3 0 0 3 .7 3-3.7s-4.2-7.5-5.9-7.5zm-7.1 4.5c0-.6.5-1 1-1 .6 0 1 .5 1 1s-.5 1-1 1c-.6 0-1-.4-1-1zm5 5-1.6 1.6c-.2.2-.6.2-.8 0l-1.6-1.6c-.4-.4-.1-1 .4-1h3.1c.6 0 .9.6.5 1zm0-4c-.6 0-1-.5-1-1s.5-1 1-1c.6 0 1 .5 1 1s-.4 1-1 1z"/></svg>