<svg enable-background="new 0 0 24 24" viewBox="0 0 24 24" xmlns="http://www.w3.org/2000/svg"><path d="m20 21.8c0 .1-.1.1-.1.2 0 0 .1-.1.1-.2z"/><path d="m20.9 6c-1.3-1.5-3.4-2-5-2.1-.3-.5-2.5-3.3-8.9-1-7 2.6-5 12.3-4 14 1 1.8-1 5-1 5s4-.7 4-4c0 0 3.6 2.8 3 4 0 0 3.5-1.7 2-4 0 0 4 2.6 3 4 0 0 3.2-1.8 1-4-2.1-2.2 5.7 2.1 5.1 3.8.5-.8 2.4-4.7-1.1-6.9-3-1.8-2.6-3.7-2.2-4.4 1.5-1 3.4.1 3.7.3l1.2.8.3-1.5c.2-1.5-.1-2.9-1.1-4zm-9.9 2c-.6 0-1-.5-1-1 0-.6.5-1 1-1 .6 0 1 .5 1 1s-.5 1-1 1zm4 1.3-1-.4 1.3-3.1c1.4.1 3.3.4 4.3 1.5.3.3.4.6.5 1-1.6-.4-3.6-.4-5.1 1z"/></svg>