<?xml version="1.0" encoding="utf-8"?>
<!-- Generator: Adobe Illustrator 18.0.0, SVG Export Plug-In . SVG Version: 6.00 Build 0)  -->
<!DOCTYPE svg PUBLIC "-//W3C//DTD SVG 1.1//EN" "http://www.w3.org/Graphics/SVG/1.1/DTD/svg11.dtd">
<svg version="1.1" id="Layer_1" xmlns="http://www.w3.org/2000/svg" xmlns:xlink="http://www.w3.org/1999/xlink" x="0px" y="0px"
	 viewBox="0 0 24 24" enable-background="new 0 0 24 24" xml:space="preserve">
<g>
	<path d="M20,21.8c0,0.1-0.1,0.1-0.1,0.2C19.9,22,20,21.9,20,21.8z"/>
	<path d="M20.9,6c-1.3-1.5-3.4-2-5-2.1C15.6,3.4,13.4,0.6,7,2.9c-7,2.6-5,12.3-4,14c1,1.8-1,5-1,5s4-0.7,4-4c0,0,3.6,2.8,3,4
		c0,0,3.5-1.7,2-4c0,0,4,2.6,3,4c0,0,3.2-1.8,1-4c-2.1-2.2,5.7,2.1,5.1,3.8c0.5-0.8,2.4-4.7-1.1-6.9c-3-1.8-2.6-3.7-2.2-4.4
		c1.5-1,3.4,0.1,3.7,0.3l1.2,0.8l0.3-1.5C22.2,8.5,21.9,7.1,20.9,6z M11,8c-0.6,0-1-0.5-1-1c0-0.6,0.5-1,1-1c0.6,0,1,0.5,1,1
		C12,7.5,11.5,8,11,8z M15,9.3l-1-0.4l1.3-3.1c1.4,0.1,3.3,0.4,4.3,1.5c0.3,0.3,0.4,0.6,0.5,1C18.5,7.9,16.5,7.9,15,9.3z"/>
</g>
</svg>
