<svg enable-background="new 0 0 24 24" viewBox="0 0 24 24" xmlns="http://www.w3.org/2000/svg"><path d="m17.4 2c-.9 0-1.8.3-2.5.9-.8-.5-1.8-.9-2.9-.9s-2.1.3-3 .9c-.7-.6-1.5-.9-2.4-.9-2.6 0-4.6 2.6-4.6 6s2 6 4.6 6c.4 0 .7-.1 1.1-.2-.1.4-.3.7-.4 1.1-.3 1-.5 2-.5 2.8v.9.3h.5s0-.1.1-.3c0-.2.1-.5.2-.8.2-.7.6-1.5 1.1-2.3.2-.3.4-.6.6-.9.2.1.4.2.6.3 0 .1.1.1.1.2.2.3.5.6.7.9.5.6.9 1.1 1.2 1.5s.3.7.3.8c0 .4-.2.7-.4 1-.1.1-.2.2-.4.3-.1.1-.3.1-.4.2-.2.1-.4.1-.4.1v2h.6c.2 0 .4 0 .7-.1.3 0 .6-.1.9-.3.7-.3 1.4-1 1.9-2 .1-.2.2-.5.3-.8 0-.1.1-.3.1-.5 0-.3 0-.1.1-.5 0-.8-.1-1.4-.2-1.9-.1-.3-.1-.6.1-.9.1.1.2.3.3.4.5.8.9 1.6 1.1 2.3.1.3.2.6.2.8s.1.3.1.3h.5s0-.1 0-.3 0-.5 0-.9c0-.8-.2-1.8-.5-2.8-.1-.4-.3-.8-.4-1.1.4.1.7.2 1.1.2 2.5.2 4.5-2.5 4.5-5.8 0-3.4-2-6-4.6-6zm-10.7 9.9c-.1 0-.1 0-.2 0-1.3.1-2.5-1.8-2.5-3.9s1.2-4 2.6-4c.3 0 .6.1.9.3-.9 1.2-1.5 2.7-1.5 4.4 0 1.2.3 2.3.7 3.2zm2.3-.9c-.6 0-1-.4-1-1s.4-1 1-1 1 .4 1 1-.5 1-1 1zm6 0c-.6 0-1-.4-1-1s.4-1 1-1 1 .4 1 1-.5 1-1 1zm2.4 1c-.1 0-.1 0-.2 0 .4-.8.7-1.9.7-3.2 0-1.7-.6-3.2-1.5-4.4.3-.2.6-.3 1-.3 1.4-.1 2.6 1.7 2.6 3.9s-1.2 4-2.6 4z"/></svg>