<?xml version="1.0" encoding="utf-8"?>
<!-- Generator: Adobe Illustrator 18.0.0, SVG Export Plug-In . SVG Version: 6.00 Build 0)  -->
<!DOCTYPE svg PUBLIC "-//W3C//DTD SVG 1.1//EN" "http://www.w3.org/Graphics/SVG/1.1/DTD/svg11.dtd">
<svg version="1.1" id="Layer_1" xmlns="http://www.w3.org/2000/svg" xmlns:xlink="http://www.w3.org/1999/xlink" x="0px" y="0px"
	 viewBox="0 0 24 24" enable-background="new 0 0 24 24" xml:space="preserve">
<path d="M17.4,2c-0.9,0-1.8,0.3-2.5,0.9C14.1,2.4,13.1,2,12,2c-1.1,0-2.1,0.3-3,0.9C8.3,2.3,7.5,2,6.6,2C4,2,2,4.6,2,8
	c0,3.4,2,6,4.6,6c0.4,0,0.7-0.1,1.1-0.2c-0.1,0.4-0.3,0.7-0.4,1.1c-0.3,1-0.5,2-0.5,2.8c0,0.4,0,0.7,0,0.9c0,0.2,0,0.3,0,0.3l0.5,0
	c0,0,0-0.1,0.1-0.3c0-0.2,0.1-0.5,0.2-0.8c0.2-0.7,0.6-1.5,1.1-2.3c0.2-0.3,0.4-0.6,0.6-0.9c0.2,0.1,0.4,0.2,0.6,0.3
	c0,0.1,0.1,0.1,0.1,0.2c0.2,0.3,0.5,0.6,0.7,0.9c0.5,0.6,0.9,1.1,1.2,1.5c0.3,0.4,0.3,0.7,0.3,0.8c0,0.4-0.2,0.7-0.4,1
	c-0.1,0.1-0.2,0.2-0.4,0.3c-0.1,0.1-0.3,0.1-0.4,0.2c-0.2,0.1-0.4,0.1-0.4,0.1v2c0,0,0.2,0,0.6,0c0.2,0,0.4,0,0.7-0.1
	c0.3,0,0.6-0.1,0.9-0.3c0.7-0.3,1.4-1,1.9-2c0.1-0.2,0.2-0.5,0.3-0.8c0-0.1,0.1-0.3,0.1-0.5c0-0.3,0-0.1,0.1-0.5
	c0-0.8-0.1-1.4-0.2-1.9c-0.1-0.3-0.1-0.6,0.1-0.9c0.1,0.1,0.2,0.3,0.3,0.4c0.5,0.8,0.9,1.6,1.1,2.3c0.1,0.3,0.2,0.6,0.2,0.8
	c0,0.2,0.1,0.3,0.1,0.3l0.5,0c0,0,0-0.1,0-0.3c0-0.2,0-0.5,0-0.9c0-0.8-0.2-1.8-0.5-2.8c-0.1-0.4-0.3-0.8-0.4-1.1
	c0.4,0.1,0.7,0.2,1.1,0.2C20,14,22,11.3,22,8C22,4.6,20,2,17.4,2z M6.7,11.9c-0.1,0-0.1,0-0.2,0C5.2,12,4,10.1,4,8s1.2-4,2.6-4
	c0.3,0,0.6,0.1,0.9,0.3C6.6,5.5,6,7,6,8.7C6,9.9,6.3,11,6.7,11.9z M9,11c-0.6,0-1-0.4-1-1c0-0.6,0.4-1,1-1s1,0.4,1,1
	C10,10.6,9.5,11,9,11z M15,11c-0.6,0-1-0.4-1-1c0-0.6,0.4-1,1-1c0.6,0,1,0.4,1,1C16,10.6,15.5,11,15,11z M17.4,12
	c-0.1,0-0.1,0-0.2,0c0.4-0.8,0.7-1.9,0.7-3.2c0-1.7-0.6-3.2-1.5-4.4c0.3-0.2,0.6-0.3,1-0.3C18.8,4,20,5.8,20,8S18.8,12,17.4,12z"/>
</svg>
