<svg enable-background="new 0 0 24 24" viewBox="0 0 24 24" xmlns="http://www.w3.org/2000/svg"><path d="m3.9 7.3c1.7-.2 3.8-.1 5.6 1.1 1.1.7 1.9 1.7 2.5 3 .6-1.3 1.4-2.3 2.5-3 1.8-1.2 3.9-1.3 5.6-1.1 0-.1-.1-.2-.1-.3.1-.3 1.9-2.6 2-5-.5.1-3.8.1-5 2 0 0-2.9-.9-5-1-2.1 0-5 1-5 1-1.2-1.8-4.5-1.9-5-2 .1 2.4 1.9 4.7 2 5 0 .1-.1.2-.1.3z"/><path d="m22 14.8c0-1-1.2-1.7-1.1-2.7 0-.2.2-1.1-.2-2.7-1.5-.3-3.6-.4-5.2.7s-2.4 3.1-2.5 6.1c.6.3 1 .7 1 1.3 0 .8-.9 1.5-2 1.5s-2-.7-2-1.5c0-.5.4-1 1-1.3-.1-3-1-5.1-2.5-6.1-1.7-1.1-3.8-1-5.3-.7-.3 1.6-.2 2.5-.1 2.7.1 1-1.1 1.7-1.1 2.7.2 0 .4 0 .6.1-.6.7-.6 1.8-.1 2.5.6-.4 1.3-.5 1.9-.4-.6.4-.9 1.2-.7 1.9.7 0 1.4-.3 1.8-.8-.1.5.4 1 .8 1.3.5.3 1 .7 1 1.3.7-.3 1.5.1 1.7-.6.8 1.2 1.6 1.3 2.9 1.8 1.3-.5 2.1-.6 2.9-1.8.2.7 1.1.3 1.7.6 0-.6.6-.9 1-1.3.5-.3 1-.8.8-1.3.5.5 1.1.8 1.8.8.2-.7-.1-1.5-.7-1.9.6-.1 1.3 0 1.9.4.5-.7.5-1.8-.1-2.5.4 0 .6-.1.8-.1zm-14-1.7c-.6 0-1-.4-1-1s.4-1 1-1 1 .4 1 1c0 .5-.4 1-1 1zm8 0c-.6 0-1-.4-1-1s.4-1 1-1 1 .4 1 1c0 .5-.4 1-1 1z"/></svg>