<?xml version="1.0" encoding="utf-8"?>
<!-- Generator: Adobe Illustrator 18.0.0, SVG Export Plug-In . SVG Version: 6.00 Build 0)  -->
<!DOCTYPE svg PUBLIC "-//W3C//DTD SVG 1.1//EN" "http://www.w3.org/Graphics/SVG/1.1/DTD/svg11.dtd">
<svg version="1.1" id="Layer_1" xmlns="http://www.w3.org/2000/svg" xmlns:xlink="http://www.w3.org/1999/xlink" x="0px" y="0px"
	 viewBox="0 0 24 24" enable-background="new 0 0 24 24" xml:space="preserve">
<g>
	<path d="M3.9,7.3c1.7-0.2,3.8-0.1,5.6,1.1c1.1,0.7,1.9,1.7,2.5,3c0.6-1.3,1.4-2.3,2.5-3c1.8-1.2,3.9-1.3,5.6-1.1
		C20.1,7.2,20,7.1,20,7c0.1-0.3,1.9-2.6,2-5c-0.5,0.1-3.8,0.1-5,2c0,0-2.9-0.9-5-1c-2.1,0-5,1-5,1C5.8,2.2,2.5,2.1,2,2
		c0.1,2.4,1.9,4.7,2,5C4,7.1,3.9,7.2,3.9,7.3z"/>
	<path d="M22,14.8c0-1-1.2-1.7-1.1-2.7c0-0.2,0.2-1.1-0.2-2.7c-1.5-0.3-3.6-0.4-5.2,0.7c-1.6,1.1-2.4,3.1-2.5,6.1
		c0.6,0.3,1,0.7,1,1.3c0,0.8-0.9,1.5-2,1.5c-1.1,0-2-0.7-2-1.5c0-0.5,0.4-1,1-1.3c-0.1-3-1-5.1-2.5-6.1C6.8,9,4.7,9.1,3.2,9.4
		C2.9,11,3,11.9,3.1,12.1c0.1,1-1.1,1.7-1.1,2.7c0.2,0,0.4,0,0.6,0.1C2,15.6,2,16.7,2.5,17.4C3.1,17,3.8,16.9,4.4,17
		c-0.6,0.4-0.9,1.2-0.7,1.9c0.7,0,1.4-0.3,1.8-0.8c-0.1,0.5,0.4,1,0.8,1.3c0.5,0.3,1,0.7,1,1.3c0.7-0.3,1.5,0.1,1.7-0.6
		c0.8,1.2,1.6,1.3,2.9,1.8c1.3-0.5,2.1-0.6,2.9-1.8c0.2,0.7,1.1,0.3,1.7,0.6c0-0.6,0.6-0.9,1-1.3c0.5-0.3,1-0.8,0.8-1.3
		c0.5,0.5,1.1,0.8,1.8,0.8c0.2-0.7-0.1-1.5-0.7-1.9c0.6-0.1,1.3,0,1.9,0.4c0.5-0.7,0.5-1.8-0.1-2.5C21.6,14.9,21.8,14.8,22,14.8z
		 M8,13.1c-0.6,0-1-0.4-1-1c0-0.6,0.4-1,1-1s1,0.4,1,1C9,12.6,8.6,13.1,8,13.1z M16,13.1c-0.6,0-1-0.4-1-1c0-0.6,0.4-1,1-1
		c0.6,0,1,0.4,1,1C17,12.6,16.6,13.1,16,13.1z"/>
</g>
</svg>
