<?xml version="1.0" encoding="utf-8"?>
<!-- Generator: Adobe Illustrator 18.0.0, SVG Export Plug-In . SVG Version: 6.00 Build 0)  -->
<!DOCTYPE svg PUBLIC "-//W3C//DTD SVG 1.1//EN" "http://www.w3.org/Graphics/SVG/1.1/DTD/svg11.dtd">
<svg version="1.1" id="Layer_1" xmlns="http://www.w3.org/2000/svg" xmlns:xlink="http://www.w3.org/1999/xlink" x="0px" y="0px"
	 viewBox="0 0 24 24" enable-background="new 0 0 24 24" xml:space="preserve">
<g>
	<path d="M2.7,16.3C4.2,19.1,7.8,21,12,21s7.8-1.9,9.3-4.7C18.9,18,15.6,19,12,19C8.4,19,5.1,18,2.7,16.3z"/>
	<circle cx="7" cy="8" r="1"/>
	<circle cx="17" cy="8" r="1"/>
	<path d="M22,8c0-2.8-2.2-5-5-5c-2.1,0-3.8,1.2-4.6,3c-0.1,0-0.3,0-0.4,0c-0.1,0-0.3,0-0.4,0C10.8,4.2,9.1,3,7,3C4.2,3,2,5.2,2,8
		c0,1,0.3,1.9,0.8,2.7C2.4,11.4,2.1,12.1,2,13c1.8,2.4,5.6,4,10,4c4.4,0,8.2-1.7,10-4c-0.1-0.8-0.3-1.6-0.7-2.3C21.7,9.9,22,9,22,8z
		 M4,8c0-1.7,1.3-3,3-3c1.7,0,3,1.3,3,3c0,1.7-1.3,3-3,3C5.3,11,4,9.6,4,8z M10,15c-0.6,0-1-0.4-1-1s0.4-1,1-1c0.6,0,1,0.4,1,1
		S10.6,15,10,15z M14,15c-0.6,0-1-0.4-1-1s0.4-1,1-1c0.6,0,1,0.4,1,1S14.6,15,14,15z M17,11c-1.7,0-3-1.3-3-3c0-1.7,1.3-3,3-3
		c1.7,0,3,1.3,3,3C20,9.6,18.7,11,17,11z"/>
</g>
</svg>
