<svg enable-background="new 0 0 24 24" viewBox="0 0 24 24" xmlns="http://www.w3.org/2000/svg"><path d="m2.7 16.3c1.5 2.8 5.1 4.7 9.3 4.7s7.8-1.9 9.3-4.7c-2.4 1.7-5.7 2.7-9.3 2.7s-6.9-1-9.3-2.7z"/><circle cx="7" cy="8" r="1"/><circle cx="17" cy="8" r="1"/><path d="m22 8c0-2.8-2.2-5-5-5-2.1 0-3.8 1.2-4.6 3-.1 0-.3 0-.4 0s-.3 0-.4 0c-.8-1.8-2.5-3-4.6-3-2.8 0-5 2.2-5 5 0 1 .3 1.9.8 2.7-.4.7-.7 1.4-.8 2.3 1.8 2.4 5.6 4 10 4s8.2-1.7 10-4c-.1-.8-.3-1.6-.7-2.3.4-.8.7-1.7.7-2.7zm-18 0c0-1.7 1.3-3 3-3s3 1.3 3 3-1.3 3-3 3-3-1.4-3-3zm6 7c-.6 0-1-.4-1-1s.4-1 1-1 1 .4 1 1-.4 1-1 1zm4 0c-.6 0-1-.4-1-1s.4-1 1-1 1 .4 1 1-.4 1-1 1zm3-4c-1.7 0-3-1.3-3-3s1.3-3 3-3 3 1.3 3 3c0 1.6-1.3 3-3 3z"/></svg>