<svg enable-background="new 0 0 24 24" viewBox="0 0 24 24" xmlns="http://www.w3.org/2000/svg"><path d="m22 5.5c0-1.9-1.6-3.5-3.5-3.5-1.6 0-2.9 1-3.3 2.5-1-.3-2.1-.5-3.2-.5s-2.2.2-3.2.5c-.4-1.5-1.7-2.5-3.3-2.5-1.9 0-3.5 1.6-3.5 3.5 0 1.2.6 2.2 1.5 2.8-1 1.4-1.5 3-1.5 4.7 0 2 .7 3.9 2 5.4 0-.1 0-.3 0-.4 0-3.9 3.6-7 8-7s8 3.1 8 7v.4c1.3-1.5 2-3.4 2-5.4 0-1.7-.5-3.3-1.5-4.7.9-.6 1.5-1.6 1.5-2.8zm-13 4.5c-.6 0-1-.4-1-1s.4-1 1-1 1 .4 1 1-.5 1-1 1zm6 0c-.6 0-1-.4-1-1s.4-1 1-1 1 .4 1 1-.5 1-1 1z"/><path d="m12 13c-3.3 0-6 2.2-6 5 0 1 .4 2 1 2.8 1.5.8 3.2 1.2 5 1.2s3.5-.4 4.9-1.2c.7-.8 1.1-1.7 1.1-2.8 0-2.8-2.7-5-6-5zm-3 4c-.6 0-1-.4-1-1s.4-1 1-1 1 .4 1 1-.5 1-1 1zm6 0c-.6 0-1-.4-1-1s.4-1 1-1 1 .4 1 1-.5 1-1 1z"/></svg>