<?xml version="1.0" encoding="utf-8"?>
<!-- Generator: Adobe Illustrator 18.0.0, SVG Export Plug-In . SVG Version: 6.00 Build 0)  -->
<!DOCTYPE svg PUBLIC "-//W3C//DTD SVG 1.1//EN" "http://www.w3.org/Graphics/SVG/1.1/DTD/svg11.dtd">
<svg version="1.1" id="Layer_1" xmlns="http://www.w3.org/2000/svg" xmlns:xlink="http://www.w3.org/1999/xlink" x="0px" y="0px"
	 viewBox="0 0 24 24" enable-background="new 0 0 24 24" xml:space="preserve">
<path d="M16.6,2H9l0,0c0,0,0,0,0,0H8v0.1C4.6,2.6,2,5.5,2,9c0,2.2,1,4.3,2.7,5.6C5.3,15,5,16,4.2,16H2v6h15v-7.6
	c0-1.8-0.9-3.4-2.2-4.4c0,0,4.5,0,4.6,0v0c2.5,0.2,2.7,3,2.7,3v-2.2V7.2C22,4.3,19.6,2,16.6,2z M7,7C6.5,7,6,6.5,6,6
	c0-0.5,0.4-1,1-1c0.5,0,1,0.4,1,1C8,6.5,7.5,7,7,7z M11.4,8C10.6,8,10,7.5,10,6.8V4h6.6C18.5,4,20,5.4,20,7.2v1
	C19.7,8.1,19.5,8,19.2,8H11.4z"/>
</svg>
