<svg enable-background="new 0 0 24 24" viewBox="0 0 24 24" xmlns="http://www.w3.org/2000/svg"><path d="m22 6c0-2.2-1.8-4-4-4-1.6 0-2.9.9-3.6 2.3-.8-.2-1.6-.3-2.4-.3s-1.6.1-2.4.3c-.7-1.4-2-2.3-3.6-2.3-2.2 0-4 1.8-4 4 0 1.1.4 2.1 1.2 2.8-.8 1.3-1.2 2.7-1.2 4.2 0 5 4.5 9 10 9s10-4 10-9c0-1.5-.4-2.9-1.2-4.2.8-.7 1.2-1.7 1.2-2.8zm-4-2c1.1 0 2 .9 2 2 0 .4-.1.8-.4 1.2-.9-1-2-1.7-3.3-2.3.4-.5 1-.9 1.7-.9zm-12 0c.7 0 1.3.4 1.7.9-1.3.5-2.4 1.3-3.3 2.3-.3-.4-.4-.8-.4-1.2 0-1.1.9-2 2-2zm2 8c-.6 0-1-.4-1-1s.4-1 1-1 1 .4 1 1-.4 1-1 1zm4 8c-1.1 0-2-.9-2-2h4c0 1.1-.9 2-2 2zm.9-3h-1.9c-1.5 0-2.6-1.5-2.1-2.9l1.7-5.1c.4-1.3 2.2-1.3 2.6 0l1.7 5.1c.6 1.4-.4 2.9-2 2.9zm3.1-5c-.6 0-1-.4-1-1s.4-1 1-1 1 .4 1 1-.4 1-1 1z"/></svg>