<svg enable-background="new 0 0 24 24" viewBox="0 0 24 24" xmlns="http://www.w3.org/2000/svg"><path d="m22 14.4c0-4.8-2-6.7-2-6.7h1c-.6-4.3-6-4.7-6-4.7l2-1c-3.3 0-5 1-5 1s-1.7-1-5-1l2 1s-5.4.4-6 4.8h1s-2 1.9-2 6.7l1-1s-.5 2.3 1 3.8v-1s.6 2.2 2 2.9v-1l1 1.9v-.9s1.2 1.4 2 1.8v-.9s1 1.1 3 1.8c2-.7 3-1.8 3-1.8v.9c.8-.4 2-1.8 2-1.8v.9l1-1.9v1c1.4-.7 2-2.9 2-2.9v1c1.5-1.5 1-3.8 1-3.8zm-5.6.3c-.1.1-.3.1-.4.1-.2 1.8-1.9 3.1-4 3.1s-3.8-1.4-4-3.1c-.1 0-.3 0-.4-.1-1.5-.5-2-2.7-1.2-4.8s2.7-3.3 4.2-2.7c.3.1.6.3.9.6s.8.3 1.1 0c.2-.3.5-.5.9-.6 1.5-.6 3.4.6 4.2 2.7.7 2.1.2 4.3-1.3 4.8z"/><circle cx="9" cy="11" r="1"/><circle cx="15" cy="11" r="1"/><path d="m12 16 2-2h-4z"/></svg>