<?xml version="1.0" encoding="utf-8"?>
<!-- Generator: Adobe Illustrator 18.0.0, SVG Export Plug-In . SVG Version: 6.00 Build 0)  -->
<!DOCTYPE svg PUBLIC "-//W3C//DTD SVG 1.1//EN" "http://www.w3.org/Graphics/SVG/1.1/DTD/svg11.dtd">
<svg version="1.1" id="Layer_1" xmlns="http://www.w3.org/2000/svg" xmlns:xlink="http://www.w3.org/1999/xlink" x="0px" y="0px"
	 viewBox="0 0 24 24" enable-background="new 0 0 24 24" xml:space="preserve">
<g>
	<path d="M22,14.4c0-4.8-2-6.7-2-6.7h1C20.4,3.4,15,3,15,3l2-1c-3.3,0-5,1-5,1s-1.7-1-5-1l2,1c0,0-5.4,0.4-6,4.8h1c0,0-2,1.9-2,6.7
		l1-1c0,0-0.5,2.3,1,3.8v-1c0,0,0.6,2.2,2,2.9v-1l1,1.9v-0.9c0,0,1.2,1.4,2,1.8v-0.9c0,0,1,1.1,3,1.8c2-0.7,3-1.8,3-1.8V21
		c0.8-0.4,2-1.8,2-1.8v0.9l1-1.9v1c1.4-0.7,2-2.9,2-2.9v1c1.5-1.5,1-3.8,1-3.8L22,14.4z M16.4,14.7c-0.1,0.1-0.3,0.1-0.4,0.1
		c-0.2,1.8-1.9,3.1-4,3.1s-3.8-1.4-4-3.1c-0.1,0-0.3,0-0.4-0.1c-1.5-0.5-2-2.7-1.2-4.8s2.7-3.3,4.2-2.7c0.3,0.1,0.6,0.3,0.9,0.6
		c0.3,0.3,0.8,0.3,1.1,0c0.2-0.3,0.5-0.5,0.9-0.6c1.5-0.6,3.4,0.6,4.2,2.7C18.4,12,17.9,14.2,16.4,14.7z"/>
	<circle cx="9" cy="11" r="1"/>
	<circle cx="15" cy="11" r="1"/>
	<polygon points="12,16 14,14 10,14 	"/>
</g>
</svg>
