<svg enable-background="new 0 0 24 24" viewBox="0 0 24 24" xmlns="http://www.w3.org/2000/svg"><path d="m22 5.5c0-1.9-1.6-3.5-3.5-3.5-1.2 0-2.3.7-2.9 1.6-1.2-.4-2.4-.6-3.6-.6s-2.4.2-3.5.6c-.7-.9-1.8-1.6-3-1.6-1.9 0-3.5 1.6-3.5 3.5 0 1 .4 1.9 1.1 2.6-.7 1.3-1.1 2.8-1.1 4.4 0 5.2 4.5 9.5 10 9.5s10-4.3 10-9.5c0-1.6-.4-3.1-1.1-4.4.7-.6 1.1-1.5 1.1-2.6zm-6.5 9.5c.3.6.5 1.3.5 2 0 2.2-1.8 4-4 4s-4-1.8-4-4c0-.7.2-1.4.5-2-2.5 0-4.5-2-4.5-4.5s2-4.5 4.5-4.5c1.4 0 2.7.7 3.5 1.7.8-1 2.1-1.7 3.5-1.7 2.5 0 4.5 2 4.5 4.5s-2 4.5-4.5 4.5z"/><circle cx="8" cy="10" r="1"/><circle cx="16" cy="10" r="1"/><circle cx="12" cy="14" r="2"/><path d="m11 19h2c1.1 0 2-.9 2-2h-6c0 1.1.9 2 2 2z"/></svg>