<?xml version="1.0" encoding="utf-8"?>
<!-- Generator: Adobe Illustrator 18.0.0, SVG Export Plug-In . SVG Version: 6.00 Build 0)  -->
<!DOCTYPE svg PUBLIC "-//W3C//DTD SVG 1.1//EN" "http://www.w3.org/Graphics/SVG/1.1/DTD/svg11.dtd">
<svg version="1.1" id="Layer_1" xmlns="http://www.w3.org/2000/svg" xmlns:xlink="http://www.w3.org/1999/xlink" x="0px" y="0px"
	 viewBox="0 0 24 24" enable-background="new 0 0 24 24" xml:space="preserve">
<g>
	<path d="M22,5.5C22,3.6,20.4,2,18.5,2c-1.2,0-2.3,0.7-2.9,1.6C14.4,3.2,13.2,3,12,3S9.6,3.2,8.5,3.6C7.8,2.7,6.7,2,5.5,2
		C3.6,2,2,3.6,2,5.5c0,1,0.4,1.9,1.1,2.6C2.4,9.4,2,10.9,2,12.5C2,17.7,6.5,22,12,22s10-4.3,10-9.5c0-1.6-0.4-3.1-1.1-4.4
		C21.6,7.5,22,6.6,22,5.5z M15.5,15c0.3,0.6,0.5,1.3,0.5,2c0,2.2-1.8,4-4,4s-4-1.8-4-4c0-0.7,0.2-1.4,0.5-2C6,15,4,13,4,10.5
		S6,6,8.5,6c1.4,0,2.7,0.7,3.5,1.7c0.8-1,2.1-1.7,3.5-1.7C18,6,20,8,20,10.5S18,15,15.5,15z"/>
	<circle cx="8" cy="10" r="1"/>
	<circle cx="16" cy="10" r="1"/>
	<circle cx="12" cy="14" r="2"/>
	<path d="M11,19h2c1.1,0,2-0.9,2-2H9C9,18.1,9.9,19,11,19z"/>
</g>
</svg>
