<svg enable-background="new 0 0 24 24" viewBox="0 0 24 24" xmlns="http://www.w3.org/2000/svg"><path d="m22 15v-2h-3.2c.1-.7.2-1.4.2-2 0-.4 0-.8-.1-1.1 1.8-.4 3.1-2 3.1-3.9 0-2.2-1.8-4-4-4-1.6 0-3.1 1-3.7 2.4-.7-.2-1.5-.4-2.3-.4s-1.6.1-2.3.4c-.7-1.4-2.1-2.4-3.7-2.4-2.2 0-4 1.8-4 4 0 1.9 1.3 3.5 3.1 3.9-.1.4-.1.7-.1 1.1 0 .6.1 1.3.2 2h-3.2v2h3.8c.1.4.3.8.5 1.3l-3.7 1.9.9 1.8 3.7-1.8c1.3 2.2 3 4 4.9 4s3.6-1.7 4.9-4l3.7 1.8.9-1.8-3.7-1.9c.2-.4.3-.8.5-1.3zm-6-5c.6 0 1 .4 1 1s-.4 1-1 1-1-.4-1-1c0-.5.4-1 1-1zm1.5-6c1.4 0 2.5 1.1 2.5 2.5 0 1-.6 1.8-1.4 2.2-.5-1.6-1.6-2.9-3.1-3.7.5-.6 1.2-1 2-1zm-9.5 6c.6 0 1 .4 1 1s-.4 1-1 1-1-.4-1-1c0-.5.4-1 1-1zm-4-3.5c0-1.4 1.1-2.5 2.5-2.5.8 0 1.5.4 2 1-1.5.8-2.6 2.1-3.1 3.7-.8-.4-1.4-1.2-1.4-2.2zm8 13.5c-1.1 0-2-.7-2-1.5s.9-1.5 2-1.5 2 .7 2 1.5-.9 1.5-2 1.5z"/></svg>