<svg enable-background="new 0 0 24 24" viewBox="0 0 24 24" xmlns="http://www.w3.org/2000/svg"><circle cx="8.5" cy="11.5" r="1.5"/><path d="m19 6.8 2.6-2c.4-.3.5-.8.3-1.2s-.6-.6-1.1-.6l-4.3.7-4.4-.7c-.1 0-.2 0-.3 0l-4.3.7-4.4-.7c-.4 0-.8.2-1 .6s-.1.9.3 1.2l2.6 2c-1.8 1-3 3-3 5.2 0 3.3 2.7 6 6 6h1l3 3 3-3c.3 0 .6.1.9.1 3.3 0 6-2.7 6-6 .1-2.3-1.1-4.2-2.9-5.3zm-11.7-1.1h.3l4.4-.7 4.3.7h.3l.7-.1-5.3 4.1-5.4-4.1zm1.2 9.3c-1.9 0-3.5-1.6-3.5-3.5 0-1.4.8-2.6 2-3.1l4.4 3.4c.2.1.4.2.6.2-.3 1.7-1.7 3-3.5 3zm7 0c-1.8 0-3.2-1.3-3.5-3 .2 0 .4-.1.6-.2l4.4-3.4c1.2.6 2 1.7 2 3.1 0 1.9-1.6 3.5-3.5 3.5z"/><circle cx="15.5" cy="11.5" r="1.5"/></svg>