<svg enable-background="new 0 0 24 24" viewBox="0 0 24 24" xmlns="http://www.w3.org/2000/svg"><path d="m22 14c-1.3 2.7-3.1 2.7-4 2-1.5-1.2-1-4.1 0-4 3.6.5 4-2 4-2-1.6-1.6-4-1-4-1v-2c4-1.4 4-5 4-5-5 0-6 3-6 3-1-.6-2.2-1-4-1s-3 .3-4 1c0 0-1-3-6-3 0 0 0 3.6 4 5v2s-2.4-.6-4 1c0 0 .4 2.5 4 2 1-.1 1.5 2.8 0 4-.9.7-2.7.7-4-2 0 0-.3 4.3 4 4 0 0 0 4 6 4s6-4 6-4c4.2.3 4-4 4-4zm-14-4c0-.6.4-1 1-1s1 .4 1 1-.4 1-1 1c-.5 0-1-.4-1-1zm2 10c-.6 0-1-.4-1-1s.4-1 1-1 1 .4 1 1-.4 1-1 1zm4 0c-.6 0-1-.4-1-1s.4-1 1-1 1 .4 1 1-.4 1-1 1zm1-9c-.6 0-1-.4-1-1s.4-1 1-1 1 .4 1 1-.4 1-1 1z"/></svg>