<svg enable-background="new 0 0 24 24" viewBox="0 0 24 24" xmlns="http://www.w3.org/2000/svg"><path d="m22 5.5c0-1.9-1.6-3.5-3.5-3.5-1.6 0-3 1.1-3.4 2.6-1-.4-2-.6-3.1-.6s-2.2.2-3.1.6c-.4-1.5-1.8-2.6-3.4-2.6-1.9 0-3.5 1.6-3.5 3.5 0 1.3.7 2.5 1.8 3.1-1.1 1.6-1.8 3.5-1.8 5.5 0 4.9 4.5 7.9 10 7.9s10-3 10-7.9c0-1.9-.7-3.9-1.8-5.5 1.1-.6 1.8-1.8 1.8-3.1zm-17.1 8.8c-1.2-1.1-1-3.3.4-4.9 1.5-1.5 3.7-1.9 4.9-.7 1.2 1.1 1 3.3-.4 4.9-1.5 1.5-3.6 1.8-4.9.7zm11.7 4.5c-1.1.7-2 1.1-2.8 1.1-.4 0-.8-.1-1.1-.3-.2-.1-.4-.3-.6-.5-.2.2-.4.3-.6.5-.3.2-.7.3-1.1.3-.8 0-1.8-.4-2.8-1.1-.5-.3-.6-.9-.2-1.4.3-.5.9-.6 1.4-.2 1 .7 1.7.8 1.9.7.3-.1.5-.7.5-1.1-.6-.3-1-.7-1-1.3 0-.8.9-1.5 2-1.5s2 .7 2 1.5c0 .5-.4 1-1 1.3 0 .4.2 1 .5 1.1s.9 0 1.9-.7c.5-.3 1.1-.2 1.4.2.1.5 0 1.1-.4 1.4zm2.5-4.5c-1.2 1.1-3.4.8-4.8-.8-1.5-1.6-1.6-3.7-.4-4.9 1.2-1.1 3.4-.8 4.8.8s1.6 3.7.4 4.9z"/><circle cx="8" cy="11" r="1"/><circle cx="16" cy="11" r="1"/></svg>