<svg enable-background="new 0 0 24 24" viewBox="0 0 24 24" xmlns="http://www.w3.org/2000/svg"><circle cx="10" cy="17" r="1"/><circle cx="14" cy="17" r="1"/><path d="m22 6.4v-4.4h-4.4c-1.5 0-2.8.9-3.4 2.3-1.5-.4-3.1-.4-4.5 0-.5-1.4-1.8-2.3-3.3-2.3h-4.4v4.4c0 1.3.7 2.4 1.7 3.1-.5 1.1-.7 2.3-.7 3.5 0 5 4 9 9 9s9-4 9-9c0-1.2-.2-2.4-.7-3.5 1-.7 1.7-1.9 1.7-3.1zm-17.3 1.3c-.4-.3-.7-.8-.7-1.3v-2.4h2.4c.6 0 1.2.4 1.5 1-1.3.7-2.4 1.6-3.2 2.7zm3.3 3.3c0-.6.4-1 1-1s1 .4 1 1-.4 1-1 1-1-.5-1-1zm4 9c-2.2 0-4-1.3-4-3s1.8-3 4-3 4 1.3 4 3c0 1.6-1.8 3-4 3zm3-8c-.6 0-1-.4-1-1s.4-1 1-1 1 .4 1 1c0 .5-.4 1-1 1zm5-5.6c0 .5-.3 1.1-.7 1.4-.8-1.1-1.9-2.1-3.1-2.7.2-.6.8-1 1.5-1h2.3z"/></svg>