<?xml version="1.0" encoding="utf-8"?>
<!-- Generator: Adobe Illustrator 18.0.0, SVG Export Plug-In . SVG Version: 6.00 Build 0)  -->
<!DOCTYPE svg PUBLIC "-//W3C//DTD SVG 1.1//EN" "http://www.w3.org/Graphics/SVG/1.1/DTD/svg11.dtd">
<svg version="1.1" id="Layer_1" xmlns="http://www.w3.org/2000/svg" xmlns:xlink="http://www.w3.org/1999/xlink" x="0px" y="0px"
	 viewBox="0 0 24 24" enable-background="new 0 0 24 24" xml:space="preserve">
<g>
	<circle cx="10" cy="17" r="1"/>
	<circle cx="14" cy="17" r="1"/>
	<path d="M22,6.4V2h-4.4c-1.5,0-2.8,0.9-3.4,2.3c-1.5-0.4-3.1-0.4-4.5,0C9.2,2.9,7.9,2,6.4,2H2l0,4.4c0,1.3,0.7,2.4,1.7,3.1
		C3.2,10.6,3,11.8,3,13c0,5,4,9,9,9s9-4,9-9c0-1.2-0.2-2.4-0.7-3.5C21.3,8.8,22,7.6,22,6.4z M4.7,7.7C4.3,7.4,4,6.9,4,6.4L4,4h2.4
		C7,4,7.6,4.4,7.9,5C6.6,5.7,5.5,6.6,4.7,7.7z M8,11c0-0.6,0.4-1,1-1c0.6,0,1,0.4,1,1c0,0.6-0.4,1-1,1C8.4,12,8,11.5,8,11z M12,20
		c-2.2,0-4-1.3-4-3c0-1.7,1.8-3,4-3c2.2,0,4,1.3,4,3C16,18.6,14.2,20,12,20z M15,12c-0.6,0-1-0.4-1-1c0-0.6,0.4-1,1-1
		c0.6,0,1,0.4,1,1C16,11.5,15.6,12,15,12z M20,6.4c0,0.5-0.3,1.1-0.7,1.4c-0.8-1.1-1.9-2.1-3.1-2.7c0.2-0.6,0.8-1,1.5-1H20V6.4z"/>
</g>
</svg>
