<?xml version="1.0" encoding="utf-8"?>
<!-- Generator: Adobe Illustrator 18.0.0, SVG Export Plug-In . SVG Version: 6.00 Build 0)  -->
<!DOCTYPE svg PUBLIC "-//W3C//DTD SVG 1.1//EN" "http://www.w3.org/Graphics/SVG/1.1/DTD/svg11.dtd">
<svg version="1.1" id="Layer_1" xmlns="http://www.w3.org/2000/svg" xmlns:xlink="http://www.w3.org/1999/xlink" x="0px" y="0px"
	 viewBox="0 0 24 24" enable-background="new 0 0 24 24" xml:space="preserve">
<path d="M21.5,7.2c0.8-1.5,0.7-4.2-0.8-4.9c-1.5-0.8-3.7,0.7-4.5,2.1c-0.4,0.8-1.2,3.1-1.5,5.2C13.9,9.2,13,9,12,9
	c-1,0-1.9,0.2-2.7,0.5C9,7.5,8.2,5.2,7.8,4.4C7,2.9,4.7,1.4,3.3,2.2C1.8,3,1.7,5.7,2.5,7.2c0.5,0.9,2.2,3.1,3.9,4.6
	C5.5,12.8,5,14.1,5,15.5c0,3.6,3.1,6.5,7,6.5s7-2.9,7-6.5c0-1.4-0.5-2.7-1.3-3.8C19.3,10.3,21,8.1,21.5,7.2z M6.1,9.8
	c-0.4-0.7-0.5-2,0-2.2c0.5-0.3,1.4,0.6,1.8,1.3C8,9,8.2,9.5,8.4,10c-0.5,0.3-1,0.7-1.4,1.1C6.6,10.5,6.2,10,6.1,9.8z M9,13
	c0.6,0,1,0.4,1,1c0,0.6-0.4,1-1,1c-0.6,0-1-0.4-1-1C8,13.5,8.4,13,9,13z M13.7,21c-0.1,0-0.3,0.1-0.5,0.1c-0.3,0-0.7-0.1-1.2-0.3
	c-0.4,0.2-0.8,0.3-1.2,0.3c-0.2,0-0.3,0-0.5-0.1c-1.5-0.4-2.2-2.4-2.3-2.7l1.9-0.6c0.2,0.6,0.7,1.3,0.9,1.4c0,0,0.1,0,0.2-0.1v-1.3
	c-0.6-0.3-1-0.7-1-1.3c0-0.8,0.9-1.5,2-1.5s2,0.7,2,1.5c0,0.5-0.4,1-1,1.3v1.3c0.1,0,0.1,0.1,0.2,0.1c0.3-0.1,0.7-0.8,0.9-1.4
	l1.9,0.6C15.9,18.7,15.2,20.7,13.7,21z M15,15c-0.6,0-1-0.4-1-1c0-0.6,0.4-1,1-1c0.6,0,1,0.4,1,1C16,14.6,15.6,15,15,15z M17.9,9.8
	c-0.1,0.3-0.5,0.7-0.8,1.3c-0.4-0.4-0.9-0.8-1.4-1.1C15.8,9.5,16,9,16.1,8.8c0.4-0.7,1.3-1.6,1.8-1.3C18.4,7.8,18.3,9,17.9,9.8z"/>
</svg>
