<svg enable-background="new 0 0 24 24" viewBox="0 0 24 24" xmlns="http://www.w3.org/2000/svg"><path d="m21.5 7.2c.8-1.5.7-4.2-.8-4.9-1.5-.8-3.7.7-4.5 2.1-.4.8-1.2 3.1-1.5 5.2-.8-.4-1.7-.6-2.7-.6s-1.9.2-2.7.5c-.3-2-1.1-4.3-1.5-5.1-.8-1.5-3.1-3-4.5-2.2-1.5.8-1.6 3.5-.8 5 .5.9 2.2 3.1 3.9 4.6-.9 1-1.4 2.3-1.4 3.7 0 3.6 3.1 6.5 7 6.5s7-2.9 7-6.5c0-1.4-.5-2.7-1.3-3.8 1.6-1.4 3.3-3.6 3.8-4.5zm-15.4 2.6c-.4-.7-.5-2 0-2.2.5-.3 1.4.6 1.8 1.3.1.1.3.6.5 1.1-.5.3-1 .7-1.4 1.1-.4-.6-.8-1.1-.9-1.3zm2.9 3.2c.6 0 1 .4 1 1s-.4 1-1 1-1-.4-1-1c0-.5.4-1 1-1zm4.7 8c-.1 0-.3.1-.5.1-.3 0-.7-.1-1.2-.3-.4.2-.8.3-1.2.3-.2 0-.3 0-.5-.1-1.5-.4-2.2-2.4-2.3-2.7l1.9-.6c.2.6.7 1.3.9 1.4 0 0 .1 0 .2-.1v-1.3c-.6-.3-1-.7-1-1.3 0-.8.9-1.5 2-1.5s2 .7 2 1.5c0 .5-.4 1-1 1.3v1.3c.1 0 .1.1.2.1.3-.1.7-.8.9-1.4l1.9.6c-.1.4-.8 2.4-2.3 2.7zm1.3-6c-.6 0-1-.4-1-1s.4-1 1-1 1 .4 1 1-.4 1-1 1zm2.9-5.2c-.1.3-.5.7-.8 1.3-.4-.4-.9-.8-1.4-1.1.1-.5.3-1 .4-1.2.4-.7 1.3-1.6 1.8-1.3s.4 1.5 0 2.3z"/></svg>