<?xml version="1.0" encoding="utf-8"?>
<!-- Generator: Adobe Illustrator 18.0.0, SVG Export Plug-In . SVG Version: 6.00 Build 0)  -->
<!DOCTYPE svg PUBLIC "-//W3C//DTD SVG 1.1//EN" "http://www.w3.org/Graphics/SVG/1.1/DTD/svg11.dtd">
<svg version="1.1" id="Layer_1" xmlns="http://www.w3.org/2000/svg" xmlns:xlink="http://www.w3.org/1999/xlink" x="0px" y="0px"
	 viewBox="0 0 24 24" enable-background="new 0 0 24 24" xml:space="preserve">
<path d="M21.9,12c-0.4,1-4,1-4,1c-4.6-4.5-7-2.7-7-2.7S11.6,5.6,8.4,3C5.4,0.6,5,3.3,5,3.3C3,3.3,2,4,2,4c0.4,0.5,3,0.7,3,0.7
	C5.9,5.6,7.3,5,8,5.3c1,0.6-1,6-1,7.7c0,3.7,3.3,5.6,5.9,6v1c-1.1,0-2,0.9-2,2h5v-0.8c0-0.6-0.4-1.1-1-1.2v-1c2.6-0.6,4-4,4-4
	C22.7,16,21.9,12,21.9,12z"/>
</svg>
