<svg enable-background="new 0 0 24 24" viewBox="0 0 24 24" xmlns="http://www.w3.org/2000/svg"><circle cx="9" cy="13" r="1"/><circle cx="15" cy="13" r="1"/><path d="m12 18c1.1 0 2-.9 2-2h-4c0 1.1.9 2 2 2z"/><path d="m19.9 8.1c0-.1.1-.1.1-.2.1.1.3.1.5.1.8 0 1.5-.7 1.5-1.5s-.7-1.5-1.5-1.5c-.2 0-.4 0-.6.1-.1-.6-.7-1.1-1.4-1.1-.2 0-.5.1-.7.2-.3-.7-1-1.2-1.8-1.2-.5 0-1 .2-1.4.6-.5-1-1.5-1.6-2.6-1.6s-2.1.6-2.6 1.6c-.4-.4-.9-.6-1.4-.6-.8 0-1.5.5-1.8 1.2-.2-.1-.5-.2-.7-.2-.7 0-1.3.5-1.4 1.1-.2-.1-.4-.1-.6-.1-.8 0-1.5.7-1.5 1.5s.7 1.5 1.5 1.5c.2 0 .4 0 .6-.1v.2c-1.4.6-2.2 2.1-2.1 3.9.7.1 1.4 0 2-.3v3.3c0 1.6.8 3 2.1 3.9l3.2 2.2c.8.6 1.7.9 2.7.9s1.9-.3 2.7-.8l3.2-2.2c1.3-.9 2.1-2.4 2.1-3.9v-3.3c.6.2 1.2.4 2 .3.1-1.9-.7-3.4-2.1-4zm-1.9 6.9c0 .9-.4 1.8-1.2 2.3l-3.2 2.2c-.9.6-2.2.6-3.1 0l-3.2-2.2c-.8-.5-1.3-1.4-1.3-2.3v-4.3c0-.6.1-1.1.4-1.6.3.6.9.9 1.6.9.5 0 1-.2 1.4-.6.5 1 1.5 1.6 2.6 1.6s2.1-.6 2.6-1.6c.4.4.9.6 1.4.6.7 0 1.3-.3 1.6-.9.2.5.4 1 .4 1.6z"/></svg>