<svg fill="none" height="40" viewBox="0 0 40 40" width="40" xmlns="http://www.w3.org/2000/svg"><path clip-rule="evenodd" d="m20.0381 5.6c-7.9739 0-14.4381 6.4642-14.4381 14.4381s6.4642 14.4381 14.4381 14.4381 14.4381-6.4642 14.4381-14.4381-6.4642-14.4381-14.4381-14.4381zm-16.0381 14.4381c0-8.8576 7.1805-16.0381 16.0381-16.0381s16.0381 7.1805 16.0381 16.0381-7.1805 16.0381-16.0381 16.0381-16.0381-7.1805-16.0381-16.0381zm17.9429-.0001c0-1.052-.8528-1.9048-1.9048-1.9048s-1.9048.8528-1.9048 1.9048.8528 1.9048 1.9048 1.9048 1.9048-.8528 1.9048-1.9048zm6.8237-7.8092c.084-.2816.0069-.5867-.2009-.7945s-.5129-.2849-.7945-.2009l-12.3222 3.6778c-.2585.0771-.4607.2793-.5378.5378l-3.6778 12.3222c-.084.2816-.0069.5867.2009.7945s.5129.2849.7945.2009l12.3222-3.6778c.2585-.0771.4607-.2793.5378-.5378zm-15.5765 14.5811 3.1306-10.4892 10.4892-3.1306-3.1306 10.4892z" fill="#fff" fill-rule="evenodd"/></svg>