<svg fill="none" height="40" viewBox="0 0 40 40" width="40" xmlns="http://www.w3.org/2000/svg"><path clip-rule="evenodd" d="m17.9035 4.80562c0-.44183-.3582-.8-.8-.8-.4419 0-.8.35817-.8.8v14.39998h-8.30348c-.34593 0-.65267.2224-.76029.5511-.10763.3288.00824.6895.2872.894l11.99997 8.8c.2816.2065.6646.2065.9462 0l12-8.8c.279-.2045.3948-.5652.2872-.894-.1076-.3287-.4143-.5511-.7603-.5511h-8.3034v-14.39998c0-.44183-.3582-.8-.8-.8-.4419 0-.8.35817-.8.8v15.19998c0 .4418.3581.8.8.8h6.6597l-9.5563 7.008-9.5563-7.008h6.6598c.4418 0 .8-.3582.8-.8zm-10.1035 28.40008c-.44183 0-.8.3581-.8.8 0 .4418.35817.8.8.8h24.4c.4418 0 .8-.3582.8-.8 0-.4419-.3582-.8-.8-.8z" fill="#fff" fill-rule="evenodd"/></svg>