<svg fill="none" height="40" viewBox="0 0 40 40" width="40" xmlns="http://www.w3.org/2000/svg"><path clip-rule="evenodd" d="m10.2 7.99995c0-1.5464 1.2536-2.8 2.8-2.8h19c1.5464 0 2.8 1.2536 2.8 2.8v19.00005c0 1.5463-1.2536 2.7999-2.8 2.7999h-19c-1.5464 0-2.8-1.2536-2.8-2.7999zm2.8-1.2c-.6627 0-1.2.53726-1.2 1.2v19.00005c0 .6627.5373 1.2 1.2 1.2h19c.6627 0 1.2-.5373 1.2-1.2v-19.00005c0-.66274-.5373-1.2-1.2-1.2zm-7.2 5.46315c.44183 0 .8.3581.8.8v19.0525c0 .6628.53726 1.2 1.2 1.2h19.0526c.4418 0 .8.3582.8.8s-.3582.8-.8.8h-19.0526c-1.54639 0-2.8-1.2536-2.8-2.8v-19.0525c0-.4419.35817-.8.8-.8zm21.9315 1.2828c-1.8506 0-3.6565-.7975-4.8393-1.444l.8536 8.5366c.032.1676.0489.3438.0489.5286 0 1.1396-.5175 2.0298-1.2712 2.6269-.7339.5814-1.6755.8772-2.5812.9282-.9031.0508-1.8558-.1372-2.6101-.627-.7824-.5081-1.3322-1.3366-1.3322-2.4385 0-1.0958.542-1.939 1.2908-2.4953.7301-.5424 1.662-.8234 2.5562-.8798.7019-.0443 1.4372.0465 2.0857.306l-.7156-7.1567c-.0132-.1316-.0228-.2821-.0137-.4283.0077-.1243.0337-.3642.183-.5872.0842-.1258.2092-.2481.3815-.3283.1699-.079.3385-.09517.4786-.084.2524.0202.4616.1324.5943.215.9756.6074 2.9714 1.7278 4.8907 1.7278.4418 0 .8.3582.8.8s-.3582.8-.8.8zm-4.9312-2.4442c.0008-.0135.0019-.0115-.0001.002zm-.8315.4599c0-.0002.0026.001.0082.004-.0054-.0023-.0081-.0038-.0082-.004zm.2256 9.6423-.0315-.3143c-.0699-.2862-.2544-.5064-.5455-.6797-.4086-.2434-1.0122-.3729-1.6697-.3314-.6545.0412-1.2712.2466-1.7027.5672-.4127.3066-.645.7028-.645 1.211 0 .502.2246.8505.6036 1.0966.4072.2644 1.0032.4078 1.6488.3714.6429-.0362 1.25-.2462 1.6776-.5849.3996-.3165.6542-.7495.6644-1.3359z" fill="#fff" fill-rule="evenodd"/></svg>