<svg fill="none" height="40" viewBox="0 0 40 40" width="40" xmlns="http://www.w3.org/2000/svg"><path clip-rule="evenodd" d="m21.0834 10.9816c-1.9909 4.0385-1.9865 8.5401-.3628 12.3907 4.0431-1.057 7.6163-3.7949 9.6072-7.8334 1.9909-4.0386 1.9866-8.54018.3628-12.39079-4.043 1.05701-7.6163 3.79497-9.6072 7.83349zm-1.4351-.7075c-1.5441 3.1322-2.0036 6.5166-1.5235 9.727-1.2895-1.554-2.9194-2.8681-4.8477-3.8188-2.8595-1.4096-5.95324-1.812-8.87858-1.3439-.52479.0839-.86405.5909-.74162 1.1081.98285 4.1514 3.74231 7.8487 7.8677 9.8824 2.8319 1.396 5.8936 1.8042 8.794 1.3572.1066 1.823-.0713 3.6779-.5562 5.4982-2.9808.1563-5.742 1.1484-8.0512 2.7465-.3633.2514-.454.7497-.2026 1.113.2514.3634.7498.4541 1.1131.2026 2.2635-1.5663 5.0093-2.4839 7.9718-2.4839s5.7083.9176 7.9718 2.4839c.3633.2515.8616.1608 1.113-.2026.2515-.3633.1608-.8616-.2026-1.113-2.312-1.6-5.0772-2.5927-8.0623-2.7471.6211-2.561.6912-5.1752.2631-7.6879-.0127-.0746-.0354-.145-.0664-.2101 4.2734-1.2569 8.028-4.2291 10.1528-8.5394 2.3013-4.6681 2.1936-9.89655.1562-14.27437-.1843-.39586-.6175-.60942-1.0436-.51447-4.7132 1.04995-8.9259 4.14857-11.2272 8.81664zm-14.23624 6.0449c2.37938-.2404 4.85194.1618 7.15754 1.2984 3.4321 1.692 5.8044 4.6729 6.82 8.0748-2.3794.2404-4.852-.1618-7.1576-1.2984-3.43209-1.692-5.80434-4.6729-6.81994-8.0748z" fill="#fff" fill-rule="evenodd"/></svg>