<svg enable-background="new 0 0 100 100" viewBox="0 0 100 100" xmlns="http://www.w3.org/2000/svg"><path d="m89.2 64.8c0-.4-.1-.8-.3-1.1-.4-.5-1.1-.7-1.7-.6-.7.1-1.4.4-2.1.7-.5.2-1 .4-1.6.6-1.1.4-2.3.8-3.4 1.1-1.2.3-2.3.6-3.5.8s-2.4.3-3.6.4c-.8.1-1.7.1-2.5.1-20.5 0-37.1-16.7-37.1-37.2 0-2.4.2-4.9.7-7.3s1.2-4.7 2.1-7c.3-.7.7-1.4.8-2.2.1-.5.1-1.1-.2-1.6-.5-.8-1.8-.8-2.6-.5-.7.2-1.4.6-2 1-.7.4-1.4.7-2 1.2-1.5.9-3 2-4.4 3.1s-2.7 2.3-3.9 3.6-2.3 2.6-3.3 4-1.9 2.8-2.8 4.4c-.8 1.5-1.6 3.1-2.2 4.7s-1.2 3.2-1.6 4.9-.8 3.4-1 5.1-.3 3.4-.4 5.2c0 1.7.1 3.5.3 5.2.2 1.8.5 3.5 1 5.2s1 3.5 1.7 5.1c.3.7.6 1.4.9 2.1 9.7 20.6 34.2 29.4 54.7 19.7.9-.4 1.8-.9 2.7-1.4s1.8-1 2.6-1.6c.9-.6 1.7-1.2 2.5-1.8s1.6-1.3 2.3-2c2.4-2.1 4.5-4.5 6.3-7.1 1.1-1.7 2.2-3.4 3.1-5.2.3-.5.5-1 .5-1.6zm-37.3 20.4c-20.5 0-37.1-16.5-37.2-37 0-12.4 6.2-24.1 16.5-31-6.8 21.7 5.3 44.8 26.9 51.6 8 2.5 16.6 2.5 24.6 0-6.9 10.3-18.5 16.4-30.8 16.4zm.7-57.2c0-1.1.9-2 2-2h13.5c1.1 0 2 .9 2 2 0 .4-.1.8-.4 1.2l-9.5 13.1h7.8c1.1 0 2 .9 2 2s-.9 2-2 2h-11.7c-1.1 0-2-.9-2-2 0-.4.1-.8.4-1.2l9.5-13.1h-9.6c-1.1.1-2-.8-2-2zm21-8.9c0-1.1.9-2 2-2h9.6c1.1 0 2 .9 2 2 0 .4-.1.8-.4 1.2l-6.1 8.4h4.5c1.1 0 2 .9 2 2s-.9 2-2 2h-8.4c-1.1 0-2-.9-2-2 0-.4.1-.8.4-1.2l6.1-8.4h-5.7c-1.1 0-2-.9-2-2z" fill="#fff"/></svg>