<svg style="enable-background:new 0 0 100 100;" id="Layer_1" version="1.1" viewBox="0 0 100 100" xmlns="http://www.w3.org/2000/svg" xml:space="preserve">
<path d="M89.2,64.8c0-0.4-0.1-0.8-0.3-1.1c-0.4-0.5-1.1-0.7-1.7-0.6c-0.7,0.1-1.4,0.4-2.1,0.7c-0.5,0.2-1,0.4-1.6,0.6  c-1.1,0.4-2.3,0.8-3.4,1.1c-1.2,0.3-2.3,0.6-3.5,0.8c-1.2,0.2-2.4,0.3-3.6,0.4c-0.8,0.1-1.7,0.1-2.5,0.1  c-20.5,0-37.1-16.7-37.1-37.2c0-2.4,0.2-4.9,0.7-7.3s1.2-4.7,2.1-7c0.3-0.7,0.7-1.4,0.8-2.2c0.1-0.5,0.1-1.1-0.2-1.6  c-0.5-0.8-1.8-0.8-2.6-0.5c-0.7,0.2-1.4,0.6-2,1c-0.7,0.4-1.4,0.7-2,1.2c-1.5,0.9-3,2-4.4,3.1s-2.7,2.3-3.9,3.6  c-1.2,1.3-2.3,2.6-3.3,4s-1.9,2.8-2.8,4.4c-0.8,1.5-1.6,3.1-2.2,4.7c-0.6,1.6-1.2,3.2-1.6,4.9c-0.4,1.7-0.8,3.4-1,5.1  c-0.2,1.7-0.3,3.4-0.4,5.2c0,1.7,0.1,3.5,0.3,5.2c0.2,1.8,0.5,3.5,1,5.2s1,3.5,1.7,5.1c0.3,0.7,0.6,1.4,0.9,2.1  c9.7,20.6,34.2,29.4,54.7,19.7c0.9-0.4,1.8-0.9,2.7-1.4c0.9-0.5,1.8-1,2.6-1.6c0.9-0.6,1.7-1.2,2.5-1.8c0.8-0.6,1.6-1.3,2.3-2  c2.4-2.1,4.5-4.5,6.3-7.1c1.1-1.7,2.2-3.4,3.1-5.2C89,65.9,89.2,65.4,89.2,64.8z M51.9,85.2c-20.5,0-37.1-16.5-37.2-37  c0-12.4,6.2-24.1,16.5-31C24.4,38.9,36.5,62,58.1,68.8c8,2.5,16.6,2.5,24.6,0C75.8,79.1,64.2,85.2,51.9,85.2z M52.6,28  c0-1.1,0.9-2,2-2h13.5c1.1,0,2,0.9,2,2c0,0.4-0.1,0.8-0.4,1.2l-9.5,13.1H68c1.1,0,2,0.9,2,2s-0.9,2-2,2H56.3c-1.1,0-2-0.9-2-2  c0-0.4,0.1-0.8,0.4-1.2L64.2,30h-9.6C53.5,30.1,52.6,29.2,52.6,28L52.6,28z M73.6,19.1c0-1.1,0.9-2,2-2h9.6c1.1,0,2,0.9,2,2  c0,0.4-0.1,0.8-0.4,1.2l-6.1,8.4h4.5c1.1,0,2,0.9,2,2s-0.9,2-2,2h-8.4c-1.1,0-2-0.9-2-2c0-0.4,0.1-0.8,0.4-1.2l6.1-8.4h-5.7  C74.5,21.1,73.6,20.2,73.6,19.1L73.6,19.1z" fill="white" />
</svg>
