<svg style="enable-background:new 0 0 100 100;" id="Layer_1" version="1.1" viewBox="0 0 100 100" xmlns="http://www.w3.org/2000/svg" xml:space="preserve">
<path d="m 89.2,64.8 c 0,-0.4 -0.1,-0.8 -0.3,-1.1 -0.4,-0.5 -1.1,-0.7 -1.7,-0.6 -0.7,0.1 -1.4,0.4 -2.1,0.7 -0.5,0.2 -1,0.4 -1.6,0.6 -1.1,0.4 -2.3,0.8 -3.4,1.1 -1.2,0.3 -2.3,0.6 -3.5,0.8 -1.2,0.2 -2.4,0.3 -3.6,0.4 -0.8,0.1 -1.7,0.1 -2.5,0.1 -20.5,0 -37.1,-16.7 -37.1,-37.2 0,-2.4 0.2,-4.9 0.7,-7.3 0.5,-2.4 1.2,-4.7 2.1,-7 0.3,-0.7 0.7,-1.4 0.8,-2.2 0.1,-0.5 0.1,-1.1 -0.2,-1.6 -0.5,-0.8 -1.8,-0.8 -2.6,-0.5 -0.7,0.2 -1.4,0.6 -2,1 -0.7,0.4 -1.4,0.7 -2,1.2 -1.5,0.9 -3,2 -4.4,3.1 -1.4,1.1 -2.7,2.3 -3.9,3.6 -1.2,1.3 -2.3,2.6 -3.3,4 -1,1.4 -1.9,2.8 -2.8,4.4 -0.8,1.5 -1.6,3.1 -2.2,4.7 -0.6,1.6 -1.2,3.2 -1.6,4.9 -0.4,1.7 -0.8,3.4 -1,5.1 -0.2,1.7 -0.3,3.4 -0.4,5.2 0,1.7 0.1,3.5 0.3,5.2 0.2,1.8 0.5,3.5 1,5.2 0.5,1.7 1,3.5 1.7,5.1 l 0.9,2.1 c 9.7,20.6 34.2,29.4 54.7,19.7 0.9,-0.4 1.8,-0.9 2.7,-1.4 0.9,-0.5 1.8,-1 2.6,-1.6 0.9,-0.6 1.7,-1.2 2.5,-1.8 0.8,-0.6 1.6,-1.3 2.3,-2 2.4,-2.1 4.5,-4.5 6.3,-7.1 1.1,-1.7 2.2,-3.4 3.1,-5.2 0.3,-0.5 0.5,-1 0.5,-1.6 z m -31.1,4 c -38.733333,-45.866667 -19.366667,-22.933333 0,0 z M 52.6,28 c 0,-1.1 0.9,-2 2,-2 h 13.5 c 1.1,0 2,0.9 2,2 0,0.4 -0.1,0.8 -0.4,1.2 L 60.2,42.3 H 68 c 1.1,0 2,0.9 2,2 0,1.1 -0.9,2 -2,2 H 56.3 c -1.1,0 -2,-0.9 -2,-2 0,-0.4 0.1,-0.8 0.4,-1.2 L 64.2,30 h -9.6 c -1.1,0.1 -2,-0.8 -2,-2 z m 21,-8.9 c 0,-1.1 0.9,-2 2,-2 h 9.6 c 1.1,0 2,0.9 2,2 0,0.4 -0.1,0.8 -0.4,1.2 l -6.1,8.4 h 4.5 c 1.1,0 2,0.9 2,2 0,1.1 -0.9,2 -2,2 h -8.4 c -1.1,0 -2,-0.9 -2,-2 0,-0.4 0.1,-0.8 0.4,-1.2 l 6.1,-8.4 h -5.7 c -1.1,0 -2,-0.9 -2,-2 z" fill="white" />
</svg>
